G04 #@! TF.GenerationSoftware,KiCad,Pcbnew,7.0.7*
G04 #@! TF.CreationDate,2024-05-01T20:55:32+03:00*
G04 #@! TF.ProjectId,pico-hd-mcu-v2,7069636f-2d68-4642-9d6d-63752d76322e,rev?*
G04 #@! TF.SameCoordinates,Original*
G04 #@! TF.FileFunction,Legend,Bot*
G04 #@! TF.FilePolarity,Positive*
%FSLAX46Y46*%
G04 Gerber Fmt 4.6, Leading zero omitted, Abs format (unit mm)*
G04 Created by KiCad (PCBNEW 7.0.7) date 2024-05-01 20:55:32*
%MOMM*%
%LPD*%
G01*
G04 APERTURE LIST*
G04 Aperture macros list*
%AMOutline4P*
0 Free polygon, 4 corners , with rotation*
0 The origin of the aperture is its center*
0 number of corners: always 4*
0 $1 to $8 corner X, Y*
0 $9 Rotation angle, in degrees counterclockwise*
0 create outline with 4 corners*
4,1,4,$1,$2,$3,$4,$5,$6,$7,$8,$1,$2,$9*%
%AMOutline5P*
0 Free polygon, 5 corners , with rotation*
0 The origin of the aperture is its center*
0 number of corners: always 5*
0 $1 to $10 corner X, Y*
0 $11 Rotation angle, in degrees counterclockwise*
0 create outline with 5 corners*
4,1,5,$1,$2,$3,$4,$5,$6,$7,$8,$9,$10,$1,$2,$11*%
%AMOutline6P*
0 Free polygon, 6 corners , with rotation*
0 The origin of the aperture is its center*
0 number of corners: always 6*
0 $1 to $12 corner X, Y*
0 $13 Rotation angle, in degrees counterclockwise*
0 create outline with 6 corners*
4,1,6,$1,$2,$3,$4,$5,$6,$7,$8,$9,$10,$11,$12,$1,$2,$13*%
%AMOutline7P*
0 Free polygon, 7 corners , with rotation*
0 The origin of the aperture is its center*
0 number of corners: always 7*
0 $1 to $14 corner X, Y*
0 $15 Rotation angle, in degrees counterclockwise*
0 create outline with 7 corners*
4,1,7,$1,$2,$3,$4,$5,$6,$7,$8,$9,$10,$11,$12,$13,$14,$1,$2,$15*%
%AMOutline8P*
0 Free polygon, 8 corners , with rotation*
0 The origin of the aperture is its center*
0 number of corners: always 8*
0 $1 to $16 corner X, Y*
0 $17 Rotation angle, in degrees counterclockwise*
0 create outline with 8 corners*
4,1,8,$1,$2,$3,$4,$5,$6,$7,$8,$9,$10,$11,$12,$13,$14,$15,$16,$1,$2,$17*%
G04 Aperture macros list end*
%ADD10C,0.100000*%
%ADD11C,0.200000*%
%ADD12C,0.120000*%
%ADD13C,0.150000*%
%ADD14C,0.300000*%
%ADD15C,1.700000*%
%ADD16R,1.700000X1.700000*%
%ADD17O,1.700000X1.700000*%
%ADD18Outline5P,-0.850000X0.510000X-0.510000X0.850000X0.850000X0.850000X0.850000X-0.850000X-0.850000X-0.850000X180.000000*%
%ADD19Outline5P,-0.850000X0.510000X-0.510000X0.850000X0.850000X0.850000X0.850000X-0.850000X-0.850000X-0.850000X0.000000*%
%ADD20O,6.000000X2.000000*%
%ADD21Outline5P,-0.850000X0.510000X-0.510000X0.850000X0.850000X0.850000X0.850000X-0.850000X-0.850000X-0.850000X90.000000*%
%ADD22R,6.000000X2.000000*%
%ADD23Outline4P,-0.850000X-0.850000X0.850000X-0.850000X0.850000X0.850000X-0.850000X0.850000X0.000000*%
%ADD24O,1.600000X2.400000*%
%ADD25R,1.600000X2.400000*%
G04 APERTURE END LIST*
D10*
X31720000Y-55960000D02*
X43760000Y-55960000D01*
X43760000Y-60560000D01*
X31720000Y-60560000D01*
X31720000Y-55960000D01*
X55130000Y-58110000D02*
X59730000Y-58110000D01*
X59730000Y-70150000D01*
X55130000Y-70150000D01*
X55130000Y-58110000D01*
D11*
X53285000Y-41994600D02*
X59445000Y-41994600D01*
X59445000Y-48860000D01*
X53285000Y-48860000D01*
X53285000Y-41994600D01*
X53305000Y-26654600D02*
X59465000Y-26654600D01*
X59465000Y-33520000D01*
X53305000Y-33520000D01*
X53305000Y-26654600D01*
D12*
X72054140Y-26059661D02*
X72054140Y-25535851D01*
X72054140Y-25535851D02*
X72577950Y-25483470D01*
X72577950Y-25483470D02*
X72525569Y-25535851D01*
X72525569Y-25535851D02*
X72473188Y-25640613D01*
X72473188Y-25640613D02*
X72473188Y-25902518D01*
X72473188Y-25902518D02*
X72525569Y-26007280D01*
X72525569Y-26007280D02*
X72577950Y-26059661D01*
X72577950Y-26059661D02*
X72682712Y-26112042D01*
X72682712Y-26112042D02*
X72944617Y-26112042D01*
X72944617Y-26112042D02*
X73049379Y-26059661D01*
X73049379Y-26059661D02*
X73101760Y-26007280D01*
X73101760Y-26007280D02*
X73154140Y-25902518D01*
X73154140Y-25902518D02*
X73154140Y-25640613D01*
X73154140Y-25640613D02*
X73101760Y-25535851D01*
X73101760Y-25535851D02*
X73049379Y-25483470D01*
X72054140Y-26426327D02*
X73154140Y-26792994D01*
X73154140Y-26792994D02*
X72054140Y-27159661D01*
X72106521Y-28940613D02*
X72054140Y-28835851D01*
X72054140Y-28835851D02*
X72054140Y-28678708D01*
X72054140Y-28678708D02*
X72106521Y-28521565D01*
X72106521Y-28521565D02*
X72211283Y-28416803D01*
X72211283Y-28416803D02*
X72316045Y-28364422D01*
X72316045Y-28364422D02*
X72525569Y-28312041D01*
X72525569Y-28312041D02*
X72682712Y-28312041D01*
X72682712Y-28312041D02*
X72892236Y-28364422D01*
X72892236Y-28364422D02*
X72996998Y-28416803D01*
X72996998Y-28416803D02*
X73101760Y-28521565D01*
X73101760Y-28521565D02*
X73154140Y-28678708D01*
X73154140Y-28678708D02*
X73154140Y-28783470D01*
X73154140Y-28783470D02*
X73101760Y-28940613D01*
X73101760Y-28940613D02*
X73049379Y-28992994D01*
X73049379Y-28992994D02*
X72682712Y-28992994D01*
X72682712Y-28992994D02*
X72682712Y-28783470D01*
X73049379Y-30931089D02*
X73101760Y-30878708D01*
X73101760Y-30878708D02*
X73154140Y-30721565D01*
X73154140Y-30721565D02*
X73154140Y-30616803D01*
X73154140Y-30616803D02*
X73101760Y-30459660D01*
X73101760Y-30459660D02*
X72996998Y-30354898D01*
X72996998Y-30354898D02*
X72892236Y-30302517D01*
X72892236Y-30302517D02*
X72682712Y-30250136D01*
X72682712Y-30250136D02*
X72525569Y-30250136D01*
X72525569Y-30250136D02*
X72316045Y-30302517D01*
X72316045Y-30302517D02*
X72211283Y-30354898D01*
X72211283Y-30354898D02*
X72106521Y-30459660D01*
X72106521Y-30459660D02*
X72054140Y-30616803D01*
X72054140Y-30616803D02*
X72054140Y-30721565D01*
X72054140Y-30721565D02*
X72106521Y-30878708D01*
X72106521Y-30878708D02*
X72158902Y-30931089D01*
X73154140Y-31402517D02*
X72054140Y-31402517D01*
X73154140Y-32031089D02*
X72525569Y-31559660D01*
X72054140Y-32031089D02*
X72682712Y-31402517D01*
X73049379Y-33969184D02*
X73101760Y-33916803D01*
X73101760Y-33916803D02*
X73154140Y-33759660D01*
X73154140Y-33759660D02*
X73154140Y-33654898D01*
X73154140Y-33654898D02*
X73101760Y-33497755D01*
X73101760Y-33497755D02*
X72996998Y-33392993D01*
X72996998Y-33392993D02*
X72892236Y-33340612D01*
X72892236Y-33340612D02*
X72682712Y-33288231D01*
X72682712Y-33288231D02*
X72525569Y-33288231D01*
X72525569Y-33288231D02*
X72316045Y-33340612D01*
X72316045Y-33340612D02*
X72211283Y-33392993D01*
X72211283Y-33392993D02*
X72106521Y-33497755D01*
X72106521Y-33497755D02*
X72054140Y-33654898D01*
X72054140Y-33654898D02*
X72054140Y-33759660D01*
X72054140Y-33759660D02*
X72106521Y-33916803D01*
X72106521Y-33916803D02*
X72158902Y-33969184D01*
X73101760Y-34388231D02*
X73154140Y-34545374D01*
X73154140Y-34545374D02*
X73154140Y-34807279D01*
X73154140Y-34807279D02*
X73101760Y-34912041D01*
X73101760Y-34912041D02*
X73049379Y-34964422D01*
X73049379Y-34964422D02*
X72944617Y-35016803D01*
X72944617Y-35016803D02*
X72839855Y-35016803D01*
X72839855Y-35016803D02*
X72735093Y-34964422D01*
X72735093Y-34964422D02*
X72682712Y-34912041D01*
X72682712Y-34912041D02*
X72630331Y-34807279D01*
X72630331Y-34807279D02*
X72577950Y-34597755D01*
X72577950Y-34597755D02*
X72525569Y-34492993D01*
X72525569Y-34492993D02*
X72473188Y-34440612D01*
X72473188Y-34440612D02*
X72368426Y-34388231D01*
X72368426Y-34388231D02*
X72263664Y-34388231D01*
X72263664Y-34388231D02*
X72158902Y-34440612D01*
X72158902Y-34440612D02*
X72106521Y-34492993D01*
X72106521Y-34492993D02*
X72054140Y-34597755D01*
X72054140Y-34597755D02*
X72054140Y-34859660D01*
X72054140Y-34859660D02*
X72106521Y-35016803D01*
X73154140Y-36326326D02*
X72054140Y-36326326D01*
X72054140Y-36326326D02*
X72054140Y-36588231D01*
X72054140Y-36588231D02*
X72106521Y-36745374D01*
X72106521Y-36745374D02*
X72211283Y-36850136D01*
X72211283Y-36850136D02*
X72316045Y-36902517D01*
X72316045Y-36902517D02*
X72525569Y-36954898D01*
X72525569Y-36954898D02*
X72682712Y-36954898D01*
X72682712Y-36954898D02*
X72892236Y-36902517D01*
X72892236Y-36902517D02*
X72996998Y-36850136D01*
X72996998Y-36850136D02*
X73101760Y-36745374D01*
X73101760Y-36745374D02*
X73154140Y-36588231D01*
X73154140Y-36588231D02*
X73154140Y-36326326D01*
D13*
X55569819Y-43158095D02*
X55093628Y-42824762D01*
X55569819Y-42586667D02*
X54569819Y-42586667D01*
X54569819Y-42586667D02*
X54569819Y-42967619D01*
X54569819Y-42967619D02*
X54617438Y-43062857D01*
X54617438Y-43062857D02*
X54665057Y-43110476D01*
X54665057Y-43110476D02*
X54760295Y-43158095D01*
X54760295Y-43158095D02*
X54903152Y-43158095D01*
X54903152Y-43158095D02*
X54998390Y-43110476D01*
X54998390Y-43110476D02*
X55046009Y-43062857D01*
X55046009Y-43062857D02*
X55093628Y-42967619D01*
X55093628Y-42967619D02*
X55093628Y-42586667D01*
X55569819Y-43586667D02*
X54569819Y-43586667D01*
X54569819Y-43586667D02*
X54569819Y-43967619D01*
X54569819Y-43967619D02*
X54617438Y-44062857D01*
X54617438Y-44062857D02*
X54665057Y-44110476D01*
X54665057Y-44110476D02*
X54760295Y-44158095D01*
X54760295Y-44158095D02*
X54903152Y-44158095D01*
X54903152Y-44158095D02*
X54998390Y-44110476D01*
X54998390Y-44110476D02*
X55046009Y-44062857D01*
X55046009Y-44062857D02*
X55093628Y-43967619D01*
X55093628Y-43967619D02*
X55093628Y-43586667D01*
X55569819Y-44586667D02*
X54569819Y-44586667D01*
X54569819Y-44586667D02*
X55284104Y-44920000D01*
X55284104Y-44920000D02*
X54569819Y-45253333D01*
X54569819Y-45253333D02*
X55569819Y-45253333D01*
D10*
X27219003Y-64292538D02*
X27314241Y-64244919D01*
X27314241Y-64244919D02*
X27457098Y-64244919D01*
X27457098Y-64244919D02*
X27599955Y-64292538D01*
X27599955Y-64292538D02*
X27695193Y-64387776D01*
X27695193Y-64387776D02*
X27742812Y-64483014D01*
X27742812Y-64483014D02*
X27790431Y-64673490D01*
X27790431Y-64673490D02*
X27790431Y-64816347D01*
X27790431Y-64816347D02*
X27742812Y-65006823D01*
X27742812Y-65006823D02*
X27695193Y-65102061D01*
X27695193Y-65102061D02*
X27599955Y-65197300D01*
X27599955Y-65197300D02*
X27457098Y-65244919D01*
X27457098Y-65244919D02*
X27361860Y-65244919D01*
X27361860Y-65244919D02*
X27219003Y-65197300D01*
X27219003Y-65197300D02*
X27171384Y-65149680D01*
X27171384Y-65149680D02*
X27171384Y-64816347D01*
X27171384Y-64816347D02*
X27361860Y-64816347D01*
X26742812Y-65244919D02*
X26742812Y-64244919D01*
X26742812Y-64244919D02*
X26171384Y-65244919D01*
X26171384Y-65244919D02*
X26171384Y-64244919D01*
X25695193Y-65244919D02*
X25695193Y-64244919D01*
X25695193Y-64244919D02*
X25457098Y-64244919D01*
X25457098Y-64244919D02*
X25314241Y-64292538D01*
X25314241Y-64292538D02*
X25219003Y-64387776D01*
X25219003Y-64387776D02*
X25171384Y-64483014D01*
X25171384Y-64483014D02*
X25123765Y-64673490D01*
X25123765Y-64673490D02*
X25123765Y-64816347D01*
X25123765Y-64816347D02*
X25171384Y-65006823D01*
X25171384Y-65006823D02*
X25219003Y-65102061D01*
X25219003Y-65102061D02*
X25314241Y-65197300D01*
X25314241Y-65197300D02*
X25457098Y-65244919D01*
X25457098Y-65244919D02*
X25695193Y-65244919D01*
X26897187Y-32062419D02*
X27230520Y-31586228D01*
X27468615Y-32062419D02*
X27468615Y-31062419D01*
X27468615Y-31062419D02*
X27087663Y-31062419D01*
X27087663Y-31062419D02*
X26992425Y-31110038D01*
X26992425Y-31110038D02*
X26944806Y-31157657D01*
X26944806Y-31157657D02*
X26897187Y-31252895D01*
X26897187Y-31252895D02*
X26897187Y-31395752D01*
X26897187Y-31395752D02*
X26944806Y-31490990D01*
X26944806Y-31490990D02*
X26992425Y-31538609D01*
X26992425Y-31538609D02*
X27087663Y-31586228D01*
X27087663Y-31586228D02*
X27468615Y-31586228D01*
X26468615Y-32062419D02*
X26468615Y-31395752D01*
X26468615Y-31062419D02*
X26516234Y-31110038D01*
X26516234Y-31110038D02*
X26468615Y-31157657D01*
X26468615Y-31157657D02*
X26420996Y-31110038D01*
X26420996Y-31110038D02*
X26468615Y-31062419D01*
X26468615Y-31062419D02*
X26468615Y-31157657D01*
X25325758Y-31062419D02*
X24659092Y-31062419D01*
X24659092Y-31062419D02*
X25087663Y-32062419D01*
X27595313Y-37337419D02*
X27928646Y-36861228D01*
X28166741Y-37337419D02*
X28166741Y-36337419D01*
X28166741Y-36337419D02*
X27785789Y-36337419D01*
X27785789Y-36337419D02*
X27690551Y-36385038D01*
X27690551Y-36385038D02*
X27642932Y-36432657D01*
X27642932Y-36432657D02*
X27595313Y-36527895D01*
X27595313Y-36527895D02*
X27595313Y-36670752D01*
X27595313Y-36670752D02*
X27642932Y-36765990D01*
X27642932Y-36765990D02*
X27690551Y-36813609D01*
X27690551Y-36813609D02*
X27785789Y-36861228D01*
X27785789Y-36861228D02*
X28166741Y-36861228D01*
X27023884Y-37337419D02*
X27119122Y-37289800D01*
X27119122Y-37289800D02*
X27166741Y-37242180D01*
X27166741Y-37242180D02*
X27214360Y-37146942D01*
X27214360Y-37146942D02*
X27214360Y-36861228D01*
X27214360Y-36861228D02*
X27166741Y-36765990D01*
X27166741Y-36765990D02*
X27119122Y-36718371D01*
X27119122Y-36718371D02*
X27023884Y-36670752D01*
X27023884Y-36670752D02*
X26881027Y-36670752D01*
X26881027Y-36670752D02*
X26785789Y-36718371D01*
X26785789Y-36718371D02*
X26738170Y-36765990D01*
X26738170Y-36765990D02*
X26690551Y-36861228D01*
X26690551Y-36861228D02*
X26690551Y-37146942D01*
X26690551Y-37146942D02*
X26738170Y-37242180D01*
X26738170Y-37242180D02*
X26785789Y-37289800D01*
X26785789Y-37289800D02*
X26881027Y-37337419D01*
X26881027Y-37337419D02*
X27023884Y-37337419D01*
X25595312Y-36337419D02*
X24976265Y-36337419D01*
X24976265Y-36337419D02*
X25309598Y-36718371D01*
X25309598Y-36718371D02*
X25166741Y-36718371D01*
X25166741Y-36718371D02*
X25071503Y-36765990D01*
X25071503Y-36765990D02*
X25023884Y-36813609D01*
X25023884Y-36813609D02*
X24976265Y-36908847D01*
X24976265Y-36908847D02*
X24976265Y-37146942D01*
X24976265Y-37146942D02*
X25023884Y-37242180D01*
X25023884Y-37242180D02*
X25071503Y-37289800D01*
X25071503Y-37289800D02*
X25166741Y-37337419D01*
X25166741Y-37337419D02*
X25452455Y-37337419D01*
X25452455Y-37337419D02*
X25547693Y-37289800D01*
X25547693Y-37289800D02*
X25595312Y-37242180D01*
D12*
X73065859Y-63080338D02*
X73065859Y-63604148D01*
X73065859Y-63604148D02*
X72542049Y-63656529D01*
X72542049Y-63656529D02*
X72594430Y-63604148D01*
X72594430Y-63604148D02*
X72646811Y-63499386D01*
X72646811Y-63499386D02*
X72646811Y-63237481D01*
X72646811Y-63237481D02*
X72594430Y-63132719D01*
X72594430Y-63132719D02*
X72542049Y-63080338D01*
X72542049Y-63080338D02*
X72437287Y-63027957D01*
X72437287Y-63027957D02*
X72175382Y-63027957D01*
X72175382Y-63027957D02*
X72070620Y-63080338D01*
X72070620Y-63080338D02*
X72018240Y-63132719D01*
X72018240Y-63132719D02*
X71965859Y-63237481D01*
X71965859Y-63237481D02*
X71965859Y-63499386D01*
X71965859Y-63499386D02*
X72018240Y-63604148D01*
X72018240Y-63604148D02*
X72070620Y-63656529D01*
X73065859Y-62713672D02*
X71965859Y-62347005D01*
X71965859Y-62347005D02*
X73065859Y-61980338D01*
X73013478Y-60199386D02*
X73065859Y-60304148D01*
X73065859Y-60304148D02*
X73065859Y-60461291D01*
X73065859Y-60461291D02*
X73013478Y-60618434D01*
X73013478Y-60618434D02*
X72908716Y-60723196D01*
X72908716Y-60723196D02*
X72803954Y-60775577D01*
X72803954Y-60775577D02*
X72594430Y-60827958D01*
X72594430Y-60827958D02*
X72437287Y-60827958D01*
X72437287Y-60827958D02*
X72227763Y-60775577D01*
X72227763Y-60775577D02*
X72123001Y-60723196D01*
X72123001Y-60723196D02*
X72018240Y-60618434D01*
X72018240Y-60618434D02*
X71965859Y-60461291D01*
X71965859Y-60461291D02*
X71965859Y-60356529D01*
X71965859Y-60356529D02*
X72018240Y-60199386D01*
X72018240Y-60199386D02*
X72070620Y-60147005D01*
X72070620Y-60147005D02*
X72437287Y-60147005D01*
X72437287Y-60147005D02*
X72437287Y-60356529D01*
X72070620Y-58208910D02*
X72018240Y-58261291D01*
X72018240Y-58261291D02*
X71965859Y-58418434D01*
X71965859Y-58418434D02*
X71965859Y-58523196D01*
X71965859Y-58523196D02*
X72018240Y-58680339D01*
X72018240Y-58680339D02*
X72123001Y-58785101D01*
X72123001Y-58785101D02*
X72227763Y-58837482D01*
X72227763Y-58837482D02*
X72437287Y-58889863D01*
X72437287Y-58889863D02*
X72594430Y-58889863D01*
X72594430Y-58889863D02*
X72803954Y-58837482D01*
X72803954Y-58837482D02*
X72908716Y-58785101D01*
X72908716Y-58785101D02*
X73013478Y-58680339D01*
X73013478Y-58680339D02*
X73065859Y-58523196D01*
X73065859Y-58523196D02*
X73065859Y-58418434D01*
X73065859Y-58418434D02*
X73013478Y-58261291D01*
X73013478Y-58261291D02*
X72961097Y-58208910D01*
X71965859Y-57737482D02*
X73065859Y-57737482D01*
X71965859Y-57108910D02*
X72594430Y-57580339D01*
X73065859Y-57108910D02*
X72437287Y-57737482D01*
X72070620Y-55170815D02*
X72018240Y-55223196D01*
X72018240Y-55223196D02*
X71965859Y-55380339D01*
X71965859Y-55380339D02*
X71965859Y-55485101D01*
X71965859Y-55485101D02*
X72018240Y-55642244D01*
X72018240Y-55642244D02*
X72123001Y-55747006D01*
X72123001Y-55747006D02*
X72227763Y-55799387D01*
X72227763Y-55799387D02*
X72437287Y-55851768D01*
X72437287Y-55851768D02*
X72594430Y-55851768D01*
X72594430Y-55851768D02*
X72803954Y-55799387D01*
X72803954Y-55799387D02*
X72908716Y-55747006D01*
X72908716Y-55747006D02*
X73013478Y-55642244D01*
X73013478Y-55642244D02*
X73065859Y-55485101D01*
X73065859Y-55485101D02*
X73065859Y-55380339D01*
X73065859Y-55380339D02*
X73013478Y-55223196D01*
X73013478Y-55223196D02*
X72961097Y-55170815D01*
X72018240Y-54751768D02*
X71965859Y-54594625D01*
X71965859Y-54594625D02*
X71965859Y-54332720D01*
X71965859Y-54332720D02*
X72018240Y-54227958D01*
X72018240Y-54227958D02*
X72070620Y-54175577D01*
X72070620Y-54175577D02*
X72175382Y-54123196D01*
X72175382Y-54123196D02*
X72280144Y-54123196D01*
X72280144Y-54123196D02*
X72384906Y-54175577D01*
X72384906Y-54175577D02*
X72437287Y-54227958D01*
X72437287Y-54227958D02*
X72489668Y-54332720D01*
X72489668Y-54332720D02*
X72542049Y-54542244D01*
X72542049Y-54542244D02*
X72594430Y-54647006D01*
X72594430Y-54647006D02*
X72646811Y-54699387D01*
X72646811Y-54699387D02*
X72751573Y-54751768D01*
X72751573Y-54751768D02*
X72856335Y-54751768D01*
X72856335Y-54751768D02*
X72961097Y-54699387D01*
X72961097Y-54699387D02*
X73013478Y-54647006D01*
X73013478Y-54647006D02*
X73065859Y-54542244D01*
X73065859Y-54542244D02*
X73065859Y-54280339D01*
X73065859Y-54280339D02*
X73013478Y-54123196D01*
X71965859Y-52813673D02*
X73065859Y-52813673D01*
X73065859Y-52813673D02*
X73065859Y-52551768D01*
X73065859Y-52551768D02*
X73013478Y-52394625D01*
X73013478Y-52394625D02*
X72908716Y-52289863D01*
X72908716Y-52289863D02*
X72803954Y-52237482D01*
X72803954Y-52237482D02*
X72594430Y-52185101D01*
X72594430Y-52185101D02*
X72437287Y-52185101D01*
X72437287Y-52185101D02*
X72227763Y-52237482D01*
X72227763Y-52237482D02*
X72123001Y-52289863D01*
X72123001Y-52289863D02*
X72018240Y-52394625D01*
X72018240Y-52394625D02*
X71965859Y-52551768D01*
X71965859Y-52551768D02*
X71965859Y-52813673D01*
D10*
X27008289Y-60322419D02*
X27579717Y-60322419D01*
X27294003Y-60322419D02*
X27294003Y-59322419D01*
X27294003Y-59322419D02*
X27389241Y-59465276D01*
X27389241Y-59465276D02*
X27484479Y-59560514D01*
X27484479Y-59560514D02*
X27579717Y-59608133D01*
X26627336Y-59417657D02*
X26579717Y-59370038D01*
X26579717Y-59370038D02*
X26484479Y-59322419D01*
X26484479Y-59322419D02*
X26246384Y-59322419D01*
X26246384Y-59322419D02*
X26151146Y-59370038D01*
X26151146Y-59370038D02*
X26103527Y-59417657D01*
X26103527Y-59417657D02*
X26055908Y-59512895D01*
X26055908Y-59512895D02*
X26055908Y-59608133D01*
X26055908Y-59608133D02*
X26103527Y-59750990D01*
X26103527Y-59750990D02*
X26674955Y-60322419D01*
X26674955Y-60322419D02*
X26055908Y-60322419D01*
X25770193Y-59322419D02*
X25436860Y-60322419D01*
X25436860Y-60322419D02*
X25103527Y-59322419D01*
D13*
X58049819Y-27596191D02*
X57049819Y-27596191D01*
X57097438Y-28596190D02*
X57049819Y-28500952D01*
X57049819Y-28500952D02*
X57049819Y-28358095D01*
X57049819Y-28358095D02*
X57097438Y-28215238D01*
X57097438Y-28215238D02*
X57192676Y-28120000D01*
X57192676Y-28120000D02*
X57287914Y-28072381D01*
X57287914Y-28072381D02*
X57478390Y-28024762D01*
X57478390Y-28024762D02*
X57621247Y-28024762D01*
X57621247Y-28024762D02*
X57811723Y-28072381D01*
X57811723Y-28072381D02*
X57906961Y-28120000D01*
X57906961Y-28120000D02*
X58002200Y-28215238D01*
X58002200Y-28215238D02*
X58049819Y-28358095D01*
X58049819Y-28358095D02*
X58049819Y-28453333D01*
X58049819Y-28453333D02*
X58002200Y-28596190D01*
X58002200Y-28596190D02*
X57954580Y-28643809D01*
X57954580Y-28643809D02*
X57621247Y-28643809D01*
X57621247Y-28643809D02*
X57621247Y-28453333D01*
X58049819Y-29072381D02*
X57049819Y-29072381D01*
X57049819Y-29072381D02*
X58049819Y-29643809D01*
X58049819Y-29643809D02*
X57049819Y-29643809D01*
D14*
X95077632Y-20318328D02*
X95077632Y-18818328D01*
X95077632Y-20246900D02*
X95220489Y-20318328D01*
X95220489Y-20318328D02*
X95506203Y-20318328D01*
X95506203Y-20318328D02*
X95649060Y-20246900D01*
X95649060Y-20246900D02*
X95720489Y-20175471D01*
X95720489Y-20175471D02*
X95791917Y-20032614D01*
X95791917Y-20032614D02*
X95791917Y-19604042D01*
X95791917Y-19604042D02*
X95720489Y-19461185D01*
X95720489Y-19461185D02*
X95649060Y-19389757D01*
X95649060Y-19389757D02*
X95506203Y-19318328D01*
X95506203Y-19318328D02*
X95220489Y-19318328D01*
X95220489Y-19318328D02*
X95077632Y-19389757D01*
X93791917Y-20246900D02*
X93934774Y-20318328D01*
X93934774Y-20318328D02*
X94220489Y-20318328D01*
X94220489Y-20318328D02*
X94363346Y-20246900D01*
X94363346Y-20246900D02*
X94434774Y-20104042D01*
X94434774Y-20104042D02*
X94434774Y-19532614D01*
X94434774Y-19532614D02*
X94363346Y-19389757D01*
X94363346Y-19389757D02*
X94220489Y-19318328D01*
X94220489Y-19318328D02*
X93934774Y-19318328D01*
X93934774Y-19318328D02*
X93791917Y-19389757D01*
X93791917Y-19389757D02*
X93720489Y-19532614D01*
X93720489Y-19532614D02*
X93720489Y-19675471D01*
X93720489Y-19675471D02*
X94434774Y-19818328D01*
X93077632Y-19318328D02*
X93077632Y-20318328D01*
X93077632Y-19461185D02*
X93006203Y-19389757D01*
X93006203Y-19389757D02*
X92863346Y-19318328D01*
X92863346Y-19318328D02*
X92649060Y-19318328D01*
X92649060Y-19318328D02*
X92506203Y-19389757D01*
X92506203Y-19389757D02*
X92434775Y-19532614D01*
X92434775Y-19532614D02*
X92434775Y-20318328D01*
X91506203Y-20318328D02*
X91649060Y-20246900D01*
X91649060Y-20246900D02*
X91720489Y-20175471D01*
X91720489Y-20175471D02*
X91791917Y-20032614D01*
X91791917Y-20032614D02*
X91791917Y-19604042D01*
X91791917Y-19604042D02*
X91720489Y-19461185D01*
X91720489Y-19461185D02*
X91649060Y-19389757D01*
X91649060Y-19389757D02*
X91506203Y-19318328D01*
X91506203Y-19318328D02*
X91291917Y-19318328D01*
X91291917Y-19318328D02*
X91149060Y-19389757D01*
X91149060Y-19389757D02*
X91077632Y-19461185D01*
X91077632Y-19461185D02*
X91006203Y-19604042D01*
X91006203Y-19604042D02*
X91006203Y-20032614D01*
X91006203Y-20032614D02*
X91077632Y-20175471D01*
X91077632Y-20175471D02*
X91149060Y-20246900D01*
X91149060Y-20246900D02*
X91291917Y-20318328D01*
X91291917Y-20318328D02*
X91506203Y-20318328D01*
X90149060Y-20318328D02*
X90291917Y-20246900D01*
X90291917Y-20246900D02*
X90363346Y-20104042D01*
X90363346Y-20104042D02*
X90363346Y-18818328D01*
X89577632Y-20318328D02*
X89577632Y-18818328D01*
X89434775Y-19746900D02*
X89006203Y-20318328D01*
X89006203Y-19318328D02*
X89577632Y-19889757D01*
X95720489Y-22733328D02*
X95720489Y-21233328D01*
X95077632Y-22733328D02*
X95077632Y-21947614D01*
X95077632Y-21947614D02*
X95149060Y-21804757D01*
X95149060Y-21804757D02*
X95291917Y-21733328D01*
X95291917Y-21733328D02*
X95506203Y-21733328D01*
X95506203Y-21733328D02*
X95649060Y-21804757D01*
X95649060Y-21804757D02*
X95720489Y-21876185D01*
X93720489Y-22733328D02*
X93720489Y-21233328D01*
X93720489Y-22661900D02*
X93863346Y-22733328D01*
X93863346Y-22733328D02*
X94149060Y-22733328D01*
X94149060Y-22733328D02*
X94291917Y-22661900D01*
X94291917Y-22661900D02*
X94363346Y-22590471D01*
X94363346Y-22590471D02*
X94434774Y-22447614D01*
X94434774Y-22447614D02*
X94434774Y-22019042D01*
X94434774Y-22019042D02*
X94363346Y-21876185D01*
X94363346Y-21876185D02*
X94291917Y-21804757D01*
X94291917Y-21804757D02*
X94149060Y-21733328D01*
X94149060Y-21733328D02*
X93863346Y-21733328D01*
X93863346Y-21733328D02*
X93720489Y-21804757D01*
X93006203Y-22161900D02*
X91863346Y-22161900D01*
X91149060Y-22733328D02*
X91149060Y-21733328D01*
X91149060Y-21876185D02*
X91077631Y-21804757D01*
X91077631Y-21804757D02*
X90934774Y-21733328D01*
X90934774Y-21733328D02*
X90720488Y-21733328D01*
X90720488Y-21733328D02*
X90577631Y-21804757D01*
X90577631Y-21804757D02*
X90506203Y-21947614D01*
X90506203Y-21947614D02*
X90506203Y-22733328D01*
X90506203Y-21947614D02*
X90434774Y-21804757D01*
X90434774Y-21804757D02*
X90291917Y-21733328D01*
X90291917Y-21733328D02*
X90077631Y-21733328D01*
X90077631Y-21733328D02*
X89934774Y-21804757D01*
X89934774Y-21804757D02*
X89863345Y-21947614D01*
X89863345Y-21947614D02*
X89863345Y-22733328D01*
X88506203Y-22661900D02*
X88649060Y-22733328D01*
X88649060Y-22733328D02*
X88934774Y-22733328D01*
X88934774Y-22733328D02*
X89077631Y-22661900D01*
X89077631Y-22661900D02*
X89149060Y-22590471D01*
X89149060Y-22590471D02*
X89220488Y-22447614D01*
X89220488Y-22447614D02*
X89220488Y-22019042D01*
X89220488Y-22019042D02*
X89149060Y-21876185D01*
X89149060Y-21876185D02*
X89077631Y-21804757D01*
X89077631Y-21804757D02*
X88934774Y-21733328D01*
X88934774Y-21733328D02*
X88649060Y-21733328D01*
X88649060Y-21733328D02*
X88506203Y-21804757D01*
X87220489Y-21733328D02*
X87220489Y-22733328D01*
X87863346Y-21733328D02*
X87863346Y-22519042D01*
X87863346Y-22519042D02*
X87791917Y-22661900D01*
X87791917Y-22661900D02*
X87649060Y-22733328D01*
X87649060Y-22733328D02*
X87434774Y-22733328D01*
X87434774Y-22733328D02*
X87291917Y-22661900D01*
X87291917Y-22661900D02*
X87220489Y-22590471D01*
X85506203Y-21733328D02*
X85149060Y-22733328D01*
X85149060Y-22733328D02*
X84791917Y-21733328D01*
X83934774Y-21233328D02*
X83791917Y-21233328D01*
X83791917Y-21233328D02*
X83649060Y-21304757D01*
X83649060Y-21304757D02*
X83577632Y-21376185D01*
X83577632Y-21376185D02*
X83506203Y-21519042D01*
X83506203Y-21519042D02*
X83434774Y-21804757D01*
X83434774Y-21804757D02*
X83434774Y-22161900D01*
X83434774Y-22161900D02*
X83506203Y-22447614D01*
X83506203Y-22447614D02*
X83577632Y-22590471D01*
X83577632Y-22590471D02*
X83649060Y-22661900D01*
X83649060Y-22661900D02*
X83791917Y-22733328D01*
X83791917Y-22733328D02*
X83934774Y-22733328D01*
X83934774Y-22733328D02*
X84077632Y-22661900D01*
X84077632Y-22661900D02*
X84149060Y-22590471D01*
X84149060Y-22590471D02*
X84220489Y-22447614D01*
X84220489Y-22447614D02*
X84291917Y-22161900D01*
X84291917Y-22161900D02*
X84291917Y-21804757D01*
X84291917Y-21804757D02*
X84220489Y-21519042D01*
X84220489Y-21519042D02*
X84149060Y-21376185D01*
X84149060Y-21376185D02*
X84077632Y-21304757D01*
X84077632Y-21304757D02*
X83934774Y-21233328D01*
X82791918Y-22590471D02*
X82720489Y-22661900D01*
X82720489Y-22661900D02*
X82791918Y-22733328D01*
X82791918Y-22733328D02*
X82863346Y-22661900D01*
X82863346Y-22661900D02*
X82791918Y-22590471D01*
X82791918Y-22590471D02*
X82791918Y-22733328D01*
X82149060Y-21376185D02*
X82077632Y-21304757D01*
X82077632Y-21304757D02*
X81934775Y-21233328D01*
X81934775Y-21233328D02*
X81577632Y-21233328D01*
X81577632Y-21233328D02*
X81434775Y-21304757D01*
X81434775Y-21304757D02*
X81363346Y-21376185D01*
X81363346Y-21376185D02*
X81291917Y-21519042D01*
X81291917Y-21519042D02*
X81291917Y-21661900D01*
X81291917Y-21661900D02*
X81363346Y-21876185D01*
X81363346Y-21876185D02*
X82220489Y-22733328D01*
X82220489Y-22733328D02*
X81291917Y-22733328D01*
D10*
X27605075Y-48014919D02*
X28081265Y-48014919D01*
X28081265Y-48014919D02*
X28081265Y-47014919D01*
X27128884Y-48014919D02*
X27224122Y-47967300D01*
X27224122Y-47967300D02*
X27271741Y-47919680D01*
X27271741Y-47919680D02*
X27319360Y-47824442D01*
X27319360Y-47824442D02*
X27319360Y-47538728D01*
X27319360Y-47538728D02*
X27271741Y-47443490D01*
X27271741Y-47443490D02*
X27224122Y-47395871D01*
X27224122Y-47395871D02*
X27128884Y-47348252D01*
X27128884Y-47348252D02*
X26986027Y-47348252D01*
X26986027Y-47348252D02*
X26890789Y-47395871D01*
X26890789Y-47395871D02*
X26843170Y-47443490D01*
X26843170Y-47443490D02*
X26795551Y-47538728D01*
X26795551Y-47538728D02*
X26795551Y-47824442D01*
X26795551Y-47824442D02*
X26843170Y-47919680D01*
X26843170Y-47919680D02*
X26890789Y-47967300D01*
X26890789Y-47967300D02*
X26986027Y-48014919D01*
X26986027Y-48014919D02*
X27128884Y-48014919D01*
X25176503Y-47348252D02*
X25176503Y-48014919D01*
X25414598Y-46967300D02*
X25652693Y-47681585D01*
X25652693Y-47681585D02*
X25033646Y-47681585D01*
X27129925Y-53647419D02*
X27606115Y-53647419D01*
X27606115Y-53647419D02*
X27606115Y-52647419D01*
X26796591Y-53647419D02*
X26796591Y-52980752D01*
X26796591Y-52647419D02*
X26844210Y-52695038D01*
X26844210Y-52695038D02*
X26796591Y-52742657D01*
X26796591Y-52742657D02*
X26748972Y-52695038D01*
X26748972Y-52695038D02*
X26796591Y-52647419D01*
X26796591Y-52647419D02*
X26796591Y-52742657D01*
X25415639Y-53075990D02*
X25510877Y-53028371D01*
X25510877Y-53028371D02*
X25558496Y-52980752D01*
X25558496Y-52980752D02*
X25606115Y-52885514D01*
X25606115Y-52885514D02*
X25606115Y-52837895D01*
X25606115Y-52837895D02*
X25558496Y-52742657D01*
X25558496Y-52742657D02*
X25510877Y-52695038D01*
X25510877Y-52695038D02*
X25415639Y-52647419D01*
X25415639Y-52647419D02*
X25225163Y-52647419D01*
X25225163Y-52647419D02*
X25129925Y-52695038D01*
X25129925Y-52695038D02*
X25082306Y-52742657D01*
X25082306Y-52742657D02*
X25034687Y-52837895D01*
X25034687Y-52837895D02*
X25034687Y-52885514D01*
X25034687Y-52885514D02*
X25082306Y-52980752D01*
X25082306Y-52980752D02*
X25129925Y-53028371D01*
X25129925Y-53028371D02*
X25225163Y-53075990D01*
X25225163Y-53075990D02*
X25415639Y-53075990D01*
X25415639Y-53075990D02*
X25510877Y-53123609D01*
X25510877Y-53123609D02*
X25558496Y-53171228D01*
X25558496Y-53171228D02*
X25606115Y-53266466D01*
X25606115Y-53266466D02*
X25606115Y-53456942D01*
X25606115Y-53456942D02*
X25558496Y-53552180D01*
X25558496Y-53552180D02*
X25510877Y-53599800D01*
X25510877Y-53599800D02*
X25415639Y-53647419D01*
X25415639Y-53647419D02*
X25225163Y-53647419D01*
X25225163Y-53647419D02*
X25129925Y-53599800D01*
X25129925Y-53599800D02*
X25082306Y-53552180D01*
X25082306Y-53552180D02*
X25034687Y-53456942D01*
X25034687Y-53456942D02*
X25034687Y-53266466D01*
X25034687Y-53266466D02*
X25082306Y-53171228D01*
X25082306Y-53171228D02*
X25129925Y-53123609D01*
X25129925Y-53123609D02*
X25225163Y-53075990D01*
D13*
X77943990Y-68495714D02*
X77896371Y-68352857D01*
X77896371Y-68352857D02*
X77848752Y-68305238D01*
X77848752Y-68305238D02*
X77753514Y-68257619D01*
X77753514Y-68257619D02*
X77610657Y-68257619D01*
X77610657Y-68257619D02*
X77515419Y-68305238D01*
X77515419Y-68305238D02*
X77467800Y-68352857D01*
X77467800Y-68352857D02*
X77420180Y-68448095D01*
X77420180Y-68448095D02*
X77420180Y-68829047D01*
X77420180Y-68829047D02*
X78420180Y-68829047D01*
X78420180Y-68829047D02*
X78420180Y-68495714D01*
X78420180Y-68495714D02*
X78372561Y-68400476D01*
X78372561Y-68400476D02*
X78324942Y-68352857D01*
X78324942Y-68352857D02*
X78229704Y-68305238D01*
X78229704Y-68305238D02*
X78134466Y-68305238D01*
X78134466Y-68305238D02*
X78039228Y-68352857D01*
X78039228Y-68352857D02*
X77991609Y-68400476D01*
X77991609Y-68400476D02*
X77943990Y-68495714D01*
X77943990Y-68495714D02*
X77943990Y-68829047D01*
X78420180Y-67971904D02*
X78420180Y-67400476D01*
X77420180Y-67686190D02*
X78420180Y-67686190D01*
X78420180Y-67162380D02*
X77420180Y-66495714D01*
X78420180Y-66495714D02*
X77420180Y-67162380D01*
X75810180Y-69448094D02*
X76810180Y-69448094D01*
X76333990Y-69448094D02*
X76333990Y-68876666D01*
X75810180Y-68876666D02*
X76810180Y-68876666D01*
X75905419Y-67829047D02*
X75857800Y-67876666D01*
X75857800Y-67876666D02*
X75810180Y-68019523D01*
X75810180Y-68019523D02*
X75810180Y-68114761D01*
X75810180Y-68114761D02*
X75857800Y-68257618D01*
X75857800Y-68257618D02*
X75953038Y-68352856D01*
X75953038Y-68352856D02*
X76048276Y-68400475D01*
X76048276Y-68400475D02*
X76238752Y-68448094D01*
X76238752Y-68448094D02*
X76381609Y-68448094D01*
X76381609Y-68448094D02*
X76572085Y-68400475D01*
X76572085Y-68400475D02*
X76667323Y-68352856D01*
X76667323Y-68352856D02*
X76762561Y-68257618D01*
X76762561Y-68257618D02*
X76810180Y-68114761D01*
X76810180Y-68114761D02*
X76810180Y-68019523D01*
X76810180Y-68019523D02*
X76762561Y-67876666D01*
X76762561Y-67876666D02*
X76714942Y-67829047D01*
X76810180Y-67209999D02*
X76810180Y-67114761D01*
X76810180Y-67114761D02*
X76762561Y-67019523D01*
X76762561Y-67019523D02*
X76714942Y-66971904D01*
X76714942Y-66971904D02*
X76619704Y-66924285D01*
X76619704Y-66924285D02*
X76429228Y-66876666D01*
X76429228Y-66876666D02*
X76191133Y-66876666D01*
X76191133Y-66876666D02*
X76000657Y-66924285D01*
X76000657Y-66924285D02*
X75905419Y-66971904D01*
X75905419Y-66971904D02*
X75857800Y-67019523D01*
X75857800Y-67019523D02*
X75810180Y-67114761D01*
X75810180Y-67114761D02*
X75810180Y-67209999D01*
X75810180Y-67209999D02*
X75857800Y-67305237D01*
X75857800Y-67305237D02*
X75905419Y-67352856D01*
X75905419Y-67352856D02*
X76000657Y-67400475D01*
X76000657Y-67400475D02*
X76191133Y-67448094D01*
X76191133Y-67448094D02*
X76429228Y-67448094D01*
X76429228Y-67448094D02*
X76619704Y-67400475D01*
X76619704Y-67400475D02*
X76714942Y-67352856D01*
X76714942Y-67352856D02*
X76762561Y-67305237D01*
X76762561Y-67305237D02*
X76810180Y-67209999D01*
X76810180Y-66019523D02*
X76810180Y-66209999D01*
X76810180Y-66209999D02*
X76762561Y-66305237D01*
X76762561Y-66305237D02*
X76714942Y-66352856D01*
X76714942Y-66352856D02*
X76572085Y-66448094D01*
X76572085Y-66448094D02*
X76381609Y-66495713D01*
X76381609Y-66495713D02*
X76000657Y-66495713D01*
X76000657Y-66495713D02*
X75905419Y-66448094D01*
X75905419Y-66448094D02*
X75857800Y-66400475D01*
X75857800Y-66400475D02*
X75810180Y-66305237D01*
X75810180Y-66305237D02*
X75810180Y-66114761D01*
X75810180Y-66114761D02*
X75857800Y-66019523D01*
X75857800Y-66019523D02*
X75905419Y-65971904D01*
X75905419Y-65971904D02*
X76000657Y-65924285D01*
X76000657Y-65924285D02*
X76238752Y-65924285D01*
X76238752Y-65924285D02*
X76333990Y-65971904D01*
X76333990Y-65971904D02*
X76381609Y-66019523D01*
X76381609Y-66019523D02*
X76429228Y-66114761D01*
X76429228Y-66114761D02*
X76429228Y-66305237D01*
X76429228Y-66305237D02*
X76381609Y-66400475D01*
X76381609Y-66400475D02*
X76333990Y-66448094D01*
X76333990Y-66448094D02*
X76238752Y-66495713D01*
X55304104Y-27341905D02*
X55304104Y-27818095D01*
X55589819Y-27246667D02*
X54589819Y-27580000D01*
X54589819Y-27580000D02*
X55589819Y-27913333D01*
X54589819Y-28246667D02*
X55399342Y-28246667D01*
X55399342Y-28246667D02*
X55494580Y-28294286D01*
X55494580Y-28294286D02*
X55542200Y-28341905D01*
X55542200Y-28341905D02*
X55589819Y-28437143D01*
X55589819Y-28437143D02*
X55589819Y-28627619D01*
X55589819Y-28627619D02*
X55542200Y-28722857D01*
X55542200Y-28722857D02*
X55494580Y-28770476D01*
X55494580Y-28770476D02*
X55399342Y-28818095D01*
X55399342Y-28818095D02*
X54589819Y-28818095D01*
X54589819Y-29199048D02*
X55589819Y-29865714D01*
X54589819Y-29865714D02*
X55589819Y-29199048D01*
X57982200Y-42674286D02*
X58029819Y-42817143D01*
X58029819Y-42817143D02*
X58029819Y-43055238D01*
X58029819Y-43055238D02*
X57982200Y-43150476D01*
X57982200Y-43150476D02*
X57934580Y-43198095D01*
X57934580Y-43198095D02*
X57839342Y-43245714D01*
X57839342Y-43245714D02*
X57744104Y-43245714D01*
X57744104Y-43245714D02*
X57648866Y-43198095D01*
X57648866Y-43198095D02*
X57601247Y-43150476D01*
X57601247Y-43150476D02*
X57553628Y-43055238D01*
X57553628Y-43055238D02*
X57506009Y-42864762D01*
X57506009Y-42864762D02*
X57458390Y-42769524D01*
X57458390Y-42769524D02*
X57410771Y-42721905D01*
X57410771Y-42721905D02*
X57315533Y-42674286D01*
X57315533Y-42674286D02*
X57220295Y-42674286D01*
X57220295Y-42674286D02*
X57125057Y-42721905D01*
X57125057Y-42721905D02*
X57077438Y-42769524D01*
X57077438Y-42769524D02*
X57029819Y-42864762D01*
X57029819Y-42864762D02*
X57029819Y-43102857D01*
X57029819Y-43102857D02*
X57077438Y-43245714D01*
X58029819Y-43674286D02*
X57029819Y-43674286D01*
X57029819Y-43674286D02*
X57029819Y-44055238D01*
X57029819Y-44055238D02*
X57077438Y-44150476D01*
X57077438Y-44150476D02*
X57125057Y-44198095D01*
X57125057Y-44198095D02*
X57220295Y-44245714D01*
X57220295Y-44245714D02*
X57363152Y-44245714D01*
X57363152Y-44245714D02*
X57458390Y-44198095D01*
X57458390Y-44198095D02*
X57506009Y-44150476D01*
X57506009Y-44150476D02*
X57553628Y-44055238D01*
X57553628Y-44055238D02*
X57553628Y-43674286D01*
X58029819Y-44674286D02*
X57029819Y-44674286D01*
X57029819Y-44674286D02*
X57029819Y-44912381D01*
X57029819Y-44912381D02*
X57077438Y-45055238D01*
X57077438Y-45055238D02*
X57172676Y-45150476D01*
X57172676Y-45150476D02*
X57267914Y-45198095D01*
X57267914Y-45198095D02*
X57458390Y-45245714D01*
X57458390Y-45245714D02*
X57601247Y-45245714D01*
X57601247Y-45245714D02*
X57791723Y-45198095D01*
X57791723Y-45198095D02*
X57886961Y-45150476D01*
X57886961Y-45150476D02*
X57982200Y-45055238D01*
X57982200Y-45055238D02*
X58029819Y-44912381D01*
X58029819Y-44912381D02*
X58029819Y-44674286D01*
D10*
X95722419Y-41389643D02*
X95722419Y-40913453D01*
X95722419Y-40913453D02*
X96198609Y-40865834D01*
X96198609Y-40865834D02*
X96150990Y-40913453D01*
X96150990Y-40913453D02*
X96103371Y-41008691D01*
X96103371Y-41008691D02*
X96103371Y-41246786D01*
X96103371Y-41246786D02*
X96150990Y-41342024D01*
X96150990Y-41342024D02*
X96198609Y-41389643D01*
X96198609Y-41389643D02*
X96293847Y-41437262D01*
X96293847Y-41437262D02*
X96531942Y-41437262D01*
X96531942Y-41437262D02*
X96627180Y-41389643D01*
X96627180Y-41389643D02*
X96674800Y-41342024D01*
X96674800Y-41342024D02*
X96722419Y-41246786D01*
X96722419Y-41246786D02*
X96722419Y-41008691D01*
X96722419Y-41008691D02*
X96674800Y-40913453D01*
X96674800Y-40913453D02*
X96627180Y-40865834D01*
X95722419Y-42294405D02*
X95722419Y-42103929D01*
X95722419Y-42103929D02*
X95770038Y-42008691D01*
X95770038Y-42008691D02*
X95817657Y-41961072D01*
X95817657Y-41961072D02*
X95960514Y-41865834D01*
X95960514Y-41865834D02*
X96150990Y-41818215D01*
X96150990Y-41818215D02*
X96531942Y-41818215D01*
X96531942Y-41818215D02*
X96627180Y-41865834D01*
X96627180Y-41865834D02*
X96674800Y-41913453D01*
X96674800Y-41913453D02*
X96722419Y-42008691D01*
X96722419Y-42008691D02*
X96722419Y-42199167D01*
X96722419Y-42199167D02*
X96674800Y-42294405D01*
X96674800Y-42294405D02*
X96627180Y-42342024D01*
X96627180Y-42342024D02*
X96531942Y-42389643D01*
X96531942Y-42389643D02*
X96293847Y-42389643D01*
X96293847Y-42389643D02*
X96198609Y-42342024D01*
X96198609Y-42342024D02*
X96150990Y-42294405D01*
X96150990Y-42294405D02*
X96103371Y-42199167D01*
X96103371Y-42199167D02*
X96103371Y-42008691D01*
X96103371Y-42008691D02*
X96150990Y-41913453D01*
X96150990Y-41913453D02*
X96198609Y-41865834D01*
X96198609Y-41865834D02*
X96293847Y-41818215D01*
X96627180Y-42818215D02*
X96674800Y-42865834D01*
X96674800Y-42865834D02*
X96722419Y-42818215D01*
X96722419Y-42818215D02*
X96674800Y-42770596D01*
X96674800Y-42770596D02*
X96627180Y-42818215D01*
X96627180Y-42818215D02*
X96722419Y-42818215D01*
X95722419Y-43484881D02*
X95722419Y-43580119D01*
X95722419Y-43580119D02*
X95770038Y-43675357D01*
X95770038Y-43675357D02*
X95817657Y-43722976D01*
X95817657Y-43722976D02*
X95912895Y-43770595D01*
X95912895Y-43770595D02*
X96103371Y-43818214D01*
X96103371Y-43818214D02*
X96341466Y-43818214D01*
X96341466Y-43818214D02*
X96531942Y-43770595D01*
X96531942Y-43770595D02*
X96627180Y-43722976D01*
X96627180Y-43722976D02*
X96674800Y-43675357D01*
X96674800Y-43675357D02*
X96722419Y-43580119D01*
X96722419Y-43580119D02*
X96722419Y-43484881D01*
X96722419Y-43484881D02*
X96674800Y-43389643D01*
X96674800Y-43389643D02*
X96627180Y-43342024D01*
X96627180Y-43342024D02*
X96531942Y-43294405D01*
X96531942Y-43294405D02*
X96341466Y-43246786D01*
X96341466Y-43246786D02*
X96103371Y-43246786D01*
X96103371Y-43246786D02*
X95912895Y-43294405D01*
X95912895Y-43294405D02*
X95817657Y-43342024D01*
X95817657Y-43342024D02*
X95770038Y-43389643D01*
X95770038Y-43389643D02*
X95722419Y-43484881D01*
X95722419Y-44437262D02*
X95722419Y-44532500D01*
X95722419Y-44532500D02*
X95770038Y-44627738D01*
X95770038Y-44627738D02*
X95817657Y-44675357D01*
X95817657Y-44675357D02*
X95912895Y-44722976D01*
X95912895Y-44722976D02*
X96103371Y-44770595D01*
X96103371Y-44770595D02*
X96341466Y-44770595D01*
X96341466Y-44770595D02*
X96531942Y-44722976D01*
X96531942Y-44722976D02*
X96627180Y-44675357D01*
X96627180Y-44675357D02*
X96674800Y-44627738D01*
X96674800Y-44627738D02*
X96722419Y-44532500D01*
X96722419Y-44532500D02*
X96722419Y-44437262D01*
X96722419Y-44437262D02*
X96674800Y-44342024D01*
X96674800Y-44342024D02*
X96627180Y-44294405D01*
X96627180Y-44294405D02*
X96531942Y-44246786D01*
X96531942Y-44246786D02*
X96341466Y-44199167D01*
X96341466Y-44199167D02*
X96103371Y-44199167D01*
X96103371Y-44199167D02*
X95912895Y-44246786D01*
X95912895Y-44246786D02*
X95817657Y-44294405D01*
X95817657Y-44294405D02*
X95770038Y-44342024D01*
X95770038Y-44342024D02*
X95722419Y-44437262D01*
X96722419Y-45961072D02*
X96055752Y-45961072D01*
X96150990Y-45961072D02*
X96103371Y-46008691D01*
X96103371Y-46008691D02*
X96055752Y-46103929D01*
X96055752Y-46103929D02*
X96055752Y-46246786D01*
X96055752Y-46246786D02*
X96103371Y-46342024D01*
X96103371Y-46342024D02*
X96198609Y-46389643D01*
X96198609Y-46389643D02*
X96722419Y-46389643D01*
X96198609Y-46389643D02*
X96103371Y-46437262D01*
X96103371Y-46437262D02*
X96055752Y-46532500D01*
X96055752Y-46532500D02*
X96055752Y-46675357D01*
X96055752Y-46675357D02*
X96103371Y-46770596D01*
X96103371Y-46770596D02*
X96198609Y-46818215D01*
X96198609Y-46818215D02*
X96722419Y-46818215D01*
X96722419Y-47294405D02*
X96055752Y-47294405D01*
X96150990Y-47294405D02*
X96103371Y-47342024D01*
X96103371Y-47342024D02*
X96055752Y-47437262D01*
X96055752Y-47437262D02*
X96055752Y-47580119D01*
X96055752Y-47580119D02*
X96103371Y-47675357D01*
X96103371Y-47675357D02*
X96198609Y-47722976D01*
X96198609Y-47722976D02*
X96722419Y-47722976D01*
X96198609Y-47722976D02*
X96103371Y-47770595D01*
X96103371Y-47770595D02*
X96055752Y-47865833D01*
X96055752Y-47865833D02*
X96055752Y-48008690D01*
X96055752Y-48008690D02*
X96103371Y-48103929D01*
X96103371Y-48103929D02*
X96198609Y-48151548D01*
X96198609Y-48151548D02*
X96722419Y-48151548D01*
D11*
X97860000Y-72050000D02*
X97036080Y-72050000D01*
X97860000Y-16050000D02*
X97036080Y-16050000D01*
X97622500Y-72050000D02*
X97622500Y-16050000D01*
X97622500Y-72050000D02*
X97622500Y-16050000D01*
X97622500Y-72050000D02*
X97036079Y-70923496D01*
X97622500Y-72050000D02*
X98208921Y-70923496D01*
X97622500Y-16050000D02*
X98208921Y-17176504D01*
X97622500Y-16050000D02*
X97036079Y-17176504D01*
D10*
X62488689Y-17763490D02*
X62583927Y-17715871D01*
X62583927Y-17715871D02*
X62631546Y-17668252D01*
X62631546Y-17668252D02*
X62679165Y-17573014D01*
X62679165Y-17573014D02*
X62679165Y-17525395D01*
X62679165Y-17525395D02*
X62631546Y-17430157D01*
X62631546Y-17430157D02*
X62583927Y-17382538D01*
X62583927Y-17382538D02*
X62488689Y-17334919D01*
X62488689Y-17334919D02*
X62298213Y-17334919D01*
X62298213Y-17334919D02*
X62202975Y-17382538D01*
X62202975Y-17382538D02*
X62155356Y-17430157D01*
X62155356Y-17430157D02*
X62107737Y-17525395D01*
X62107737Y-17525395D02*
X62107737Y-17573014D01*
X62107737Y-17573014D02*
X62155356Y-17668252D01*
X62155356Y-17668252D02*
X62202975Y-17715871D01*
X62202975Y-17715871D02*
X62298213Y-17763490D01*
X62298213Y-17763490D02*
X62488689Y-17763490D01*
X62488689Y-17763490D02*
X62583927Y-17811109D01*
X62583927Y-17811109D02*
X62631546Y-17858728D01*
X62631546Y-17858728D02*
X62679165Y-17953966D01*
X62679165Y-17953966D02*
X62679165Y-18144442D01*
X62679165Y-18144442D02*
X62631546Y-18239680D01*
X62631546Y-18239680D02*
X62583927Y-18287300D01*
X62583927Y-18287300D02*
X62488689Y-18334919D01*
X62488689Y-18334919D02*
X62298213Y-18334919D01*
X62298213Y-18334919D02*
X62202975Y-18287300D01*
X62202975Y-18287300D02*
X62155356Y-18239680D01*
X62155356Y-18239680D02*
X62107737Y-18144442D01*
X62107737Y-18144442D02*
X62107737Y-17953966D01*
X62107737Y-17953966D02*
X62155356Y-17858728D01*
X62155356Y-17858728D02*
X62202975Y-17811109D01*
X62202975Y-17811109D02*
X62298213Y-17763490D01*
X61155356Y-18334919D02*
X61726784Y-18334919D01*
X61441070Y-18334919D02*
X61441070Y-17334919D01*
X61441070Y-17334919D02*
X61536308Y-17477776D01*
X61536308Y-17477776D02*
X61631546Y-17573014D01*
X61631546Y-17573014D02*
X61726784Y-17620633D01*
X60726784Y-18239680D02*
X60679165Y-18287300D01*
X60679165Y-18287300D02*
X60726784Y-18334919D01*
X60726784Y-18334919D02*
X60774403Y-18287300D01*
X60774403Y-18287300D02*
X60726784Y-18239680D01*
X60726784Y-18239680D02*
X60726784Y-18334919D01*
X60060118Y-17334919D02*
X59964880Y-17334919D01*
X59964880Y-17334919D02*
X59869642Y-17382538D01*
X59869642Y-17382538D02*
X59822023Y-17430157D01*
X59822023Y-17430157D02*
X59774404Y-17525395D01*
X59774404Y-17525395D02*
X59726785Y-17715871D01*
X59726785Y-17715871D02*
X59726785Y-17953966D01*
X59726785Y-17953966D02*
X59774404Y-18144442D01*
X59774404Y-18144442D02*
X59822023Y-18239680D01*
X59822023Y-18239680D02*
X59869642Y-18287300D01*
X59869642Y-18287300D02*
X59964880Y-18334919D01*
X59964880Y-18334919D02*
X60060118Y-18334919D01*
X60060118Y-18334919D02*
X60155356Y-18287300D01*
X60155356Y-18287300D02*
X60202975Y-18239680D01*
X60202975Y-18239680D02*
X60250594Y-18144442D01*
X60250594Y-18144442D02*
X60298213Y-17953966D01*
X60298213Y-17953966D02*
X60298213Y-17715871D01*
X60298213Y-17715871D02*
X60250594Y-17525395D01*
X60250594Y-17525395D02*
X60202975Y-17430157D01*
X60202975Y-17430157D02*
X60155356Y-17382538D01*
X60155356Y-17382538D02*
X60060118Y-17334919D01*
X59107737Y-17334919D02*
X59012499Y-17334919D01*
X59012499Y-17334919D02*
X58917261Y-17382538D01*
X58917261Y-17382538D02*
X58869642Y-17430157D01*
X58869642Y-17430157D02*
X58822023Y-17525395D01*
X58822023Y-17525395D02*
X58774404Y-17715871D01*
X58774404Y-17715871D02*
X58774404Y-17953966D01*
X58774404Y-17953966D02*
X58822023Y-18144442D01*
X58822023Y-18144442D02*
X58869642Y-18239680D01*
X58869642Y-18239680D02*
X58917261Y-18287300D01*
X58917261Y-18287300D02*
X59012499Y-18334919D01*
X59012499Y-18334919D02*
X59107737Y-18334919D01*
X59107737Y-18334919D02*
X59202975Y-18287300D01*
X59202975Y-18287300D02*
X59250594Y-18239680D01*
X59250594Y-18239680D02*
X59298213Y-18144442D01*
X59298213Y-18144442D02*
X59345832Y-17953966D01*
X59345832Y-17953966D02*
X59345832Y-17715871D01*
X59345832Y-17715871D02*
X59298213Y-17525395D01*
X59298213Y-17525395D02*
X59250594Y-17430157D01*
X59250594Y-17430157D02*
X59202975Y-17382538D01*
X59202975Y-17382538D02*
X59107737Y-17334919D01*
X57583927Y-18334919D02*
X57583927Y-17668252D01*
X57583927Y-17763490D02*
X57536308Y-17715871D01*
X57536308Y-17715871D02*
X57441070Y-17668252D01*
X57441070Y-17668252D02*
X57298213Y-17668252D01*
X57298213Y-17668252D02*
X57202975Y-17715871D01*
X57202975Y-17715871D02*
X57155356Y-17811109D01*
X57155356Y-17811109D02*
X57155356Y-18334919D01*
X57155356Y-17811109D02*
X57107737Y-17715871D01*
X57107737Y-17715871D02*
X57012499Y-17668252D01*
X57012499Y-17668252D02*
X56869642Y-17668252D01*
X56869642Y-17668252D02*
X56774403Y-17715871D01*
X56774403Y-17715871D02*
X56726784Y-17811109D01*
X56726784Y-17811109D02*
X56726784Y-18334919D01*
X56250594Y-18334919D02*
X56250594Y-17668252D01*
X56250594Y-17763490D02*
X56202975Y-17715871D01*
X56202975Y-17715871D02*
X56107737Y-17668252D01*
X56107737Y-17668252D02*
X55964880Y-17668252D01*
X55964880Y-17668252D02*
X55869642Y-17715871D01*
X55869642Y-17715871D02*
X55822023Y-17811109D01*
X55822023Y-17811109D02*
X55822023Y-18334919D01*
X55822023Y-17811109D02*
X55774404Y-17715871D01*
X55774404Y-17715871D02*
X55679166Y-17668252D01*
X55679166Y-17668252D02*
X55536309Y-17668252D01*
X55536309Y-17668252D02*
X55441070Y-17715871D01*
X55441070Y-17715871D02*
X55393451Y-17811109D01*
X55393451Y-17811109D02*
X55393451Y-18334919D01*
D11*
X17360000Y-16550000D02*
X17360000Y-17271420D01*
X98360000Y-16550000D02*
X98360000Y-17271420D01*
X17360000Y-16685000D02*
X98360000Y-16685000D01*
X17360000Y-16685000D02*
X98360000Y-16685000D01*
X17360000Y-16685000D02*
X18486504Y-16098579D01*
X17360000Y-16685000D02*
X18486504Y-17271421D01*
X98360000Y-16685000D02*
X97233496Y-17271421D01*
X98360000Y-16685000D02*
X97233496Y-16098579D01*
D10*
X83504919Y-50738214D02*
X83504919Y-50166786D01*
X83504919Y-50452500D02*
X82504919Y-50452500D01*
X82504919Y-50452500D02*
X82647776Y-50357262D01*
X82647776Y-50357262D02*
X82743014Y-50262024D01*
X82743014Y-50262024D02*
X82790633Y-50166786D01*
X93444919Y-38640595D02*
X93444919Y-38164405D01*
X93444919Y-38164405D02*
X93921109Y-38116786D01*
X93921109Y-38116786D02*
X93873490Y-38164405D01*
X93873490Y-38164405D02*
X93825871Y-38259643D01*
X93825871Y-38259643D02*
X93825871Y-38497738D01*
X93825871Y-38497738D02*
X93873490Y-38592976D01*
X93873490Y-38592976D02*
X93921109Y-38640595D01*
X93921109Y-38640595D02*
X94016347Y-38688214D01*
X94016347Y-38688214D02*
X94254442Y-38688214D01*
X94254442Y-38688214D02*
X94349680Y-38640595D01*
X94349680Y-38640595D02*
X94397300Y-38592976D01*
X94397300Y-38592976D02*
X94444919Y-38497738D01*
X94444919Y-38497738D02*
X94444919Y-38259643D01*
X94444919Y-38259643D02*
X94397300Y-38164405D01*
X94397300Y-38164405D02*
X94349680Y-38116786D01*
X75444919Y-38592976D02*
X75444919Y-38402500D01*
X75444919Y-38402500D02*
X75492538Y-38307262D01*
X75492538Y-38307262D02*
X75540157Y-38259643D01*
X75540157Y-38259643D02*
X75683014Y-38164405D01*
X75683014Y-38164405D02*
X75873490Y-38116786D01*
X75873490Y-38116786D02*
X76254442Y-38116786D01*
X76254442Y-38116786D02*
X76349680Y-38164405D01*
X76349680Y-38164405D02*
X76397300Y-38212024D01*
X76397300Y-38212024D02*
X76444919Y-38307262D01*
X76444919Y-38307262D02*
X76444919Y-38497738D01*
X76444919Y-38497738D02*
X76397300Y-38592976D01*
X76397300Y-38592976D02*
X76349680Y-38640595D01*
X76349680Y-38640595D02*
X76254442Y-38688214D01*
X76254442Y-38688214D02*
X76016347Y-38688214D01*
X76016347Y-38688214D02*
X75921109Y-38640595D01*
X75921109Y-38640595D02*
X75873490Y-38592976D01*
X75873490Y-38592976D02*
X75825871Y-38497738D01*
X75825871Y-38497738D02*
X75825871Y-38307262D01*
X75825871Y-38307262D02*
X75873490Y-38212024D01*
X75873490Y-38212024D02*
X75921109Y-38164405D01*
X75921109Y-38164405D02*
X76016347Y-38116786D01*
X88600157Y-50166786D02*
X88552538Y-50214405D01*
X88552538Y-50214405D02*
X88504919Y-50309643D01*
X88504919Y-50309643D02*
X88504919Y-50547738D01*
X88504919Y-50547738D02*
X88552538Y-50642976D01*
X88552538Y-50642976D02*
X88600157Y-50690595D01*
X88600157Y-50690595D02*
X88695395Y-50738214D01*
X88695395Y-50738214D02*
X88790633Y-50738214D01*
X88790633Y-50738214D02*
X88933490Y-50690595D01*
X88933490Y-50690595D02*
X89504919Y-50119167D01*
X89504919Y-50119167D02*
X89504919Y-50738214D01*
X87444919Y-38069167D02*
X87444919Y-38735833D01*
X87444919Y-38735833D02*
X88444919Y-38307262D01*
X76838252Y-50642976D02*
X77504919Y-50642976D01*
X76457300Y-50404881D02*
X77171585Y-50166786D01*
X77171585Y-50166786D02*
X77171585Y-50785833D01*
X94504919Y-50119167D02*
X94504919Y-50738214D01*
X94504919Y-50738214D02*
X94885871Y-50404881D01*
X94885871Y-50404881D02*
X94885871Y-50547738D01*
X94885871Y-50547738D02*
X94933490Y-50642976D01*
X94933490Y-50642976D02*
X94981109Y-50690595D01*
X94981109Y-50690595D02*
X95076347Y-50738214D01*
X95076347Y-50738214D02*
X95314442Y-50738214D01*
X95314442Y-50738214D02*
X95409680Y-50690595D01*
X95409680Y-50690595D02*
X95457300Y-50642976D01*
X95457300Y-50642976D02*
X95504919Y-50547738D01*
X95504919Y-50547738D02*
X95504919Y-50262024D01*
X95504919Y-50262024D02*
X95457300Y-50166786D01*
X95457300Y-50166786D02*
X95409680Y-50119167D01*
X81873490Y-38307262D02*
X81825871Y-38212024D01*
X81825871Y-38212024D02*
X81778252Y-38164405D01*
X81778252Y-38164405D02*
X81683014Y-38116786D01*
X81683014Y-38116786D02*
X81635395Y-38116786D01*
X81635395Y-38116786D02*
X81540157Y-38164405D01*
X81540157Y-38164405D02*
X81492538Y-38212024D01*
X81492538Y-38212024D02*
X81444919Y-38307262D01*
X81444919Y-38307262D02*
X81444919Y-38497738D01*
X81444919Y-38497738D02*
X81492538Y-38592976D01*
X81492538Y-38592976D02*
X81540157Y-38640595D01*
X81540157Y-38640595D02*
X81635395Y-38688214D01*
X81635395Y-38688214D02*
X81683014Y-38688214D01*
X81683014Y-38688214D02*
X81778252Y-38640595D01*
X81778252Y-38640595D02*
X81825871Y-38592976D01*
X81825871Y-38592976D02*
X81873490Y-38497738D01*
X81873490Y-38497738D02*
X81873490Y-38307262D01*
X81873490Y-38307262D02*
X81921109Y-38212024D01*
X81921109Y-38212024D02*
X81968728Y-38164405D01*
X81968728Y-38164405D02*
X82063966Y-38116786D01*
X82063966Y-38116786D02*
X82254442Y-38116786D01*
X82254442Y-38116786D02*
X82349680Y-38164405D01*
X82349680Y-38164405D02*
X82397300Y-38212024D01*
X82397300Y-38212024D02*
X82444919Y-38307262D01*
X82444919Y-38307262D02*
X82444919Y-38497738D01*
X82444919Y-38497738D02*
X82397300Y-38592976D01*
X82397300Y-38592976D02*
X82349680Y-38640595D01*
X82349680Y-38640595D02*
X82254442Y-38688214D01*
X82254442Y-38688214D02*
X82063966Y-38688214D01*
X82063966Y-38688214D02*
X81968728Y-38640595D01*
X81968728Y-38640595D02*
X81921109Y-38592976D01*
X81921109Y-38592976D02*
X81873490Y-38497738D01*
X80107500Y-64792500D02*
X80107500Y-51042500D01*
X84407500Y-64792500D02*
X79407500Y-64792500D01*
X79407500Y-64792500D02*
X79407500Y-51042500D01*
X79407500Y-51042500D02*
X84407500Y-51042500D01*
X84407500Y-51042500D02*
X84407500Y-64792500D01*
X95697500Y-24202500D02*
X95697500Y-37952500D01*
X91397500Y-24202500D02*
X96397500Y-24202500D01*
X96397500Y-24202500D02*
X96397500Y-37952500D01*
X96397500Y-37952500D02*
X91397500Y-37952500D01*
X91397500Y-37952500D02*
X91397500Y-24202500D01*
X77697500Y-24202500D02*
X77697500Y-37952500D01*
X73397500Y-24202500D02*
X78397500Y-24202500D01*
X78397500Y-24202500D02*
X78397500Y-37952500D01*
X78397500Y-37952500D02*
X73397500Y-37952500D01*
X73397500Y-37952500D02*
X73397500Y-24202500D01*
X86107500Y-64792500D02*
X86107500Y-51042500D01*
X90407500Y-64792500D02*
X85407500Y-64792500D01*
X85407500Y-64792500D02*
X85407500Y-51042500D01*
X85407500Y-51042500D02*
X90407500Y-51042500D01*
X90407500Y-51042500D02*
X90407500Y-64792500D01*
X89697500Y-24202500D02*
X89697500Y-37952500D01*
X85397500Y-24202500D02*
X90397500Y-24202500D01*
X90397500Y-24202500D02*
X90397500Y-37952500D01*
X90397500Y-37952500D02*
X85397500Y-37952500D01*
X85397500Y-37952500D02*
X85397500Y-24202500D01*
X74107500Y-64792500D02*
X74107500Y-51042500D01*
X78407500Y-64792500D02*
X73407500Y-64792500D01*
X73407500Y-64792500D02*
X73407500Y-51042500D01*
X73407500Y-51042500D02*
X78407500Y-51042500D01*
X78407500Y-51042500D02*
X78407500Y-64792500D01*
X92107500Y-64792500D02*
X92107500Y-51042500D01*
X96407500Y-64792500D02*
X91407500Y-64792500D01*
X91407500Y-64792500D02*
X91407500Y-51042500D01*
X91407500Y-51042500D02*
X96407500Y-51042500D01*
X96407500Y-51042500D02*
X96407500Y-64792500D01*
X83697500Y-24202500D02*
X83697500Y-37952500D01*
X79397500Y-24202500D02*
X84397500Y-24202500D01*
X84397500Y-24202500D02*
X84397500Y-37952500D01*
X84397500Y-37952500D02*
X79397500Y-37952500D01*
X79397500Y-37952500D02*
X79397500Y-24202500D01*
%LPC*%
D15*
X58390000Y-67710000D03*
D16*
X56390000Y-67710000D03*
D15*
X82607500Y-62992500D03*
D16*
X82607500Y-60452500D03*
D17*
X82607500Y-57912500D03*
X82607500Y-55372500D03*
D18*
X82607500Y-52832500D03*
D15*
X93197500Y-26002500D03*
D16*
X93197500Y-28542500D03*
D17*
X93197500Y-31082500D03*
X93197500Y-33622500D03*
D19*
X93197500Y-36162500D03*
D16*
X33085000Y-41372500D03*
D17*
X30545000Y-41372500D03*
X28005000Y-41372500D03*
X25465000Y-41372500D03*
D16*
X40105000Y-22112500D03*
D15*
X33095000Y-23912500D03*
D17*
X30555000Y-23912500D03*
X28015000Y-23912500D03*
X25475000Y-23912500D03*
X42645000Y-22112500D03*
D19*
X27885000Y-57177500D03*
X30425000Y-57177500D03*
D15*
X34160000Y-57300000D03*
D16*
X34160000Y-59300000D03*
D15*
X75197500Y-26002500D03*
D16*
X75197500Y-28542500D03*
D17*
X75197500Y-31082500D03*
X75197500Y-33622500D03*
D19*
X75197500Y-36162500D03*
D20*
X21615000Y-53102500D03*
D15*
X88607500Y-62992500D03*
D16*
X88607500Y-60452500D03*
D17*
X88607500Y-57912500D03*
X88607500Y-55372500D03*
D18*
X88607500Y-52832500D03*
D21*
X55060000Y-47080000D03*
X57600000Y-47080000D03*
D15*
X40860000Y-57290000D03*
D17*
X40860000Y-59830000D03*
D15*
X38357500Y-42507500D03*
D17*
X40897500Y-42507500D03*
D15*
X87197500Y-26002500D03*
D16*
X87197500Y-28542500D03*
D17*
X87197500Y-31082500D03*
X87197500Y-33622500D03*
D19*
X87197500Y-36162500D03*
D17*
X66602500Y-67507500D03*
X66602500Y-64967500D03*
D16*
X66602500Y-62427500D03*
D17*
X66602500Y-57347500D03*
X66602500Y-54807500D03*
X66602500Y-52267500D03*
D16*
X66602500Y-49727500D03*
D17*
X66602500Y-47187500D03*
X66602500Y-44647500D03*
X66602500Y-42107500D03*
X66602500Y-39567500D03*
D16*
X66602500Y-37027500D03*
D17*
X66602500Y-34487500D03*
X66602500Y-31947500D03*
X66602500Y-29407500D03*
X66602500Y-26867500D03*
D16*
X66602500Y-24327500D03*
D17*
X48822500Y-19247500D03*
X48822500Y-21787500D03*
D16*
X48822500Y-24327500D03*
D17*
X48822500Y-26867500D03*
X48822500Y-29407500D03*
X48822500Y-31947500D03*
X48822500Y-34487500D03*
D16*
X48822500Y-37027500D03*
D17*
X48822500Y-39567500D03*
X48822500Y-42107500D03*
X48822500Y-44647500D03*
X48822500Y-47187500D03*
D16*
X48822500Y-49727500D03*
D17*
X48822500Y-52267500D03*
X48822500Y-54807500D03*
X48822500Y-57347500D03*
X48822500Y-59887500D03*
D16*
X48822500Y-62427500D03*
D17*
X48822500Y-64967500D03*
X48822500Y-67507500D03*
D22*
X21570000Y-64780000D03*
D15*
X44040000Y-29540000D03*
X44040000Y-27000000D03*
D23*
X38357500Y-39867500D03*
D17*
X40897500Y-39867500D03*
D15*
X40775000Y-68555000D03*
D16*
X40775000Y-66015000D03*
D18*
X40775000Y-63475000D03*
D15*
X41140000Y-29587500D03*
D16*
X41140000Y-32127500D03*
D19*
X41140000Y-34667500D03*
D17*
X86080000Y-67490000D03*
X81000000Y-67490000D03*
X83540000Y-67490000D03*
X88620000Y-67490000D03*
D20*
X21595000Y-59827500D03*
X21690000Y-47480000D03*
D15*
X76607500Y-62992500D03*
D16*
X76607500Y-60452500D03*
D17*
X76607500Y-57912500D03*
X76607500Y-55372500D03*
D18*
X76607500Y-52832500D03*
D21*
X55080000Y-31740000D03*
X57620000Y-31740000D03*
D15*
X44052500Y-48220000D03*
D17*
X44052500Y-45680000D03*
D19*
X51125000Y-69757500D03*
X53665000Y-69757500D03*
D15*
X94607500Y-62992500D03*
D16*
X94607500Y-60452500D03*
D17*
X94607500Y-57912500D03*
X94607500Y-55372500D03*
D18*
X94607500Y-52832500D03*
D20*
X21600000Y-31550000D03*
X21567500Y-36785000D03*
D15*
X41165000Y-48132500D03*
D16*
X41165000Y-50672500D03*
D19*
X41165000Y-53212500D03*
D15*
X81197500Y-26002500D03*
D16*
X81197500Y-28542500D03*
D17*
X81197500Y-31082500D03*
X81197500Y-33622500D03*
D19*
X81197500Y-36162500D03*
D24*
X93275000Y-40562500D03*
X90735000Y-40562500D03*
X88195000Y-40562500D03*
X85655000Y-40562500D03*
X83115000Y-40562500D03*
X80575000Y-40562500D03*
D25*
X78035000Y-40562500D03*
X75495000Y-40562500D03*
D24*
X75495000Y-48182500D03*
X78035000Y-48182500D03*
X80575000Y-48182500D03*
X83115000Y-48182500D03*
X85655000Y-48182500D03*
X88195000Y-48182500D03*
X90735000Y-48182500D03*
X93275000Y-48182500D03*
%LPD*%
M02*
