G04 #@! TF.GenerationSoftware,KiCad,Pcbnew,7.0.7*
G04 #@! TF.CreationDate,2024-05-08T01:13:10+03:00*
G04 #@! TF.ProjectId,pico-hd-mcu-v2,7069636f-2d68-4642-9d6d-63752d76322e,rev?*
G04 #@! TF.SameCoordinates,Original*
G04 #@! TF.FileFunction,Copper,L1,Top*
G04 #@! TF.FilePolarity,Positive*
%FSLAX46Y46*%
G04 Gerber Fmt 4.6, Leading zero omitted, Abs format (unit mm)*
G04 Created by KiCad (PCBNEW 7.0.7) date 2024-05-08 01:13:10*
%MOMM*%
%LPD*%
G01*
G04 APERTURE LIST*
G04 Aperture macros list*
%AMOutline4P*
0 Free polygon, 4 corners , with rotation*
0 The origin of the aperture is its center*
0 number of corners: always 4*
0 $1 to $8 corner X, Y*
0 $9 Rotation angle, in degrees counterclockwise*
0 create outline with 4 corners*
4,1,4,$1,$2,$3,$4,$5,$6,$7,$8,$1,$2,$9*%
%AMOutline5P*
0 Free polygon, 5 corners , with rotation*
0 The origin of the aperture is its center*
0 number of corners: always 5*
0 $1 to $10 corner X, Y*
0 $11 Rotation angle, in degrees counterclockwise*
0 create outline with 5 corners*
4,1,5,$1,$2,$3,$4,$5,$6,$7,$8,$9,$10,$1,$2,$11*%
%AMOutline6P*
0 Free polygon, 6 corners , with rotation*
0 The origin of the aperture is its center*
0 number of corners: always 6*
0 $1 to $12 corner X, Y*
0 $13 Rotation angle, in degrees counterclockwise*
0 create outline with 6 corners*
4,1,6,$1,$2,$3,$4,$5,$6,$7,$8,$9,$10,$11,$12,$1,$2,$13*%
%AMOutline7P*
0 Free polygon, 7 corners , with rotation*
0 The origin of the aperture is its center*
0 number of corners: always 7*
0 $1 to $14 corner X, Y*
0 $15 Rotation angle, in degrees counterclockwise*
0 create outline with 7 corners*
4,1,7,$1,$2,$3,$4,$5,$6,$7,$8,$9,$10,$11,$12,$13,$14,$1,$2,$15*%
%AMOutline8P*
0 Free polygon, 8 corners , with rotation*
0 The origin of the aperture is its center*
0 number of corners: always 8*
0 $1 to $16 corner X, Y*
0 $17 Rotation angle, in degrees counterclockwise*
0 create outline with 8 corners*
4,1,8,$1,$2,$3,$4,$5,$6,$7,$8,$9,$10,$11,$12,$13,$14,$15,$16,$1,$2,$17*%
G04 Aperture macros list end*
G04 #@! TA.AperFunction,ComponentPad*
%ADD10R,1.700000X1.700000*%
G04 #@! TD*
G04 #@! TA.AperFunction,ComponentPad*
%ADD11O,1.700000X1.700000*%
G04 #@! TD*
G04 #@! TA.AperFunction,ComponentPad*
%ADD12C,1.700000*%
G04 #@! TD*
G04 #@! TA.AperFunction,ComponentPad*
%ADD13Outline5P,-0.850000X0.510000X-0.510000X0.850000X0.850000X0.850000X0.850000X-0.850000X-0.850000X-0.850000X180.000000*%
G04 #@! TD*
G04 #@! TA.AperFunction,ComponentPad*
%ADD14Outline5P,-0.850000X0.510000X-0.510000X0.850000X0.850000X0.850000X0.850000X-0.850000X-0.850000X-0.850000X0.000000*%
G04 #@! TD*
G04 #@! TA.AperFunction,ComponentPad*
%ADD15O,6.000000X2.000000*%
G04 #@! TD*
G04 #@! TA.AperFunction,ComponentPad*
%ADD16Outline5P,-0.850000X0.510000X-0.510000X0.850000X0.850000X0.850000X0.850000X-0.850000X-0.850000X-0.850000X90.000000*%
G04 #@! TD*
G04 #@! TA.AperFunction,ComponentPad*
%ADD17R,6.000000X2.000000*%
G04 #@! TD*
G04 #@! TA.AperFunction,ComponentPad*
%ADD18Outline4P,-0.850000X-0.850000X0.850000X-0.850000X0.850000X0.850000X-0.850000X0.850000X0.000000*%
G04 #@! TD*
G04 #@! TA.AperFunction,ComponentPad*
%ADD19O,1.600000X2.400000*%
G04 #@! TD*
G04 #@! TA.AperFunction,ComponentPad*
%ADD20R,1.600000X2.400000*%
G04 #@! TD*
G04 #@! TA.AperFunction,Conductor*
%ADD21C,1.250000*%
G04 #@! TD*
G04 #@! TA.AperFunction,Conductor*
%ADD22C,1.000000*%
G04 #@! TD*
G04 APERTURE END LIST*
D10*
X30670000Y-61650000D03*
D11*
X30670000Y-66730000D03*
D10*
X45360000Y-24080000D03*
D11*
X27580000Y-24080000D03*
D10*
X45360000Y-64720000D03*
D11*
X27580000Y-64720000D03*
D12*
X90327500Y-64942500D03*
D10*
X90327500Y-62402500D03*
D11*
X90327500Y-59862500D03*
X90327500Y-57322500D03*
D13*
X90327500Y-54782500D03*
D12*
X100917500Y-27952500D03*
D10*
X100917500Y-30492500D03*
D11*
X100917500Y-33032500D03*
X100917500Y-35572500D03*
D14*
X100917500Y-38112500D03*
D10*
X40805000Y-43322500D03*
D11*
X38265000Y-43322500D03*
X35725000Y-43322500D03*
X33185000Y-43322500D03*
D10*
X47825000Y-24062500D03*
D12*
X40815000Y-25862500D03*
D11*
X38275000Y-25862500D03*
X35735000Y-25862500D03*
X33195000Y-25862500D03*
X50365000Y-24062500D03*
D12*
X82917500Y-27952500D03*
D10*
X82917500Y-30492500D03*
D11*
X82917500Y-33032500D03*
X82917500Y-35572500D03*
D14*
X82917500Y-38112500D03*
D15*
X23432500Y-51265000D03*
D12*
X96327500Y-64942500D03*
D10*
X96327500Y-62402500D03*
D11*
X96327500Y-59862500D03*
X96327500Y-57322500D03*
D13*
X96327500Y-54782500D03*
D16*
X62780000Y-49030000D03*
X65320000Y-49030000D03*
D12*
X46077500Y-44457500D03*
D11*
X48617500Y-44457500D03*
D12*
X94917500Y-27952500D03*
D10*
X94917500Y-30492500D03*
D11*
X94917500Y-33032500D03*
X94917500Y-35572500D03*
D14*
X94917500Y-38112500D03*
D11*
X56542500Y-69457500D03*
X56542500Y-66917500D03*
D10*
X56542500Y-64377500D03*
D11*
X56542500Y-61837500D03*
X56542500Y-59297500D03*
X56542500Y-56757500D03*
X56542500Y-54217500D03*
D10*
X56542500Y-51677500D03*
D11*
X56542500Y-49137500D03*
X56542500Y-46597500D03*
X56542500Y-44057500D03*
X56542500Y-41517500D03*
D10*
X56542500Y-38977500D03*
D11*
X56542500Y-36437500D03*
X56542500Y-33897500D03*
X56542500Y-31357500D03*
X56542500Y-28817500D03*
D10*
X56542500Y-26277500D03*
D11*
X56542500Y-23737500D03*
X56542500Y-21197500D03*
D10*
X74322500Y-26277500D03*
D11*
X74322500Y-28817500D03*
X74322500Y-31357500D03*
X74322500Y-33897500D03*
X74322500Y-36437500D03*
D10*
X74322500Y-38977500D03*
D11*
X74322500Y-41517500D03*
X74322500Y-44057500D03*
X74322500Y-46597500D03*
X74322500Y-49137500D03*
D10*
X74322500Y-51677500D03*
D11*
X74322500Y-54217500D03*
X74322500Y-56757500D03*
X74322500Y-59297500D03*
D10*
X74322500Y-64377500D03*
D11*
X74322500Y-66917500D03*
X74322500Y-69457500D03*
D17*
X23490000Y-20700000D03*
D12*
X51760000Y-31490000D03*
X51760000Y-28950000D03*
D18*
X46077500Y-41817500D03*
D11*
X48617500Y-41817500D03*
D12*
X48860000Y-31537500D03*
D10*
X48860000Y-34077500D03*
D14*
X48860000Y-36617500D03*
D11*
X93855000Y-70915000D03*
X88775000Y-70915000D03*
X91315000Y-70915000D03*
X96395000Y-70915000D03*
D15*
X23470000Y-26400000D03*
X23437500Y-45617500D03*
D12*
X84327500Y-64942500D03*
D10*
X84327500Y-62402500D03*
D11*
X84327500Y-59862500D03*
X84327500Y-57322500D03*
D13*
X84327500Y-54782500D03*
D16*
X62800000Y-33690000D03*
X65340000Y-33690000D03*
D12*
X51772500Y-50170000D03*
D11*
X51772500Y-47630000D03*
D14*
X27425000Y-70737500D03*
X29965000Y-70737500D03*
D12*
X102327500Y-64942500D03*
D10*
X102327500Y-62402500D03*
D11*
X102327500Y-59862500D03*
X102327500Y-57322500D03*
D13*
X102327500Y-54782500D03*
D15*
X23450000Y-34320000D03*
X23417500Y-39955000D03*
D12*
X48885000Y-50082500D03*
D10*
X48885000Y-52622500D03*
D14*
X48885000Y-55162500D03*
D12*
X88917500Y-27952500D03*
D10*
X88917500Y-30492500D03*
D11*
X88917500Y-33032500D03*
X88917500Y-35572500D03*
D14*
X88917500Y-38112500D03*
D19*
X100995000Y-42512500D03*
X98455000Y-42512500D03*
X95915000Y-42512500D03*
X93375000Y-42512500D03*
X90835000Y-42512500D03*
X88295000Y-42512500D03*
D20*
X85755000Y-42512500D03*
X83215000Y-42512500D03*
D19*
X83215000Y-50132500D03*
X85755000Y-50132500D03*
X88295000Y-50132500D03*
X90835000Y-50132500D03*
X93375000Y-50132500D03*
X95915000Y-50132500D03*
X98455000Y-50132500D03*
X100995000Y-50132500D03*
D21*
X27580000Y-26880000D02*
X27580000Y-26270000D01*
D22*
X27450000Y-26400000D02*
X27580000Y-26270000D01*
D21*
X27580000Y-26270000D02*
X27580000Y-24080000D01*
X23470000Y-26400000D02*
X27450000Y-26400000D01*
D22*
X96395000Y-70915000D02*
X96340000Y-70860000D01*
X96340000Y-70860000D02*
X96340000Y-64955000D01*
X74322500Y-66917500D02*
X76277500Y-66917500D01*
X89890000Y-68660000D02*
X91315000Y-70085000D01*
X76277500Y-66917500D02*
X78020000Y-68660000D01*
X78020000Y-68660000D02*
X89890000Y-68660000D01*
X91315000Y-70085000D02*
X91315000Y-70915000D01*
X74322500Y-69457500D02*
X75705000Y-70840000D01*
X75705000Y-70840000D02*
X88700000Y-70840000D01*
X88700000Y-70840000D02*
X88775000Y-70915000D01*
X30670000Y-66730000D02*
X30670000Y-70032500D01*
X30670000Y-70032500D02*
X29965000Y-70737500D01*
X27580000Y-64720000D02*
X27580000Y-70582500D01*
X27580000Y-70582500D02*
X27425000Y-70737500D01*
X30670000Y-66730000D02*
X30857500Y-66917500D01*
X30857500Y-66917500D02*
X56542500Y-66917500D01*
X45360000Y-64720000D02*
X45702500Y-64377500D01*
X45702500Y-64377500D02*
X56542500Y-64377500D01*
X45360000Y-64720000D02*
X42170000Y-64720000D01*
X42170000Y-64720000D02*
X39100000Y-61650000D01*
X39100000Y-61650000D02*
X30670000Y-61650000D01*
X45360000Y-24080000D02*
X47807500Y-24080000D01*
X47807500Y-24080000D02*
X47825000Y-24062500D01*
X23490000Y-20700000D02*
X44462500Y-20700000D01*
X44462500Y-20700000D02*
X45360000Y-21597500D01*
X45360000Y-21597500D02*
X45360000Y-24080000D01*
D21*
X43520000Y-32367500D02*
X42052500Y-30900000D01*
X42052500Y-30900000D02*
X30910000Y-30900000D01*
X30910000Y-30900000D02*
X27580000Y-27570000D01*
X27580000Y-27570000D02*
X27580000Y-26880000D01*
D22*
X47825000Y-24062500D02*
X47687500Y-24062500D01*
X56542500Y-66917500D02*
X66342500Y-66917500D01*
X66342500Y-66917500D02*
X70990000Y-62270000D01*
X30680000Y-66740000D02*
X30670000Y-66730000D01*
D21*
X50365000Y-24062500D02*
X50365000Y-25522500D01*
X50365000Y-25522500D02*
X43520000Y-32367500D01*
X43520000Y-32367500D02*
X43520000Y-43930000D01*
X44047500Y-44457500D02*
X46077500Y-44457500D01*
X43520000Y-43930000D02*
X44047500Y-44457500D01*
D22*
X100917500Y-30492500D02*
X82917500Y-30492500D01*
X80982500Y-42512500D02*
X77447500Y-38977500D01*
X77447500Y-38977500D02*
X74322500Y-38977500D01*
X83215000Y-42512500D02*
X80982500Y-42512500D01*
X75897500Y-26277500D02*
X74322500Y-26277500D01*
X85755000Y-42512500D02*
X83215000Y-42512500D01*
X80112500Y-30492500D02*
X75897500Y-26277500D01*
X56542500Y-26277500D02*
X56537500Y-26272500D01*
X82917500Y-30492500D02*
X80112500Y-30492500D01*
D21*
X50365000Y-24062500D02*
X50365000Y-24622500D01*
D22*
X100995000Y-50132500D02*
X101030000Y-50167500D01*
X100995000Y-51830000D02*
X100995000Y-50132500D01*
X79292500Y-64982500D02*
X102287500Y-64982500D01*
X80812500Y-27952500D02*
X76720000Y-23860000D01*
X71002500Y-62257500D02*
X70990000Y-62270000D01*
X71002500Y-25577500D02*
X71002500Y-62257500D01*
X99545000Y-53280000D02*
X100995000Y-51830000D01*
X99545000Y-64977500D02*
X99545000Y-53280000D01*
X72720000Y-23860000D02*
X71002500Y-25577500D01*
X76720000Y-23860000D02*
X72720000Y-23860000D01*
X82917500Y-27952500D02*
X80812500Y-27952500D01*
X70990000Y-62270000D02*
X71380000Y-61880000D01*
X71380000Y-61880000D02*
X76190000Y-61880000D01*
X76190000Y-61880000D02*
X79292500Y-64982500D01*
X82917500Y-27952500D02*
X100917500Y-27952500D01*
X99550000Y-64982500D02*
X99545000Y-64977500D01*
X48885000Y-50082500D02*
X51685000Y-50082500D01*
X55210000Y-31357500D02*
X56542500Y-31357500D01*
X51605000Y-50002500D02*
X51772500Y-50170000D01*
X53855000Y-32712500D02*
X55210000Y-31357500D01*
X53855000Y-45547500D02*
X53855000Y-32712500D01*
X51772500Y-47630000D02*
X53855000Y-45547500D01*
X51685000Y-50082500D02*
X51772500Y-50170000D01*
X51892500Y-28817500D02*
X56542500Y-28817500D01*
X48860000Y-31537500D02*
X51712500Y-31537500D01*
X51760000Y-28950000D02*
X51892500Y-28817500D01*
X51712500Y-31537500D02*
X51760000Y-31490000D01*
X81390000Y-46420000D02*
X76487500Y-41517500D01*
X76487500Y-41517500D02*
X74322500Y-41517500D01*
X88295000Y-50132500D02*
X88295000Y-48895000D01*
X85820000Y-46420000D02*
X81390000Y-46420000D01*
X88295000Y-48895000D02*
X85820000Y-46420000D01*
X85755000Y-48975000D02*
X84710000Y-47930000D01*
X79820000Y-47930000D02*
X75947500Y-44057500D01*
X75947500Y-44057500D02*
X74322500Y-44057500D01*
X85755000Y-50132500D02*
X85755000Y-48975000D01*
X84710000Y-47930000D02*
X79820000Y-47930000D01*
X75217500Y-46597500D02*
X74322500Y-46597500D01*
X78752500Y-50132500D02*
X75217500Y-46597500D01*
X83215000Y-50132500D02*
X78752500Y-50132500D01*
X103392500Y-59862500D02*
X102327500Y-59862500D01*
X100917500Y-33032500D02*
X102987500Y-33032500D01*
X81757500Y-33032500D02*
X78352500Y-36437500D01*
X102987500Y-33032500D02*
X104540000Y-34585000D01*
X78352500Y-36437500D02*
X74322500Y-36437500D01*
X104540000Y-34585000D02*
X104540000Y-58715000D01*
X104540000Y-58715000D02*
X103392500Y-59862500D01*
X82917500Y-33032500D02*
X100917500Y-33032500D01*
X82917500Y-33032500D02*
X81757500Y-33032500D01*
X56542500Y-49137500D02*
X62672500Y-49137500D01*
X62672500Y-49137500D02*
X62780000Y-49030000D01*
X65320000Y-49030000D02*
X65320000Y-51230000D01*
X65320000Y-51230000D02*
X62332500Y-54217500D01*
X62332500Y-54217500D02*
X56542500Y-54217500D01*
X65340000Y-35300000D02*
X65340000Y-33690000D01*
X64202500Y-36437500D02*
X65340000Y-35300000D01*
X56542500Y-36437500D02*
X64202500Y-36437500D01*
X56750000Y-33690000D02*
X62800000Y-33690000D01*
X56542500Y-33897500D02*
X56750000Y-33690000D01*
M02*
