G04 #@! TF.GenerationSoftware,KiCad,Pcbnew,7.0.7*
G04 #@! TF.CreationDate,2024-05-09T03:47:05+03:00*
G04 #@! TF.ProjectId,pico-hd-mcu-v2,7069636f-2d68-4642-9d6d-63752d76322e,rev?*
G04 #@! TF.SameCoordinates,Original*
G04 #@! TF.FileFunction,Copper,L1,Top*
G04 #@! TF.FilePolarity,Positive*
%FSLAX46Y46*%
G04 Gerber Fmt 4.6, Leading zero omitted, Abs format (unit mm)*
G04 Created by KiCad (PCBNEW 7.0.7) date 2024-05-09 03:47:05*
%MOMM*%
%LPD*%
G01*
G04 APERTURE LIST*
G04 Aperture macros list*
%AMOutline4P*
0 Free polygon, 4 corners , with rotation*
0 The origin of the aperture is its center*
0 number of corners: always 4*
0 $1 to $8 corner X, Y*
0 $9 Rotation angle, in degrees counterclockwise*
0 create outline with 4 corners*
4,1,4,$1,$2,$3,$4,$5,$6,$7,$8,$1,$2,$9*%
%AMOutline5P*
0 Free polygon, 5 corners , with rotation*
0 The origin of the aperture is its center*
0 number of corners: always 5*
0 $1 to $10 corner X, Y*
0 $11 Rotation angle, in degrees counterclockwise*
0 create outline with 5 corners*
4,1,5,$1,$2,$3,$4,$5,$6,$7,$8,$9,$10,$1,$2,$11*%
%AMOutline6P*
0 Free polygon, 6 corners , with rotation*
0 The origin of the aperture is its center*
0 number of corners: always 6*
0 $1 to $12 corner X, Y*
0 $13 Rotation angle, in degrees counterclockwise*
0 create outline with 6 corners*
4,1,6,$1,$2,$3,$4,$5,$6,$7,$8,$9,$10,$11,$12,$1,$2,$13*%
%AMOutline7P*
0 Free polygon, 7 corners , with rotation*
0 The origin of the aperture is its center*
0 number of corners: always 7*
0 $1 to $14 corner X, Y*
0 $15 Rotation angle, in degrees counterclockwise*
0 create outline with 7 corners*
4,1,7,$1,$2,$3,$4,$5,$6,$7,$8,$9,$10,$11,$12,$13,$14,$1,$2,$15*%
%AMOutline8P*
0 Free polygon, 8 corners , with rotation*
0 The origin of the aperture is its center*
0 number of corners: always 8*
0 $1 to $16 corner X, Y*
0 $17 Rotation angle, in degrees counterclockwise*
0 create outline with 8 corners*
4,1,8,$1,$2,$3,$4,$5,$6,$7,$8,$9,$10,$11,$12,$13,$14,$15,$16,$1,$2,$17*%
G04 Aperture macros list end*
G04 #@! TA.AperFunction,ComponentPad*
%ADD10R,1.700000X1.700000*%
G04 #@! TD*
G04 #@! TA.AperFunction,ComponentPad*
%ADD11O,1.700000X1.700000*%
G04 #@! TD*
G04 #@! TA.AperFunction,ComponentPad*
%ADD12Outline5P,-0.850000X0.510000X-0.510000X0.850000X0.850000X0.850000X0.850000X-0.850000X-0.850000X-0.850000X90.000000*%
G04 #@! TD*
G04 #@! TA.AperFunction,ComponentPad*
%ADD13C,1.700000*%
G04 #@! TD*
G04 #@! TA.AperFunction,ComponentPad*
%ADD14Outline5P,-0.850000X0.510000X-0.510000X0.850000X0.850000X0.850000X0.850000X-0.850000X-0.850000X-0.850000X180.000000*%
G04 #@! TD*
G04 #@! TA.AperFunction,ComponentPad*
%ADD15Outline5P,-0.850000X0.510000X-0.510000X0.850000X0.850000X0.850000X0.850000X-0.850000X-0.850000X-0.850000X0.000000*%
G04 #@! TD*
G04 #@! TA.AperFunction,ComponentPad*
%ADD16C,3.000000*%
G04 #@! TD*
G04 #@! TA.AperFunction,ComponentPad*
%ADD17O,6.000000X2.000000*%
G04 #@! TD*
G04 #@! TA.AperFunction,ComponentPad*
%ADD18R,6.000000X2.000000*%
G04 #@! TD*
G04 #@! TA.AperFunction,ComponentPad*
%ADD19R,3.000000X3.000000*%
G04 #@! TD*
G04 #@! TA.AperFunction,ComponentPad*
%ADD20Outline4P,-0.850000X-0.850000X0.850000X-0.850000X0.850000X0.850000X-0.850000X0.850000X0.000000*%
G04 #@! TD*
G04 #@! TA.AperFunction,ComponentPad*
%ADD21O,1.600000X2.400000*%
G04 #@! TD*
G04 #@! TA.AperFunction,ComponentPad*
%ADD22R,1.600000X2.400000*%
G04 #@! TD*
G04 #@! TA.AperFunction,ViaPad*
%ADD23C,1.500000*%
G04 #@! TD*
G04 #@! TA.AperFunction,Conductor*
%ADD24C,1.000000*%
G04 #@! TD*
G04 #@! TA.AperFunction,Conductor*
%ADD25C,1.250000*%
G04 #@! TD*
G04 APERTURE END LIST*
D10*
X58355000Y-92320000D03*
D11*
X60895000Y-92320000D03*
X63435000Y-92320000D03*
X65975000Y-92320000D03*
D12*
X68515000Y-92320000D03*
D10*
X58285000Y-108760000D03*
D11*
X60825000Y-108760000D03*
X63365000Y-108760000D03*
X65905000Y-108760000D03*
D12*
X68445000Y-108760000D03*
D13*
X93540000Y-74235000D03*
D10*
X93540000Y-71695000D03*
D11*
X93540000Y-69155000D03*
X93540000Y-66615000D03*
D14*
X93540000Y-64075000D03*
D13*
X104130000Y-37245000D03*
D10*
X104130000Y-39785000D03*
D11*
X104130000Y-42325000D03*
X104130000Y-44865000D03*
D15*
X104130000Y-47405000D03*
D10*
X44017500Y-52615000D03*
D11*
X41477500Y-52615000D03*
X38937500Y-52615000D03*
X36397500Y-52615000D03*
D10*
X51037500Y-33355000D03*
D13*
X44027500Y-35155000D03*
D11*
X41487500Y-35155000D03*
X38947500Y-35155000D03*
X36407500Y-35155000D03*
X53577500Y-33355000D03*
D13*
X24335000Y-97540000D03*
D10*
X26875000Y-97540000D03*
D11*
X29415000Y-97540000D03*
X31955000Y-97540000D03*
D12*
X34495000Y-97540000D03*
D16*
X106802500Y-29292500D03*
D13*
X86130000Y-37245000D03*
D10*
X86130000Y-39785000D03*
D11*
X86130000Y-42325000D03*
X86130000Y-44865000D03*
D15*
X86130000Y-47405000D03*
D17*
X26645000Y-60557500D03*
D10*
X33882500Y-70942500D03*
D11*
X33882500Y-76022500D03*
D13*
X99540000Y-74235000D03*
D10*
X99540000Y-71695000D03*
D11*
X99540000Y-69155000D03*
X99540000Y-66615000D03*
D14*
X99540000Y-64075000D03*
D13*
X24335000Y-109540000D03*
D10*
X26875000Y-109540000D03*
D11*
X29415000Y-109540000D03*
X31955000Y-109540000D03*
D12*
X34495000Y-109540000D03*
X65992500Y-58322500D03*
X68532500Y-58322500D03*
D16*
X106912500Y-81792500D03*
D13*
X49290000Y-53750000D03*
D11*
X51830000Y-53750000D03*
D13*
X98130000Y-37245000D03*
D10*
X98130000Y-39785000D03*
D11*
X98130000Y-42325000D03*
X98130000Y-44865000D03*
D15*
X98130000Y-47405000D03*
D11*
X77535000Y-78750000D03*
X77535000Y-76210000D03*
D10*
X77535000Y-73670000D03*
D11*
X77535000Y-68590000D03*
X77535000Y-66050000D03*
X77535000Y-63510000D03*
D10*
X77535000Y-60970000D03*
D11*
X77535000Y-58430000D03*
X77535000Y-55890000D03*
X77535000Y-53350000D03*
X77535000Y-50810000D03*
D10*
X77535000Y-48270000D03*
D11*
X77535000Y-45730000D03*
X77535000Y-43190000D03*
X77535000Y-40650000D03*
X77535000Y-38110000D03*
D10*
X77535000Y-35570000D03*
D11*
X59755000Y-30490000D03*
X59755000Y-33030000D03*
D10*
X59755000Y-35570000D03*
D11*
X59755000Y-38110000D03*
X59755000Y-40650000D03*
X59755000Y-43190000D03*
X59755000Y-45730000D03*
D10*
X59755000Y-48270000D03*
D11*
X59755000Y-50810000D03*
X59755000Y-53350000D03*
X59755000Y-55890000D03*
X59755000Y-58430000D03*
D10*
X59755000Y-60970000D03*
D11*
X59755000Y-63510000D03*
X59755000Y-66050000D03*
X59755000Y-68590000D03*
X59755000Y-71130000D03*
D10*
X59755000Y-73670000D03*
D11*
X59755000Y-76210000D03*
X59755000Y-78750000D03*
D13*
X24335000Y-103540000D03*
D10*
X26875000Y-103540000D03*
D11*
X29415000Y-103540000D03*
X31955000Y-103540000D03*
D12*
X34495000Y-103540000D03*
D18*
X26702500Y-29992500D03*
D16*
X83212500Y-81792500D03*
D13*
X54972500Y-40782500D03*
X54972500Y-38242500D03*
D19*
X83212500Y-29292500D03*
D20*
X49290000Y-51110000D03*
D11*
X51830000Y-51110000D03*
D13*
X52072500Y-40830000D03*
D10*
X52072500Y-43370000D03*
D15*
X52072500Y-45910000D03*
D11*
X97067500Y-80207500D03*
X91987500Y-80207500D03*
X94527500Y-80207500D03*
X99607500Y-80207500D03*
D16*
X47212500Y-81792500D03*
D17*
X26682500Y-35692500D03*
X26650000Y-54910000D03*
D13*
X87540000Y-74235000D03*
D10*
X87540000Y-71695000D03*
D11*
X87540000Y-69155000D03*
X87540000Y-66615000D03*
D14*
X87540000Y-64075000D03*
D10*
X41905000Y-92250000D03*
D11*
X44445000Y-92250000D03*
X46985000Y-92250000D03*
X49525000Y-92250000D03*
D12*
X52065000Y-92250000D03*
X66012500Y-42982500D03*
X68552500Y-42982500D03*
D13*
X54985000Y-59462500D03*
D11*
X54985000Y-56922500D03*
D15*
X30637500Y-80030000D03*
X33177500Y-80030000D03*
D13*
X105540000Y-74235000D03*
D10*
X105540000Y-71695000D03*
D11*
X105540000Y-69155000D03*
X105540000Y-66615000D03*
D14*
X105540000Y-64075000D03*
D17*
X26662500Y-43612500D03*
D10*
X41845000Y-108760000D03*
D11*
X44385000Y-108760000D03*
X46925000Y-108760000D03*
X49465000Y-108760000D03*
D12*
X52005000Y-108760000D03*
D17*
X26630000Y-49247500D03*
D13*
X24335000Y-91540000D03*
D10*
X26875000Y-91540000D03*
D11*
X29415000Y-91540000D03*
X31955000Y-91540000D03*
D12*
X34495000Y-91540000D03*
D13*
X52097500Y-59375000D03*
D10*
X52097500Y-61915000D03*
D15*
X52097500Y-64455000D03*
D13*
X92130000Y-37245000D03*
D10*
X92130000Y-39785000D03*
D11*
X92130000Y-42325000D03*
X92130000Y-44865000D03*
D15*
X92130000Y-47405000D03*
D21*
X104207500Y-51805000D03*
X101667500Y-51805000D03*
X99127500Y-51805000D03*
X96587500Y-51805000D03*
X94047500Y-51805000D03*
X91507500Y-51805000D03*
D22*
X88967500Y-51805000D03*
X86427500Y-51805000D03*
D21*
X86427500Y-59425000D03*
X88967500Y-59425000D03*
X91507500Y-59425000D03*
X94047500Y-59425000D03*
X96587500Y-59425000D03*
X99127500Y-59425000D03*
X101667500Y-59425000D03*
X104207500Y-59425000D03*
D16*
X27212500Y-39692500D03*
D10*
X48572500Y-33372500D03*
D11*
X30792500Y-33372500D03*
D10*
X48572500Y-74012500D03*
D11*
X30792500Y-74012500D03*
D23*
X47025000Y-100160000D03*
D24*
X34495000Y-91540000D02*
X34495000Y-90150000D01*
X66265000Y-88690000D02*
X68515000Y-90940000D01*
X68515000Y-90940000D02*
X68515000Y-92320000D01*
X34495000Y-90150000D02*
X35955000Y-88690000D01*
X35955000Y-88690000D02*
X66265000Y-88690000D01*
X41845000Y-108760000D02*
X39915000Y-106830000D01*
X39915000Y-106830000D02*
X27905000Y-106830000D01*
X27905000Y-106830000D02*
X26875000Y-105800000D01*
X26875000Y-105800000D02*
X26875000Y-103540000D01*
X44535000Y-111980000D02*
X59655000Y-111980000D01*
X25315000Y-111980000D02*
X44535000Y-111980000D01*
X44535000Y-111980000D02*
X44385000Y-111830000D01*
X44385000Y-111830000D02*
X44385000Y-108760000D01*
X24335000Y-109540000D02*
X24335000Y-111000000D01*
X24335000Y-111000000D02*
X25315000Y-111980000D01*
X59655000Y-111980000D02*
X60825000Y-110810000D01*
X60825000Y-110810000D02*
X60825000Y-108760000D01*
X60825000Y-108760000D02*
X60915000Y-108760000D01*
X34495000Y-103540000D02*
X48475000Y-103540000D01*
X48475000Y-103540000D02*
X52005000Y-107070000D01*
X52005000Y-107070000D02*
X52005000Y-108760000D01*
X52065000Y-92250000D02*
X52065000Y-94020000D01*
X52065000Y-94020000D02*
X48545000Y-97540000D01*
X48545000Y-97540000D02*
X34495000Y-97540000D01*
X47065000Y-100200000D02*
X63245000Y-100200000D01*
X47025000Y-100160000D02*
X47065000Y-100200000D01*
X46985000Y-100200000D02*
X47025000Y-100160000D01*
X29415000Y-97540000D02*
X32075000Y-100200000D01*
X63245000Y-100200000D02*
X63365000Y-100080000D01*
X32075000Y-100200000D02*
X46985000Y-100200000D01*
X63365000Y-108760000D02*
X63365000Y-99230000D01*
X63365000Y-99230000D02*
X63365000Y-92390000D01*
X63365000Y-92390000D02*
X63435000Y-92320000D01*
X65905000Y-108760000D02*
X65905000Y-92390000D01*
X65905000Y-92390000D02*
X65975000Y-92320000D01*
X26702500Y-29992500D02*
X47675000Y-29992500D01*
X104130000Y-39785000D02*
X86130000Y-39785000D01*
X48572500Y-30890000D02*
X48572500Y-33372500D01*
X84195000Y-51805000D02*
X80660000Y-48270000D01*
X80660000Y-48270000D02*
X77535000Y-48270000D01*
X86427500Y-51805000D02*
X84195000Y-51805000D01*
X42312500Y-70942500D02*
X33882500Y-70942500D01*
X79110000Y-35570000D02*
X77535000Y-35570000D01*
X48572500Y-74012500D02*
X45382500Y-74012500D01*
X45382500Y-74012500D02*
X42312500Y-70942500D01*
X47675000Y-29992500D02*
X48572500Y-30890000D01*
X48572500Y-33372500D02*
X51020000Y-33372500D01*
X88967500Y-51805000D02*
X86427500Y-51805000D01*
X83325000Y-39785000D02*
X79110000Y-35570000D01*
X51020000Y-33372500D02*
X51037500Y-33355000D01*
X48915000Y-73670000D02*
X59755000Y-73670000D01*
X59755000Y-35570000D02*
X59750000Y-35565000D01*
X86130000Y-39785000D02*
X83325000Y-39785000D01*
X41905000Y-108700000D02*
X41845000Y-108760000D01*
X51037500Y-33355000D02*
X50900000Y-33355000D01*
X48572500Y-74012500D02*
X48915000Y-73670000D01*
D25*
X46732500Y-41660000D02*
X45265000Y-40192500D01*
X30792500Y-36172500D02*
X30792500Y-35562500D01*
X45265000Y-40192500D02*
X34122500Y-40192500D01*
X26682500Y-35692500D02*
X30662500Y-35692500D01*
X47260000Y-53750000D02*
X49290000Y-53750000D01*
X46732500Y-53222500D02*
X47260000Y-53750000D01*
X30792500Y-35562500D02*
X30792500Y-33372500D01*
X53577500Y-34815000D02*
X46732500Y-41660000D01*
X46732500Y-41660000D02*
X46732500Y-53222500D01*
X53577500Y-33355000D02*
X53577500Y-34815000D01*
D24*
X30662500Y-35692500D02*
X30792500Y-35562500D01*
D25*
X53577500Y-33355000D02*
X53577500Y-33915000D01*
X30792500Y-36862500D02*
X30792500Y-36172500D01*
X34122500Y-40192500D02*
X30792500Y-36862500D01*
D24*
X104207500Y-59425000D02*
X104242500Y-59460000D01*
X104207500Y-61122500D02*
X104207500Y-59425000D01*
X30792500Y-74012500D02*
X30792500Y-79875000D01*
X82505000Y-74275000D02*
X105500000Y-74275000D01*
X34070000Y-76210000D02*
X59755000Y-76210000D01*
X33882500Y-76022500D02*
X34070000Y-76210000D01*
X84025000Y-37245000D02*
X79932500Y-33152500D01*
X74215000Y-71550000D02*
X74202500Y-71562500D01*
X74215000Y-34870000D02*
X74215000Y-71550000D01*
X102757500Y-62572500D02*
X104207500Y-61122500D01*
X102757500Y-74270000D02*
X102757500Y-62572500D01*
X33882500Y-79325000D02*
X33177500Y-80030000D01*
X75932500Y-33152500D02*
X74215000Y-34870000D01*
X30792500Y-79875000D02*
X30637500Y-80030000D01*
X79932500Y-33152500D02*
X75932500Y-33152500D01*
X99607500Y-80207500D02*
X99552500Y-80152500D01*
X86130000Y-37245000D02*
X84025000Y-37245000D01*
X69555000Y-76210000D02*
X74202500Y-71562500D01*
X59755000Y-76210000D02*
X69555000Y-76210000D01*
X99552500Y-80152500D02*
X99552500Y-74247500D01*
X74202500Y-71562500D02*
X74592500Y-71172500D01*
X33892500Y-76032500D02*
X33882500Y-76022500D01*
X74592500Y-71172500D02*
X79402500Y-71172500D01*
X33882500Y-76022500D02*
X33882500Y-79325000D01*
X79402500Y-71172500D02*
X82505000Y-74275000D01*
X86130000Y-37245000D02*
X104130000Y-37245000D01*
X102762500Y-74275000D02*
X102757500Y-74270000D01*
X52097500Y-59375000D02*
X54897500Y-59375000D01*
X58422500Y-40650000D02*
X59755000Y-40650000D01*
X54817500Y-59295000D02*
X54985000Y-59462500D01*
X57067500Y-42005000D02*
X58422500Y-40650000D01*
X57067500Y-54840000D02*
X57067500Y-42005000D01*
X54985000Y-56922500D02*
X57067500Y-54840000D01*
X54897500Y-59375000D02*
X54985000Y-59462500D01*
X55105000Y-38110000D02*
X59755000Y-38110000D01*
X52072500Y-40830000D02*
X54925000Y-40830000D01*
X54972500Y-38242500D02*
X55105000Y-38110000D01*
X54925000Y-40830000D02*
X54972500Y-40782500D01*
X84602500Y-55712500D02*
X79700000Y-50810000D01*
X79700000Y-50810000D02*
X77535000Y-50810000D01*
X91507500Y-59425000D02*
X91507500Y-58187500D01*
X89032500Y-55712500D02*
X84602500Y-55712500D01*
X91507500Y-58187500D02*
X89032500Y-55712500D01*
X88967500Y-58267500D02*
X87922500Y-57222500D01*
X83032500Y-57222500D02*
X79160000Y-53350000D01*
X79160000Y-53350000D02*
X77535000Y-53350000D01*
X88967500Y-59425000D02*
X88967500Y-58267500D01*
X87922500Y-57222500D02*
X83032500Y-57222500D01*
X78430000Y-55890000D02*
X77535000Y-55890000D01*
X81965000Y-59425000D02*
X78430000Y-55890000D01*
X86427500Y-59425000D02*
X81965000Y-59425000D01*
X80252500Y-76982500D02*
X92132500Y-76982500D01*
X79480000Y-76210000D02*
X80252500Y-76982500D01*
X77535000Y-76210000D02*
X79480000Y-76210000D01*
X92132500Y-76982500D02*
X94527500Y-79377500D01*
X94527500Y-79377500D02*
X94527500Y-80207500D01*
X90562500Y-78782500D02*
X91987500Y-80207500D01*
X77535000Y-78750000D02*
X77567500Y-78782500D01*
X77567500Y-78782500D02*
X90562500Y-78782500D01*
X106605000Y-69155000D02*
X105540000Y-69155000D01*
X104130000Y-42325000D02*
X106200000Y-42325000D01*
X84970000Y-42325000D02*
X81565000Y-45730000D01*
X106200000Y-42325000D02*
X107752500Y-43877500D01*
X81565000Y-45730000D02*
X77535000Y-45730000D01*
X107752500Y-43877500D02*
X107752500Y-68007500D01*
X107752500Y-68007500D02*
X106605000Y-69155000D01*
X86130000Y-42325000D02*
X104130000Y-42325000D01*
X86130000Y-42325000D02*
X84970000Y-42325000D01*
X59755000Y-58430000D02*
X65885000Y-58430000D01*
X65885000Y-58430000D02*
X65992500Y-58322500D01*
X68532500Y-58322500D02*
X68532500Y-60522500D01*
X68532500Y-60522500D02*
X65545000Y-63510000D01*
X65545000Y-63510000D02*
X59755000Y-63510000D01*
X68552500Y-44592500D02*
X68552500Y-42982500D01*
X67415000Y-45730000D02*
X68552500Y-44592500D01*
X59755000Y-45730000D02*
X67415000Y-45730000D01*
X59962500Y-42982500D02*
X66012500Y-42982500D01*
X59755000Y-43190000D02*
X59962500Y-42982500D01*
M02*
