M48
; DRILL file {KiCad 7.0.7} date 2024 May 29, Wednesday 00:50:20
; FORMAT={-:-/ absolute / metric / decimal}
; #@! TF.CreationDate,2024-05-29T00:50:20+03:00
; #@! TF.GenerationSoftware,Kicad,Pcbnew,7.0.7
; #@! TF.FileFunction,Plated,1,2,PTH
FMAT,2
METRIC
; #@! TA.AperFunction,Plated,PTH,ComponentDrill
T1C0.500
; #@! TA.AperFunction,Plated,PTH,ViaDrill
T2C1.000
; #@! TA.AperFunction,Plated,PTH,ComponentDrill
T3C1.000
; #@! TA.AperFunction,Plated,PTH,ComponentDrill
T4C1.500
; #@! TA.AperFunction,Plated,PTH,ComponentDrill
T5C2.000
%
G90
G05
T1
X74.58Y-96.91
X75.85Y-96.91
X77.12Y-96.91
X85.85Y-96.71
X87.12Y-96.71
X88.39Y-96.71
T2
X47.025Y-100.16
T3
X24.335Y-91.54
X24.335Y-97.54
X24.335Y-103.54
X24.335Y-109.54
X26.875Y-91.54
X26.875Y-97.54
X26.875Y-103.54
X26.875Y-109.54
X29.415Y-91.54
X29.415Y-97.54
X29.415Y-103.54
X29.415Y-109.54
X30.637Y-80.03
X30.792Y-33.372
X30.792Y-74.013
X31.955Y-91.54
X31.955Y-97.54
X31.955Y-103.54
X31.955Y-109.54
X33.178Y-80.03
X33.883Y-70.942
X33.883Y-76.022
X34.495Y-91.54
X34.495Y-97.54
X34.495Y-103.54
X34.495Y-109.54
X36.365Y-38.307
X36.398Y-52.615
X36.407Y-35.155
X38.905Y-38.307
X38.938Y-52.615
X38.947Y-35.155
X41.477Y-52.615
X41.487Y-35.155
X41.845Y-108.76
X41.905Y-92.25
X44.017Y-52.615
X44.027Y-35.155
X44.385Y-108.76
X44.445Y-92.25
X46.925Y-108.76
X46.985Y-92.25
X48.572Y-33.372
X48.572Y-74.013
X49.29Y-51.11
X49.29Y-53.75
X49.465Y-108.76
X49.525Y-92.25
X51.037Y-33.355
X51.83Y-51.11
X51.83Y-53.75
X52.005Y-108.76
X52.065Y-92.25
X52.072Y-40.83
X52.072Y-43.37
X52.072Y-45.91
X52.097Y-59.375
X52.097Y-61.915
X52.097Y-64.455
X53.578Y-33.355
X54.972Y-38.242
X54.972Y-40.782
X54.985Y-56.922
X54.985Y-59.462
X58.285Y-108.76
X58.355Y-92.32
X59.755Y-30.49
X59.755Y-33.03
X59.755Y-35.57
X59.755Y-38.11
X59.755Y-40.65
X59.755Y-43.19
X59.755Y-45.73
X59.755Y-48.27
X59.755Y-50.81
X59.755Y-53.35
X59.755Y-55.89
X59.755Y-58.43
X59.755Y-60.97
X59.755Y-63.51
X59.755Y-66.05
X59.755Y-68.59
X59.755Y-71.13
X59.755Y-73.67
X59.755Y-76.21
X59.755Y-78.75
X60.825Y-108.76
X60.895Y-92.32
X63.365Y-108.76
X63.435Y-92.32
X65.905Y-108.76
X65.975Y-92.32
X65.992Y-58.322
X66.013Y-42.982
X68.445Y-108.76
X68.515Y-92.32
X68.532Y-58.322
X68.552Y-42.982
X74.5Y-93.39
X74.64Y-108.07
X74.65Y-90.61
X74.68Y-100.53
X74.79Y-104.87
X77.04Y-93.39
X77.18Y-108.07
X77.19Y-90.61
X77.22Y-100.53
X77.33Y-104.87
X77.535Y-35.57
X77.535Y-38.11
X77.535Y-40.65
X77.535Y-43.19
X77.535Y-45.73
X77.535Y-48.27
X77.535Y-50.81
X77.535Y-53.35
X77.535Y-55.89
X77.535Y-58.43
X77.535Y-60.97
X77.535Y-63.51
X77.535Y-66.05
X77.535Y-68.59
X77.535Y-73.67
X77.535Y-76.21
X77.535Y-78.75
X79.72Y-108.07
X79.73Y-90.61
X79.87Y-104.87
X82.26Y-108.07
X82.27Y-90.61
X84.47Y-93.39
X85.92Y-104.88
X85.93Y-100.5
X86.13Y-37.245
X86.13Y-39.785
X86.13Y-42.325
X86.13Y-44.865
X86.13Y-47.405
X86.427Y-51.805
X86.427Y-59.425
X87.01Y-93.39
X87.54Y-64.075
X87.54Y-66.615
X87.54Y-69.155
X87.54Y-71.695
X87.54Y-74.235
X88.46Y-104.88
X88.47Y-100.5
X88.968Y-51.805
X88.968Y-59.425
X89.28Y-88.81
X91.0Y-104.88
X91.507Y-51.805
X91.507Y-59.425
X91.82Y-88.81
X91.987Y-80.207
X92.13Y-37.245
X92.13Y-39.785
X92.13Y-42.325
X92.13Y-44.865
X92.13Y-47.405
X93.54Y-64.075
X93.54Y-66.615
X93.54Y-69.155
X93.54Y-71.695
X93.54Y-74.235
X94.047Y-51.805
X94.047Y-59.425
X94.527Y-80.207
X96.587Y-51.805
X96.587Y-59.425
X97.067Y-80.207
X98.13Y-37.245
X98.13Y-39.785
X98.13Y-42.325
X98.13Y-44.865
X98.13Y-47.405
X99.127Y-51.805
X99.127Y-59.425
X99.54Y-64.075
X99.54Y-66.615
X99.54Y-69.155
X99.54Y-71.695
X99.54Y-74.235
X99.608Y-80.207
X101.667Y-51.805
X101.667Y-59.425
X104.13Y-37.245
X104.13Y-39.785
X104.13Y-42.325
X104.13Y-44.865
X104.13Y-47.405
X104.207Y-51.805
X104.207Y-59.425
X105.54Y-64.075
X105.54Y-66.615
X105.54Y-69.155
X105.54Y-71.695
X105.54Y-74.235
T4
X26.63Y-49.247
X26.645Y-60.557
X26.65Y-54.91
X26.662Y-43.612
X26.682Y-35.692
X26.702Y-29.992
T5
X27.212Y-39.692
X47.212Y-81.792
X83.212Y-29.293
X83.212Y-81.792
X106.802Y-29.293
X106.912Y-81.792
T0
M30
