G04 #@! TF.GenerationSoftware,KiCad,Pcbnew,7.0.7*
G04 #@! TF.CreationDate,2024-05-29T00:50:14+03:00*
G04 #@! TF.ProjectId,pico-hd-mcu-v2,7069636f-2d68-4642-9d6d-63752d76322e,rev?*
G04 #@! TF.SameCoordinates,Original*
G04 #@! TF.FileFunction,Legend,Bot*
G04 #@! TF.FilePolarity,Positive*
%FSLAX46Y46*%
G04 Gerber Fmt 4.6, Leading zero omitted, Abs format (unit mm)*
G04 Created by KiCad (PCBNEW 7.0.7) date 2024-05-29 00:50:14*
%MOMM*%
%LPD*%
G01*
G04 APERTURE LIST*
G04 Aperture macros list*
%AMOutline4P*
0 Free polygon, 4 corners , with rotation*
0 The origin of the aperture is its center*
0 number of corners: always 4*
0 $1 to $8 corner X, Y*
0 $9 Rotation angle, in degrees counterclockwise*
0 create outline with 4 corners*
4,1,4,$1,$2,$3,$4,$5,$6,$7,$8,$1,$2,$9*%
%AMOutline5P*
0 Free polygon, 5 corners , with rotation*
0 The origin of the aperture is its center*
0 number of corners: always 5*
0 $1 to $10 corner X, Y*
0 $11 Rotation angle, in degrees counterclockwise*
0 create outline with 5 corners*
4,1,5,$1,$2,$3,$4,$5,$6,$7,$8,$9,$10,$1,$2,$11*%
%AMOutline6P*
0 Free polygon, 6 corners , with rotation*
0 The origin of the aperture is its center*
0 number of corners: always 6*
0 $1 to $12 corner X, Y*
0 $13 Rotation angle, in degrees counterclockwise*
0 create outline with 6 corners*
4,1,6,$1,$2,$3,$4,$5,$6,$7,$8,$9,$10,$11,$12,$1,$2,$13*%
%AMOutline7P*
0 Free polygon, 7 corners , with rotation*
0 The origin of the aperture is its center*
0 number of corners: always 7*
0 $1 to $14 corner X, Y*
0 $15 Rotation angle, in degrees counterclockwise*
0 create outline with 7 corners*
4,1,7,$1,$2,$3,$4,$5,$6,$7,$8,$9,$10,$11,$12,$13,$14,$1,$2,$15*%
%AMOutline8P*
0 Free polygon, 8 corners , with rotation*
0 The origin of the aperture is its center*
0 number of corners: always 8*
0 $1 to $16 corner X, Y*
0 $17 Rotation angle, in degrees counterclockwise*
0 create outline with 8 corners*
4,1,8,$1,$2,$3,$4,$5,$6,$7,$8,$9,$10,$11,$12,$13,$14,$15,$16,$1,$2,$17*%
G04 Aperture macros list end*
%ADD10C,0.200000*%
%ADD11C,0.300000*%
%ADD12C,0.187500*%
%ADD13C,0.120000*%
%ADD14C,0.150000*%
%ADD15C,0.100000*%
%ADD16O,1.000000X1.000000*%
%ADD17C,1.000000*%
%ADD18R,1.700000X1.700000*%
%ADD19O,1.700000X1.700000*%
%ADD20Outline5P,-0.850000X0.510000X-0.510000X0.850000X0.850000X0.850000X0.850000X-0.850000X-0.850000X-0.850000X90.000000*%
%ADD21C,1.700000*%
%ADD22Outline5P,-0.850000X0.510000X-0.510000X0.850000X0.850000X0.850000X0.850000X-0.850000X-0.850000X-0.850000X180.000000*%
%ADD23Outline5P,-0.850000X0.510000X-0.510000X0.850000X0.850000X0.850000X0.850000X-0.850000X-0.850000X-0.850000X270.000000*%
%ADD24Outline5P,-0.850000X0.510000X-0.510000X0.850000X0.850000X0.850000X0.850000X-0.850000X-0.850000X-0.850000X0.000000*%
%ADD25C,3.000000*%
%ADD26O,6.000000X2.000000*%
%ADD27O,1.700000X1.400000*%
%ADD28R,6.000000X2.000000*%
%ADD29R,3.000000X3.000000*%
%ADD30Outline4P,-0.850000X-0.850000X0.850000X-0.850000X0.850000X0.850000X-0.850000X0.850000X0.000000*%
%ADD31O,1.600000X2.400000*%
%ADD32R,1.600000X2.400000*%
G04 APERTURE END LIST*
D10*
X22015000Y-26790000D02*
X109555000Y-26790000D01*
X109555000Y-84040000D01*
X22015000Y-84040000D01*
X22015000Y-26790000D01*
X72795000Y-86440000D02*
X93485000Y-86440000D01*
X93485000Y-114610000D01*
X72795000Y-114610000D01*
X72795000Y-86440000D01*
X70775000Y-84040000D02*
X72795000Y-84040000D01*
X72795000Y-114610000D01*
X70775000Y-114610000D01*
X70775000Y-84040000D01*
G36*
X70775000Y-84040000D02*
G01*
X72795000Y-84040000D01*
X72795000Y-114610000D01*
X70775000Y-114610000D01*
X70775000Y-84040000D01*
G37*
X21820000Y-84040000D02*
X93670000Y-84040000D01*
X93670000Y-86470000D01*
X21820000Y-86470000D01*
X21820000Y-84040000D01*
G36*
X21820000Y-84040000D02*
G01*
X93670000Y-84040000D01*
X93670000Y-86470000D01*
X21820000Y-86470000D01*
X21820000Y-84040000D01*
G37*
X22015000Y-86470000D02*
X70775000Y-86470000D01*
X70775000Y-114610000D01*
X22015000Y-114610000D01*
X22015000Y-86470000D01*
X64217500Y-53237100D02*
X70377500Y-53237100D01*
X70377500Y-60102500D01*
X64217500Y-60102500D01*
X64217500Y-53237100D01*
X81270000Y-27275000D02*
X81270000Y-27275000D01*
X82070000Y-27275000D02*
X82070000Y-27275000D01*
X82870000Y-27275000D02*
X82870000Y-27275000D01*
X83670000Y-27275000D02*
X83670000Y-27275000D01*
X84470000Y-27275000D02*
X84470000Y-27275000D01*
X85270000Y-27275000D02*
X85270000Y-27275000D01*
X86070000Y-27275000D02*
X86070000Y-27275000D01*
X86870000Y-27275000D02*
X86870000Y-27275000D01*
X87670000Y-27275000D02*
X87670000Y-27275000D01*
X88470000Y-27275000D02*
X88470000Y-27275000D01*
X89270000Y-27275000D02*
X89270000Y-27275000D01*
X90070000Y-27275000D02*
X90070000Y-27275000D01*
X90870000Y-27275000D02*
X90870000Y-27275000D01*
X91670000Y-27275000D02*
X91670000Y-27275000D01*
X92470000Y-27275000D02*
X92470000Y-27275000D01*
X93270000Y-27275000D02*
X93270000Y-27275000D01*
X94070000Y-27275000D02*
X94070000Y-27275000D01*
X94870000Y-27275000D02*
X94870000Y-27275000D01*
X95670000Y-27275000D02*
X95670000Y-27275000D01*
X96470000Y-27275000D02*
X96470000Y-27275000D01*
X97270000Y-27275000D02*
X97270000Y-27275000D01*
X98070000Y-27275000D02*
X98070000Y-27275000D01*
X98870000Y-27275000D02*
X98870000Y-27275000D01*
X99670000Y-27275000D02*
X99670000Y-27275000D01*
X100470000Y-27275000D02*
X100470000Y-27275000D01*
X101270000Y-27275000D02*
X101270000Y-27275000D01*
X102070000Y-27275000D02*
X102070000Y-27275000D01*
X102870000Y-27275000D02*
X102870000Y-27275000D01*
X103670000Y-27275000D02*
X103670000Y-27275000D01*
X104470000Y-27275000D02*
X104470000Y-27275000D01*
X105270000Y-27275000D02*
X105270000Y-27275000D01*
X106070000Y-27275000D02*
X106070000Y-27275000D01*
X106870000Y-27275000D02*
X106870000Y-27275000D01*
X107670000Y-27275000D02*
X107670000Y-27275000D01*
X108470000Y-27275000D02*
X108470000Y-27275000D01*
X109270000Y-27275000D02*
X109270000Y-27275000D01*
X109410000Y-27275000D02*
X109410000Y-27275000D01*
X109410000Y-28075000D02*
X109410000Y-28075000D01*
X109410000Y-28875000D02*
X109410000Y-28875000D01*
X109410000Y-29675000D02*
X109410000Y-29675000D01*
X109410000Y-30475000D02*
X109410000Y-30475000D01*
X109410000Y-31275000D02*
X109410000Y-31275000D01*
X109410000Y-32075000D02*
X109410000Y-32075000D01*
X109410000Y-32875000D02*
X109410000Y-32875000D01*
X109410000Y-33675000D02*
X109410000Y-33675000D01*
X109410000Y-34475000D02*
X109410000Y-34475000D01*
X109410000Y-35275000D02*
X109410000Y-35275000D01*
X109410000Y-36075000D02*
X109410000Y-36075000D01*
X109410000Y-36875000D02*
X109410000Y-36875000D01*
X109410000Y-37675000D02*
X109410000Y-37675000D01*
X109410000Y-38475000D02*
X109410000Y-38475000D01*
X109410000Y-39275000D02*
X109410000Y-39275000D01*
X109410000Y-40075000D02*
X109410000Y-40075000D01*
X109410000Y-40875000D02*
X109410000Y-40875000D01*
X109410000Y-41675000D02*
X109410000Y-41675000D01*
X109410000Y-42475000D02*
X109410000Y-42475000D01*
X109410000Y-43275000D02*
X109410000Y-43275000D01*
X109410000Y-44075000D02*
X109410000Y-44075000D01*
X109410000Y-44875000D02*
X109410000Y-44875000D01*
X109410000Y-45675000D02*
X109410000Y-45675000D01*
X109410000Y-46475000D02*
X109410000Y-46475000D01*
X109410000Y-47275000D02*
X109410000Y-47275000D01*
X109410000Y-48075000D02*
X109410000Y-48075000D01*
X109410000Y-48875000D02*
X109410000Y-48875000D01*
X109410000Y-49675000D02*
X109410000Y-49675000D01*
X109410000Y-50475000D02*
X109410000Y-50475000D01*
X109410000Y-51275000D02*
X109410000Y-51275000D01*
X109410000Y-52075000D02*
X109410000Y-52075000D01*
X109410000Y-52875000D02*
X109410000Y-52875000D01*
X109410000Y-53675000D02*
X109410000Y-53675000D01*
X109410000Y-54475000D02*
X109410000Y-54475000D01*
X109410000Y-55275000D02*
X109410000Y-55275000D01*
X109410000Y-56075000D02*
X109410000Y-56075000D01*
X109410000Y-56875000D02*
X109410000Y-56875000D01*
X109410000Y-57675000D02*
X109410000Y-57675000D01*
X109410000Y-58475000D02*
X109410000Y-58475000D01*
X109410000Y-59275000D02*
X109410000Y-59275000D01*
X109410000Y-60075000D02*
X109410000Y-60075000D01*
X109410000Y-60875000D02*
X109410000Y-60875000D01*
X109410000Y-61675000D02*
X109410000Y-61675000D01*
X109410000Y-62475000D02*
X109410000Y-62475000D01*
X109410000Y-63275000D02*
X109410000Y-63275000D01*
X109410000Y-64075000D02*
X109410000Y-64075000D01*
X109410000Y-64875000D02*
X109410000Y-64875000D01*
X109410000Y-65675000D02*
X109410000Y-65675000D01*
X109410000Y-66475000D02*
X109410000Y-66475000D01*
X109410000Y-67275000D02*
X109410000Y-67275000D01*
X109410000Y-68075000D02*
X109410000Y-68075000D01*
X109410000Y-68875000D02*
X109410000Y-68875000D01*
X109410000Y-69675000D02*
X109410000Y-69675000D01*
X109410000Y-70475000D02*
X109410000Y-70475000D01*
X109410000Y-71275000D02*
X109410000Y-71275000D01*
X109410000Y-72075000D02*
X109410000Y-72075000D01*
X109410000Y-72875000D02*
X109410000Y-72875000D01*
X109410000Y-73675000D02*
X109410000Y-73675000D01*
X109410000Y-74475000D02*
X109410000Y-74475000D01*
X109410000Y-75275000D02*
X109410000Y-75275000D01*
X109410000Y-76035000D02*
X109410000Y-76035000D01*
X108610000Y-76035000D02*
X108610000Y-76035000D01*
X107810000Y-76035000D02*
X107810000Y-76035000D01*
X107010000Y-76035000D02*
X107010000Y-76035000D01*
X106210000Y-76035000D02*
X106210000Y-76035000D01*
X105410000Y-76035000D02*
X105410000Y-76035000D01*
X104610000Y-76035000D02*
X104610000Y-76035000D01*
X103810000Y-76035000D02*
X103810000Y-76035000D01*
X103010000Y-76035000D02*
X103010000Y-76035000D01*
X102210000Y-76035000D02*
X102210000Y-76035000D01*
X101410000Y-76035000D02*
X101410000Y-76035000D01*
X100610000Y-76035000D02*
X100610000Y-76035000D01*
X99810000Y-76035000D02*
X99810000Y-76035000D01*
X99010000Y-76035000D02*
X99010000Y-76035000D01*
X98210000Y-76035000D02*
X98210000Y-76035000D01*
X97410000Y-76035000D02*
X97410000Y-76035000D01*
X96610000Y-76035000D02*
X96610000Y-76035000D01*
X95810000Y-76035000D02*
X95810000Y-76035000D01*
X95010000Y-76035000D02*
X95010000Y-76035000D01*
X94210000Y-76035000D02*
X94210000Y-76035000D01*
X93410000Y-76035000D02*
X93410000Y-76035000D01*
X92610000Y-76035000D02*
X92610000Y-76035000D01*
X91810000Y-76035000D02*
X91810000Y-76035000D01*
X91010000Y-76035000D02*
X91010000Y-76035000D01*
X90210000Y-76035000D02*
X90210000Y-76035000D01*
X89410000Y-76035000D02*
X89410000Y-76035000D01*
X88610000Y-76035000D02*
X88610000Y-76035000D01*
X87810000Y-76035000D02*
X87810000Y-76035000D01*
X87010000Y-76035000D02*
X87010000Y-76035000D01*
X86210000Y-76035000D02*
X86210000Y-76035000D01*
X85410000Y-76035000D02*
X85410000Y-76035000D01*
X84610000Y-76035000D02*
X84610000Y-76035000D01*
X83810000Y-76035000D02*
X83810000Y-76035000D01*
X83010000Y-76035000D02*
X83010000Y-76035000D01*
X82210000Y-76035000D02*
X82210000Y-76035000D01*
X81410000Y-76035000D02*
X81410000Y-76035000D01*
X81270000Y-76035000D02*
X81270000Y-76035000D01*
X81270000Y-75235000D02*
X81270000Y-75235000D01*
X81270000Y-74435000D02*
X81270000Y-74435000D01*
X81270000Y-73635000D02*
X81270000Y-73635000D01*
X81270000Y-72835000D02*
X81270000Y-72835000D01*
X81270000Y-72035000D02*
X81270000Y-72035000D01*
X81270000Y-71235000D02*
X81270000Y-71235000D01*
X81270000Y-70435000D02*
X81270000Y-70435000D01*
X81270000Y-69635000D02*
X81270000Y-69635000D01*
X81270000Y-68835000D02*
X81270000Y-68835000D01*
X81270000Y-68035000D02*
X81270000Y-68035000D01*
X81270000Y-67235000D02*
X81270000Y-67235000D01*
X81270000Y-66435000D02*
X81270000Y-66435000D01*
X81270000Y-65635000D02*
X81270000Y-65635000D01*
X81270000Y-64835000D02*
X81270000Y-64835000D01*
X81270000Y-64035000D02*
X81270000Y-64035000D01*
X81270000Y-63235000D02*
X81270000Y-63235000D01*
X81270000Y-62435000D02*
X81270000Y-62435000D01*
X81270000Y-61635000D02*
X81270000Y-61635000D01*
X81270000Y-60835000D02*
X81270000Y-60835000D01*
X81270000Y-60035000D02*
X81270000Y-60035000D01*
X81270000Y-59235000D02*
X81270000Y-59235000D01*
X81270000Y-58435000D02*
X81270000Y-58435000D01*
X81270000Y-57635000D02*
X81270000Y-57635000D01*
X81270000Y-56835000D02*
X81270000Y-56835000D01*
X81270000Y-56035000D02*
X81270000Y-56035000D01*
X81270000Y-55235000D02*
X81270000Y-55235000D01*
X81270000Y-54435000D02*
X81270000Y-54435000D01*
X81270000Y-53635000D02*
X81270000Y-53635000D01*
X81270000Y-52835000D02*
X81270000Y-52835000D01*
X81270000Y-52035000D02*
X81270000Y-52035000D01*
X81270000Y-51235000D02*
X81270000Y-51235000D01*
X81270000Y-50435000D02*
X81270000Y-50435000D01*
X81270000Y-49635000D02*
X81270000Y-49635000D01*
X81270000Y-48835000D02*
X81270000Y-48835000D01*
X81270000Y-48035000D02*
X81270000Y-48035000D01*
X81270000Y-47235000D02*
X81270000Y-47235000D01*
X81270000Y-46435000D02*
X81270000Y-46435000D01*
X81270000Y-45635000D02*
X81270000Y-45635000D01*
X81270000Y-44835000D02*
X81270000Y-44835000D01*
X81270000Y-44035000D02*
X81270000Y-44035000D01*
X81270000Y-43235000D02*
X81270000Y-43235000D01*
X81270000Y-42435000D02*
X81270000Y-42435000D01*
X81270000Y-41635000D02*
X81270000Y-41635000D01*
X81270000Y-40835000D02*
X81270000Y-40835000D01*
X81270000Y-40035000D02*
X81270000Y-40035000D01*
X81270000Y-39235000D02*
X81270000Y-39235000D01*
X81270000Y-38435000D02*
X81270000Y-38435000D01*
X81270000Y-37635000D02*
X81270000Y-37635000D01*
X81270000Y-36835000D02*
X81270000Y-36835000D01*
X81270000Y-36035000D02*
X81270000Y-36035000D01*
X81270000Y-35235000D02*
X81270000Y-35235000D01*
X81270000Y-34435000D02*
X81270000Y-34435000D01*
X81270000Y-33635000D02*
X81270000Y-33635000D01*
X81270000Y-32835000D02*
X81270000Y-32835000D01*
X81270000Y-32035000D02*
X81270000Y-32035000D01*
X81270000Y-31235000D02*
X81270000Y-31235000D01*
X81270000Y-30435000D02*
X81270000Y-30435000D01*
X81270000Y-29635000D02*
X81270000Y-29635000D01*
X81270000Y-28835000D02*
X81270000Y-28835000D01*
X81270000Y-28035000D02*
X81270000Y-28035000D01*
X64237500Y-37897100D02*
X70397500Y-37897100D01*
X70397500Y-44762500D01*
X64237500Y-44762500D01*
X64237500Y-37897100D01*
D11*
G36*
X88882632Y-109886542D02*
G01*
X88496613Y-109886542D01*
X88407199Y-109841835D01*
X88370194Y-109804830D01*
X88325489Y-109715418D01*
X88325489Y-109571951D01*
X88370194Y-109482540D01*
X88407199Y-109445535D01*
X88496613Y-109400828D01*
X88882632Y-109400828D01*
X88882632Y-109886542D01*
G37*
G36*
X91682321Y-111115114D02*
G01*
X86454060Y-111115114D01*
X86454060Y-109250828D01*
X86668346Y-109250828D01*
X86688442Y-109325828D01*
X86743346Y-109380732D01*
X86818346Y-109400828D01*
X87382632Y-109400828D01*
X87382632Y-109815114D01*
X87032632Y-109815114D01*
X86957632Y-109835210D01*
X86902728Y-109890114D01*
X86882632Y-109965114D01*
X86902728Y-110040114D01*
X86957632Y-110095018D01*
X87032632Y-110115114D01*
X87382632Y-110115114D01*
X87382632Y-110750828D01*
X87402728Y-110825828D01*
X87457632Y-110880732D01*
X87532632Y-110900828D01*
X87607632Y-110880732D01*
X87662536Y-110825828D01*
X87682632Y-110750828D01*
X87682632Y-109750828D01*
X88025489Y-109750828D01*
X88034412Y-109784131D01*
X88041325Y-109817910D01*
X88112753Y-109960767D01*
X88128776Y-109978836D01*
X88140851Y-109999751D01*
X88212280Y-110071180D01*
X88233194Y-110083254D01*
X88251264Y-110099278D01*
X88394122Y-110170706D01*
X88397930Y-110171485D01*
X88052604Y-110664809D01*
X88026058Y-110737775D01*
X88039552Y-110814240D01*
X88089470Y-110873713D01*
X88162436Y-110900259D01*
X88238901Y-110886765D01*
X88298374Y-110836847D01*
X88753587Y-110186542D01*
X88882632Y-110186542D01*
X88882632Y-110750828D01*
X88902728Y-110825828D01*
X88957632Y-110880732D01*
X89032632Y-110900828D01*
X89107632Y-110880732D01*
X89162536Y-110825828D01*
X89182632Y-110750828D01*
X89596918Y-110750828D01*
X89617014Y-110825828D01*
X89671918Y-110880732D01*
X89746918Y-110900828D01*
X89821918Y-110880732D01*
X89876822Y-110825828D01*
X89896918Y-110750828D01*
X89896918Y-110741174D01*
X90168657Y-110741174D01*
X90183884Y-110817312D01*
X90235141Y-110875636D01*
X90308692Y-110900517D01*
X90384830Y-110885290D01*
X90443154Y-110834033D01*
X90818346Y-110271244D01*
X91193539Y-110834033D01*
X91251862Y-110885290D01*
X91328000Y-110900517D01*
X91401551Y-110875636D01*
X91452808Y-110817312D01*
X91468035Y-110741174D01*
X91443154Y-110667623D01*
X90998624Y-110000828D01*
X91443154Y-109334033D01*
X91468035Y-109260482D01*
X91452808Y-109184344D01*
X91401551Y-109126020D01*
X91328000Y-109101139D01*
X91251862Y-109116366D01*
X91193539Y-109167623D01*
X90818346Y-109730411D01*
X90443154Y-109167623D01*
X90384830Y-109116366D01*
X90308692Y-109101139D01*
X90235141Y-109126020D01*
X90183884Y-109184344D01*
X90168657Y-109260482D01*
X90193538Y-109334033D01*
X90638068Y-110000828D01*
X90193538Y-110667623D01*
X90168657Y-110741174D01*
X89896918Y-110741174D01*
X89896918Y-109250828D01*
X89876822Y-109175828D01*
X89821918Y-109120924D01*
X89746918Y-109100828D01*
X89671918Y-109120924D01*
X89617014Y-109175828D01*
X89596918Y-109250828D01*
X89596918Y-110750828D01*
X89182632Y-110750828D01*
X89182632Y-109250828D01*
X89162536Y-109175828D01*
X89107632Y-109120924D01*
X89032632Y-109100828D01*
X88461203Y-109100828D01*
X88427902Y-109109750D01*
X88394120Y-109116664D01*
X88251264Y-109188093D01*
X88233195Y-109204115D01*
X88212281Y-109216190D01*
X88140852Y-109287618D01*
X88128776Y-109308533D01*
X88112753Y-109326603D01*
X88041325Y-109469460D01*
X88034412Y-109503238D01*
X88025489Y-109536542D01*
X88025489Y-109750828D01*
X87682632Y-109750828D01*
X87682632Y-109250828D01*
X87662536Y-109175828D01*
X87607632Y-109120924D01*
X87532632Y-109100828D01*
X86818346Y-109100828D01*
X86743346Y-109120924D01*
X86688442Y-109175828D01*
X86668346Y-109250828D01*
X86454060Y-109250828D01*
X86454060Y-108886542D01*
X91682321Y-108886542D01*
X91682321Y-111115114D01*
G37*
D12*
X64612359Y-99856678D02*
X64255216Y-100856678D01*
X64255216Y-100856678D02*
X63898073Y-99856678D01*
X63040930Y-99356678D02*
X62898073Y-99356678D01*
X62898073Y-99356678D02*
X62755216Y-99428107D01*
X62755216Y-99428107D02*
X62683788Y-99499535D01*
X62683788Y-99499535D02*
X62612359Y-99642392D01*
X62612359Y-99642392D02*
X62540930Y-99928107D01*
X62540930Y-99928107D02*
X62540930Y-100285250D01*
X62540930Y-100285250D02*
X62612359Y-100570964D01*
X62612359Y-100570964D02*
X62683788Y-100713821D01*
X62683788Y-100713821D02*
X62755216Y-100785250D01*
X62755216Y-100785250D02*
X62898073Y-100856678D01*
X62898073Y-100856678D02*
X63040930Y-100856678D01*
X63040930Y-100856678D02*
X63183788Y-100785250D01*
X63183788Y-100785250D02*
X63255216Y-100713821D01*
X63255216Y-100713821D02*
X63326645Y-100570964D01*
X63326645Y-100570964D02*
X63398073Y-100285250D01*
X63398073Y-100285250D02*
X63398073Y-99928107D01*
X63398073Y-99928107D02*
X63326645Y-99642392D01*
X63326645Y-99642392D02*
X63255216Y-99499535D01*
X63255216Y-99499535D02*
X63183788Y-99428107D01*
X63183788Y-99428107D02*
X63040930Y-99356678D01*
X61898074Y-100713821D02*
X61826645Y-100785250D01*
X61826645Y-100785250D02*
X61898074Y-100856678D01*
X61898074Y-100856678D02*
X61969502Y-100785250D01*
X61969502Y-100785250D02*
X61898074Y-100713821D01*
X61898074Y-100713821D02*
X61898074Y-100856678D01*
X61255216Y-99499535D02*
X61183788Y-99428107D01*
X61183788Y-99428107D02*
X61040931Y-99356678D01*
X61040931Y-99356678D02*
X60683788Y-99356678D01*
X60683788Y-99356678D02*
X60540931Y-99428107D01*
X60540931Y-99428107D02*
X60469502Y-99499535D01*
X60469502Y-99499535D02*
X60398073Y-99642392D01*
X60398073Y-99642392D02*
X60398073Y-99785250D01*
X60398073Y-99785250D02*
X60469502Y-99999535D01*
X60469502Y-99999535D02*
X61326645Y-100856678D01*
X61326645Y-100856678D02*
X60398073Y-100856678D01*
X58612360Y-100070964D02*
X58112360Y-100070964D01*
X57898074Y-100856678D02*
X58612360Y-100856678D01*
X58612360Y-100856678D02*
X58612360Y-99356678D01*
X58612360Y-99356678D02*
X57898074Y-99356678D01*
X57398074Y-99356678D02*
X56398074Y-100856678D01*
X56398074Y-99356678D02*
X57398074Y-100856678D01*
X56040931Y-99356678D02*
X55183789Y-99356678D01*
X55612360Y-100856678D02*
X55612360Y-99356678D01*
X84072359Y-112776678D02*
X83715216Y-113776678D01*
X83715216Y-113776678D02*
X83358073Y-112776678D01*
X82500930Y-112276678D02*
X82358073Y-112276678D01*
X82358073Y-112276678D02*
X82215216Y-112348107D01*
X82215216Y-112348107D02*
X82143788Y-112419535D01*
X82143788Y-112419535D02*
X82072359Y-112562392D01*
X82072359Y-112562392D02*
X82000930Y-112848107D01*
X82000930Y-112848107D02*
X82000930Y-113205250D01*
X82000930Y-113205250D02*
X82072359Y-113490964D01*
X82072359Y-113490964D02*
X82143788Y-113633821D01*
X82143788Y-113633821D02*
X82215216Y-113705250D01*
X82215216Y-113705250D02*
X82358073Y-113776678D01*
X82358073Y-113776678D02*
X82500930Y-113776678D01*
X82500930Y-113776678D02*
X82643788Y-113705250D01*
X82643788Y-113705250D02*
X82715216Y-113633821D01*
X82715216Y-113633821D02*
X82786645Y-113490964D01*
X82786645Y-113490964D02*
X82858073Y-113205250D01*
X82858073Y-113205250D02*
X82858073Y-112848107D01*
X82858073Y-112848107D02*
X82786645Y-112562392D01*
X82786645Y-112562392D02*
X82715216Y-112419535D01*
X82715216Y-112419535D02*
X82643788Y-112348107D01*
X82643788Y-112348107D02*
X82500930Y-112276678D01*
X81358074Y-113633821D02*
X81286645Y-113705250D01*
X81286645Y-113705250D02*
X81358074Y-113776678D01*
X81358074Y-113776678D02*
X81429502Y-113705250D01*
X81429502Y-113705250D02*
X81358074Y-113633821D01*
X81358074Y-113633821D02*
X81358074Y-113776678D01*
X80715216Y-112419535D02*
X80643788Y-112348107D01*
X80643788Y-112348107D02*
X80500931Y-112276678D01*
X80500931Y-112276678D02*
X80143788Y-112276678D01*
X80143788Y-112276678D02*
X80000931Y-112348107D01*
X80000931Y-112348107D02*
X79929502Y-112419535D01*
X79929502Y-112419535D02*
X79858073Y-112562392D01*
X79858073Y-112562392D02*
X79858073Y-112705250D01*
X79858073Y-112705250D02*
X79929502Y-112919535D01*
X79929502Y-112919535D02*
X80786645Y-113776678D01*
X80786645Y-113776678D02*
X79858073Y-113776678D01*
X78215217Y-112276678D02*
X77215217Y-113776678D01*
X77215217Y-112276678D02*
X78215217Y-113776678D01*
X76643789Y-113776678D02*
X76643789Y-112276678D01*
X75072360Y-113776678D02*
X75572360Y-113062392D01*
X75929503Y-113776678D02*
X75929503Y-112276678D01*
X75929503Y-112276678D02*
X75358074Y-112276678D01*
X75358074Y-112276678D02*
X75215217Y-112348107D01*
X75215217Y-112348107D02*
X75143788Y-112419535D01*
X75143788Y-112419535D02*
X75072360Y-112562392D01*
X75072360Y-112562392D02*
X75072360Y-112776678D01*
X75072360Y-112776678D02*
X75143788Y-112919535D01*
X75143788Y-112919535D02*
X75215217Y-112990964D01*
X75215217Y-112990964D02*
X75358074Y-113062392D01*
X75358074Y-113062392D02*
X75929503Y-113062392D01*
X73929503Y-112990964D02*
X74429503Y-112990964D01*
X74429503Y-113776678D02*
X74429503Y-112276678D01*
X74429503Y-112276678D02*
X73715217Y-112276678D01*
D13*
X82986640Y-37302161D02*
X82986640Y-36778351D01*
X82986640Y-36778351D02*
X83510450Y-36725970D01*
X83510450Y-36725970D02*
X83458069Y-36778351D01*
X83458069Y-36778351D02*
X83405688Y-36883113D01*
X83405688Y-36883113D02*
X83405688Y-37145018D01*
X83405688Y-37145018D02*
X83458069Y-37249780D01*
X83458069Y-37249780D02*
X83510450Y-37302161D01*
X83510450Y-37302161D02*
X83615212Y-37354542D01*
X83615212Y-37354542D02*
X83877117Y-37354542D01*
X83877117Y-37354542D02*
X83981879Y-37302161D01*
X83981879Y-37302161D02*
X84034260Y-37249780D01*
X84034260Y-37249780D02*
X84086640Y-37145018D01*
X84086640Y-37145018D02*
X84086640Y-36883113D01*
X84086640Y-36883113D02*
X84034260Y-36778351D01*
X84034260Y-36778351D02*
X83981879Y-36725970D01*
X82986640Y-37668827D02*
X84086640Y-38035494D01*
X84086640Y-38035494D02*
X82986640Y-38402161D01*
X83039021Y-40183113D02*
X82986640Y-40078351D01*
X82986640Y-40078351D02*
X82986640Y-39921208D01*
X82986640Y-39921208D02*
X83039021Y-39764065D01*
X83039021Y-39764065D02*
X83143783Y-39659303D01*
X83143783Y-39659303D02*
X83248545Y-39606922D01*
X83248545Y-39606922D02*
X83458069Y-39554541D01*
X83458069Y-39554541D02*
X83615212Y-39554541D01*
X83615212Y-39554541D02*
X83824736Y-39606922D01*
X83824736Y-39606922D02*
X83929498Y-39659303D01*
X83929498Y-39659303D02*
X84034260Y-39764065D01*
X84034260Y-39764065D02*
X84086640Y-39921208D01*
X84086640Y-39921208D02*
X84086640Y-40025970D01*
X84086640Y-40025970D02*
X84034260Y-40183113D01*
X84034260Y-40183113D02*
X83981879Y-40235494D01*
X83981879Y-40235494D02*
X83615212Y-40235494D01*
X83615212Y-40235494D02*
X83615212Y-40025970D01*
X83981879Y-42173589D02*
X84034260Y-42121208D01*
X84034260Y-42121208D02*
X84086640Y-41964065D01*
X84086640Y-41964065D02*
X84086640Y-41859303D01*
X84086640Y-41859303D02*
X84034260Y-41702160D01*
X84034260Y-41702160D02*
X83929498Y-41597398D01*
X83929498Y-41597398D02*
X83824736Y-41545017D01*
X83824736Y-41545017D02*
X83615212Y-41492636D01*
X83615212Y-41492636D02*
X83458069Y-41492636D01*
X83458069Y-41492636D02*
X83248545Y-41545017D01*
X83248545Y-41545017D02*
X83143783Y-41597398D01*
X83143783Y-41597398D02*
X83039021Y-41702160D01*
X83039021Y-41702160D02*
X82986640Y-41859303D01*
X82986640Y-41859303D02*
X82986640Y-41964065D01*
X82986640Y-41964065D02*
X83039021Y-42121208D01*
X83039021Y-42121208D02*
X83091402Y-42173589D01*
X84086640Y-42645017D02*
X82986640Y-42645017D01*
X84086640Y-43273589D02*
X83458069Y-42802160D01*
X82986640Y-43273589D02*
X83615212Y-42645017D01*
X83981879Y-45211684D02*
X84034260Y-45159303D01*
X84034260Y-45159303D02*
X84086640Y-45002160D01*
X84086640Y-45002160D02*
X84086640Y-44897398D01*
X84086640Y-44897398D02*
X84034260Y-44740255D01*
X84034260Y-44740255D02*
X83929498Y-44635493D01*
X83929498Y-44635493D02*
X83824736Y-44583112D01*
X83824736Y-44583112D02*
X83615212Y-44530731D01*
X83615212Y-44530731D02*
X83458069Y-44530731D01*
X83458069Y-44530731D02*
X83248545Y-44583112D01*
X83248545Y-44583112D02*
X83143783Y-44635493D01*
X83143783Y-44635493D02*
X83039021Y-44740255D01*
X83039021Y-44740255D02*
X82986640Y-44897398D01*
X82986640Y-44897398D02*
X82986640Y-45002160D01*
X82986640Y-45002160D02*
X83039021Y-45159303D01*
X83039021Y-45159303D02*
X83091402Y-45211684D01*
X84034260Y-45630731D02*
X84086640Y-45787874D01*
X84086640Y-45787874D02*
X84086640Y-46049779D01*
X84086640Y-46049779D02*
X84034260Y-46154541D01*
X84034260Y-46154541D02*
X83981879Y-46206922D01*
X83981879Y-46206922D02*
X83877117Y-46259303D01*
X83877117Y-46259303D02*
X83772355Y-46259303D01*
X83772355Y-46259303D02*
X83667593Y-46206922D01*
X83667593Y-46206922D02*
X83615212Y-46154541D01*
X83615212Y-46154541D02*
X83562831Y-46049779D01*
X83562831Y-46049779D02*
X83510450Y-45840255D01*
X83510450Y-45840255D02*
X83458069Y-45735493D01*
X83458069Y-45735493D02*
X83405688Y-45683112D01*
X83405688Y-45683112D02*
X83300926Y-45630731D01*
X83300926Y-45630731D02*
X83196164Y-45630731D01*
X83196164Y-45630731D02*
X83091402Y-45683112D01*
X83091402Y-45683112D02*
X83039021Y-45735493D01*
X83039021Y-45735493D02*
X82986640Y-45840255D01*
X82986640Y-45840255D02*
X82986640Y-46102160D01*
X82986640Y-46102160D02*
X83039021Y-46259303D01*
X84086640Y-47568826D02*
X82986640Y-47568826D01*
X82986640Y-47568826D02*
X82986640Y-47830731D01*
X82986640Y-47830731D02*
X83039021Y-47987874D01*
X83039021Y-47987874D02*
X83143783Y-48092636D01*
X83143783Y-48092636D02*
X83248545Y-48145017D01*
X83248545Y-48145017D02*
X83458069Y-48197398D01*
X83458069Y-48197398D02*
X83615212Y-48197398D01*
X83615212Y-48197398D02*
X83824736Y-48145017D01*
X83824736Y-48145017D02*
X83929498Y-48092636D01*
X83929498Y-48092636D02*
X84034260Y-47987874D01*
X84034260Y-47987874D02*
X84086640Y-47830731D01*
X84086640Y-47830731D02*
X84086640Y-47568826D01*
D11*
G36*
X47947458Y-39837338D02*
G01*
X47984463Y-39874343D01*
X48029171Y-39963757D01*
X48029171Y-40349776D01*
X47543457Y-40349776D01*
X47543457Y-39963756D01*
X47588162Y-39874344D01*
X47625167Y-39837339D01*
X47714581Y-39792633D01*
X47858047Y-39792633D01*
X47947458Y-39837338D01*
G37*
G36*
X48543457Y-46221203D02*
G01*
X46314885Y-46221203D01*
X46314885Y-45856917D01*
X46529171Y-45856917D01*
X46549267Y-45931917D01*
X46604171Y-45986821D01*
X46679171Y-46006917D01*
X46754171Y-45986821D01*
X46809075Y-45931917D01*
X46829171Y-45856917D01*
X46829171Y-45578346D01*
X47745610Y-45578346D01*
X47715962Y-45607994D01*
X47703887Y-45628908D01*
X47687864Y-45646978D01*
X47616436Y-45789835D01*
X47600869Y-45865905D01*
X47625423Y-45939566D01*
X47683518Y-45991081D01*
X47759588Y-46006648D01*
X47833249Y-45982094D01*
X47884764Y-45923999D01*
X47945305Y-45802914D01*
X48060447Y-45687772D01*
X48262376Y-45553153D01*
X48284921Y-45527499D01*
X48309075Y-45503346D01*
X48310358Y-45498555D01*
X48313633Y-45494830D01*
X48320333Y-45461328D01*
X48329171Y-45428346D01*
X48327887Y-45423557D01*
X48328861Y-45418692D01*
X48317912Y-45386328D01*
X48309075Y-45353346D01*
X48305568Y-45349839D01*
X48303979Y-45345141D01*
X48278317Y-45322588D01*
X48254171Y-45298442D01*
X48249382Y-45297158D01*
X48245656Y-45293884D01*
X48212156Y-45287184D01*
X48179171Y-45278346D01*
X46829171Y-45278346D01*
X46829171Y-44999774D01*
X46809075Y-44924774D01*
X46754171Y-44869870D01*
X46679171Y-44849774D01*
X46604171Y-44869870D01*
X46549267Y-44924774D01*
X46529171Y-44999774D01*
X46529171Y-45856917D01*
X46314885Y-45856917D01*
X46314885Y-44499775D01*
X46529171Y-44499775D01*
X46534282Y-44518849D01*
X46534282Y-44538598D01*
X46544155Y-44555700D01*
X46549267Y-44574775D01*
X46563231Y-44588739D01*
X46573105Y-44605841D01*
X46590206Y-44615714D01*
X46604171Y-44629679D01*
X46623245Y-44634790D01*
X46640348Y-44644664D01*
X46660096Y-44644664D01*
X46679171Y-44649775D01*
X46698246Y-44644664D01*
X46717994Y-44644664D01*
X46735096Y-44634790D01*
X46754171Y-44629679D01*
X46768135Y-44615714D01*
X46785237Y-44605841D01*
X47617341Y-43773736D01*
X47774943Y-43721203D01*
X47858047Y-43721203D01*
X47947460Y-43765910D01*
X47984463Y-43802914D01*
X48029171Y-43892328D01*
X48029171Y-44178650D01*
X47984464Y-44268063D01*
X47930248Y-44322280D01*
X47891425Y-44389523D01*
X47891425Y-44467169D01*
X47930248Y-44534412D01*
X47997491Y-44573235D01*
X48075137Y-44573235D01*
X48142380Y-44534412D01*
X48213808Y-44462984D01*
X48225883Y-44442068D01*
X48241906Y-44424000D01*
X48313335Y-44281144D01*
X48320248Y-44247361D01*
X48329171Y-44214061D01*
X48329171Y-43856918D01*
X48320248Y-43823617D01*
X48313335Y-43789835D01*
X48241906Y-43646979D01*
X48225883Y-43628910D01*
X48213809Y-43607996D01*
X48142381Y-43536567D01*
X48121464Y-43524490D01*
X48103396Y-43508468D01*
X47960539Y-43437039D01*
X47926758Y-43430126D01*
X47893457Y-43421203D01*
X47750600Y-43421203D01*
X47727271Y-43427453D01*
X47703165Y-43428901D01*
X47488880Y-43500330D01*
X47460107Y-43519326D01*
X47430248Y-43536566D01*
X46829171Y-44137643D01*
X46829171Y-43571203D01*
X46809075Y-43496203D01*
X46754171Y-43441299D01*
X46679171Y-43421203D01*
X46604171Y-43441299D01*
X46549267Y-43496203D01*
X46529171Y-43571203D01*
X46529171Y-44499775D01*
X46314885Y-44499775D01*
X46314885Y-42672704D01*
X46532216Y-42672704D01*
X46536319Y-42680910D01*
X46536869Y-42690066D01*
X46553466Y-42715204D01*
X46566941Y-42742153D01*
X46574595Y-42747207D01*
X46579650Y-42754862D01*
X46606598Y-42768336D01*
X46631737Y-42784934D01*
X48131737Y-43284935D01*
X48209243Y-43289587D01*
X48278692Y-43254863D01*
X48321474Y-43190066D01*
X48326126Y-43112560D01*
X48291402Y-43043111D01*
X48226605Y-43000330D01*
X47153511Y-42642632D01*
X48226605Y-42284934D01*
X48291402Y-42242153D01*
X48326126Y-42172704D01*
X48321474Y-42095198D01*
X48278692Y-42030401D01*
X48209243Y-41995677D01*
X48131737Y-42000329D01*
X46631737Y-42500330D01*
X46606598Y-42516927D01*
X46579650Y-42530402D01*
X46574595Y-42538056D01*
X46566941Y-42543111D01*
X46553466Y-42570059D01*
X46536869Y-42595198D01*
X46536319Y-42604353D01*
X46532216Y-42612560D01*
X46534021Y-42642632D01*
X46532216Y-42672704D01*
X46314885Y-42672704D01*
X46314885Y-40499776D01*
X46529171Y-40499776D01*
X46549267Y-40574776D01*
X46604171Y-40629680D01*
X46679171Y-40649776D01*
X47393457Y-40649776D01*
X48179171Y-40649776D01*
X48254171Y-40629680D01*
X48309075Y-40574776D01*
X48329171Y-40499776D01*
X48329171Y-39928347D01*
X48320248Y-39895046D01*
X48313335Y-39861264D01*
X48241906Y-39718408D01*
X48225883Y-39700339D01*
X48213809Y-39679425D01*
X48142381Y-39607996D01*
X48121465Y-39595920D01*
X48103396Y-39579897D01*
X47960539Y-39508469D01*
X47926760Y-39501556D01*
X47893457Y-39492633D01*
X47679171Y-39492633D01*
X47645865Y-39501557D01*
X47612090Y-39508469D01*
X47469232Y-39579897D01*
X47451162Y-39595920D01*
X47430248Y-39607995D01*
X47358819Y-39679424D01*
X47346744Y-39700338D01*
X47330721Y-39718408D01*
X47259293Y-39861265D01*
X47258513Y-39865074D01*
X46765190Y-39519748D01*
X46692224Y-39493202D01*
X46615759Y-39506696D01*
X46556286Y-39556614D01*
X46529740Y-39629580D01*
X46543234Y-39706045D01*
X46593152Y-39765518D01*
X47243457Y-40220731D01*
X47243457Y-40349776D01*
X46679171Y-40349776D01*
X46604171Y-40369872D01*
X46549267Y-40424776D01*
X46529171Y-40499776D01*
X46314885Y-40499776D01*
X46314885Y-38999776D01*
X46529171Y-38999776D01*
X46549267Y-39074776D01*
X46604171Y-39129680D01*
X46679171Y-39149776D01*
X47464885Y-39149776D01*
X48179171Y-39149776D01*
X48254171Y-39129680D01*
X48309075Y-39074776D01*
X48329171Y-38999776D01*
X48329171Y-38285490D01*
X48309075Y-38210490D01*
X48254171Y-38155586D01*
X48179171Y-38135490D01*
X48104171Y-38155586D01*
X48049267Y-38210490D01*
X48029171Y-38285490D01*
X48029171Y-38849776D01*
X47614885Y-38849776D01*
X47614885Y-38499776D01*
X47594789Y-38424776D01*
X47539885Y-38369872D01*
X47464885Y-38349776D01*
X47389885Y-38369872D01*
X47334981Y-38424776D01*
X47314885Y-38499776D01*
X47314885Y-38849776D01*
X46829171Y-38849776D01*
X46829171Y-38285490D01*
X46809075Y-38210490D01*
X46754171Y-38155586D01*
X46679171Y-38135490D01*
X46604171Y-38155586D01*
X46549267Y-38210490D01*
X46529171Y-38285490D01*
X46529171Y-38999776D01*
X46314885Y-38999776D01*
X46314885Y-37214061D01*
X46529171Y-37214061D01*
X46535421Y-37237389D01*
X46536869Y-37261495D01*
X46608297Y-37475781D01*
X46627296Y-37504556D01*
X46644534Y-37534413D01*
X46787391Y-37677270D01*
X46808306Y-37689345D01*
X46826375Y-37705368D01*
X46969231Y-37776797D01*
X46985457Y-37780117D01*
X46999934Y-37788154D01*
X47285648Y-37859582D01*
X47304150Y-37859270D01*
X47322028Y-37864061D01*
X47536314Y-37864061D01*
X47554191Y-37859270D01*
X47572694Y-37859582D01*
X47858408Y-37788154D01*
X47872885Y-37780117D01*
X47889110Y-37776797D01*
X48031967Y-37705368D01*
X48050035Y-37689345D01*
X48070951Y-37677270D01*
X48213808Y-37534413D01*
X48231047Y-37504553D01*
X48250044Y-37475781D01*
X48321473Y-37261496D01*
X48322920Y-37237389D01*
X48329171Y-37214061D01*
X48329171Y-36999776D01*
X48320247Y-36966474D01*
X48313335Y-36932694D01*
X48241906Y-36789836D01*
X48190391Y-36731741D01*
X48116729Y-36707187D01*
X48040660Y-36722754D01*
X47982565Y-36774269D01*
X47958011Y-36847931D01*
X47973578Y-36924000D01*
X48029171Y-37035186D01*
X48029171Y-37189718D01*
X47976637Y-37347319D01*
X47876031Y-37447925D01*
X47769671Y-37501106D01*
X47517850Y-37564061D01*
X47340492Y-37564061D01*
X47088670Y-37501105D01*
X46982311Y-37447926D01*
X46881704Y-37347319D01*
X46829171Y-37189720D01*
X46829171Y-37095544D01*
X46881704Y-36937945D01*
X46884160Y-36935490D01*
X47172028Y-36935490D01*
X47172028Y-37071204D01*
X47192124Y-37146204D01*
X47247028Y-37201108D01*
X47322028Y-37221204D01*
X47397028Y-37201108D01*
X47451932Y-37146204D01*
X47472028Y-37071204D01*
X47472028Y-36785490D01*
X47451932Y-36710490D01*
X47397028Y-36655586D01*
X47322028Y-36635490D01*
X46822028Y-36635490D01*
X46802953Y-36640601D01*
X46783205Y-36640601D01*
X46766102Y-36650474D01*
X46747028Y-36655586D01*
X46733063Y-36669550D01*
X46715962Y-36679424D01*
X46644534Y-36750852D01*
X46627296Y-36780708D01*
X46608297Y-36809484D01*
X46536869Y-37023770D01*
X46535421Y-37047875D01*
X46529171Y-37071204D01*
X46529171Y-37214061D01*
X46314885Y-37214061D01*
X46314885Y-36421204D01*
X48543457Y-36421204D01*
X48543457Y-46221203D01*
G37*
D14*
X66502319Y-54400595D02*
X66026128Y-54067262D01*
X66502319Y-53829167D02*
X65502319Y-53829167D01*
X65502319Y-53829167D02*
X65502319Y-54210119D01*
X65502319Y-54210119D02*
X65549938Y-54305357D01*
X65549938Y-54305357D02*
X65597557Y-54352976D01*
X65597557Y-54352976D02*
X65692795Y-54400595D01*
X65692795Y-54400595D02*
X65835652Y-54400595D01*
X65835652Y-54400595D02*
X65930890Y-54352976D01*
X65930890Y-54352976D02*
X65978509Y-54305357D01*
X65978509Y-54305357D02*
X66026128Y-54210119D01*
X66026128Y-54210119D02*
X66026128Y-53829167D01*
X66502319Y-54829167D02*
X65502319Y-54829167D01*
X65502319Y-54829167D02*
X65502319Y-55210119D01*
X65502319Y-55210119D02*
X65549938Y-55305357D01*
X65549938Y-55305357D02*
X65597557Y-55352976D01*
X65597557Y-55352976D02*
X65692795Y-55400595D01*
X65692795Y-55400595D02*
X65835652Y-55400595D01*
X65835652Y-55400595D02*
X65930890Y-55352976D01*
X65930890Y-55352976D02*
X65978509Y-55305357D01*
X65978509Y-55305357D02*
X66026128Y-55210119D01*
X66026128Y-55210119D02*
X66026128Y-54829167D01*
X66502319Y-55829167D02*
X65502319Y-55829167D01*
X65502319Y-55829167D02*
X66216604Y-56162500D01*
X66216604Y-56162500D02*
X65502319Y-56495833D01*
X65502319Y-56495833D02*
X66502319Y-56495833D01*
D15*
X32351503Y-29505038D02*
X32446741Y-29457419D01*
X32446741Y-29457419D02*
X32589598Y-29457419D01*
X32589598Y-29457419D02*
X32732455Y-29505038D01*
X32732455Y-29505038D02*
X32827693Y-29600276D01*
X32827693Y-29600276D02*
X32875312Y-29695514D01*
X32875312Y-29695514D02*
X32922931Y-29885990D01*
X32922931Y-29885990D02*
X32922931Y-30028847D01*
X32922931Y-30028847D02*
X32875312Y-30219323D01*
X32875312Y-30219323D02*
X32827693Y-30314561D01*
X32827693Y-30314561D02*
X32732455Y-30409800D01*
X32732455Y-30409800D02*
X32589598Y-30457419D01*
X32589598Y-30457419D02*
X32494360Y-30457419D01*
X32494360Y-30457419D02*
X32351503Y-30409800D01*
X32351503Y-30409800D02*
X32303884Y-30362180D01*
X32303884Y-30362180D02*
X32303884Y-30028847D01*
X32303884Y-30028847D02*
X32494360Y-30028847D01*
X31875312Y-30457419D02*
X31875312Y-29457419D01*
X31875312Y-29457419D02*
X31303884Y-30457419D01*
X31303884Y-30457419D02*
X31303884Y-29457419D01*
X30827693Y-30457419D02*
X30827693Y-29457419D01*
X30827693Y-29457419D02*
X30589598Y-29457419D01*
X30589598Y-29457419D02*
X30446741Y-29505038D01*
X30446741Y-29505038D02*
X30351503Y-29600276D01*
X30351503Y-29600276D02*
X30303884Y-29695514D01*
X30303884Y-29695514D02*
X30256265Y-29885990D01*
X30256265Y-29885990D02*
X30256265Y-30028847D01*
X30256265Y-30028847D02*
X30303884Y-30219323D01*
X30303884Y-30219323D02*
X30351503Y-30314561D01*
X30351503Y-30314561D02*
X30446741Y-30409800D01*
X30446741Y-30409800D02*
X30589598Y-30457419D01*
X30589598Y-30457419D02*
X30827693Y-30457419D01*
X31959687Y-44124919D02*
X32293020Y-43648728D01*
X32531115Y-44124919D02*
X32531115Y-43124919D01*
X32531115Y-43124919D02*
X32150163Y-43124919D01*
X32150163Y-43124919D02*
X32054925Y-43172538D01*
X32054925Y-43172538D02*
X32007306Y-43220157D01*
X32007306Y-43220157D02*
X31959687Y-43315395D01*
X31959687Y-43315395D02*
X31959687Y-43458252D01*
X31959687Y-43458252D02*
X32007306Y-43553490D01*
X32007306Y-43553490D02*
X32054925Y-43601109D01*
X32054925Y-43601109D02*
X32150163Y-43648728D01*
X32150163Y-43648728D02*
X32531115Y-43648728D01*
X31531115Y-44124919D02*
X31531115Y-43458252D01*
X31531115Y-43124919D02*
X31578734Y-43172538D01*
X31578734Y-43172538D02*
X31531115Y-43220157D01*
X31531115Y-43220157D02*
X31483496Y-43172538D01*
X31483496Y-43172538D02*
X31531115Y-43124919D01*
X31531115Y-43124919D02*
X31531115Y-43220157D01*
X30388258Y-43124919D02*
X29721592Y-43124919D01*
X29721592Y-43124919D02*
X30150163Y-44124919D01*
D12*
X91002359Y-107516678D02*
X90645216Y-108516678D01*
X90645216Y-108516678D02*
X90288073Y-107516678D01*
X89430930Y-107016678D02*
X89288073Y-107016678D01*
X89288073Y-107016678D02*
X89145216Y-107088107D01*
X89145216Y-107088107D02*
X89073788Y-107159535D01*
X89073788Y-107159535D02*
X89002359Y-107302392D01*
X89002359Y-107302392D02*
X88930930Y-107588107D01*
X88930930Y-107588107D02*
X88930930Y-107945250D01*
X88930930Y-107945250D02*
X89002359Y-108230964D01*
X89002359Y-108230964D02*
X89073788Y-108373821D01*
X89073788Y-108373821D02*
X89145216Y-108445250D01*
X89145216Y-108445250D02*
X89288073Y-108516678D01*
X89288073Y-108516678D02*
X89430930Y-108516678D01*
X89430930Y-108516678D02*
X89573788Y-108445250D01*
X89573788Y-108445250D02*
X89645216Y-108373821D01*
X89645216Y-108373821D02*
X89716645Y-108230964D01*
X89716645Y-108230964D02*
X89788073Y-107945250D01*
X89788073Y-107945250D02*
X89788073Y-107588107D01*
X89788073Y-107588107D02*
X89716645Y-107302392D01*
X89716645Y-107302392D02*
X89645216Y-107159535D01*
X89645216Y-107159535D02*
X89573788Y-107088107D01*
X89573788Y-107088107D02*
X89430930Y-107016678D01*
X88288074Y-108373821D02*
X88216645Y-108445250D01*
X88216645Y-108445250D02*
X88288074Y-108516678D01*
X88288074Y-108516678D02*
X88359502Y-108445250D01*
X88359502Y-108445250D02*
X88288074Y-108373821D01*
X88288074Y-108373821D02*
X88288074Y-108516678D01*
X87645216Y-107159535D02*
X87573788Y-107088107D01*
X87573788Y-107088107D02*
X87430931Y-107016678D01*
X87430931Y-107016678D02*
X87073788Y-107016678D01*
X87073788Y-107016678D02*
X86930931Y-107088107D01*
X86930931Y-107088107D02*
X86859502Y-107159535D01*
X86859502Y-107159535D02*
X86788073Y-107302392D01*
X86788073Y-107302392D02*
X86788073Y-107445250D01*
X86788073Y-107445250D02*
X86859502Y-107659535D01*
X86859502Y-107659535D02*
X87716645Y-108516678D01*
X87716645Y-108516678D02*
X86788073Y-108516678D01*
D15*
X32657813Y-49799919D02*
X32991146Y-49323728D01*
X33229241Y-49799919D02*
X33229241Y-48799919D01*
X33229241Y-48799919D02*
X32848289Y-48799919D01*
X32848289Y-48799919D02*
X32753051Y-48847538D01*
X32753051Y-48847538D02*
X32705432Y-48895157D01*
X32705432Y-48895157D02*
X32657813Y-48990395D01*
X32657813Y-48990395D02*
X32657813Y-49133252D01*
X32657813Y-49133252D02*
X32705432Y-49228490D01*
X32705432Y-49228490D02*
X32753051Y-49276109D01*
X32753051Y-49276109D02*
X32848289Y-49323728D01*
X32848289Y-49323728D02*
X33229241Y-49323728D01*
X32086384Y-49799919D02*
X32181622Y-49752300D01*
X32181622Y-49752300D02*
X32229241Y-49704680D01*
X32229241Y-49704680D02*
X32276860Y-49609442D01*
X32276860Y-49609442D02*
X32276860Y-49323728D01*
X32276860Y-49323728D02*
X32229241Y-49228490D01*
X32229241Y-49228490D02*
X32181622Y-49180871D01*
X32181622Y-49180871D02*
X32086384Y-49133252D01*
X32086384Y-49133252D02*
X31943527Y-49133252D01*
X31943527Y-49133252D02*
X31848289Y-49180871D01*
X31848289Y-49180871D02*
X31800670Y-49228490D01*
X31800670Y-49228490D02*
X31753051Y-49323728D01*
X31753051Y-49323728D02*
X31753051Y-49609442D01*
X31753051Y-49609442D02*
X31800670Y-49704680D01*
X31800670Y-49704680D02*
X31848289Y-49752300D01*
X31848289Y-49752300D02*
X31943527Y-49799919D01*
X31943527Y-49799919D02*
X32086384Y-49799919D01*
X30657812Y-48799919D02*
X30038765Y-48799919D01*
X30038765Y-48799919D02*
X30372098Y-49180871D01*
X30372098Y-49180871D02*
X30229241Y-49180871D01*
X30229241Y-49180871D02*
X30134003Y-49228490D01*
X30134003Y-49228490D02*
X30086384Y-49276109D01*
X30086384Y-49276109D02*
X30038765Y-49371347D01*
X30038765Y-49371347D02*
X30038765Y-49609442D01*
X30038765Y-49609442D02*
X30086384Y-49704680D01*
X30086384Y-49704680D02*
X30134003Y-49752300D01*
X30134003Y-49752300D02*
X30229241Y-49799919D01*
X30229241Y-49799919D02*
X30514955Y-49799919D01*
X30514955Y-49799919D02*
X30610193Y-49752300D01*
X30610193Y-49752300D02*
X30657812Y-49704680D01*
D13*
X83998359Y-74322838D02*
X83998359Y-74846648D01*
X83998359Y-74846648D02*
X83474549Y-74899029D01*
X83474549Y-74899029D02*
X83526930Y-74846648D01*
X83526930Y-74846648D02*
X83579311Y-74741886D01*
X83579311Y-74741886D02*
X83579311Y-74479981D01*
X83579311Y-74479981D02*
X83526930Y-74375219D01*
X83526930Y-74375219D02*
X83474549Y-74322838D01*
X83474549Y-74322838D02*
X83369787Y-74270457D01*
X83369787Y-74270457D02*
X83107882Y-74270457D01*
X83107882Y-74270457D02*
X83003120Y-74322838D01*
X83003120Y-74322838D02*
X82950740Y-74375219D01*
X82950740Y-74375219D02*
X82898359Y-74479981D01*
X82898359Y-74479981D02*
X82898359Y-74741886D01*
X82898359Y-74741886D02*
X82950740Y-74846648D01*
X82950740Y-74846648D02*
X83003120Y-74899029D01*
X83998359Y-73956172D02*
X82898359Y-73589505D01*
X82898359Y-73589505D02*
X83998359Y-73222838D01*
X83945978Y-71441886D02*
X83998359Y-71546648D01*
X83998359Y-71546648D02*
X83998359Y-71703791D01*
X83998359Y-71703791D02*
X83945978Y-71860934D01*
X83945978Y-71860934D02*
X83841216Y-71965696D01*
X83841216Y-71965696D02*
X83736454Y-72018077D01*
X83736454Y-72018077D02*
X83526930Y-72070458D01*
X83526930Y-72070458D02*
X83369787Y-72070458D01*
X83369787Y-72070458D02*
X83160263Y-72018077D01*
X83160263Y-72018077D02*
X83055501Y-71965696D01*
X83055501Y-71965696D02*
X82950740Y-71860934D01*
X82950740Y-71860934D02*
X82898359Y-71703791D01*
X82898359Y-71703791D02*
X82898359Y-71599029D01*
X82898359Y-71599029D02*
X82950740Y-71441886D01*
X82950740Y-71441886D02*
X83003120Y-71389505D01*
X83003120Y-71389505D02*
X83369787Y-71389505D01*
X83369787Y-71389505D02*
X83369787Y-71599029D01*
X83003120Y-69451410D02*
X82950740Y-69503791D01*
X82950740Y-69503791D02*
X82898359Y-69660934D01*
X82898359Y-69660934D02*
X82898359Y-69765696D01*
X82898359Y-69765696D02*
X82950740Y-69922839D01*
X82950740Y-69922839D02*
X83055501Y-70027601D01*
X83055501Y-70027601D02*
X83160263Y-70079982D01*
X83160263Y-70079982D02*
X83369787Y-70132363D01*
X83369787Y-70132363D02*
X83526930Y-70132363D01*
X83526930Y-70132363D02*
X83736454Y-70079982D01*
X83736454Y-70079982D02*
X83841216Y-70027601D01*
X83841216Y-70027601D02*
X83945978Y-69922839D01*
X83945978Y-69922839D02*
X83998359Y-69765696D01*
X83998359Y-69765696D02*
X83998359Y-69660934D01*
X83998359Y-69660934D02*
X83945978Y-69503791D01*
X83945978Y-69503791D02*
X83893597Y-69451410D01*
X82898359Y-68979982D02*
X83998359Y-68979982D01*
X82898359Y-68351410D02*
X83526930Y-68822839D01*
X83998359Y-68351410D02*
X83369787Y-68979982D01*
X83003120Y-66413315D02*
X82950740Y-66465696D01*
X82950740Y-66465696D02*
X82898359Y-66622839D01*
X82898359Y-66622839D02*
X82898359Y-66727601D01*
X82898359Y-66727601D02*
X82950740Y-66884744D01*
X82950740Y-66884744D02*
X83055501Y-66989506D01*
X83055501Y-66989506D02*
X83160263Y-67041887D01*
X83160263Y-67041887D02*
X83369787Y-67094268D01*
X83369787Y-67094268D02*
X83526930Y-67094268D01*
X83526930Y-67094268D02*
X83736454Y-67041887D01*
X83736454Y-67041887D02*
X83841216Y-66989506D01*
X83841216Y-66989506D02*
X83945978Y-66884744D01*
X83945978Y-66884744D02*
X83998359Y-66727601D01*
X83998359Y-66727601D02*
X83998359Y-66622839D01*
X83998359Y-66622839D02*
X83945978Y-66465696D01*
X83945978Y-66465696D02*
X83893597Y-66413315D01*
X82950740Y-65994268D02*
X82898359Y-65837125D01*
X82898359Y-65837125D02*
X82898359Y-65575220D01*
X82898359Y-65575220D02*
X82950740Y-65470458D01*
X82950740Y-65470458D02*
X83003120Y-65418077D01*
X83003120Y-65418077D02*
X83107882Y-65365696D01*
X83107882Y-65365696D02*
X83212644Y-65365696D01*
X83212644Y-65365696D02*
X83317406Y-65418077D01*
X83317406Y-65418077D02*
X83369787Y-65470458D01*
X83369787Y-65470458D02*
X83422168Y-65575220D01*
X83422168Y-65575220D02*
X83474549Y-65784744D01*
X83474549Y-65784744D02*
X83526930Y-65889506D01*
X83526930Y-65889506D02*
X83579311Y-65941887D01*
X83579311Y-65941887D02*
X83684073Y-65994268D01*
X83684073Y-65994268D02*
X83788835Y-65994268D01*
X83788835Y-65994268D02*
X83893597Y-65941887D01*
X83893597Y-65941887D02*
X83945978Y-65889506D01*
X83945978Y-65889506D02*
X83998359Y-65784744D01*
X83998359Y-65784744D02*
X83998359Y-65522839D01*
X83998359Y-65522839D02*
X83945978Y-65365696D01*
X82898359Y-64056173D02*
X83998359Y-64056173D01*
X83998359Y-64056173D02*
X83998359Y-63794268D01*
X83998359Y-63794268D02*
X83945978Y-63637125D01*
X83945978Y-63637125D02*
X83841216Y-63532363D01*
X83841216Y-63532363D02*
X83736454Y-63479982D01*
X83736454Y-63479982D02*
X83526930Y-63427601D01*
X83526930Y-63427601D02*
X83369787Y-63427601D01*
X83369787Y-63427601D02*
X83160263Y-63479982D01*
X83160263Y-63479982D02*
X83055501Y-63532363D01*
X83055501Y-63532363D02*
X82950740Y-63637125D01*
X82950740Y-63637125D02*
X82898359Y-63794268D01*
X82898359Y-63794268D02*
X82898359Y-64056173D01*
D15*
X32095789Y-36187419D02*
X32667217Y-36187419D01*
X32381503Y-36187419D02*
X32381503Y-35187419D01*
X32381503Y-35187419D02*
X32476741Y-35330276D01*
X32476741Y-35330276D02*
X32571979Y-35425514D01*
X32571979Y-35425514D02*
X32667217Y-35473133D01*
X31714836Y-35282657D02*
X31667217Y-35235038D01*
X31667217Y-35235038D02*
X31571979Y-35187419D01*
X31571979Y-35187419D02*
X31333884Y-35187419D01*
X31333884Y-35187419D02*
X31238646Y-35235038D01*
X31238646Y-35235038D02*
X31191027Y-35282657D01*
X31191027Y-35282657D02*
X31143408Y-35377895D01*
X31143408Y-35377895D02*
X31143408Y-35473133D01*
X31143408Y-35473133D02*
X31191027Y-35615990D01*
X31191027Y-35615990D02*
X31762455Y-36187419D01*
X31762455Y-36187419D02*
X31143408Y-36187419D01*
X30857693Y-35187419D02*
X30524360Y-36187419D01*
X30524360Y-36187419D02*
X30191027Y-35187419D01*
D13*
X42167042Y-106688478D02*
X42062280Y-106740859D01*
X42062280Y-106740859D02*
X41905137Y-106740859D01*
X41905137Y-106740859D02*
X41747994Y-106688478D01*
X41747994Y-106688478D02*
X41643232Y-106583716D01*
X41643232Y-106583716D02*
X41590851Y-106478954D01*
X41590851Y-106478954D02*
X41538470Y-106269430D01*
X41538470Y-106269430D02*
X41538470Y-106112287D01*
X41538470Y-106112287D02*
X41590851Y-105902763D01*
X41590851Y-105902763D02*
X41643232Y-105798001D01*
X41643232Y-105798001D02*
X41747994Y-105693240D01*
X41747994Y-105693240D02*
X41905137Y-105640859D01*
X41905137Y-105640859D02*
X42009899Y-105640859D01*
X42009899Y-105640859D02*
X42167042Y-105693240D01*
X42167042Y-105693240D02*
X42219423Y-105745620D01*
X42219423Y-105745620D02*
X42219423Y-106112287D01*
X42219423Y-106112287D02*
X42009899Y-106112287D01*
X44052756Y-106740859D02*
X43528946Y-106740859D01*
X43528946Y-106740859D02*
X43476565Y-106217049D01*
X43476565Y-106217049D02*
X43528946Y-106269430D01*
X43528946Y-106269430D02*
X43633708Y-106321811D01*
X43633708Y-106321811D02*
X43895613Y-106321811D01*
X43895613Y-106321811D02*
X44000375Y-106269430D01*
X44000375Y-106269430D02*
X44052756Y-106217049D01*
X44052756Y-106217049D02*
X44105137Y-106112287D01*
X44105137Y-106112287D02*
X44105137Y-105850382D01*
X44105137Y-105850382D02*
X44052756Y-105745620D01*
X44052756Y-105745620D02*
X44000375Y-105693240D01*
X44000375Y-105693240D02*
X43895613Y-105640859D01*
X43895613Y-105640859D02*
X43633708Y-105640859D01*
X43633708Y-105640859D02*
X43528946Y-105693240D01*
X43528946Y-105693240D02*
X43476565Y-105745620D01*
X44419422Y-106740859D02*
X44786089Y-105640859D01*
X44786089Y-105640859D02*
X45152756Y-106740859D01*
X46986089Y-105745620D02*
X46933708Y-105693240D01*
X46933708Y-105693240D02*
X46776565Y-105640859D01*
X46776565Y-105640859D02*
X46671803Y-105640859D01*
X46671803Y-105640859D02*
X46514660Y-105693240D01*
X46514660Y-105693240D02*
X46409898Y-105798001D01*
X46409898Y-105798001D02*
X46357517Y-105902763D01*
X46357517Y-105902763D02*
X46305136Y-106112287D01*
X46305136Y-106112287D02*
X46305136Y-106269430D01*
X46305136Y-106269430D02*
X46357517Y-106478954D01*
X46357517Y-106478954D02*
X46409898Y-106583716D01*
X46409898Y-106583716D02*
X46514660Y-106688478D01*
X46514660Y-106688478D02*
X46671803Y-106740859D01*
X46671803Y-106740859D02*
X46776565Y-106740859D01*
X46776565Y-106740859D02*
X46933708Y-106688478D01*
X46933708Y-106688478D02*
X46986089Y-106636097D01*
X47457517Y-105640859D02*
X47457517Y-106740859D01*
X48086089Y-105640859D02*
X47614660Y-106269430D01*
X48086089Y-106740859D02*
X47457517Y-106112287D01*
X50024184Y-105745620D02*
X49971803Y-105693240D01*
X49971803Y-105693240D02*
X49814660Y-105640859D01*
X49814660Y-105640859D02*
X49709898Y-105640859D01*
X49709898Y-105640859D02*
X49552755Y-105693240D01*
X49552755Y-105693240D02*
X49447993Y-105798001D01*
X49447993Y-105798001D02*
X49395612Y-105902763D01*
X49395612Y-105902763D02*
X49343231Y-106112287D01*
X49343231Y-106112287D02*
X49343231Y-106269430D01*
X49343231Y-106269430D02*
X49395612Y-106478954D01*
X49395612Y-106478954D02*
X49447993Y-106583716D01*
X49447993Y-106583716D02*
X49552755Y-106688478D01*
X49552755Y-106688478D02*
X49709898Y-106740859D01*
X49709898Y-106740859D02*
X49814660Y-106740859D01*
X49814660Y-106740859D02*
X49971803Y-106688478D01*
X49971803Y-106688478D02*
X50024184Y-106636097D01*
X50443231Y-105693240D02*
X50600374Y-105640859D01*
X50600374Y-105640859D02*
X50862279Y-105640859D01*
X50862279Y-105640859D02*
X50967041Y-105693240D01*
X50967041Y-105693240D02*
X51019422Y-105745620D01*
X51019422Y-105745620D02*
X51071803Y-105850382D01*
X51071803Y-105850382D02*
X51071803Y-105955144D01*
X51071803Y-105955144D02*
X51019422Y-106059906D01*
X51019422Y-106059906D02*
X50967041Y-106112287D01*
X50967041Y-106112287D02*
X50862279Y-106164668D01*
X50862279Y-106164668D02*
X50652755Y-106217049D01*
X50652755Y-106217049D02*
X50547993Y-106269430D01*
X50547993Y-106269430D02*
X50495612Y-106321811D01*
X50495612Y-106321811D02*
X50443231Y-106426573D01*
X50443231Y-106426573D02*
X50443231Y-106531335D01*
X50443231Y-106531335D02*
X50495612Y-106636097D01*
X50495612Y-106636097D02*
X50547993Y-106688478D01*
X50547993Y-106688478D02*
X50652755Y-106740859D01*
X50652755Y-106740859D02*
X50914660Y-106740859D01*
X50914660Y-106740859D02*
X51071803Y-106688478D01*
X52381326Y-105640859D02*
X52381326Y-106740859D01*
X52381326Y-106740859D02*
X52643231Y-106740859D01*
X52643231Y-106740859D02*
X52800374Y-106688478D01*
X52800374Y-106688478D02*
X52905136Y-106583716D01*
X52905136Y-106583716D02*
X52957517Y-106478954D01*
X52957517Y-106478954D02*
X53009898Y-106269430D01*
X53009898Y-106269430D02*
X53009898Y-106112287D01*
X53009898Y-106112287D02*
X52957517Y-105902763D01*
X52957517Y-105902763D02*
X52905136Y-105798001D01*
X52905136Y-105798001D02*
X52800374Y-105693240D01*
X52800374Y-105693240D02*
X52643231Y-105640859D01*
X52643231Y-105640859D02*
X52381326Y-105640859D01*
D14*
X68982319Y-38838691D02*
X67982319Y-38838691D01*
X68029938Y-39838690D02*
X67982319Y-39743452D01*
X67982319Y-39743452D02*
X67982319Y-39600595D01*
X67982319Y-39600595D02*
X68029938Y-39457738D01*
X68029938Y-39457738D02*
X68125176Y-39362500D01*
X68125176Y-39362500D02*
X68220414Y-39314881D01*
X68220414Y-39314881D02*
X68410890Y-39267262D01*
X68410890Y-39267262D02*
X68553747Y-39267262D01*
X68553747Y-39267262D02*
X68744223Y-39314881D01*
X68744223Y-39314881D02*
X68839461Y-39362500D01*
X68839461Y-39362500D02*
X68934700Y-39457738D01*
X68934700Y-39457738D02*
X68982319Y-39600595D01*
X68982319Y-39600595D02*
X68982319Y-39695833D01*
X68982319Y-39695833D02*
X68934700Y-39838690D01*
X68934700Y-39838690D02*
X68887080Y-39886309D01*
X68887080Y-39886309D02*
X68553747Y-39886309D01*
X68553747Y-39886309D02*
X68553747Y-39695833D01*
X68982319Y-40314881D02*
X67982319Y-40314881D01*
X67982319Y-40314881D02*
X68982319Y-40886309D01*
X68982319Y-40886309D02*
X67982319Y-40886309D01*
D11*
G36*
X90963777Y-32025535D02*
G01*
X91000781Y-32062539D01*
X91053960Y-32168898D01*
X91116916Y-32420720D01*
X91116916Y-32740936D01*
X91053960Y-32992757D01*
X91000780Y-33099117D01*
X90963777Y-33136121D01*
X90874364Y-33180828D01*
X90802326Y-33180828D01*
X90712913Y-33136122D01*
X90675909Y-33099118D01*
X90622729Y-32992758D01*
X90559773Y-32740934D01*
X90559773Y-32420721D01*
X90622729Y-32168897D01*
X90675909Y-32062538D01*
X90712913Y-32025534D01*
X90802326Y-31980828D01*
X90874363Y-31980828D01*
X90963777Y-32025535D01*
G37*
G36*
X101474060Y-33180828D02*
G01*
X101291260Y-33180828D01*
X101133657Y-33128294D01*
X101033052Y-33027688D01*
X100979871Y-32921328D01*
X100916917Y-32669507D01*
X100916917Y-32492148D01*
X100979871Y-32240327D01*
X101033052Y-32133967D01*
X101133658Y-32033361D01*
X101291260Y-31980828D01*
X101474060Y-31980828D01*
X101474060Y-33180828D01*
G37*
G36*
X98535206Y-29610535D02*
G01*
X98631472Y-29706801D01*
X98688345Y-29934291D01*
X98688345Y-30397364D01*
X98631472Y-30624854D01*
X98535206Y-30721121D01*
X98445793Y-30765828D01*
X98230898Y-30765828D01*
X98141485Y-30721121D01*
X98045218Y-30624854D01*
X97988345Y-30397362D01*
X97988345Y-29934293D01*
X98045218Y-29706801D01*
X98141485Y-29610534D01*
X98230898Y-29565828D01*
X98445792Y-29565828D01*
X98535206Y-29610535D01*
G37*
G36*
X103045489Y-30765828D02*
G01*
X102862689Y-30765828D01*
X102705086Y-30713294D01*
X102604481Y-30612688D01*
X102551300Y-30506328D01*
X102488346Y-30254507D01*
X102488346Y-30077148D01*
X102551300Y-29825327D01*
X102604481Y-29718967D01*
X102705087Y-29618361D01*
X102862689Y-29565828D01*
X103045489Y-29565828D01*
X103045489Y-30765828D01*
G37*
G36*
X103559775Y-33695114D02*
G01*
X87902630Y-33695114D01*
X87902630Y-33330828D01*
X88116916Y-33330828D01*
X88137012Y-33405828D01*
X88191916Y-33460732D01*
X88266916Y-33480828D01*
X89195488Y-33480828D01*
X89214563Y-33475717D01*
X89234311Y-33475717D01*
X89251413Y-33465843D01*
X89270488Y-33460732D01*
X89284452Y-33446767D01*
X89301554Y-33436894D01*
X89311427Y-33419792D01*
X89325392Y-33405828D01*
X89330503Y-33386753D01*
X89340377Y-33369651D01*
X89340377Y-33349902D01*
X89345488Y-33330828D01*
X89340377Y-33311753D01*
X89340377Y-33298224D01*
X89550599Y-33298224D01*
X89569424Y-33330828D01*
X89589421Y-33365465D01*
X89589423Y-33365467D01*
X89660852Y-33436895D01*
X89677953Y-33446768D01*
X89691917Y-33460732D01*
X89710991Y-33465843D01*
X89728094Y-33475717D01*
X89728095Y-33475717D01*
X89747842Y-33475717D01*
X89766917Y-33480828D01*
X89785992Y-33475717D01*
X89805741Y-33475717D01*
X89822843Y-33465842D01*
X89841917Y-33460732D01*
X89855881Y-33446767D01*
X89858683Y-33445150D01*
X89872983Y-33436894D01*
X89944411Y-33365466D01*
X89964409Y-33330828D01*
X89983234Y-33298224D01*
X89983234Y-33220578D01*
X89983234Y-33220577D01*
X89944411Y-33153334D01*
X89872984Y-33081906D01*
X89872983Y-33081905D01*
X89855881Y-33072031D01*
X89841917Y-33058067D01*
X89822843Y-33052956D01*
X89805741Y-33043082D01*
X89805740Y-33043082D01*
X89785992Y-33043082D01*
X89766917Y-33037971D01*
X89747842Y-33043082D01*
X89728094Y-33043082D01*
X89710991Y-33052955D01*
X89691917Y-33058067D01*
X89677953Y-33072030D01*
X89660852Y-33081904D01*
X89660851Y-33081904D01*
X89660851Y-33081905D01*
X89589422Y-33153334D01*
X89550599Y-33220577D01*
X89550599Y-33220578D01*
X89550599Y-33298224D01*
X89340377Y-33298224D01*
X89340377Y-33292005D01*
X89330503Y-33274902D01*
X89325392Y-33255828D01*
X89311427Y-33241863D01*
X89301554Y-33224762D01*
X88836192Y-32759400D01*
X90259773Y-32759400D01*
X90264563Y-32777276D01*
X90264252Y-32795781D01*
X90335681Y-33081494D01*
X90343717Y-33095971D01*
X90347038Y-33112196D01*
X90418467Y-33255053D01*
X90434489Y-33273121D01*
X90446564Y-33294036D01*
X90517992Y-33365465D01*
X90538907Y-33377540D01*
X90556977Y-33393564D01*
X90699835Y-33464992D01*
X90733610Y-33471903D01*
X90766916Y-33480828D01*
X90909773Y-33480828D01*
X90943078Y-33471903D01*
X90976854Y-33464992D01*
X91119713Y-33393564D01*
X91137782Y-33377540D01*
X91158698Y-33365465D01*
X91230126Y-33294036D01*
X91242200Y-33273121D01*
X91258223Y-33255053D01*
X91329652Y-33112197D01*
X91332972Y-33095970D01*
X91341009Y-33081494D01*
X91412437Y-32795780D01*
X91412125Y-32777277D01*
X91416916Y-32759400D01*
X91416916Y-32402257D01*
X91412125Y-32384379D01*
X91412437Y-32365877D01*
X91396940Y-32303889D01*
X91619355Y-32303889D01*
X91625655Y-32381278D01*
X91982798Y-33381278D01*
X91998165Y-33403510D01*
X92009737Y-33427939D01*
X92019913Y-33434973D01*
X92026948Y-33445150D01*
X92051376Y-33456721D01*
X92073609Y-33472089D01*
X92085938Y-33473092D01*
X92097120Y-33478389D01*
X92124058Y-33476195D01*
X92150998Y-33478389D01*
X92162179Y-33473092D01*
X92174509Y-33472089D01*
X92196741Y-33456721D01*
X92221170Y-33445150D01*
X92228204Y-33434973D01*
X92238381Y-33427939D01*
X92249952Y-33403510D01*
X92265320Y-33381278D01*
X92385379Y-33045114D01*
X94045488Y-33045114D01*
X94054411Y-33078417D01*
X94061324Y-33112196D01*
X94132752Y-33255053D01*
X94148775Y-33273122D01*
X94160850Y-33294037D01*
X94232279Y-33365466D01*
X94253193Y-33377540D01*
X94271263Y-33393564D01*
X94414121Y-33464992D01*
X94447896Y-33471903D01*
X94481202Y-33480828D01*
X94766916Y-33480828D01*
X94800221Y-33471903D01*
X94833997Y-33464992D01*
X94976856Y-33393564D01*
X94994925Y-33377540D01*
X95015841Y-33365465D01*
X95087269Y-33294036D01*
X95099343Y-33273121D01*
X95115366Y-33255053D01*
X95129496Y-33226793D01*
X95550599Y-33226793D01*
X95589421Y-33294036D01*
X95660849Y-33365465D01*
X95690706Y-33382703D01*
X95719482Y-33401703D01*
X95933768Y-33473131D01*
X95957876Y-33474578D01*
X95981202Y-33480828D01*
X96124059Y-33480828D01*
X96147384Y-33474578D01*
X96171493Y-33473131D01*
X96385779Y-33401703D01*
X96414554Y-33382703D01*
X96444411Y-33365466D01*
X96479049Y-33330828D01*
X97116917Y-33330828D01*
X97137013Y-33405828D01*
X97191917Y-33460732D01*
X97266917Y-33480828D01*
X97341917Y-33460732D01*
X97396821Y-33405828D01*
X97416917Y-33330828D01*
X97416917Y-32506961D01*
X97630990Y-32965690D01*
X97639497Y-32975822D01*
X97644019Y-32988257D01*
X97664074Y-33005095D01*
X97680917Y-33025156D01*
X97693353Y-33029678D01*
X97703484Y-33038184D01*
X97729268Y-33042738D01*
X97753888Y-33051691D01*
X97766919Y-33049389D01*
X97779946Y-33051690D01*
X97804554Y-33042741D01*
X97830350Y-33038185D01*
X97840484Y-33029675D01*
X97852917Y-33025155D01*
X97869754Y-33005100D01*
X97889815Y-32988258D01*
X97894337Y-32975821D01*
X97902844Y-32965690D01*
X98116917Y-32506962D01*
X98116917Y-33330828D01*
X98137013Y-33405828D01*
X98191917Y-33460732D01*
X98266917Y-33480828D01*
X98341917Y-33460732D01*
X98396821Y-33405828D01*
X98416917Y-33330828D01*
X98416917Y-32759400D01*
X98831203Y-32759400D01*
X98851299Y-32834400D01*
X98906203Y-32889304D01*
X98981203Y-32909400D01*
X100124060Y-32909400D01*
X100199060Y-32889304D01*
X100253964Y-32834400D01*
X100274060Y-32759400D01*
X100254921Y-32687971D01*
X100616917Y-32687971D01*
X100621707Y-32705848D01*
X100621396Y-32724351D01*
X100692824Y-33010065D01*
X100700860Y-33024542D01*
X100704181Y-33040767D01*
X100775610Y-33183624D01*
X100791632Y-33201693D01*
X100803708Y-33222608D01*
X100946565Y-33365466D01*
X100976424Y-33382705D01*
X101005197Y-33401703D01*
X101219483Y-33473131D01*
X101243591Y-33474578D01*
X101266917Y-33480828D01*
X101624060Y-33480828D01*
X101699060Y-33460732D01*
X101753964Y-33405828D01*
X101774060Y-33330828D01*
X102188346Y-33330828D01*
X102208442Y-33405828D01*
X102263346Y-33460732D01*
X102338346Y-33480828D01*
X102413346Y-33460732D01*
X102468250Y-33405828D01*
X102488346Y-33330828D01*
X102488346Y-32695114D01*
X103045489Y-32695114D01*
X103045489Y-33330828D01*
X103065585Y-33405828D01*
X103120489Y-33460732D01*
X103195489Y-33480828D01*
X103270489Y-33460732D01*
X103325393Y-33405828D01*
X103345489Y-33330828D01*
X103345489Y-31830828D01*
X103325393Y-31755828D01*
X103270489Y-31700924D01*
X103195489Y-31680828D01*
X103120489Y-31700924D01*
X103065585Y-31755828D01*
X103045489Y-31830828D01*
X103045489Y-32395114D01*
X102488346Y-32395114D01*
X102488346Y-31830828D01*
X102468250Y-31755828D01*
X102413346Y-31700924D01*
X102338346Y-31680828D01*
X102263346Y-31700924D01*
X102208442Y-31755828D01*
X102188346Y-31830828D01*
X102188346Y-33330828D01*
X101774060Y-33330828D01*
X101774060Y-31830828D01*
X101753964Y-31755828D01*
X101699060Y-31700924D01*
X101624060Y-31680828D01*
X101266917Y-31680828D01*
X101243588Y-31687078D01*
X101219482Y-31688526D01*
X101005197Y-31759955D01*
X100976424Y-31778951D01*
X100946565Y-31796191D01*
X100803708Y-31939048D01*
X100791632Y-31959963D01*
X100775610Y-31978032D01*
X100704181Y-32120889D01*
X100700860Y-32137113D01*
X100692824Y-32151591D01*
X100621396Y-32437305D01*
X100621707Y-32455807D01*
X100616917Y-32473685D01*
X100616917Y-32687971D01*
X100254921Y-32687971D01*
X100253964Y-32684400D01*
X100199060Y-32629496D01*
X100124060Y-32609400D01*
X98981203Y-32609400D01*
X98906203Y-32629496D01*
X98851299Y-32684400D01*
X98831203Y-32759400D01*
X98416917Y-32759400D01*
X98416917Y-31830828D01*
X98415188Y-31824375D01*
X98416350Y-31817798D01*
X98405237Y-31787237D01*
X98396821Y-31755828D01*
X98392097Y-31751104D01*
X98389815Y-31744827D01*
X98364908Y-31723915D01*
X98341917Y-31700924D01*
X98335466Y-31699195D01*
X98330350Y-31694900D01*
X98298319Y-31689242D01*
X98266917Y-31680828D01*
X98260467Y-31682556D01*
X98253888Y-31681394D01*
X98223320Y-31692509D01*
X98191917Y-31700924D01*
X98187194Y-31705646D01*
X98180917Y-31707929D01*
X98160007Y-31732833D01*
X98137013Y-31755828D01*
X98135284Y-31762280D01*
X98130990Y-31767395D01*
X97766917Y-32547551D01*
X97402844Y-31767395D01*
X97398549Y-31762280D01*
X97396821Y-31755828D01*
X97373823Y-31732830D01*
X97352917Y-31707930D01*
X97346640Y-31705647D01*
X97341917Y-31700924D01*
X97310503Y-31692506D01*
X97279946Y-31681395D01*
X97273368Y-31682556D01*
X97266917Y-31680828D01*
X97235503Y-31689245D01*
X97203484Y-31694901D01*
X97198369Y-31699195D01*
X97191917Y-31700924D01*
X97168919Y-31723921D01*
X97144019Y-31744828D01*
X97141736Y-31751104D01*
X97137013Y-31755828D01*
X97128595Y-31787241D01*
X97117484Y-31817799D01*
X97118645Y-31824376D01*
X97116917Y-31830828D01*
X97116917Y-33330828D01*
X96479049Y-33330828D01*
X96587268Y-33222608D01*
X96599343Y-33201693D01*
X96615366Y-33183624D01*
X96686795Y-33040768D01*
X96690115Y-33024541D01*
X96698152Y-33010065D01*
X96769580Y-32724351D01*
X96769268Y-32705848D01*
X96774059Y-32687971D01*
X96774059Y-32473685D01*
X96769268Y-32455807D01*
X96769580Y-32437305D01*
X96698152Y-32151591D01*
X96690115Y-32137114D01*
X96686795Y-32120888D01*
X96615366Y-31978032D01*
X96599343Y-31959963D01*
X96587268Y-31939048D01*
X96444411Y-31796191D01*
X96414554Y-31778953D01*
X96385779Y-31759954D01*
X96171493Y-31688526D01*
X96147387Y-31687078D01*
X96124059Y-31680828D01*
X95981202Y-31680828D01*
X95957873Y-31687078D01*
X95933767Y-31688526D01*
X95719482Y-31759955D01*
X95690709Y-31778951D01*
X95660850Y-31796191D01*
X95589422Y-31867619D01*
X95550599Y-31934862D01*
X95550599Y-32012508D01*
X95589422Y-32079751D01*
X95656665Y-32118574D01*
X95734311Y-32118574D01*
X95801554Y-32079751D01*
X95847943Y-32033361D01*
X96005545Y-31980828D01*
X96099719Y-31980828D01*
X96257317Y-32033361D01*
X96357924Y-32133968D01*
X96411103Y-32240327D01*
X96474059Y-32492148D01*
X96474059Y-32669507D01*
X96411103Y-32921328D01*
X96357924Y-33027688D01*
X96257318Y-33128294D01*
X96099716Y-33180828D01*
X96005545Y-33180828D01*
X95847942Y-33128294D01*
X95801555Y-33081906D01*
X95734312Y-33043082D01*
X95656666Y-33043082D01*
X95589423Y-33081904D01*
X95550599Y-33149147D01*
X95550599Y-33226793D01*
X95129496Y-33226793D01*
X95186795Y-33112197D01*
X95193708Y-33078414D01*
X95202631Y-33045114D01*
X95202631Y-31830828D01*
X95182535Y-31755828D01*
X95127631Y-31700924D01*
X95052631Y-31680828D01*
X94977631Y-31700924D01*
X94922727Y-31755828D01*
X94902631Y-31830828D01*
X94902631Y-33009703D01*
X94857923Y-33099117D01*
X94820920Y-33136121D01*
X94731507Y-33180828D01*
X94516612Y-33180828D01*
X94427198Y-33136121D01*
X94390193Y-33099116D01*
X94345488Y-33009704D01*
X94345488Y-31830828D01*
X94325392Y-31755828D01*
X94270488Y-31700924D01*
X94195488Y-31680828D01*
X94120488Y-31700924D01*
X94065584Y-31755828D01*
X94045488Y-31830828D01*
X94045488Y-33045114D01*
X92385379Y-33045114D01*
X92622463Y-32381279D01*
X92628763Y-32303889D01*
X92595524Y-32233717D01*
X92531652Y-32189567D01*
X92454263Y-32183267D01*
X92384091Y-32216506D01*
X92339941Y-32280378D01*
X92124059Y-32884847D01*
X91908177Y-32280378D01*
X91864027Y-32216506D01*
X91793855Y-32183267D01*
X91716466Y-32189567D01*
X91652594Y-32233717D01*
X91619355Y-32303889D01*
X91396940Y-32303889D01*
X91341009Y-32080162D01*
X91332972Y-32065685D01*
X91329652Y-32049459D01*
X91258223Y-31906603D01*
X91242200Y-31888534D01*
X91230125Y-31867619D01*
X91158697Y-31796191D01*
X91137782Y-31784116D01*
X91119713Y-31768093D01*
X90976855Y-31696664D01*
X90943074Y-31689751D01*
X90909773Y-31680828D01*
X90766916Y-31680828D01*
X90733615Y-31689750D01*
X90699833Y-31696664D01*
X90556977Y-31768093D01*
X90538908Y-31784115D01*
X90517993Y-31796191D01*
X90446565Y-31867619D01*
X90434489Y-31888534D01*
X90418467Y-31906603D01*
X90347038Y-32049460D01*
X90343717Y-32065684D01*
X90335681Y-32080162D01*
X90264252Y-32365877D01*
X90264563Y-32384380D01*
X90259773Y-32402257D01*
X90259773Y-32759400D01*
X88836192Y-32759400D01*
X88469449Y-32392657D01*
X88416916Y-32235058D01*
X88416916Y-32151952D01*
X88461623Y-32062538D01*
X88498627Y-32025535D01*
X88588041Y-31980828D01*
X88874364Y-31980828D01*
X88963777Y-32025535D01*
X89017993Y-32079751D01*
X89085236Y-32118574D01*
X89162882Y-32118574D01*
X89230125Y-32079751D01*
X89268948Y-32012508D01*
X89268948Y-31934862D01*
X89230125Y-31867619D01*
X89158697Y-31796191D01*
X89137781Y-31784115D01*
X89119713Y-31768093D01*
X88976856Y-31696664D01*
X88943075Y-31689751D01*
X88909774Y-31680828D01*
X88552631Y-31680828D01*
X88519330Y-31689750D01*
X88485548Y-31696664D01*
X88342692Y-31768093D01*
X88324623Y-31784115D01*
X88303709Y-31796190D01*
X88232280Y-31867618D01*
X88220203Y-31888534D01*
X88204181Y-31906603D01*
X88132752Y-32049460D01*
X88125839Y-32083240D01*
X88116916Y-32116542D01*
X88116916Y-32259400D01*
X88123166Y-32282728D01*
X88124614Y-32306835D01*
X88196043Y-32521119D01*
X88215034Y-32549882D01*
X88232279Y-32579751D01*
X88833356Y-33180828D01*
X88266916Y-33180828D01*
X88191916Y-33200924D01*
X88137012Y-33255828D01*
X88116916Y-33330828D01*
X87902630Y-33330828D01*
X87902630Y-30897886D01*
X94975136Y-30897886D01*
X94986117Y-30974751D01*
X95034059Y-31035828D01*
X95106117Y-31064751D01*
X95182982Y-31053770D01*
X95244059Y-31005828D01*
X95783145Y-30287046D01*
X95831202Y-30335103D01*
X95831202Y-30915828D01*
X95851298Y-30990828D01*
X95906202Y-31045732D01*
X95981202Y-31065828D01*
X96056202Y-31045732D01*
X96111106Y-30990828D01*
X96131202Y-30915828D01*
X96331202Y-30915828D01*
X96351298Y-30990828D01*
X96406202Y-31045732D01*
X96481202Y-31065828D01*
X97195488Y-31065828D01*
X97270488Y-31045732D01*
X97325392Y-30990828D01*
X97345488Y-30915828D01*
X97345488Y-30415828D01*
X97688345Y-30415828D01*
X97693135Y-30433704D01*
X97692824Y-30452209D01*
X97764253Y-30737922D01*
X97764885Y-30739060D01*
X97764885Y-30740364D01*
X97783689Y-30772934D01*
X97801939Y-30805809D01*
X97803056Y-30806479D01*
X97803708Y-30807608D01*
X97946565Y-30950466D01*
X97967479Y-30962541D01*
X97985549Y-30978564D01*
X98128407Y-31049992D01*
X98162182Y-31056903D01*
X98195488Y-31065828D01*
X98481202Y-31065828D01*
X98514507Y-31056903D01*
X98548283Y-31049992D01*
X98691142Y-30978564D01*
X98709211Y-30962540D01*
X98730126Y-30950466D01*
X98764764Y-30915828D01*
X99331203Y-30915828D01*
X99331292Y-30916160D01*
X99331204Y-30916496D01*
X99341358Y-30953727D01*
X99351299Y-30990828D01*
X99351542Y-30991071D01*
X99351634Y-30991406D01*
X99378982Y-31018511D01*
X99406203Y-31045732D01*
X99406537Y-31045821D01*
X99406782Y-31046064D01*
X99443997Y-31055858D01*
X99481203Y-31065828D01*
X99481535Y-31065738D01*
X99481871Y-31065827D01*
X99519102Y-31055672D01*
X99556203Y-31045732D01*
X99556446Y-31045488D01*
X99556781Y-31045397D01*
X99583886Y-31018048D01*
X99611107Y-30990828D01*
X99611196Y-30990493D01*
X99611439Y-30990249D01*
X100188346Y-29980663D01*
X100188346Y-30915828D01*
X100208442Y-30990828D01*
X100263346Y-31045732D01*
X100338346Y-31065828D01*
X100413346Y-31045732D01*
X100468250Y-30990828D01*
X100488346Y-30915828D01*
X100831203Y-30915828D01*
X100851299Y-30990828D01*
X100906203Y-31045732D01*
X100981203Y-31065828D01*
X101695489Y-31065828D01*
X101770489Y-31045732D01*
X101825393Y-30990828D01*
X101845489Y-30915828D01*
X101845489Y-30272971D01*
X102188346Y-30272971D01*
X102193136Y-30290848D01*
X102192825Y-30309351D01*
X102264253Y-30595065D01*
X102272289Y-30609542D01*
X102275610Y-30625767D01*
X102347039Y-30768624D01*
X102363061Y-30786693D01*
X102375137Y-30807608D01*
X102517994Y-30950466D01*
X102547853Y-30967705D01*
X102576626Y-30986703D01*
X102790912Y-31058131D01*
X102815020Y-31059578D01*
X102838346Y-31065828D01*
X103195489Y-31065828D01*
X103270489Y-31045732D01*
X103325393Y-30990828D01*
X103345489Y-30915828D01*
X103345489Y-29415828D01*
X103325393Y-29340828D01*
X103270489Y-29285924D01*
X103195489Y-29265828D01*
X102838346Y-29265828D01*
X102815017Y-29272078D01*
X102790911Y-29273526D01*
X102576626Y-29344955D01*
X102547853Y-29363951D01*
X102517994Y-29381191D01*
X102375137Y-29524048D01*
X102363061Y-29544963D01*
X102347039Y-29563032D01*
X102275610Y-29705889D01*
X102272289Y-29722113D01*
X102264253Y-29736591D01*
X102192825Y-30022305D01*
X102193136Y-30040807D01*
X102188346Y-30058685D01*
X102188346Y-30272971D01*
X101845489Y-30272971D01*
X101845489Y-29415828D01*
X101825393Y-29340828D01*
X101770489Y-29285924D01*
X101695489Y-29265828D01*
X100981203Y-29265828D01*
X100906203Y-29285924D01*
X100851299Y-29340828D01*
X100831203Y-29415828D01*
X100851299Y-29490828D01*
X100906203Y-29545732D01*
X100981203Y-29565828D01*
X101545489Y-29565828D01*
X101545489Y-29980114D01*
X101195489Y-29980114D01*
X101120489Y-30000210D01*
X101065585Y-30055114D01*
X101045489Y-30130114D01*
X101065585Y-30205114D01*
X101120489Y-30260018D01*
X101195489Y-30280114D01*
X101545489Y-30280114D01*
X101545489Y-30765828D01*
X100981203Y-30765828D01*
X100906203Y-30785924D01*
X100851299Y-30840828D01*
X100831203Y-30915828D01*
X100488346Y-30915828D01*
X100488346Y-29415828D01*
X100488256Y-29415495D01*
X100488345Y-29415160D01*
X100478190Y-29377928D01*
X100468250Y-29340828D01*
X100468006Y-29340584D01*
X100467915Y-29340250D01*
X100440510Y-29313088D01*
X100413346Y-29285924D01*
X100413012Y-29285834D01*
X100412767Y-29285591D01*
X100375445Y-29275768D01*
X100338346Y-29265828D01*
X100338013Y-29265917D01*
X100337678Y-29265829D01*
X100300446Y-29275983D01*
X100263346Y-29285924D01*
X100263102Y-29286167D01*
X100262768Y-29286259D01*
X100235662Y-29313607D01*
X100208442Y-29340828D01*
X100208352Y-29341162D01*
X100208110Y-29341407D01*
X99631203Y-30350994D01*
X99631203Y-29415828D01*
X99611107Y-29340828D01*
X99556203Y-29285924D01*
X99481203Y-29265828D01*
X99406203Y-29285924D01*
X99351299Y-29340828D01*
X99331203Y-29415828D01*
X99331203Y-30915828D01*
X98764764Y-30915828D01*
X98872983Y-30807608D01*
X98873634Y-30806479D01*
X98874752Y-30805809D01*
X98893001Y-30772934D01*
X98911806Y-30740364D01*
X98911806Y-30739060D01*
X98912438Y-30737922D01*
X98983866Y-30452208D01*
X98983554Y-30433705D01*
X98988345Y-30415828D01*
X98988345Y-29915828D01*
X98983554Y-29897950D01*
X98983866Y-29879448D01*
X98912438Y-29593734D01*
X98911805Y-29592595D01*
X98911806Y-29591291D01*
X98892993Y-29558707D01*
X98874752Y-29525847D01*
X98873634Y-29525176D01*
X98872983Y-29524048D01*
X98730126Y-29381191D01*
X98709211Y-29369116D01*
X98691142Y-29353093D01*
X98548284Y-29281664D01*
X98514503Y-29274751D01*
X98481202Y-29265828D01*
X98195488Y-29265828D01*
X98162187Y-29274750D01*
X98128405Y-29281664D01*
X97985549Y-29353093D01*
X97967480Y-29369115D01*
X97946565Y-29381191D01*
X97803708Y-29524048D01*
X97803056Y-29525176D01*
X97801939Y-29525847D01*
X97783697Y-29558707D01*
X97764885Y-29591291D01*
X97764885Y-29592595D01*
X97764253Y-29593734D01*
X97692824Y-29879447D01*
X97693135Y-29897951D01*
X97688345Y-29915828D01*
X97688345Y-30415828D01*
X97345488Y-30415828D01*
X97345488Y-29415828D01*
X97325392Y-29340828D01*
X97270488Y-29285924D01*
X97195488Y-29265828D01*
X97120488Y-29285924D01*
X97065584Y-29340828D01*
X97045488Y-29415828D01*
X97045488Y-30765828D01*
X96481202Y-30765828D01*
X96406202Y-30785924D01*
X96351298Y-30840828D01*
X96331202Y-30915828D01*
X96131202Y-30915828D01*
X96131202Y-29415828D01*
X96111106Y-29340828D01*
X96056202Y-29285924D01*
X95981202Y-29265828D01*
X95906202Y-29285924D01*
X95851298Y-29340828D01*
X95831202Y-29415828D01*
X95831202Y-29910839D01*
X95230125Y-29309762D01*
X95162882Y-29270939D01*
X95085236Y-29270939D01*
X95017993Y-29309762D01*
X94979170Y-29377005D01*
X94979170Y-29454651D01*
X95017993Y-29521894D01*
X95568859Y-30072760D01*
X95004059Y-30825828D01*
X94975136Y-30897886D01*
X87902630Y-30897886D01*
X87902630Y-29051542D01*
X103559775Y-29051542D01*
X103559775Y-33695114D01*
G37*
D13*
X58537042Y-106688478D02*
X58432280Y-106740859D01*
X58432280Y-106740859D02*
X58275137Y-106740859D01*
X58275137Y-106740859D02*
X58117994Y-106688478D01*
X58117994Y-106688478D02*
X58013232Y-106583716D01*
X58013232Y-106583716D02*
X57960851Y-106478954D01*
X57960851Y-106478954D02*
X57908470Y-106269430D01*
X57908470Y-106269430D02*
X57908470Y-106112287D01*
X57908470Y-106112287D02*
X57960851Y-105902763D01*
X57960851Y-105902763D02*
X58013232Y-105798001D01*
X58013232Y-105798001D02*
X58117994Y-105693240D01*
X58117994Y-105693240D02*
X58275137Y-105640859D01*
X58275137Y-105640859D02*
X58379899Y-105640859D01*
X58379899Y-105640859D02*
X58537042Y-105693240D01*
X58537042Y-105693240D02*
X58589423Y-105745620D01*
X58589423Y-105745620D02*
X58589423Y-106112287D01*
X58589423Y-106112287D02*
X58379899Y-106112287D01*
X60422756Y-106740859D02*
X59898946Y-106740859D01*
X59898946Y-106740859D02*
X59846565Y-106217049D01*
X59846565Y-106217049D02*
X59898946Y-106269430D01*
X59898946Y-106269430D02*
X60003708Y-106321811D01*
X60003708Y-106321811D02*
X60265613Y-106321811D01*
X60265613Y-106321811D02*
X60370375Y-106269430D01*
X60370375Y-106269430D02*
X60422756Y-106217049D01*
X60422756Y-106217049D02*
X60475137Y-106112287D01*
X60475137Y-106112287D02*
X60475137Y-105850382D01*
X60475137Y-105850382D02*
X60422756Y-105745620D01*
X60422756Y-105745620D02*
X60370375Y-105693240D01*
X60370375Y-105693240D02*
X60265613Y-105640859D01*
X60265613Y-105640859D02*
X60003708Y-105640859D01*
X60003708Y-105640859D02*
X59898946Y-105693240D01*
X59898946Y-105693240D02*
X59846565Y-105745620D01*
X60789422Y-106740859D02*
X61156089Y-105640859D01*
X61156089Y-105640859D02*
X61522756Y-106740859D01*
X63356089Y-105745620D02*
X63303708Y-105693240D01*
X63303708Y-105693240D02*
X63146565Y-105640859D01*
X63146565Y-105640859D02*
X63041803Y-105640859D01*
X63041803Y-105640859D02*
X62884660Y-105693240D01*
X62884660Y-105693240D02*
X62779898Y-105798001D01*
X62779898Y-105798001D02*
X62727517Y-105902763D01*
X62727517Y-105902763D02*
X62675136Y-106112287D01*
X62675136Y-106112287D02*
X62675136Y-106269430D01*
X62675136Y-106269430D02*
X62727517Y-106478954D01*
X62727517Y-106478954D02*
X62779898Y-106583716D01*
X62779898Y-106583716D02*
X62884660Y-106688478D01*
X62884660Y-106688478D02*
X63041803Y-106740859D01*
X63041803Y-106740859D02*
X63146565Y-106740859D01*
X63146565Y-106740859D02*
X63303708Y-106688478D01*
X63303708Y-106688478D02*
X63356089Y-106636097D01*
X63827517Y-105640859D02*
X63827517Y-106740859D01*
X64456089Y-105640859D02*
X63984660Y-106269430D01*
X64456089Y-106740859D02*
X63827517Y-106112287D01*
X66394184Y-105745620D02*
X66341803Y-105693240D01*
X66341803Y-105693240D02*
X66184660Y-105640859D01*
X66184660Y-105640859D02*
X66079898Y-105640859D01*
X66079898Y-105640859D02*
X65922755Y-105693240D01*
X65922755Y-105693240D02*
X65817993Y-105798001D01*
X65817993Y-105798001D02*
X65765612Y-105902763D01*
X65765612Y-105902763D02*
X65713231Y-106112287D01*
X65713231Y-106112287D02*
X65713231Y-106269430D01*
X65713231Y-106269430D02*
X65765612Y-106478954D01*
X65765612Y-106478954D02*
X65817993Y-106583716D01*
X65817993Y-106583716D02*
X65922755Y-106688478D01*
X65922755Y-106688478D02*
X66079898Y-106740859D01*
X66079898Y-106740859D02*
X66184660Y-106740859D01*
X66184660Y-106740859D02*
X66341803Y-106688478D01*
X66341803Y-106688478D02*
X66394184Y-106636097D01*
X66813231Y-105693240D02*
X66970374Y-105640859D01*
X66970374Y-105640859D02*
X67232279Y-105640859D01*
X67232279Y-105640859D02*
X67337041Y-105693240D01*
X67337041Y-105693240D02*
X67389422Y-105745620D01*
X67389422Y-105745620D02*
X67441803Y-105850382D01*
X67441803Y-105850382D02*
X67441803Y-105955144D01*
X67441803Y-105955144D02*
X67389422Y-106059906D01*
X67389422Y-106059906D02*
X67337041Y-106112287D01*
X67337041Y-106112287D02*
X67232279Y-106164668D01*
X67232279Y-106164668D02*
X67022755Y-106217049D01*
X67022755Y-106217049D02*
X66917993Y-106269430D01*
X66917993Y-106269430D02*
X66865612Y-106321811D01*
X66865612Y-106321811D02*
X66813231Y-106426573D01*
X66813231Y-106426573D02*
X66813231Y-106531335D01*
X66813231Y-106531335D02*
X66865612Y-106636097D01*
X66865612Y-106636097D02*
X66917993Y-106688478D01*
X66917993Y-106688478D02*
X67022755Y-106740859D01*
X67022755Y-106740859D02*
X67284660Y-106740859D01*
X67284660Y-106740859D02*
X67441803Y-106688478D01*
X68751326Y-105640859D02*
X68751326Y-106740859D01*
X68751326Y-106740859D02*
X69013231Y-106740859D01*
X69013231Y-106740859D02*
X69170374Y-106688478D01*
X69170374Y-106688478D02*
X69275136Y-106583716D01*
X69275136Y-106583716D02*
X69327517Y-106478954D01*
X69327517Y-106478954D02*
X69379898Y-106269430D01*
X69379898Y-106269430D02*
X69379898Y-106112287D01*
X69379898Y-106112287D02*
X69327517Y-105902763D01*
X69327517Y-105902763D02*
X69275136Y-105798001D01*
X69275136Y-105798001D02*
X69170374Y-105693240D01*
X69170374Y-105693240D02*
X69013231Y-105640859D01*
X69013231Y-105640859D02*
X68751326Y-105640859D01*
D15*
X32565075Y-55444919D02*
X33041265Y-55444919D01*
X33041265Y-55444919D02*
X33041265Y-54444919D01*
X32088884Y-55444919D02*
X32184122Y-55397300D01*
X32184122Y-55397300D02*
X32231741Y-55349680D01*
X32231741Y-55349680D02*
X32279360Y-55254442D01*
X32279360Y-55254442D02*
X32279360Y-54968728D01*
X32279360Y-54968728D02*
X32231741Y-54873490D01*
X32231741Y-54873490D02*
X32184122Y-54825871D01*
X32184122Y-54825871D02*
X32088884Y-54778252D01*
X32088884Y-54778252D02*
X31946027Y-54778252D01*
X31946027Y-54778252D02*
X31850789Y-54825871D01*
X31850789Y-54825871D02*
X31803170Y-54873490D01*
X31803170Y-54873490D02*
X31755551Y-54968728D01*
X31755551Y-54968728D02*
X31755551Y-55254442D01*
X31755551Y-55254442D02*
X31803170Y-55349680D01*
X31803170Y-55349680D02*
X31850789Y-55397300D01*
X31850789Y-55397300D02*
X31946027Y-55444919D01*
X31946027Y-55444919D02*
X32088884Y-55444919D01*
X30136503Y-54778252D02*
X30136503Y-55444919D01*
X30374598Y-54397300D02*
X30612693Y-55111585D01*
X30612693Y-55111585D02*
X29993646Y-55111585D01*
D13*
X24334661Y-89200859D02*
X23810851Y-89200859D01*
X23810851Y-89200859D02*
X23758470Y-88677049D01*
X23758470Y-88677049D02*
X23810851Y-88729430D01*
X23810851Y-88729430D02*
X23915613Y-88781811D01*
X23915613Y-88781811D02*
X24177518Y-88781811D01*
X24177518Y-88781811D02*
X24282280Y-88729430D01*
X24282280Y-88729430D02*
X24334661Y-88677049D01*
X24334661Y-88677049D02*
X24387042Y-88572287D01*
X24387042Y-88572287D02*
X24387042Y-88310382D01*
X24387042Y-88310382D02*
X24334661Y-88205620D01*
X24334661Y-88205620D02*
X24282280Y-88153240D01*
X24282280Y-88153240D02*
X24177518Y-88100859D01*
X24177518Y-88100859D02*
X23915613Y-88100859D01*
X23915613Y-88100859D02*
X23810851Y-88153240D01*
X23810851Y-88153240D02*
X23758470Y-88205620D01*
X24701327Y-89200859D02*
X25067994Y-88100859D01*
X25067994Y-88100859D02*
X25434661Y-89200859D01*
X27215613Y-89148478D02*
X27110851Y-89200859D01*
X27110851Y-89200859D02*
X26953708Y-89200859D01*
X26953708Y-89200859D02*
X26796565Y-89148478D01*
X26796565Y-89148478D02*
X26691803Y-89043716D01*
X26691803Y-89043716D02*
X26639422Y-88938954D01*
X26639422Y-88938954D02*
X26587041Y-88729430D01*
X26587041Y-88729430D02*
X26587041Y-88572287D01*
X26587041Y-88572287D02*
X26639422Y-88362763D01*
X26639422Y-88362763D02*
X26691803Y-88258001D01*
X26691803Y-88258001D02*
X26796565Y-88153240D01*
X26796565Y-88153240D02*
X26953708Y-88100859D01*
X26953708Y-88100859D02*
X27058470Y-88100859D01*
X27058470Y-88100859D02*
X27215613Y-88153240D01*
X27215613Y-88153240D02*
X27267994Y-88205620D01*
X27267994Y-88205620D02*
X27267994Y-88572287D01*
X27267994Y-88572287D02*
X27058470Y-88572287D01*
X29206089Y-88205620D02*
X29153708Y-88153240D01*
X29153708Y-88153240D02*
X28996565Y-88100859D01*
X28996565Y-88100859D02*
X28891803Y-88100859D01*
X28891803Y-88100859D02*
X28734660Y-88153240D01*
X28734660Y-88153240D02*
X28629898Y-88258001D01*
X28629898Y-88258001D02*
X28577517Y-88362763D01*
X28577517Y-88362763D02*
X28525136Y-88572287D01*
X28525136Y-88572287D02*
X28525136Y-88729430D01*
X28525136Y-88729430D02*
X28577517Y-88938954D01*
X28577517Y-88938954D02*
X28629898Y-89043716D01*
X28629898Y-89043716D02*
X28734660Y-89148478D01*
X28734660Y-89148478D02*
X28891803Y-89200859D01*
X28891803Y-89200859D02*
X28996565Y-89200859D01*
X28996565Y-89200859D02*
X29153708Y-89148478D01*
X29153708Y-89148478D02*
X29206089Y-89096097D01*
X29677517Y-88100859D02*
X29677517Y-89200859D01*
X30306089Y-88100859D02*
X29834660Y-88729430D01*
X30306089Y-89200859D02*
X29677517Y-88572287D01*
X32244184Y-88205620D02*
X32191803Y-88153240D01*
X32191803Y-88153240D02*
X32034660Y-88100859D01*
X32034660Y-88100859D02*
X31929898Y-88100859D01*
X31929898Y-88100859D02*
X31772755Y-88153240D01*
X31772755Y-88153240D02*
X31667993Y-88258001D01*
X31667993Y-88258001D02*
X31615612Y-88362763D01*
X31615612Y-88362763D02*
X31563231Y-88572287D01*
X31563231Y-88572287D02*
X31563231Y-88729430D01*
X31563231Y-88729430D02*
X31615612Y-88938954D01*
X31615612Y-88938954D02*
X31667993Y-89043716D01*
X31667993Y-89043716D02*
X31772755Y-89148478D01*
X31772755Y-89148478D02*
X31929898Y-89200859D01*
X31929898Y-89200859D02*
X32034660Y-89200859D01*
X32034660Y-89200859D02*
X32191803Y-89148478D01*
X32191803Y-89148478D02*
X32244184Y-89096097D01*
X32663231Y-88153240D02*
X32820374Y-88100859D01*
X32820374Y-88100859D02*
X33082279Y-88100859D01*
X33082279Y-88100859D02*
X33187041Y-88153240D01*
X33187041Y-88153240D02*
X33239422Y-88205620D01*
X33239422Y-88205620D02*
X33291803Y-88310382D01*
X33291803Y-88310382D02*
X33291803Y-88415144D01*
X33291803Y-88415144D02*
X33239422Y-88519906D01*
X33239422Y-88519906D02*
X33187041Y-88572287D01*
X33187041Y-88572287D02*
X33082279Y-88624668D01*
X33082279Y-88624668D02*
X32872755Y-88677049D01*
X32872755Y-88677049D02*
X32767993Y-88729430D01*
X32767993Y-88729430D02*
X32715612Y-88781811D01*
X32715612Y-88781811D02*
X32663231Y-88886573D01*
X32663231Y-88886573D02*
X32663231Y-88991335D01*
X32663231Y-88991335D02*
X32715612Y-89096097D01*
X32715612Y-89096097D02*
X32767993Y-89148478D01*
X32767993Y-89148478D02*
X32872755Y-89200859D01*
X32872755Y-89200859D02*
X33134660Y-89200859D01*
X33134660Y-89200859D02*
X33291803Y-89148478D01*
X34601326Y-88100859D02*
X34601326Y-89200859D01*
X34601326Y-89200859D02*
X34863231Y-89200859D01*
X34863231Y-89200859D02*
X35020374Y-89148478D01*
X35020374Y-89148478D02*
X35125136Y-89043716D01*
X35125136Y-89043716D02*
X35177517Y-88938954D01*
X35177517Y-88938954D02*
X35229898Y-88729430D01*
X35229898Y-88729430D02*
X35229898Y-88572287D01*
X35229898Y-88572287D02*
X35177517Y-88362763D01*
X35177517Y-88362763D02*
X35125136Y-88258001D01*
X35125136Y-88258001D02*
X35020374Y-88153240D01*
X35020374Y-88153240D02*
X34863231Y-88100859D01*
X34863231Y-88100859D02*
X34601326Y-88100859D01*
D15*
X32139925Y-61102419D02*
X32616115Y-61102419D01*
X32616115Y-61102419D02*
X32616115Y-60102419D01*
X31806591Y-61102419D02*
X31806591Y-60435752D01*
X31806591Y-60102419D02*
X31854210Y-60150038D01*
X31854210Y-60150038D02*
X31806591Y-60197657D01*
X31806591Y-60197657D02*
X31758972Y-60150038D01*
X31758972Y-60150038D02*
X31806591Y-60102419D01*
X31806591Y-60102419D02*
X31806591Y-60197657D01*
X30425639Y-60530990D02*
X30520877Y-60483371D01*
X30520877Y-60483371D02*
X30568496Y-60435752D01*
X30568496Y-60435752D02*
X30616115Y-60340514D01*
X30616115Y-60340514D02*
X30616115Y-60292895D01*
X30616115Y-60292895D02*
X30568496Y-60197657D01*
X30568496Y-60197657D02*
X30520877Y-60150038D01*
X30520877Y-60150038D02*
X30425639Y-60102419D01*
X30425639Y-60102419D02*
X30235163Y-60102419D01*
X30235163Y-60102419D02*
X30139925Y-60150038D01*
X30139925Y-60150038D02*
X30092306Y-60197657D01*
X30092306Y-60197657D02*
X30044687Y-60292895D01*
X30044687Y-60292895D02*
X30044687Y-60340514D01*
X30044687Y-60340514D02*
X30092306Y-60435752D01*
X30092306Y-60435752D02*
X30139925Y-60483371D01*
X30139925Y-60483371D02*
X30235163Y-60530990D01*
X30235163Y-60530990D02*
X30425639Y-60530990D01*
X30425639Y-60530990D02*
X30520877Y-60578609D01*
X30520877Y-60578609D02*
X30568496Y-60626228D01*
X30568496Y-60626228D02*
X30616115Y-60721466D01*
X30616115Y-60721466D02*
X30616115Y-60911942D01*
X30616115Y-60911942D02*
X30568496Y-61007180D01*
X30568496Y-61007180D02*
X30520877Y-61054800D01*
X30520877Y-61054800D02*
X30425639Y-61102419D01*
X30425639Y-61102419D02*
X30235163Y-61102419D01*
X30235163Y-61102419D02*
X30139925Y-61054800D01*
X30139925Y-61054800D02*
X30092306Y-61007180D01*
X30092306Y-61007180D02*
X30044687Y-60911942D01*
X30044687Y-60911942D02*
X30044687Y-60721466D01*
X30044687Y-60721466D02*
X30092306Y-60626228D01*
X30092306Y-60626228D02*
X30139925Y-60578609D01*
X30139925Y-60578609D02*
X30235163Y-60530990D01*
D11*
G36*
X85426858Y-80496962D02*
G01*
X85463863Y-80533967D01*
X85508570Y-80623380D01*
X85508570Y-80909704D01*
X85463863Y-80999117D01*
X85426858Y-81036122D01*
X85337446Y-81080828D01*
X85122552Y-81080828D01*
X85033138Y-81036121D01*
X84996134Y-80999117D01*
X84951427Y-80909703D01*
X84951427Y-80623381D01*
X84996134Y-80533967D01*
X85033138Y-80496963D01*
X85122552Y-80452257D01*
X85337446Y-80452257D01*
X85426858Y-80496962D01*
G37*
G36*
X86784002Y-79925535D02*
G01*
X86821006Y-79962539D01*
X86874185Y-80068898D01*
X86937141Y-80320720D01*
X86937141Y-80640936D01*
X86874185Y-80892757D01*
X86821005Y-80999117D01*
X86784002Y-81036121D01*
X86694589Y-81080828D01*
X86622551Y-81080828D01*
X86533138Y-81036122D01*
X86496134Y-80999118D01*
X86442954Y-80892758D01*
X86379998Y-80640934D01*
X86379998Y-80320721D01*
X86442954Y-80068897D01*
X86496134Y-79962538D01*
X86533138Y-79925534D01*
X86622551Y-79880828D01*
X86694588Y-79880828D01*
X86784002Y-79925535D01*
G37*
G36*
X89008571Y-78665828D02*
G01*
X88622552Y-78665828D01*
X88533138Y-78621121D01*
X88496133Y-78584116D01*
X88451428Y-78494704D01*
X88451428Y-78351237D01*
X88496133Y-78261825D01*
X88525311Y-78232647D01*
X88682914Y-78180114D01*
X89008571Y-78180114D01*
X89008571Y-78665828D01*
G37*
G36*
X89008571Y-77880114D02*
G01*
X88693981Y-77880114D01*
X88604567Y-77835406D01*
X88567563Y-77798403D01*
X88522856Y-77708989D01*
X88522856Y-77636952D01*
X88567563Y-77547538D01*
X88604567Y-77510535D01*
X88693981Y-77465828D01*
X89008571Y-77465828D01*
X89008571Y-77880114D01*
G37*
G36*
X90451428Y-81595114D02*
G01*
X84437141Y-81595114D01*
X84437141Y-80945114D01*
X84651427Y-80945114D01*
X84660350Y-80978415D01*
X84667263Y-81012196D01*
X84738692Y-81155053D01*
X84754714Y-81173121D01*
X84766790Y-81194037D01*
X84838219Y-81265466D01*
X84859133Y-81277540D01*
X84877203Y-81293564D01*
X85020061Y-81364992D01*
X85053836Y-81371903D01*
X85087142Y-81380828D01*
X85372856Y-81380828D01*
X85406159Y-81371904D01*
X85439938Y-81364992D01*
X85582795Y-81293564D01*
X85600864Y-81277540D01*
X85621779Y-81265466D01*
X85693208Y-81194037D01*
X85705282Y-81173122D01*
X85721306Y-81155053D01*
X85792734Y-81012195D01*
X85799645Y-80978419D01*
X85808570Y-80945114D01*
X85808570Y-80659400D01*
X86079998Y-80659400D01*
X86084788Y-80677276D01*
X86084477Y-80695781D01*
X86155906Y-80981494D01*
X86163942Y-80995971D01*
X86167263Y-81012196D01*
X86238692Y-81155053D01*
X86254714Y-81173121D01*
X86266789Y-81194036D01*
X86338217Y-81265465D01*
X86359132Y-81277540D01*
X86377202Y-81293564D01*
X86520060Y-81364992D01*
X86553835Y-81371903D01*
X86587141Y-81380828D01*
X86729998Y-81380828D01*
X86763303Y-81371903D01*
X86797079Y-81364992D01*
X86939938Y-81293564D01*
X86958007Y-81277540D01*
X86978923Y-81265465D01*
X87050351Y-81194036D01*
X87062425Y-81173121D01*
X87078448Y-81155053D01*
X87092578Y-81126793D01*
X87513681Y-81126793D01*
X87552503Y-81194036D01*
X87623931Y-81265465D01*
X87653788Y-81282703D01*
X87682564Y-81301703D01*
X87896850Y-81373131D01*
X87920958Y-81374578D01*
X87944284Y-81380828D01*
X88087141Y-81380828D01*
X88110466Y-81374578D01*
X88134575Y-81373131D01*
X88348861Y-81301703D01*
X88377636Y-81282703D01*
X88407493Y-81265466D01*
X88442131Y-81230828D01*
X89079999Y-81230828D01*
X89100095Y-81305828D01*
X89154999Y-81360732D01*
X89229999Y-81380828D01*
X89304999Y-81360732D01*
X89359903Y-81305828D01*
X89379999Y-81230828D01*
X89379999Y-80595114D01*
X89937142Y-80595114D01*
X89937142Y-81230828D01*
X89957238Y-81305828D01*
X90012142Y-81360732D01*
X90087142Y-81380828D01*
X90162142Y-81360732D01*
X90217046Y-81305828D01*
X90237142Y-81230828D01*
X90237142Y-79730828D01*
X90217046Y-79655828D01*
X90162142Y-79600924D01*
X90087142Y-79580828D01*
X90012142Y-79600924D01*
X89957238Y-79655828D01*
X89937142Y-79730828D01*
X89937142Y-80295114D01*
X89379999Y-80295114D01*
X89379999Y-79730828D01*
X89359903Y-79655828D01*
X89304999Y-79600924D01*
X89229999Y-79580828D01*
X89154999Y-79600924D01*
X89100095Y-79655828D01*
X89079999Y-79730828D01*
X89079999Y-81230828D01*
X88442131Y-81230828D01*
X88550350Y-81122608D01*
X88562425Y-81101693D01*
X88578448Y-81083624D01*
X88649877Y-80940768D01*
X88653197Y-80924541D01*
X88661234Y-80910065D01*
X88732662Y-80624351D01*
X88732350Y-80605848D01*
X88737141Y-80587971D01*
X88737141Y-80373685D01*
X88732350Y-80355807D01*
X88732662Y-80337305D01*
X88661234Y-80051591D01*
X88653197Y-80037114D01*
X88649877Y-80020888D01*
X88578448Y-79878032D01*
X88562425Y-79859963D01*
X88550350Y-79839048D01*
X88407493Y-79696191D01*
X88377636Y-79678953D01*
X88348861Y-79659954D01*
X88134575Y-79588526D01*
X88110469Y-79587078D01*
X88087141Y-79580828D01*
X87944284Y-79580828D01*
X87920955Y-79587078D01*
X87896849Y-79588526D01*
X87682564Y-79659955D01*
X87653791Y-79678951D01*
X87623932Y-79696191D01*
X87552504Y-79767619D01*
X87513681Y-79834862D01*
X87513681Y-79912508D01*
X87552504Y-79979751D01*
X87619747Y-80018574D01*
X87697393Y-80018574D01*
X87764636Y-79979751D01*
X87811025Y-79933361D01*
X87968627Y-79880828D01*
X88062801Y-79880828D01*
X88220399Y-79933361D01*
X88321006Y-80033968D01*
X88374185Y-80140327D01*
X88437141Y-80392148D01*
X88437141Y-80569507D01*
X88374185Y-80821328D01*
X88321006Y-80927688D01*
X88220400Y-81028294D01*
X88062798Y-81080828D01*
X87968627Y-81080828D01*
X87811024Y-81028294D01*
X87764637Y-80981906D01*
X87697394Y-80943082D01*
X87619748Y-80943082D01*
X87552505Y-80981904D01*
X87513681Y-81049147D01*
X87513681Y-81126793D01*
X87092578Y-81126793D01*
X87149877Y-81012197D01*
X87153197Y-80995970D01*
X87161234Y-80981494D01*
X87232662Y-80695780D01*
X87232350Y-80677277D01*
X87237141Y-80659400D01*
X87237141Y-80302257D01*
X87232350Y-80284379D01*
X87232662Y-80265877D01*
X87161234Y-79980162D01*
X87153197Y-79965685D01*
X87149877Y-79949459D01*
X87078448Y-79806603D01*
X87062425Y-79788534D01*
X87050350Y-79767619D01*
X86978922Y-79696191D01*
X86958007Y-79684116D01*
X86939938Y-79668093D01*
X86797080Y-79596664D01*
X86763299Y-79589751D01*
X86729998Y-79580828D01*
X86587141Y-79580828D01*
X86553840Y-79589750D01*
X86520058Y-79596664D01*
X86377202Y-79668093D01*
X86359133Y-79684115D01*
X86338218Y-79696191D01*
X86266790Y-79767619D01*
X86254714Y-79788534D01*
X86238692Y-79806603D01*
X86167263Y-79949460D01*
X86163942Y-79965684D01*
X86155906Y-79980162D01*
X86084477Y-80265877D01*
X86084788Y-80284380D01*
X86079998Y-80302257D01*
X86079998Y-80659400D01*
X85808570Y-80659400D01*
X85808570Y-80373685D01*
X85803779Y-80355807D01*
X85804091Y-80337305D01*
X85732663Y-80051591D01*
X85720187Y-80029118D01*
X85711950Y-80004766D01*
X85569093Y-79790480D01*
X85557840Y-79780590D01*
X85550350Y-79767618D01*
X85478921Y-79696190D01*
X85458006Y-79684115D01*
X85439938Y-79668093D01*
X85297081Y-79596664D01*
X85263300Y-79589751D01*
X85229999Y-79580828D01*
X84944285Y-79580828D01*
X84869285Y-79600924D01*
X84814381Y-79655828D01*
X84794285Y-79730828D01*
X84814381Y-79805828D01*
X84869285Y-79860732D01*
X84944285Y-79880828D01*
X85194589Y-79880828D01*
X85284003Y-79925535D01*
X85327715Y-79969247D01*
X85447922Y-80149557D01*
X85454359Y-80175303D01*
X85439938Y-80168093D01*
X85406159Y-80161180D01*
X85372856Y-80152257D01*
X85087142Y-80152257D01*
X85053836Y-80161181D01*
X85020061Y-80168093D01*
X84877203Y-80239521D01*
X84859133Y-80255544D01*
X84838219Y-80267619D01*
X84766790Y-80339048D01*
X84754714Y-80359963D01*
X84738692Y-80378032D01*
X84667263Y-80520889D01*
X84660350Y-80554669D01*
X84651427Y-80587971D01*
X84651427Y-80945114D01*
X84437141Y-80945114D01*
X84437141Y-78806174D01*
X85508882Y-78806174D01*
X85524109Y-78882312D01*
X85575366Y-78940636D01*
X85648917Y-78965517D01*
X85725055Y-78950290D01*
X85783379Y-78899033D01*
X86158571Y-78336244D01*
X86533764Y-78899033D01*
X86592087Y-78950290D01*
X86668225Y-78965517D01*
X86741776Y-78940636D01*
X86793033Y-78882312D01*
X86808260Y-78806174D01*
X86783379Y-78732623D01*
X86338849Y-78065828D01*
X86783379Y-77399033D01*
X86808260Y-77325482D01*
X86806329Y-77315828D01*
X86865714Y-77315828D01*
X86885810Y-77390828D01*
X86940714Y-77445732D01*
X87015714Y-77465828D01*
X87294285Y-77465828D01*
X87294285Y-78815828D01*
X87314381Y-78890828D01*
X87369285Y-78945732D01*
X87444285Y-78965828D01*
X87519285Y-78945732D01*
X87574189Y-78890828D01*
X87594285Y-78815828D01*
X87594285Y-78530114D01*
X88151428Y-78530114D01*
X88160351Y-78563417D01*
X88167264Y-78597196D01*
X88238692Y-78740053D01*
X88254715Y-78758122D01*
X88266790Y-78779037D01*
X88338219Y-78850466D01*
X88359133Y-78862540D01*
X88377203Y-78878564D01*
X88520061Y-78949992D01*
X88553836Y-78956903D01*
X88587142Y-78965828D01*
X89158571Y-78965828D01*
X89233571Y-78945732D01*
X89288475Y-78890828D01*
X89308571Y-78815828D01*
X89308571Y-77315828D01*
X89288475Y-77240828D01*
X89233571Y-77185924D01*
X89158571Y-77165828D01*
X88658571Y-77165828D01*
X88625270Y-77174750D01*
X88591488Y-77181664D01*
X88448632Y-77253093D01*
X88430563Y-77269115D01*
X88409649Y-77281190D01*
X88338220Y-77352618D01*
X88326143Y-77373534D01*
X88310121Y-77391603D01*
X88238692Y-77534460D01*
X88231779Y-77568240D01*
X88222856Y-77601542D01*
X88222856Y-77744400D01*
X88231779Y-77777701D01*
X88238692Y-77811482D01*
X88310121Y-77954339D01*
X88326143Y-77972407D01*
X88338220Y-77993324D01*
X88339583Y-77994687D01*
X88338219Y-77995476D01*
X88266790Y-78066905D01*
X88254715Y-78087819D01*
X88238692Y-78105889D01*
X88167264Y-78248746D01*
X88160351Y-78282524D01*
X88151428Y-78315828D01*
X88151428Y-78530114D01*
X87594285Y-78530114D01*
X87594285Y-77465828D01*
X87872856Y-77465828D01*
X87947856Y-77445732D01*
X88002760Y-77390828D01*
X88022856Y-77315828D01*
X88002760Y-77240828D01*
X87947856Y-77185924D01*
X87872856Y-77165828D01*
X87015714Y-77165828D01*
X86940714Y-77185924D01*
X86885810Y-77240828D01*
X86865714Y-77315828D01*
X86806329Y-77315828D01*
X86793033Y-77249344D01*
X86741776Y-77191020D01*
X86668225Y-77166139D01*
X86592087Y-77181366D01*
X86533764Y-77232623D01*
X86158571Y-77795411D01*
X85783379Y-77232623D01*
X85725055Y-77181366D01*
X85648917Y-77166139D01*
X85575366Y-77191020D01*
X85524109Y-77249344D01*
X85508882Y-77325482D01*
X85533763Y-77399033D01*
X85978293Y-78065828D01*
X85533763Y-78732623D01*
X85508882Y-78806174D01*
X84437141Y-78806174D01*
X84437141Y-76951542D01*
X90451428Y-76951542D01*
X90451428Y-81595114D01*
G37*
D14*
X66236604Y-38584405D02*
X66236604Y-39060595D01*
X66522319Y-38489167D02*
X65522319Y-38822500D01*
X65522319Y-38822500D02*
X66522319Y-39155833D01*
X65522319Y-39489167D02*
X66331842Y-39489167D01*
X66331842Y-39489167D02*
X66427080Y-39536786D01*
X66427080Y-39536786D02*
X66474700Y-39584405D01*
X66474700Y-39584405D02*
X66522319Y-39679643D01*
X66522319Y-39679643D02*
X66522319Y-39870119D01*
X66522319Y-39870119D02*
X66474700Y-39965357D01*
X66474700Y-39965357D02*
X66427080Y-40012976D01*
X66427080Y-40012976D02*
X66331842Y-40060595D01*
X66331842Y-40060595D02*
X65522319Y-40060595D01*
X65522319Y-40441548D02*
X66522319Y-41108214D01*
X65522319Y-41108214D02*
X66522319Y-40441548D01*
D13*
X58587042Y-95338478D02*
X58482280Y-95390859D01*
X58482280Y-95390859D02*
X58325137Y-95390859D01*
X58325137Y-95390859D02*
X58167994Y-95338478D01*
X58167994Y-95338478D02*
X58063232Y-95233716D01*
X58063232Y-95233716D02*
X58010851Y-95128954D01*
X58010851Y-95128954D02*
X57958470Y-94919430D01*
X57958470Y-94919430D02*
X57958470Y-94762287D01*
X57958470Y-94762287D02*
X58010851Y-94552763D01*
X58010851Y-94552763D02*
X58063232Y-94448001D01*
X58063232Y-94448001D02*
X58167994Y-94343240D01*
X58167994Y-94343240D02*
X58325137Y-94290859D01*
X58325137Y-94290859D02*
X58429899Y-94290859D01*
X58429899Y-94290859D02*
X58587042Y-94343240D01*
X58587042Y-94343240D02*
X58639423Y-94395620D01*
X58639423Y-94395620D02*
X58639423Y-94762287D01*
X58639423Y-94762287D02*
X58429899Y-94762287D01*
X60472756Y-95390859D02*
X59948946Y-95390859D01*
X59948946Y-95390859D02*
X59896565Y-94867049D01*
X59896565Y-94867049D02*
X59948946Y-94919430D01*
X59948946Y-94919430D02*
X60053708Y-94971811D01*
X60053708Y-94971811D02*
X60315613Y-94971811D01*
X60315613Y-94971811D02*
X60420375Y-94919430D01*
X60420375Y-94919430D02*
X60472756Y-94867049D01*
X60472756Y-94867049D02*
X60525137Y-94762287D01*
X60525137Y-94762287D02*
X60525137Y-94500382D01*
X60525137Y-94500382D02*
X60472756Y-94395620D01*
X60472756Y-94395620D02*
X60420375Y-94343240D01*
X60420375Y-94343240D02*
X60315613Y-94290859D01*
X60315613Y-94290859D02*
X60053708Y-94290859D01*
X60053708Y-94290859D02*
X59948946Y-94343240D01*
X59948946Y-94343240D02*
X59896565Y-94395620D01*
X60839422Y-95390859D02*
X61206089Y-94290859D01*
X61206089Y-94290859D02*
X61572756Y-95390859D01*
X63406089Y-94395620D02*
X63353708Y-94343240D01*
X63353708Y-94343240D02*
X63196565Y-94290859D01*
X63196565Y-94290859D02*
X63091803Y-94290859D01*
X63091803Y-94290859D02*
X62934660Y-94343240D01*
X62934660Y-94343240D02*
X62829898Y-94448001D01*
X62829898Y-94448001D02*
X62777517Y-94552763D01*
X62777517Y-94552763D02*
X62725136Y-94762287D01*
X62725136Y-94762287D02*
X62725136Y-94919430D01*
X62725136Y-94919430D02*
X62777517Y-95128954D01*
X62777517Y-95128954D02*
X62829898Y-95233716D01*
X62829898Y-95233716D02*
X62934660Y-95338478D01*
X62934660Y-95338478D02*
X63091803Y-95390859D01*
X63091803Y-95390859D02*
X63196565Y-95390859D01*
X63196565Y-95390859D02*
X63353708Y-95338478D01*
X63353708Y-95338478D02*
X63406089Y-95286097D01*
X63877517Y-94290859D02*
X63877517Y-95390859D01*
X64506089Y-94290859D02*
X64034660Y-94919430D01*
X64506089Y-95390859D02*
X63877517Y-94762287D01*
X66444184Y-94395620D02*
X66391803Y-94343240D01*
X66391803Y-94343240D02*
X66234660Y-94290859D01*
X66234660Y-94290859D02*
X66129898Y-94290859D01*
X66129898Y-94290859D02*
X65972755Y-94343240D01*
X65972755Y-94343240D02*
X65867993Y-94448001D01*
X65867993Y-94448001D02*
X65815612Y-94552763D01*
X65815612Y-94552763D02*
X65763231Y-94762287D01*
X65763231Y-94762287D02*
X65763231Y-94919430D01*
X65763231Y-94919430D02*
X65815612Y-95128954D01*
X65815612Y-95128954D02*
X65867993Y-95233716D01*
X65867993Y-95233716D02*
X65972755Y-95338478D01*
X65972755Y-95338478D02*
X66129898Y-95390859D01*
X66129898Y-95390859D02*
X66234660Y-95390859D01*
X66234660Y-95390859D02*
X66391803Y-95338478D01*
X66391803Y-95338478D02*
X66444184Y-95286097D01*
X66863231Y-94343240D02*
X67020374Y-94290859D01*
X67020374Y-94290859D02*
X67282279Y-94290859D01*
X67282279Y-94290859D02*
X67387041Y-94343240D01*
X67387041Y-94343240D02*
X67439422Y-94395620D01*
X67439422Y-94395620D02*
X67491803Y-94500382D01*
X67491803Y-94500382D02*
X67491803Y-94605144D01*
X67491803Y-94605144D02*
X67439422Y-94709906D01*
X67439422Y-94709906D02*
X67387041Y-94762287D01*
X67387041Y-94762287D02*
X67282279Y-94814668D01*
X67282279Y-94814668D02*
X67072755Y-94867049D01*
X67072755Y-94867049D02*
X66967993Y-94919430D01*
X66967993Y-94919430D02*
X66915612Y-94971811D01*
X66915612Y-94971811D02*
X66863231Y-95076573D01*
X66863231Y-95076573D02*
X66863231Y-95181335D01*
X66863231Y-95181335D02*
X66915612Y-95286097D01*
X66915612Y-95286097D02*
X66967993Y-95338478D01*
X66967993Y-95338478D02*
X67072755Y-95390859D01*
X67072755Y-95390859D02*
X67334660Y-95390859D01*
X67334660Y-95390859D02*
X67491803Y-95338478D01*
X68801326Y-94290859D02*
X68801326Y-95390859D01*
X68801326Y-95390859D02*
X69063231Y-95390859D01*
X69063231Y-95390859D02*
X69220374Y-95338478D01*
X69220374Y-95338478D02*
X69325136Y-95233716D01*
X69325136Y-95233716D02*
X69377517Y-95128954D01*
X69377517Y-95128954D02*
X69429898Y-94919430D01*
X69429898Y-94919430D02*
X69429898Y-94762287D01*
X69429898Y-94762287D02*
X69377517Y-94552763D01*
X69377517Y-94552763D02*
X69325136Y-94448001D01*
X69325136Y-94448001D02*
X69220374Y-94343240D01*
X69220374Y-94343240D02*
X69063231Y-94290859D01*
X69063231Y-94290859D02*
X68801326Y-94290859D01*
X42217042Y-95228478D02*
X42112280Y-95280859D01*
X42112280Y-95280859D02*
X41955137Y-95280859D01*
X41955137Y-95280859D02*
X41797994Y-95228478D01*
X41797994Y-95228478D02*
X41693232Y-95123716D01*
X41693232Y-95123716D02*
X41640851Y-95018954D01*
X41640851Y-95018954D02*
X41588470Y-94809430D01*
X41588470Y-94809430D02*
X41588470Y-94652287D01*
X41588470Y-94652287D02*
X41640851Y-94442763D01*
X41640851Y-94442763D02*
X41693232Y-94338001D01*
X41693232Y-94338001D02*
X41797994Y-94233240D01*
X41797994Y-94233240D02*
X41955137Y-94180859D01*
X41955137Y-94180859D02*
X42059899Y-94180859D01*
X42059899Y-94180859D02*
X42217042Y-94233240D01*
X42217042Y-94233240D02*
X42269423Y-94285620D01*
X42269423Y-94285620D02*
X42269423Y-94652287D01*
X42269423Y-94652287D02*
X42059899Y-94652287D01*
X44102756Y-95280859D02*
X43578946Y-95280859D01*
X43578946Y-95280859D02*
X43526565Y-94757049D01*
X43526565Y-94757049D02*
X43578946Y-94809430D01*
X43578946Y-94809430D02*
X43683708Y-94861811D01*
X43683708Y-94861811D02*
X43945613Y-94861811D01*
X43945613Y-94861811D02*
X44050375Y-94809430D01*
X44050375Y-94809430D02*
X44102756Y-94757049D01*
X44102756Y-94757049D02*
X44155137Y-94652287D01*
X44155137Y-94652287D02*
X44155137Y-94390382D01*
X44155137Y-94390382D02*
X44102756Y-94285620D01*
X44102756Y-94285620D02*
X44050375Y-94233240D01*
X44050375Y-94233240D02*
X43945613Y-94180859D01*
X43945613Y-94180859D02*
X43683708Y-94180859D01*
X43683708Y-94180859D02*
X43578946Y-94233240D01*
X43578946Y-94233240D02*
X43526565Y-94285620D01*
X44469422Y-95280859D02*
X44836089Y-94180859D01*
X44836089Y-94180859D02*
X45202756Y-95280859D01*
X47036089Y-94285620D02*
X46983708Y-94233240D01*
X46983708Y-94233240D02*
X46826565Y-94180859D01*
X46826565Y-94180859D02*
X46721803Y-94180859D01*
X46721803Y-94180859D02*
X46564660Y-94233240D01*
X46564660Y-94233240D02*
X46459898Y-94338001D01*
X46459898Y-94338001D02*
X46407517Y-94442763D01*
X46407517Y-94442763D02*
X46355136Y-94652287D01*
X46355136Y-94652287D02*
X46355136Y-94809430D01*
X46355136Y-94809430D02*
X46407517Y-95018954D01*
X46407517Y-95018954D02*
X46459898Y-95123716D01*
X46459898Y-95123716D02*
X46564660Y-95228478D01*
X46564660Y-95228478D02*
X46721803Y-95280859D01*
X46721803Y-95280859D02*
X46826565Y-95280859D01*
X46826565Y-95280859D02*
X46983708Y-95228478D01*
X46983708Y-95228478D02*
X47036089Y-95176097D01*
X47507517Y-94180859D02*
X47507517Y-95280859D01*
X48136089Y-94180859D02*
X47664660Y-94809430D01*
X48136089Y-95280859D02*
X47507517Y-94652287D01*
X50074184Y-94285620D02*
X50021803Y-94233240D01*
X50021803Y-94233240D02*
X49864660Y-94180859D01*
X49864660Y-94180859D02*
X49759898Y-94180859D01*
X49759898Y-94180859D02*
X49602755Y-94233240D01*
X49602755Y-94233240D02*
X49497993Y-94338001D01*
X49497993Y-94338001D02*
X49445612Y-94442763D01*
X49445612Y-94442763D02*
X49393231Y-94652287D01*
X49393231Y-94652287D02*
X49393231Y-94809430D01*
X49393231Y-94809430D02*
X49445612Y-95018954D01*
X49445612Y-95018954D02*
X49497993Y-95123716D01*
X49497993Y-95123716D02*
X49602755Y-95228478D01*
X49602755Y-95228478D02*
X49759898Y-95280859D01*
X49759898Y-95280859D02*
X49864660Y-95280859D01*
X49864660Y-95280859D02*
X50021803Y-95228478D01*
X50021803Y-95228478D02*
X50074184Y-95176097D01*
X50493231Y-94233240D02*
X50650374Y-94180859D01*
X50650374Y-94180859D02*
X50912279Y-94180859D01*
X50912279Y-94180859D02*
X51017041Y-94233240D01*
X51017041Y-94233240D02*
X51069422Y-94285620D01*
X51069422Y-94285620D02*
X51121803Y-94390382D01*
X51121803Y-94390382D02*
X51121803Y-94495144D01*
X51121803Y-94495144D02*
X51069422Y-94599906D01*
X51069422Y-94599906D02*
X51017041Y-94652287D01*
X51017041Y-94652287D02*
X50912279Y-94704668D01*
X50912279Y-94704668D02*
X50702755Y-94757049D01*
X50702755Y-94757049D02*
X50597993Y-94809430D01*
X50597993Y-94809430D02*
X50545612Y-94861811D01*
X50545612Y-94861811D02*
X50493231Y-94966573D01*
X50493231Y-94966573D02*
X50493231Y-95071335D01*
X50493231Y-95071335D02*
X50545612Y-95176097D01*
X50545612Y-95176097D02*
X50597993Y-95228478D01*
X50597993Y-95228478D02*
X50702755Y-95280859D01*
X50702755Y-95280859D02*
X50964660Y-95280859D01*
X50964660Y-95280859D02*
X51121803Y-95228478D01*
X52431326Y-94180859D02*
X52431326Y-95280859D01*
X52431326Y-95280859D02*
X52693231Y-95280859D01*
X52693231Y-95280859D02*
X52850374Y-95228478D01*
X52850374Y-95228478D02*
X52955136Y-95123716D01*
X52955136Y-95123716D02*
X53007517Y-95018954D01*
X53007517Y-95018954D02*
X53059898Y-94809430D01*
X53059898Y-94809430D02*
X53059898Y-94652287D01*
X53059898Y-94652287D02*
X53007517Y-94442763D01*
X53007517Y-94442763D02*
X52955136Y-94338001D01*
X52955136Y-94338001D02*
X52850374Y-94233240D01*
X52850374Y-94233240D02*
X52693231Y-94180859D01*
X52693231Y-94180859D02*
X52431326Y-94180859D01*
D11*
G36*
X26539775Y-113745114D02*
G01*
X22382632Y-113745114D01*
X22382632Y-111880828D01*
X22596918Y-111880828D01*
X22617014Y-111955828D01*
X22671918Y-112010732D01*
X22746918Y-112030828D01*
X23025489Y-112030828D01*
X23025489Y-113380828D01*
X23045585Y-113455828D01*
X23100489Y-113510732D01*
X23175489Y-113530828D01*
X23250489Y-113510732D01*
X23305393Y-113455828D01*
X23325489Y-113380828D01*
X23325489Y-113371174D01*
X23811514Y-113371174D01*
X23826741Y-113447312D01*
X23877998Y-113505636D01*
X23951549Y-113530517D01*
X24027687Y-113515290D01*
X24086011Y-113464033D01*
X24461203Y-112901244D01*
X24836396Y-113464033D01*
X24894719Y-113515290D01*
X24970857Y-113530517D01*
X25044408Y-113505636D01*
X25095665Y-113447312D01*
X25108961Y-113380828D01*
X25311203Y-113380828D01*
X25331299Y-113455828D01*
X25386203Y-113510732D01*
X25461203Y-113530828D01*
X26175489Y-113530828D01*
X26250489Y-113510732D01*
X26305393Y-113455828D01*
X26325489Y-113380828D01*
X26325489Y-111880828D01*
X26305393Y-111805828D01*
X26250489Y-111750924D01*
X26175489Y-111730828D01*
X25461203Y-111730828D01*
X25386203Y-111750924D01*
X25331299Y-111805828D01*
X25311203Y-111880828D01*
X25331299Y-111955828D01*
X25386203Y-112010732D01*
X25461203Y-112030828D01*
X26025489Y-112030828D01*
X26025489Y-112445114D01*
X25675489Y-112445114D01*
X25600489Y-112465210D01*
X25545585Y-112520114D01*
X25525489Y-112595114D01*
X25545585Y-112670114D01*
X25600489Y-112725018D01*
X25675489Y-112745114D01*
X26025489Y-112745114D01*
X26025489Y-113230828D01*
X25461203Y-113230828D01*
X25386203Y-113250924D01*
X25331299Y-113305828D01*
X25311203Y-113380828D01*
X25108961Y-113380828D01*
X25110892Y-113371174D01*
X25086011Y-113297623D01*
X24641480Y-112630828D01*
X25086011Y-111964033D01*
X25110892Y-111890482D01*
X25095665Y-111814344D01*
X25044408Y-111756020D01*
X24970857Y-111731139D01*
X24894719Y-111746366D01*
X24836396Y-111797623D01*
X24461203Y-112360411D01*
X24086011Y-111797623D01*
X24027687Y-111746366D01*
X23951549Y-111731139D01*
X23877998Y-111756020D01*
X23826741Y-111814344D01*
X23811514Y-111890482D01*
X23836395Y-111964033D01*
X24280925Y-112630828D01*
X23836395Y-113297623D01*
X23811514Y-113371174D01*
X23325489Y-113371174D01*
X23325489Y-112030828D01*
X23604060Y-112030828D01*
X23679060Y-112010732D01*
X23733964Y-111955828D01*
X23754060Y-111880828D01*
X23733964Y-111805828D01*
X23679060Y-111750924D01*
X23604060Y-111730828D01*
X22746918Y-111730828D01*
X22671918Y-111750924D01*
X22617014Y-111805828D01*
X22596918Y-111880828D01*
X22382632Y-111880828D01*
X22382632Y-111516542D01*
X26539775Y-111516542D01*
X26539775Y-113745114D01*
G37*
G36*
X107259775Y-78535114D02*
G01*
X103102632Y-78535114D01*
X103102632Y-76670828D01*
X103316918Y-76670828D01*
X103337014Y-76745828D01*
X103391918Y-76800732D01*
X103466918Y-76820828D01*
X103745489Y-76820828D01*
X103745489Y-78170828D01*
X103765585Y-78245828D01*
X103820489Y-78300732D01*
X103895489Y-78320828D01*
X103970489Y-78300732D01*
X104025393Y-78245828D01*
X104045489Y-78170828D01*
X104045489Y-78161174D01*
X104531514Y-78161174D01*
X104546741Y-78237312D01*
X104597998Y-78295636D01*
X104671549Y-78320517D01*
X104747687Y-78305290D01*
X104806011Y-78254033D01*
X105181203Y-77691244D01*
X105556396Y-78254033D01*
X105614719Y-78305290D01*
X105690857Y-78320517D01*
X105764408Y-78295636D01*
X105815665Y-78237312D01*
X105828961Y-78170828D01*
X106031203Y-78170828D01*
X106051299Y-78245828D01*
X106106203Y-78300732D01*
X106181203Y-78320828D01*
X106895489Y-78320828D01*
X106970489Y-78300732D01*
X107025393Y-78245828D01*
X107045489Y-78170828D01*
X107045489Y-76670828D01*
X107025393Y-76595828D01*
X106970489Y-76540924D01*
X106895489Y-76520828D01*
X106181203Y-76520828D01*
X106106203Y-76540924D01*
X106051299Y-76595828D01*
X106031203Y-76670828D01*
X106051299Y-76745828D01*
X106106203Y-76800732D01*
X106181203Y-76820828D01*
X106745489Y-76820828D01*
X106745489Y-77235114D01*
X106395489Y-77235114D01*
X106320489Y-77255210D01*
X106265585Y-77310114D01*
X106245489Y-77385114D01*
X106265585Y-77460114D01*
X106320489Y-77515018D01*
X106395489Y-77535114D01*
X106745489Y-77535114D01*
X106745489Y-78020828D01*
X106181203Y-78020828D01*
X106106203Y-78040924D01*
X106051299Y-78095828D01*
X106031203Y-78170828D01*
X105828961Y-78170828D01*
X105830892Y-78161174D01*
X105806011Y-78087623D01*
X105361480Y-77420828D01*
X105806011Y-76754033D01*
X105830892Y-76680482D01*
X105815665Y-76604344D01*
X105764408Y-76546020D01*
X105690857Y-76521139D01*
X105614719Y-76536366D01*
X105556396Y-76587623D01*
X105181203Y-77150411D01*
X104806011Y-76587623D01*
X104747687Y-76536366D01*
X104671549Y-76521139D01*
X104597998Y-76546020D01*
X104546741Y-76604344D01*
X104531514Y-76680482D01*
X104556395Y-76754033D01*
X105000925Y-77420828D01*
X104556395Y-78087623D01*
X104531514Y-78161174D01*
X104045489Y-78161174D01*
X104045489Y-76820828D01*
X104324060Y-76820828D01*
X104399060Y-76800732D01*
X104453964Y-76745828D01*
X104474060Y-76670828D01*
X104453964Y-76595828D01*
X104399060Y-76540924D01*
X104324060Y-76520828D01*
X103466918Y-76520828D01*
X103391918Y-76540924D01*
X103337014Y-76595828D01*
X103316918Y-76670828D01*
X103102632Y-76670828D01*
X103102632Y-76306542D01*
X107259775Y-76306542D01*
X107259775Y-78535114D01*
G37*
D14*
X68914700Y-53916786D02*
X68962319Y-54059643D01*
X68962319Y-54059643D02*
X68962319Y-54297738D01*
X68962319Y-54297738D02*
X68914700Y-54392976D01*
X68914700Y-54392976D02*
X68867080Y-54440595D01*
X68867080Y-54440595D02*
X68771842Y-54488214D01*
X68771842Y-54488214D02*
X68676604Y-54488214D01*
X68676604Y-54488214D02*
X68581366Y-54440595D01*
X68581366Y-54440595D02*
X68533747Y-54392976D01*
X68533747Y-54392976D02*
X68486128Y-54297738D01*
X68486128Y-54297738D02*
X68438509Y-54107262D01*
X68438509Y-54107262D02*
X68390890Y-54012024D01*
X68390890Y-54012024D02*
X68343271Y-53964405D01*
X68343271Y-53964405D02*
X68248033Y-53916786D01*
X68248033Y-53916786D02*
X68152795Y-53916786D01*
X68152795Y-53916786D02*
X68057557Y-53964405D01*
X68057557Y-53964405D02*
X68009938Y-54012024D01*
X68009938Y-54012024D02*
X67962319Y-54107262D01*
X67962319Y-54107262D02*
X67962319Y-54345357D01*
X67962319Y-54345357D02*
X68009938Y-54488214D01*
X68962319Y-54916786D02*
X67962319Y-54916786D01*
X67962319Y-54916786D02*
X67962319Y-55297738D01*
X67962319Y-55297738D02*
X68009938Y-55392976D01*
X68009938Y-55392976D02*
X68057557Y-55440595D01*
X68057557Y-55440595D02*
X68152795Y-55488214D01*
X68152795Y-55488214D02*
X68295652Y-55488214D01*
X68295652Y-55488214D02*
X68390890Y-55440595D01*
X68390890Y-55440595D02*
X68438509Y-55392976D01*
X68438509Y-55392976D02*
X68486128Y-55297738D01*
X68486128Y-55297738D02*
X68486128Y-54916786D01*
X68962319Y-55916786D02*
X67962319Y-55916786D01*
X67962319Y-55916786D02*
X67962319Y-56154881D01*
X67962319Y-56154881D02*
X68009938Y-56297738D01*
X68009938Y-56297738D02*
X68105176Y-56392976D01*
X68105176Y-56392976D02*
X68200414Y-56440595D01*
X68200414Y-56440595D02*
X68390890Y-56488214D01*
X68390890Y-56488214D02*
X68533747Y-56488214D01*
X68533747Y-56488214D02*
X68724223Y-56440595D01*
X68724223Y-56440595D02*
X68819461Y-56392976D01*
X68819461Y-56392976D02*
X68914700Y-56297738D01*
X68914700Y-56297738D02*
X68962319Y-56154881D01*
X68962319Y-56154881D02*
X68962319Y-55916786D01*
D15*
X107587419Y-52227143D02*
X107587419Y-51750953D01*
X107587419Y-51750953D02*
X108063609Y-51703334D01*
X108063609Y-51703334D02*
X108015990Y-51750953D01*
X108015990Y-51750953D02*
X107968371Y-51846191D01*
X107968371Y-51846191D02*
X107968371Y-52084286D01*
X107968371Y-52084286D02*
X108015990Y-52179524D01*
X108015990Y-52179524D02*
X108063609Y-52227143D01*
X108063609Y-52227143D02*
X108158847Y-52274762D01*
X108158847Y-52274762D02*
X108396942Y-52274762D01*
X108396942Y-52274762D02*
X108492180Y-52227143D01*
X108492180Y-52227143D02*
X108539800Y-52179524D01*
X108539800Y-52179524D02*
X108587419Y-52084286D01*
X108587419Y-52084286D02*
X108587419Y-51846191D01*
X108587419Y-51846191D02*
X108539800Y-51750953D01*
X108539800Y-51750953D02*
X108492180Y-51703334D01*
X107587419Y-52608096D02*
X107587419Y-53274762D01*
X107587419Y-53274762D02*
X108587419Y-52846191D01*
X108492180Y-53655715D02*
X108539800Y-53703334D01*
X108539800Y-53703334D02*
X108587419Y-53655715D01*
X108587419Y-53655715D02*
X108539800Y-53608096D01*
X108539800Y-53608096D02*
X108492180Y-53655715D01*
X108492180Y-53655715D02*
X108587419Y-53655715D01*
X107587419Y-54560476D02*
X107587419Y-54370000D01*
X107587419Y-54370000D02*
X107635038Y-54274762D01*
X107635038Y-54274762D02*
X107682657Y-54227143D01*
X107682657Y-54227143D02*
X107825514Y-54131905D01*
X107825514Y-54131905D02*
X108015990Y-54084286D01*
X108015990Y-54084286D02*
X108396942Y-54084286D01*
X108396942Y-54084286D02*
X108492180Y-54131905D01*
X108492180Y-54131905D02*
X108539800Y-54179524D01*
X108539800Y-54179524D02*
X108587419Y-54274762D01*
X108587419Y-54274762D02*
X108587419Y-54465238D01*
X108587419Y-54465238D02*
X108539800Y-54560476D01*
X108539800Y-54560476D02*
X108492180Y-54608095D01*
X108492180Y-54608095D02*
X108396942Y-54655714D01*
X108396942Y-54655714D02*
X108158847Y-54655714D01*
X108158847Y-54655714D02*
X108063609Y-54608095D01*
X108063609Y-54608095D02*
X108015990Y-54560476D01*
X108015990Y-54560476D02*
X107968371Y-54465238D01*
X107968371Y-54465238D02*
X107968371Y-54274762D01*
X107968371Y-54274762D02*
X108015990Y-54179524D01*
X108015990Y-54179524D02*
X108063609Y-54131905D01*
X108063609Y-54131905D02*
X108158847Y-54084286D01*
X107587419Y-55512857D02*
X107587419Y-55322381D01*
X107587419Y-55322381D02*
X107635038Y-55227143D01*
X107635038Y-55227143D02*
X107682657Y-55179524D01*
X107682657Y-55179524D02*
X107825514Y-55084286D01*
X107825514Y-55084286D02*
X108015990Y-55036667D01*
X108015990Y-55036667D02*
X108396942Y-55036667D01*
X108396942Y-55036667D02*
X108492180Y-55084286D01*
X108492180Y-55084286D02*
X108539800Y-55131905D01*
X108539800Y-55131905D02*
X108587419Y-55227143D01*
X108587419Y-55227143D02*
X108587419Y-55417619D01*
X108587419Y-55417619D02*
X108539800Y-55512857D01*
X108539800Y-55512857D02*
X108492180Y-55560476D01*
X108492180Y-55560476D02*
X108396942Y-55608095D01*
X108396942Y-55608095D02*
X108158847Y-55608095D01*
X108158847Y-55608095D02*
X108063609Y-55560476D01*
X108063609Y-55560476D02*
X108015990Y-55512857D01*
X108015990Y-55512857D02*
X107968371Y-55417619D01*
X107968371Y-55417619D02*
X107968371Y-55227143D01*
X107968371Y-55227143D02*
X108015990Y-55131905D01*
X108015990Y-55131905D02*
X108063609Y-55084286D01*
X108063609Y-55084286D02*
X108158847Y-55036667D01*
X108587419Y-56798572D02*
X107920752Y-56798572D01*
X108015990Y-56798572D02*
X107968371Y-56846191D01*
X107968371Y-56846191D02*
X107920752Y-56941429D01*
X107920752Y-56941429D02*
X107920752Y-57084286D01*
X107920752Y-57084286D02*
X107968371Y-57179524D01*
X107968371Y-57179524D02*
X108063609Y-57227143D01*
X108063609Y-57227143D02*
X108587419Y-57227143D01*
X108063609Y-57227143D02*
X107968371Y-57274762D01*
X107968371Y-57274762D02*
X107920752Y-57370000D01*
X107920752Y-57370000D02*
X107920752Y-57512857D01*
X107920752Y-57512857D02*
X107968371Y-57608096D01*
X107968371Y-57608096D02*
X108063609Y-57655715D01*
X108063609Y-57655715D02*
X108587419Y-57655715D01*
X108587419Y-58131905D02*
X107920752Y-58131905D01*
X108015990Y-58131905D02*
X107968371Y-58179524D01*
X107968371Y-58179524D02*
X107920752Y-58274762D01*
X107920752Y-58274762D02*
X107920752Y-58417619D01*
X107920752Y-58417619D02*
X107968371Y-58512857D01*
X107968371Y-58512857D02*
X108063609Y-58560476D01*
X108063609Y-58560476D02*
X108587419Y-58560476D01*
X108063609Y-58560476D02*
X107968371Y-58608095D01*
X107968371Y-58608095D02*
X107920752Y-58703333D01*
X107920752Y-58703333D02*
X107920752Y-58846190D01*
X107920752Y-58846190D02*
X107968371Y-58941429D01*
X107968371Y-58941429D02*
X108063609Y-58989048D01*
X108063609Y-58989048D02*
X108587419Y-58989048D01*
D10*
X109255000Y-84250000D02*
X108431080Y-84250000D01*
X109255000Y-26590000D02*
X108431080Y-26590000D01*
X109017500Y-84250000D02*
X109017500Y-26590000D01*
X109017500Y-84250000D02*
X109017500Y-26590000D01*
X109017500Y-84250000D02*
X108431079Y-83123496D01*
X109017500Y-84250000D02*
X109603921Y-83123496D01*
X109017500Y-26590000D02*
X109603921Y-27716504D01*
X109017500Y-26590000D02*
X108431079Y-27716504D01*
D15*
X73136189Y-27595990D02*
X73231427Y-27548371D01*
X73231427Y-27548371D02*
X73279046Y-27500752D01*
X73279046Y-27500752D02*
X73326665Y-27405514D01*
X73326665Y-27405514D02*
X73326665Y-27357895D01*
X73326665Y-27357895D02*
X73279046Y-27262657D01*
X73279046Y-27262657D02*
X73231427Y-27215038D01*
X73231427Y-27215038D02*
X73136189Y-27167419D01*
X73136189Y-27167419D02*
X72945713Y-27167419D01*
X72945713Y-27167419D02*
X72850475Y-27215038D01*
X72850475Y-27215038D02*
X72802856Y-27262657D01*
X72802856Y-27262657D02*
X72755237Y-27357895D01*
X72755237Y-27357895D02*
X72755237Y-27405514D01*
X72755237Y-27405514D02*
X72802856Y-27500752D01*
X72802856Y-27500752D02*
X72850475Y-27548371D01*
X72850475Y-27548371D02*
X72945713Y-27595990D01*
X72945713Y-27595990D02*
X73136189Y-27595990D01*
X73136189Y-27595990D02*
X73231427Y-27643609D01*
X73231427Y-27643609D02*
X73279046Y-27691228D01*
X73279046Y-27691228D02*
X73326665Y-27786466D01*
X73326665Y-27786466D02*
X73326665Y-27976942D01*
X73326665Y-27976942D02*
X73279046Y-28072180D01*
X73279046Y-28072180D02*
X73231427Y-28119800D01*
X73231427Y-28119800D02*
X73136189Y-28167419D01*
X73136189Y-28167419D02*
X72945713Y-28167419D01*
X72945713Y-28167419D02*
X72850475Y-28119800D01*
X72850475Y-28119800D02*
X72802856Y-28072180D01*
X72802856Y-28072180D02*
X72755237Y-27976942D01*
X72755237Y-27976942D02*
X72755237Y-27786466D01*
X72755237Y-27786466D02*
X72802856Y-27691228D01*
X72802856Y-27691228D02*
X72850475Y-27643609D01*
X72850475Y-27643609D02*
X72945713Y-27595990D01*
X72421903Y-27167419D02*
X71755237Y-27167419D01*
X71755237Y-27167419D02*
X72183808Y-28167419D01*
X71374284Y-28072180D02*
X71326665Y-28119800D01*
X71326665Y-28119800D02*
X71374284Y-28167419D01*
X71374284Y-28167419D02*
X71421903Y-28119800D01*
X71421903Y-28119800D02*
X71374284Y-28072180D01*
X71374284Y-28072180D02*
X71374284Y-28167419D01*
X70850475Y-28167419D02*
X70659999Y-28167419D01*
X70659999Y-28167419D02*
X70564761Y-28119800D01*
X70564761Y-28119800D02*
X70517142Y-28072180D01*
X70517142Y-28072180D02*
X70421904Y-27929323D01*
X70421904Y-27929323D02*
X70374285Y-27738847D01*
X70374285Y-27738847D02*
X70374285Y-27357895D01*
X70374285Y-27357895D02*
X70421904Y-27262657D01*
X70421904Y-27262657D02*
X70469523Y-27215038D01*
X70469523Y-27215038D02*
X70564761Y-27167419D01*
X70564761Y-27167419D02*
X70755237Y-27167419D01*
X70755237Y-27167419D02*
X70850475Y-27215038D01*
X70850475Y-27215038D02*
X70898094Y-27262657D01*
X70898094Y-27262657D02*
X70945713Y-27357895D01*
X70945713Y-27357895D02*
X70945713Y-27595990D01*
X70945713Y-27595990D02*
X70898094Y-27691228D01*
X70898094Y-27691228D02*
X70850475Y-27738847D01*
X70850475Y-27738847D02*
X70755237Y-27786466D01*
X70755237Y-27786466D02*
X70564761Y-27786466D01*
X70564761Y-27786466D02*
X70469523Y-27738847D01*
X70469523Y-27738847D02*
X70421904Y-27691228D01*
X70421904Y-27691228D02*
X70374285Y-27595990D01*
X69517142Y-27500752D02*
X69517142Y-28167419D01*
X69755237Y-27119800D02*
X69993332Y-27834085D01*
X69993332Y-27834085D02*
X69374285Y-27834085D01*
X68231427Y-28167419D02*
X68231427Y-27500752D01*
X68231427Y-27595990D02*
X68183808Y-27548371D01*
X68183808Y-27548371D02*
X68088570Y-27500752D01*
X68088570Y-27500752D02*
X67945713Y-27500752D01*
X67945713Y-27500752D02*
X67850475Y-27548371D01*
X67850475Y-27548371D02*
X67802856Y-27643609D01*
X67802856Y-27643609D02*
X67802856Y-28167419D01*
X67802856Y-27643609D02*
X67755237Y-27548371D01*
X67755237Y-27548371D02*
X67659999Y-27500752D01*
X67659999Y-27500752D02*
X67517142Y-27500752D01*
X67517142Y-27500752D02*
X67421903Y-27548371D01*
X67421903Y-27548371D02*
X67374284Y-27643609D01*
X67374284Y-27643609D02*
X67374284Y-28167419D01*
X66898094Y-28167419D02*
X66898094Y-27500752D01*
X66898094Y-27595990D02*
X66850475Y-27548371D01*
X66850475Y-27548371D02*
X66755237Y-27500752D01*
X66755237Y-27500752D02*
X66612380Y-27500752D01*
X66612380Y-27500752D02*
X66517142Y-27548371D01*
X66517142Y-27548371D02*
X66469523Y-27643609D01*
X66469523Y-27643609D02*
X66469523Y-28167419D01*
X66469523Y-27643609D02*
X66421904Y-27548371D01*
X66421904Y-27548371D02*
X66326666Y-27500752D01*
X66326666Y-27500752D02*
X66183809Y-27500752D01*
X66183809Y-27500752D02*
X66088570Y-27548371D01*
X66088570Y-27548371D02*
X66040951Y-27643609D01*
X66040951Y-27643609D02*
X66040951Y-28167419D01*
D10*
X21815000Y-27090000D02*
X21815000Y-27811420D01*
X109755000Y-27090000D02*
X109755000Y-27811420D01*
X21815000Y-27225000D02*
X65252858Y-27225000D01*
X74067143Y-27225000D02*
X109755000Y-27225000D01*
X21815000Y-27225000D02*
X22941504Y-26638579D01*
X21815000Y-27225000D02*
X22941504Y-27811421D01*
X109755000Y-27225000D02*
X108628496Y-27811421D01*
X109755000Y-27225000D02*
X108628496Y-26638579D01*
D15*
X55719523Y-90910752D02*
X55719523Y-91577419D01*
X55957618Y-90529800D02*
X56195713Y-91244085D01*
X56195713Y-91244085D02*
X55576666Y-91244085D01*
X56093332Y-107037419D02*
X55474285Y-107037419D01*
X55474285Y-107037419D02*
X55807618Y-107418371D01*
X55807618Y-107418371D02*
X55664761Y-107418371D01*
X55664761Y-107418371D02*
X55569523Y-107465990D01*
X55569523Y-107465990D02*
X55521904Y-107513609D01*
X55521904Y-107513609D02*
X55474285Y-107608847D01*
X55474285Y-107608847D02*
X55474285Y-107846942D01*
X55474285Y-107846942D02*
X55521904Y-107942180D01*
X55521904Y-107942180D02*
X55569523Y-107989800D01*
X55569523Y-107989800D02*
X55664761Y-108037419D01*
X55664761Y-108037419D02*
X55950475Y-108037419D01*
X55950475Y-108037419D02*
X56045713Y-107989800D01*
X56045713Y-107989800D02*
X56093332Y-107942180D01*
X94437419Y-61980714D02*
X94437419Y-61409286D01*
X94437419Y-61695000D02*
X93437419Y-61695000D01*
X93437419Y-61695000D02*
X93580276Y-61599762D01*
X93580276Y-61599762D02*
X93675514Y-61504524D01*
X93675514Y-61504524D02*
X93723133Y-61409286D01*
X104377419Y-49883095D02*
X104377419Y-49406905D01*
X104377419Y-49406905D02*
X104853609Y-49359286D01*
X104853609Y-49359286D02*
X104805990Y-49406905D01*
X104805990Y-49406905D02*
X104758371Y-49502143D01*
X104758371Y-49502143D02*
X104758371Y-49740238D01*
X104758371Y-49740238D02*
X104805990Y-49835476D01*
X104805990Y-49835476D02*
X104853609Y-49883095D01*
X104853609Y-49883095D02*
X104948847Y-49930714D01*
X104948847Y-49930714D02*
X105186942Y-49930714D01*
X105186942Y-49930714D02*
X105282180Y-49883095D01*
X105282180Y-49883095D02*
X105329800Y-49835476D01*
X105329800Y-49835476D02*
X105377419Y-49740238D01*
X105377419Y-49740238D02*
X105377419Y-49502143D01*
X105377419Y-49502143D02*
X105329800Y-49406905D01*
X105329800Y-49406905D02*
X105282180Y-49359286D01*
X36589285Y-98437419D02*
X37160713Y-98437419D01*
X36874999Y-98437419D02*
X36874999Y-97437419D01*
X36874999Y-97437419D02*
X36970237Y-97580276D01*
X36970237Y-97580276D02*
X37065475Y-97675514D01*
X37065475Y-97675514D02*
X37160713Y-97723133D01*
X86377419Y-49835476D02*
X86377419Y-49645000D01*
X86377419Y-49645000D02*
X86425038Y-49549762D01*
X86425038Y-49549762D02*
X86472657Y-49502143D01*
X86472657Y-49502143D02*
X86615514Y-49406905D01*
X86615514Y-49406905D02*
X86805990Y-49359286D01*
X86805990Y-49359286D02*
X87186942Y-49359286D01*
X87186942Y-49359286D02*
X87282180Y-49406905D01*
X87282180Y-49406905D02*
X87329800Y-49454524D01*
X87329800Y-49454524D02*
X87377419Y-49549762D01*
X87377419Y-49549762D02*
X87377419Y-49740238D01*
X87377419Y-49740238D02*
X87329800Y-49835476D01*
X87329800Y-49835476D02*
X87282180Y-49883095D01*
X87282180Y-49883095D02*
X87186942Y-49930714D01*
X87186942Y-49930714D02*
X86948847Y-49930714D01*
X86948847Y-49930714D02*
X86853609Y-49883095D01*
X86853609Y-49883095D02*
X86805990Y-49835476D01*
X86805990Y-49835476D02*
X86758371Y-49740238D01*
X86758371Y-49740238D02*
X86758371Y-49549762D01*
X86758371Y-49549762D02*
X86805990Y-49454524D01*
X86805990Y-49454524D02*
X86853609Y-49406905D01*
X86853609Y-49406905D02*
X86948847Y-49359286D01*
X99532657Y-61409286D02*
X99485038Y-61456905D01*
X99485038Y-61456905D02*
X99437419Y-61552143D01*
X99437419Y-61552143D02*
X99437419Y-61790238D01*
X99437419Y-61790238D02*
X99485038Y-61885476D01*
X99485038Y-61885476D02*
X99532657Y-61933095D01*
X99532657Y-61933095D02*
X99627895Y-61980714D01*
X99627895Y-61980714D02*
X99723133Y-61980714D01*
X99723133Y-61980714D02*
X99865990Y-61933095D01*
X99865990Y-61933095D02*
X100437419Y-61361667D01*
X100437419Y-61361667D02*
X100437419Y-61980714D01*
X37208332Y-109437419D02*
X36589285Y-109437419D01*
X36589285Y-109437419D02*
X36922618Y-109818371D01*
X36922618Y-109818371D02*
X36779761Y-109818371D01*
X36779761Y-109818371D02*
X36684523Y-109865990D01*
X36684523Y-109865990D02*
X36636904Y-109913609D01*
X36636904Y-109913609D02*
X36589285Y-110008847D01*
X36589285Y-110008847D02*
X36589285Y-110246942D01*
X36589285Y-110246942D02*
X36636904Y-110342180D01*
X36636904Y-110342180D02*
X36684523Y-110389800D01*
X36684523Y-110389800D02*
X36779761Y-110437419D01*
X36779761Y-110437419D02*
X37065475Y-110437419D01*
X37065475Y-110437419D02*
X37160713Y-110389800D01*
X37160713Y-110389800D02*
X37208332Y-110342180D01*
X98377419Y-49311667D02*
X98377419Y-49978333D01*
X98377419Y-49978333D02*
X99377419Y-49549762D01*
X37160713Y-103532657D02*
X37113094Y-103485038D01*
X37113094Y-103485038D02*
X37017856Y-103437419D01*
X37017856Y-103437419D02*
X36779761Y-103437419D01*
X36779761Y-103437419D02*
X36684523Y-103485038D01*
X36684523Y-103485038D02*
X36636904Y-103532657D01*
X36636904Y-103532657D02*
X36589285Y-103627895D01*
X36589285Y-103627895D02*
X36589285Y-103723133D01*
X36589285Y-103723133D02*
X36636904Y-103865990D01*
X36636904Y-103865990D02*
X37208332Y-104437419D01*
X37208332Y-104437419D02*
X36589285Y-104437419D01*
X87770752Y-61885476D02*
X88437419Y-61885476D01*
X87389800Y-61647381D02*
X88104085Y-61409286D01*
X88104085Y-61409286D02*
X88104085Y-62028333D01*
X39254285Y-91487419D02*
X39825713Y-91487419D01*
X39539999Y-91487419D02*
X39539999Y-90487419D01*
X39539999Y-90487419D02*
X39635237Y-90630276D01*
X39635237Y-90630276D02*
X39730475Y-90725514D01*
X39730475Y-90725514D02*
X39825713Y-90773133D01*
X105437419Y-61361667D02*
X105437419Y-61980714D01*
X105437419Y-61980714D02*
X105818371Y-61647381D01*
X105818371Y-61647381D02*
X105818371Y-61790238D01*
X105818371Y-61790238D02*
X105865990Y-61885476D01*
X105865990Y-61885476D02*
X105913609Y-61933095D01*
X105913609Y-61933095D02*
X106008847Y-61980714D01*
X106008847Y-61980714D02*
X106246942Y-61980714D01*
X106246942Y-61980714D02*
X106342180Y-61933095D01*
X106342180Y-61933095D02*
X106389800Y-61885476D01*
X106389800Y-61885476D02*
X106437419Y-61790238D01*
X106437419Y-61790238D02*
X106437419Y-61504524D01*
X106437419Y-61504524D02*
X106389800Y-61409286D01*
X106389800Y-61409286D02*
X106342180Y-61361667D01*
X39465713Y-107092657D02*
X39418094Y-107045038D01*
X39418094Y-107045038D02*
X39322856Y-106997419D01*
X39322856Y-106997419D02*
X39084761Y-106997419D01*
X39084761Y-106997419D02*
X38989523Y-107045038D01*
X38989523Y-107045038D02*
X38941904Y-107092657D01*
X38941904Y-107092657D02*
X38894285Y-107187895D01*
X38894285Y-107187895D02*
X38894285Y-107283133D01*
X38894285Y-107283133D02*
X38941904Y-107425990D01*
X38941904Y-107425990D02*
X39513332Y-107997419D01*
X39513332Y-107997419D02*
X38894285Y-107997419D01*
X36684523Y-91770752D02*
X36684523Y-92437419D01*
X36922618Y-91389800D02*
X37160713Y-92104085D01*
X37160713Y-92104085D02*
X36541666Y-92104085D01*
X92805990Y-49549762D02*
X92758371Y-49454524D01*
X92758371Y-49454524D02*
X92710752Y-49406905D01*
X92710752Y-49406905D02*
X92615514Y-49359286D01*
X92615514Y-49359286D02*
X92567895Y-49359286D01*
X92567895Y-49359286D02*
X92472657Y-49406905D01*
X92472657Y-49406905D02*
X92425038Y-49454524D01*
X92425038Y-49454524D02*
X92377419Y-49549762D01*
X92377419Y-49549762D02*
X92377419Y-49740238D01*
X92377419Y-49740238D02*
X92425038Y-49835476D01*
X92425038Y-49835476D02*
X92472657Y-49883095D01*
X92472657Y-49883095D02*
X92567895Y-49930714D01*
X92567895Y-49930714D02*
X92615514Y-49930714D01*
X92615514Y-49930714D02*
X92710752Y-49883095D01*
X92710752Y-49883095D02*
X92758371Y-49835476D01*
X92758371Y-49835476D02*
X92805990Y-49740238D01*
X92805990Y-49740238D02*
X92805990Y-49549762D01*
X92805990Y-49549762D02*
X92853609Y-49454524D01*
X92853609Y-49454524D02*
X92901228Y-49406905D01*
X92901228Y-49406905D02*
X92996466Y-49359286D01*
X92996466Y-49359286D02*
X93186942Y-49359286D01*
X93186942Y-49359286D02*
X93282180Y-49406905D01*
X93282180Y-49406905D02*
X93329800Y-49454524D01*
X93329800Y-49454524D02*
X93377419Y-49549762D01*
X93377419Y-49549762D02*
X93377419Y-49740238D01*
X93377419Y-49740238D02*
X93329800Y-49835476D01*
X93329800Y-49835476D02*
X93282180Y-49883095D01*
X93282180Y-49883095D02*
X93186942Y-49930714D01*
X93186942Y-49930714D02*
X92996466Y-49930714D01*
X92996466Y-49930714D02*
X92901228Y-49883095D01*
X92901228Y-49883095D02*
X92853609Y-49835476D01*
X92853609Y-49835476D02*
X92805990Y-49740238D01*
X47232615Y-33443966D02*
X46470711Y-33443966D01*
D10*
G36*
X38099687Y-33880076D02*
G01*
X32996041Y-33880076D01*
X32996041Y-33637219D01*
X33138898Y-33637219D01*
X33140642Y-33642587D01*
X33139493Y-33648115D01*
X33150052Y-33671551D01*
X33157996Y-33695998D01*
X33162563Y-33699316D01*
X33164882Y-33704462D01*
X33187196Y-33717213D01*
X33207996Y-33732325D01*
X33213641Y-33732325D01*
X33218543Y-33735126D01*
X33244097Y-33732325D01*
X33269800Y-33732325D01*
X33274366Y-33729007D01*
X33279978Y-33728392D01*
X33299001Y-33711109D01*
X33319800Y-33695998D01*
X33321544Y-33690628D01*
X33325722Y-33686833D01*
X33710326Y-33013775D01*
X33710326Y-33637219D01*
X33729424Y-33695998D01*
X33779424Y-33732325D01*
X33841228Y-33732325D01*
X33891228Y-33695998D01*
X33910326Y-33637219D01*
X34186516Y-33637219D01*
X34205614Y-33695998D01*
X34255614Y-33732325D01*
X34317418Y-33732325D01*
X34367418Y-33695998D01*
X34386516Y-33637219D01*
X34386516Y-32637219D01*
X34376710Y-32607040D01*
X35286417Y-32607040D01*
X35286887Y-32668842D01*
X35620220Y-33668841D01*
X35638130Y-33693104D01*
X35655697Y-33717672D01*
X35656451Y-33717923D01*
X35656925Y-33718565D01*
X35685690Y-33727670D01*
X35714329Y-33737217D01*
X35715089Y-33736976D01*
X35715847Y-33737216D01*
X35744425Y-33727689D01*
X35773251Y-33718565D01*
X35773724Y-33717923D01*
X35774479Y-33717672D01*
X35792033Y-33693120D01*
X35809956Y-33668842D01*
X36058592Y-32922933D01*
X36234136Y-32922933D01*
X36239144Y-32938348D01*
X36239268Y-32954556D01*
X36286887Y-33097412D01*
X36300576Y-33115957D01*
X36311044Y-33136501D01*
X36711761Y-33537219D01*
X36334136Y-33537219D01*
X36275357Y-33556317D01*
X36239030Y-33606317D01*
X36239030Y-33668121D01*
X36275357Y-33718121D01*
X36334136Y-33737219D01*
X36953183Y-33737219D01*
X36975452Y-33729983D01*
X36998582Y-33726320D01*
X37004287Y-33720614D01*
X37011962Y-33718121D01*
X37025727Y-33699174D01*
X37042284Y-33682618D01*
X37043546Y-33674648D01*
X37048289Y-33668121D01*
X37191411Y-33668121D01*
X37227738Y-33718121D01*
X37286517Y-33737219D01*
X37857945Y-33737219D01*
X37916724Y-33718121D01*
X37953051Y-33668121D01*
X37953051Y-33606317D01*
X37916724Y-33556317D01*
X37857945Y-33537219D01*
X37672231Y-33537219D01*
X37672231Y-32926260D01*
X37691996Y-32946025D01*
X37706438Y-32953383D01*
X37717986Y-32964757D01*
X37813223Y-33012376D01*
X37874338Y-33021581D01*
X37929190Y-32993105D01*
X37956830Y-32937826D01*
X37946699Y-32876859D01*
X37902666Y-32833490D01*
X37821944Y-32793129D01*
X37745180Y-32716365D01*
X37655436Y-32581749D01*
X37653784Y-32580443D01*
X37653133Y-32578440D01*
X37629675Y-32561397D01*
X37606941Y-32543436D01*
X37604837Y-32543351D01*
X37603133Y-32542113D01*
X37574143Y-32542113D01*
X37545188Y-32540945D01*
X37543436Y-32542113D01*
X37541329Y-32542113D01*
X37517874Y-32559153D01*
X37493764Y-32575227D01*
X37493033Y-32577201D01*
X37491329Y-32578440D01*
X37482373Y-32606003D01*
X37472312Y-32633188D01*
X37472881Y-32635216D01*
X37472231Y-32637219D01*
X37472231Y-33537219D01*
X37286517Y-33537219D01*
X37227738Y-33556317D01*
X37191411Y-33606317D01*
X37191411Y-33668121D01*
X37048289Y-33668121D01*
X37048289Y-33644703D01*
X37051952Y-33621576D01*
X37048289Y-33614386D01*
X37048289Y-33606317D01*
X37034524Y-33587371D01*
X37023894Y-33566508D01*
X36469157Y-33011770D01*
X36434136Y-32906706D01*
X36434136Y-32851302D01*
X36463941Y-32791692D01*
X36488609Y-32767023D01*
X36548219Y-32737219D01*
X36739100Y-32737219D01*
X36798709Y-32767024D01*
X36834853Y-32803167D01*
X36889920Y-32831226D01*
X36950963Y-32821558D01*
X36994665Y-32777856D01*
X37004333Y-32716813D01*
X36976274Y-32661746D01*
X36928656Y-32614127D01*
X36914213Y-32606768D01*
X36902666Y-32595395D01*
X36807428Y-32547776D01*
X36784630Y-32544342D01*
X36762707Y-32537219D01*
X36524612Y-32537219D01*
X36502688Y-32544342D01*
X36479890Y-32547776D01*
X36384653Y-32595395D01*
X36373104Y-32606769D01*
X36358663Y-32614128D01*
X36311044Y-32661746D01*
X36303685Y-32676188D01*
X36292312Y-32687736D01*
X36244693Y-32782974D01*
X36241259Y-32805771D01*
X36234136Y-32827695D01*
X36234136Y-32922933D01*
X36058592Y-32922933D01*
X36143289Y-32668842D01*
X36143759Y-32607040D01*
X36107812Y-32556766D01*
X36049180Y-32537222D01*
X35990258Y-32555873D01*
X35953553Y-32605597D01*
X35715088Y-33320991D01*
X35476623Y-32605596D01*
X35439918Y-32555873D01*
X35380996Y-32537221D01*
X35322364Y-32556766D01*
X35286417Y-32607040D01*
X34376710Y-32607040D01*
X34367418Y-32578440D01*
X34317418Y-32542113D01*
X34255614Y-32542113D01*
X34205614Y-32578440D01*
X34186516Y-32637219D01*
X34186516Y-33637219D01*
X33910326Y-33637219D01*
X33910326Y-32637219D01*
X33908581Y-32631850D01*
X33909731Y-32626323D01*
X33899170Y-32602885D01*
X33891228Y-32578440D01*
X33886661Y-32575121D01*
X33884342Y-32569975D01*
X33862023Y-32557221D01*
X33841228Y-32542113D01*
X33835583Y-32542113D01*
X33830681Y-32539312D01*
X33805127Y-32542113D01*
X33779424Y-32542113D01*
X33774857Y-32545430D01*
X33769246Y-32546046D01*
X33750222Y-32563328D01*
X33729424Y-32578440D01*
X33727679Y-32583809D01*
X33723502Y-32587605D01*
X33338898Y-33260662D01*
X33338898Y-32637219D01*
X33319800Y-32578440D01*
X33269800Y-32542113D01*
X33207996Y-32542113D01*
X33157996Y-32578440D01*
X33138898Y-32637219D01*
X33138898Y-33637219D01*
X32996041Y-33637219D01*
X32996041Y-32394362D01*
X38099687Y-32394362D01*
X38099687Y-33880076D01*
G37*
D15*
X32632615Y-74043966D02*
X31870711Y-74043966D01*
X32251663Y-74424919D02*
X32251663Y-73663014D01*
X32632615Y-33443966D02*
X31870711Y-33443966D01*
X32251663Y-33824919D02*
X32251663Y-33063014D01*
D10*
G36*
X35604422Y-73557023D02*
G01*
X35668601Y-73621202D01*
X35706516Y-73772861D01*
X35706516Y-74081575D01*
X35668600Y-74233235D01*
X35604424Y-74297413D01*
X35544814Y-74327219D01*
X35401552Y-74327219D01*
X35341942Y-74297414D01*
X35277765Y-74233236D01*
X35239850Y-74081574D01*
X35239850Y-73772862D01*
X35277765Y-73621202D01*
X35341943Y-73557023D01*
X35401552Y-73527219D01*
X35544814Y-73527219D01*
X35604422Y-73557023D01*
G37*
G36*
X38620306Y-74670076D02*
G01*
X32997125Y-74670076D01*
X32997125Y-73458121D01*
X33139982Y-73458121D01*
X33176309Y-73508121D01*
X33235088Y-73527219D01*
X33420802Y-73527219D01*
X33420802Y-74427219D01*
X33439900Y-74485998D01*
X33489900Y-74522325D01*
X33551704Y-74522325D01*
X33601704Y-74485998D01*
X33620802Y-74427219D01*
X33620802Y-74236742D01*
X34039850Y-74236742D01*
X34046973Y-74258665D01*
X34050407Y-74281463D01*
X34098026Y-74376701D01*
X34109399Y-74388248D01*
X34116758Y-74402690D01*
X34164376Y-74450310D01*
X34178819Y-74457669D01*
X34190367Y-74469043D01*
X34285604Y-74516662D01*
X34308402Y-74520095D01*
X34330326Y-74527219D01*
X34520802Y-74527219D01*
X34542725Y-74520095D01*
X34565523Y-74516662D01*
X34660761Y-74469043D01*
X34672309Y-74457668D01*
X34686751Y-74450310D01*
X34734370Y-74402690D01*
X34741727Y-74388249D01*
X34753102Y-74376701D01*
X34800721Y-74281464D01*
X34804154Y-74258665D01*
X34811278Y-74236742D01*
X34811278Y-74093885D01*
X35039850Y-74093885D01*
X35043696Y-74105722D01*
X35042836Y-74118139D01*
X35090455Y-74308614D01*
X35104628Y-74331264D01*
X35116758Y-74355071D01*
X35211996Y-74450311D01*
X35226439Y-74457670D01*
X35237986Y-74469043D01*
X35333223Y-74516662D01*
X35356021Y-74520095D01*
X35377945Y-74527219D01*
X35568421Y-74527219D01*
X35590344Y-74520095D01*
X35613142Y-74516662D01*
X35708380Y-74469043D01*
X35719928Y-74457668D01*
X35734370Y-74450310D01*
X35829608Y-74355071D01*
X35841739Y-74331262D01*
X35855911Y-74308615D01*
X35903530Y-74118139D01*
X35902669Y-74105722D01*
X35906516Y-74093885D01*
X35906516Y-73760552D01*
X35902669Y-73748714D01*
X35903530Y-73736298D01*
X35855911Y-73545822D01*
X35841738Y-73523173D01*
X35829608Y-73499365D01*
X35734370Y-73404127D01*
X35720461Y-73397040D01*
X36758798Y-73397040D01*
X36759268Y-73458842D01*
X37092601Y-74458841D01*
X37110511Y-74483104D01*
X37128078Y-74507672D01*
X37128832Y-74507923D01*
X37129306Y-74508565D01*
X37158071Y-74517670D01*
X37186710Y-74527217D01*
X37187470Y-74526976D01*
X37188228Y-74527216D01*
X37216806Y-74517689D01*
X37245632Y-74508565D01*
X37246105Y-74507923D01*
X37246860Y-74507672D01*
X37264414Y-74483120D01*
X37282337Y-74458842D01*
X37356370Y-74236742D01*
X37706517Y-74236742D01*
X37713640Y-74258665D01*
X37717074Y-74281463D01*
X37764693Y-74376701D01*
X37776066Y-74388248D01*
X37783425Y-74402690D01*
X37831043Y-74450310D01*
X37845486Y-74457669D01*
X37857034Y-74469043D01*
X37952271Y-74516662D01*
X37975069Y-74520095D01*
X37996993Y-74527219D01*
X38235088Y-74527219D01*
X38257011Y-74520095D01*
X38279809Y-74516662D01*
X38375047Y-74469043D01*
X38386595Y-74457668D01*
X38401037Y-74450310D01*
X38448656Y-74402690D01*
X38476714Y-74347622D01*
X38467046Y-74286580D01*
X38423343Y-74242879D01*
X38362301Y-74233211D01*
X38307233Y-74261270D01*
X38271090Y-74297413D01*
X38211481Y-74327219D01*
X38020600Y-74327219D01*
X37960990Y-74297414D01*
X37936323Y-74272746D01*
X37906517Y-74213134D01*
X37906517Y-74022254D01*
X37936322Y-73962644D01*
X37960990Y-73937975D01*
X38020600Y-73908171D01*
X38211481Y-73908171D01*
X38271090Y-73937976D01*
X38307234Y-73974119D01*
X38332327Y-73986905D01*
X38356660Y-74001118D01*
X38359636Y-74000820D01*
X38362301Y-74002178D01*
X38390123Y-73997771D01*
X38418157Y-73994968D01*
X38420389Y-73992977D01*
X38423344Y-73992510D01*
X38443263Y-73972590D01*
X38464294Y-73953846D01*
X38464930Y-73950923D01*
X38467046Y-73948808D01*
X38471452Y-73920984D01*
X38477449Y-73893459D01*
X38429830Y-73417269D01*
X38425432Y-73407254D01*
X38425432Y-73396317D01*
X38413286Y-73379600D01*
X38404978Y-73360682D01*
X38395533Y-73355165D01*
X38389105Y-73346317D01*
X38369453Y-73339932D01*
X38351611Y-73329510D01*
X38340727Y-73330598D01*
X38330326Y-73327219D01*
X37854136Y-73327219D01*
X37795357Y-73346317D01*
X37759030Y-73396317D01*
X37759030Y-73458121D01*
X37795357Y-73508121D01*
X37854136Y-73527219D01*
X38239827Y-73527219D01*
X38258659Y-73715542D01*
X38257011Y-73715294D01*
X38235088Y-73708171D01*
X37996993Y-73708171D01*
X37975069Y-73715294D01*
X37952271Y-73718728D01*
X37857034Y-73766347D01*
X37845485Y-73777721D01*
X37831044Y-73785080D01*
X37783425Y-73832698D01*
X37776066Y-73847140D01*
X37764693Y-73858688D01*
X37717074Y-73953926D01*
X37713640Y-73976723D01*
X37706517Y-73998647D01*
X37706517Y-74236742D01*
X37356370Y-74236742D01*
X37615670Y-73458842D01*
X37616140Y-73397040D01*
X37580193Y-73346766D01*
X37521561Y-73327222D01*
X37462639Y-73345873D01*
X37425934Y-73395597D01*
X37187469Y-74110991D01*
X36949004Y-73395596D01*
X36912299Y-73345873D01*
X36853377Y-73327221D01*
X36794745Y-73346766D01*
X36758798Y-73397040D01*
X35720461Y-73397040D01*
X35719927Y-73396768D01*
X35708380Y-73385395D01*
X35613142Y-73337776D01*
X35590344Y-73334342D01*
X35568421Y-73327219D01*
X35377945Y-73327219D01*
X35356021Y-73334342D01*
X35333223Y-73337776D01*
X35237986Y-73385395D01*
X35226438Y-73396768D01*
X35211996Y-73404127D01*
X35116758Y-73499365D01*
X35104626Y-73523174D01*
X35090455Y-73545823D01*
X35042836Y-73736298D01*
X35043696Y-73748714D01*
X35039850Y-73760552D01*
X35039850Y-74093885D01*
X34811278Y-74093885D01*
X34811278Y-73427219D01*
X34792180Y-73368440D01*
X34742180Y-73332113D01*
X34680376Y-73332113D01*
X34630376Y-73368440D01*
X34611278Y-73427219D01*
X34611278Y-74213134D01*
X34581473Y-74272743D01*
X34556804Y-74297413D01*
X34497195Y-74327219D01*
X34353933Y-74327219D01*
X34294323Y-74297414D01*
X34269656Y-74272746D01*
X34239850Y-74213134D01*
X34239850Y-73427219D01*
X34220752Y-73368440D01*
X34170752Y-73332113D01*
X34108948Y-73332113D01*
X34058948Y-73368440D01*
X34039850Y-73427219D01*
X34039850Y-74236742D01*
X33620802Y-74236742D01*
X33620802Y-73527219D01*
X33806516Y-73527219D01*
X33865295Y-73508121D01*
X33901622Y-73458121D01*
X33901622Y-73396317D01*
X33865295Y-73346317D01*
X33806516Y-73327219D01*
X33235088Y-73327219D01*
X33176309Y-73346317D01*
X33139982Y-73396317D01*
X33139982Y-73458121D01*
X32997125Y-73458121D01*
X32997125Y-73184362D01*
X38620306Y-73184362D01*
X38620306Y-74670076D01*
G37*
D15*
X47232615Y-74043966D02*
X46470711Y-74043966D01*
X56555000Y-89820000D02*
X70305000Y-89820000D01*
X56555000Y-94120000D02*
X70305000Y-94120000D01*
X70305000Y-94120000D02*
X70305000Y-89120000D01*
X70305000Y-89120000D02*
X56555000Y-89120000D01*
X56555000Y-89120000D02*
X56555000Y-94120000D01*
X56485000Y-106260000D02*
X70235000Y-106260000D01*
X56485000Y-110560000D02*
X70235000Y-110560000D01*
X70235000Y-110560000D02*
X70235000Y-105560000D01*
X70235000Y-105560000D02*
X56485000Y-105560000D01*
X56485000Y-105560000D02*
X56485000Y-110560000D01*
X91040000Y-76035000D02*
X91040000Y-62285000D01*
X95340000Y-76035000D02*
X90340000Y-76035000D01*
X90340000Y-76035000D02*
X90340000Y-62285000D01*
X90340000Y-62285000D02*
X95340000Y-62285000D01*
X95340000Y-62285000D02*
X95340000Y-76035000D01*
X106630000Y-35445000D02*
X106630000Y-49195000D01*
X102330000Y-35445000D02*
X107330000Y-35445000D01*
X107330000Y-35445000D02*
X107330000Y-49195000D01*
X107330000Y-49195000D02*
X102330000Y-49195000D01*
X102330000Y-49195000D02*
X102330000Y-35445000D01*
X22535000Y-95040000D02*
X36285000Y-95040000D01*
X22535000Y-99340000D02*
X36285000Y-99340000D01*
X36285000Y-99340000D02*
X36285000Y-94340000D01*
X36285000Y-94340000D02*
X22535000Y-94340000D01*
X22535000Y-94340000D02*
X22535000Y-99340000D01*
X88630000Y-35445000D02*
X88630000Y-49195000D01*
X84330000Y-35445000D02*
X89330000Y-35445000D01*
X89330000Y-35445000D02*
X89330000Y-49195000D01*
X89330000Y-49195000D02*
X84330000Y-49195000D01*
X84330000Y-49195000D02*
X84330000Y-35445000D01*
X97040000Y-76035000D02*
X97040000Y-62285000D01*
X101340000Y-76035000D02*
X96340000Y-76035000D01*
X96340000Y-76035000D02*
X96340000Y-62285000D01*
X96340000Y-62285000D02*
X101340000Y-62285000D01*
X101340000Y-62285000D02*
X101340000Y-76035000D01*
X22535000Y-107040000D02*
X36285000Y-107040000D01*
X22535000Y-111340000D02*
X36285000Y-111340000D01*
X36285000Y-111340000D02*
X36285000Y-106340000D01*
X36285000Y-106340000D02*
X22535000Y-106340000D01*
X22535000Y-106340000D02*
X22535000Y-111340000D01*
X100630000Y-35445000D02*
X100630000Y-49195000D01*
X96330000Y-35445000D02*
X101330000Y-35445000D01*
X101330000Y-35445000D02*
X101330000Y-49195000D01*
X101330000Y-49195000D02*
X96330000Y-49195000D01*
X96330000Y-49195000D02*
X96330000Y-35445000D01*
X22535000Y-101040000D02*
X36285000Y-101040000D01*
X22535000Y-105340000D02*
X36285000Y-105340000D01*
X36285000Y-105340000D02*
X36285000Y-100340000D01*
X36285000Y-100340000D02*
X22535000Y-100340000D01*
X22535000Y-100340000D02*
X22535000Y-105340000D01*
X85040000Y-76035000D02*
X85040000Y-62285000D01*
X89340000Y-76035000D02*
X84340000Y-76035000D01*
X84340000Y-76035000D02*
X84340000Y-62285000D01*
X84340000Y-62285000D02*
X89340000Y-62285000D01*
X89340000Y-62285000D02*
X89340000Y-76035000D01*
X40105000Y-89750000D02*
X53855000Y-89750000D01*
X40105000Y-94050000D02*
X53855000Y-94050000D01*
X53855000Y-94050000D02*
X53855000Y-89050000D01*
X53855000Y-89050000D02*
X40105000Y-89050000D01*
X40105000Y-89050000D02*
X40105000Y-94050000D01*
X103040000Y-76035000D02*
X103040000Y-62285000D01*
X107340000Y-76035000D02*
X102340000Y-76035000D01*
X102340000Y-76035000D02*
X102340000Y-62285000D01*
X102340000Y-62285000D02*
X107340000Y-62285000D01*
X107340000Y-62285000D02*
X107340000Y-76035000D01*
X40045000Y-106260000D02*
X53795000Y-106260000D01*
X40045000Y-110560000D02*
X53795000Y-110560000D01*
X53795000Y-110560000D02*
X53795000Y-105560000D01*
X53795000Y-105560000D02*
X40045000Y-105560000D01*
X40045000Y-105560000D02*
X40045000Y-110560000D01*
X22535000Y-89040000D02*
X36285000Y-89040000D01*
X22535000Y-93340000D02*
X36285000Y-93340000D01*
X36285000Y-93340000D02*
X36285000Y-88340000D01*
X36285000Y-88340000D02*
X22535000Y-88340000D01*
X22535000Y-88340000D02*
X22535000Y-93340000D01*
X94630000Y-35445000D02*
X94630000Y-49195000D01*
X90330000Y-35445000D02*
X95330000Y-35445000D01*
X95330000Y-35445000D02*
X95330000Y-49195000D01*
X95330000Y-49195000D02*
X90330000Y-49195000D01*
X90330000Y-49195000D02*
X90330000Y-35445000D01*
X49536500Y-32352500D02*
X29736500Y-32352500D01*
X29736500Y-32352500D02*
X29736500Y-75152500D01*
X29736500Y-75152500D02*
X49536500Y-75152500D01*
X49536500Y-75152500D02*
X49536500Y-32352500D01*
%LPC*%
D16*
X87120000Y-96710000D03*
X85850000Y-96710000D03*
D17*
X88390000Y-96710000D03*
D18*
X58355000Y-92320000D03*
D19*
X60895000Y-92320000D03*
X63435000Y-92320000D03*
X65975000Y-92320000D03*
D20*
X68515000Y-92320000D03*
D18*
X58285000Y-108760000D03*
D19*
X60825000Y-108760000D03*
X63365000Y-108760000D03*
X65905000Y-108760000D03*
D20*
X68445000Y-108760000D03*
D21*
X77220000Y-100530000D03*
D19*
X74680000Y-100530000D03*
D21*
X93540000Y-74235000D03*
D18*
X93540000Y-71695000D03*
D19*
X93540000Y-69155000D03*
X93540000Y-66615000D03*
D22*
X93540000Y-64075000D03*
D19*
X36365000Y-38307500D03*
X38905000Y-38307500D03*
D21*
X77330000Y-104870000D03*
X74790000Y-104870000D03*
X79870000Y-104870000D03*
D23*
X82260000Y-108070000D03*
D19*
X79720000Y-108070000D03*
X77180000Y-108070000D03*
D23*
X74640000Y-108070000D03*
D18*
X89280000Y-88810000D03*
D21*
X82270000Y-90610000D03*
D19*
X79730000Y-90610000D03*
X77190000Y-90610000D03*
X74650000Y-90610000D03*
X91820000Y-88810000D03*
D21*
X104130000Y-37245000D03*
D18*
X104130000Y-39785000D03*
D19*
X104130000Y-42325000D03*
X104130000Y-44865000D03*
D24*
X104130000Y-47405000D03*
D23*
X44017500Y-52615000D03*
D19*
X41477500Y-52615000D03*
X38937500Y-52615000D03*
D23*
X36397500Y-52615000D03*
D18*
X51037500Y-33355000D03*
D21*
X44027500Y-35155000D03*
D19*
X41487500Y-35155000D03*
X38947500Y-35155000D03*
X36407500Y-35155000D03*
X53577500Y-33355000D03*
D21*
X24335000Y-97540000D03*
D18*
X26875000Y-97540000D03*
D19*
X29415000Y-97540000D03*
X31955000Y-97540000D03*
D20*
X34495000Y-97540000D03*
D16*
X75850000Y-96910000D03*
X74580000Y-96910000D03*
D17*
X77120000Y-96910000D03*
D25*
X106802500Y-29292500D03*
D21*
X86130000Y-37245000D03*
D18*
X86130000Y-39785000D03*
D19*
X86130000Y-42325000D03*
X86130000Y-44865000D03*
D24*
X86130000Y-47405000D03*
D26*
X26645000Y-60557500D03*
D18*
X33882500Y-70942500D03*
D19*
X33882500Y-76022500D03*
D21*
X99540000Y-74235000D03*
D18*
X99540000Y-71695000D03*
D19*
X99540000Y-69155000D03*
X99540000Y-66615000D03*
D22*
X99540000Y-64075000D03*
D21*
X24335000Y-109540000D03*
D18*
X26875000Y-109540000D03*
D19*
X29415000Y-109540000D03*
X31955000Y-109540000D03*
D20*
X34495000Y-109540000D03*
X65992500Y-58322500D03*
X68532500Y-58322500D03*
D25*
X106912500Y-81792500D03*
D27*
X74500000Y-93390000D03*
X77040000Y-93390000D03*
D21*
X49290000Y-53750000D03*
D19*
X51830000Y-53750000D03*
D21*
X98130000Y-37245000D03*
D18*
X98130000Y-39785000D03*
D19*
X98130000Y-42325000D03*
X98130000Y-44865000D03*
D24*
X98130000Y-47405000D03*
D19*
X77535000Y-78750000D03*
X77535000Y-76210000D03*
D18*
X77535000Y-73670000D03*
D19*
X77535000Y-68590000D03*
X77535000Y-66050000D03*
X77535000Y-63510000D03*
D18*
X77535000Y-60970000D03*
D19*
X77535000Y-58430000D03*
X77535000Y-55890000D03*
X77535000Y-53350000D03*
X77535000Y-50810000D03*
D18*
X77535000Y-48270000D03*
D19*
X77535000Y-45730000D03*
X77535000Y-43190000D03*
X77535000Y-40650000D03*
X77535000Y-38110000D03*
D18*
X77535000Y-35570000D03*
D19*
X59755000Y-30490000D03*
X59755000Y-33030000D03*
D18*
X59755000Y-35570000D03*
D19*
X59755000Y-38110000D03*
X59755000Y-40650000D03*
X59755000Y-43190000D03*
X59755000Y-45730000D03*
D18*
X59755000Y-48270000D03*
D19*
X59755000Y-50810000D03*
X59755000Y-53350000D03*
X59755000Y-55890000D03*
X59755000Y-58430000D03*
D18*
X59755000Y-60970000D03*
D19*
X59755000Y-63510000D03*
X59755000Y-66050000D03*
X59755000Y-68590000D03*
X59755000Y-71130000D03*
D18*
X59755000Y-73670000D03*
D19*
X59755000Y-76210000D03*
X59755000Y-78750000D03*
D21*
X24335000Y-103540000D03*
D18*
X26875000Y-103540000D03*
D19*
X29415000Y-103540000D03*
X31955000Y-103540000D03*
D20*
X34495000Y-103540000D03*
D28*
X26702500Y-29992500D03*
D25*
X83212500Y-81792500D03*
D21*
X54972500Y-40782500D03*
X54972500Y-38242500D03*
D29*
X83212500Y-29292500D03*
D30*
X49290000Y-51110000D03*
D19*
X51830000Y-51110000D03*
D21*
X52072500Y-40830000D03*
D18*
X52072500Y-43370000D03*
D24*
X52072500Y-45910000D03*
D19*
X97067500Y-80207500D03*
X91987500Y-80207500D03*
X94527500Y-80207500D03*
X99607500Y-80207500D03*
D25*
X47212500Y-81792500D03*
D26*
X26682500Y-35692500D03*
X26650000Y-54910000D03*
D27*
X84470000Y-93390000D03*
X87010000Y-93390000D03*
D21*
X87540000Y-74235000D03*
D18*
X87540000Y-71695000D03*
D19*
X87540000Y-69155000D03*
X87540000Y-66615000D03*
D22*
X87540000Y-64075000D03*
D18*
X41905000Y-92250000D03*
D19*
X44445000Y-92250000D03*
X46985000Y-92250000D03*
X49525000Y-92250000D03*
D20*
X52065000Y-92250000D03*
X66012500Y-42982500D03*
X68552500Y-42982500D03*
D21*
X88470000Y-100500000D03*
D19*
X85930000Y-100500000D03*
D21*
X54985000Y-59462500D03*
D19*
X54985000Y-56922500D03*
D24*
X30637500Y-80030000D03*
X33177500Y-80030000D03*
D21*
X105540000Y-74235000D03*
D18*
X105540000Y-71695000D03*
D19*
X105540000Y-69155000D03*
X105540000Y-66615000D03*
D22*
X105540000Y-64075000D03*
D26*
X26662500Y-43612500D03*
D21*
X91000000Y-104880000D03*
X85920000Y-104880000D03*
X88460000Y-104880000D03*
D18*
X41845000Y-108760000D03*
D19*
X44385000Y-108760000D03*
X46925000Y-108760000D03*
X49465000Y-108760000D03*
D20*
X52005000Y-108760000D03*
D26*
X26630000Y-49247500D03*
D21*
X24335000Y-91540000D03*
D18*
X26875000Y-91540000D03*
D19*
X29415000Y-91540000D03*
X31955000Y-91540000D03*
D20*
X34495000Y-91540000D03*
D21*
X52097500Y-59375000D03*
D18*
X52097500Y-61915000D03*
D24*
X52097500Y-64455000D03*
D21*
X92130000Y-37245000D03*
D18*
X92130000Y-39785000D03*
D19*
X92130000Y-42325000D03*
X92130000Y-44865000D03*
D24*
X92130000Y-47405000D03*
D31*
X104207500Y-51805000D03*
X101667500Y-51805000D03*
X99127500Y-51805000D03*
X96587500Y-51805000D03*
X94047500Y-51805000D03*
X91507500Y-51805000D03*
D32*
X88967500Y-51805000D03*
X86427500Y-51805000D03*
D31*
X86427500Y-59425000D03*
X88967500Y-59425000D03*
X91507500Y-59425000D03*
X94047500Y-59425000D03*
X96587500Y-59425000D03*
X99127500Y-59425000D03*
X101667500Y-59425000D03*
X104207500Y-59425000D03*
D25*
X27212500Y-39692500D03*
D18*
X48572500Y-33372500D03*
D19*
X30792500Y-33372500D03*
D18*
X48572500Y-74012500D03*
D19*
X30792500Y-74012500D03*
%LPD*%
M02*
