G04 #@! TF.GenerationSoftware,KiCad,Pcbnew,7.0.7*
G04 #@! TF.CreationDate,2024-05-08T01:23:09+03:00*
G04 #@! TF.ProjectId,pico-hd-mcu-v2,7069636f-2d68-4642-9d6d-63752d76322e,rev?*
G04 #@! TF.SameCoordinates,Original*
G04 #@! TF.FileFunction,Legend,Bot*
G04 #@! TF.FilePolarity,Positive*
%FSLAX46Y46*%
G04 Gerber Fmt 4.6, Leading zero omitted, Abs format (unit mm)*
G04 Created by KiCad (PCBNEW 7.0.7) date 2024-05-08 01:23:09*
%MOMM*%
%LPD*%
G01*
G04 APERTURE LIST*
G04 Aperture macros list*
%AMOutline4P*
0 Free polygon, 4 corners , with rotation*
0 The origin of the aperture is its center*
0 number of corners: always 4*
0 $1 to $8 corner X, Y*
0 $9 Rotation angle, in degrees counterclockwise*
0 create outline with 4 corners*
4,1,4,$1,$2,$3,$4,$5,$6,$7,$8,$1,$2,$9*%
%AMOutline5P*
0 Free polygon, 5 corners , with rotation*
0 The origin of the aperture is its center*
0 number of corners: always 5*
0 $1 to $10 corner X, Y*
0 $11 Rotation angle, in degrees counterclockwise*
0 create outline with 5 corners*
4,1,5,$1,$2,$3,$4,$5,$6,$7,$8,$9,$10,$1,$2,$11*%
%AMOutline6P*
0 Free polygon, 6 corners , with rotation*
0 The origin of the aperture is its center*
0 number of corners: always 6*
0 $1 to $12 corner X, Y*
0 $13 Rotation angle, in degrees counterclockwise*
0 create outline with 6 corners*
4,1,6,$1,$2,$3,$4,$5,$6,$7,$8,$9,$10,$11,$12,$1,$2,$13*%
%AMOutline7P*
0 Free polygon, 7 corners , with rotation*
0 The origin of the aperture is its center*
0 number of corners: always 7*
0 $1 to $14 corner X, Y*
0 $15 Rotation angle, in degrees counterclockwise*
0 create outline with 7 corners*
4,1,7,$1,$2,$3,$4,$5,$6,$7,$8,$9,$10,$11,$12,$13,$14,$1,$2,$15*%
%AMOutline8P*
0 Free polygon, 8 corners , with rotation*
0 The origin of the aperture is its center*
0 number of corners: always 8*
0 $1 to $16 corner X, Y*
0 $17 Rotation angle, in degrees counterclockwise*
0 create outline with 8 corners*
4,1,8,$1,$2,$3,$4,$5,$6,$7,$8,$9,$10,$11,$12,$13,$14,$15,$16,$1,$2,$17*%
G04 Aperture macros list end*
%ADD10C,0.200000*%
%ADD11C,0.120000*%
%ADD12C,0.150000*%
%ADD13C,0.100000*%
%ADD14C,0.300000*%
%ADD15R,1.700000X1.700000*%
%ADD16O,1.700000X1.700000*%
%ADD17C,1.700000*%
%ADD18Outline5P,-0.850000X0.510000X-0.510000X0.850000X0.850000X0.850000X0.850000X-0.850000X-0.850000X-0.850000X180.000000*%
%ADD19Outline5P,-0.850000X0.510000X-0.510000X0.850000X0.850000X0.850000X0.850000X-0.850000X-0.850000X-0.850000X0.000000*%
%ADD20O,6.000000X2.000000*%
%ADD21Outline5P,-0.850000X0.510000X-0.510000X0.850000X0.850000X0.850000X0.850000X-0.850000X-0.850000X-0.850000X90.000000*%
%ADD22R,6.000000X2.000000*%
%ADD23Outline4P,-0.850000X-0.850000X0.850000X-0.850000X0.850000X0.850000X-0.850000X0.850000X0.000000*%
%ADD24O,1.600000X2.400000*%
%ADD25R,1.600000X2.400000*%
G04 APERTURE END LIST*
D10*
X61005000Y-43944600D02*
X67165000Y-43944600D01*
X67165000Y-50810000D01*
X61005000Y-50810000D01*
X61005000Y-43944600D01*
X61025000Y-28604600D02*
X67185000Y-28604600D01*
X67185000Y-35470000D01*
X61025000Y-35470000D01*
X61025000Y-28604600D01*
D11*
X79774140Y-28009661D02*
X79774140Y-27485851D01*
X79774140Y-27485851D02*
X80297950Y-27433470D01*
X80297950Y-27433470D02*
X80245569Y-27485851D01*
X80245569Y-27485851D02*
X80193188Y-27590613D01*
X80193188Y-27590613D02*
X80193188Y-27852518D01*
X80193188Y-27852518D02*
X80245569Y-27957280D01*
X80245569Y-27957280D02*
X80297950Y-28009661D01*
X80297950Y-28009661D02*
X80402712Y-28062042D01*
X80402712Y-28062042D02*
X80664617Y-28062042D01*
X80664617Y-28062042D02*
X80769379Y-28009661D01*
X80769379Y-28009661D02*
X80821760Y-27957280D01*
X80821760Y-27957280D02*
X80874140Y-27852518D01*
X80874140Y-27852518D02*
X80874140Y-27590613D01*
X80874140Y-27590613D02*
X80821760Y-27485851D01*
X80821760Y-27485851D02*
X80769379Y-27433470D01*
X79774140Y-28376327D02*
X80874140Y-28742994D01*
X80874140Y-28742994D02*
X79774140Y-29109661D01*
X79826521Y-30890613D02*
X79774140Y-30785851D01*
X79774140Y-30785851D02*
X79774140Y-30628708D01*
X79774140Y-30628708D02*
X79826521Y-30471565D01*
X79826521Y-30471565D02*
X79931283Y-30366803D01*
X79931283Y-30366803D02*
X80036045Y-30314422D01*
X80036045Y-30314422D02*
X80245569Y-30262041D01*
X80245569Y-30262041D02*
X80402712Y-30262041D01*
X80402712Y-30262041D02*
X80612236Y-30314422D01*
X80612236Y-30314422D02*
X80716998Y-30366803D01*
X80716998Y-30366803D02*
X80821760Y-30471565D01*
X80821760Y-30471565D02*
X80874140Y-30628708D01*
X80874140Y-30628708D02*
X80874140Y-30733470D01*
X80874140Y-30733470D02*
X80821760Y-30890613D01*
X80821760Y-30890613D02*
X80769379Y-30942994D01*
X80769379Y-30942994D02*
X80402712Y-30942994D01*
X80402712Y-30942994D02*
X80402712Y-30733470D01*
X80769379Y-32881089D02*
X80821760Y-32828708D01*
X80821760Y-32828708D02*
X80874140Y-32671565D01*
X80874140Y-32671565D02*
X80874140Y-32566803D01*
X80874140Y-32566803D02*
X80821760Y-32409660D01*
X80821760Y-32409660D02*
X80716998Y-32304898D01*
X80716998Y-32304898D02*
X80612236Y-32252517D01*
X80612236Y-32252517D02*
X80402712Y-32200136D01*
X80402712Y-32200136D02*
X80245569Y-32200136D01*
X80245569Y-32200136D02*
X80036045Y-32252517D01*
X80036045Y-32252517D02*
X79931283Y-32304898D01*
X79931283Y-32304898D02*
X79826521Y-32409660D01*
X79826521Y-32409660D02*
X79774140Y-32566803D01*
X79774140Y-32566803D02*
X79774140Y-32671565D01*
X79774140Y-32671565D02*
X79826521Y-32828708D01*
X79826521Y-32828708D02*
X79878902Y-32881089D01*
X80874140Y-33352517D02*
X79774140Y-33352517D01*
X80874140Y-33981089D02*
X80245569Y-33509660D01*
X79774140Y-33981089D02*
X80402712Y-33352517D01*
X80769379Y-35919184D02*
X80821760Y-35866803D01*
X80821760Y-35866803D02*
X80874140Y-35709660D01*
X80874140Y-35709660D02*
X80874140Y-35604898D01*
X80874140Y-35604898D02*
X80821760Y-35447755D01*
X80821760Y-35447755D02*
X80716998Y-35342993D01*
X80716998Y-35342993D02*
X80612236Y-35290612D01*
X80612236Y-35290612D02*
X80402712Y-35238231D01*
X80402712Y-35238231D02*
X80245569Y-35238231D01*
X80245569Y-35238231D02*
X80036045Y-35290612D01*
X80036045Y-35290612D02*
X79931283Y-35342993D01*
X79931283Y-35342993D02*
X79826521Y-35447755D01*
X79826521Y-35447755D02*
X79774140Y-35604898D01*
X79774140Y-35604898D02*
X79774140Y-35709660D01*
X79774140Y-35709660D02*
X79826521Y-35866803D01*
X79826521Y-35866803D02*
X79878902Y-35919184D01*
X80821760Y-36338231D02*
X80874140Y-36495374D01*
X80874140Y-36495374D02*
X80874140Y-36757279D01*
X80874140Y-36757279D02*
X80821760Y-36862041D01*
X80821760Y-36862041D02*
X80769379Y-36914422D01*
X80769379Y-36914422D02*
X80664617Y-36966803D01*
X80664617Y-36966803D02*
X80559855Y-36966803D01*
X80559855Y-36966803D02*
X80455093Y-36914422D01*
X80455093Y-36914422D02*
X80402712Y-36862041D01*
X80402712Y-36862041D02*
X80350331Y-36757279D01*
X80350331Y-36757279D02*
X80297950Y-36547755D01*
X80297950Y-36547755D02*
X80245569Y-36442993D01*
X80245569Y-36442993D02*
X80193188Y-36390612D01*
X80193188Y-36390612D02*
X80088426Y-36338231D01*
X80088426Y-36338231D02*
X79983664Y-36338231D01*
X79983664Y-36338231D02*
X79878902Y-36390612D01*
X79878902Y-36390612D02*
X79826521Y-36442993D01*
X79826521Y-36442993D02*
X79774140Y-36547755D01*
X79774140Y-36547755D02*
X79774140Y-36809660D01*
X79774140Y-36809660D02*
X79826521Y-36966803D01*
X80874140Y-38276326D02*
X79774140Y-38276326D01*
X79774140Y-38276326D02*
X79774140Y-38538231D01*
X79774140Y-38538231D02*
X79826521Y-38695374D01*
X79826521Y-38695374D02*
X79931283Y-38800136D01*
X79931283Y-38800136D02*
X80036045Y-38852517D01*
X80036045Y-38852517D02*
X80245569Y-38904898D01*
X80245569Y-38904898D02*
X80402712Y-38904898D01*
X80402712Y-38904898D02*
X80612236Y-38852517D01*
X80612236Y-38852517D02*
X80716998Y-38800136D01*
X80716998Y-38800136D02*
X80821760Y-38695374D01*
X80821760Y-38695374D02*
X80874140Y-38538231D01*
X80874140Y-38538231D02*
X80874140Y-38276326D01*
D12*
X63289819Y-45108095D02*
X62813628Y-44774762D01*
X63289819Y-44536667D02*
X62289819Y-44536667D01*
X62289819Y-44536667D02*
X62289819Y-44917619D01*
X62289819Y-44917619D02*
X62337438Y-45012857D01*
X62337438Y-45012857D02*
X62385057Y-45060476D01*
X62385057Y-45060476D02*
X62480295Y-45108095D01*
X62480295Y-45108095D02*
X62623152Y-45108095D01*
X62623152Y-45108095D02*
X62718390Y-45060476D01*
X62718390Y-45060476D02*
X62766009Y-45012857D01*
X62766009Y-45012857D02*
X62813628Y-44917619D01*
X62813628Y-44917619D02*
X62813628Y-44536667D01*
X63289819Y-45536667D02*
X62289819Y-45536667D01*
X62289819Y-45536667D02*
X62289819Y-45917619D01*
X62289819Y-45917619D02*
X62337438Y-46012857D01*
X62337438Y-46012857D02*
X62385057Y-46060476D01*
X62385057Y-46060476D02*
X62480295Y-46108095D01*
X62480295Y-46108095D02*
X62623152Y-46108095D01*
X62623152Y-46108095D02*
X62718390Y-46060476D01*
X62718390Y-46060476D02*
X62766009Y-46012857D01*
X62766009Y-46012857D02*
X62813628Y-45917619D01*
X62813628Y-45917619D02*
X62813628Y-45536667D01*
X63289819Y-46536667D02*
X62289819Y-46536667D01*
X62289819Y-46536667D02*
X63004104Y-46870000D01*
X63004104Y-46870000D02*
X62289819Y-47203333D01*
X62289819Y-47203333D02*
X63289819Y-47203333D01*
D13*
X29139003Y-20212538D02*
X29234241Y-20164919D01*
X29234241Y-20164919D02*
X29377098Y-20164919D01*
X29377098Y-20164919D02*
X29519955Y-20212538D01*
X29519955Y-20212538D02*
X29615193Y-20307776D01*
X29615193Y-20307776D02*
X29662812Y-20403014D01*
X29662812Y-20403014D02*
X29710431Y-20593490D01*
X29710431Y-20593490D02*
X29710431Y-20736347D01*
X29710431Y-20736347D02*
X29662812Y-20926823D01*
X29662812Y-20926823D02*
X29615193Y-21022061D01*
X29615193Y-21022061D02*
X29519955Y-21117300D01*
X29519955Y-21117300D02*
X29377098Y-21164919D01*
X29377098Y-21164919D02*
X29281860Y-21164919D01*
X29281860Y-21164919D02*
X29139003Y-21117300D01*
X29139003Y-21117300D02*
X29091384Y-21069680D01*
X29091384Y-21069680D02*
X29091384Y-20736347D01*
X29091384Y-20736347D02*
X29281860Y-20736347D01*
X28662812Y-21164919D02*
X28662812Y-20164919D01*
X28662812Y-20164919D02*
X28091384Y-21164919D01*
X28091384Y-21164919D02*
X28091384Y-20164919D01*
X27615193Y-21164919D02*
X27615193Y-20164919D01*
X27615193Y-20164919D02*
X27377098Y-20164919D01*
X27377098Y-20164919D02*
X27234241Y-20212538D01*
X27234241Y-20212538D02*
X27139003Y-20307776D01*
X27139003Y-20307776D02*
X27091384Y-20403014D01*
X27091384Y-20403014D02*
X27043765Y-20593490D01*
X27043765Y-20593490D02*
X27043765Y-20736347D01*
X27043765Y-20736347D02*
X27091384Y-20926823D01*
X27091384Y-20926823D02*
X27139003Y-21022061D01*
X27139003Y-21022061D02*
X27234241Y-21117300D01*
X27234241Y-21117300D02*
X27377098Y-21164919D01*
X27377098Y-21164919D02*
X27615193Y-21164919D01*
X28747187Y-34832419D02*
X29080520Y-34356228D01*
X29318615Y-34832419D02*
X29318615Y-33832419D01*
X29318615Y-33832419D02*
X28937663Y-33832419D01*
X28937663Y-33832419D02*
X28842425Y-33880038D01*
X28842425Y-33880038D02*
X28794806Y-33927657D01*
X28794806Y-33927657D02*
X28747187Y-34022895D01*
X28747187Y-34022895D02*
X28747187Y-34165752D01*
X28747187Y-34165752D02*
X28794806Y-34260990D01*
X28794806Y-34260990D02*
X28842425Y-34308609D01*
X28842425Y-34308609D02*
X28937663Y-34356228D01*
X28937663Y-34356228D02*
X29318615Y-34356228D01*
X28318615Y-34832419D02*
X28318615Y-34165752D01*
X28318615Y-33832419D02*
X28366234Y-33880038D01*
X28366234Y-33880038D02*
X28318615Y-33927657D01*
X28318615Y-33927657D02*
X28270996Y-33880038D01*
X28270996Y-33880038D02*
X28318615Y-33832419D01*
X28318615Y-33832419D02*
X28318615Y-33927657D01*
X27175758Y-33832419D02*
X26509092Y-33832419D01*
X26509092Y-33832419D02*
X26937663Y-34832419D01*
X29445313Y-40507419D02*
X29778646Y-40031228D01*
X30016741Y-40507419D02*
X30016741Y-39507419D01*
X30016741Y-39507419D02*
X29635789Y-39507419D01*
X29635789Y-39507419D02*
X29540551Y-39555038D01*
X29540551Y-39555038D02*
X29492932Y-39602657D01*
X29492932Y-39602657D02*
X29445313Y-39697895D01*
X29445313Y-39697895D02*
X29445313Y-39840752D01*
X29445313Y-39840752D02*
X29492932Y-39935990D01*
X29492932Y-39935990D02*
X29540551Y-39983609D01*
X29540551Y-39983609D02*
X29635789Y-40031228D01*
X29635789Y-40031228D02*
X30016741Y-40031228D01*
X28873884Y-40507419D02*
X28969122Y-40459800D01*
X28969122Y-40459800D02*
X29016741Y-40412180D01*
X29016741Y-40412180D02*
X29064360Y-40316942D01*
X29064360Y-40316942D02*
X29064360Y-40031228D01*
X29064360Y-40031228D02*
X29016741Y-39935990D01*
X29016741Y-39935990D02*
X28969122Y-39888371D01*
X28969122Y-39888371D02*
X28873884Y-39840752D01*
X28873884Y-39840752D02*
X28731027Y-39840752D01*
X28731027Y-39840752D02*
X28635789Y-39888371D01*
X28635789Y-39888371D02*
X28588170Y-39935990D01*
X28588170Y-39935990D02*
X28540551Y-40031228D01*
X28540551Y-40031228D02*
X28540551Y-40316942D01*
X28540551Y-40316942D02*
X28588170Y-40412180D01*
X28588170Y-40412180D02*
X28635789Y-40459800D01*
X28635789Y-40459800D02*
X28731027Y-40507419D01*
X28731027Y-40507419D02*
X28873884Y-40507419D01*
X27445312Y-39507419D02*
X26826265Y-39507419D01*
X26826265Y-39507419D02*
X27159598Y-39888371D01*
X27159598Y-39888371D02*
X27016741Y-39888371D01*
X27016741Y-39888371D02*
X26921503Y-39935990D01*
X26921503Y-39935990D02*
X26873884Y-39983609D01*
X26873884Y-39983609D02*
X26826265Y-40078847D01*
X26826265Y-40078847D02*
X26826265Y-40316942D01*
X26826265Y-40316942D02*
X26873884Y-40412180D01*
X26873884Y-40412180D02*
X26921503Y-40459800D01*
X26921503Y-40459800D02*
X27016741Y-40507419D01*
X27016741Y-40507419D02*
X27302455Y-40507419D01*
X27302455Y-40507419D02*
X27397693Y-40459800D01*
X27397693Y-40459800D02*
X27445312Y-40412180D01*
D11*
X80785859Y-65030338D02*
X80785859Y-65554148D01*
X80785859Y-65554148D02*
X80262049Y-65606529D01*
X80262049Y-65606529D02*
X80314430Y-65554148D01*
X80314430Y-65554148D02*
X80366811Y-65449386D01*
X80366811Y-65449386D02*
X80366811Y-65187481D01*
X80366811Y-65187481D02*
X80314430Y-65082719D01*
X80314430Y-65082719D02*
X80262049Y-65030338D01*
X80262049Y-65030338D02*
X80157287Y-64977957D01*
X80157287Y-64977957D02*
X79895382Y-64977957D01*
X79895382Y-64977957D02*
X79790620Y-65030338D01*
X79790620Y-65030338D02*
X79738240Y-65082719D01*
X79738240Y-65082719D02*
X79685859Y-65187481D01*
X79685859Y-65187481D02*
X79685859Y-65449386D01*
X79685859Y-65449386D02*
X79738240Y-65554148D01*
X79738240Y-65554148D02*
X79790620Y-65606529D01*
X80785859Y-64663672D02*
X79685859Y-64297005D01*
X79685859Y-64297005D02*
X80785859Y-63930338D01*
X80733478Y-62149386D02*
X80785859Y-62254148D01*
X80785859Y-62254148D02*
X80785859Y-62411291D01*
X80785859Y-62411291D02*
X80733478Y-62568434D01*
X80733478Y-62568434D02*
X80628716Y-62673196D01*
X80628716Y-62673196D02*
X80523954Y-62725577D01*
X80523954Y-62725577D02*
X80314430Y-62777958D01*
X80314430Y-62777958D02*
X80157287Y-62777958D01*
X80157287Y-62777958D02*
X79947763Y-62725577D01*
X79947763Y-62725577D02*
X79843001Y-62673196D01*
X79843001Y-62673196D02*
X79738240Y-62568434D01*
X79738240Y-62568434D02*
X79685859Y-62411291D01*
X79685859Y-62411291D02*
X79685859Y-62306529D01*
X79685859Y-62306529D02*
X79738240Y-62149386D01*
X79738240Y-62149386D02*
X79790620Y-62097005D01*
X79790620Y-62097005D02*
X80157287Y-62097005D01*
X80157287Y-62097005D02*
X80157287Y-62306529D01*
X79790620Y-60158910D02*
X79738240Y-60211291D01*
X79738240Y-60211291D02*
X79685859Y-60368434D01*
X79685859Y-60368434D02*
X79685859Y-60473196D01*
X79685859Y-60473196D02*
X79738240Y-60630339D01*
X79738240Y-60630339D02*
X79843001Y-60735101D01*
X79843001Y-60735101D02*
X79947763Y-60787482D01*
X79947763Y-60787482D02*
X80157287Y-60839863D01*
X80157287Y-60839863D02*
X80314430Y-60839863D01*
X80314430Y-60839863D02*
X80523954Y-60787482D01*
X80523954Y-60787482D02*
X80628716Y-60735101D01*
X80628716Y-60735101D02*
X80733478Y-60630339D01*
X80733478Y-60630339D02*
X80785859Y-60473196D01*
X80785859Y-60473196D02*
X80785859Y-60368434D01*
X80785859Y-60368434D02*
X80733478Y-60211291D01*
X80733478Y-60211291D02*
X80681097Y-60158910D01*
X79685859Y-59687482D02*
X80785859Y-59687482D01*
X79685859Y-59058910D02*
X80314430Y-59530339D01*
X80785859Y-59058910D02*
X80157287Y-59687482D01*
X79790620Y-57120815D02*
X79738240Y-57173196D01*
X79738240Y-57173196D02*
X79685859Y-57330339D01*
X79685859Y-57330339D02*
X79685859Y-57435101D01*
X79685859Y-57435101D02*
X79738240Y-57592244D01*
X79738240Y-57592244D02*
X79843001Y-57697006D01*
X79843001Y-57697006D02*
X79947763Y-57749387D01*
X79947763Y-57749387D02*
X80157287Y-57801768D01*
X80157287Y-57801768D02*
X80314430Y-57801768D01*
X80314430Y-57801768D02*
X80523954Y-57749387D01*
X80523954Y-57749387D02*
X80628716Y-57697006D01*
X80628716Y-57697006D02*
X80733478Y-57592244D01*
X80733478Y-57592244D02*
X80785859Y-57435101D01*
X80785859Y-57435101D02*
X80785859Y-57330339D01*
X80785859Y-57330339D02*
X80733478Y-57173196D01*
X80733478Y-57173196D02*
X80681097Y-57120815D01*
X79738240Y-56701768D02*
X79685859Y-56544625D01*
X79685859Y-56544625D02*
X79685859Y-56282720D01*
X79685859Y-56282720D02*
X79738240Y-56177958D01*
X79738240Y-56177958D02*
X79790620Y-56125577D01*
X79790620Y-56125577D02*
X79895382Y-56073196D01*
X79895382Y-56073196D02*
X80000144Y-56073196D01*
X80000144Y-56073196D02*
X80104906Y-56125577D01*
X80104906Y-56125577D02*
X80157287Y-56177958D01*
X80157287Y-56177958D02*
X80209668Y-56282720D01*
X80209668Y-56282720D02*
X80262049Y-56492244D01*
X80262049Y-56492244D02*
X80314430Y-56597006D01*
X80314430Y-56597006D02*
X80366811Y-56649387D01*
X80366811Y-56649387D02*
X80471573Y-56701768D01*
X80471573Y-56701768D02*
X80576335Y-56701768D01*
X80576335Y-56701768D02*
X80681097Y-56649387D01*
X80681097Y-56649387D02*
X80733478Y-56597006D01*
X80733478Y-56597006D02*
X80785859Y-56492244D01*
X80785859Y-56492244D02*
X80785859Y-56230339D01*
X80785859Y-56230339D02*
X80733478Y-56073196D01*
X79685859Y-54763673D02*
X80785859Y-54763673D01*
X80785859Y-54763673D02*
X80785859Y-54501768D01*
X80785859Y-54501768D02*
X80733478Y-54344625D01*
X80733478Y-54344625D02*
X80628716Y-54239863D01*
X80628716Y-54239863D02*
X80523954Y-54187482D01*
X80523954Y-54187482D02*
X80314430Y-54135101D01*
X80314430Y-54135101D02*
X80157287Y-54135101D01*
X80157287Y-54135101D02*
X79947763Y-54187482D01*
X79947763Y-54187482D02*
X79843001Y-54239863D01*
X79843001Y-54239863D02*
X79738240Y-54344625D01*
X79738240Y-54344625D02*
X79685859Y-54501768D01*
X79685859Y-54501768D02*
X79685859Y-54763673D01*
D13*
X28883289Y-26894919D02*
X29454717Y-26894919D01*
X29169003Y-26894919D02*
X29169003Y-25894919D01*
X29169003Y-25894919D02*
X29264241Y-26037776D01*
X29264241Y-26037776D02*
X29359479Y-26133014D01*
X29359479Y-26133014D02*
X29454717Y-26180633D01*
X28502336Y-25990157D02*
X28454717Y-25942538D01*
X28454717Y-25942538D02*
X28359479Y-25894919D01*
X28359479Y-25894919D02*
X28121384Y-25894919D01*
X28121384Y-25894919D02*
X28026146Y-25942538D01*
X28026146Y-25942538D02*
X27978527Y-25990157D01*
X27978527Y-25990157D02*
X27930908Y-26085395D01*
X27930908Y-26085395D02*
X27930908Y-26180633D01*
X27930908Y-26180633D02*
X27978527Y-26323490D01*
X27978527Y-26323490D02*
X28549955Y-26894919D01*
X28549955Y-26894919D02*
X27930908Y-26894919D01*
X27645193Y-25894919D02*
X27311860Y-26894919D01*
X27311860Y-26894919D02*
X26978527Y-25894919D01*
D12*
X65769819Y-29546191D02*
X64769819Y-29546191D01*
X64817438Y-30546190D02*
X64769819Y-30450952D01*
X64769819Y-30450952D02*
X64769819Y-30308095D01*
X64769819Y-30308095D02*
X64817438Y-30165238D01*
X64817438Y-30165238D02*
X64912676Y-30070000D01*
X64912676Y-30070000D02*
X65007914Y-30022381D01*
X65007914Y-30022381D02*
X65198390Y-29974762D01*
X65198390Y-29974762D02*
X65341247Y-29974762D01*
X65341247Y-29974762D02*
X65531723Y-30022381D01*
X65531723Y-30022381D02*
X65626961Y-30070000D01*
X65626961Y-30070000D02*
X65722200Y-30165238D01*
X65722200Y-30165238D02*
X65769819Y-30308095D01*
X65769819Y-30308095D02*
X65769819Y-30403333D01*
X65769819Y-30403333D02*
X65722200Y-30546190D01*
X65722200Y-30546190D02*
X65674580Y-30593809D01*
X65674580Y-30593809D02*
X65341247Y-30593809D01*
X65341247Y-30593809D02*
X65341247Y-30403333D01*
X65769819Y-31022381D02*
X64769819Y-31022381D01*
X64769819Y-31022381D02*
X65769819Y-31593809D01*
X65769819Y-31593809D02*
X64769819Y-31593809D01*
D14*
X102797632Y-22268328D02*
X102797632Y-20768328D01*
X102797632Y-22196900D02*
X102940489Y-22268328D01*
X102940489Y-22268328D02*
X103226203Y-22268328D01*
X103226203Y-22268328D02*
X103369060Y-22196900D01*
X103369060Y-22196900D02*
X103440489Y-22125471D01*
X103440489Y-22125471D02*
X103511917Y-21982614D01*
X103511917Y-21982614D02*
X103511917Y-21554042D01*
X103511917Y-21554042D02*
X103440489Y-21411185D01*
X103440489Y-21411185D02*
X103369060Y-21339757D01*
X103369060Y-21339757D02*
X103226203Y-21268328D01*
X103226203Y-21268328D02*
X102940489Y-21268328D01*
X102940489Y-21268328D02*
X102797632Y-21339757D01*
X101511917Y-22196900D02*
X101654774Y-22268328D01*
X101654774Y-22268328D02*
X101940489Y-22268328D01*
X101940489Y-22268328D02*
X102083346Y-22196900D01*
X102083346Y-22196900D02*
X102154774Y-22054042D01*
X102154774Y-22054042D02*
X102154774Y-21482614D01*
X102154774Y-21482614D02*
X102083346Y-21339757D01*
X102083346Y-21339757D02*
X101940489Y-21268328D01*
X101940489Y-21268328D02*
X101654774Y-21268328D01*
X101654774Y-21268328D02*
X101511917Y-21339757D01*
X101511917Y-21339757D02*
X101440489Y-21482614D01*
X101440489Y-21482614D02*
X101440489Y-21625471D01*
X101440489Y-21625471D02*
X102154774Y-21768328D01*
X100797632Y-21268328D02*
X100797632Y-22268328D01*
X100797632Y-21411185D02*
X100726203Y-21339757D01*
X100726203Y-21339757D02*
X100583346Y-21268328D01*
X100583346Y-21268328D02*
X100369060Y-21268328D01*
X100369060Y-21268328D02*
X100226203Y-21339757D01*
X100226203Y-21339757D02*
X100154775Y-21482614D01*
X100154775Y-21482614D02*
X100154775Y-22268328D01*
X99226203Y-22268328D02*
X99369060Y-22196900D01*
X99369060Y-22196900D02*
X99440489Y-22125471D01*
X99440489Y-22125471D02*
X99511917Y-21982614D01*
X99511917Y-21982614D02*
X99511917Y-21554042D01*
X99511917Y-21554042D02*
X99440489Y-21411185D01*
X99440489Y-21411185D02*
X99369060Y-21339757D01*
X99369060Y-21339757D02*
X99226203Y-21268328D01*
X99226203Y-21268328D02*
X99011917Y-21268328D01*
X99011917Y-21268328D02*
X98869060Y-21339757D01*
X98869060Y-21339757D02*
X98797632Y-21411185D01*
X98797632Y-21411185D02*
X98726203Y-21554042D01*
X98726203Y-21554042D02*
X98726203Y-21982614D01*
X98726203Y-21982614D02*
X98797632Y-22125471D01*
X98797632Y-22125471D02*
X98869060Y-22196900D01*
X98869060Y-22196900D02*
X99011917Y-22268328D01*
X99011917Y-22268328D02*
X99226203Y-22268328D01*
X97869060Y-22268328D02*
X98011917Y-22196900D01*
X98011917Y-22196900D02*
X98083346Y-22054042D01*
X98083346Y-22054042D02*
X98083346Y-20768328D01*
X97297632Y-22268328D02*
X97297632Y-20768328D01*
X97154775Y-21696900D02*
X96726203Y-22268328D01*
X96726203Y-21268328D02*
X97297632Y-21839757D01*
X103440489Y-24683328D02*
X103440489Y-23183328D01*
X102797632Y-24683328D02*
X102797632Y-23897614D01*
X102797632Y-23897614D02*
X102869060Y-23754757D01*
X102869060Y-23754757D02*
X103011917Y-23683328D01*
X103011917Y-23683328D02*
X103226203Y-23683328D01*
X103226203Y-23683328D02*
X103369060Y-23754757D01*
X103369060Y-23754757D02*
X103440489Y-23826185D01*
X101440489Y-24683328D02*
X101440489Y-23183328D01*
X101440489Y-24611900D02*
X101583346Y-24683328D01*
X101583346Y-24683328D02*
X101869060Y-24683328D01*
X101869060Y-24683328D02*
X102011917Y-24611900D01*
X102011917Y-24611900D02*
X102083346Y-24540471D01*
X102083346Y-24540471D02*
X102154774Y-24397614D01*
X102154774Y-24397614D02*
X102154774Y-23969042D01*
X102154774Y-23969042D02*
X102083346Y-23826185D01*
X102083346Y-23826185D02*
X102011917Y-23754757D01*
X102011917Y-23754757D02*
X101869060Y-23683328D01*
X101869060Y-23683328D02*
X101583346Y-23683328D01*
X101583346Y-23683328D02*
X101440489Y-23754757D01*
X100726203Y-24111900D02*
X99583346Y-24111900D01*
X98869060Y-24683328D02*
X98869060Y-23683328D01*
X98869060Y-23826185D02*
X98797631Y-23754757D01*
X98797631Y-23754757D02*
X98654774Y-23683328D01*
X98654774Y-23683328D02*
X98440488Y-23683328D01*
X98440488Y-23683328D02*
X98297631Y-23754757D01*
X98297631Y-23754757D02*
X98226203Y-23897614D01*
X98226203Y-23897614D02*
X98226203Y-24683328D01*
X98226203Y-23897614D02*
X98154774Y-23754757D01*
X98154774Y-23754757D02*
X98011917Y-23683328D01*
X98011917Y-23683328D02*
X97797631Y-23683328D01*
X97797631Y-23683328D02*
X97654774Y-23754757D01*
X97654774Y-23754757D02*
X97583345Y-23897614D01*
X97583345Y-23897614D02*
X97583345Y-24683328D01*
X96226203Y-24611900D02*
X96369060Y-24683328D01*
X96369060Y-24683328D02*
X96654774Y-24683328D01*
X96654774Y-24683328D02*
X96797631Y-24611900D01*
X96797631Y-24611900D02*
X96869060Y-24540471D01*
X96869060Y-24540471D02*
X96940488Y-24397614D01*
X96940488Y-24397614D02*
X96940488Y-23969042D01*
X96940488Y-23969042D02*
X96869060Y-23826185D01*
X96869060Y-23826185D02*
X96797631Y-23754757D01*
X96797631Y-23754757D02*
X96654774Y-23683328D01*
X96654774Y-23683328D02*
X96369060Y-23683328D01*
X96369060Y-23683328D02*
X96226203Y-23754757D01*
X94940489Y-23683328D02*
X94940489Y-24683328D01*
X95583346Y-23683328D02*
X95583346Y-24469042D01*
X95583346Y-24469042D02*
X95511917Y-24611900D01*
X95511917Y-24611900D02*
X95369060Y-24683328D01*
X95369060Y-24683328D02*
X95154774Y-24683328D01*
X95154774Y-24683328D02*
X95011917Y-24611900D01*
X95011917Y-24611900D02*
X94940489Y-24540471D01*
X93226203Y-23683328D02*
X92869060Y-24683328D01*
X92869060Y-24683328D02*
X92511917Y-23683328D01*
X91654774Y-23183328D02*
X91511917Y-23183328D01*
X91511917Y-23183328D02*
X91369060Y-23254757D01*
X91369060Y-23254757D02*
X91297632Y-23326185D01*
X91297632Y-23326185D02*
X91226203Y-23469042D01*
X91226203Y-23469042D02*
X91154774Y-23754757D01*
X91154774Y-23754757D02*
X91154774Y-24111900D01*
X91154774Y-24111900D02*
X91226203Y-24397614D01*
X91226203Y-24397614D02*
X91297632Y-24540471D01*
X91297632Y-24540471D02*
X91369060Y-24611900D01*
X91369060Y-24611900D02*
X91511917Y-24683328D01*
X91511917Y-24683328D02*
X91654774Y-24683328D01*
X91654774Y-24683328D02*
X91797632Y-24611900D01*
X91797632Y-24611900D02*
X91869060Y-24540471D01*
X91869060Y-24540471D02*
X91940489Y-24397614D01*
X91940489Y-24397614D02*
X92011917Y-24111900D01*
X92011917Y-24111900D02*
X92011917Y-23754757D01*
X92011917Y-23754757D02*
X91940489Y-23469042D01*
X91940489Y-23469042D02*
X91869060Y-23326185D01*
X91869060Y-23326185D02*
X91797632Y-23254757D01*
X91797632Y-23254757D02*
X91654774Y-23183328D01*
X90511918Y-24540471D02*
X90440489Y-24611900D01*
X90440489Y-24611900D02*
X90511918Y-24683328D01*
X90511918Y-24683328D02*
X90583346Y-24611900D01*
X90583346Y-24611900D02*
X90511918Y-24540471D01*
X90511918Y-24540471D02*
X90511918Y-24683328D01*
X89869060Y-23326185D02*
X89797632Y-23254757D01*
X89797632Y-23254757D02*
X89654775Y-23183328D01*
X89654775Y-23183328D02*
X89297632Y-23183328D01*
X89297632Y-23183328D02*
X89154775Y-23254757D01*
X89154775Y-23254757D02*
X89083346Y-23326185D01*
X89083346Y-23326185D02*
X89011917Y-23469042D01*
X89011917Y-23469042D02*
X89011917Y-23611900D01*
X89011917Y-23611900D02*
X89083346Y-23826185D01*
X89083346Y-23826185D02*
X89940489Y-24683328D01*
X89940489Y-24683328D02*
X89011917Y-24683328D01*
D13*
X29352575Y-46152419D02*
X29828765Y-46152419D01*
X29828765Y-46152419D02*
X29828765Y-45152419D01*
X28876384Y-46152419D02*
X28971622Y-46104800D01*
X28971622Y-46104800D02*
X29019241Y-46057180D01*
X29019241Y-46057180D02*
X29066860Y-45961942D01*
X29066860Y-45961942D02*
X29066860Y-45676228D01*
X29066860Y-45676228D02*
X29019241Y-45580990D01*
X29019241Y-45580990D02*
X28971622Y-45533371D01*
X28971622Y-45533371D02*
X28876384Y-45485752D01*
X28876384Y-45485752D02*
X28733527Y-45485752D01*
X28733527Y-45485752D02*
X28638289Y-45533371D01*
X28638289Y-45533371D02*
X28590670Y-45580990D01*
X28590670Y-45580990D02*
X28543051Y-45676228D01*
X28543051Y-45676228D02*
X28543051Y-45961942D01*
X28543051Y-45961942D02*
X28590670Y-46057180D01*
X28590670Y-46057180D02*
X28638289Y-46104800D01*
X28638289Y-46104800D02*
X28733527Y-46152419D01*
X28733527Y-46152419D02*
X28876384Y-46152419D01*
X26924003Y-45485752D02*
X26924003Y-46152419D01*
X27162098Y-45104800D02*
X27400193Y-45819085D01*
X27400193Y-45819085D02*
X26781146Y-45819085D01*
X28927425Y-51809919D02*
X29403615Y-51809919D01*
X29403615Y-51809919D02*
X29403615Y-50809919D01*
X28594091Y-51809919D02*
X28594091Y-51143252D01*
X28594091Y-50809919D02*
X28641710Y-50857538D01*
X28641710Y-50857538D02*
X28594091Y-50905157D01*
X28594091Y-50905157D02*
X28546472Y-50857538D01*
X28546472Y-50857538D02*
X28594091Y-50809919D01*
X28594091Y-50809919D02*
X28594091Y-50905157D01*
X27213139Y-51238490D02*
X27308377Y-51190871D01*
X27308377Y-51190871D02*
X27355996Y-51143252D01*
X27355996Y-51143252D02*
X27403615Y-51048014D01*
X27403615Y-51048014D02*
X27403615Y-51000395D01*
X27403615Y-51000395D02*
X27355996Y-50905157D01*
X27355996Y-50905157D02*
X27308377Y-50857538D01*
X27308377Y-50857538D02*
X27213139Y-50809919D01*
X27213139Y-50809919D02*
X27022663Y-50809919D01*
X27022663Y-50809919D02*
X26927425Y-50857538D01*
X26927425Y-50857538D02*
X26879806Y-50905157D01*
X26879806Y-50905157D02*
X26832187Y-51000395D01*
X26832187Y-51000395D02*
X26832187Y-51048014D01*
X26832187Y-51048014D02*
X26879806Y-51143252D01*
X26879806Y-51143252D02*
X26927425Y-51190871D01*
X26927425Y-51190871D02*
X27022663Y-51238490D01*
X27022663Y-51238490D02*
X27213139Y-51238490D01*
X27213139Y-51238490D02*
X27308377Y-51286109D01*
X27308377Y-51286109D02*
X27355996Y-51333728D01*
X27355996Y-51333728D02*
X27403615Y-51428966D01*
X27403615Y-51428966D02*
X27403615Y-51619442D01*
X27403615Y-51619442D02*
X27355996Y-51714680D01*
X27355996Y-51714680D02*
X27308377Y-51762300D01*
X27308377Y-51762300D02*
X27213139Y-51809919D01*
X27213139Y-51809919D02*
X27022663Y-51809919D01*
X27022663Y-51809919D02*
X26927425Y-51762300D01*
X26927425Y-51762300D02*
X26879806Y-51714680D01*
X26879806Y-51714680D02*
X26832187Y-51619442D01*
X26832187Y-51619442D02*
X26832187Y-51428966D01*
X26832187Y-51428966D02*
X26879806Y-51333728D01*
X26879806Y-51333728D02*
X26927425Y-51286109D01*
X26927425Y-51286109D02*
X27022663Y-51238490D01*
D12*
X85718990Y-71920714D02*
X85671371Y-71777857D01*
X85671371Y-71777857D02*
X85623752Y-71730238D01*
X85623752Y-71730238D02*
X85528514Y-71682619D01*
X85528514Y-71682619D02*
X85385657Y-71682619D01*
X85385657Y-71682619D02*
X85290419Y-71730238D01*
X85290419Y-71730238D02*
X85242800Y-71777857D01*
X85242800Y-71777857D02*
X85195180Y-71873095D01*
X85195180Y-71873095D02*
X85195180Y-72254047D01*
X85195180Y-72254047D02*
X86195180Y-72254047D01*
X86195180Y-72254047D02*
X86195180Y-71920714D01*
X86195180Y-71920714D02*
X86147561Y-71825476D01*
X86147561Y-71825476D02*
X86099942Y-71777857D01*
X86099942Y-71777857D02*
X86004704Y-71730238D01*
X86004704Y-71730238D02*
X85909466Y-71730238D01*
X85909466Y-71730238D02*
X85814228Y-71777857D01*
X85814228Y-71777857D02*
X85766609Y-71825476D01*
X85766609Y-71825476D02*
X85718990Y-71920714D01*
X85718990Y-71920714D02*
X85718990Y-72254047D01*
X86195180Y-71396904D02*
X86195180Y-70825476D01*
X85195180Y-71111190D02*
X86195180Y-71111190D01*
X86195180Y-70587380D02*
X85195180Y-69920714D01*
X86195180Y-69920714D02*
X85195180Y-70587380D01*
X83585180Y-72873094D02*
X84585180Y-72873094D01*
X84108990Y-72873094D02*
X84108990Y-72301666D01*
X83585180Y-72301666D02*
X84585180Y-72301666D01*
X83680419Y-71254047D02*
X83632800Y-71301666D01*
X83632800Y-71301666D02*
X83585180Y-71444523D01*
X83585180Y-71444523D02*
X83585180Y-71539761D01*
X83585180Y-71539761D02*
X83632800Y-71682618D01*
X83632800Y-71682618D02*
X83728038Y-71777856D01*
X83728038Y-71777856D02*
X83823276Y-71825475D01*
X83823276Y-71825475D02*
X84013752Y-71873094D01*
X84013752Y-71873094D02*
X84156609Y-71873094D01*
X84156609Y-71873094D02*
X84347085Y-71825475D01*
X84347085Y-71825475D02*
X84442323Y-71777856D01*
X84442323Y-71777856D02*
X84537561Y-71682618D01*
X84537561Y-71682618D02*
X84585180Y-71539761D01*
X84585180Y-71539761D02*
X84585180Y-71444523D01*
X84585180Y-71444523D02*
X84537561Y-71301666D01*
X84537561Y-71301666D02*
X84489942Y-71254047D01*
X84585180Y-70634999D02*
X84585180Y-70539761D01*
X84585180Y-70539761D02*
X84537561Y-70444523D01*
X84537561Y-70444523D02*
X84489942Y-70396904D01*
X84489942Y-70396904D02*
X84394704Y-70349285D01*
X84394704Y-70349285D02*
X84204228Y-70301666D01*
X84204228Y-70301666D02*
X83966133Y-70301666D01*
X83966133Y-70301666D02*
X83775657Y-70349285D01*
X83775657Y-70349285D02*
X83680419Y-70396904D01*
X83680419Y-70396904D02*
X83632800Y-70444523D01*
X83632800Y-70444523D02*
X83585180Y-70539761D01*
X83585180Y-70539761D02*
X83585180Y-70634999D01*
X83585180Y-70634999D02*
X83632800Y-70730237D01*
X83632800Y-70730237D02*
X83680419Y-70777856D01*
X83680419Y-70777856D02*
X83775657Y-70825475D01*
X83775657Y-70825475D02*
X83966133Y-70873094D01*
X83966133Y-70873094D02*
X84204228Y-70873094D01*
X84204228Y-70873094D02*
X84394704Y-70825475D01*
X84394704Y-70825475D02*
X84489942Y-70777856D01*
X84489942Y-70777856D02*
X84537561Y-70730237D01*
X84537561Y-70730237D02*
X84585180Y-70634999D01*
X84585180Y-69444523D02*
X84585180Y-69634999D01*
X84585180Y-69634999D02*
X84537561Y-69730237D01*
X84537561Y-69730237D02*
X84489942Y-69777856D01*
X84489942Y-69777856D02*
X84347085Y-69873094D01*
X84347085Y-69873094D02*
X84156609Y-69920713D01*
X84156609Y-69920713D02*
X83775657Y-69920713D01*
X83775657Y-69920713D02*
X83680419Y-69873094D01*
X83680419Y-69873094D02*
X83632800Y-69825475D01*
X83632800Y-69825475D02*
X83585180Y-69730237D01*
X83585180Y-69730237D02*
X83585180Y-69539761D01*
X83585180Y-69539761D02*
X83632800Y-69444523D01*
X83632800Y-69444523D02*
X83680419Y-69396904D01*
X83680419Y-69396904D02*
X83775657Y-69349285D01*
X83775657Y-69349285D02*
X84013752Y-69349285D01*
X84013752Y-69349285D02*
X84108990Y-69396904D01*
X84108990Y-69396904D02*
X84156609Y-69444523D01*
X84156609Y-69444523D02*
X84204228Y-69539761D01*
X84204228Y-69539761D02*
X84204228Y-69730237D01*
X84204228Y-69730237D02*
X84156609Y-69825475D01*
X84156609Y-69825475D02*
X84108990Y-69873094D01*
X84108990Y-69873094D02*
X84013752Y-69920713D01*
X63024104Y-29291905D02*
X63024104Y-29768095D01*
X63309819Y-29196667D02*
X62309819Y-29530000D01*
X62309819Y-29530000D02*
X63309819Y-29863333D01*
X62309819Y-30196667D02*
X63119342Y-30196667D01*
X63119342Y-30196667D02*
X63214580Y-30244286D01*
X63214580Y-30244286D02*
X63262200Y-30291905D01*
X63262200Y-30291905D02*
X63309819Y-30387143D01*
X63309819Y-30387143D02*
X63309819Y-30577619D01*
X63309819Y-30577619D02*
X63262200Y-30672857D01*
X63262200Y-30672857D02*
X63214580Y-30720476D01*
X63214580Y-30720476D02*
X63119342Y-30768095D01*
X63119342Y-30768095D02*
X62309819Y-30768095D01*
X62309819Y-31149048D02*
X63309819Y-31815714D01*
X62309819Y-31815714D02*
X63309819Y-31149048D01*
X65702200Y-44624286D02*
X65749819Y-44767143D01*
X65749819Y-44767143D02*
X65749819Y-45005238D01*
X65749819Y-45005238D02*
X65702200Y-45100476D01*
X65702200Y-45100476D02*
X65654580Y-45148095D01*
X65654580Y-45148095D02*
X65559342Y-45195714D01*
X65559342Y-45195714D02*
X65464104Y-45195714D01*
X65464104Y-45195714D02*
X65368866Y-45148095D01*
X65368866Y-45148095D02*
X65321247Y-45100476D01*
X65321247Y-45100476D02*
X65273628Y-45005238D01*
X65273628Y-45005238D02*
X65226009Y-44814762D01*
X65226009Y-44814762D02*
X65178390Y-44719524D01*
X65178390Y-44719524D02*
X65130771Y-44671905D01*
X65130771Y-44671905D02*
X65035533Y-44624286D01*
X65035533Y-44624286D02*
X64940295Y-44624286D01*
X64940295Y-44624286D02*
X64845057Y-44671905D01*
X64845057Y-44671905D02*
X64797438Y-44719524D01*
X64797438Y-44719524D02*
X64749819Y-44814762D01*
X64749819Y-44814762D02*
X64749819Y-45052857D01*
X64749819Y-45052857D02*
X64797438Y-45195714D01*
X65749819Y-45624286D02*
X64749819Y-45624286D01*
X64749819Y-45624286D02*
X64749819Y-46005238D01*
X64749819Y-46005238D02*
X64797438Y-46100476D01*
X64797438Y-46100476D02*
X64845057Y-46148095D01*
X64845057Y-46148095D02*
X64940295Y-46195714D01*
X64940295Y-46195714D02*
X65083152Y-46195714D01*
X65083152Y-46195714D02*
X65178390Y-46148095D01*
X65178390Y-46148095D02*
X65226009Y-46100476D01*
X65226009Y-46100476D02*
X65273628Y-46005238D01*
X65273628Y-46005238D02*
X65273628Y-45624286D01*
X65749819Y-46624286D02*
X64749819Y-46624286D01*
X64749819Y-46624286D02*
X64749819Y-46862381D01*
X64749819Y-46862381D02*
X64797438Y-47005238D01*
X64797438Y-47005238D02*
X64892676Y-47100476D01*
X64892676Y-47100476D02*
X64987914Y-47148095D01*
X64987914Y-47148095D02*
X65178390Y-47195714D01*
X65178390Y-47195714D02*
X65321247Y-47195714D01*
X65321247Y-47195714D02*
X65511723Y-47148095D01*
X65511723Y-47148095D02*
X65606961Y-47100476D01*
X65606961Y-47100476D02*
X65702200Y-47005238D01*
X65702200Y-47005238D02*
X65749819Y-46862381D01*
X65749819Y-46862381D02*
X65749819Y-46624286D01*
D13*
X103442419Y-43339643D02*
X103442419Y-42863453D01*
X103442419Y-42863453D02*
X103918609Y-42815834D01*
X103918609Y-42815834D02*
X103870990Y-42863453D01*
X103870990Y-42863453D02*
X103823371Y-42958691D01*
X103823371Y-42958691D02*
X103823371Y-43196786D01*
X103823371Y-43196786D02*
X103870990Y-43292024D01*
X103870990Y-43292024D02*
X103918609Y-43339643D01*
X103918609Y-43339643D02*
X104013847Y-43387262D01*
X104013847Y-43387262D02*
X104251942Y-43387262D01*
X104251942Y-43387262D02*
X104347180Y-43339643D01*
X104347180Y-43339643D02*
X104394800Y-43292024D01*
X104394800Y-43292024D02*
X104442419Y-43196786D01*
X104442419Y-43196786D02*
X104442419Y-42958691D01*
X104442419Y-42958691D02*
X104394800Y-42863453D01*
X104394800Y-42863453D02*
X104347180Y-42815834D01*
X103442419Y-43720596D02*
X103442419Y-44387262D01*
X103442419Y-44387262D02*
X104442419Y-43958691D01*
X104347180Y-44768215D02*
X104394800Y-44815834D01*
X104394800Y-44815834D02*
X104442419Y-44768215D01*
X104442419Y-44768215D02*
X104394800Y-44720596D01*
X104394800Y-44720596D02*
X104347180Y-44768215D01*
X104347180Y-44768215D02*
X104442419Y-44768215D01*
X103442419Y-45434881D02*
X103442419Y-45530119D01*
X103442419Y-45530119D02*
X103490038Y-45625357D01*
X103490038Y-45625357D02*
X103537657Y-45672976D01*
X103537657Y-45672976D02*
X103632895Y-45720595D01*
X103632895Y-45720595D02*
X103823371Y-45768214D01*
X103823371Y-45768214D02*
X104061466Y-45768214D01*
X104061466Y-45768214D02*
X104251942Y-45720595D01*
X104251942Y-45720595D02*
X104347180Y-45672976D01*
X104347180Y-45672976D02*
X104394800Y-45625357D01*
X104394800Y-45625357D02*
X104442419Y-45530119D01*
X104442419Y-45530119D02*
X104442419Y-45434881D01*
X104442419Y-45434881D02*
X104394800Y-45339643D01*
X104394800Y-45339643D02*
X104347180Y-45292024D01*
X104347180Y-45292024D02*
X104251942Y-45244405D01*
X104251942Y-45244405D02*
X104061466Y-45196786D01*
X104061466Y-45196786D02*
X103823371Y-45196786D01*
X103823371Y-45196786D02*
X103632895Y-45244405D01*
X103632895Y-45244405D02*
X103537657Y-45292024D01*
X103537657Y-45292024D02*
X103490038Y-45339643D01*
X103490038Y-45339643D02*
X103442419Y-45434881D01*
X103442419Y-46387262D02*
X103442419Y-46482500D01*
X103442419Y-46482500D02*
X103490038Y-46577738D01*
X103490038Y-46577738D02*
X103537657Y-46625357D01*
X103537657Y-46625357D02*
X103632895Y-46672976D01*
X103632895Y-46672976D02*
X103823371Y-46720595D01*
X103823371Y-46720595D02*
X104061466Y-46720595D01*
X104061466Y-46720595D02*
X104251942Y-46672976D01*
X104251942Y-46672976D02*
X104347180Y-46625357D01*
X104347180Y-46625357D02*
X104394800Y-46577738D01*
X104394800Y-46577738D02*
X104442419Y-46482500D01*
X104442419Y-46482500D02*
X104442419Y-46387262D01*
X104442419Y-46387262D02*
X104394800Y-46292024D01*
X104394800Y-46292024D02*
X104347180Y-46244405D01*
X104347180Y-46244405D02*
X104251942Y-46196786D01*
X104251942Y-46196786D02*
X104061466Y-46149167D01*
X104061466Y-46149167D02*
X103823371Y-46149167D01*
X103823371Y-46149167D02*
X103632895Y-46196786D01*
X103632895Y-46196786D02*
X103537657Y-46244405D01*
X103537657Y-46244405D02*
X103490038Y-46292024D01*
X103490038Y-46292024D02*
X103442419Y-46387262D01*
X104442419Y-47911072D02*
X103775752Y-47911072D01*
X103870990Y-47911072D02*
X103823371Y-47958691D01*
X103823371Y-47958691D02*
X103775752Y-48053929D01*
X103775752Y-48053929D02*
X103775752Y-48196786D01*
X103775752Y-48196786D02*
X103823371Y-48292024D01*
X103823371Y-48292024D02*
X103918609Y-48339643D01*
X103918609Y-48339643D02*
X104442419Y-48339643D01*
X103918609Y-48339643D02*
X103823371Y-48387262D01*
X103823371Y-48387262D02*
X103775752Y-48482500D01*
X103775752Y-48482500D02*
X103775752Y-48625357D01*
X103775752Y-48625357D02*
X103823371Y-48720596D01*
X103823371Y-48720596D02*
X103918609Y-48768215D01*
X103918609Y-48768215D02*
X104442419Y-48768215D01*
X104442419Y-49244405D02*
X103775752Y-49244405D01*
X103870990Y-49244405D02*
X103823371Y-49292024D01*
X103823371Y-49292024D02*
X103775752Y-49387262D01*
X103775752Y-49387262D02*
X103775752Y-49530119D01*
X103775752Y-49530119D02*
X103823371Y-49625357D01*
X103823371Y-49625357D02*
X103918609Y-49672976D01*
X103918609Y-49672976D02*
X104442419Y-49672976D01*
X103918609Y-49672976D02*
X103823371Y-49720595D01*
X103823371Y-49720595D02*
X103775752Y-49815833D01*
X103775752Y-49815833D02*
X103775752Y-49958690D01*
X103775752Y-49958690D02*
X103823371Y-50053929D01*
X103823371Y-50053929D02*
X103918609Y-50101548D01*
X103918609Y-50101548D02*
X104442419Y-50101548D01*
D10*
X105540000Y-74770000D02*
X104716080Y-74770000D01*
X105540000Y-17770000D02*
X104716080Y-17770000D01*
X105302500Y-74770000D02*
X105302500Y-17770000D01*
X105302500Y-74770000D02*
X105302500Y-17770000D01*
X105302500Y-74770000D02*
X104716079Y-73643496D01*
X105302500Y-74770000D02*
X105888921Y-73643496D01*
X105302500Y-17770000D02*
X105888921Y-18896504D01*
X105302500Y-17770000D02*
X104716079Y-18896504D01*
D13*
X70208689Y-19713490D02*
X70303927Y-19665871D01*
X70303927Y-19665871D02*
X70351546Y-19618252D01*
X70351546Y-19618252D02*
X70399165Y-19523014D01*
X70399165Y-19523014D02*
X70399165Y-19475395D01*
X70399165Y-19475395D02*
X70351546Y-19380157D01*
X70351546Y-19380157D02*
X70303927Y-19332538D01*
X70303927Y-19332538D02*
X70208689Y-19284919D01*
X70208689Y-19284919D02*
X70018213Y-19284919D01*
X70018213Y-19284919D02*
X69922975Y-19332538D01*
X69922975Y-19332538D02*
X69875356Y-19380157D01*
X69875356Y-19380157D02*
X69827737Y-19475395D01*
X69827737Y-19475395D02*
X69827737Y-19523014D01*
X69827737Y-19523014D02*
X69875356Y-19618252D01*
X69875356Y-19618252D02*
X69922975Y-19665871D01*
X69922975Y-19665871D02*
X70018213Y-19713490D01*
X70018213Y-19713490D02*
X70208689Y-19713490D01*
X70208689Y-19713490D02*
X70303927Y-19761109D01*
X70303927Y-19761109D02*
X70351546Y-19808728D01*
X70351546Y-19808728D02*
X70399165Y-19903966D01*
X70399165Y-19903966D02*
X70399165Y-20094442D01*
X70399165Y-20094442D02*
X70351546Y-20189680D01*
X70351546Y-20189680D02*
X70303927Y-20237300D01*
X70303927Y-20237300D02*
X70208689Y-20284919D01*
X70208689Y-20284919D02*
X70018213Y-20284919D01*
X70018213Y-20284919D02*
X69922975Y-20237300D01*
X69922975Y-20237300D02*
X69875356Y-20189680D01*
X69875356Y-20189680D02*
X69827737Y-20094442D01*
X69827737Y-20094442D02*
X69827737Y-19903966D01*
X69827737Y-19903966D02*
X69875356Y-19808728D01*
X69875356Y-19808728D02*
X69922975Y-19761109D01*
X69922975Y-19761109D02*
X70018213Y-19713490D01*
X69494403Y-19284919D02*
X68827737Y-19284919D01*
X68827737Y-19284919D02*
X69256308Y-20284919D01*
X68446784Y-20189680D02*
X68399165Y-20237300D01*
X68399165Y-20237300D02*
X68446784Y-20284919D01*
X68446784Y-20284919D02*
X68494403Y-20237300D01*
X68494403Y-20237300D02*
X68446784Y-20189680D01*
X68446784Y-20189680D02*
X68446784Y-20284919D01*
X67780118Y-19284919D02*
X67684880Y-19284919D01*
X67684880Y-19284919D02*
X67589642Y-19332538D01*
X67589642Y-19332538D02*
X67542023Y-19380157D01*
X67542023Y-19380157D02*
X67494404Y-19475395D01*
X67494404Y-19475395D02*
X67446785Y-19665871D01*
X67446785Y-19665871D02*
X67446785Y-19903966D01*
X67446785Y-19903966D02*
X67494404Y-20094442D01*
X67494404Y-20094442D02*
X67542023Y-20189680D01*
X67542023Y-20189680D02*
X67589642Y-20237300D01*
X67589642Y-20237300D02*
X67684880Y-20284919D01*
X67684880Y-20284919D02*
X67780118Y-20284919D01*
X67780118Y-20284919D02*
X67875356Y-20237300D01*
X67875356Y-20237300D02*
X67922975Y-20189680D01*
X67922975Y-20189680D02*
X67970594Y-20094442D01*
X67970594Y-20094442D02*
X68018213Y-19903966D01*
X68018213Y-19903966D02*
X68018213Y-19665871D01*
X68018213Y-19665871D02*
X67970594Y-19475395D01*
X67970594Y-19475395D02*
X67922975Y-19380157D01*
X67922975Y-19380157D02*
X67875356Y-19332538D01*
X67875356Y-19332538D02*
X67780118Y-19284919D01*
X66827737Y-19284919D02*
X66732499Y-19284919D01*
X66732499Y-19284919D02*
X66637261Y-19332538D01*
X66637261Y-19332538D02*
X66589642Y-19380157D01*
X66589642Y-19380157D02*
X66542023Y-19475395D01*
X66542023Y-19475395D02*
X66494404Y-19665871D01*
X66494404Y-19665871D02*
X66494404Y-19903966D01*
X66494404Y-19903966D02*
X66542023Y-20094442D01*
X66542023Y-20094442D02*
X66589642Y-20189680D01*
X66589642Y-20189680D02*
X66637261Y-20237300D01*
X66637261Y-20237300D02*
X66732499Y-20284919D01*
X66732499Y-20284919D02*
X66827737Y-20284919D01*
X66827737Y-20284919D02*
X66922975Y-20237300D01*
X66922975Y-20237300D02*
X66970594Y-20189680D01*
X66970594Y-20189680D02*
X67018213Y-20094442D01*
X67018213Y-20094442D02*
X67065832Y-19903966D01*
X67065832Y-19903966D02*
X67065832Y-19665871D01*
X67065832Y-19665871D02*
X67018213Y-19475395D01*
X67018213Y-19475395D02*
X66970594Y-19380157D01*
X66970594Y-19380157D02*
X66922975Y-19332538D01*
X66922975Y-19332538D02*
X66827737Y-19284919D01*
X65303927Y-20284919D02*
X65303927Y-19618252D01*
X65303927Y-19713490D02*
X65256308Y-19665871D01*
X65256308Y-19665871D02*
X65161070Y-19618252D01*
X65161070Y-19618252D02*
X65018213Y-19618252D01*
X65018213Y-19618252D02*
X64922975Y-19665871D01*
X64922975Y-19665871D02*
X64875356Y-19761109D01*
X64875356Y-19761109D02*
X64875356Y-20284919D01*
X64875356Y-19761109D02*
X64827737Y-19665871D01*
X64827737Y-19665871D02*
X64732499Y-19618252D01*
X64732499Y-19618252D02*
X64589642Y-19618252D01*
X64589642Y-19618252D02*
X64494403Y-19665871D01*
X64494403Y-19665871D02*
X64446784Y-19761109D01*
X64446784Y-19761109D02*
X64446784Y-20284919D01*
X63970594Y-20284919D02*
X63970594Y-19618252D01*
X63970594Y-19713490D02*
X63922975Y-19665871D01*
X63922975Y-19665871D02*
X63827737Y-19618252D01*
X63827737Y-19618252D02*
X63684880Y-19618252D01*
X63684880Y-19618252D02*
X63589642Y-19665871D01*
X63589642Y-19665871D02*
X63542023Y-19761109D01*
X63542023Y-19761109D02*
X63542023Y-20284919D01*
X63542023Y-19761109D02*
X63494404Y-19665871D01*
X63494404Y-19665871D02*
X63399166Y-19618252D01*
X63399166Y-19618252D02*
X63256309Y-19618252D01*
X63256309Y-19618252D02*
X63161070Y-19665871D01*
X63161070Y-19665871D02*
X63113451Y-19761109D01*
X63113451Y-19761109D02*
X63113451Y-20284919D01*
D10*
X19040000Y-18270000D02*
X19040000Y-18991420D01*
X106040000Y-18270000D02*
X106040000Y-18991420D01*
X19040000Y-18405000D02*
X106040000Y-18405000D01*
X19040000Y-18405000D02*
X106040000Y-18405000D01*
X19040000Y-18405000D02*
X20166504Y-17818579D01*
X19040000Y-18405000D02*
X20166504Y-18991421D01*
X106040000Y-18405000D02*
X104913496Y-18991421D01*
X106040000Y-18405000D02*
X104913496Y-17818579D01*
D13*
X44020115Y-24151466D02*
X43258211Y-24151466D01*
X29420115Y-64751466D02*
X28658211Y-64751466D01*
X29039163Y-65132419D02*
X29039163Y-64370514D01*
X37943925Y-64332419D02*
X38420115Y-64332419D01*
X38420115Y-64332419D02*
X38467734Y-64808609D01*
X38467734Y-64808609D02*
X38420115Y-64760990D01*
X38420115Y-64760990D02*
X38324877Y-64713371D01*
X38324877Y-64713371D02*
X38086782Y-64713371D01*
X38086782Y-64713371D02*
X37991544Y-64760990D01*
X37991544Y-64760990D02*
X37943925Y-64808609D01*
X37943925Y-64808609D02*
X37896306Y-64903847D01*
X37896306Y-64903847D02*
X37896306Y-65141942D01*
X37896306Y-65141942D02*
X37943925Y-65237180D01*
X37943925Y-65237180D02*
X37991544Y-65284800D01*
X37991544Y-65284800D02*
X38086782Y-65332419D01*
X38086782Y-65332419D02*
X38324877Y-65332419D01*
X38324877Y-65332419D02*
X38420115Y-65284800D01*
X38420115Y-65284800D02*
X38467734Y-65237180D01*
X37610591Y-64332419D02*
X37277258Y-65332419D01*
X37277258Y-65332419D02*
X36943925Y-64332419D01*
X35658210Y-64332419D02*
X35467734Y-64332419D01*
X35467734Y-64332419D02*
X35372496Y-64380038D01*
X35372496Y-64380038D02*
X35277258Y-64475276D01*
X35277258Y-64475276D02*
X35229639Y-64665752D01*
X35229639Y-64665752D02*
X35229639Y-64999085D01*
X35229639Y-64999085D02*
X35277258Y-65189561D01*
X35277258Y-65189561D02*
X35372496Y-65284800D01*
X35372496Y-65284800D02*
X35467734Y-65332419D01*
X35467734Y-65332419D02*
X35658210Y-65332419D01*
X35658210Y-65332419D02*
X35753448Y-65284800D01*
X35753448Y-65284800D02*
X35848686Y-65189561D01*
X35848686Y-65189561D02*
X35896305Y-64999085D01*
X35896305Y-64999085D02*
X35896305Y-64665752D01*
X35896305Y-64665752D02*
X35848686Y-64475276D01*
X35848686Y-64475276D02*
X35753448Y-64380038D01*
X35753448Y-64380038D02*
X35658210Y-64332419D01*
X34801067Y-64332419D02*
X34801067Y-65141942D01*
X34801067Y-65141942D02*
X34753448Y-65237180D01*
X34753448Y-65237180D02*
X34705829Y-65284800D01*
X34705829Y-65284800D02*
X34610591Y-65332419D01*
X34610591Y-65332419D02*
X34420115Y-65332419D01*
X34420115Y-65332419D02*
X34324877Y-65284800D01*
X34324877Y-65284800D02*
X34277258Y-65237180D01*
X34277258Y-65237180D02*
X34229639Y-65141942D01*
X34229639Y-65141942D02*
X34229639Y-64332419D01*
X33896305Y-64332419D02*
X33324877Y-64332419D01*
X33610591Y-65332419D02*
X33610591Y-64332419D01*
X38096306Y-24732419D02*
X38667734Y-24732419D01*
X38382020Y-24732419D02*
X38382020Y-23732419D01*
X38382020Y-23732419D02*
X38477258Y-23875276D01*
X38477258Y-23875276D02*
X38572496Y-23970514D01*
X38572496Y-23970514D02*
X38667734Y-24018133D01*
X37715353Y-23827657D02*
X37667734Y-23780038D01*
X37667734Y-23780038D02*
X37572496Y-23732419D01*
X37572496Y-23732419D02*
X37334401Y-23732419D01*
X37334401Y-23732419D02*
X37239163Y-23780038D01*
X37239163Y-23780038D02*
X37191544Y-23827657D01*
X37191544Y-23827657D02*
X37143925Y-23922895D01*
X37143925Y-23922895D02*
X37143925Y-24018133D01*
X37143925Y-24018133D02*
X37191544Y-24160990D01*
X37191544Y-24160990D02*
X37762972Y-24732419D01*
X37762972Y-24732419D02*
X37143925Y-24732419D01*
X36858210Y-23732419D02*
X36524877Y-24732419D01*
X36524877Y-24732419D02*
X36191544Y-23732419D01*
X35096305Y-24732419D02*
X35096305Y-23732419D01*
X34620115Y-24732419D02*
X34620115Y-23732419D01*
X34620115Y-23732419D02*
X34048687Y-24732419D01*
X34048687Y-24732419D02*
X34048687Y-23732419D01*
X29420115Y-24151466D02*
X28658211Y-24151466D01*
X29039163Y-24532419D02*
X29039163Y-23770514D01*
X44020115Y-64751466D02*
X43258211Y-64751466D01*
X91224919Y-52688214D02*
X91224919Y-52116786D01*
X91224919Y-52402500D02*
X90224919Y-52402500D01*
X90224919Y-52402500D02*
X90367776Y-52307262D01*
X90367776Y-52307262D02*
X90463014Y-52212024D01*
X90463014Y-52212024D02*
X90510633Y-52116786D01*
X101164919Y-40590595D02*
X101164919Y-40114405D01*
X101164919Y-40114405D02*
X101641109Y-40066786D01*
X101641109Y-40066786D02*
X101593490Y-40114405D01*
X101593490Y-40114405D02*
X101545871Y-40209643D01*
X101545871Y-40209643D02*
X101545871Y-40447738D01*
X101545871Y-40447738D02*
X101593490Y-40542976D01*
X101593490Y-40542976D02*
X101641109Y-40590595D01*
X101641109Y-40590595D02*
X101736347Y-40638214D01*
X101736347Y-40638214D02*
X101974442Y-40638214D01*
X101974442Y-40638214D02*
X102069680Y-40590595D01*
X102069680Y-40590595D02*
X102117300Y-40542976D01*
X102117300Y-40542976D02*
X102164919Y-40447738D01*
X102164919Y-40447738D02*
X102164919Y-40209643D01*
X102164919Y-40209643D02*
X102117300Y-40114405D01*
X102117300Y-40114405D02*
X102069680Y-40066786D01*
X83164919Y-40542976D02*
X83164919Y-40352500D01*
X83164919Y-40352500D02*
X83212538Y-40257262D01*
X83212538Y-40257262D02*
X83260157Y-40209643D01*
X83260157Y-40209643D02*
X83403014Y-40114405D01*
X83403014Y-40114405D02*
X83593490Y-40066786D01*
X83593490Y-40066786D02*
X83974442Y-40066786D01*
X83974442Y-40066786D02*
X84069680Y-40114405D01*
X84069680Y-40114405D02*
X84117300Y-40162024D01*
X84117300Y-40162024D02*
X84164919Y-40257262D01*
X84164919Y-40257262D02*
X84164919Y-40447738D01*
X84164919Y-40447738D02*
X84117300Y-40542976D01*
X84117300Y-40542976D02*
X84069680Y-40590595D01*
X84069680Y-40590595D02*
X83974442Y-40638214D01*
X83974442Y-40638214D02*
X83736347Y-40638214D01*
X83736347Y-40638214D02*
X83641109Y-40590595D01*
X83641109Y-40590595D02*
X83593490Y-40542976D01*
X83593490Y-40542976D02*
X83545871Y-40447738D01*
X83545871Y-40447738D02*
X83545871Y-40257262D01*
X83545871Y-40257262D02*
X83593490Y-40162024D01*
X83593490Y-40162024D02*
X83641109Y-40114405D01*
X83641109Y-40114405D02*
X83736347Y-40066786D01*
X96320157Y-52116786D02*
X96272538Y-52164405D01*
X96272538Y-52164405D02*
X96224919Y-52259643D01*
X96224919Y-52259643D02*
X96224919Y-52497738D01*
X96224919Y-52497738D02*
X96272538Y-52592976D01*
X96272538Y-52592976D02*
X96320157Y-52640595D01*
X96320157Y-52640595D02*
X96415395Y-52688214D01*
X96415395Y-52688214D02*
X96510633Y-52688214D01*
X96510633Y-52688214D02*
X96653490Y-52640595D01*
X96653490Y-52640595D02*
X97224919Y-52069167D01*
X97224919Y-52069167D02*
X97224919Y-52688214D01*
X95164919Y-40019167D02*
X95164919Y-40685833D01*
X95164919Y-40685833D02*
X96164919Y-40257262D01*
X84558252Y-52592976D02*
X85224919Y-52592976D01*
X84177300Y-52354881D02*
X84891585Y-52116786D01*
X84891585Y-52116786D02*
X84891585Y-52735833D01*
X102224919Y-52069167D02*
X102224919Y-52688214D01*
X102224919Y-52688214D02*
X102605871Y-52354881D01*
X102605871Y-52354881D02*
X102605871Y-52497738D01*
X102605871Y-52497738D02*
X102653490Y-52592976D01*
X102653490Y-52592976D02*
X102701109Y-52640595D01*
X102701109Y-52640595D02*
X102796347Y-52688214D01*
X102796347Y-52688214D02*
X103034442Y-52688214D01*
X103034442Y-52688214D02*
X103129680Y-52640595D01*
X103129680Y-52640595D02*
X103177300Y-52592976D01*
X103177300Y-52592976D02*
X103224919Y-52497738D01*
X103224919Y-52497738D02*
X103224919Y-52212024D01*
X103224919Y-52212024D02*
X103177300Y-52116786D01*
X103177300Y-52116786D02*
X103129680Y-52069167D01*
X89593490Y-40257262D02*
X89545871Y-40162024D01*
X89545871Y-40162024D02*
X89498252Y-40114405D01*
X89498252Y-40114405D02*
X89403014Y-40066786D01*
X89403014Y-40066786D02*
X89355395Y-40066786D01*
X89355395Y-40066786D02*
X89260157Y-40114405D01*
X89260157Y-40114405D02*
X89212538Y-40162024D01*
X89212538Y-40162024D02*
X89164919Y-40257262D01*
X89164919Y-40257262D02*
X89164919Y-40447738D01*
X89164919Y-40447738D02*
X89212538Y-40542976D01*
X89212538Y-40542976D02*
X89260157Y-40590595D01*
X89260157Y-40590595D02*
X89355395Y-40638214D01*
X89355395Y-40638214D02*
X89403014Y-40638214D01*
X89403014Y-40638214D02*
X89498252Y-40590595D01*
X89498252Y-40590595D02*
X89545871Y-40542976D01*
X89545871Y-40542976D02*
X89593490Y-40447738D01*
X89593490Y-40447738D02*
X89593490Y-40257262D01*
X89593490Y-40257262D02*
X89641109Y-40162024D01*
X89641109Y-40162024D02*
X89688728Y-40114405D01*
X89688728Y-40114405D02*
X89783966Y-40066786D01*
X89783966Y-40066786D02*
X89974442Y-40066786D01*
X89974442Y-40066786D02*
X90069680Y-40114405D01*
X90069680Y-40114405D02*
X90117300Y-40162024D01*
X90117300Y-40162024D02*
X90164919Y-40257262D01*
X90164919Y-40257262D02*
X90164919Y-40447738D01*
X90164919Y-40447738D02*
X90117300Y-40542976D01*
X90117300Y-40542976D02*
X90069680Y-40590595D01*
X90069680Y-40590595D02*
X89974442Y-40638214D01*
X89974442Y-40638214D02*
X89783966Y-40638214D01*
X89783966Y-40638214D02*
X89688728Y-40590595D01*
X89688728Y-40590595D02*
X89641109Y-40542976D01*
X89641109Y-40542976D02*
X89593490Y-40447738D01*
X46324000Y-23060000D02*
X26524000Y-23060000D01*
X26524000Y-23060000D02*
X26524000Y-65860000D01*
X26524000Y-65860000D02*
X46324000Y-65860000D01*
X46324000Y-65860000D02*
X46324000Y-23060000D01*
X87827500Y-66742500D02*
X87827500Y-52992500D01*
X92127500Y-66742500D02*
X87127500Y-66742500D01*
X87127500Y-66742500D02*
X87127500Y-52992500D01*
X87127500Y-52992500D02*
X92127500Y-52992500D01*
X92127500Y-52992500D02*
X92127500Y-66742500D01*
X103417500Y-26152500D02*
X103417500Y-39902500D01*
X99117500Y-26152500D02*
X104117500Y-26152500D01*
X104117500Y-26152500D02*
X104117500Y-39902500D01*
X104117500Y-39902500D02*
X99117500Y-39902500D01*
X99117500Y-39902500D02*
X99117500Y-26152500D01*
X85417500Y-26152500D02*
X85417500Y-39902500D01*
X81117500Y-26152500D02*
X86117500Y-26152500D01*
X86117500Y-26152500D02*
X86117500Y-39902500D01*
X86117500Y-39902500D02*
X81117500Y-39902500D01*
X81117500Y-39902500D02*
X81117500Y-26152500D01*
X93827500Y-66742500D02*
X93827500Y-52992500D01*
X98127500Y-66742500D02*
X93127500Y-66742500D01*
X93127500Y-66742500D02*
X93127500Y-52992500D01*
X93127500Y-52992500D02*
X98127500Y-52992500D01*
X98127500Y-52992500D02*
X98127500Y-66742500D01*
X97417500Y-26152500D02*
X97417500Y-39902500D01*
X93117500Y-26152500D02*
X98117500Y-26152500D01*
X98117500Y-26152500D02*
X98117500Y-39902500D01*
X98117500Y-39902500D02*
X93117500Y-39902500D01*
X93117500Y-39902500D02*
X93117500Y-26152500D01*
X81827500Y-66742500D02*
X81827500Y-52992500D01*
X86127500Y-66742500D02*
X81127500Y-66742500D01*
X81127500Y-66742500D02*
X81127500Y-52992500D01*
X81127500Y-52992500D02*
X86127500Y-52992500D01*
X86127500Y-52992500D02*
X86127500Y-66742500D01*
X99827500Y-66742500D02*
X99827500Y-52992500D01*
X104127500Y-66742500D02*
X99127500Y-66742500D01*
X99127500Y-66742500D02*
X99127500Y-52992500D01*
X99127500Y-52992500D02*
X104127500Y-52992500D01*
X104127500Y-52992500D02*
X104127500Y-66742500D01*
X91417500Y-26152500D02*
X91417500Y-39902500D01*
X87117500Y-26152500D02*
X92117500Y-26152500D01*
X92117500Y-26152500D02*
X92117500Y-39902500D01*
X92117500Y-39902500D02*
X87117500Y-39902500D01*
X87117500Y-39902500D02*
X87117500Y-26152500D01*
%LPC*%
D15*
X30670000Y-61650000D03*
D16*
X30670000Y-66730000D03*
D15*
X45360000Y-24080000D03*
D16*
X27580000Y-24080000D03*
D15*
X45360000Y-64720000D03*
D16*
X27580000Y-64720000D03*
D17*
X90327500Y-64942500D03*
D15*
X90327500Y-62402500D03*
D16*
X90327500Y-59862500D03*
X90327500Y-57322500D03*
D18*
X90327500Y-54782500D03*
D17*
X100917500Y-27952500D03*
D15*
X100917500Y-30492500D03*
D16*
X100917500Y-33032500D03*
X100917500Y-35572500D03*
D19*
X100917500Y-38112500D03*
D15*
X40805000Y-43322500D03*
D16*
X38265000Y-43322500D03*
X35725000Y-43322500D03*
X33185000Y-43322500D03*
D15*
X47825000Y-24062500D03*
D17*
X40815000Y-25862500D03*
D16*
X38275000Y-25862500D03*
X35735000Y-25862500D03*
X33195000Y-25862500D03*
X50365000Y-24062500D03*
D17*
X82917500Y-27952500D03*
D15*
X82917500Y-30492500D03*
D16*
X82917500Y-33032500D03*
X82917500Y-35572500D03*
D19*
X82917500Y-38112500D03*
D20*
X23432500Y-51265000D03*
D17*
X96327500Y-64942500D03*
D15*
X96327500Y-62402500D03*
D16*
X96327500Y-59862500D03*
X96327500Y-57322500D03*
D18*
X96327500Y-54782500D03*
D21*
X62780000Y-49030000D03*
X65320000Y-49030000D03*
D17*
X46077500Y-44457500D03*
D16*
X48617500Y-44457500D03*
D17*
X94917500Y-27952500D03*
D15*
X94917500Y-30492500D03*
D16*
X94917500Y-33032500D03*
X94917500Y-35572500D03*
D19*
X94917500Y-38112500D03*
D16*
X56542500Y-69457500D03*
X56542500Y-66917500D03*
D15*
X56542500Y-64377500D03*
D16*
X56542500Y-61837500D03*
X56542500Y-59297500D03*
X56542500Y-56757500D03*
X56542500Y-54217500D03*
D15*
X56542500Y-51677500D03*
D16*
X56542500Y-49137500D03*
X56542500Y-46597500D03*
X56542500Y-44057500D03*
X56542500Y-41517500D03*
D15*
X56542500Y-38977500D03*
D16*
X56542500Y-36437500D03*
X56542500Y-33897500D03*
X56542500Y-31357500D03*
X56542500Y-28817500D03*
D15*
X56542500Y-26277500D03*
D16*
X56542500Y-23737500D03*
X56542500Y-21197500D03*
D15*
X74322500Y-26277500D03*
D16*
X74322500Y-28817500D03*
X74322500Y-31357500D03*
X74322500Y-33897500D03*
X74322500Y-36437500D03*
D15*
X74322500Y-38977500D03*
D16*
X74322500Y-41517500D03*
X74322500Y-44057500D03*
X74322500Y-46597500D03*
X74322500Y-49137500D03*
D15*
X74322500Y-51677500D03*
D16*
X74322500Y-54217500D03*
X74322500Y-56757500D03*
X74322500Y-59297500D03*
D15*
X74322500Y-64377500D03*
D16*
X74322500Y-66917500D03*
X74322500Y-69457500D03*
D22*
X23490000Y-20700000D03*
D17*
X51760000Y-31490000D03*
X51760000Y-28950000D03*
D23*
X46077500Y-41817500D03*
D16*
X48617500Y-41817500D03*
D17*
X48860000Y-31537500D03*
D15*
X48860000Y-34077500D03*
D19*
X48860000Y-36617500D03*
D16*
X93855000Y-70915000D03*
X88775000Y-70915000D03*
X91315000Y-70915000D03*
X96395000Y-70915000D03*
D20*
X23470000Y-26400000D03*
X23437500Y-45617500D03*
D17*
X84327500Y-64942500D03*
D15*
X84327500Y-62402500D03*
D16*
X84327500Y-59862500D03*
X84327500Y-57322500D03*
D18*
X84327500Y-54782500D03*
D21*
X62800000Y-33690000D03*
X65340000Y-33690000D03*
D17*
X51772500Y-50170000D03*
D16*
X51772500Y-47630000D03*
D19*
X27425000Y-70737500D03*
X29965000Y-70737500D03*
D17*
X102327500Y-64942500D03*
D15*
X102327500Y-62402500D03*
D16*
X102327500Y-59862500D03*
X102327500Y-57322500D03*
D18*
X102327500Y-54782500D03*
D20*
X23450000Y-34320000D03*
X23417500Y-39955000D03*
D17*
X48885000Y-50082500D03*
D15*
X48885000Y-52622500D03*
D19*
X48885000Y-55162500D03*
D17*
X88917500Y-27952500D03*
D15*
X88917500Y-30492500D03*
D16*
X88917500Y-33032500D03*
X88917500Y-35572500D03*
D19*
X88917500Y-38112500D03*
D24*
X100995000Y-50132500D03*
X98455000Y-50132500D03*
X95915000Y-50132500D03*
X93375000Y-50132500D03*
X90835000Y-50132500D03*
X88295000Y-50132500D03*
X85755000Y-50132500D03*
X83215000Y-50132500D03*
D25*
X83215000Y-42512500D03*
X85755000Y-42512500D03*
D24*
X88295000Y-42512500D03*
X90835000Y-42512500D03*
X93375000Y-42512500D03*
X95915000Y-42512500D03*
X98455000Y-42512500D03*
X100995000Y-42512500D03*
%LPD*%
M02*
