G04 #@! TF.GenerationSoftware,KiCad,Pcbnew,7.0.7*
G04 #@! TF.CreationDate,2024-05-01T20:55:32+03:00*
G04 #@! TF.ProjectId,pico-hd-mcu-v2,7069636f-2d68-4642-9d6d-63752d76322e,rev?*
G04 #@! TF.SameCoordinates,Original*
G04 #@! TF.FileFunction,Copper,L1,Top*
G04 #@! TF.FilePolarity,Positive*
%FSLAX46Y46*%
G04 Gerber Fmt 4.6, Leading zero omitted, Abs format (unit mm)*
G04 Created by KiCad (PCBNEW 7.0.7) date 2024-05-01 20:55:32*
%MOMM*%
%LPD*%
G01*
G04 APERTURE LIST*
G04 Aperture macros list*
%AMOutline4P*
0 Free polygon, 4 corners , with rotation*
0 The origin of the aperture is its center*
0 number of corners: always 4*
0 $1 to $8 corner X, Y*
0 $9 Rotation angle, in degrees counterclockwise*
0 create outline with 4 corners*
4,1,4,$1,$2,$3,$4,$5,$6,$7,$8,$1,$2,$9*%
%AMOutline5P*
0 Free polygon, 5 corners , with rotation*
0 The origin of the aperture is its center*
0 number of corners: always 5*
0 $1 to $10 corner X, Y*
0 $11 Rotation angle, in degrees counterclockwise*
0 create outline with 5 corners*
4,1,5,$1,$2,$3,$4,$5,$6,$7,$8,$9,$10,$1,$2,$11*%
%AMOutline6P*
0 Free polygon, 6 corners , with rotation*
0 The origin of the aperture is its center*
0 number of corners: always 6*
0 $1 to $12 corner X, Y*
0 $13 Rotation angle, in degrees counterclockwise*
0 create outline with 6 corners*
4,1,6,$1,$2,$3,$4,$5,$6,$7,$8,$9,$10,$11,$12,$1,$2,$13*%
%AMOutline7P*
0 Free polygon, 7 corners , with rotation*
0 The origin of the aperture is its center*
0 number of corners: always 7*
0 $1 to $14 corner X, Y*
0 $15 Rotation angle, in degrees counterclockwise*
0 create outline with 7 corners*
4,1,7,$1,$2,$3,$4,$5,$6,$7,$8,$9,$10,$11,$12,$13,$14,$1,$2,$15*%
%AMOutline8P*
0 Free polygon, 8 corners , with rotation*
0 The origin of the aperture is its center*
0 number of corners: always 8*
0 $1 to $16 corner X, Y*
0 $17 Rotation angle, in degrees counterclockwise*
0 create outline with 8 corners*
4,1,8,$1,$2,$3,$4,$5,$6,$7,$8,$9,$10,$11,$12,$13,$14,$15,$16,$1,$2,$17*%
G04 Aperture macros list end*
G04 #@! TA.AperFunction,ComponentPad*
%ADD10C,1.700000*%
G04 #@! TD*
G04 #@! TA.AperFunction,ComponentPad*
%ADD11R,1.700000X1.700000*%
G04 #@! TD*
G04 #@! TA.AperFunction,ComponentPad*
%ADD12O,1.700000X1.700000*%
G04 #@! TD*
G04 #@! TA.AperFunction,ComponentPad*
%ADD13Outline5P,-0.850000X0.510000X-0.510000X0.850000X0.850000X0.850000X0.850000X-0.850000X-0.850000X-0.850000X180.000000*%
G04 #@! TD*
G04 #@! TA.AperFunction,ComponentPad*
%ADD14Outline5P,-0.850000X0.510000X-0.510000X0.850000X0.850000X0.850000X0.850000X-0.850000X-0.850000X-0.850000X0.000000*%
G04 #@! TD*
G04 #@! TA.AperFunction,ComponentPad*
%ADD15O,6.000000X2.000000*%
G04 #@! TD*
G04 #@! TA.AperFunction,ComponentPad*
%ADD16Outline5P,-0.850000X0.510000X-0.510000X0.850000X0.850000X0.850000X0.850000X-0.850000X-0.850000X-0.850000X90.000000*%
G04 #@! TD*
G04 #@! TA.AperFunction,ComponentPad*
%ADD17R,6.000000X2.000000*%
G04 #@! TD*
G04 #@! TA.AperFunction,ComponentPad*
%ADD18Outline4P,-0.850000X-0.850000X0.850000X-0.850000X0.850000X0.850000X-0.850000X0.850000X0.000000*%
G04 #@! TD*
G04 #@! TA.AperFunction,ComponentPad*
%ADD19O,1.600000X2.400000*%
G04 #@! TD*
G04 #@! TA.AperFunction,ComponentPad*
%ADD20R,1.600000X2.400000*%
G04 #@! TD*
G04 #@! TA.AperFunction,Conductor*
%ADD21C,1.000000*%
G04 #@! TD*
G04 #@! TA.AperFunction,Conductor*
%ADD22C,1.250000*%
G04 #@! TD*
G04 APERTURE END LIST*
D10*
X58390000Y-67710000D03*
D11*
X56390000Y-67710000D03*
D10*
X82607500Y-62992500D03*
D11*
X82607500Y-60452500D03*
D12*
X82607500Y-57912500D03*
X82607500Y-55372500D03*
D13*
X82607500Y-52832500D03*
D10*
X93197500Y-26002500D03*
D11*
X93197500Y-28542500D03*
D12*
X93197500Y-31082500D03*
X93197500Y-33622500D03*
D14*
X93197500Y-36162500D03*
D11*
X33085000Y-41372500D03*
D12*
X30545000Y-41372500D03*
X28005000Y-41372500D03*
X25465000Y-41372500D03*
D11*
X40105000Y-22112500D03*
D10*
X33095000Y-23912500D03*
D12*
X30555000Y-23912500D03*
X28015000Y-23912500D03*
X25475000Y-23912500D03*
X42645000Y-22112500D03*
D14*
X27885000Y-57177500D03*
X30425000Y-57177500D03*
D10*
X34160000Y-57300000D03*
D11*
X34160000Y-59300000D03*
D10*
X75197500Y-26002500D03*
D11*
X75197500Y-28542500D03*
D12*
X75197500Y-31082500D03*
X75197500Y-33622500D03*
D14*
X75197500Y-36162500D03*
D15*
X21615000Y-53102500D03*
D10*
X88607500Y-62992500D03*
D11*
X88607500Y-60452500D03*
D12*
X88607500Y-57912500D03*
X88607500Y-55372500D03*
D13*
X88607500Y-52832500D03*
D16*
X55060000Y-47080000D03*
X57600000Y-47080000D03*
D10*
X40860000Y-57290000D03*
D12*
X40860000Y-59830000D03*
D10*
X38357500Y-42507500D03*
D12*
X40897500Y-42507500D03*
D10*
X87197500Y-26002500D03*
D11*
X87197500Y-28542500D03*
D12*
X87197500Y-31082500D03*
X87197500Y-33622500D03*
D14*
X87197500Y-36162500D03*
D12*
X66602500Y-67507500D03*
X66602500Y-64967500D03*
D11*
X66602500Y-62427500D03*
D12*
X66602500Y-57347500D03*
X66602500Y-54807500D03*
X66602500Y-52267500D03*
D11*
X66602500Y-49727500D03*
D12*
X66602500Y-47187500D03*
X66602500Y-44647500D03*
X66602500Y-42107500D03*
X66602500Y-39567500D03*
D11*
X66602500Y-37027500D03*
D12*
X66602500Y-34487500D03*
X66602500Y-31947500D03*
X66602500Y-29407500D03*
X66602500Y-26867500D03*
D11*
X66602500Y-24327500D03*
D12*
X48822500Y-19247500D03*
X48822500Y-21787500D03*
D11*
X48822500Y-24327500D03*
D12*
X48822500Y-26867500D03*
X48822500Y-29407500D03*
X48822500Y-31947500D03*
X48822500Y-34487500D03*
D11*
X48822500Y-37027500D03*
D12*
X48822500Y-39567500D03*
X48822500Y-42107500D03*
X48822500Y-44647500D03*
X48822500Y-47187500D03*
D11*
X48822500Y-49727500D03*
D12*
X48822500Y-52267500D03*
X48822500Y-54807500D03*
X48822500Y-57347500D03*
X48822500Y-59887500D03*
D11*
X48822500Y-62427500D03*
D12*
X48822500Y-64967500D03*
X48822500Y-67507500D03*
D17*
X21570000Y-64780000D03*
D10*
X44040000Y-29540000D03*
X44040000Y-27000000D03*
D18*
X38357500Y-39867500D03*
D12*
X40897500Y-39867500D03*
D10*
X40775000Y-68555000D03*
D11*
X40775000Y-66015000D03*
D13*
X40775000Y-63475000D03*
D10*
X41140000Y-29587500D03*
D11*
X41140000Y-32127500D03*
D14*
X41140000Y-34667500D03*
D12*
X86080000Y-67490000D03*
X81000000Y-67490000D03*
X83540000Y-67490000D03*
X88620000Y-67490000D03*
D15*
X21595000Y-59827500D03*
X21690000Y-47480000D03*
D10*
X76607500Y-62992500D03*
D11*
X76607500Y-60452500D03*
D12*
X76607500Y-57912500D03*
X76607500Y-55372500D03*
D13*
X76607500Y-52832500D03*
D16*
X55080000Y-31740000D03*
X57620000Y-31740000D03*
D10*
X44052500Y-48220000D03*
D12*
X44052500Y-45680000D03*
D14*
X51125000Y-69757500D03*
X53665000Y-69757500D03*
D10*
X94607500Y-62992500D03*
D11*
X94607500Y-60452500D03*
D12*
X94607500Y-57912500D03*
X94607500Y-55372500D03*
D13*
X94607500Y-52832500D03*
D15*
X21600000Y-31550000D03*
X21567500Y-36785000D03*
D10*
X41165000Y-48132500D03*
D11*
X41165000Y-50672500D03*
D14*
X41165000Y-53212500D03*
D10*
X81197500Y-26002500D03*
D11*
X81197500Y-28542500D03*
D12*
X81197500Y-31082500D03*
X81197500Y-33622500D03*
D14*
X81197500Y-36162500D03*
D19*
X93275000Y-40562500D03*
X90735000Y-40562500D03*
X88195000Y-40562500D03*
X85655000Y-40562500D03*
X83115000Y-40562500D03*
X80575000Y-40562500D03*
D20*
X78035000Y-40562500D03*
X75495000Y-40562500D03*
D19*
X75495000Y-48182500D03*
X78035000Y-48182500D03*
X80575000Y-48182500D03*
X83115000Y-48182500D03*
X85655000Y-48182500D03*
X88195000Y-48182500D03*
X90735000Y-48182500D03*
X93275000Y-48182500D03*
D21*
X93197500Y-28542500D02*
X75197500Y-28542500D01*
X73262500Y-40562500D02*
X69727500Y-37027500D01*
X69727500Y-37027500D02*
X66602500Y-37027500D01*
X75495000Y-40562500D02*
X73262500Y-40562500D01*
X68177500Y-24327500D02*
X66602500Y-24327500D01*
X78035000Y-40562500D02*
X75495000Y-40562500D01*
X72392500Y-28542500D02*
X68177500Y-24327500D01*
X48822500Y-24327500D02*
X48817500Y-24322500D01*
X75197500Y-28542500D02*
X72392500Y-28542500D01*
X40860000Y-59830000D02*
X40860000Y-63390000D01*
D22*
X42645000Y-22112500D02*
X42645000Y-23572500D01*
X27885000Y-55675000D02*
X27885000Y-57177500D01*
D21*
X40850000Y-57300000D02*
X40860000Y-57290000D01*
D22*
X25235000Y-59827500D02*
X27885000Y-57177500D01*
D21*
X30425000Y-57177500D02*
X34037500Y-57177500D01*
X40860000Y-63390000D02*
X40775000Y-63475000D01*
D22*
X42645000Y-23572500D02*
X35800000Y-30417500D01*
X35800000Y-42540000D02*
X35832500Y-42507500D01*
X21595000Y-59827500D02*
X25235000Y-59827500D01*
X42645000Y-22112500D02*
X42645000Y-22672500D01*
X35832500Y-42507500D02*
X38357500Y-42507500D01*
D21*
X34160000Y-57300000D02*
X40850000Y-57300000D01*
D22*
X35800000Y-47760000D02*
X27885000Y-55675000D01*
X35800000Y-30417500D02*
X35800000Y-47760000D01*
D21*
X34037500Y-57177500D02*
X34160000Y-57300000D01*
X93275000Y-48182500D02*
X93310000Y-48217500D01*
X93275000Y-49880000D02*
X93275000Y-48182500D01*
X58390000Y-65200000D02*
X63660000Y-59930000D01*
X48822500Y-64967500D02*
X58157500Y-64967500D01*
X53665000Y-69757500D02*
X57902500Y-69757500D01*
X71572500Y-63032500D02*
X94567500Y-63032500D01*
X73092500Y-26002500D02*
X69000000Y-21910000D01*
X63282500Y-60307500D02*
X63270000Y-60320000D01*
X41977500Y-69757500D02*
X40775000Y-68555000D01*
X63282500Y-23627500D02*
X63282500Y-60307500D01*
X91825000Y-51330000D02*
X93275000Y-49880000D01*
X91825000Y-63027500D02*
X91825000Y-51330000D01*
X58157500Y-64967500D02*
X58390000Y-65200000D01*
X65000000Y-21910000D02*
X63282500Y-23627500D01*
X69000000Y-21910000D02*
X65000000Y-21910000D01*
X57902500Y-69757500D02*
X58390000Y-69270000D01*
X51125000Y-69757500D02*
X41977500Y-69757500D01*
X75197500Y-26002500D02*
X73092500Y-26002500D01*
X58390000Y-65200000D02*
X58390000Y-67710000D01*
X88620000Y-67490000D02*
X88620000Y-63005000D01*
X63270000Y-60320000D02*
X63660000Y-59930000D01*
X63660000Y-59930000D02*
X68470000Y-59930000D01*
X68470000Y-59930000D02*
X71572500Y-63032500D01*
X58390000Y-69270000D02*
X58390000Y-67710000D01*
X75197500Y-26002500D02*
X93197500Y-26002500D01*
X91830000Y-63032500D02*
X91825000Y-63027500D01*
X41165000Y-48132500D02*
X43965000Y-48132500D01*
X47490000Y-29407500D02*
X48822500Y-29407500D01*
X43885000Y-48052500D02*
X44052500Y-48220000D01*
X46135000Y-30762500D02*
X47490000Y-29407500D01*
X46135000Y-43597500D02*
X46135000Y-30762500D01*
X44052500Y-45680000D02*
X46135000Y-43597500D01*
X43965000Y-48132500D02*
X44052500Y-48220000D01*
X44172500Y-26867500D02*
X48822500Y-26867500D01*
X41140000Y-29587500D02*
X43992500Y-29587500D01*
X44040000Y-27000000D02*
X44172500Y-26867500D01*
X43992500Y-29587500D02*
X44040000Y-29540000D01*
X73670000Y-44470000D02*
X68767500Y-39567500D01*
X68767500Y-39567500D02*
X66602500Y-39567500D01*
X80575000Y-48182500D02*
X80575000Y-46945000D01*
X78100000Y-44470000D02*
X73670000Y-44470000D01*
X80575000Y-46945000D02*
X78100000Y-44470000D01*
X78035000Y-47025000D02*
X76990000Y-45980000D01*
X72100000Y-45980000D02*
X68227500Y-42107500D01*
X68227500Y-42107500D02*
X66602500Y-42107500D01*
X78035000Y-48182500D02*
X78035000Y-47025000D01*
X76990000Y-45980000D02*
X72100000Y-45980000D01*
X67497500Y-44647500D02*
X66602500Y-44647500D01*
X71032500Y-48182500D02*
X67497500Y-44647500D01*
X75495000Y-48182500D02*
X71032500Y-48182500D01*
X83140000Y-65680000D02*
X83540000Y-66080000D01*
X66602500Y-64967500D02*
X68557500Y-64967500D01*
X83540000Y-66080000D02*
X83540000Y-67490000D01*
X68557500Y-64967500D02*
X69270000Y-65680000D01*
X69270000Y-65680000D02*
X83140000Y-65680000D01*
X80997500Y-67487500D02*
X81000000Y-67490000D01*
X66602500Y-67507500D02*
X66622500Y-67487500D01*
X66622500Y-67487500D02*
X80997500Y-67487500D01*
X95672500Y-57912500D02*
X94607500Y-57912500D01*
X93197500Y-31082500D02*
X95267500Y-31082500D01*
X74037500Y-31082500D02*
X70632500Y-34487500D01*
X95267500Y-31082500D02*
X96820000Y-32635000D01*
X70632500Y-34487500D02*
X66602500Y-34487500D01*
X96820000Y-32635000D02*
X96820000Y-56765000D01*
X96820000Y-56765000D02*
X95672500Y-57912500D01*
X75197500Y-31082500D02*
X93197500Y-31082500D01*
X75197500Y-31082500D02*
X74037500Y-31082500D01*
X48822500Y-47187500D02*
X54952500Y-47187500D01*
X54952500Y-47187500D02*
X55060000Y-47080000D01*
X57600000Y-47080000D02*
X57600000Y-49280000D01*
X57600000Y-49280000D02*
X54612500Y-52267500D01*
X54612500Y-52267500D02*
X48822500Y-52267500D01*
X57620000Y-33350000D02*
X57620000Y-31740000D01*
X56482500Y-34487500D02*
X57620000Y-33350000D01*
X48822500Y-34487500D02*
X56482500Y-34487500D01*
X49030000Y-31740000D02*
X55080000Y-31740000D01*
X48822500Y-31947500D02*
X49030000Y-31740000D01*
M02*
