M48
; DRILL file {KiCad 7.0.7} date 2024 May 08, Wednesday 01:23:12
; FORMAT={-:-/ absolute / metric / decimal}
; #@! TF.CreationDate,2024-05-08T01:23:12+03:00
; #@! TF.GenerationSoftware,Kicad,Pcbnew,7.0.7
; #@! TF.FileFunction,Plated,1,2,PTH
FMAT,2
METRIC
; #@! TA.AperFunction,Plated,PTH,ComponentDrill
T1C1.000
; #@! TA.AperFunction,Plated,PTH,ComponentDrill
T2C1.500
%
G90
G05
T1
X27.425Y-70.737
X27.58Y-24.08
X27.58Y-64.72
X29.965Y-70.737
X30.67Y-61.65
X30.67Y-66.73
X33.185Y-43.322
X33.195Y-25.862
X35.725Y-43.322
X35.735Y-25.862
X38.265Y-43.322
X38.275Y-25.862
X40.805Y-43.322
X40.815Y-25.862
X45.36Y-24.08
X45.36Y-64.72
X46.078Y-41.817
X46.078Y-44.457
X47.825Y-24.062
X48.617Y-41.817
X48.617Y-44.457
X48.86Y-31.537
X48.86Y-34.078
X48.86Y-36.617
X48.885Y-50.082
X48.885Y-52.622
X48.885Y-55.162
X50.365Y-24.062
X51.76Y-28.95
X51.76Y-31.49
X51.773Y-47.63
X51.773Y-50.17
X56.542Y-21.197
X56.542Y-23.737
X56.542Y-26.277
X56.542Y-28.817
X56.542Y-31.357
X56.542Y-33.898
X56.542Y-36.438
X56.542Y-38.977
X56.542Y-41.517
X56.542Y-44.057
X56.542Y-46.597
X56.542Y-49.137
X56.542Y-51.677
X56.542Y-54.217
X56.542Y-56.758
X56.542Y-59.297
X56.542Y-61.837
X56.542Y-64.377
X56.542Y-66.918
X56.542Y-69.457
X62.78Y-49.03
X62.8Y-33.69
X65.32Y-49.03
X65.34Y-33.69
X74.322Y-26.277
X74.322Y-28.817
X74.322Y-31.357
X74.322Y-33.898
X74.322Y-36.438
X74.322Y-38.977
X74.322Y-41.517
X74.322Y-44.057
X74.322Y-46.597
X74.322Y-49.137
X74.322Y-51.677
X74.322Y-54.217
X74.322Y-56.758
X74.322Y-59.297
X74.322Y-64.377
X74.322Y-66.918
X74.322Y-69.457
X82.917Y-27.952
X82.917Y-30.492
X82.917Y-33.032
X82.917Y-35.572
X82.917Y-38.112
X83.215Y-42.512
X83.215Y-50.133
X84.328Y-54.782
X84.328Y-57.322
X84.328Y-59.862
X84.328Y-62.402
X84.328Y-64.942
X85.755Y-42.512
X85.755Y-50.133
X88.295Y-42.512
X88.295Y-50.133
X88.775Y-70.915
X88.917Y-27.952
X88.917Y-30.492
X88.917Y-33.032
X88.917Y-35.572
X88.917Y-38.112
X90.328Y-54.782
X90.328Y-57.322
X90.328Y-59.862
X90.328Y-62.402
X90.328Y-64.942
X90.835Y-42.512
X90.835Y-50.133
X91.315Y-70.915
X93.375Y-42.512
X93.375Y-50.133
X93.855Y-70.915
X94.917Y-27.952
X94.917Y-30.492
X94.917Y-33.032
X94.917Y-35.572
X94.917Y-38.112
X95.915Y-42.512
X95.915Y-50.133
X96.328Y-54.782
X96.328Y-57.322
X96.328Y-59.862
X96.328Y-62.402
X96.328Y-64.942
X96.395Y-70.915
X98.455Y-42.512
X98.455Y-50.133
X100.917Y-27.952
X100.917Y-30.492
X100.917Y-33.032
X100.917Y-35.572
X100.917Y-38.112
X100.995Y-42.512
X100.995Y-50.133
X102.328Y-54.782
X102.328Y-57.322
X102.328Y-59.862
X102.328Y-62.402
X102.328Y-64.942
T2
X23.418Y-39.955
X23.432Y-51.265
X23.438Y-45.617
X23.45Y-34.32
X23.47Y-26.4
X23.49Y-20.7
T0
M30
