%TF.GenerationSoftware,KiCad,Pcbnew,7.0.7*%
%TF.CreationDate,2024-05-09T17:47:57+03:00*%
%TF.ProjectId,pico-hd-mcu-v2,7069636f-2d68-4642-9d6d-63752d76322e,rev?*%
%TF.SameCoordinates,Original*%
%TF.FileFunction,Drillmap*%
%TF.FilePolarity,Positive*%
%FSLAX45Y45*%
G04 Gerber Fmt 4.5, Leading zero omitted, Abs format (unit mm)*
G04 Created by KiCad (PCBNEW 7.0.7) date 2024-05-09 17:47:57*
%MOMM*%
%LPD*%
G01*
G04 APERTURE LIST*
%ADD10C,0.200000*%
G04 APERTURE END LIST*
D10*
X10975500Y-8425000D02*
X7100000Y-8425000D01*
X7099000Y-11461000D01*
X2181500Y-11461000D01*
X2181500Y-2659000D01*
X10975500Y-2659000D01*
X10975500Y-8425000D01*
X2432277Y-11782484D02*
X2432277Y-11582484D01*
X2432277Y-11582484D02*
X2479896Y-11582484D01*
X2479896Y-11582484D02*
X2508467Y-11592008D01*
X2508467Y-11592008D02*
X2527515Y-11611055D01*
X2527515Y-11611055D02*
X2537039Y-11630103D01*
X2537039Y-11630103D02*
X2546563Y-11668198D01*
X2546563Y-11668198D02*
X2546563Y-11696769D01*
X2546563Y-11696769D02*
X2537039Y-11734865D01*
X2537039Y-11734865D02*
X2527515Y-11753912D01*
X2527515Y-11753912D02*
X2508467Y-11772960D01*
X2508467Y-11772960D02*
X2479896Y-11782484D01*
X2479896Y-11782484D02*
X2432277Y-11782484D01*
X2632277Y-11782484D02*
X2632277Y-11649150D01*
X2632277Y-11687246D02*
X2641801Y-11668198D01*
X2641801Y-11668198D02*
X2651324Y-11658674D01*
X2651324Y-11658674D02*
X2670372Y-11649150D01*
X2670372Y-11649150D02*
X2689420Y-11649150D01*
X2756086Y-11782484D02*
X2756086Y-11649150D01*
X2756086Y-11582484D02*
X2746563Y-11592008D01*
X2746563Y-11592008D02*
X2756086Y-11601531D01*
X2756086Y-11601531D02*
X2765610Y-11592008D01*
X2765610Y-11592008D02*
X2756086Y-11582484D01*
X2756086Y-11582484D02*
X2756086Y-11601531D01*
X2879896Y-11782484D02*
X2860848Y-11772960D01*
X2860848Y-11772960D02*
X2851324Y-11753912D01*
X2851324Y-11753912D02*
X2851324Y-11582484D01*
X2984658Y-11782484D02*
X2965610Y-11772960D01*
X2965610Y-11772960D02*
X2956086Y-11753912D01*
X2956086Y-11753912D02*
X2956086Y-11582484D01*
X3213229Y-11782484D02*
X3213229Y-11582484D01*
X3213229Y-11582484D02*
X3279896Y-11725341D01*
X3279896Y-11725341D02*
X3346562Y-11582484D01*
X3346562Y-11582484D02*
X3346562Y-11782484D01*
X3527515Y-11782484D02*
X3527515Y-11677722D01*
X3527515Y-11677722D02*
X3517991Y-11658674D01*
X3517991Y-11658674D02*
X3498943Y-11649150D01*
X3498943Y-11649150D02*
X3460848Y-11649150D01*
X3460848Y-11649150D02*
X3441801Y-11658674D01*
X3527515Y-11772960D02*
X3508467Y-11782484D01*
X3508467Y-11782484D02*
X3460848Y-11782484D01*
X3460848Y-11782484D02*
X3441801Y-11772960D01*
X3441801Y-11772960D02*
X3432277Y-11753912D01*
X3432277Y-11753912D02*
X3432277Y-11734865D01*
X3432277Y-11734865D02*
X3441801Y-11715817D01*
X3441801Y-11715817D02*
X3460848Y-11706293D01*
X3460848Y-11706293D02*
X3508467Y-11706293D01*
X3508467Y-11706293D02*
X3527515Y-11696769D01*
X3622753Y-11649150D02*
X3622753Y-11849150D01*
X3622753Y-11658674D02*
X3641801Y-11649150D01*
X3641801Y-11649150D02*
X3679896Y-11649150D01*
X3679896Y-11649150D02*
X3698943Y-11658674D01*
X3698943Y-11658674D02*
X3708467Y-11668198D01*
X3708467Y-11668198D02*
X3717991Y-11687246D01*
X3717991Y-11687246D02*
X3717991Y-11744388D01*
X3717991Y-11744388D02*
X3708467Y-11763436D01*
X3708467Y-11763436D02*
X3698943Y-11772960D01*
X3698943Y-11772960D02*
X3679896Y-11782484D01*
X3679896Y-11782484D02*
X3641801Y-11782484D01*
X3641801Y-11782484D02*
X3622753Y-11772960D01*
X3803705Y-11763436D02*
X3813229Y-11772960D01*
X3813229Y-11772960D02*
X3803705Y-11782484D01*
X3803705Y-11782484D02*
X3794182Y-11772960D01*
X3794182Y-11772960D02*
X3803705Y-11763436D01*
X3803705Y-11763436D02*
X3803705Y-11782484D01*
X3803705Y-11658674D02*
X3813229Y-11668198D01*
X3813229Y-11668198D02*
X3803705Y-11677722D01*
X3803705Y-11677722D02*
X3794182Y-11668198D01*
X3794182Y-11668198D02*
X3803705Y-11658674D01*
X3803705Y-11658674D02*
X3803705Y-11677722D01*
M02*
