G04 #@! TF.GenerationSoftware,KiCad,Pcbnew,7.0.7*
G04 #@! TF.CreationDate,2024-05-09T03:47:05+03:00*
G04 #@! TF.ProjectId,pico-hd-mcu-v2,7069636f-2d68-4642-9d6d-63752d76322e,rev?*
G04 #@! TF.SameCoordinates,Original*
G04 #@! TF.FileFunction,Copper,L2,Bot*
G04 #@! TF.FilePolarity,Positive*
%FSLAX46Y46*%
G04 Gerber Fmt 4.6, Leading zero omitted, Abs format (unit mm)*
G04 Created by KiCad (PCBNEW 7.0.7) date 2024-05-09 03:47:05*
%MOMM*%
%LPD*%
G01*
G04 APERTURE LIST*
G04 Aperture macros list*
%AMOutline4P*
0 Free polygon, 4 corners , with rotation*
0 The origin of the aperture is its center*
0 number of corners: always 4*
0 $1 to $8 corner X, Y*
0 $9 Rotation angle, in degrees counterclockwise*
0 create outline with 4 corners*
4,1,4,$1,$2,$3,$4,$5,$6,$7,$8,$1,$2,$9*%
%AMOutline5P*
0 Free polygon, 5 corners , with rotation*
0 The origin of the aperture is its center*
0 number of corners: always 5*
0 $1 to $10 corner X, Y*
0 $11 Rotation angle, in degrees counterclockwise*
0 create outline with 5 corners*
4,1,5,$1,$2,$3,$4,$5,$6,$7,$8,$9,$10,$1,$2,$11*%
%AMOutline6P*
0 Free polygon, 6 corners , with rotation*
0 The origin of the aperture is its center*
0 number of corners: always 6*
0 $1 to $12 corner X, Y*
0 $13 Rotation angle, in degrees counterclockwise*
0 create outline with 6 corners*
4,1,6,$1,$2,$3,$4,$5,$6,$7,$8,$9,$10,$11,$12,$1,$2,$13*%
%AMOutline7P*
0 Free polygon, 7 corners , with rotation*
0 The origin of the aperture is its center*
0 number of corners: always 7*
0 $1 to $14 corner X, Y*
0 $15 Rotation angle, in degrees counterclockwise*
0 create outline with 7 corners*
4,1,7,$1,$2,$3,$4,$5,$6,$7,$8,$9,$10,$11,$12,$13,$14,$1,$2,$15*%
%AMOutline8P*
0 Free polygon, 8 corners , with rotation*
0 The origin of the aperture is its center*
0 number of corners: always 8*
0 $1 to $16 corner X, Y*
0 $17 Rotation angle, in degrees counterclockwise*
0 create outline with 8 corners*
4,1,8,$1,$2,$3,$4,$5,$6,$7,$8,$9,$10,$11,$12,$13,$14,$15,$16,$1,$2,$17*%
G04 Aperture macros list end*
G04 #@! TA.AperFunction,ComponentPad*
%ADD10R,1.700000X1.700000*%
G04 #@! TD*
G04 #@! TA.AperFunction,ComponentPad*
%ADD11O,1.700000X1.700000*%
G04 #@! TD*
G04 #@! TA.AperFunction,ComponentPad*
%ADD12Outline5P,-0.850000X0.510000X-0.510000X0.850000X0.850000X0.850000X0.850000X-0.850000X-0.850000X-0.850000X90.000000*%
G04 #@! TD*
G04 #@! TA.AperFunction,ComponentPad*
%ADD13C,1.700000*%
G04 #@! TD*
G04 #@! TA.AperFunction,ComponentPad*
%ADD14Outline5P,-0.850000X0.510000X-0.510000X0.850000X0.850000X0.850000X0.850000X-0.850000X-0.850000X-0.850000X180.000000*%
G04 #@! TD*
G04 #@! TA.AperFunction,ComponentPad*
%ADD15Outline5P,-0.850000X0.510000X-0.510000X0.850000X0.850000X0.850000X0.850000X-0.850000X-0.850000X-0.850000X0.000000*%
G04 #@! TD*
G04 #@! TA.AperFunction,ComponentPad*
%ADD16C,3.000000*%
G04 #@! TD*
G04 #@! TA.AperFunction,ComponentPad*
%ADD17O,6.000000X2.000000*%
G04 #@! TD*
G04 #@! TA.AperFunction,ComponentPad*
%ADD18R,6.000000X2.000000*%
G04 #@! TD*
G04 #@! TA.AperFunction,ComponentPad*
%ADD19R,3.000000X3.000000*%
G04 #@! TD*
G04 #@! TA.AperFunction,ComponentPad*
%ADD20Outline4P,-0.850000X-0.850000X0.850000X-0.850000X0.850000X0.850000X-0.850000X0.850000X0.000000*%
G04 #@! TD*
G04 #@! TA.AperFunction,ComponentPad*
%ADD21O,1.600000X2.400000*%
G04 #@! TD*
G04 #@! TA.AperFunction,ComponentPad*
%ADD22R,1.600000X2.400000*%
G04 #@! TD*
G04 #@! TA.AperFunction,ViaPad*
%ADD23C,1.500000*%
G04 #@! TD*
G04 #@! TA.AperFunction,Conductor*
%ADD24C,1.000000*%
G04 #@! TD*
G04 #@! TA.AperFunction,Conductor*
%ADD25C,1.250000*%
G04 #@! TD*
G04 APERTURE END LIST*
D10*
X58355000Y-92320000D03*
D11*
X60895000Y-92320000D03*
X63435000Y-92320000D03*
X65975000Y-92320000D03*
D12*
X68515000Y-92320000D03*
D10*
X58285000Y-108760000D03*
D11*
X60825000Y-108760000D03*
X63365000Y-108760000D03*
X65905000Y-108760000D03*
D12*
X68445000Y-108760000D03*
D13*
X93540000Y-74235000D03*
D10*
X93540000Y-71695000D03*
D11*
X93540000Y-69155000D03*
X93540000Y-66615000D03*
D14*
X93540000Y-64075000D03*
D13*
X104130000Y-37245000D03*
D10*
X104130000Y-39785000D03*
D11*
X104130000Y-42325000D03*
X104130000Y-44865000D03*
D15*
X104130000Y-47405000D03*
D10*
X44017500Y-52615000D03*
D11*
X41477500Y-52615000D03*
X38937500Y-52615000D03*
X36397500Y-52615000D03*
D10*
X51037500Y-33355000D03*
D13*
X44027500Y-35155000D03*
D11*
X41487500Y-35155000D03*
X38947500Y-35155000D03*
X36407500Y-35155000D03*
X53577500Y-33355000D03*
D13*
X24335000Y-97540000D03*
D10*
X26875000Y-97540000D03*
D11*
X29415000Y-97540000D03*
X31955000Y-97540000D03*
D12*
X34495000Y-97540000D03*
D16*
X106802500Y-29292500D03*
D13*
X86130000Y-37245000D03*
D10*
X86130000Y-39785000D03*
D11*
X86130000Y-42325000D03*
X86130000Y-44865000D03*
D15*
X86130000Y-47405000D03*
D17*
X26645000Y-60557500D03*
D10*
X33882500Y-70942500D03*
D11*
X33882500Y-76022500D03*
D13*
X99540000Y-74235000D03*
D10*
X99540000Y-71695000D03*
D11*
X99540000Y-69155000D03*
X99540000Y-66615000D03*
D14*
X99540000Y-64075000D03*
D13*
X24335000Y-109540000D03*
D10*
X26875000Y-109540000D03*
D11*
X29415000Y-109540000D03*
X31955000Y-109540000D03*
D12*
X34495000Y-109540000D03*
X65992500Y-58322500D03*
X68532500Y-58322500D03*
D16*
X106912500Y-81792500D03*
D13*
X49290000Y-53750000D03*
D11*
X51830000Y-53750000D03*
D13*
X98130000Y-37245000D03*
D10*
X98130000Y-39785000D03*
D11*
X98130000Y-42325000D03*
X98130000Y-44865000D03*
D15*
X98130000Y-47405000D03*
D11*
X77535000Y-78750000D03*
X77535000Y-76210000D03*
D10*
X77535000Y-73670000D03*
D11*
X77535000Y-68590000D03*
X77535000Y-66050000D03*
X77535000Y-63510000D03*
D10*
X77535000Y-60970000D03*
D11*
X77535000Y-58430000D03*
X77535000Y-55890000D03*
X77535000Y-53350000D03*
X77535000Y-50810000D03*
D10*
X77535000Y-48270000D03*
D11*
X77535000Y-45730000D03*
X77535000Y-43190000D03*
X77535000Y-40650000D03*
X77535000Y-38110000D03*
D10*
X77535000Y-35570000D03*
D11*
X59755000Y-30490000D03*
X59755000Y-33030000D03*
D10*
X59755000Y-35570000D03*
D11*
X59755000Y-38110000D03*
X59755000Y-40650000D03*
X59755000Y-43190000D03*
X59755000Y-45730000D03*
D10*
X59755000Y-48270000D03*
D11*
X59755000Y-50810000D03*
X59755000Y-53350000D03*
X59755000Y-55890000D03*
X59755000Y-58430000D03*
D10*
X59755000Y-60970000D03*
D11*
X59755000Y-63510000D03*
X59755000Y-66050000D03*
X59755000Y-68590000D03*
X59755000Y-71130000D03*
D10*
X59755000Y-73670000D03*
D11*
X59755000Y-76210000D03*
X59755000Y-78750000D03*
D13*
X24335000Y-103540000D03*
D10*
X26875000Y-103540000D03*
D11*
X29415000Y-103540000D03*
X31955000Y-103540000D03*
D12*
X34495000Y-103540000D03*
D18*
X26702500Y-29992500D03*
D16*
X83212500Y-81792500D03*
D13*
X54972500Y-40782500D03*
X54972500Y-38242500D03*
D19*
X83212500Y-29292500D03*
D20*
X49290000Y-51110000D03*
D11*
X51830000Y-51110000D03*
D13*
X52072500Y-40830000D03*
D10*
X52072500Y-43370000D03*
D15*
X52072500Y-45910000D03*
D11*
X97067500Y-80207500D03*
X91987500Y-80207500D03*
X94527500Y-80207500D03*
X99607500Y-80207500D03*
D16*
X47212500Y-81792500D03*
D17*
X26682500Y-35692500D03*
X26650000Y-54910000D03*
D13*
X87540000Y-74235000D03*
D10*
X87540000Y-71695000D03*
D11*
X87540000Y-69155000D03*
X87540000Y-66615000D03*
D14*
X87540000Y-64075000D03*
D10*
X41905000Y-92250000D03*
D11*
X44445000Y-92250000D03*
X46985000Y-92250000D03*
X49525000Y-92250000D03*
D12*
X52065000Y-92250000D03*
X66012500Y-42982500D03*
X68552500Y-42982500D03*
D13*
X54985000Y-59462500D03*
D11*
X54985000Y-56922500D03*
D15*
X30637500Y-80030000D03*
X33177500Y-80030000D03*
D13*
X105540000Y-74235000D03*
D10*
X105540000Y-71695000D03*
D11*
X105540000Y-69155000D03*
X105540000Y-66615000D03*
D14*
X105540000Y-64075000D03*
D17*
X26662500Y-43612500D03*
D10*
X41845000Y-108760000D03*
D11*
X44385000Y-108760000D03*
X46925000Y-108760000D03*
X49465000Y-108760000D03*
D12*
X52005000Y-108760000D03*
D17*
X26630000Y-49247500D03*
D13*
X24335000Y-91540000D03*
D10*
X26875000Y-91540000D03*
D11*
X29415000Y-91540000D03*
X31955000Y-91540000D03*
D12*
X34495000Y-91540000D03*
D13*
X52097500Y-59375000D03*
D10*
X52097500Y-61915000D03*
D15*
X52097500Y-64455000D03*
D13*
X92130000Y-37245000D03*
D10*
X92130000Y-39785000D03*
D11*
X92130000Y-42325000D03*
X92130000Y-44865000D03*
D15*
X92130000Y-47405000D03*
D21*
X104207500Y-51805000D03*
X101667500Y-51805000D03*
X99127500Y-51805000D03*
X96587500Y-51805000D03*
X94047500Y-51805000D03*
X91507500Y-51805000D03*
D22*
X88967500Y-51805000D03*
X86427500Y-51805000D03*
D21*
X86427500Y-59425000D03*
X88967500Y-59425000D03*
X91507500Y-59425000D03*
X94047500Y-59425000D03*
X96587500Y-59425000D03*
X99127500Y-59425000D03*
X101667500Y-59425000D03*
X104207500Y-59425000D03*
D16*
X27212500Y-39692500D03*
D10*
X48572500Y-33372500D03*
D11*
X30792500Y-33372500D03*
D10*
X48572500Y-74012500D03*
D11*
X30792500Y-74012500D03*
D23*
X47025000Y-100160000D03*
D24*
X66015000Y-112860000D02*
X68445000Y-110430000D01*
X36675000Y-112860000D02*
X66015000Y-112860000D01*
X68445000Y-110430000D02*
X68445000Y-108760000D01*
X34495000Y-110680000D02*
X36675000Y-112860000D01*
X34495000Y-109540000D02*
X34495000Y-110680000D01*
X60895000Y-92320000D02*
X60895000Y-90180000D01*
X24335000Y-89480000D02*
X24335000Y-91540000D01*
X60895000Y-90180000D02*
X58655000Y-87940000D01*
X58655000Y-87940000D02*
X25875000Y-87940000D01*
X25875000Y-87940000D02*
X24335000Y-89480000D01*
X31955000Y-106870000D02*
X35855000Y-106870000D01*
X64655000Y-111370000D02*
X65905000Y-110120000D01*
X35855000Y-106870000D02*
X40355000Y-111370000D01*
X65905000Y-110120000D02*
X65905000Y-108760000D01*
X40355000Y-111370000D02*
X64655000Y-111370000D01*
X41905000Y-92250000D02*
X41905000Y-89480000D01*
X41905000Y-89480000D02*
X41885000Y-89460000D01*
X26875000Y-91540000D02*
X26875000Y-90090000D01*
X58355000Y-90430000D02*
X58355000Y-92320000D01*
X26875000Y-90090000D02*
X27505000Y-89460000D01*
X27505000Y-89460000D02*
X57385000Y-89460000D01*
X57385000Y-89460000D02*
X58355000Y-90430000D01*
X58285000Y-108760000D02*
X58285000Y-92390000D01*
X58285000Y-92390000D02*
X58355000Y-92320000D01*
X60895000Y-92320000D02*
X60895000Y-108690000D01*
X60895000Y-108690000D02*
X60825000Y-108760000D01*
X41905000Y-92250000D02*
X41905000Y-108700000D01*
X41905000Y-108700000D02*
X41845000Y-108760000D01*
X44445000Y-92250000D02*
X44445000Y-108700000D01*
X44445000Y-108700000D02*
X44385000Y-108760000D01*
X46985000Y-92250000D02*
X46985000Y-108700000D01*
X46985000Y-108700000D02*
X46925000Y-108760000D01*
X49505000Y-111370000D02*
X49465000Y-111330000D01*
X49465000Y-111330000D02*
X49465000Y-108760000D01*
X31955000Y-109540000D02*
X31955000Y-108337919D01*
X49525000Y-108700000D02*
X49525000Y-92250000D01*
X51037500Y-33355000D02*
X51087500Y-33405000D01*
X59755000Y-35570000D02*
X77535000Y-35570000D01*
X49132500Y-42332500D02*
X50170000Y-43370000D01*
X77535000Y-30600000D02*
X78842500Y-29292500D01*
X97012500Y-71725000D02*
X97042500Y-71695000D01*
X53635000Y-61915000D02*
X56352500Y-64632500D01*
X51092500Y-35570000D02*
X59755000Y-35570000D01*
X74212500Y-35570000D02*
X77535000Y-35570000D01*
X77535000Y-48270000D02*
X75620000Y-48270000D01*
X77535000Y-73670000D02*
X59755000Y-73670000D01*
X49132500Y-39240000D02*
X49132500Y-42332500D01*
X54477500Y-47795000D02*
X54477500Y-44275000D01*
X79335000Y-73670000D02*
X77535000Y-73670000D01*
X51067500Y-37335000D02*
X52802500Y-35600000D01*
X75620000Y-48270000D02*
X74212500Y-46862500D01*
X97067500Y-80207500D02*
X97012500Y-80152500D01*
X97012500Y-80152500D02*
X97012500Y-71725000D01*
X50170000Y-43370000D02*
X52072500Y-43370000D01*
X54477500Y-44275000D02*
X53572500Y-43370000D01*
X51087500Y-33405000D02*
X51087500Y-37285000D01*
X53497500Y-48775000D02*
X54477500Y-47795000D01*
X49290000Y-51110000D02*
X49290000Y-50632500D01*
X59755000Y-73670000D02*
X59412500Y-74012500D01*
X51147500Y-48775000D02*
X53497500Y-48775000D01*
X56352500Y-73670000D02*
X59755000Y-73670000D01*
X81310000Y-71695000D02*
X79335000Y-73670000D01*
X51087500Y-35565000D02*
X51922500Y-36400000D01*
X49290000Y-50632500D02*
X51147500Y-48775000D01*
X51087500Y-37285000D02*
X51037500Y-37335000D01*
X77535000Y-35570000D02*
X77535000Y-30600000D01*
X51037500Y-37335000D02*
X51067500Y-37335000D01*
X87540000Y-71695000D02*
X81310000Y-71695000D01*
X56352500Y-69042500D02*
X56352500Y-73670000D01*
X49290000Y-51110000D02*
X48715000Y-51110000D01*
X46752500Y-58310000D02*
X50357500Y-61915000D01*
X46752500Y-53072500D02*
X46752500Y-58310000D01*
X53572500Y-43370000D02*
X52072500Y-43370000D01*
X87540000Y-71695000D02*
X105540000Y-71695000D01*
X51037500Y-37335000D02*
X49132500Y-39240000D01*
X26875000Y-91540000D02*
X26875000Y-109540000D01*
X50357500Y-61915000D02*
X52097500Y-61915000D01*
X52097500Y-61915000D02*
X53635000Y-61915000D01*
X74212500Y-46862500D02*
X74212500Y-35570000D01*
X78842500Y-29292500D02*
X83212500Y-29292500D01*
X48715000Y-51110000D02*
X46752500Y-53072500D01*
X56352500Y-64632500D02*
X56352500Y-69492500D01*
D25*
X47725000Y-64455000D02*
X52097500Y-64455000D01*
X26645000Y-60557500D02*
X43827500Y-60557500D01*
X43827500Y-60557500D02*
X47725000Y-64455000D01*
X26650000Y-54910000D02*
X26652500Y-54912500D01*
X34100000Y-54912500D02*
X36397500Y-52615000D01*
X26652500Y-54912500D02*
X34100000Y-54912500D01*
X26597500Y-54857500D02*
X26650000Y-54910000D01*
X26732500Y-43682500D02*
X43012500Y-43682500D01*
X26662500Y-43612500D02*
X26732500Y-43682500D01*
X45240000Y-45910000D02*
X52072500Y-45910000D01*
X43012500Y-43682500D02*
X45240000Y-45910000D01*
X42765000Y-49242500D02*
X44017500Y-50495000D01*
X26630000Y-49247500D02*
X26635000Y-49242500D01*
X44017500Y-50495000D02*
X44017500Y-52615000D01*
X26635000Y-49242500D02*
X42765000Y-49242500D01*
D24*
X24335000Y-91540000D02*
X24335000Y-109540000D01*
X47387500Y-30995000D02*
X44027500Y-34355000D01*
X59755000Y-33030000D02*
X57512500Y-33030000D01*
X44027500Y-34355000D02*
X44027500Y-35155000D01*
X57512500Y-33030000D02*
X55477500Y-30995000D01*
X55477500Y-30995000D02*
X47387500Y-30995000D01*
X59755000Y-30490000D02*
X58610000Y-29345000D01*
X58610000Y-29345000D02*
X39557500Y-29345000D01*
X36407500Y-32495000D02*
X36407500Y-35155000D01*
X39557500Y-29345000D02*
X36407500Y-32495000D01*
X96587500Y-51805000D02*
X96587500Y-49952500D01*
X94040000Y-47405000D02*
X92130000Y-47405000D01*
X96587500Y-49952500D02*
X94040000Y-47405000D01*
X96587500Y-62582500D02*
X96587500Y-59425000D01*
X93540000Y-64075000D02*
X95095000Y-64075000D01*
X95095000Y-64075000D02*
X96587500Y-62582500D01*
X99540000Y-64075000D02*
X99540000Y-61705000D01*
X99157500Y-61322500D02*
X99157500Y-59455000D01*
X99157500Y-59455000D02*
X99127500Y-59425000D01*
X99540000Y-61705000D02*
X99157500Y-61322500D01*
X105540000Y-64075000D02*
X104060000Y-64075000D01*
X104060000Y-64075000D02*
X101667500Y-61682500D01*
X101667500Y-61682500D02*
X101667500Y-59425000D01*
X94047500Y-60932500D02*
X94047500Y-59425000D01*
X94047500Y-59425000D02*
X94007500Y-59465000D01*
X93237500Y-61742500D02*
X94047500Y-60932500D01*
X89205000Y-64075000D02*
X91537500Y-61742500D01*
X87540000Y-64075000D02*
X89205000Y-64075000D01*
X91537500Y-61742500D02*
X93237500Y-61742500D01*
X104207500Y-51805000D02*
X104207500Y-47482500D01*
X104207500Y-47482500D02*
X104130000Y-47405000D01*
X101667500Y-49812500D02*
X99260000Y-47405000D01*
X101667500Y-51805000D02*
X101667500Y-49812500D01*
X99260000Y-47405000D02*
X98130000Y-47405000D01*
X90287500Y-49692500D02*
X92827500Y-49692500D01*
X92827500Y-49692500D02*
X94047500Y-50912500D01*
X94047500Y-50912500D02*
X94047500Y-51805000D01*
X88000000Y-47405000D02*
X90287500Y-49692500D01*
X86130000Y-47405000D02*
X88000000Y-47405000D01*
X51830000Y-53750000D02*
X55412500Y-53750000D01*
X55412500Y-53750000D02*
X57552500Y-55890000D01*
X57552500Y-55890000D02*
X59755000Y-55890000D01*
X51830000Y-51110000D02*
X51830000Y-53750000D01*
X29415000Y-91540000D02*
X29415000Y-109540000D01*
X105540000Y-69155000D02*
X87540000Y-69155000D01*
X83735000Y-44865000D02*
X83092500Y-44222500D01*
X86130000Y-44865000D02*
X83735000Y-44865000D01*
X105805000Y-44865000D02*
X107752500Y-46812500D01*
X83092500Y-42242500D02*
X78960000Y-38110000D01*
X104130000Y-44865000D02*
X105805000Y-44865000D01*
X78960000Y-38110000D02*
X77535000Y-38110000D01*
X104130000Y-44865000D02*
X86130000Y-44865000D01*
X105540000Y-66615000D02*
X87540000Y-66615000D01*
X106690000Y-66615000D02*
X105540000Y-66615000D01*
X49525000Y-108700000D02*
X49465000Y-108760000D01*
X31955000Y-91540000D02*
X31955000Y-109540000D01*
X83092500Y-44222500D02*
X83092500Y-42242500D01*
X107752500Y-65552500D02*
X106690000Y-66615000D01*
X107752500Y-46812500D02*
X107752500Y-65552500D01*
X99127500Y-53417500D02*
X98312500Y-54232500D01*
X99127500Y-51805000D02*
X99127500Y-53417500D01*
X98312500Y-54232500D02*
X83132500Y-54232500D01*
X81182500Y-43332500D02*
X78500000Y-40650000D01*
X83132500Y-54232500D02*
X81182500Y-52282500D01*
X81182500Y-52282500D02*
X81182500Y-43332500D01*
X78500000Y-40650000D02*
X77535000Y-40650000D01*
M02*
