M48
; DRILL file {KiCad 7.0.7} date 2024 May 01, Wednesday 20:55:35
; FORMAT={-:-/ absolute / metric / decimal}
; #@! TF.CreationDate,2024-05-01T20:55:35+03:00
; #@! TF.GenerationSoftware,Kicad,Pcbnew,7.0.7
; #@! TF.FileFunction,Plated,1,2,PTH
FMAT,2
METRIC
; #@! TA.AperFunction,Plated,PTH,ComponentDrill
T1C0.800
; #@! TA.AperFunction,Plated,PTH,ComponentDrill
T2C1.000
; #@! TA.AperFunction,Plated,PTH,ComponentDrill
T3C1.500
%
G90
G05
T1
X75.495Y-40.562
X75.495Y-48.182
X78.035Y-40.562
X78.035Y-48.182
X80.575Y-40.562
X80.575Y-48.182
X83.115Y-40.562
X83.115Y-48.182
X85.655Y-40.562
X85.655Y-48.182
X88.195Y-40.562
X88.195Y-48.182
X90.735Y-40.562
X90.735Y-48.182
X93.275Y-40.562
X93.275Y-48.182
T2
X25.465Y-41.372
X25.475Y-23.912
X27.885Y-57.177
X28.005Y-41.372
X28.015Y-23.912
X30.425Y-57.177
X30.545Y-41.372
X30.555Y-23.912
X33.085Y-41.372
X33.095Y-23.912
X34.16Y-57.3
X34.16Y-59.3
X38.358Y-39.867
X38.358Y-42.508
X40.105Y-22.113
X40.775Y-63.475
X40.775Y-66.015
X40.775Y-68.555
X40.86Y-57.29
X40.86Y-59.83
X40.898Y-39.867
X40.898Y-42.508
X41.14Y-29.587
X41.14Y-32.127
X41.14Y-34.667
X41.165Y-48.133
X41.165Y-50.672
X41.165Y-53.212
X42.645Y-22.113
X44.04Y-27.0
X44.04Y-29.54
X44.052Y-45.68
X44.052Y-48.22
X48.822Y-19.247
X48.822Y-21.787
X48.822Y-24.328
X48.822Y-26.867
X48.822Y-29.407
X48.822Y-31.947
X48.822Y-34.487
X48.822Y-37.027
X48.822Y-39.567
X48.822Y-42.107
X48.822Y-44.648
X48.822Y-47.188
X48.822Y-49.727
X48.822Y-52.267
X48.822Y-54.807
X48.822Y-57.347
X48.822Y-59.887
X48.822Y-62.427
X48.822Y-64.968
X48.822Y-67.507
X51.125Y-69.757
X53.665Y-69.757
X55.06Y-47.08
X55.08Y-31.74
X56.39Y-67.71
X57.6Y-47.08
X57.62Y-31.74
X58.39Y-67.71
X66.602Y-24.328
X66.602Y-26.867
X66.602Y-29.407
X66.602Y-31.947
X66.602Y-34.487
X66.602Y-37.027
X66.602Y-39.567
X66.602Y-42.107
X66.602Y-44.648
X66.602Y-47.188
X66.602Y-49.727
X66.602Y-52.267
X66.602Y-54.807
X66.602Y-57.347
X66.602Y-62.427
X66.602Y-64.968
X66.602Y-67.507
X75.197Y-26.002
X75.197Y-28.543
X75.197Y-31.082
X75.197Y-33.622
X75.197Y-36.163
X76.608Y-52.832
X76.608Y-55.372
X76.608Y-57.912
X76.608Y-60.453
X76.608Y-62.992
X81.0Y-67.49
X81.197Y-26.002
X81.197Y-28.543
X81.197Y-31.082
X81.197Y-33.622
X81.197Y-36.163
X82.608Y-52.832
X82.608Y-55.372
X82.608Y-57.912
X82.608Y-60.453
X82.608Y-62.992
X83.54Y-67.49
X86.08Y-67.49
X87.197Y-26.002
X87.197Y-28.543
X87.197Y-31.082
X87.197Y-33.622
X87.197Y-36.163
X88.608Y-52.832
X88.608Y-55.372
X88.608Y-57.912
X88.608Y-60.453
X88.608Y-62.992
X88.62Y-67.49
X93.197Y-26.002
X93.197Y-28.543
X93.197Y-31.082
X93.197Y-33.622
X93.197Y-36.163
X94.608Y-52.832
X94.608Y-55.372
X94.608Y-57.912
X94.608Y-60.453
X94.608Y-62.992
T3
X21.567Y-36.785
X21.57Y-64.78
X21.595Y-59.828
X21.6Y-31.55
X21.615Y-53.102
X21.69Y-47.48
T0
M30
