G04 #@! TF.GenerationSoftware,KiCad,Pcbnew,7.0.7*
G04 #@! TF.CreationDate,2024-05-09T03:47:05+03:00*
G04 #@! TF.ProjectId,pico-hd-mcu-v2,7069636f-2d68-4642-9d6d-63752d76322e,rev?*
G04 #@! TF.SameCoordinates,Original*
G04 #@! TF.FileFunction,Legend,Bot*
G04 #@! TF.FilePolarity,Positive*
%FSLAX46Y46*%
G04 Gerber Fmt 4.6, Leading zero omitted, Abs format (unit mm)*
G04 Created by KiCad (PCBNEW 7.0.7) date 2024-05-09 03:47:05*
%MOMM*%
%LPD*%
G01*
G04 APERTURE LIST*
G04 Aperture macros list*
%AMOutline4P*
0 Free polygon, 4 corners , with rotation*
0 The origin of the aperture is its center*
0 number of corners: always 4*
0 $1 to $8 corner X, Y*
0 $9 Rotation angle, in degrees counterclockwise*
0 create outline with 4 corners*
4,1,4,$1,$2,$3,$4,$5,$6,$7,$8,$1,$2,$9*%
%AMOutline5P*
0 Free polygon, 5 corners , with rotation*
0 The origin of the aperture is its center*
0 number of corners: always 5*
0 $1 to $10 corner X, Y*
0 $11 Rotation angle, in degrees counterclockwise*
0 create outline with 5 corners*
4,1,5,$1,$2,$3,$4,$5,$6,$7,$8,$9,$10,$1,$2,$11*%
%AMOutline6P*
0 Free polygon, 6 corners , with rotation*
0 The origin of the aperture is its center*
0 number of corners: always 6*
0 $1 to $12 corner X, Y*
0 $13 Rotation angle, in degrees counterclockwise*
0 create outline with 6 corners*
4,1,6,$1,$2,$3,$4,$5,$6,$7,$8,$9,$10,$11,$12,$1,$2,$13*%
%AMOutline7P*
0 Free polygon, 7 corners , with rotation*
0 The origin of the aperture is its center*
0 number of corners: always 7*
0 $1 to $14 corner X, Y*
0 $15 Rotation angle, in degrees counterclockwise*
0 create outline with 7 corners*
4,1,7,$1,$2,$3,$4,$5,$6,$7,$8,$9,$10,$11,$12,$13,$14,$1,$2,$15*%
%AMOutline8P*
0 Free polygon, 8 corners , with rotation*
0 The origin of the aperture is its center*
0 number of corners: always 8*
0 $1 to $16 corner X, Y*
0 $17 Rotation angle, in degrees counterclockwise*
0 create outline with 8 corners*
4,1,8,$1,$2,$3,$4,$5,$6,$7,$8,$9,$10,$11,$12,$13,$14,$15,$16,$1,$2,$17*%
G04 Aperture macros list end*
%ADD10C,0.120000*%
%ADD11C,0.187500*%
%ADD12C,0.375000*%
%ADD13C,0.200000*%
%ADD14C,0.150000*%
%ADD15C,0.100000*%
%ADD16C,0.300000*%
%ADD17R,1.700000X1.700000*%
%ADD18O,1.700000X1.700000*%
%ADD19Outline5P,-0.850000X0.510000X-0.510000X0.850000X0.850000X0.850000X0.850000X-0.850000X-0.850000X-0.850000X90.000000*%
%ADD20C,1.700000*%
%ADD21Outline5P,-0.850000X0.510000X-0.510000X0.850000X0.850000X0.850000X0.850000X-0.850000X-0.850000X-0.850000X180.000000*%
%ADD22Outline5P,-0.850000X0.510000X-0.510000X0.850000X0.850000X0.850000X0.850000X-0.850000X-0.850000X-0.850000X0.000000*%
%ADD23C,3.000000*%
%ADD24O,6.000000X2.000000*%
%ADD25R,6.000000X2.000000*%
%ADD26R,3.000000X3.000000*%
%ADD27Outline4P,-0.850000X-0.850000X0.850000X-0.850000X0.850000X0.850000X-0.850000X0.850000X0.000000*%
%ADD28O,1.600000X2.400000*%
%ADD29R,1.600000X2.400000*%
G04 APERTURE END LIST*
D10*
X58537042Y-106688478D02*
X58432280Y-106740859D01*
X58432280Y-106740859D02*
X58275137Y-106740859D01*
X58275137Y-106740859D02*
X58117994Y-106688478D01*
X58117994Y-106688478D02*
X58013232Y-106583716D01*
X58013232Y-106583716D02*
X57960851Y-106478954D01*
X57960851Y-106478954D02*
X57908470Y-106269430D01*
X57908470Y-106269430D02*
X57908470Y-106112287D01*
X57908470Y-106112287D02*
X57960851Y-105902763D01*
X57960851Y-105902763D02*
X58013232Y-105798001D01*
X58013232Y-105798001D02*
X58117994Y-105693240D01*
X58117994Y-105693240D02*
X58275137Y-105640859D01*
X58275137Y-105640859D02*
X58379899Y-105640859D01*
X58379899Y-105640859D02*
X58537042Y-105693240D01*
X58537042Y-105693240D02*
X58589423Y-105745620D01*
X58589423Y-105745620D02*
X58589423Y-106112287D01*
X58589423Y-106112287D02*
X58379899Y-106112287D01*
X60422756Y-106740859D02*
X59898946Y-106740859D01*
X59898946Y-106740859D02*
X59846565Y-106217049D01*
X59846565Y-106217049D02*
X59898946Y-106269430D01*
X59898946Y-106269430D02*
X60003708Y-106321811D01*
X60003708Y-106321811D02*
X60265613Y-106321811D01*
X60265613Y-106321811D02*
X60370375Y-106269430D01*
X60370375Y-106269430D02*
X60422756Y-106217049D01*
X60422756Y-106217049D02*
X60475137Y-106112287D01*
X60475137Y-106112287D02*
X60475137Y-105850382D01*
X60475137Y-105850382D02*
X60422756Y-105745620D01*
X60422756Y-105745620D02*
X60370375Y-105693240D01*
X60370375Y-105693240D02*
X60265613Y-105640859D01*
X60265613Y-105640859D02*
X60003708Y-105640859D01*
X60003708Y-105640859D02*
X59898946Y-105693240D01*
X59898946Y-105693240D02*
X59846565Y-105745620D01*
X60789422Y-106740859D02*
X61156089Y-105640859D01*
X61156089Y-105640859D02*
X61522756Y-106740859D01*
X63356089Y-105745620D02*
X63303708Y-105693240D01*
X63303708Y-105693240D02*
X63146565Y-105640859D01*
X63146565Y-105640859D02*
X63041803Y-105640859D01*
X63041803Y-105640859D02*
X62884660Y-105693240D01*
X62884660Y-105693240D02*
X62779898Y-105798001D01*
X62779898Y-105798001D02*
X62727517Y-105902763D01*
X62727517Y-105902763D02*
X62675136Y-106112287D01*
X62675136Y-106112287D02*
X62675136Y-106269430D01*
X62675136Y-106269430D02*
X62727517Y-106478954D01*
X62727517Y-106478954D02*
X62779898Y-106583716D01*
X62779898Y-106583716D02*
X62884660Y-106688478D01*
X62884660Y-106688478D02*
X63041803Y-106740859D01*
X63041803Y-106740859D02*
X63146565Y-106740859D01*
X63146565Y-106740859D02*
X63303708Y-106688478D01*
X63303708Y-106688478D02*
X63356089Y-106636097D01*
X63827517Y-105640859D02*
X63827517Y-106740859D01*
X64456089Y-105640859D02*
X63984660Y-106269430D01*
X64456089Y-106740859D02*
X63827517Y-106112287D01*
X66394184Y-105745620D02*
X66341803Y-105693240D01*
X66341803Y-105693240D02*
X66184660Y-105640859D01*
X66184660Y-105640859D02*
X66079898Y-105640859D01*
X66079898Y-105640859D02*
X65922755Y-105693240D01*
X65922755Y-105693240D02*
X65817993Y-105798001D01*
X65817993Y-105798001D02*
X65765612Y-105902763D01*
X65765612Y-105902763D02*
X65713231Y-106112287D01*
X65713231Y-106112287D02*
X65713231Y-106269430D01*
X65713231Y-106269430D02*
X65765612Y-106478954D01*
X65765612Y-106478954D02*
X65817993Y-106583716D01*
X65817993Y-106583716D02*
X65922755Y-106688478D01*
X65922755Y-106688478D02*
X66079898Y-106740859D01*
X66079898Y-106740859D02*
X66184660Y-106740859D01*
X66184660Y-106740859D02*
X66341803Y-106688478D01*
X66341803Y-106688478D02*
X66394184Y-106636097D01*
X66813231Y-105693240D02*
X66970374Y-105640859D01*
X66970374Y-105640859D02*
X67232279Y-105640859D01*
X67232279Y-105640859D02*
X67337041Y-105693240D01*
X67337041Y-105693240D02*
X67389422Y-105745620D01*
X67389422Y-105745620D02*
X67441803Y-105850382D01*
X67441803Y-105850382D02*
X67441803Y-105955144D01*
X67441803Y-105955144D02*
X67389422Y-106059906D01*
X67389422Y-106059906D02*
X67337041Y-106112287D01*
X67337041Y-106112287D02*
X67232279Y-106164668D01*
X67232279Y-106164668D02*
X67022755Y-106217049D01*
X67022755Y-106217049D02*
X66917993Y-106269430D01*
X66917993Y-106269430D02*
X66865612Y-106321811D01*
X66865612Y-106321811D02*
X66813231Y-106426573D01*
X66813231Y-106426573D02*
X66813231Y-106531335D01*
X66813231Y-106531335D02*
X66865612Y-106636097D01*
X66865612Y-106636097D02*
X66917993Y-106688478D01*
X66917993Y-106688478D02*
X67022755Y-106740859D01*
X67022755Y-106740859D02*
X67284660Y-106740859D01*
X67284660Y-106740859D02*
X67441803Y-106688478D01*
X68751326Y-105640859D02*
X68751326Y-106740859D01*
X68751326Y-106740859D02*
X69013231Y-106740859D01*
X69013231Y-106740859D02*
X69170374Y-106688478D01*
X69170374Y-106688478D02*
X69275136Y-106583716D01*
X69275136Y-106583716D02*
X69327517Y-106478954D01*
X69327517Y-106478954D02*
X69379898Y-106269430D01*
X69379898Y-106269430D02*
X69379898Y-106112287D01*
X69379898Y-106112287D02*
X69327517Y-105902763D01*
X69327517Y-105902763D02*
X69275136Y-105798001D01*
X69275136Y-105798001D02*
X69170374Y-105693240D01*
X69170374Y-105693240D02*
X69013231Y-105640859D01*
X69013231Y-105640859D02*
X68751326Y-105640859D01*
X42167042Y-106688478D02*
X42062280Y-106740859D01*
X42062280Y-106740859D02*
X41905137Y-106740859D01*
X41905137Y-106740859D02*
X41747994Y-106688478D01*
X41747994Y-106688478D02*
X41643232Y-106583716D01*
X41643232Y-106583716D02*
X41590851Y-106478954D01*
X41590851Y-106478954D02*
X41538470Y-106269430D01*
X41538470Y-106269430D02*
X41538470Y-106112287D01*
X41538470Y-106112287D02*
X41590851Y-105902763D01*
X41590851Y-105902763D02*
X41643232Y-105798001D01*
X41643232Y-105798001D02*
X41747994Y-105693240D01*
X41747994Y-105693240D02*
X41905137Y-105640859D01*
X41905137Y-105640859D02*
X42009899Y-105640859D01*
X42009899Y-105640859D02*
X42167042Y-105693240D01*
X42167042Y-105693240D02*
X42219423Y-105745620D01*
X42219423Y-105745620D02*
X42219423Y-106112287D01*
X42219423Y-106112287D02*
X42009899Y-106112287D01*
X44052756Y-106740859D02*
X43528946Y-106740859D01*
X43528946Y-106740859D02*
X43476565Y-106217049D01*
X43476565Y-106217049D02*
X43528946Y-106269430D01*
X43528946Y-106269430D02*
X43633708Y-106321811D01*
X43633708Y-106321811D02*
X43895613Y-106321811D01*
X43895613Y-106321811D02*
X44000375Y-106269430D01*
X44000375Y-106269430D02*
X44052756Y-106217049D01*
X44052756Y-106217049D02*
X44105137Y-106112287D01*
X44105137Y-106112287D02*
X44105137Y-105850382D01*
X44105137Y-105850382D02*
X44052756Y-105745620D01*
X44052756Y-105745620D02*
X44000375Y-105693240D01*
X44000375Y-105693240D02*
X43895613Y-105640859D01*
X43895613Y-105640859D02*
X43633708Y-105640859D01*
X43633708Y-105640859D02*
X43528946Y-105693240D01*
X43528946Y-105693240D02*
X43476565Y-105745620D01*
X44419422Y-106740859D02*
X44786089Y-105640859D01*
X44786089Y-105640859D02*
X45152756Y-106740859D01*
X46986089Y-105745620D02*
X46933708Y-105693240D01*
X46933708Y-105693240D02*
X46776565Y-105640859D01*
X46776565Y-105640859D02*
X46671803Y-105640859D01*
X46671803Y-105640859D02*
X46514660Y-105693240D01*
X46514660Y-105693240D02*
X46409898Y-105798001D01*
X46409898Y-105798001D02*
X46357517Y-105902763D01*
X46357517Y-105902763D02*
X46305136Y-106112287D01*
X46305136Y-106112287D02*
X46305136Y-106269430D01*
X46305136Y-106269430D02*
X46357517Y-106478954D01*
X46357517Y-106478954D02*
X46409898Y-106583716D01*
X46409898Y-106583716D02*
X46514660Y-106688478D01*
X46514660Y-106688478D02*
X46671803Y-106740859D01*
X46671803Y-106740859D02*
X46776565Y-106740859D01*
X46776565Y-106740859D02*
X46933708Y-106688478D01*
X46933708Y-106688478D02*
X46986089Y-106636097D01*
X47457517Y-105640859D02*
X47457517Y-106740859D01*
X48086089Y-105640859D02*
X47614660Y-106269430D01*
X48086089Y-106740859D02*
X47457517Y-106112287D01*
X50024184Y-105745620D02*
X49971803Y-105693240D01*
X49971803Y-105693240D02*
X49814660Y-105640859D01*
X49814660Y-105640859D02*
X49709898Y-105640859D01*
X49709898Y-105640859D02*
X49552755Y-105693240D01*
X49552755Y-105693240D02*
X49447993Y-105798001D01*
X49447993Y-105798001D02*
X49395612Y-105902763D01*
X49395612Y-105902763D02*
X49343231Y-106112287D01*
X49343231Y-106112287D02*
X49343231Y-106269430D01*
X49343231Y-106269430D02*
X49395612Y-106478954D01*
X49395612Y-106478954D02*
X49447993Y-106583716D01*
X49447993Y-106583716D02*
X49552755Y-106688478D01*
X49552755Y-106688478D02*
X49709898Y-106740859D01*
X49709898Y-106740859D02*
X49814660Y-106740859D01*
X49814660Y-106740859D02*
X49971803Y-106688478D01*
X49971803Y-106688478D02*
X50024184Y-106636097D01*
X50443231Y-105693240D02*
X50600374Y-105640859D01*
X50600374Y-105640859D02*
X50862279Y-105640859D01*
X50862279Y-105640859D02*
X50967041Y-105693240D01*
X50967041Y-105693240D02*
X51019422Y-105745620D01*
X51019422Y-105745620D02*
X51071803Y-105850382D01*
X51071803Y-105850382D02*
X51071803Y-105955144D01*
X51071803Y-105955144D02*
X51019422Y-106059906D01*
X51019422Y-106059906D02*
X50967041Y-106112287D01*
X50967041Y-106112287D02*
X50862279Y-106164668D01*
X50862279Y-106164668D02*
X50652755Y-106217049D01*
X50652755Y-106217049D02*
X50547993Y-106269430D01*
X50547993Y-106269430D02*
X50495612Y-106321811D01*
X50495612Y-106321811D02*
X50443231Y-106426573D01*
X50443231Y-106426573D02*
X50443231Y-106531335D01*
X50443231Y-106531335D02*
X50495612Y-106636097D01*
X50495612Y-106636097D02*
X50547993Y-106688478D01*
X50547993Y-106688478D02*
X50652755Y-106740859D01*
X50652755Y-106740859D02*
X50914660Y-106740859D01*
X50914660Y-106740859D02*
X51071803Y-106688478D01*
X52381326Y-105640859D02*
X52381326Y-106740859D01*
X52381326Y-106740859D02*
X52643231Y-106740859D01*
X52643231Y-106740859D02*
X52800374Y-106688478D01*
X52800374Y-106688478D02*
X52905136Y-106583716D01*
X52905136Y-106583716D02*
X52957517Y-106478954D01*
X52957517Y-106478954D02*
X53009898Y-106269430D01*
X53009898Y-106269430D02*
X53009898Y-106112287D01*
X53009898Y-106112287D02*
X52957517Y-105902763D01*
X52957517Y-105902763D02*
X52905136Y-105798001D01*
X52905136Y-105798001D02*
X52800374Y-105693240D01*
X52800374Y-105693240D02*
X52643231Y-105640859D01*
X52643231Y-105640859D02*
X52381326Y-105640859D01*
X58587042Y-95338478D02*
X58482280Y-95390859D01*
X58482280Y-95390859D02*
X58325137Y-95390859D01*
X58325137Y-95390859D02*
X58167994Y-95338478D01*
X58167994Y-95338478D02*
X58063232Y-95233716D01*
X58063232Y-95233716D02*
X58010851Y-95128954D01*
X58010851Y-95128954D02*
X57958470Y-94919430D01*
X57958470Y-94919430D02*
X57958470Y-94762287D01*
X57958470Y-94762287D02*
X58010851Y-94552763D01*
X58010851Y-94552763D02*
X58063232Y-94448001D01*
X58063232Y-94448001D02*
X58167994Y-94343240D01*
X58167994Y-94343240D02*
X58325137Y-94290859D01*
X58325137Y-94290859D02*
X58429899Y-94290859D01*
X58429899Y-94290859D02*
X58587042Y-94343240D01*
X58587042Y-94343240D02*
X58639423Y-94395620D01*
X58639423Y-94395620D02*
X58639423Y-94762287D01*
X58639423Y-94762287D02*
X58429899Y-94762287D01*
X60472756Y-95390859D02*
X59948946Y-95390859D01*
X59948946Y-95390859D02*
X59896565Y-94867049D01*
X59896565Y-94867049D02*
X59948946Y-94919430D01*
X59948946Y-94919430D02*
X60053708Y-94971811D01*
X60053708Y-94971811D02*
X60315613Y-94971811D01*
X60315613Y-94971811D02*
X60420375Y-94919430D01*
X60420375Y-94919430D02*
X60472756Y-94867049D01*
X60472756Y-94867049D02*
X60525137Y-94762287D01*
X60525137Y-94762287D02*
X60525137Y-94500382D01*
X60525137Y-94500382D02*
X60472756Y-94395620D01*
X60472756Y-94395620D02*
X60420375Y-94343240D01*
X60420375Y-94343240D02*
X60315613Y-94290859D01*
X60315613Y-94290859D02*
X60053708Y-94290859D01*
X60053708Y-94290859D02*
X59948946Y-94343240D01*
X59948946Y-94343240D02*
X59896565Y-94395620D01*
X60839422Y-95390859D02*
X61206089Y-94290859D01*
X61206089Y-94290859D02*
X61572756Y-95390859D01*
X63406089Y-94395620D02*
X63353708Y-94343240D01*
X63353708Y-94343240D02*
X63196565Y-94290859D01*
X63196565Y-94290859D02*
X63091803Y-94290859D01*
X63091803Y-94290859D02*
X62934660Y-94343240D01*
X62934660Y-94343240D02*
X62829898Y-94448001D01*
X62829898Y-94448001D02*
X62777517Y-94552763D01*
X62777517Y-94552763D02*
X62725136Y-94762287D01*
X62725136Y-94762287D02*
X62725136Y-94919430D01*
X62725136Y-94919430D02*
X62777517Y-95128954D01*
X62777517Y-95128954D02*
X62829898Y-95233716D01*
X62829898Y-95233716D02*
X62934660Y-95338478D01*
X62934660Y-95338478D02*
X63091803Y-95390859D01*
X63091803Y-95390859D02*
X63196565Y-95390859D01*
X63196565Y-95390859D02*
X63353708Y-95338478D01*
X63353708Y-95338478D02*
X63406089Y-95286097D01*
X63877517Y-94290859D02*
X63877517Y-95390859D01*
X64506089Y-94290859D02*
X64034660Y-94919430D01*
X64506089Y-95390859D02*
X63877517Y-94762287D01*
X66444184Y-94395620D02*
X66391803Y-94343240D01*
X66391803Y-94343240D02*
X66234660Y-94290859D01*
X66234660Y-94290859D02*
X66129898Y-94290859D01*
X66129898Y-94290859D02*
X65972755Y-94343240D01*
X65972755Y-94343240D02*
X65867993Y-94448001D01*
X65867993Y-94448001D02*
X65815612Y-94552763D01*
X65815612Y-94552763D02*
X65763231Y-94762287D01*
X65763231Y-94762287D02*
X65763231Y-94919430D01*
X65763231Y-94919430D02*
X65815612Y-95128954D01*
X65815612Y-95128954D02*
X65867993Y-95233716D01*
X65867993Y-95233716D02*
X65972755Y-95338478D01*
X65972755Y-95338478D02*
X66129898Y-95390859D01*
X66129898Y-95390859D02*
X66234660Y-95390859D01*
X66234660Y-95390859D02*
X66391803Y-95338478D01*
X66391803Y-95338478D02*
X66444184Y-95286097D01*
X66863231Y-94343240D02*
X67020374Y-94290859D01*
X67020374Y-94290859D02*
X67282279Y-94290859D01*
X67282279Y-94290859D02*
X67387041Y-94343240D01*
X67387041Y-94343240D02*
X67439422Y-94395620D01*
X67439422Y-94395620D02*
X67491803Y-94500382D01*
X67491803Y-94500382D02*
X67491803Y-94605144D01*
X67491803Y-94605144D02*
X67439422Y-94709906D01*
X67439422Y-94709906D02*
X67387041Y-94762287D01*
X67387041Y-94762287D02*
X67282279Y-94814668D01*
X67282279Y-94814668D02*
X67072755Y-94867049D01*
X67072755Y-94867049D02*
X66967993Y-94919430D01*
X66967993Y-94919430D02*
X66915612Y-94971811D01*
X66915612Y-94971811D02*
X66863231Y-95076573D01*
X66863231Y-95076573D02*
X66863231Y-95181335D01*
X66863231Y-95181335D02*
X66915612Y-95286097D01*
X66915612Y-95286097D02*
X66967993Y-95338478D01*
X66967993Y-95338478D02*
X67072755Y-95390859D01*
X67072755Y-95390859D02*
X67334660Y-95390859D01*
X67334660Y-95390859D02*
X67491803Y-95338478D01*
X68801326Y-94290859D02*
X68801326Y-95390859D01*
X68801326Y-95390859D02*
X69063231Y-95390859D01*
X69063231Y-95390859D02*
X69220374Y-95338478D01*
X69220374Y-95338478D02*
X69325136Y-95233716D01*
X69325136Y-95233716D02*
X69377517Y-95128954D01*
X69377517Y-95128954D02*
X69429898Y-94919430D01*
X69429898Y-94919430D02*
X69429898Y-94762287D01*
X69429898Y-94762287D02*
X69377517Y-94552763D01*
X69377517Y-94552763D02*
X69325136Y-94448001D01*
X69325136Y-94448001D02*
X69220374Y-94343240D01*
X69220374Y-94343240D02*
X69063231Y-94290859D01*
X69063231Y-94290859D02*
X68801326Y-94290859D01*
X42217042Y-95228478D02*
X42112280Y-95280859D01*
X42112280Y-95280859D02*
X41955137Y-95280859D01*
X41955137Y-95280859D02*
X41797994Y-95228478D01*
X41797994Y-95228478D02*
X41693232Y-95123716D01*
X41693232Y-95123716D02*
X41640851Y-95018954D01*
X41640851Y-95018954D02*
X41588470Y-94809430D01*
X41588470Y-94809430D02*
X41588470Y-94652287D01*
X41588470Y-94652287D02*
X41640851Y-94442763D01*
X41640851Y-94442763D02*
X41693232Y-94338001D01*
X41693232Y-94338001D02*
X41797994Y-94233240D01*
X41797994Y-94233240D02*
X41955137Y-94180859D01*
X41955137Y-94180859D02*
X42059899Y-94180859D01*
X42059899Y-94180859D02*
X42217042Y-94233240D01*
X42217042Y-94233240D02*
X42269423Y-94285620D01*
X42269423Y-94285620D02*
X42269423Y-94652287D01*
X42269423Y-94652287D02*
X42059899Y-94652287D01*
X44102756Y-95280859D02*
X43578946Y-95280859D01*
X43578946Y-95280859D02*
X43526565Y-94757049D01*
X43526565Y-94757049D02*
X43578946Y-94809430D01*
X43578946Y-94809430D02*
X43683708Y-94861811D01*
X43683708Y-94861811D02*
X43945613Y-94861811D01*
X43945613Y-94861811D02*
X44050375Y-94809430D01*
X44050375Y-94809430D02*
X44102756Y-94757049D01*
X44102756Y-94757049D02*
X44155137Y-94652287D01*
X44155137Y-94652287D02*
X44155137Y-94390382D01*
X44155137Y-94390382D02*
X44102756Y-94285620D01*
X44102756Y-94285620D02*
X44050375Y-94233240D01*
X44050375Y-94233240D02*
X43945613Y-94180859D01*
X43945613Y-94180859D02*
X43683708Y-94180859D01*
X43683708Y-94180859D02*
X43578946Y-94233240D01*
X43578946Y-94233240D02*
X43526565Y-94285620D01*
X44469422Y-95280859D02*
X44836089Y-94180859D01*
X44836089Y-94180859D02*
X45202756Y-95280859D01*
X47036089Y-94285620D02*
X46983708Y-94233240D01*
X46983708Y-94233240D02*
X46826565Y-94180859D01*
X46826565Y-94180859D02*
X46721803Y-94180859D01*
X46721803Y-94180859D02*
X46564660Y-94233240D01*
X46564660Y-94233240D02*
X46459898Y-94338001D01*
X46459898Y-94338001D02*
X46407517Y-94442763D01*
X46407517Y-94442763D02*
X46355136Y-94652287D01*
X46355136Y-94652287D02*
X46355136Y-94809430D01*
X46355136Y-94809430D02*
X46407517Y-95018954D01*
X46407517Y-95018954D02*
X46459898Y-95123716D01*
X46459898Y-95123716D02*
X46564660Y-95228478D01*
X46564660Y-95228478D02*
X46721803Y-95280859D01*
X46721803Y-95280859D02*
X46826565Y-95280859D01*
X46826565Y-95280859D02*
X46983708Y-95228478D01*
X46983708Y-95228478D02*
X47036089Y-95176097D01*
X47507517Y-94180859D02*
X47507517Y-95280859D01*
X48136089Y-94180859D02*
X47664660Y-94809430D01*
X48136089Y-95280859D02*
X47507517Y-94652287D01*
X50074184Y-94285620D02*
X50021803Y-94233240D01*
X50021803Y-94233240D02*
X49864660Y-94180859D01*
X49864660Y-94180859D02*
X49759898Y-94180859D01*
X49759898Y-94180859D02*
X49602755Y-94233240D01*
X49602755Y-94233240D02*
X49497993Y-94338001D01*
X49497993Y-94338001D02*
X49445612Y-94442763D01*
X49445612Y-94442763D02*
X49393231Y-94652287D01*
X49393231Y-94652287D02*
X49393231Y-94809430D01*
X49393231Y-94809430D02*
X49445612Y-95018954D01*
X49445612Y-95018954D02*
X49497993Y-95123716D01*
X49497993Y-95123716D02*
X49602755Y-95228478D01*
X49602755Y-95228478D02*
X49759898Y-95280859D01*
X49759898Y-95280859D02*
X49864660Y-95280859D01*
X49864660Y-95280859D02*
X50021803Y-95228478D01*
X50021803Y-95228478D02*
X50074184Y-95176097D01*
X50493231Y-94233240D02*
X50650374Y-94180859D01*
X50650374Y-94180859D02*
X50912279Y-94180859D01*
X50912279Y-94180859D02*
X51017041Y-94233240D01*
X51017041Y-94233240D02*
X51069422Y-94285620D01*
X51069422Y-94285620D02*
X51121803Y-94390382D01*
X51121803Y-94390382D02*
X51121803Y-94495144D01*
X51121803Y-94495144D02*
X51069422Y-94599906D01*
X51069422Y-94599906D02*
X51017041Y-94652287D01*
X51017041Y-94652287D02*
X50912279Y-94704668D01*
X50912279Y-94704668D02*
X50702755Y-94757049D01*
X50702755Y-94757049D02*
X50597993Y-94809430D01*
X50597993Y-94809430D02*
X50545612Y-94861811D01*
X50545612Y-94861811D02*
X50493231Y-94966573D01*
X50493231Y-94966573D02*
X50493231Y-95071335D01*
X50493231Y-95071335D02*
X50545612Y-95176097D01*
X50545612Y-95176097D02*
X50597993Y-95228478D01*
X50597993Y-95228478D02*
X50702755Y-95280859D01*
X50702755Y-95280859D02*
X50964660Y-95280859D01*
X50964660Y-95280859D02*
X51121803Y-95228478D01*
X52431326Y-94180859D02*
X52431326Y-95280859D01*
X52431326Y-95280859D02*
X52693231Y-95280859D01*
X52693231Y-95280859D02*
X52850374Y-95228478D01*
X52850374Y-95228478D02*
X52955136Y-95123716D01*
X52955136Y-95123716D02*
X53007517Y-95018954D01*
X53007517Y-95018954D02*
X53059898Y-94809430D01*
X53059898Y-94809430D02*
X53059898Y-94652287D01*
X53059898Y-94652287D02*
X53007517Y-94442763D01*
X53007517Y-94442763D02*
X52955136Y-94338001D01*
X52955136Y-94338001D02*
X52850374Y-94233240D01*
X52850374Y-94233240D02*
X52693231Y-94180859D01*
X52693231Y-94180859D02*
X52431326Y-94180859D01*
X24334661Y-89200859D02*
X23810851Y-89200859D01*
X23810851Y-89200859D02*
X23758470Y-88677049D01*
X23758470Y-88677049D02*
X23810851Y-88729430D01*
X23810851Y-88729430D02*
X23915613Y-88781811D01*
X23915613Y-88781811D02*
X24177518Y-88781811D01*
X24177518Y-88781811D02*
X24282280Y-88729430D01*
X24282280Y-88729430D02*
X24334661Y-88677049D01*
X24334661Y-88677049D02*
X24387042Y-88572287D01*
X24387042Y-88572287D02*
X24387042Y-88310382D01*
X24387042Y-88310382D02*
X24334661Y-88205620D01*
X24334661Y-88205620D02*
X24282280Y-88153240D01*
X24282280Y-88153240D02*
X24177518Y-88100859D01*
X24177518Y-88100859D02*
X23915613Y-88100859D01*
X23915613Y-88100859D02*
X23810851Y-88153240D01*
X23810851Y-88153240D02*
X23758470Y-88205620D01*
X24701327Y-89200859D02*
X25067994Y-88100859D01*
X25067994Y-88100859D02*
X25434661Y-89200859D01*
X27215613Y-89148478D02*
X27110851Y-89200859D01*
X27110851Y-89200859D02*
X26953708Y-89200859D01*
X26953708Y-89200859D02*
X26796565Y-89148478D01*
X26796565Y-89148478D02*
X26691803Y-89043716D01*
X26691803Y-89043716D02*
X26639422Y-88938954D01*
X26639422Y-88938954D02*
X26587041Y-88729430D01*
X26587041Y-88729430D02*
X26587041Y-88572287D01*
X26587041Y-88572287D02*
X26639422Y-88362763D01*
X26639422Y-88362763D02*
X26691803Y-88258001D01*
X26691803Y-88258001D02*
X26796565Y-88153240D01*
X26796565Y-88153240D02*
X26953708Y-88100859D01*
X26953708Y-88100859D02*
X27058470Y-88100859D01*
X27058470Y-88100859D02*
X27215613Y-88153240D01*
X27215613Y-88153240D02*
X27267994Y-88205620D01*
X27267994Y-88205620D02*
X27267994Y-88572287D01*
X27267994Y-88572287D02*
X27058470Y-88572287D01*
X29206089Y-88205620D02*
X29153708Y-88153240D01*
X29153708Y-88153240D02*
X28996565Y-88100859D01*
X28996565Y-88100859D02*
X28891803Y-88100859D01*
X28891803Y-88100859D02*
X28734660Y-88153240D01*
X28734660Y-88153240D02*
X28629898Y-88258001D01*
X28629898Y-88258001D02*
X28577517Y-88362763D01*
X28577517Y-88362763D02*
X28525136Y-88572287D01*
X28525136Y-88572287D02*
X28525136Y-88729430D01*
X28525136Y-88729430D02*
X28577517Y-88938954D01*
X28577517Y-88938954D02*
X28629898Y-89043716D01*
X28629898Y-89043716D02*
X28734660Y-89148478D01*
X28734660Y-89148478D02*
X28891803Y-89200859D01*
X28891803Y-89200859D02*
X28996565Y-89200859D01*
X28996565Y-89200859D02*
X29153708Y-89148478D01*
X29153708Y-89148478D02*
X29206089Y-89096097D01*
X29677517Y-88100859D02*
X29677517Y-89200859D01*
X30306089Y-88100859D02*
X29834660Y-88729430D01*
X30306089Y-89200859D02*
X29677517Y-88572287D01*
X32244184Y-88205620D02*
X32191803Y-88153240D01*
X32191803Y-88153240D02*
X32034660Y-88100859D01*
X32034660Y-88100859D02*
X31929898Y-88100859D01*
X31929898Y-88100859D02*
X31772755Y-88153240D01*
X31772755Y-88153240D02*
X31667993Y-88258001D01*
X31667993Y-88258001D02*
X31615612Y-88362763D01*
X31615612Y-88362763D02*
X31563231Y-88572287D01*
X31563231Y-88572287D02*
X31563231Y-88729430D01*
X31563231Y-88729430D02*
X31615612Y-88938954D01*
X31615612Y-88938954D02*
X31667993Y-89043716D01*
X31667993Y-89043716D02*
X31772755Y-89148478D01*
X31772755Y-89148478D02*
X31929898Y-89200859D01*
X31929898Y-89200859D02*
X32034660Y-89200859D01*
X32034660Y-89200859D02*
X32191803Y-89148478D01*
X32191803Y-89148478D02*
X32244184Y-89096097D01*
X32663231Y-88153240D02*
X32820374Y-88100859D01*
X32820374Y-88100859D02*
X33082279Y-88100859D01*
X33082279Y-88100859D02*
X33187041Y-88153240D01*
X33187041Y-88153240D02*
X33239422Y-88205620D01*
X33239422Y-88205620D02*
X33291803Y-88310382D01*
X33291803Y-88310382D02*
X33291803Y-88415144D01*
X33291803Y-88415144D02*
X33239422Y-88519906D01*
X33239422Y-88519906D02*
X33187041Y-88572287D01*
X33187041Y-88572287D02*
X33082279Y-88624668D01*
X33082279Y-88624668D02*
X32872755Y-88677049D01*
X32872755Y-88677049D02*
X32767993Y-88729430D01*
X32767993Y-88729430D02*
X32715612Y-88781811D01*
X32715612Y-88781811D02*
X32663231Y-88886573D01*
X32663231Y-88886573D02*
X32663231Y-88991335D01*
X32663231Y-88991335D02*
X32715612Y-89096097D01*
X32715612Y-89096097D02*
X32767993Y-89148478D01*
X32767993Y-89148478D02*
X32872755Y-89200859D01*
X32872755Y-89200859D02*
X33134660Y-89200859D01*
X33134660Y-89200859D02*
X33291803Y-89148478D01*
X34601326Y-88100859D02*
X34601326Y-89200859D01*
X34601326Y-89200859D02*
X34863231Y-89200859D01*
X34863231Y-89200859D02*
X35020374Y-89148478D01*
X35020374Y-89148478D02*
X35125136Y-89043716D01*
X35125136Y-89043716D02*
X35177517Y-88938954D01*
X35177517Y-88938954D02*
X35229898Y-88729430D01*
X35229898Y-88729430D02*
X35229898Y-88572287D01*
X35229898Y-88572287D02*
X35177517Y-88362763D01*
X35177517Y-88362763D02*
X35125136Y-88258001D01*
X35125136Y-88258001D02*
X35020374Y-88153240D01*
X35020374Y-88153240D02*
X34863231Y-88100859D01*
X34863231Y-88100859D02*
X34601326Y-88100859D01*
D11*
X64612359Y-99856678D02*
X64255216Y-100856678D01*
X64255216Y-100856678D02*
X63898073Y-99856678D01*
X63040930Y-99356678D02*
X62898073Y-99356678D01*
X62898073Y-99356678D02*
X62755216Y-99428107D01*
X62755216Y-99428107D02*
X62683788Y-99499535D01*
X62683788Y-99499535D02*
X62612359Y-99642392D01*
X62612359Y-99642392D02*
X62540930Y-99928107D01*
X62540930Y-99928107D02*
X62540930Y-100285250D01*
X62540930Y-100285250D02*
X62612359Y-100570964D01*
X62612359Y-100570964D02*
X62683788Y-100713821D01*
X62683788Y-100713821D02*
X62755216Y-100785250D01*
X62755216Y-100785250D02*
X62898073Y-100856678D01*
X62898073Y-100856678D02*
X63040930Y-100856678D01*
X63040930Y-100856678D02*
X63183788Y-100785250D01*
X63183788Y-100785250D02*
X63255216Y-100713821D01*
X63255216Y-100713821D02*
X63326645Y-100570964D01*
X63326645Y-100570964D02*
X63398073Y-100285250D01*
X63398073Y-100285250D02*
X63398073Y-99928107D01*
X63398073Y-99928107D02*
X63326645Y-99642392D01*
X63326645Y-99642392D02*
X63255216Y-99499535D01*
X63255216Y-99499535D02*
X63183788Y-99428107D01*
X63183788Y-99428107D02*
X63040930Y-99356678D01*
X61898074Y-100713821D02*
X61826645Y-100785250D01*
X61826645Y-100785250D02*
X61898074Y-100856678D01*
X61898074Y-100856678D02*
X61969502Y-100785250D01*
X61969502Y-100785250D02*
X61898074Y-100713821D01*
X61898074Y-100713821D02*
X61898074Y-100856678D01*
X61255216Y-99499535D02*
X61183788Y-99428107D01*
X61183788Y-99428107D02*
X61040931Y-99356678D01*
X61040931Y-99356678D02*
X60683788Y-99356678D01*
X60683788Y-99356678D02*
X60540931Y-99428107D01*
X60540931Y-99428107D02*
X60469502Y-99499535D01*
X60469502Y-99499535D02*
X60398073Y-99642392D01*
X60398073Y-99642392D02*
X60398073Y-99785250D01*
X60398073Y-99785250D02*
X60469502Y-99999535D01*
X60469502Y-99999535D02*
X61326645Y-100856678D01*
X61326645Y-100856678D02*
X60398073Y-100856678D01*
X58040931Y-100785250D02*
X58183788Y-100856678D01*
X58183788Y-100856678D02*
X58469503Y-100856678D01*
X58469503Y-100856678D02*
X58612360Y-100785250D01*
X58612360Y-100785250D02*
X58683788Y-100642392D01*
X58683788Y-100642392D02*
X58683788Y-100070964D01*
X58683788Y-100070964D02*
X58612360Y-99928107D01*
X58612360Y-99928107D02*
X58469503Y-99856678D01*
X58469503Y-99856678D02*
X58183788Y-99856678D01*
X58183788Y-99856678D02*
X58040931Y-99928107D01*
X58040931Y-99928107D02*
X57969503Y-100070964D01*
X57969503Y-100070964D02*
X57969503Y-100213821D01*
X57969503Y-100213821D02*
X58683788Y-100356678D01*
X57469503Y-100856678D02*
X56683789Y-99856678D01*
X57469503Y-99856678D02*
X56683789Y-100856678D01*
X56326645Y-99856678D02*
X55755217Y-99856678D01*
X56112360Y-99356678D02*
X56112360Y-100642392D01*
X56112360Y-100642392D02*
X56040931Y-100785250D01*
X56040931Y-100785250D02*
X55898074Y-100856678D01*
X55898074Y-100856678D02*
X55755217Y-100856678D01*
D12*
X26126147Y-112591214D02*
X25626147Y-112591214D01*
X25411861Y-113376928D02*
X26126147Y-113376928D01*
X26126147Y-113376928D02*
X26126147Y-111876928D01*
X26126147Y-111876928D02*
X25411861Y-111876928D01*
X24911861Y-111876928D02*
X23911861Y-113376928D01*
X23911861Y-111876928D02*
X24911861Y-113376928D01*
X23554718Y-111876928D02*
X22697576Y-111876928D01*
X23126147Y-113376928D02*
X23126147Y-111876928D01*
X106846147Y-77381214D02*
X106346147Y-77381214D01*
X106131861Y-78166928D02*
X106846147Y-78166928D01*
X106846147Y-78166928D02*
X106846147Y-76666928D01*
X106846147Y-76666928D02*
X106131861Y-76666928D01*
X105631861Y-76666928D02*
X104631861Y-78166928D01*
X104631861Y-76666928D02*
X105631861Y-78166928D01*
X104274718Y-76666928D02*
X103417576Y-76666928D01*
X103846147Y-78166928D02*
X103846147Y-76666928D01*
D13*
X22015000Y-26790000D02*
X109555000Y-26790000D01*
X109555000Y-84040000D01*
X22015000Y-84040000D01*
X22015000Y-26790000D01*
X22015000Y-86470000D02*
X70775000Y-86470000D01*
X70775000Y-114610000D01*
X22015000Y-114610000D01*
X22015000Y-86470000D01*
X64217500Y-53237100D02*
X70377500Y-53237100D01*
X70377500Y-60102500D01*
X64217500Y-60102500D01*
X64217500Y-53237100D01*
X64237500Y-37897100D02*
X70397500Y-37897100D01*
X70397500Y-44762500D01*
X64237500Y-44762500D01*
X64237500Y-37897100D01*
D10*
X82986640Y-37302161D02*
X82986640Y-36778351D01*
X82986640Y-36778351D02*
X83510450Y-36725970D01*
X83510450Y-36725970D02*
X83458069Y-36778351D01*
X83458069Y-36778351D02*
X83405688Y-36883113D01*
X83405688Y-36883113D02*
X83405688Y-37145018D01*
X83405688Y-37145018D02*
X83458069Y-37249780D01*
X83458069Y-37249780D02*
X83510450Y-37302161D01*
X83510450Y-37302161D02*
X83615212Y-37354542D01*
X83615212Y-37354542D02*
X83877117Y-37354542D01*
X83877117Y-37354542D02*
X83981879Y-37302161D01*
X83981879Y-37302161D02*
X84034260Y-37249780D01*
X84034260Y-37249780D02*
X84086640Y-37145018D01*
X84086640Y-37145018D02*
X84086640Y-36883113D01*
X84086640Y-36883113D02*
X84034260Y-36778351D01*
X84034260Y-36778351D02*
X83981879Y-36725970D01*
X82986640Y-37668827D02*
X84086640Y-38035494D01*
X84086640Y-38035494D02*
X82986640Y-38402161D01*
X83039021Y-40183113D02*
X82986640Y-40078351D01*
X82986640Y-40078351D02*
X82986640Y-39921208D01*
X82986640Y-39921208D02*
X83039021Y-39764065D01*
X83039021Y-39764065D02*
X83143783Y-39659303D01*
X83143783Y-39659303D02*
X83248545Y-39606922D01*
X83248545Y-39606922D02*
X83458069Y-39554541D01*
X83458069Y-39554541D02*
X83615212Y-39554541D01*
X83615212Y-39554541D02*
X83824736Y-39606922D01*
X83824736Y-39606922D02*
X83929498Y-39659303D01*
X83929498Y-39659303D02*
X84034260Y-39764065D01*
X84034260Y-39764065D02*
X84086640Y-39921208D01*
X84086640Y-39921208D02*
X84086640Y-40025970D01*
X84086640Y-40025970D02*
X84034260Y-40183113D01*
X84034260Y-40183113D02*
X83981879Y-40235494D01*
X83981879Y-40235494D02*
X83615212Y-40235494D01*
X83615212Y-40235494D02*
X83615212Y-40025970D01*
X83981879Y-42173589D02*
X84034260Y-42121208D01*
X84034260Y-42121208D02*
X84086640Y-41964065D01*
X84086640Y-41964065D02*
X84086640Y-41859303D01*
X84086640Y-41859303D02*
X84034260Y-41702160D01*
X84034260Y-41702160D02*
X83929498Y-41597398D01*
X83929498Y-41597398D02*
X83824736Y-41545017D01*
X83824736Y-41545017D02*
X83615212Y-41492636D01*
X83615212Y-41492636D02*
X83458069Y-41492636D01*
X83458069Y-41492636D02*
X83248545Y-41545017D01*
X83248545Y-41545017D02*
X83143783Y-41597398D01*
X83143783Y-41597398D02*
X83039021Y-41702160D01*
X83039021Y-41702160D02*
X82986640Y-41859303D01*
X82986640Y-41859303D02*
X82986640Y-41964065D01*
X82986640Y-41964065D02*
X83039021Y-42121208D01*
X83039021Y-42121208D02*
X83091402Y-42173589D01*
X84086640Y-42645017D02*
X82986640Y-42645017D01*
X84086640Y-43273589D02*
X83458069Y-42802160D01*
X82986640Y-43273589D02*
X83615212Y-42645017D01*
X83981879Y-45211684D02*
X84034260Y-45159303D01*
X84034260Y-45159303D02*
X84086640Y-45002160D01*
X84086640Y-45002160D02*
X84086640Y-44897398D01*
X84086640Y-44897398D02*
X84034260Y-44740255D01*
X84034260Y-44740255D02*
X83929498Y-44635493D01*
X83929498Y-44635493D02*
X83824736Y-44583112D01*
X83824736Y-44583112D02*
X83615212Y-44530731D01*
X83615212Y-44530731D02*
X83458069Y-44530731D01*
X83458069Y-44530731D02*
X83248545Y-44583112D01*
X83248545Y-44583112D02*
X83143783Y-44635493D01*
X83143783Y-44635493D02*
X83039021Y-44740255D01*
X83039021Y-44740255D02*
X82986640Y-44897398D01*
X82986640Y-44897398D02*
X82986640Y-45002160D01*
X82986640Y-45002160D02*
X83039021Y-45159303D01*
X83039021Y-45159303D02*
X83091402Y-45211684D01*
X84034260Y-45630731D02*
X84086640Y-45787874D01*
X84086640Y-45787874D02*
X84086640Y-46049779D01*
X84086640Y-46049779D02*
X84034260Y-46154541D01*
X84034260Y-46154541D02*
X83981879Y-46206922D01*
X83981879Y-46206922D02*
X83877117Y-46259303D01*
X83877117Y-46259303D02*
X83772355Y-46259303D01*
X83772355Y-46259303D02*
X83667593Y-46206922D01*
X83667593Y-46206922D02*
X83615212Y-46154541D01*
X83615212Y-46154541D02*
X83562831Y-46049779D01*
X83562831Y-46049779D02*
X83510450Y-45840255D01*
X83510450Y-45840255D02*
X83458069Y-45735493D01*
X83458069Y-45735493D02*
X83405688Y-45683112D01*
X83405688Y-45683112D02*
X83300926Y-45630731D01*
X83300926Y-45630731D02*
X83196164Y-45630731D01*
X83196164Y-45630731D02*
X83091402Y-45683112D01*
X83091402Y-45683112D02*
X83039021Y-45735493D01*
X83039021Y-45735493D02*
X82986640Y-45840255D01*
X82986640Y-45840255D02*
X82986640Y-46102160D01*
X82986640Y-46102160D02*
X83039021Y-46259303D01*
X84086640Y-47568826D02*
X82986640Y-47568826D01*
X82986640Y-47568826D02*
X82986640Y-47830731D01*
X82986640Y-47830731D02*
X83039021Y-47987874D01*
X83039021Y-47987874D02*
X83143783Y-48092636D01*
X83143783Y-48092636D02*
X83248545Y-48145017D01*
X83248545Y-48145017D02*
X83458069Y-48197398D01*
X83458069Y-48197398D02*
X83615212Y-48197398D01*
X83615212Y-48197398D02*
X83824736Y-48145017D01*
X83824736Y-48145017D02*
X83929498Y-48092636D01*
X83929498Y-48092636D02*
X84034260Y-47987874D01*
X84034260Y-47987874D02*
X84086640Y-47830731D01*
X84086640Y-47830731D02*
X84086640Y-47568826D01*
D14*
X66502319Y-54400595D02*
X66026128Y-54067262D01*
X66502319Y-53829167D02*
X65502319Y-53829167D01*
X65502319Y-53829167D02*
X65502319Y-54210119D01*
X65502319Y-54210119D02*
X65549938Y-54305357D01*
X65549938Y-54305357D02*
X65597557Y-54352976D01*
X65597557Y-54352976D02*
X65692795Y-54400595D01*
X65692795Y-54400595D02*
X65835652Y-54400595D01*
X65835652Y-54400595D02*
X65930890Y-54352976D01*
X65930890Y-54352976D02*
X65978509Y-54305357D01*
X65978509Y-54305357D02*
X66026128Y-54210119D01*
X66026128Y-54210119D02*
X66026128Y-53829167D01*
X66502319Y-54829167D02*
X65502319Y-54829167D01*
X65502319Y-54829167D02*
X65502319Y-55210119D01*
X65502319Y-55210119D02*
X65549938Y-55305357D01*
X65549938Y-55305357D02*
X65597557Y-55352976D01*
X65597557Y-55352976D02*
X65692795Y-55400595D01*
X65692795Y-55400595D02*
X65835652Y-55400595D01*
X65835652Y-55400595D02*
X65930890Y-55352976D01*
X65930890Y-55352976D02*
X65978509Y-55305357D01*
X65978509Y-55305357D02*
X66026128Y-55210119D01*
X66026128Y-55210119D02*
X66026128Y-54829167D01*
X66502319Y-55829167D02*
X65502319Y-55829167D01*
X65502319Y-55829167D02*
X66216604Y-56162500D01*
X66216604Y-56162500D02*
X65502319Y-56495833D01*
X65502319Y-56495833D02*
X66502319Y-56495833D01*
D15*
X32351503Y-29505038D02*
X32446741Y-29457419D01*
X32446741Y-29457419D02*
X32589598Y-29457419D01*
X32589598Y-29457419D02*
X32732455Y-29505038D01*
X32732455Y-29505038D02*
X32827693Y-29600276D01*
X32827693Y-29600276D02*
X32875312Y-29695514D01*
X32875312Y-29695514D02*
X32922931Y-29885990D01*
X32922931Y-29885990D02*
X32922931Y-30028847D01*
X32922931Y-30028847D02*
X32875312Y-30219323D01*
X32875312Y-30219323D02*
X32827693Y-30314561D01*
X32827693Y-30314561D02*
X32732455Y-30409800D01*
X32732455Y-30409800D02*
X32589598Y-30457419D01*
X32589598Y-30457419D02*
X32494360Y-30457419D01*
X32494360Y-30457419D02*
X32351503Y-30409800D01*
X32351503Y-30409800D02*
X32303884Y-30362180D01*
X32303884Y-30362180D02*
X32303884Y-30028847D01*
X32303884Y-30028847D02*
X32494360Y-30028847D01*
X31875312Y-30457419D02*
X31875312Y-29457419D01*
X31875312Y-29457419D02*
X31303884Y-30457419D01*
X31303884Y-30457419D02*
X31303884Y-29457419D01*
X30827693Y-30457419D02*
X30827693Y-29457419D01*
X30827693Y-29457419D02*
X30589598Y-29457419D01*
X30589598Y-29457419D02*
X30446741Y-29505038D01*
X30446741Y-29505038D02*
X30351503Y-29600276D01*
X30351503Y-29600276D02*
X30303884Y-29695514D01*
X30303884Y-29695514D02*
X30256265Y-29885990D01*
X30256265Y-29885990D02*
X30256265Y-30028847D01*
X30256265Y-30028847D02*
X30303884Y-30219323D01*
X30303884Y-30219323D02*
X30351503Y-30314561D01*
X30351503Y-30314561D02*
X30446741Y-30409800D01*
X30446741Y-30409800D02*
X30589598Y-30457419D01*
X30589598Y-30457419D02*
X30827693Y-30457419D01*
X31959687Y-44124919D02*
X32293020Y-43648728D01*
X32531115Y-44124919D02*
X32531115Y-43124919D01*
X32531115Y-43124919D02*
X32150163Y-43124919D01*
X32150163Y-43124919D02*
X32054925Y-43172538D01*
X32054925Y-43172538D02*
X32007306Y-43220157D01*
X32007306Y-43220157D02*
X31959687Y-43315395D01*
X31959687Y-43315395D02*
X31959687Y-43458252D01*
X31959687Y-43458252D02*
X32007306Y-43553490D01*
X32007306Y-43553490D02*
X32054925Y-43601109D01*
X32054925Y-43601109D02*
X32150163Y-43648728D01*
X32150163Y-43648728D02*
X32531115Y-43648728D01*
X31531115Y-44124919D02*
X31531115Y-43458252D01*
X31531115Y-43124919D02*
X31578734Y-43172538D01*
X31578734Y-43172538D02*
X31531115Y-43220157D01*
X31531115Y-43220157D02*
X31483496Y-43172538D01*
X31483496Y-43172538D02*
X31531115Y-43124919D01*
X31531115Y-43124919D02*
X31531115Y-43220157D01*
X30388258Y-43124919D02*
X29721592Y-43124919D01*
X29721592Y-43124919D02*
X30150163Y-44124919D01*
X32657813Y-49799919D02*
X32991146Y-49323728D01*
X33229241Y-49799919D02*
X33229241Y-48799919D01*
X33229241Y-48799919D02*
X32848289Y-48799919D01*
X32848289Y-48799919D02*
X32753051Y-48847538D01*
X32753051Y-48847538D02*
X32705432Y-48895157D01*
X32705432Y-48895157D02*
X32657813Y-48990395D01*
X32657813Y-48990395D02*
X32657813Y-49133252D01*
X32657813Y-49133252D02*
X32705432Y-49228490D01*
X32705432Y-49228490D02*
X32753051Y-49276109D01*
X32753051Y-49276109D02*
X32848289Y-49323728D01*
X32848289Y-49323728D02*
X33229241Y-49323728D01*
X32086384Y-49799919D02*
X32181622Y-49752300D01*
X32181622Y-49752300D02*
X32229241Y-49704680D01*
X32229241Y-49704680D02*
X32276860Y-49609442D01*
X32276860Y-49609442D02*
X32276860Y-49323728D01*
X32276860Y-49323728D02*
X32229241Y-49228490D01*
X32229241Y-49228490D02*
X32181622Y-49180871D01*
X32181622Y-49180871D02*
X32086384Y-49133252D01*
X32086384Y-49133252D02*
X31943527Y-49133252D01*
X31943527Y-49133252D02*
X31848289Y-49180871D01*
X31848289Y-49180871D02*
X31800670Y-49228490D01*
X31800670Y-49228490D02*
X31753051Y-49323728D01*
X31753051Y-49323728D02*
X31753051Y-49609442D01*
X31753051Y-49609442D02*
X31800670Y-49704680D01*
X31800670Y-49704680D02*
X31848289Y-49752300D01*
X31848289Y-49752300D02*
X31943527Y-49799919D01*
X31943527Y-49799919D02*
X32086384Y-49799919D01*
X30657812Y-48799919D02*
X30038765Y-48799919D01*
X30038765Y-48799919D02*
X30372098Y-49180871D01*
X30372098Y-49180871D02*
X30229241Y-49180871D01*
X30229241Y-49180871D02*
X30134003Y-49228490D01*
X30134003Y-49228490D02*
X30086384Y-49276109D01*
X30086384Y-49276109D02*
X30038765Y-49371347D01*
X30038765Y-49371347D02*
X30038765Y-49609442D01*
X30038765Y-49609442D02*
X30086384Y-49704680D01*
X30086384Y-49704680D02*
X30134003Y-49752300D01*
X30134003Y-49752300D02*
X30229241Y-49799919D01*
X30229241Y-49799919D02*
X30514955Y-49799919D01*
X30514955Y-49799919D02*
X30610193Y-49752300D01*
X30610193Y-49752300D02*
X30657812Y-49704680D01*
D10*
X83998359Y-74322838D02*
X83998359Y-74846648D01*
X83998359Y-74846648D02*
X83474549Y-74899029D01*
X83474549Y-74899029D02*
X83526930Y-74846648D01*
X83526930Y-74846648D02*
X83579311Y-74741886D01*
X83579311Y-74741886D02*
X83579311Y-74479981D01*
X83579311Y-74479981D02*
X83526930Y-74375219D01*
X83526930Y-74375219D02*
X83474549Y-74322838D01*
X83474549Y-74322838D02*
X83369787Y-74270457D01*
X83369787Y-74270457D02*
X83107882Y-74270457D01*
X83107882Y-74270457D02*
X83003120Y-74322838D01*
X83003120Y-74322838D02*
X82950740Y-74375219D01*
X82950740Y-74375219D02*
X82898359Y-74479981D01*
X82898359Y-74479981D02*
X82898359Y-74741886D01*
X82898359Y-74741886D02*
X82950740Y-74846648D01*
X82950740Y-74846648D02*
X83003120Y-74899029D01*
X83998359Y-73956172D02*
X82898359Y-73589505D01*
X82898359Y-73589505D02*
X83998359Y-73222838D01*
X83945978Y-71441886D02*
X83998359Y-71546648D01*
X83998359Y-71546648D02*
X83998359Y-71703791D01*
X83998359Y-71703791D02*
X83945978Y-71860934D01*
X83945978Y-71860934D02*
X83841216Y-71965696D01*
X83841216Y-71965696D02*
X83736454Y-72018077D01*
X83736454Y-72018077D02*
X83526930Y-72070458D01*
X83526930Y-72070458D02*
X83369787Y-72070458D01*
X83369787Y-72070458D02*
X83160263Y-72018077D01*
X83160263Y-72018077D02*
X83055501Y-71965696D01*
X83055501Y-71965696D02*
X82950740Y-71860934D01*
X82950740Y-71860934D02*
X82898359Y-71703791D01*
X82898359Y-71703791D02*
X82898359Y-71599029D01*
X82898359Y-71599029D02*
X82950740Y-71441886D01*
X82950740Y-71441886D02*
X83003120Y-71389505D01*
X83003120Y-71389505D02*
X83369787Y-71389505D01*
X83369787Y-71389505D02*
X83369787Y-71599029D01*
X83003120Y-69451410D02*
X82950740Y-69503791D01*
X82950740Y-69503791D02*
X82898359Y-69660934D01*
X82898359Y-69660934D02*
X82898359Y-69765696D01*
X82898359Y-69765696D02*
X82950740Y-69922839D01*
X82950740Y-69922839D02*
X83055501Y-70027601D01*
X83055501Y-70027601D02*
X83160263Y-70079982D01*
X83160263Y-70079982D02*
X83369787Y-70132363D01*
X83369787Y-70132363D02*
X83526930Y-70132363D01*
X83526930Y-70132363D02*
X83736454Y-70079982D01*
X83736454Y-70079982D02*
X83841216Y-70027601D01*
X83841216Y-70027601D02*
X83945978Y-69922839D01*
X83945978Y-69922839D02*
X83998359Y-69765696D01*
X83998359Y-69765696D02*
X83998359Y-69660934D01*
X83998359Y-69660934D02*
X83945978Y-69503791D01*
X83945978Y-69503791D02*
X83893597Y-69451410D01*
X82898359Y-68979982D02*
X83998359Y-68979982D01*
X82898359Y-68351410D02*
X83526930Y-68822839D01*
X83998359Y-68351410D02*
X83369787Y-68979982D01*
X83003120Y-66413315D02*
X82950740Y-66465696D01*
X82950740Y-66465696D02*
X82898359Y-66622839D01*
X82898359Y-66622839D02*
X82898359Y-66727601D01*
X82898359Y-66727601D02*
X82950740Y-66884744D01*
X82950740Y-66884744D02*
X83055501Y-66989506D01*
X83055501Y-66989506D02*
X83160263Y-67041887D01*
X83160263Y-67041887D02*
X83369787Y-67094268D01*
X83369787Y-67094268D02*
X83526930Y-67094268D01*
X83526930Y-67094268D02*
X83736454Y-67041887D01*
X83736454Y-67041887D02*
X83841216Y-66989506D01*
X83841216Y-66989506D02*
X83945978Y-66884744D01*
X83945978Y-66884744D02*
X83998359Y-66727601D01*
X83998359Y-66727601D02*
X83998359Y-66622839D01*
X83998359Y-66622839D02*
X83945978Y-66465696D01*
X83945978Y-66465696D02*
X83893597Y-66413315D01*
X82950740Y-65994268D02*
X82898359Y-65837125D01*
X82898359Y-65837125D02*
X82898359Y-65575220D01*
X82898359Y-65575220D02*
X82950740Y-65470458D01*
X82950740Y-65470458D02*
X83003120Y-65418077D01*
X83003120Y-65418077D02*
X83107882Y-65365696D01*
X83107882Y-65365696D02*
X83212644Y-65365696D01*
X83212644Y-65365696D02*
X83317406Y-65418077D01*
X83317406Y-65418077D02*
X83369787Y-65470458D01*
X83369787Y-65470458D02*
X83422168Y-65575220D01*
X83422168Y-65575220D02*
X83474549Y-65784744D01*
X83474549Y-65784744D02*
X83526930Y-65889506D01*
X83526930Y-65889506D02*
X83579311Y-65941887D01*
X83579311Y-65941887D02*
X83684073Y-65994268D01*
X83684073Y-65994268D02*
X83788835Y-65994268D01*
X83788835Y-65994268D02*
X83893597Y-65941887D01*
X83893597Y-65941887D02*
X83945978Y-65889506D01*
X83945978Y-65889506D02*
X83998359Y-65784744D01*
X83998359Y-65784744D02*
X83998359Y-65522839D01*
X83998359Y-65522839D02*
X83945978Y-65365696D01*
X82898359Y-64056173D02*
X83998359Y-64056173D01*
X83998359Y-64056173D02*
X83998359Y-63794268D01*
X83998359Y-63794268D02*
X83945978Y-63637125D01*
X83945978Y-63637125D02*
X83841216Y-63532363D01*
X83841216Y-63532363D02*
X83736454Y-63479982D01*
X83736454Y-63479982D02*
X83526930Y-63427601D01*
X83526930Y-63427601D02*
X83369787Y-63427601D01*
X83369787Y-63427601D02*
X83160263Y-63479982D01*
X83160263Y-63479982D02*
X83055501Y-63532363D01*
X83055501Y-63532363D02*
X82950740Y-63637125D01*
X82950740Y-63637125D02*
X82898359Y-63794268D01*
X82898359Y-63794268D02*
X82898359Y-64056173D01*
D15*
X32095789Y-36187419D02*
X32667217Y-36187419D01*
X32381503Y-36187419D02*
X32381503Y-35187419D01*
X32381503Y-35187419D02*
X32476741Y-35330276D01*
X32476741Y-35330276D02*
X32571979Y-35425514D01*
X32571979Y-35425514D02*
X32667217Y-35473133D01*
X31714836Y-35282657D02*
X31667217Y-35235038D01*
X31667217Y-35235038D02*
X31571979Y-35187419D01*
X31571979Y-35187419D02*
X31333884Y-35187419D01*
X31333884Y-35187419D02*
X31238646Y-35235038D01*
X31238646Y-35235038D02*
X31191027Y-35282657D01*
X31191027Y-35282657D02*
X31143408Y-35377895D01*
X31143408Y-35377895D02*
X31143408Y-35473133D01*
X31143408Y-35473133D02*
X31191027Y-35615990D01*
X31191027Y-35615990D02*
X31762455Y-36187419D01*
X31762455Y-36187419D02*
X31143408Y-36187419D01*
X30857693Y-35187419D02*
X30524360Y-36187419D01*
X30524360Y-36187419D02*
X30191027Y-35187419D01*
D14*
X68982319Y-38838691D02*
X67982319Y-38838691D01*
X68029938Y-39838690D02*
X67982319Y-39743452D01*
X67982319Y-39743452D02*
X67982319Y-39600595D01*
X67982319Y-39600595D02*
X68029938Y-39457738D01*
X68029938Y-39457738D02*
X68125176Y-39362500D01*
X68125176Y-39362500D02*
X68220414Y-39314881D01*
X68220414Y-39314881D02*
X68410890Y-39267262D01*
X68410890Y-39267262D02*
X68553747Y-39267262D01*
X68553747Y-39267262D02*
X68744223Y-39314881D01*
X68744223Y-39314881D02*
X68839461Y-39362500D01*
X68839461Y-39362500D02*
X68934700Y-39457738D01*
X68934700Y-39457738D02*
X68982319Y-39600595D01*
X68982319Y-39600595D02*
X68982319Y-39695833D01*
X68982319Y-39695833D02*
X68934700Y-39838690D01*
X68934700Y-39838690D02*
X68887080Y-39886309D01*
X68887080Y-39886309D02*
X68553747Y-39886309D01*
X68553747Y-39886309D02*
X68553747Y-39695833D01*
X68982319Y-40314881D02*
X67982319Y-40314881D01*
X67982319Y-40314881D02*
X68982319Y-40886309D01*
X68982319Y-40886309D02*
X67982319Y-40886309D01*
D16*
X103985132Y-31448328D02*
X103985132Y-29948328D01*
X103985132Y-31376900D02*
X104127989Y-31448328D01*
X104127989Y-31448328D02*
X104413703Y-31448328D01*
X104413703Y-31448328D02*
X104556560Y-31376900D01*
X104556560Y-31376900D02*
X104627989Y-31305471D01*
X104627989Y-31305471D02*
X104699417Y-31162614D01*
X104699417Y-31162614D02*
X104699417Y-30734042D01*
X104699417Y-30734042D02*
X104627989Y-30591185D01*
X104627989Y-30591185D02*
X104556560Y-30519757D01*
X104556560Y-30519757D02*
X104413703Y-30448328D01*
X104413703Y-30448328D02*
X104127989Y-30448328D01*
X104127989Y-30448328D02*
X103985132Y-30519757D01*
X102699417Y-31376900D02*
X102842274Y-31448328D01*
X102842274Y-31448328D02*
X103127989Y-31448328D01*
X103127989Y-31448328D02*
X103270846Y-31376900D01*
X103270846Y-31376900D02*
X103342274Y-31234042D01*
X103342274Y-31234042D02*
X103342274Y-30662614D01*
X103342274Y-30662614D02*
X103270846Y-30519757D01*
X103270846Y-30519757D02*
X103127989Y-30448328D01*
X103127989Y-30448328D02*
X102842274Y-30448328D01*
X102842274Y-30448328D02*
X102699417Y-30519757D01*
X102699417Y-30519757D02*
X102627989Y-30662614D01*
X102627989Y-30662614D02*
X102627989Y-30805471D01*
X102627989Y-30805471D02*
X103342274Y-30948328D01*
X101985132Y-30448328D02*
X101985132Y-31448328D01*
X101985132Y-30591185D02*
X101913703Y-30519757D01*
X101913703Y-30519757D02*
X101770846Y-30448328D01*
X101770846Y-30448328D02*
X101556560Y-30448328D01*
X101556560Y-30448328D02*
X101413703Y-30519757D01*
X101413703Y-30519757D02*
X101342275Y-30662614D01*
X101342275Y-30662614D02*
X101342275Y-31448328D01*
X100413703Y-31448328D02*
X100556560Y-31376900D01*
X100556560Y-31376900D02*
X100627989Y-31305471D01*
X100627989Y-31305471D02*
X100699417Y-31162614D01*
X100699417Y-31162614D02*
X100699417Y-30734042D01*
X100699417Y-30734042D02*
X100627989Y-30591185D01*
X100627989Y-30591185D02*
X100556560Y-30519757D01*
X100556560Y-30519757D02*
X100413703Y-30448328D01*
X100413703Y-30448328D02*
X100199417Y-30448328D01*
X100199417Y-30448328D02*
X100056560Y-30519757D01*
X100056560Y-30519757D02*
X99985132Y-30591185D01*
X99985132Y-30591185D02*
X99913703Y-30734042D01*
X99913703Y-30734042D02*
X99913703Y-31162614D01*
X99913703Y-31162614D02*
X99985132Y-31305471D01*
X99985132Y-31305471D02*
X100056560Y-31376900D01*
X100056560Y-31376900D02*
X100199417Y-31448328D01*
X100199417Y-31448328D02*
X100413703Y-31448328D01*
X99056560Y-31448328D02*
X99199417Y-31376900D01*
X99199417Y-31376900D02*
X99270846Y-31234042D01*
X99270846Y-31234042D02*
X99270846Y-29948328D01*
X98485132Y-31448328D02*
X98485132Y-29948328D01*
X98342275Y-30876900D02*
X97913703Y-31448328D01*
X97913703Y-30448328D02*
X98485132Y-31019757D01*
X104627989Y-33863328D02*
X104627989Y-32363328D01*
X103985132Y-33863328D02*
X103985132Y-33077614D01*
X103985132Y-33077614D02*
X104056560Y-32934757D01*
X104056560Y-32934757D02*
X104199417Y-32863328D01*
X104199417Y-32863328D02*
X104413703Y-32863328D01*
X104413703Y-32863328D02*
X104556560Y-32934757D01*
X104556560Y-32934757D02*
X104627989Y-33006185D01*
X102627989Y-33863328D02*
X102627989Y-32363328D01*
X102627989Y-33791900D02*
X102770846Y-33863328D01*
X102770846Y-33863328D02*
X103056560Y-33863328D01*
X103056560Y-33863328D02*
X103199417Y-33791900D01*
X103199417Y-33791900D02*
X103270846Y-33720471D01*
X103270846Y-33720471D02*
X103342274Y-33577614D01*
X103342274Y-33577614D02*
X103342274Y-33149042D01*
X103342274Y-33149042D02*
X103270846Y-33006185D01*
X103270846Y-33006185D02*
X103199417Y-32934757D01*
X103199417Y-32934757D02*
X103056560Y-32863328D01*
X103056560Y-32863328D02*
X102770846Y-32863328D01*
X102770846Y-32863328D02*
X102627989Y-32934757D01*
X101913703Y-33291900D02*
X100770846Y-33291900D01*
X100056560Y-33863328D02*
X100056560Y-32863328D01*
X100056560Y-33006185D02*
X99985131Y-32934757D01*
X99985131Y-32934757D02*
X99842274Y-32863328D01*
X99842274Y-32863328D02*
X99627988Y-32863328D01*
X99627988Y-32863328D02*
X99485131Y-32934757D01*
X99485131Y-32934757D02*
X99413703Y-33077614D01*
X99413703Y-33077614D02*
X99413703Y-33863328D01*
X99413703Y-33077614D02*
X99342274Y-32934757D01*
X99342274Y-32934757D02*
X99199417Y-32863328D01*
X99199417Y-32863328D02*
X98985131Y-32863328D01*
X98985131Y-32863328D02*
X98842274Y-32934757D01*
X98842274Y-32934757D02*
X98770845Y-33077614D01*
X98770845Y-33077614D02*
X98770845Y-33863328D01*
X97413703Y-33791900D02*
X97556560Y-33863328D01*
X97556560Y-33863328D02*
X97842274Y-33863328D01*
X97842274Y-33863328D02*
X97985131Y-33791900D01*
X97985131Y-33791900D02*
X98056560Y-33720471D01*
X98056560Y-33720471D02*
X98127988Y-33577614D01*
X98127988Y-33577614D02*
X98127988Y-33149042D01*
X98127988Y-33149042D02*
X98056560Y-33006185D01*
X98056560Y-33006185D02*
X97985131Y-32934757D01*
X97985131Y-32934757D02*
X97842274Y-32863328D01*
X97842274Y-32863328D02*
X97556560Y-32863328D01*
X97556560Y-32863328D02*
X97413703Y-32934757D01*
X96127989Y-32863328D02*
X96127989Y-33863328D01*
X96770846Y-32863328D02*
X96770846Y-33649042D01*
X96770846Y-33649042D02*
X96699417Y-33791900D01*
X96699417Y-33791900D02*
X96556560Y-33863328D01*
X96556560Y-33863328D02*
X96342274Y-33863328D01*
X96342274Y-33863328D02*
X96199417Y-33791900D01*
X96199417Y-33791900D02*
X96127989Y-33720471D01*
X94413703Y-32863328D02*
X94056560Y-33863328D01*
X94056560Y-33863328D02*
X93699417Y-32863328D01*
X92842274Y-32363328D02*
X92699417Y-32363328D01*
X92699417Y-32363328D02*
X92556560Y-32434757D01*
X92556560Y-32434757D02*
X92485132Y-32506185D01*
X92485132Y-32506185D02*
X92413703Y-32649042D01*
X92413703Y-32649042D02*
X92342274Y-32934757D01*
X92342274Y-32934757D02*
X92342274Y-33291900D01*
X92342274Y-33291900D02*
X92413703Y-33577614D01*
X92413703Y-33577614D02*
X92485132Y-33720471D01*
X92485132Y-33720471D02*
X92556560Y-33791900D01*
X92556560Y-33791900D02*
X92699417Y-33863328D01*
X92699417Y-33863328D02*
X92842274Y-33863328D01*
X92842274Y-33863328D02*
X92985132Y-33791900D01*
X92985132Y-33791900D02*
X93056560Y-33720471D01*
X93056560Y-33720471D02*
X93127989Y-33577614D01*
X93127989Y-33577614D02*
X93199417Y-33291900D01*
X93199417Y-33291900D02*
X93199417Y-32934757D01*
X93199417Y-32934757D02*
X93127989Y-32649042D01*
X93127989Y-32649042D02*
X93056560Y-32506185D01*
X93056560Y-32506185D02*
X92985132Y-32434757D01*
X92985132Y-32434757D02*
X92842274Y-32363328D01*
X91699418Y-33720471D02*
X91627989Y-33791900D01*
X91627989Y-33791900D02*
X91699418Y-33863328D01*
X91699418Y-33863328D02*
X91770846Y-33791900D01*
X91770846Y-33791900D02*
X91699418Y-33720471D01*
X91699418Y-33720471D02*
X91699418Y-33863328D01*
X91056560Y-32506185D02*
X90985132Y-32434757D01*
X90985132Y-32434757D02*
X90842275Y-32363328D01*
X90842275Y-32363328D02*
X90485132Y-32363328D01*
X90485132Y-32363328D02*
X90342275Y-32434757D01*
X90342275Y-32434757D02*
X90270846Y-32506185D01*
X90270846Y-32506185D02*
X90199417Y-32649042D01*
X90199417Y-32649042D02*
X90199417Y-32791900D01*
X90199417Y-32791900D02*
X90270846Y-33006185D01*
X90270846Y-33006185D02*
X91127989Y-33863328D01*
X91127989Y-33863328D02*
X90199417Y-33863328D01*
D15*
X32565075Y-55444919D02*
X33041265Y-55444919D01*
X33041265Y-55444919D02*
X33041265Y-54444919D01*
X32088884Y-55444919D02*
X32184122Y-55397300D01*
X32184122Y-55397300D02*
X32231741Y-55349680D01*
X32231741Y-55349680D02*
X32279360Y-55254442D01*
X32279360Y-55254442D02*
X32279360Y-54968728D01*
X32279360Y-54968728D02*
X32231741Y-54873490D01*
X32231741Y-54873490D02*
X32184122Y-54825871D01*
X32184122Y-54825871D02*
X32088884Y-54778252D01*
X32088884Y-54778252D02*
X31946027Y-54778252D01*
X31946027Y-54778252D02*
X31850789Y-54825871D01*
X31850789Y-54825871D02*
X31803170Y-54873490D01*
X31803170Y-54873490D02*
X31755551Y-54968728D01*
X31755551Y-54968728D02*
X31755551Y-55254442D01*
X31755551Y-55254442D02*
X31803170Y-55349680D01*
X31803170Y-55349680D02*
X31850789Y-55397300D01*
X31850789Y-55397300D02*
X31946027Y-55444919D01*
X31946027Y-55444919D02*
X32088884Y-55444919D01*
X30136503Y-54778252D02*
X30136503Y-55444919D01*
X30374598Y-54397300D02*
X30612693Y-55111585D01*
X30612693Y-55111585D02*
X29993646Y-55111585D01*
X32139925Y-61102419D02*
X32616115Y-61102419D01*
X32616115Y-61102419D02*
X32616115Y-60102419D01*
X31806591Y-61102419D02*
X31806591Y-60435752D01*
X31806591Y-60102419D02*
X31854210Y-60150038D01*
X31854210Y-60150038D02*
X31806591Y-60197657D01*
X31806591Y-60197657D02*
X31758972Y-60150038D01*
X31758972Y-60150038D02*
X31806591Y-60102419D01*
X31806591Y-60102419D02*
X31806591Y-60197657D01*
X30425639Y-60530990D02*
X30520877Y-60483371D01*
X30520877Y-60483371D02*
X30568496Y-60435752D01*
X30568496Y-60435752D02*
X30616115Y-60340514D01*
X30616115Y-60340514D02*
X30616115Y-60292895D01*
X30616115Y-60292895D02*
X30568496Y-60197657D01*
X30568496Y-60197657D02*
X30520877Y-60150038D01*
X30520877Y-60150038D02*
X30425639Y-60102419D01*
X30425639Y-60102419D02*
X30235163Y-60102419D01*
X30235163Y-60102419D02*
X30139925Y-60150038D01*
X30139925Y-60150038D02*
X30092306Y-60197657D01*
X30092306Y-60197657D02*
X30044687Y-60292895D01*
X30044687Y-60292895D02*
X30044687Y-60340514D01*
X30044687Y-60340514D02*
X30092306Y-60435752D01*
X30092306Y-60435752D02*
X30139925Y-60483371D01*
X30139925Y-60483371D02*
X30235163Y-60530990D01*
X30235163Y-60530990D02*
X30425639Y-60530990D01*
X30425639Y-60530990D02*
X30520877Y-60578609D01*
X30520877Y-60578609D02*
X30568496Y-60626228D01*
X30568496Y-60626228D02*
X30616115Y-60721466D01*
X30616115Y-60721466D02*
X30616115Y-60911942D01*
X30616115Y-60911942D02*
X30568496Y-61007180D01*
X30568496Y-61007180D02*
X30520877Y-61054800D01*
X30520877Y-61054800D02*
X30425639Y-61102419D01*
X30425639Y-61102419D02*
X30235163Y-61102419D01*
X30235163Y-61102419D02*
X30139925Y-61054800D01*
X30139925Y-61054800D02*
X30092306Y-61007180D01*
X30092306Y-61007180D02*
X30044687Y-60911942D01*
X30044687Y-60911942D02*
X30044687Y-60721466D01*
X30044687Y-60721466D02*
X30092306Y-60626228D01*
X30092306Y-60626228D02*
X30139925Y-60578609D01*
X30139925Y-60578609D02*
X30235163Y-60530990D01*
D14*
X88931490Y-81213214D02*
X88883871Y-81070357D01*
X88883871Y-81070357D02*
X88836252Y-81022738D01*
X88836252Y-81022738D02*
X88741014Y-80975119D01*
X88741014Y-80975119D02*
X88598157Y-80975119D01*
X88598157Y-80975119D02*
X88502919Y-81022738D01*
X88502919Y-81022738D02*
X88455300Y-81070357D01*
X88455300Y-81070357D02*
X88407680Y-81165595D01*
X88407680Y-81165595D02*
X88407680Y-81546547D01*
X88407680Y-81546547D02*
X89407680Y-81546547D01*
X89407680Y-81546547D02*
X89407680Y-81213214D01*
X89407680Y-81213214D02*
X89360061Y-81117976D01*
X89360061Y-81117976D02*
X89312442Y-81070357D01*
X89312442Y-81070357D02*
X89217204Y-81022738D01*
X89217204Y-81022738D02*
X89121966Y-81022738D01*
X89121966Y-81022738D02*
X89026728Y-81070357D01*
X89026728Y-81070357D02*
X88979109Y-81117976D01*
X88979109Y-81117976D02*
X88931490Y-81213214D01*
X88931490Y-81213214D02*
X88931490Y-81546547D01*
X89407680Y-80689404D02*
X89407680Y-80117976D01*
X88407680Y-80403690D02*
X89407680Y-80403690D01*
X89407680Y-79879880D02*
X88407680Y-79213214D01*
X89407680Y-79213214D02*
X88407680Y-79879880D01*
X86797680Y-82165594D02*
X87797680Y-82165594D01*
X87321490Y-82165594D02*
X87321490Y-81594166D01*
X86797680Y-81594166D02*
X87797680Y-81594166D01*
X86892919Y-80546547D02*
X86845300Y-80594166D01*
X86845300Y-80594166D02*
X86797680Y-80737023D01*
X86797680Y-80737023D02*
X86797680Y-80832261D01*
X86797680Y-80832261D02*
X86845300Y-80975118D01*
X86845300Y-80975118D02*
X86940538Y-81070356D01*
X86940538Y-81070356D02*
X87035776Y-81117975D01*
X87035776Y-81117975D02*
X87226252Y-81165594D01*
X87226252Y-81165594D02*
X87369109Y-81165594D01*
X87369109Y-81165594D02*
X87559585Y-81117975D01*
X87559585Y-81117975D02*
X87654823Y-81070356D01*
X87654823Y-81070356D02*
X87750061Y-80975118D01*
X87750061Y-80975118D02*
X87797680Y-80832261D01*
X87797680Y-80832261D02*
X87797680Y-80737023D01*
X87797680Y-80737023D02*
X87750061Y-80594166D01*
X87750061Y-80594166D02*
X87702442Y-80546547D01*
X87797680Y-79927499D02*
X87797680Y-79832261D01*
X87797680Y-79832261D02*
X87750061Y-79737023D01*
X87750061Y-79737023D02*
X87702442Y-79689404D01*
X87702442Y-79689404D02*
X87607204Y-79641785D01*
X87607204Y-79641785D02*
X87416728Y-79594166D01*
X87416728Y-79594166D02*
X87178633Y-79594166D01*
X87178633Y-79594166D02*
X86988157Y-79641785D01*
X86988157Y-79641785D02*
X86892919Y-79689404D01*
X86892919Y-79689404D02*
X86845300Y-79737023D01*
X86845300Y-79737023D02*
X86797680Y-79832261D01*
X86797680Y-79832261D02*
X86797680Y-79927499D01*
X86797680Y-79927499D02*
X86845300Y-80022737D01*
X86845300Y-80022737D02*
X86892919Y-80070356D01*
X86892919Y-80070356D02*
X86988157Y-80117975D01*
X86988157Y-80117975D02*
X87178633Y-80165594D01*
X87178633Y-80165594D02*
X87416728Y-80165594D01*
X87416728Y-80165594D02*
X87607204Y-80117975D01*
X87607204Y-80117975D02*
X87702442Y-80070356D01*
X87702442Y-80070356D02*
X87750061Y-80022737D01*
X87750061Y-80022737D02*
X87797680Y-79927499D01*
X87797680Y-78737023D02*
X87797680Y-78927499D01*
X87797680Y-78927499D02*
X87750061Y-79022737D01*
X87750061Y-79022737D02*
X87702442Y-79070356D01*
X87702442Y-79070356D02*
X87559585Y-79165594D01*
X87559585Y-79165594D02*
X87369109Y-79213213D01*
X87369109Y-79213213D02*
X86988157Y-79213213D01*
X86988157Y-79213213D02*
X86892919Y-79165594D01*
X86892919Y-79165594D02*
X86845300Y-79117975D01*
X86845300Y-79117975D02*
X86797680Y-79022737D01*
X86797680Y-79022737D02*
X86797680Y-78832261D01*
X86797680Y-78832261D02*
X86845300Y-78737023D01*
X86845300Y-78737023D02*
X86892919Y-78689404D01*
X86892919Y-78689404D02*
X86988157Y-78641785D01*
X86988157Y-78641785D02*
X87226252Y-78641785D01*
X87226252Y-78641785D02*
X87321490Y-78689404D01*
X87321490Y-78689404D02*
X87369109Y-78737023D01*
X87369109Y-78737023D02*
X87416728Y-78832261D01*
X87416728Y-78832261D02*
X87416728Y-79022737D01*
X87416728Y-79022737D02*
X87369109Y-79117975D01*
X87369109Y-79117975D02*
X87321490Y-79165594D01*
X87321490Y-79165594D02*
X87226252Y-79213213D01*
X66236604Y-38584405D02*
X66236604Y-39060595D01*
X66522319Y-38489167D02*
X65522319Y-38822500D01*
X65522319Y-38822500D02*
X66522319Y-39155833D01*
X65522319Y-39489167D02*
X66331842Y-39489167D01*
X66331842Y-39489167D02*
X66427080Y-39536786D01*
X66427080Y-39536786D02*
X66474700Y-39584405D01*
X66474700Y-39584405D02*
X66522319Y-39679643D01*
X66522319Y-39679643D02*
X66522319Y-39870119D01*
X66522319Y-39870119D02*
X66474700Y-39965357D01*
X66474700Y-39965357D02*
X66427080Y-40012976D01*
X66427080Y-40012976D02*
X66331842Y-40060595D01*
X66331842Y-40060595D02*
X65522319Y-40060595D01*
X65522319Y-40441548D02*
X66522319Y-41108214D01*
X65522319Y-41108214D02*
X66522319Y-40441548D01*
X68914700Y-53916786D02*
X68962319Y-54059643D01*
X68962319Y-54059643D02*
X68962319Y-54297738D01*
X68962319Y-54297738D02*
X68914700Y-54392976D01*
X68914700Y-54392976D02*
X68867080Y-54440595D01*
X68867080Y-54440595D02*
X68771842Y-54488214D01*
X68771842Y-54488214D02*
X68676604Y-54488214D01*
X68676604Y-54488214D02*
X68581366Y-54440595D01*
X68581366Y-54440595D02*
X68533747Y-54392976D01*
X68533747Y-54392976D02*
X68486128Y-54297738D01*
X68486128Y-54297738D02*
X68438509Y-54107262D01*
X68438509Y-54107262D02*
X68390890Y-54012024D01*
X68390890Y-54012024D02*
X68343271Y-53964405D01*
X68343271Y-53964405D02*
X68248033Y-53916786D01*
X68248033Y-53916786D02*
X68152795Y-53916786D01*
X68152795Y-53916786D02*
X68057557Y-53964405D01*
X68057557Y-53964405D02*
X68009938Y-54012024D01*
X68009938Y-54012024D02*
X67962319Y-54107262D01*
X67962319Y-54107262D02*
X67962319Y-54345357D01*
X67962319Y-54345357D02*
X68009938Y-54488214D01*
X68962319Y-54916786D02*
X67962319Y-54916786D01*
X67962319Y-54916786D02*
X67962319Y-55297738D01*
X67962319Y-55297738D02*
X68009938Y-55392976D01*
X68009938Y-55392976D02*
X68057557Y-55440595D01*
X68057557Y-55440595D02*
X68152795Y-55488214D01*
X68152795Y-55488214D02*
X68295652Y-55488214D01*
X68295652Y-55488214D02*
X68390890Y-55440595D01*
X68390890Y-55440595D02*
X68438509Y-55392976D01*
X68438509Y-55392976D02*
X68486128Y-55297738D01*
X68486128Y-55297738D02*
X68486128Y-54916786D01*
X68962319Y-55916786D02*
X67962319Y-55916786D01*
X67962319Y-55916786D02*
X67962319Y-56154881D01*
X67962319Y-56154881D02*
X68009938Y-56297738D01*
X68009938Y-56297738D02*
X68105176Y-56392976D01*
X68105176Y-56392976D02*
X68200414Y-56440595D01*
X68200414Y-56440595D02*
X68390890Y-56488214D01*
X68390890Y-56488214D02*
X68533747Y-56488214D01*
X68533747Y-56488214D02*
X68724223Y-56440595D01*
X68724223Y-56440595D02*
X68819461Y-56392976D01*
X68819461Y-56392976D02*
X68914700Y-56297738D01*
X68914700Y-56297738D02*
X68962319Y-56154881D01*
X68962319Y-56154881D02*
X68962319Y-55916786D01*
D15*
X107741175Y-58917667D02*
X107741340Y-59393857D01*
X107741340Y-59393857D02*
X107265166Y-59441642D01*
X107265166Y-59441642D02*
X107312769Y-59394006D01*
X107312769Y-59394006D02*
X107360355Y-59298752D01*
X107360355Y-59298752D02*
X107360272Y-59060656D01*
X107360272Y-59060656D02*
X107312620Y-58965435D01*
X107312620Y-58965435D02*
X107264984Y-58917832D01*
X107264984Y-58917832D02*
X107169729Y-58870247D01*
X107169729Y-58870247D02*
X106931634Y-58870329D01*
X106931634Y-58870329D02*
X106836413Y-58917982D01*
X106836413Y-58917982D02*
X106788810Y-58965617D01*
X106788810Y-58965617D02*
X106741224Y-59060872D01*
X106741224Y-59060872D02*
X106741307Y-59298967D01*
X106741307Y-59298967D02*
X106788959Y-59394189D01*
X106788959Y-59394189D02*
X106836595Y-59441791D01*
X107741042Y-58536714D02*
X107740810Y-57870048D01*
X107740810Y-57870048D02*
X106740959Y-58298967D01*
X106835915Y-57489410D02*
X106788280Y-57441808D01*
X106788280Y-57441808D02*
X106740677Y-57489443D01*
X106740677Y-57489443D02*
X106788313Y-57537046D01*
X106788313Y-57537046D02*
X106835915Y-57489410D01*
X106835915Y-57489410D02*
X106740677Y-57489443D01*
X107407029Y-56584450D02*
X106740362Y-56584682D01*
X107788064Y-56822413D02*
X107073861Y-57060756D01*
X107073861Y-57060756D02*
X107073646Y-56441709D01*
X107740014Y-55584334D02*
X107740180Y-56060524D01*
X107740180Y-56060524D02*
X107264006Y-56108309D01*
X107264006Y-56108309D02*
X107311608Y-56060674D01*
X107311608Y-56060674D02*
X107359194Y-55965419D01*
X107359194Y-55965419D02*
X107359111Y-55727324D01*
X107359111Y-55727324D02*
X107311459Y-55632102D01*
X107311459Y-55632102D02*
X107263824Y-55584500D01*
X107263824Y-55584500D02*
X107168569Y-55536914D01*
X107168569Y-55536914D02*
X106930474Y-55536997D01*
X106930474Y-55536997D02*
X106835252Y-55584649D01*
X106835252Y-55584649D02*
X106787650Y-55632285D01*
X106787650Y-55632285D02*
X106740064Y-55727539D01*
X106740064Y-55727539D02*
X106740147Y-55965634D01*
X106740147Y-55965634D02*
X106787799Y-56060856D01*
X106787799Y-56060856D02*
X106835435Y-56108458D01*
X106739583Y-54346587D02*
X107406250Y-54346355D01*
X107311012Y-54346388D02*
X107358614Y-54298752D01*
X107358614Y-54298752D02*
X107406200Y-54203497D01*
X107406200Y-54203497D02*
X107406150Y-54060640D01*
X107406150Y-54060640D02*
X107358498Y-53965419D01*
X107358498Y-53965419D02*
X107263243Y-53917833D01*
X107263243Y-53917833D02*
X106739434Y-53918015D01*
X107263243Y-53917833D02*
X107358465Y-53870181D01*
X107358465Y-53870181D02*
X107406051Y-53774926D01*
X107406051Y-53774926D02*
X107406001Y-53632069D01*
X107406001Y-53632069D02*
X107358349Y-53536847D01*
X107358349Y-53536847D02*
X107263094Y-53489261D01*
X107263094Y-53489261D02*
X106739285Y-53489444D01*
X106739119Y-53013254D02*
X107405786Y-53013022D01*
X107310548Y-53013055D02*
X107358150Y-52965419D01*
X107358150Y-52965419D02*
X107405736Y-52870164D01*
X107405736Y-52870164D02*
X107405686Y-52727307D01*
X107405686Y-52727307D02*
X107358034Y-52632086D01*
X107358034Y-52632086D02*
X107262779Y-52584500D01*
X107262779Y-52584500D02*
X106738970Y-52584682D01*
X107262779Y-52584500D02*
X107358001Y-52536848D01*
X107358001Y-52536848D02*
X107405587Y-52441593D01*
X107405587Y-52441593D02*
X107405537Y-52298736D01*
X107405537Y-52298736D02*
X107357885Y-52203514D01*
X107357885Y-52203514D02*
X107262630Y-52155929D01*
X107262630Y-52155929D02*
X106738821Y-52156111D01*
D13*
X109275000Y-84040174D02*
X108451080Y-84040461D01*
X109255000Y-26590174D02*
X108431080Y-26590461D01*
X109037500Y-84040257D02*
X109017500Y-26590257D01*
X109037500Y-84040257D02*
X109017500Y-26590257D01*
X109037500Y-84040257D02*
X108450687Y-82913957D01*
X109037500Y-84040257D02*
X109623529Y-82913549D01*
X109017500Y-26590257D02*
X109604313Y-27716557D01*
X109017500Y-26590257D02*
X108431471Y-27716965D01*
D15*
X73421189Y-29005990D02*
X73516427Y-28958371D01*
X73516427Y-28958371D02*
X73564046Y-28910752D01*
X73564046Y-28910752D02*
X73611665Y-28815514D01*
X73611665Y-28815514D02*
X73611665Y-28767895D01*
X73611665Y-28767895D02*
X73564046Y-28672657D01*
X73564046Y-28672657D02*
X73516427Y-28625038D01*
X73516427Y-28625038D02*
X73421189Y-28577419D01*
X73421189Y-28577419D02*
X73230713Y-28577419D01*
X73230713Y-28577419D02*
X73135475Y-28625038D01*
X73135475Y-28625038D02*
X73087856Y-28672657D01*
X73087856Y-28672657D02*
X73040237Y-28767895D01*
X73040237Y-28767895D02*
X73040237Y-28815514D01*
X73040237Y-28815514D02*
X73087856Y-28910752D01*
X73087856Y-28910752D02*
X73135475Y-28958371D01*
X73135475Y-28958371D02*
X73230713Y-29005990D01*
X73230713Y-29005990D02*
X73421189Y-29005990D01*
X73421189Y-29005990D02*
X73516427Y-29053609D01*
X73516427Y-29053609D02*
X73564046Y-29101228D01*
X73564046Y-29101228D02*
X73611665Y-29196466D01*
X73611665Y-29196466D02*
X73611665Y-29386942D01*
X73611665Y-29386942D02*
X73564046Y-29482180D01*
X73564046Y-29482180D02*
X73516427Y-29529800D01*
X73516427Y-29529800D02*
X73421189Y-29577419D01*
X73421189Y-29577419D02*
X73230713Y-29577419D01*
X73230713Y-29577419D02*
X73135475Y-29529800D01*
X73135475Y-29529800D02*
X73087856Y-29482180D01*
X73087856Y-29482180D02*
X73040237Y-29386942D01*
X73040237Y-29386942D02*
X73040237Y-29196466D01*
X73040237Y-29196466D02*
X73087856Y-29101228D01*
X73087856Y-29101228D02*
X73135475Y-29053609D01*
X73135475Y-29053609D02*
X73230713Y-29005990D01*
X72706903Y-28577419D02*
X72040237Y-28577419D01*
X72040237Y-28577419D02*
X72468808Y-29577419D01*
X71659284Y-29482180D02*
X71611665Y-29529800D01*
X71611665Y-29529800D02*
X71659284Y-29577419D01*
X71659284Y-29577419D02*
X71706903Y-29529800D01*
X71706903Y-29529800D02*
X71659284Y-29482180D01*
X71659284Y-29482180D02*
X71659284Y-29577419D01*
X71135475Y-29577419D02*
X70944999Y-29577419D01*
X70944999Y-29577419D02*
X70849761Y-29529800D01*
X70849761Y-29529800D02*
X70802142Y-29482180D01*
X70802142Y-29482180D02*
X70706904Y-29339323D01*
X70706904Y-29339323D02*
X70659285Y-29148847D01*
X70659285Y-29148847D02*
X70659285Y-28767895D01*
X70659285Y-28767895D02*
X70706904Y-28672657D01*
X70706904Y-28672657D02*
X70754523Y-28625038D01*
X70754523Y-28625038D02*
X70849761Y-28577419D01*
X70849761Y-28577419D02*
X71040237Y-28577419D01*
X71040237Y-28577419D02*
X71135475Y-28625038D01*
X71135475Y-28625038D02*
X71183094Y-28672657D01*
X71183094Y-28672657D02*
X71230713Y-28767895D01*
X71230713Y-28767895D02*
X71230713Y-29005990D01*
X71230713Y-29005990D02*
X71183094Y-29101228D01*
X71183094Y-29101228D02*
X71135475Y-29148847D01*
X71135475Y-29148847D02*
X71040237Y-29196466D01*
X71040237Y-29196466D02*
X70849761Y-29196466D01*
X70849761Y-29196466D02*
X70754523Y-29148847D01*
X70754523Y-29148847D02*
X70706904Y-29101228D01*
X70706904Y-29101228D02*
X70659285Y-29005990D01*
X69802142Y-28910752D02*
X69802142Y-29577419D01*
X70040237Y-28529800D02*
X70278332Y-29244085D01*
X70278332Y-29244085D02*
X69659285Y-29244085D01*
X68516427Y-29577419D02*
X68516427Y-28910752D01*
X68516427Y-29005990D02*
X68468808Y-28958371D01*
X68468808Y-28958371D02*
X68373570Y-28910752D01*
X68373570Y-28910752D02*
X68230713Y-28910752D01*
X68230713Y-28910752D02*
X68135475Y-28958371D01*
X68135475Y-28958371D02*
X68087856Y-29053609D01*
X68087856Y-29053609D02*
X68087856Y-29577419D01*
X68087856Y-29053609D02*
X68040237Y-28958371D01*
X68040237Y-28958371D02*
X67944999Y-28910752D01*
X67944999Y-28910752D02*
X67802142Y-28910752D01*
X67802142Y-28910752D02*
X67706903Y-28958371D01*
X67706903Y-28958371D02*
X67659284Y-29053609D01*
X67659284Y-29053609D02*
X67659284Y-29577419D01*
X67183094Y-29577419D02*
X67183094Y-28910752D01*
X67183094Y-29005990D02*
X67135475Y-28958371D01*
X67135475Y-28958371D02*
X67040237Y-28910752D01*
X67040237Y-28910752D02*
X66897380Y-28910752D01*
X66897380Y-28910752D02*
X66802142Y-28958371D01*
X66802142Y-28958371D02*
X66754523Y-29053609D01*
X66754523Y-29053609D02*
X66754523Y-29577419D01*
X66754523Y-29053609D02*
X66706904Y-28958371D01*
X66706904Y-28958371D02*
X66611666Y-28910752D01*
X66611666Y-28910752D02*
X66468809Y-28910752D01*
X66468809Y-28910752D02*
X66373570Y-28958371D01*
X66373570Y-28958371D02*
X66325951Y-29053609D01*
X66325951Y-29053609D02*
X66325951Y-29577419D01*
D13*
X21815000Y-27090000D02*
X21815000Y-27811420D01*
X109755000Y-27090000D02*
X109755000Y-27811420D01*
X21815000Y-27225000D02*
X109755000Y-27225000D01*
X21815000Y-27225000D02*
X109755000Y-27225000D01*
X21815000Y-27225000D02*
X22941504Y-26638579D01*
X21815000Y-27225000D02*
X22941504Y-27811421D01*
X109755000Y-27225000D02*
X108628496Y-27811421D01*
X109755000Y-27225000D02*
X108628496Y-26638579D01*
D15*
X55719523Y-90910752D02*
X55719523Y-91577419D01*
X55957618Y-90529800D02*
X56195713Y-91244085D01*
X56195713Y-91244085D02*
X55576666Y-91244085D01*
X56093332Y-107037419D02*
X55474285Y-107037419D01*
X55474285Y-107037419D02*
X55807618Y-107418371D01*
X55807618Y-107418371D02*
X55664761Y-107418371D01*
X55664761Y-107418371D02*
X55569523Y-107465990D01*
X55569523Y-107465990D02*
X55521904Y-107513609D01*
X55521904Y-107513609D02*
X55474285Y-107608847D01*
X55474285Y-107608847D02*
X55474285Y-107846942D01*
X55474285Y-107846942D02*
X55521904Y-107942180D01*
X55521904Y-107942180D02*
X55569523Y-107989800D01*
X55569523Y-107989800D02*
X55664761Y-108037419D01*
X55664761Y-108037419D02*
X55950475Y-108037419D01*
X55950475Y-108037419D02*
X56045713Y-107989800D01*
X56045713Y-107989800D02*
X56093332Y-107942180D01*
X94437419Y-61980714D02*
X94437419Y-61409286D01*
X94437419Y-61695000D02*
X93437419Y-61695000D01*
X93437419Y-61695000D02*
X93580276Y-61599762D01*
X93580276Y-61599762D02*
X93675514Y-61504524D01*
X93675514Y-61504524D02*
X93723133Y-61409286D01*
X104377419Y-49883095D02*
X104377419Y-49406905D01*
X104377419Y-49406905D02*
X104853609Y-49359286D01*
X104853609Y-49359286D02*
X104805990Y-49406905D01*
X104805990Y-49406905D02*
X104758371Y-49502143D01*
X104758371Y-49502143D02*
X104758371Y-49740238D01*
X104758371Y-49740238D02*
X104805990Y-49835476D01*
X104805990Y-49835476D02*
X104853609Y-49883095D01*
X104853609Y-49883095D02*
X104948847Y-49930714D01*
X104948847Y-49930714D02*
X105186942Y-49930714D01*
X105186942Y-49930714D02*
X105282180Y-49883095D01*
X105282180Y-49883095D02*
X105329800Y-49835476D01*
X105329800Y-49835476D02*
X105377419Y-49740238D01*
X105377419Y-49740238D02*
X105377419Y-49502143D01*
X105377419Y-49502143D02*
X105329800Y-49406905D01*
X105329800Y-49406905D02*
X105282180Y-49359286D01*
X36589285Y-98437419D02*
X37160713Y-98437419D01*
X36874999Y-98437419D02*
X36874999Y-97437419D01*
X36874999Y-97437419D02*
X36970237Y-97580276D01*
X36970237Y-97580276D02*
X37065475Y-97675514D01*
X37065475Y-97675514D02*
X37160713Y-97723133D01*
X86377419Y-49835476D02*
X86377419Y-49645000D01*
X86377419Y-49645000D02*
X86425038Y-49549762D01*
X86425038Y-49549762D02*
X86472657Y-49502143D01*
X86472657Y-49502143D02*
X86615514Y-49406905D01*
X86615514Y-49406905D02*
X86805990Y-49359286D01*
X86805990Y-49359286D02*
X87186942Y-49359286D01*
X87186942Y-49359286D02*
X87282180Y-49406905D01*
X87282180Y-49406905D02*
X87329800Y-49454524D01*
X87329800Y-49454524D02*
X87377419Y-49549762D01*
X87377419Y-49549762D02*
X87377419Y-49740238D01*
X87377419Y-49740238D02*
X87329800Y-49835476D01*
X87329800Y-49835476D02*
X87282180Y-49883095D01*
X87282180Y-49883095D02*
X87186942Y-49930714D01*
X87186942Y-49930714D02*
X86948847Y-49930714D01*
X86948847Y-49930714D02*
X86853609Y-49883095D01*
X86853609Y-49883095D02*
X86805990Y-49835476D01*
X86805990Y-49835476D02*
X86758371Y-49740238D01*
X86758371Y-49740238D02*
X86758371Y-49549762D01*
X86758371Y-49549762D02*
X86805990Y-49454524D01*
X86805990Y-49454524D02*
X86853609Y-49406905D01*
X86853609Y-49406905D02*
X86948847Y-49359286D01*
X99532657Y-61409286D02*
X99485038Y-61456905D01*
X99485038Y-61456905D02*
X99437419Y-61552143D01*
X99437419Y-61552143D02*
X99437419Y-61790238D01*
X99437419Y-61790238D02*
X99485038Y-61885476D01*
X99485038Y-61885476D02*
X99532657Y-61933095D01*
X99532657Y-61933095D02*
X99627895Y-61980714D01*
X99627895Y-61980714D02*
X99723133Y-61980714D01*
X99723133Y-61980714D02*
X99865990Y-61933095D01*
X99865990Y-61933095D02*
X100437419Y-61361667D01*
X100437419Y-61361667D02*
X100437419Y-61980714D01*
X37208332Y-109437419D02*
X36589285Y-109437419D01*
X36589285Y-109437419D02*
X36922618Y-109818371D01*
X36922618Y-109818371D02*
X36779761Y-109818371D01*
X36779761Y-109818371D02*
X36684523Y-109865990D01*
X36684523Y-109865990D02*
X36636904Y-109913609D01*
X36636904Y-109913609D02*
X36589285Y-110008847D01*
X36589285Y-110008847D02*
X36589285Y-110246942D01*
X36589285Y-110246942D02*
X36636904Y-110342180D01*
X36636904Y-110342180D02*
X36684523Y-110389800D01*
X36684523Y-110389800D02*
X36779761Y-110437419D01*
X36779761Y-110437419D02*
X37065475Y-110437419D01*
X37065475Y-110437419D02*
X37160713Y-110389800D01*
X37160713Y-110389800D02*
X37208332Y-110342180D01*
X98377419Y-49311667D02*
X98377419Y-49978333D01*
X98377419Y-49978333D02*
X99377419Y-49549762D01*
X37160713Y-103532657D02*
X37113094Y-103485038D01*
X37113094Y-103485038D02*
X37017856Y-103437419D01*
X37017856Y-103437419D02*
X36779761Y-103437419D01*
X36779761Y-103437419D02*
X36684523Y-103485038D01*
X36684523Y-103485038D02*
X36636904Y-103532657D01*
X36636904Y-103532657D02*
X36589285Y-103627895D01*
X36589285Y-103627895D02*
X36589285Y-103723133D01*
X36589285Y-103723133D02*
X36636904Y-103865990D01*
X36636904Y-103865990D02*
X37208332Y-104437419D01*
X37208332Y-104437419D02*
X36589285Y-104437419D01*
X87770752Y-61885476D02*
X88437419Y-61885476D01*
X87389800Y-61647381D02*
X88104085Y-61409286D01*
X88104085Y-61409286D02*
X88104085Y-62028333D01*
X39254285Y-91487419D02*
X39825713Y-91487419D01*
X39539999Y-91487419D02*
X39539999Y-90487419D01*
X39539999Y-90487419D02*
X39635237Y-90630276D01*
X39635237Y-90630276D02*
X39730475Y-90725514D01*
X39730475Y-90725514D02*
X39825713Y-90773133D01*
X105437419Y-61361667D02*
X105437419Y-61980714D01*
X105437419Y-61980714D02*
X105818371Y-61647381D01*
X105818371Y-61647381D02*
X105818371Y-61790238D01*
X105818371Y-61790238D02*
X105865990Y-61885476D01*
X105865990Y-61885476D02*
X105913609Y-61933095D01*
X105913609Y-61933095D02*
X106008847Y-61980714D01*
X106008847Y-61980714D02*
X106246942Y-61980714D01*
X106246942Y-61980714D02*
X106342180Y-61933095D01*
X106342180Y-61933095D02*
X106389800Y-61885476D01*
X106389800Y-61885476D02*
X106437419Y-61790238D01*
X106437419Y-61790238D02*
X106437419Y-61504524D01*
X106437419Y-61504524D02*
X106389800Y-61409286D01*
X106389800Y-61409286D02*
X106342180Y-61361667D01*
X39465713Y-107092657D02*
X39418094Y-107045038D01*
X39418094Y-107045038D02*
X39322856Y-106997419D01*
X39322856Y-106997419D02*
X39084761Y-106997419D01*
X39084761Y-106997419D02*
X38989523Y-107045038D01*
X38989523Y-107045038D02*
X38941904Y-107092657D01*
X38941904Y-107092657D02*
X38894285Y-107187895D01*
X38894285Y-107187895D02*
X38894285Y-107283133D01*
X38894285Y-107283133D02*
X38941904Y-107425990D01*
X38941904Y-107425990D02*
X39513332Y-107997419D01*
X39513332Y-107997419D02*
X38894285Y-107997419D01*
X36684523Y-91770752D02*
X36684523Y-92437419D01*
X36922618Y-91389800D02*
X37160713Y-92104085D01*
X37160713Y-92104085D02*
X36541666Y-92104085D01*
X92805990Y-49549762D02*
X92758371Y-49454524D01*
X92758371Y-49454524D02*
X92710752Y-49406905D01*
X92710752Y-49406905D02*
X92615514Y-49359286D01*
X92615514Y-49359286D02*
X92567895Y-49359286D01*
X92567895Y-49359286D02*
X92472657Y-49406905D01*
X92472657Y-49406905D02*
X92425038Y-49454524D01*
X92425038Y-49454524D02*
X92377419Y-49549762D01*
X92377419Y-49549762D02*
X92377419Y-49740238D01*
X92377419Y-49740238D02*
X92425038Y-49835476D01*
X92425038Y-49835476D02*
X92472657Y-49883095D01*
X92472657Y-49883095D02*
X92567895Y-49930714D01*
X92567895Y-49930714D02*
X92615514Y-49930714D01*
X92615514Y-49930714D02*
X92710752Y-49883095D01*
X92710752Y-49883095D02*
X92758371Y-49835476D01*
X92758371Y-49835476D02*
X92805990Y-49740238D01*
X92805990Y-49740238D02*
X92805990Y-49549762D01*
X92805990Y-49549762D02*
X92853609Y-49454524D01*
X92853609Y-49454524D02*
X92901228Y-49406905D01*
X92901228Y-49406905D02*
X92996466Y-49359286D01*
X92996466Y-49359286D02*
X93186942Y-49359286D01*
X93186942Y-49359286D02*
X93282180Y-49406905D01*
X93282180Y-49406905D02*
X93329800Y-49454524D01*
X93329800Y-49454524D02*
X93377419Y-49549762D01*
X93377419Y-49549762D02*
X93377419Y-49740238D01*
X93377419Y-49740238D02*
X93329800Y-49835476D01*
X93329800Y-49835476D02*
X93282180Y-49883095D01*
X93282180Y-49883095D02*
X93186942Y-49930714D01*
X93186942Y-49930714D02*
X92996466Y-49930714D01*
X92996466Y-49930714D02*
X92901228Y-49883095D01*
X92901228Y-49883095D02*
X92853609Y-49835476D01*
X92853609Y-49835476D02*
X92805990Y-49740238D01*
X47232615Y-33443966D02*
X46470711Y-33443966D01*
X41308806Y-34024919D02*
X41880234Y-34024919D01*
X41594520Y-34024919D02*
X41594520Y-33024919D01*
X41594520Y-33024919D02*
X41689758Y-33167776D01*
X41689758Y-33167776D02*
X41784996Y-33263014D01*
X41784996Y-33263014D02*
X41880234Y-33310633D01*
X40927853Y-33120157D02*
X40880234Y-33072538D01*
X40880234Y-33072538D02*
X40784996Y-33024919D01*
X40784996Y-33024919D02*
X40546901Y-33024919D01*
X40546901Y-33024919D02*
X40451663Y-33072538D01*
X40451663Y-33072538D02*
X40404044Y-33120157D01*
X40404044Y-33120157D02*
X40356425Y-33215395D01*
X40356425Y-33215395D02*
X40356425Y-33310633D01*
X40356425Y-33310633D02*
X40404044Y-33453490D01*
X40404044Y-33453490D02*
X40975472Y-34024919D01*
X40975472Y-34024919D02*
X40356425Y-34024919D01*
X40070710Y-33024919D02*
X39737377Y-34024919D01*
X39737377Y-34024919D02*
X39404044Y-33024919D01*
X38308805Y-34024919D02*
X38308805Y-33024919D01*
X37832615Y-34024919D02*
X37832615Y-33024919D01*
X37832615Y-33024919D02*
X37261187Y-34024919D01*
X37261187Y-34024919D02*
X37261187Y-33024919D01*
X32632615Y-74043966D02*
X31870711Y-74043966D01*
X32251663Y-74424919D02*
X32251663Y-73663014D01*
X32632615Y-33443966D02*
X31870711Y-33443966D01*
X32251663Y-33824919D02*
X32251663Y-33063014D01*
X41156425Y-73624919D02*
X41632615Y-73624919D01*
X41632615Y-73624919D02*
X41680234Y-74101109D01*
X41680234Y-74101109D02*
X41632615Y-74053490D01*
X41632615Y-74053490D02*
X41537377Y-74005871D01*
X41537377Y-74005871D02*
X41299282Y-74005871D01*
X41299282Y-74005871D02*
X41204044Y-74053490D01*
X41204044Y-74053490D02*
X41156425Y-74101109D01*
X41156425Y-74101109D02*
X41108806Y-74196347D01*
X41108806Y-74196347D02*
X41108806Y-74434442D01*
X41108806Y-74434442D02*
X41156425Y-74529680D01*
X41156425Y-74529680D02*
X41204044Y-74577300D01*
X41204044Y-74577300D02*
X41299282Y-74624919D01*
X41299282Y-74624919D02*
X41537377Y-74624919D01*
X41537377Y-74624919D02*
X41632615Y-74577300D01*
X41632615Y-74577300D02*
X41680234Y-74529680D01*
X40823091Y-73624919D02*
X40489758Y-74624919D01*
X40489758Y-74624919D02*
X40156425Y-73624919D01*
X38870710Y-73624919D02*
X38680234Y-73624919D01*
X38680234Y-73624919D02*
X38584996Y-73672538D01*
X38584996Y-73672538D02*
X38489758Y-73767776D01*
X38489758Y-73767776D02*
X38442139Y-73958252D01*
X38442139Y-73958252D02*
X38442139Y-74291585D01*
X38442139Y-74291585D02*
X38489758Y-74482061D01*
X38489758Y-74482061D02*
X38584996Y-74577300D01*
X38584996Y-74577300D02*
X38680234Y-74624919D01*
X38680234Y-74624919D02*
X38870710Y-74624919D01*
X38870710Y-74624919D02*
X38965948Y-74577300D01*
X38965948Y-74577300D02*
X39061186Y-74482061D01*
X39061186Y-74482061D02*
X39108805Y-74291585D01*
X39108805Y-74291585D02*
X39108805Y-73958252D01*
X39108805Y-73958252D02*
X39061186Y-73767776D01*
X39061186Y-73767776D02*
X38965948Y-73672538D01*
X38965948Y-73672538D02*
X38870710Y-73624919D01*
X38013567Y-73624919D02*
X38013567Y-74434442D01*
X38013567Y-74434442D02*
X37965948Y-74529680D01*
X37965948Y-74529680D02*
X37918329Y-74577300D01*
X37918329Y-74577300D02*
X37823091Y-74624919D01*
X37823091Y-74624919D02*
X37632615Y-74624919D01*
X37632615Y-74624919D02*
X37537377Y-74577300D01*
X37537377Y-74577300D02*
X37489758Y-74529680D01*
X37489758Y-74529680D02*
X37442139Y-74434442D01*
X37442139Y-74434442D02*
X37442139Y-73624919D01*
X37108805Y-73624919D02*
X36537377Y-73624919D01*
X36823091Y-74624919D02*
X36823091Y-73624919D01*
X47232615Y-74043966D02*
X46470711Y-74043966D01*
X56555000Y-89820000D02*
X70305000Y-89820000D01*
X56555000Y-94120000D02*
X70305000Y-94120000D01*
X70305000Y-94120000D02*
X70305000Y-89120000D01*
X70305000Y-89120000D02*
X56555000Y-89120000D01*
X56555000Y-89120000D02*
X56555000Y-94120000D01*
X56485000Y-106260000D02*
X70235000Y-106260000D01*
X56485000Y-110560000D02*
X70235000Y-110560000D01*
X70235000Y-110560000D02*
X70235000Y-105560000D01*
X70235000Y-105560000D02*
X56485000Y-105560000D01*
X56485000Y-105560000D02*
X56485000Y-110560000D01*
X91040000Y-76035000D02*
X91040000Y-62285000D01*
X95340000Y-76035000D02*
X90340000Y-76035000D01*
X90340000Y-76035000D02*
X90340000Y-62285000D01*
X90340000Y-62285000D02*
X95340000Y-62285000D01*
X95340000Y-62285000D02*
X95340000Y-76035000D01*
X106630000Y-35445000D02*
X106630000Y-49195000D01*
X102330000Y-35445000D02*
X107330000Y-35445000D01*
X107330000Y-35445000D02*
X107330000Y-49195000D01*
X107330000Y-49195000D02*
X102330000Y-49195000D01*
X102330000Y-49195000D02*
X102330000Y-35445000D01*
X22535000Y-95040000D02*
X36285000Y-95040000D01*
X22535000Y-99340000D02*
X36285000Y-99340000D01*
X36285000Y-99340000D02*
X36285000Y-94340000D01*
X36285000Y-94340000D02*
X22535000Y-94340000D01*
X22535000Y-94340000D02*
X22535000Y-99340000D01*
X88630000Y-35445000D02*
X88630000Y-49195000D01*
X84330000Y-35445000D02*
X89330000Y-35445000D01*
X89330000Y-35445000D02*
X89330000Y-49195000D01*
X89330000Y-49195000D02*
X84330000Y-49195000D01*
X84330000Y-49195000D02*
X84330000Y-35445000D01*
X97040000Y-76035000D02*
X97040000Y-62285000D01*
X101340000Y-76035000D02*
X96340000Y-76035000D01*
X96340000Y-76035000D02*
X96340000Y-62285000D01*
X96340000Y-62285000D02*
X101340000Y-62285000D01*
X101340000Y-62285000D02*
X101340000Y-76035000D01*
X22535000Y-107040000D02*
X36285000Y-107040000D01*
X22535000Y-111340000D02*
X36285000Y-111340000D01*
X36285000Y-111340000D02*
X36285000Y-106340000D01*
X36285000Y-106340000D02*
X22535000Y-106340000D01*
X22535000Y-106340000D02*
X22535000Y-111340000D01*
X100630000Y-35445000D02*
X100630000Y-49195000D01*
X96330000Y-35445000D02*
X101330000Y-35445000D01*
X101330000Y-35445000D02*
X101330000Y-49195000D01*
X101330000Y-49195000D02*
X96330000Y-49195000D01*
X96330000Y-49195000D02*
X96330000Y-35445000D01*
X22535000Y-101040000D02*
X36285000Y-101040000D01*
X22535000Y-105340000D02*
X36285000Y-105340000D01*
X36285000Y-105340000D02*
X36285000Y-100340000D01*
X36285000Y-100340000D02*
X22535000Y-100340000D01*
X22535000Y-100340000D02*
X22535000Y-105340000D01*
X85040000Y-76035000D02*
X85040000Y-62285000D01*
X89340000Y-76035000D02*
X84340000Y-76035000D01*
X84340000Y-76035000D02*
X84340000Y-62285000D01*
X84340000Y-62285000D02*
X89340000Y-62285000D01*
X89340000Y-62285000D02*
X89340000Y-76035000D01*
X40105000Y-89750000D02*
X53855000Y-89750000D01*
X40105000Y-94050000D02*
X53855000Y-94050000D01*
X53855000Y-94050000D02*
X53855000Y-89050000D01*
X53855000Y-89050000D02*
X40105000Y-89050000D01*
X40105000Y-89050000D02*
X40105000Y-94050000D01*
X103040000Y-76035000D02*
X103040000Y-62285000D01*
X107340000Y-76035000D02*
X102340000Y-76035000D01*
X102340000Y-76035000D02*
X102340000Y-62285000D01*
X102340000Y-62285000D02*
X107340000Y-62285000D01*
X107340000Y-62285000D02*
X107340000Y-76035000D01*
X40045000Y-106260000D02*
X53795000Y-106260000D01*
X40045000Y-110560000D02*
X53795000Y-110560000D01*
X53795000Y-110560000D02*
X53795000Y-105560000D01*
X53795000Y-105560000D02*
X40045000Y-105560000D01*
X40045000Y-105560000D02*
X40045000Y-110560000D01*
X22535000Y-89040000D02*
X36285000Y-89040000D01*
X22535000Y-93340000D02*
X36285000Y-93340000D01*
X36285000Y-93340000D02*
X36285000Y-88340000D01*
X36285000Y-88340000D02*
X22535000Y-88340000D01*
X22535000Y-88340000D02*
X22535000Y-93340000D01*
X94630000Y-35445000D02*
X94630000Y-49195000D01*
X90330000Y-35445000D02*
X95330000Y-35445000D01*
X95330000Y-35445000D02*
X95330000Y-49195000D01*
X95330000Y-49195000D02*
X90330000Y-49195000D01*
X90330000Y-49195000D02*
X90330000Y-35445000D01*
X49536500Y-32352500D02*
X29736500Y-32352500D01*
X29736500Y-32352500D02*
X29736500Y-75152500D01*
X29736500Y-75152500D02*
X49536500Y-75152500D01*
X49536500Y-75152500D02*
X49536500Y-32352500D01*
%LPC*%
D17*
X58355000Y-92320000D03*
D18*
X60895000Y-92320000D03*
X63435000Y-92320000D03*
X65975000Y-92320000D03*
D19*
X68515000Y-92320000D03*
D17*
X58285000Y-108760000D03*
D18*
X60825000Y-108760000D03*
X63365000Y-108760000D03*
X65905000Y-108760000D03*
D19*
X68445000Y-108760000D03*
D20*
X93540000Y-74235000D03*
D17*
X93540000Y-71695000D03*
D18*
X93540000Y-69155000D03*
X93540000Y-66615000D03*
D21*
X93540000Y-64075000D03*
D20*
X104130000Y-37245000D03*
D17*
X104130000Y-39785000D03*
D18*
X104130000Y-42325000D03*
X104130000Y-44865000D03*
D22*
X104130000Y-47405000D03*
D17*
X44017500Y-52615000D03*
D18*
X41477500Y-52615000D03*
X38937500Y-52615000D03*
X36397500Y-52615000D03*
D17*
X51037500Y-33355000D03*
D20*
X44027500Y-35155000D03*
D18*
X41487500Y-35155000D03*
X38947500Y-35155000D03*
X36407500Y-35155000D03*
X53577500Y-33355000D03*
D20*
X24335000Y-97540000D03*
D17*
X26875000Y-97540000D03*
D18*
X29415000Y-97540000D03*
X31955000Y-97540000D03*
D19*
X34495000Y-97540000D03*
D23*
X106802500Y-29292500D03*
D20*
X86130000Y-37245000D03*
D17*
X86130000Y-39785000D03*
D18*
X86130000Y-42325000D03*
X86130000Y-44865000D03*
D22*
X86130000Y-47405000D03*
D24*
X26645000Y-60557500D03*
D17*
X33882500Y-70942500D03*
D18*
X33882500Y-76022500D03*
D20*
X99540000Y-74235000D03*
D17*
X99540000Y-71695000D03*
D18*
X99540000Y-69155000D03*
X99540000Y-66615000D03*
D21*
X99540000Y-64075000D03*
D20*
X24335000Y-109540000D03*
D17*
X26875000Y-109540000D03*
D18*
X29415000Y-109540000D03*
X31955000Y-109540000D03*
D19*
X34495000Y-109540000D03*
X65992500Y-58322500D03*
X68532500Y-58322500D03*
D23*
X106912500Y-81792500D03*
D20*
X49290000Y-53750000D03*
D18*
X51830000Y-53750000D03*
D20*
X98130000Y-37245000D03*
D17*
X98130000Y-39785000D03*
D18*
X98130000Y-42325000D03*
X98130000Y-44865000D03*
D22*
X98130000Y-47405000D03*
D18*
X77535000Y-78750000D03*
X77535000Y-76210000D03*
D17*
X77535000Y-73670000D03*
D18*
X77535000Y-68590000D03*
X77535000Y-66050000D03*
X77535000Y-63510000D03*
D17*
X77535000Y-60970000D03*
D18*
X77535000Y-58430000D03*
X77535000Y-55890000D03*
X77535000Y-53350000D03*
X77535000Y-50810000D03*
D17*
X77535000Y-48270000D03*
D18*
X77535000Y-45730000D03*
X77535000Y-43190000D03*
X77535000Y-40650000D03*
X77535000Y-38110000D03*
D17*
X77535000Y-35570000D03*
D18*
X59755000Y-30490000D03*
X59755000Y-33030000D03*
D17*
X59755000Y-35570000D03*
D18*
X59755000Y-38110000D03*
X59755000Y-40650000D03*
X59755000Y-43190000D03*
X59755000Y-45730000D03*
D17*
X59755000Y-48270000D03*
D18*
X59755000Y-50810000D03*
X59755000Y-53350000D03*
X59755000Y-55890000D03*
X59755000Y-58430000D03*
D17*
X59755000Y-60970000D03*
D18*
X59755000Y-63510000D03*
X59755000Y-66050000D03*
X59755000Y-68590000D03*
X59755000Y-71130000D03*
D17*
X59755000Y-73670000D03*
D18*
X59755000Y-76210000D03*
X59755000Y-78750000D03*
D20*
X24335000Y-103540000D03*
D17*
X26875000Y-103540000D03*
D18*
X29415000Y-103540000D03*
X31955000Y-103540000D03*
D19*
X34495000Y-103540000D03*
D25*
X26702500Y-29992500D03*
D23*
X83212500Y-81792500D03*
D20*
X54972500Y-40782500D03*
X54972500Y-38242500D03*
D26*
X83212500Y-29292500D03*
D27*
X49290000Y-51110000D03*
D18*
X51830000Y-51110000D03*
D20*
X52072500Y-40830000D03*
D17*
X52072500Y-43370000D03*
D22*
X52072500Y-45910000D03*
D18*
X97067500Y-80207500D03*
X91987500Y-80207500D03*
X94527500Y-80207500D03*
X99607500Y-80207500D03*
D23*
X47212500Y-81792500D03*
D24*
X26682500Y-35692500D03*
X26650000Y-54910000D03*
D20*
X87540000Y-74235000D03*
D17*
X87540000Y-71695000D03*
D18*
X87540000Y-69155000D03*
X87540000Y-66615000D03*
D21*
X87540000Y-64075000D03*
D17*
X41905000Y-92250000D03*
D18*
X44445000Y-92250000D03*
X46985000Y-92250000D03*
X49525000Y-92250000D03*
D19*
X52065000Y-92250000D03*
X66012500Y-42982500D03*
X68552500Y-42982500D03*
D20*
X54985000Y-59462500D03*
D18*
X54985000Y-56922500D03*
D22*
X30637500Y-80030000D03*
X33177500Y-80030000D03*
D20*
X105540000Y-74235000D03*
D17*
X105540000Y-71695000D03*
D18*
X105540000Y-69155000D03*
X105540000Y-66615000D03*
D21*
X105540000Y-64075000D03*
D24*
X26662500Y-43612500D03*
D17*
X41845000Y-108760000D03*
D18*
X44385000Y-108760000D03*
X46925000Y-108760000D03*
X49465000Y-108760000D03*
D19*
X52005000Y-108760000D03*
D24*
X26630000Y-49247500D03*
D20*
X24335000Y-91540000D03*
D17*
X26875000Y-91540000D03*
D18*
X29415000Y-91540000D03*
X31955000Y-91540000D03*
D19*
X34495000Y-91540000D03*
D20*
X52097500Y-59375000D03*
D17*
X52097500Y-61915000D03*
D22*
X52097500Y-64455000D03*
D20*
X92130000Y-37245000D03*
D17*
X92130000Y-39785000D03*
D18*
X92130000Y-42325000D03*
X92130000Y-44865000D03*
D22*
X92130000Y-47405000D03*
D28*
X104207500Y-51805000D03*
X101667500Y-51805000D03*
X99127500Y-51805000D03*
X96587500Y-51805000D03*
X94047500Y-51805000D03*
X91507500Y-51805000D03*
D29*
X88967500Y-51805000D03*
X86427500Y-51805000D03*
D28*
X86427500Y-59425000D03*
X88967500Y-59425000D03*
X91507500Y-59425000D03*
X94047500Y-59425000D03*
X96587500Y-59425000D03*
X99127500Y-59425000D03*
X101667500Y-59425000D03*
X104207500Y-59425000D03*
D23*
X27212500Y-39692500D03*
D17*
X48572500Y-33372500D03*
D18*
X30792500Y-33372500D03*
D17*
X48572500Y-74012500D03*
D18*
X30792500Y-74012500D03*
%LPD*%
M02*
