%TF.GenerationSoftware,KiCad,Pcbnew,7.0.7*%
%TF.CreationDate,2024-05-29T00:50:22+03:00*%
%TF.ProjectId,pico-hd-mcu-v2,7069636f-2d68-4642-9d6d-63752d76322e,rev?*%
%TF.SameCoordinates,Original*%
%TF.FileFunction,Drillmap*%
%TF.FilePolarity,Positive*%
%FSLAX45Y45*%
G04 Gerber Fmt 4.5, Leading zero omitted, Abs format (unit mm)*
G04 Created by KiCad (PCBNEW 7.0.7) date 2024-05-29 00:50:22*
%MOMM*%
%LPD*%
G01*
G04 APERTURE LIST*
%ADD10C,0.200000*%
%ADD11C,0.050000*%
%ADD12C,0.100000*%
%ADD13C,0.150000*%
G04 APERTURE END LIST*
D10*
X10975500Y-8425000D02*
X9368000Y-8425000D01*
X9368000Y-11461000D01*
X2181500Y-11461000D01*
X2181500Y-2659000D01*
X10975500Y-2659000D01*
X10975500Y-8425000D01*
D11*
X7433000Y-9666000D02*
X7483000Y-9716000D01*
X7483000Y-9666000D02*
X7433000Y-9716000D01*
X7560000Y-9666000D02*
X7610000Y-9716000D01*
X7610000Y-9666000D02*
X7560000Y-9716000D01*
X7687000Y-9666000D02*
X7737000Y-9716000D01*
X7737000Y-9666000D02*
X7687000Y-9716000D01*
X8560000Y-9646000D02*
X8610000Y-9696000D01*
X8610000Y-9646000D02*
X8560000Y-9696000D01*
X8687000Y-9646000D02*
X8737000Y-9696000D01*
X8737000Y-9646000D02*
X8687000Y-9696000D01*
X8814000Y-9646000D02*
X8864000Y-9696000D01*
X8864000Y-9646000D02*
X8814000Y-9696000D01*
D12*
X4752500Y-10016000D02*
G75*
G03*
X4752500Y-10016000I-50000J0D01*
G01*
X2433500Y-9104000D02*
X2433500Y-9204000D01*
X2383500Y-9154000D02*
X2483500Y-9154000D01*
X2433500Y-9704000D02*
X2433500Y-9804000D01*
X2383500Y-9754000D02*
X2483500Y-9754000D01*
X2433500Y-10304000D02*
X2433500Y-10404000D01*
X2383500Y-10354000D02*
X2483500Y-10354000D01*
X2433500Y-10904000D02*
X2433500Y-11004000D01*
X2383500Y-10954000D02*
X2483500Y-10954000D01*
X2687500Y-9104000D02*
X2687500Y-9204000D01*
X2637500Y-9154000D02*
X2737500Y-9154000D01*
X2687500Y-9704000D02*
X2687500Y-9804000D01*
X2637500Y-9754000D02*
X2737500Y-9754000D01*
X2687500Y-10304000D02*
X2687500Y-10404000D01*
X2637500Y-10354000D02*
X2737500Y-10354000D01*
X2687500Y-10904000D02*
X2687500Y-11004000D01*
X2637500Y-10954000D02*
X2737500Y-10954000D01*
X2941500Y-9104000D02*
X2941500Y-9204000D01*
X2891500Y-9154000D02*
X2991500Y-9154000D01*
X2941500Y-9704000D02*
X2941500Y-9804000D01*
X2891500Y-9754000D02*
X2991500Y-9754000D01*
X2941500Y-10304000D02*
X2941500Y-10404000D01*
X2891500Y-10354000D02*
X2991500Y-10354000D01*
X2941500Y-10904000D02*
X2941500Y-11004000D01*
X2891500Y-10954000D02*
X2991500Y-10954000D01*
X3063750Y-7953000D02*
X3063750Y-8053000D01*
X3013750Y-8003000D02*
X3113750Y-8003000D01*
X3079250Y-3287250D02*
X3079250Y-3387250D01*
X3029250Y-3337250D02*
X3129250Y-3337250D01*
X3079250Y-7351250D02*
X3079250Y-7451250D01*
X3029250Y-7401250D02*
X3129250Y-7401250D01*
X3195500Y-9104000D02*
X3195500Y-9204000D01*
X3145500Y-9154000D02*
X3245500Y-9154000D01*
X3195500Y-9704000D02*
X3195500Y-9804000D01*
X3145500Y-9754000D02*
X3245500Y-9754000D01*
X3195500Y-10304000D02*
X3195500Y-10404000D01*
X3145500Y-10354000D02*
X3245500Y-10354000D01*
X3195500Y-10904000D02*
X3195500Y-11004000D01*
X3145500Y-10954000D02*
X3245500Y-10954000D01*
X3317750Y-7953000D02*
X3317750Y-8053000D01*
X3267750Y-8003000D02*
X3367750Y-8003000D01*
X3388250Y-7044250D02*
X3388250Y-7144250D01*
X3338250Y-7094250D02*
X3438250Y-7094250D01*
X3388250Y-7552250D02*
X3388250Y-7652250D01*
X3338250Y-7602250D02*
X3438250Y-7602250D01*
X3449500Y-9104000D02*
X3449500Y-9204000D01*
X3399500Y-9154000D02*
X3499500Y-9154000D01*
X3449500Y-9704000D02*
X3449500Y-9804000D01*
X3399500Y-9754000D02*
X3499500Y-9754000D01*
X3449500Y-10304000D02*
X3449500Y-10404000D01*
X3399500Y-10354000D02*
X3499500Y-10354000D01*
X3449500Y-10904000D02*
X3449500Y-11004000D01*
X3399500Y-10954000D02*
X3499500Y-10954000D01*
X3636500Y-3780750D02*
X3636500Y-3880750D01*
X3586500Y-3830750D02*
X3686500Y-3830750D01*
X3639750Y-5211500D02*
X3639750Y-5311500D01*
X3589750Y-5261500D02*
X3689750Y-5261500D01*
X3640750Y-3465500D02*
X3640750Y-3565500D01*
X3590750Y-3515500D02*
X3690750Y-3515500D01*
X3890500Y-3780750D02*
X3890500Y-3880750D01*
X3840500Y-3830750D02*
X3940500Y-3830750D01*
X3893750Y-5211500D02*
X3893750Y-5311500D01*
X3843750Y-5261500D02*
X3943750Y-5261500D01*
X3894750Y-3465500D02*
X3894750Y-3565500D01*
X3844750Y-3515500D02*
X3944750Y-3515500D01*
X4147750Y-5211500D02*
X4147750Y-5311500D01*
X4097750Y-5261500D02*
X4197750Y-5261500D01*
X4148750Y-3465500D02*
X4148750Y-3565500D01*
X4098750Y-3515500D02*
X4198750Y-3515500D01*
X4184500Y-10826000D02*
X4184500Y-10926000D01*
X4134500Y-10876000D02*
X4234500Y-10876000D01*
X4190500Y-9175000D02*
X4190500Y-9275000D01*
X4140500Y-9225000D02*
X4240500Y-9225000D01*
X4401750Y-5211500D02*
X4401750Y-5311500D01*
X4351750Y-5261500D02*
X4451750Y-5261500D01*
X4402750Y-3465500D02*
X4402750Y-3565500D01*
X4352750Y-3515500D02*
X4452750Y-3515500D01*
X4438500Y-10826000D02*
X4438500Y-10926000D01*
X4388500Y-10876000D02*
X4488500Y-10876000D01*
X4444500Y-9175000D02*
X4444500Y-9275000D01*
X4394500Y-9225000D02*
X4494500Y-9225000D01*
X4692500Y-10826000D02*
X4692500Y-10926000D01*
X4642500Y-10876000D02*
X4742500Y-10876000D01*
X4698500Y-9175000D02*
X4698500Y-9275000D01*
X4648500Y-9225000D02*
X4748500Y-9225000D01*
X4857250Y-3287250D02*
X4857250Y-3387250D01*
X4807250Y-3337250D02*
X4907250Y-3337250D01*
X4857250Y-7351250D02*
X4857250Y-7451250D01*
X4807250Y-7401250D02*
X4907250Y-7401250D01*
X4929000Y-5061000D02*
X4929000Y-5161000D01*
X4879000Y-5111000D02*
X4979000Y-5111000D01*
X4929000Y-5325000D02*
X4929000Y-5425000D01*
X4879000Y-5375000D02*
X4979000Y-5375000D01*
X4946500Y-10826000D02*
X4946500Y-10926000D01*
X4896500Y-10876000D02*
X4996500Y-10876000D01*
X4952500Y-9175000D02*
X4952500Y-9275000D01*
X4902500Y-9225000D02*
X5002500Y-9225000D01*
X5103750Y-3285500D02*
X5103750Y-3385500D01*
X5053750Y-3335500D02*
X5153750Y-3335500D01*
X5183000Y-5061000D02*
X5183000Y-5161000D01*
X5133000Y-5111000D02*
X5233000Y-5111000D01*
X5183000Y-5325000D02*
X5183000Y-5425000D01*
X5133000Y-5375000D02*
X5233000Y-5375000D01*
X5200500Y-10826000D02*
X5200500Y-10926000D01*
X5150500Y-10876000D02*
X5250500Y-10876000D01*
X5206500Y-9175000D02*
X5206500Y-9275000D01*
X5156500Y-9225000D02*
X5256500Y-9225000D01*
X5207250Y-4033000D02*
X5207250Y-4133000D01*
X5157250Y-4083000D02*
X5257250Y-4083000D01*
X5207250Y-4287000D02*
X5207250Y-4387000D01*
X5157250Y-4337000D02*
X5257250Y-4337000D01*
X5207250Y-4541000D02*
X5207250Y-4641000D01*
X5157250Y-4591000D02*
X5257250Y-4591000D01*
X5209750Y-5887500D02*
X5209750Y-5987500D01*
X5159750Y-5937500D02*
X5259750Y-5937500D01*
X5209750Y-6141500D02*
X5209750Y-6241500D01*
X5159750Y-6191500D02*
X5259750Y-6191500D01*
X5209750Y-6395500D02*
X5209750Y-6495500D01*
X5159750Y-6445500D02*
X5259750Y-6445500D01*
X5357750Y-3285500D02*
X5357750Y-3385500D01*
X5307750Y-3335500D02*
X5407750Y-3335500D01*
X5497250Y-3774250D02*
X5497250Y-3874250D01*
X5447250Y-3824250D02*
X5547250Y-3824250D01*
X5497250Y-4028250D02*
X5497250Y-4128250D01*
X5447250Y-4078250D02*
X5547250Y-4078250D01*
X5498500Y-5642250D02*
X5498500Y-5742250D01*
X5448500Y-5692250D02*
X5548500Y-5692250D01*
X5498500Y-5896250D02*
X5498500Y-5996250D01*
X5448500Y-5946250D02*
X5548500Y-5946250D01*
X5828500Y-10826000D02*
X5828500Y-10926000D01*
X5778500Y-10876000D02*
X5878500Y-10876000D01*
X5835500Y-9182000D02*
X5835500Y-9282000D01*
X5785500Y-9232000D02*
X5885500Y-9232000D01*
X5975500Y-2999000D02*
X5975500Y-3099000D01*
X5925500Y-3049000D02*
X6025500Y-3049000D01*
X5975500Y-3253000D02*
X5975500Y-3353000D01*
X5925500Y-3303000D02*
X6025500Y-3303000D01*
X5975500Y-3507000D02*
X5975500Y-3607000D01*
X5925500Y-3557000D02*
X6025500Y-3557000D01*
X5975500Y-3761000D02*
X5975500Y-3861000D01*
X5925500Y-3811000D02*
X6025500Y-3811000D01*
X5975500Y-4015000D02*
X5975500Y-4115000D01*
X5925500Y-4065000D02*
X6025500Y-4065000D01*
X5975500Y-4269000D02*
X5975500Y-4369000D01*
X5925500Y-4319000D02*
X6025500Y-4319000D01*
X5975500Y-4523000D02*
X5975500Y-4623000D01*
X5925500Y-4573000D02*
X6025500Y-4573000D01*
X5975500Y-4777000D02*
X5975500Y-4877000D01*
X5925500Y-4827000D02*
X6025500Y-4827000D01*
X5975500Y-5031000D02*
X5975500Y-5131000D01*
X5925500Y-5081000D02*
X6025500Y-5081000D01*
X5975500Y-5285000D02*
X5975500Y-5385000D01*
X5925500Y-5335000D02*
X6025500Y-5335000D01*
X5975500Y-5539000D02*
X5975500Y-5639000D01*
X5925500Y-5589000D02*
X6025500Y-5589000D01*
X5975500Y-5793000D02*
X5975500Y-5893000D01*
X5925500Y-5843000D02*
X6025500Y-5843000D01*
X5975500Y-6047000D02*
X5975500Y-6147000D01*
X5925500Y-6097000D02*
X6025500Y-6097000D01*
X5975500Y-6301000D02*
X5975500Y-6401000D01*
X5925500Y-6351000D02*
X6025500Y-6351000D01*
X5975500Y-6555000D02*
X5975500Y-6655000D01*
X5925500Y-6605000D02*
X6025500Y-6605000D01*
X5975500Y-6809000D02*
X5975500Y-6909000D01*
X5925500Y-6859000D02*
X6025500Y-6859000D01*
X5975500Y-7063000D02*
X5975500Y-7163000D01*
X5925500Y-7113000D02*
X6025500Y-7113000D01*
X5975500Y-7317000D02*
X5975500Y-7417000D01*
X5925500Y-7367000D02*
X6025500Y-7367000D01*
X5975500Y-7571000D02*
X5975500Y-7671000D01*
X5925500Y-7621000D02*
X6025500Y-7621000D01*
X5975500Y-7825000D02*
X5975500Y-7925000D01*
X5925500Y-7875000D02*
X6025500Y-7875000D01*
X6082500Y-10826000D02*
X6082500Y-10926000D01*
X6032500Y-10876000D02*
X6132500Y-10876000D01*
X6089500Y-9182000D02*
X6089500Y-9282000D01*
X6039500Y-9232000D02*
X6139500Y-9232000D01*
X6336500Y-10826000D02*
X6336500Y-10926000D01*
X6286500Y-10876000D02*
X6386500Y-10876000D01*
X6343500Y-9182000D02*
X6343500Y-9282000D01*
X6293500Y-9232000D02*
X6393500Y-9232000D01*
X6590500Y-10826000D02*
X6590500Y-10926000D01*
X6540500Y-10876000D02*
X6640500Y-10876000D01*
X6597500Y-9182000D02*
X6597500Y-9282000D01*
X6547500Y-9232000D02*
X6647500Y-9232000D01*
X6599250Y-5782250D02*
X6599250Y-5882250D01*
X6549250Y-5832250D02*
X6649250Y-5832250D01*
X6601250Y-4248250D02*
X6601250Y-4348250D01*
X6551250Y-4298250D02*
X6651250Y-4298250D01*
X6844500Y-10826000D02*
X6844500Y-10926000D01*
X6794500Y-10876000D02*
X6894500Y-10876000D01*
X6851500Y-9182000D02*
X6851500Y-9282000D01*
X6801500Y-9232000D02*
X6901500Y-9232000D01*
X6853250Y-5782250D02*
X6853250Y-5882250D01*
X6803250Y-5832250D02*
X6903250Y-5832250D01*
X6855250Y-4248250D02*
X6855250Y-4348250D01*
X6805250Y-4298250D02*
X6905250Y-4298250D01*
X7450000Y-9289000D02*
X7450000Y-9389000D01*
X7400000Y-9339000D02*
X7500000Y-9339000D01*
X7464000Y-10757000D02*
X7464000Y-10857000D01*
X7414000Y-10807000D02*
X7514000Y-10807000D01*
X7465000Y-9011000D02*
X7465000Y-9111000D01*
X7415000Y-9061000D02*
X7515000Y-9061000D01*
X7468000Y-10003000D02*
X7468000Y-10103000D01*
X7418000Y-10053000D02*
X7518000Y-10053000D01*
X7479000Y-10437000D02*
X7479000Y-10537000D01*
X7429000Y-10487000D02*
X7529000Y-10487000D01*
X7704000Y-9289000D02*
X7704000Y-9389000D01*
X7654000Y-9339000D02*
X7754000Y-9339000D01*
X7718000Y-10757000D02*
X7718000Y-10857000D01*
X7668000Y-10807000D02*
X7768000Y-10807000D01*
X7719000Y-9011000D02*
X7719000Y-9111000D01*
X7669000Y-9061000D02*
X7769000Y-9061000D01*
X7722000Y-10003000D02*
X7722000Y-10103000D01*
X7672000Y-10053000D02*
X7772000Y-10053000D01*
X7733000Y-10437000D02*
X7733000Y-10537000D01*
X7683000Y-10487000D02*
X7783000Y-10487000D01*
X7753500Y-3507000D02*
X7753500Y-3607000D01*
X7703500Y-3557000D02*
X7803500Y-3557000D01*
X7753500Y-3761000D02*
X7753500Y-3861000D01*
X7703500Y-3811000D02*
X7803500Y-3811000D01*
X7753500Y-4015000D02*
X7753500Y-4115000D01*
X7703500Y-4065000D02*
X7803500Y-4065000D01*
X7753500Y-4269000D02*
X7753500Y-4369000D01*
X7703500Y-4319000D02*
X7803500Y-4319000D01*
X7753500Y-4523000D02*
X7753500Y-4623000D01*
X7703500Y-4573000D02*
X7803500Y-4573000D01*
X7753500Y-4777000D02*
X7753500Y-4877000D01*
X7703500Y-4827000D02*
X7803500Y-4827000D01*
X7753500Y-5031000D02*
X7753500Y-5131000D01*
X7703500Y-5081000D02*
X7803500Y-5081000D01*
X7753500Y-5285000D02*
X7753500Y-5385000D01*
X7703500Y-5335000D02*
X7803500Y-5335000D01*
X7753500Y-5539000D02*
X7753500Y-5639000D01*
X7703500Y-5589000D02*
X7803500Y-5589000D01*
X7753500Y-5793000D02*
X7753500Y-5893000D01*
X7703500Y-5843000D02*
X7803500Y-5843000D01*
X7753500Y-6047000D02*
X7753500Y-6147000D01*
X7703500Y-6097000D02*
X7803500Y-6097000D01*
X7753500Y-6301000D02*
X7753500Y-6401000D01*
X7703500Y-6351000D02*
X7803500Y-6351000D01*
X7753500Y-6555000D02*
X7753500Y-6655000D01*
X7703500Y-6605000D02*
X7803500Y-6605000D01*
X7753500Y-6809000D02*
X7753500Y-6909000D01*
X7703500Y-6859000D02*
X7803500Y-6859000D01*
X7753500Y-7317000D02*
X7753500Y-7417000D01*
X7703500Y-7367000D02*
X7803500Y-7367000D01*
X7753500Y-7571000D02*
X7753500Y-7671000D01*
X7703500Y-7621000D02*
X7803500Y-7621000D01*
X7753500Y-7825000D02*
X7753500Y-7925000D01*
X7703500Y-7875000D02*
X7803500Y-7875000D01*
X7972000Y-10757000D02*
X7972000Y-10857000D01*
X7922000Y-10807000D02*
X8022000Y-10807000D01*
X7973000Y-9011000D02*
X7973000Y-9111000D01*
X7923000Y-9061000D02*
X8023000Y-9061000D01*
X7987000Y-10437000D02*
X7987000Y-10537000D01*
X7937000Y-10487000D02*
X8037000Y-10487000D01*
X8226000Y-10757000D02*
X8226000Y-10857000D01*
X8176000Y-10807000D02*
X8276000Y-10807000D01*
X8227000Y-9011000D02*
X8227000Y-9111000D01*
X8177000Y-9061000D02*
X8277000Y-9061000D01*
X8447000Y-9289000D02*
X8447000Y-9389000D01*
X8397000Y-9339000D02*
X8497000Y-9339000D01*
X8592000Y-10438000D02*
X8592000Y-10538000D01*
X8542000Y-10488000D02*
X8642000Y-10488000D01*
X8593000Y-10000000D02*
X8593000Y-10100000D01*
X8543000Y-10050000D02*
X8643000Y-10050000D01*
X8613000Y-3674500D02*
X8613000Y-3774500D01*
X8563000Y-3724500D02*
X8663000Y-3724500D01*
X8613000Y-3928500D02*
X8613000Y-4028500D01*
X8563000Y-3978500D02*
X8663000Y-3978500D01*
X8613000Y-4182500D02*
X8613000Y-4282500D01*
X8563000Y-4232500D02*
X8663000Y-4232500D01*
X8613000Y-4436500D02*
X8613000Y-4536500D01*
X8563000Y-4486500D02*
X8663000Y-4486500D01*
X8613000Y-4690500D02*
X8613000Y-4790500D01*
X8563000Y-4740500D02*
X8663000Y-4740500D01*
X8642750Y-5130500D02*
X8642750Y-5230500D01*
X8592750Y-5180500D02*
X8692750Y-5180500D01*
X8642750Y-5892500D02*
X8642750Y-5992500D01*
X8592750Y-5942500D02*
X8692750Y-5942500D01*
X8701000Y-9289000D02*
X8701000Y-9389000D01*
X8651000Y-9339000D02*
X8751000Y-9339000D01*
X8754000Y-6357500D02*
X8754000Y-6457500D01*
X8704000Y-6407500D02*
X8804000Y-6407500D01*
X8754000Y-6611500D02*
X8754000Y-6711500D01*
X8704000Y-6661500D02*
X8804000Y-6661500D01*
X8754000Y-6865500D02*
X8754000Y-6965500D01*
X8704000Y-6915500D02*
X8804000Y-6915500D01*
X8754000Y-7119500D02*
X8754000Y-7219500D01*
X8704000Y-7169500D02*
X8804000Y-7169500D01*
X8754000Y-7373500D02*
X8754000Y-7473500D01*
X8704000Y-7423500D02*
X8804000Y-7423500D01*
X8846000Y-10438000D02*
X8846000Y-10538000D01*
X8796000Y-10488000D02*
X8896000Y-10488000D01*
X8847000Y-10000000D02*
X8847000Y-10100000D01*
X8797000Y-10050000D02*
X8897000Y-10050000D01*
X8896750Y-5130500D02*
X8896750Y-5230500D01*
X8846750Y-5180500D02*
X8946750Y-5180500D01*
X8896750Y-5892500D02*
X8896750Y-5992500D01*
X8846750Y-5942500D02*
X8946750Y-5942500D01*
X8928000Y-8831000D02*
X8928000Y-8931000D01*
X8878000Y-8881000D02*
X8978000Y-8881000D01*
X9100000Y-10438000D02*
X9100000Y-10538000D01*
X9050000Y-10488000D02*
X9150000Y-10488000D01*
X9150750Y-5130500D02*
X9150750Y-5230500D01*
X9100750Y-5180500D02*
X9200750Y-5180500D01*
X9150750Y-5892500D02*
X9150750Y-5992500D01*
X9100750Y-5942500D02*
X9200750Y-5942500D01*
X9182000Y-8831000D02*
X9182000Y-8931000D01*
X9132000Y-8881000D02*
X9232000Y-8881000D01*
X9198750Y-7970750D02*
X9198750Y-8070750D01*
X9148750Y-8020750D02*
X9248750Y-8020750D01*
X9213000Y-3674500D02*
X9213000Y-3774500D01*
X9163000Y-3724500D02*
X9263000Y-3724500D01*
X9213000Y-3928500D02*
X9213000Y-4028500D01*
X9163000Y-3978500D02*
X9263000Y-3978500D01*
X9213000Y-4182500D02*
X9213000Y-4282500D01*
X9163000Y-4232500D02*
X9263000Y-4232500D01*
X9213000Y-4436500D02*
X9213000Y-4536500D01*
X9163000Y-4486500D02*
X9263000Y-4486500D01*
X9213000Y-4690500D02*
X9213000Y-4790500D01*
X9163000Y-4740500D02*
X9263000Y-4740500D01*
X9354000Y-6357500D02*
X9354000Y-6457500D01*
X9304000Y-6407500D02*
X9404000Y-6407500D01*
X9354000Y-6611500D02*
X9354000Y-6711500D01*
X9304000Y-6661500D02*
X9404000Y-6661500D01*
X9354000Y-6865500D02*
X9354000Y-6965500D01*
X9304000Y-6915500D02*
X9404000Y-6915500D01*
X9354000Y-7119500D02*
X9354000Y-7219500D01*
X9304000Y-7169500D02*
X9404000Y-7169500D01*
X9354000Y-7373500D02*
X9354000Y-7473500D01*
X9304000Y-7423500D02*
X9404000Y-7423500D01*
X9404750Y-5130500D02*
X9404750Y-5230500D01*
X9354750Y-5180500D02*
X9454750Y-5180500D01*
X9404750Y-5892500D02*
X9404750Y-5992500D01*
X9354750Y-5942500D02*
X9454750Y-5942500D01*
X9452750Y-7970750D02*
X9452750Y-8070750D01*
X9402750Y-8020750D02*
X9502750Y-8020750D01*
X9658750Y-5130500D02*
X9658750Y-5230500D01*
X9608750Y-5180500D02*
X9708750Y-5180500D01*
X9658750Y-5892500D02*
X9658750Y-5992500D01*
X9608750Y-5942500D02*
X9708750Y-5942500D01*
X9706750Y-7970750D02*
X9706750Y-8070750D01*
X9656750Y-8020750D02*
X9756750Y-8020750D01*
X9813000Y-3674500D02*
X9813000Y-3774500D01*
X9763000Y-3724500D02*
X9863000Y-3724500D01*
X9813000Y-3928500D02*
X9813000Y-4028500D01*
X9763000Y-3978500D02*
X9863000Y-3978500D01*
X9813000Y-4182500D02*
X9813000Y-4282500D01*
X9763000Y-4232500D02*
X9863000Y-4232500D01*
X9813000Y-4436500D02*
X9813000Y-4536500D01*
X9763000Y-4486500D02*
X9863000Y-4486500D01*
X9813000Y-4690500D02*
X9813000Y-4790500D01*
X9763000Y-4740500D02*
X9863000Y-4740500D01*
X9912750Y-5130500D02*
X9912750Y-5230500D01*
X9862750Y-5180500D02*
X9962750Y-5180500D01*
X9912750Y-5892500D02*
X9912750Y-5992500D01*
X9862750Y-5942500D02*
X9962750Y-5942500D01*
X9954000Y-6357500D02*
X9954000Y-6457500D01*
X9904000Y-6407500D02*
X10004000Y-6407500D01*
X9954000Y-6611500D02*
X9954000Y-6711500D01*
X9904000Y-6661500D02*
X10004000Y-6661500D01*
X9954000Y-6865500D02*
X9954000Y-6965500D01*
X9904000Y-6915500D02*
X10004000Y-6915500D01*
X9954000Y-7119500D02*
X9954000Y-7219500D01*
X9904000Y-7169500D02*
X10004000Y-7169500D01*
X9954000Y-7373500D02*
X9954000Y-7473500D01*
X9904000Y-7423500D02*
X10004000Y-7423500D01*
X9960750Y-7970750D02*
X9960750Y-8070750D01*
X9910750Y-8020750D02*
X10010750Y-8020750D01*
X10166750Y-5130500D02*
X10166750Y-5230500D01*
X10116750Y-5180500D02*
X10216750Y-5180500D01*
X10166750Y-5892500D02*
X10166750Y-5992500D01*
X10116750Y-5942500D02*
X10216750Y-5942500D01*
X10413000Y-3674500D02*
X10413000Y-3774500D01*
X10363000Y-3724500D02*
X10463000Y-3724500D01*
X10413000Y-3928500D02*
X10413000Y-4028500D01*
X10363000Y-3978500D02*
X10463000Y-3978500D01*
X10413000Y-4182500D02*
X10413000Y-4282500D01*
X10363000Y-4232500D02*
X10463000Y-4232500D01*
X10413000Y-4436500D02*
X10413000Y-4536500D01*
X10363000Y-4486500D02*
X10463000Y-4486500D01*
X10413000Y-4690500D02*
X10413000Y-4790500D01*
X10363000Y-4740500D02*
X10463000Y-4740500D01*
X10420750Y-5130500D02*
X10420750Y-5230500D01*
X10370750Y-5180500D02*
X10470750Y-5180500D01*
X10420750Y-5892500D02*
X10420750Y-5992500D01*
X10370750Y-5942500D02*
X10470750Y-5942500D01*
X10554000Y-6357500D02*
X10554000Y-6457500D01*
X10504000Y-6407500D02*
X10604000Y-6407500D01*
X10554000Y-6611500D02*
X10554000Y-6711500D01*
X10504000Y-6661500D02*
X10604000Y-6661500D01*
X10554000Y-6865500D02*
X10554000Y-6965500D01*
X10504000Y-6915500D02*
X10604000Y-6915500D01*
X10554000Y-7119500D02*
X10554000Y-7219500D01*
X10504000Y-7169500D02*
X10604000Y-7169500D01*
X10554000Y-7373500D02*
X10554000Y-7473500D01*
X10504000Y-7423500D02*
X10604000Y-7423500D01*
D13*
X2716034Y-4977784D02*
X2716034Y-4871717D01*
X2609967Y-4871717D01*
X2609967Y-4977784D01*
X2716034Y-4977784D01*
X2717534Y-6108783D02*
X2717534Y-6002716D01*
X2611467Y-6002716D01*
X2611467Y-6108783D01*
X2717534Y-6108783D01*
X2718034Y-5544034D02*
X2718034Y-5437967D01*
X2611967Y-5437967D01*
X2611967Y-5544034D01*
X2718034Y-5544034D01*
X2719284Y-4414284D02*
X2719284Y-4308217D01*
X2613217Y-4308217D01*
X2613217Y-4414284D01*
X2719284Y-4414284D01*
X2721284Y-3622283D02*
X2721284Y-3516216D01*
X2615217Y-3516216D01*
X2615217Y-3622283D01*
X2721284Y-3622283D01*
X2723284Y-3052283D02*
X2723284Y-2946216D01*
X2617217Y-2946216D01*
X2617217Y-3052283D01*
X2723284Y-3052283D01*
D10*
X2721250Y-4069250D02*
X2821250Y-3969250D01*
X2721250Y-3869250D01*
X2621250Y-3969250D01*
X2721250Y-4069250D01*
X4721250Y-8279250D02*
X4821250Y-8179250D01*
X4721250Y-8079250D01*
X4621250Y-8179250D01*
X4721250Y-8279250D01*
X8321250Y-3029250D02*
X8421250Y-2929250D01*
X8321250Y-2829250D01*
X8221250Y-2929250D01*
X8321250Y-3029250D01*
X8321250Y-8279250D02*
X8421250Y-8179250D01*
X8321250Y-8079250D01*
X8221250Y-8179250D01*
X8321250Y-8279250D01*
X10680250Y-3029250D02*
X10780250Y-2929250D01*
X10680250Y-2829250D01*
X10580250Y-2929250D01*
X10680250Y-3029250D01*
X10691250Y-8279250D02*
X10791250Y-8179250D01*
X10691250Y-8079250D01*
X10591250Y-8179250D01*
X10691250Y-8279250D01*
X2432277Y-11782484D02*
X2432277Y-11582484D01*
X2432277Y-11582484D02*
X2479896Y-11582484D01*
X2479896Y-11582484D02*
X2508467Y-11592008D01*
X2508467Y-11592008D02*
X2527515Y-11611055D01*
X2527515Y-11611055D02*
X2537039Y-11630103D01*
X2537039Y-11630103D02*
X2546563Y-11668198D01*
X2546563Y-11668198D02*
X2546563Y-11696769D01*
X2546563Y-11696769D02*
X2537039Y-11734865D01*
X2537039Y-11734865D02*
X2527515Y-11753912D01*
X2527515Y-11753912D02*
X2508467Y-11772960D01*
X2508467Y-11772960D02*
X2479896Y-11782484D01*
X2479896Y-11782484D02*
X2432277Y-11782484D01*
X2632277Y-11782484D02*
X2632277Y-11649150D01*
X2632277Y-11687246D02*
X2641801Y-11668198D01*
X2641801Y-11668198D02*
X2651324Y-11658674D01*
X2651324Y-11658674D02*
X2670372Y-11649150D01*
X2670372Y-11649150D02*
X2689420Y-11649150D01*
X2756086Y-11782484D02*
X2756086Y-11649150D01*
X2756086Y-11582484D02*
X2746563Y-11592008D01*
X2746563Y-11592008D02*
X2756086Y-11601531D01*
X2756086Y-11601531D02*
X2765610Y-11592008D01*
X2765610Y-11592008D02*
X2756086Y-11582484D01*
X2756086Y-11582484D02*
X2756086Y-11601531D01*
X2879896Y-11782484D02*
X2860848Y-11772960D01*
X2860848Y-11772960D02*
X2851324Y-11753912D01*
X2851324Y-11753912D02*
X2851324Y-11582484D01*
X2984658Y-11782484D02*
X2965610Y-11772960D01*
X2965610Y-11772960D02*
X2956086Y-11753912D01*
X2956086Y-11753912D02*
X2956086Y-11582484D01*
X3213229Y-11782484D02*
X3213229Y-11582484D01*
X3213229Y-11582484D02*
X3279896Y-11725341D01*
X3279896Y-11725341D02*
X3346562Y-11582484D01*
X3346562Y-11582484D02*
X3346562Y-11782484D01*
X3527515Y-11782484D02*
X3527515Y-11677722D01*
X3527515Y-11677722D02*
X3517991Y-11658674D01*
X3517991Y-11658674D02*
X3498943Y-11649150D01*
X3498943Y-11649150D02*
X3460848Y-11649150D01*
X3460848Y-11649150D02*
X3441801Y-11658674D01*
X3527515Y-11772960D02*
X3508467Y-11782484D01*
X3508467Y-11782484D02*
X3460848Y-11782484D01*
X3460848Y-11782484D02*
X3441801Y-11772960D01*
X3441801Y-11772960D02*
X3432277Y-11753912D01*
X3432277Y-11753912D02*
X3432277Y-11734865D01*
X3432277Y-11734865D02*
X3441801Y-11715817D01*
X3441801Y-11715817D02*
X3460848Y-11706293D01*
X3460848Y-11706293D02*
X3508467Y-11706293D01*
X3508467Y-11706293D02*
X3527515Y-11696769D01*
X3622753Y-11649150D02*
X3622753Y-11849150D01*
X3622753Y-11658674D02*
X3641801Y-11649150D01*
X3641801Y-11649150D02*
X3679896Y-11649150D01*
X3679896Y-11649150D02*
X3698943Y-11658674D01*
X3698943Y-11658674D02*
X3708467Y-11668198D01*
X3708467Y-11668198D02*
X3717991Y-11687246D01*
X3717991Y-11687246D02*
X3717991Y-11744388D01*
X3717991Y-11744388D02*
X3708467Y-11763436D01*
X3708467Y-11763436D02*
X3698943Y-11772960D01*
X3698943Y-11772960D02*
X3679896Y-11782484D01*
X3679896Y-11782484D02*
X3641801Y-11782484D01*
X3641801Y-11782484D02*
X3622753Y-11772960D01*
X3803705Y-11763436D02*
X3813229Y-11772960D01*
X3813229Y-11772960D02*
X3803705Y-11782484D01*
X3803705Y-11782484D02*
X3794182Y-11772960D01*
X3794182Y-11772960D02*
X3803705Y-11763436D01*
X3803705Y-11763436D02*
X3803705Y-11782484D01*
X3803705Y-11658674D02*
X3813229Y-11668198D01*
X3813229Y-11668198D02*
X3803705Y-11677722D01*
X3803705Y-11677722D02*
X3794182Y-11668198D01*
X3794182Y-11668198D02*
X3803705Y-11658674D01*
X3803705Y-11658674D02*
X3803705Y-11677722D01*
D11*
X2121500Y-12086000D02*
X2171500Y-12136000D01*
X2171500Y-12086000D02*
X2121500Y-12136000D01*
D10*
X2470372Y-12002484D02*
X2489420Y-12002484D01*
X2489420Y-12002484D02*
X2508467Y-12012008D01*
X2508467Y-12012008D02*
X2517991Y-12021531D01*
X2517991Y-12021531D02*
X2527515Y-12040579D01*
X2527515Y-12040579D02*
X2537039Y-12078674D01*
X2537039Y-12078674D02*
X2537039Y-12126293D01*
X2537039Y-12126293D02*
X2527515Y-12164388D01*
X2527515Y-12164388D02*
X2517991Y-12183436D01*
X2517991Y-12183436D02*
X2508467Y-12192960D01*
X2508467Y-12192960D02*
X2489420Y-12202484D01*
X2489420Y-12202484D02*
X2470372Y-12202484D01*
X2470372Y-12202484D02*
X2451324Y-12192960D01*
X2451324Y-12192960D02*
X2441801Y-12183436D01*
X2441801Y-12183436D02*
X2432277Y-12164388D01*
X2432277Y-12164388D02*
X2422753Y-12126293D01*
X2422753Y-12126293D02*
X2422753Y-12078674D01*
X2422753Y-12078674D02*
X2432277Y-12040579D01*
X2432277Y-12040579D02*
X2441801Y-12021531D01*
X2441801Y-12021531D02*
X2451324Y-12012008D01*
X2451324Y-12012008D02*
X2470372Y-12002484D01*
X2622753Y-12183436D02*
X2632277Y-12192960D01*
X2632277Y-12192960D02*
X2622753Y-12202484D01*
X2622753Y-12202484D02*
X2613229Y-12192960D01*
X2613229Y-12192960D02*
X2622753Y-12183436D01*
X2622753Y-12183436D02*
X2622753Y-12202484D01*
X2813229Y-12002484D02*
X2717991Y-12002484D01*
X2717991Y-12002484D02*
X2708467Y-12097722D01*
X2708467Y-12097722D02*
X2717991Y-12088198D01*
X2717991Y-12088198D02*
X2737039Y-12078674D01*
X2737039Y-12078674D02*
X2784658Y-12078674D01*
X2784658Y-12078674D02*
X2803705Y-12088198D01*
X2803705Y-12088198D02*
X2813229Y-12097722D01*
X2813229Y-12097722D02*
X2822753Y-12116769D01*
X2822753Y-12116769D02*
X2822753Y-12164388D01*
X2822753Y-12164388D02*
X2813229Y-12183436D01*
X2813229Y-12183436D02*
X2803705Y-12192960D01*
X2803705Y-12192960D02*
X2784658Y-12202484D01*
X2784658Y-12202484D02*
X2737039Y-12202484D01*
X2737039Y-12202484D02*
X2717991Y-12192960D01*
X2717991Y-12192960D02*
X2708467Y-12183436D01*
X2946562Y-12002484D02*
X2965610Y-12002484D01*
X2965610Y-12002484D02*
X2984658Y-12012008D01*
X2984658Y-12012008D02*
X2994182Y-12021531D01*
X2994182Y-12021531D02*
X3003705Y-12040579D01*
X3003705Y-12040579D02*
X3013229Y-12078674D01*
X3013229Y-12078674D02*
X3013229Y-12126293D01*
X3013229Y-12126293D02*
X3003705Y-12164388D01*
X3003705Y-12164388D02*
X2994182Y-12183436D01*
X2994182Y-12183436D02*
X2984658Y-12192960D01*
X2984658Y-12192960D02*
X2965610Y-12202484D01*
X2965610Y-12202484D02*
X2946562Y-12202484D01*
X2946562Y-12202484D02*
X2927515Y-12192960D01*
X2927515Y-12192960D02*
X2917991Y-12183436D01*
X2917991Y-12183436D02*
X2908467Y-12164388D01*
X2908467Y-12164388D02*
X2898943Y-12126293D01*
X2898943Y-12126293D02*
X2898943Y-12078674D01*
X2898943Y-12078674D02*
X2908467Y-12040579D01*
X2908467Y-12040579D02*
X2917991Y-12021531D01*
X2917991Y-12021531D02*
X2927515Y-12012008D01*
X2927515Y-12012008D02*
X2946562Y-12002484D01*
X3137039Y-12002484D02*
X3156086Y-12002484D01*
X3156086Y-12002484D02*
X3175134Y-12012008D01*
X3175134Y-12012008D02*
X3184658Y-12021531D01*
X3184658Y-12021531D02*
X3194182Y-12040579D01*
X3194182Y-12040579D02*
X3203705Y-12078674D01*
X3203705Y-12078674D02*
X3203705Y-12126293D01*
X3203705Y-12126293D02*
X3194182Y-12164388D01*
X3194182Y-12164388D02*
X3184658Y-12183436D01*
X3184658Y-12183436D02*
X3175134Y-12192960D01*
X3175134Y-12192960D02*
X3156086Y-12202484D01*
X3156086Y-12202484D02*
X3137039Y-12202484D01*
X3137039Y-12202484D02*
X3117991Y-12192960D01*
X3117991Y-12192960D02*
X3108467Y-12183436D01*
X3108467Y-12183436D02*
X3098943Y-12164388D01*
X3098943Y-12164388D02*
X3089420Y-12126293D01*
X3089420Y-12126293D02*
X3089420Y-12078674D01*
X3089420Y-12078674D02*
X3098943Y-12040579D01*
X3098943Y-12040579D02*
X3108467Y-12021531D01*
X3108467Y-12021531D02*
X3117991Y-12012008D01*
X3117991Y-12012008D02*
X3137039Y-12002484D01*
X3289420Y-12202484D02*
X3289420Y-12069150D01*
X3289420Y-12088198D02*
X3298943Y-12078674D01*
X3298943Y-12078674D02*
X3317991Y-12069150D01*
X3317991Y-12069150D02*
X3346563Y-12069150D01*
X3346563Y-12069150D02*
X3365610Y-12078674D01*
X3365610Y-12078674D02*
X3375134Y-12097722D01*
X3375134Y-12097722D02*
X3375134Y-12202484D01*
X3375134Y-12097722D02*
X3384658Y-12078674D01*
X3384658Y-12078674D02*
X3403705Y-12069150D01*
X3403705Y-12069150D02*
X3432277Y-12069150D01*
X3432277Y-12069150D02*
X3451324Y-12078674D01*
X3451324Y-12078674D02*
X3460848Y-12097722D01*
X3460848Y-12097722D02*
X3460848Y-12202484D01*
X3556086Y-12202484D02*
X3556086Y-12069150D01*
X3556086Y-12088198D02*
X3565610Y-12078674D01*
X3565610Y-12078674D02*
X3584658Y-12069150D01*
X3584658Y-12069150D02*
X3613229Y-12069150D01*
X3613229Y-12069150D02*
X3632277Y-12078674D01*
X3632277Y-12078674D02*
X3641801Y-12097722D01*
X3641801Y-12097722D02*
X3641801Y-12202484D01*
X3641801Y-12097722D02*
X3651324Y-12078674D01*
X3651324Y-12078674D02*
X3670372Y-12069150D01*
X3670372Y-12069150D02*
X3698943Y-12069150D01*
X3698943Y-12069150D02*
X3717991Y-12078674D01*
X3717991Y-12078674D02*
X3727515Y-12097722D01*
X3727515Y-12097722D02*
X3727515Y-12202484D01*
X4117991Y-11992960D02*
X3946563Y-12250103D01*
X4375134Y-12002484D02*
X4394182Y-12002484D01*
X4394182Y-12002484D02*
X4413229Y-12012008D01*
X4413229Y-12012008D02*
X4422753Y-12021531D01*
X4422753Y-12021531D02*
X4432277Y-12040579D01*
X4432277Y-12040579D02*
X4441801Y-12078674D01*
X4441801Y-12078674D02*
X4441801Y-12126293D01*
X4441801Y-12126293D02*
X4432277Y-12164388D01*
X4432277Y-12164388D02*
X4422753Y-12183436D01*
X4422753Y-12183436D02*
X4413229Y-12192960D01*
X4413229Y-12192960D02*
X4394182Y-12202484D01*
X4394182Y-12202484D02*
X4375134Y-12202484D01*
X4375134Y-12202484D02*
X4356087Y-12192960D01*
X4356087Y-12192960D02*
X4346563Y-12183436D01*
X4346563Y-12183436D02*
X4337039Y-12164388D01*
X4337039Y-12164388D02*
X4327515Y-12126293D01*
X4327515Y-12126293D02*
X4327515Y-12078674D01*
X4327515Y-12078674D02*
X4337039Y-12040579D01*
X4337039Y-12040579D02*
X4346563Y-12021531D01*
X4346563Y-12021531D02*
X4356087Y-12012008D01*
X4356087Y-12012008D02*
X4375134Y-12002484D01*
X4527515Y-12183436D02*
X4537039Y-12192960D01*
X4537039Y-12192960D02*
X4527515Y-12202484D01*
X4527515Y-12202484D02*
X4517991Y-12192960D01*
X4517991Y-12192960D02*
X4527515Y-12183436D01*
X4527515Y-12183436D02*
X4527515Y-12202484D01*
X4660848Y-12002484D02*
X4679896Y-12002484D01*
X4679896Y-12002484D02*
X4698944Y-12012008D01*
X4698944Y-12012008D02*
X4708468Y-12021531D01*
X4708468Y-12021531D02*
X4717991Y-12040579D01*
X4717991Y-12040579D02*
X4727515Y-12078674D01*
X4727515Y-12078674D02*
X4727515Y-12126293D01*
X4727515Y-12126293D02*
X4717991Y-12164388D01*
X4717991Y-12164388D02*
X4708468Y-12183436D01*
X4708468Y-12183436D02*
X4698944Y-12192960D01*
X4698944Y-12192960D02*
X4679896Y-12202484D01*
X4679896Y-12202484D02*
X4660848Y-12202484D01*
X4660848Y-12202484D02*
X4641801Y-12192960D01*
X4641801Y-12192960D02*
X4632277Y-12183436D01*
X4632277Y-12183436D02*
X4622753Y-12164388D01*
X4622753Y-12164388D02*
X4613229Y-12126293D01*
X4613229Y-12126293D02*
X4613229Y-12078674D01*
X4613229Y-12078674D02*
X4622753Y-12040579D01*
X4622753Y-12040579D02*
X4632277Y-12021531D01*
X4632277Y-12021531D02*
X4641801Y-12012008D01*
X4641801Y-12012008D02*
X4660848Y-12002484D01*
X4917991Y-12202484D02*
X4803706Y-12202484D01*
X4860848Y-12202484D02*
X4860848Y-12002484D01*
X4860848Y-12002484D02*
X4841801Y-12031055D01*
X4841801Y-12031055D02*
X4822753Y-12050103D01*
X4822753Y-12050103D02*
X4803706Y-12059627D01*
X5013229Y-12202484D02*
X5051325Y-12202484D01*
X5051325Y-12202484D02*
X5070372Y-12192960D01*
X5070372Y-12192960D02*
X5079896Y-12183436D01*
X5079896Y-12183436D02*
X5098944Y-12154865D01*
X5098944Y-12154865D02*
X5108468Y-12116769D01*
X5108468Y-12116769D02*
X5108468Y-12040579D01*
X5108468Y-12040579D02*
X5098944Y-12021531D01*
X5098944Y-12021531D02*
X5089420Y-12012008D01*
X5089420Y-12012008D02*
X5070372Y-12002484D01*
X5070372Y-12002484D02*
X5032277Y-12002484D01*
X5032277Y-12002484D02*
X5013229Y-12012008D01*
X5013229Y-12012008D02*
X5003706Y-12021531D01*
X5003706Y-12021531D02*
X4994182Y-12040579D01*
X4994182Y-12040579D02*
X4994182Y-12088198D01*
X4994182Y-12088198D02*
X5003706Y-12107246D01*
X5003706Y-12107246D02*
X5013229Y-12116769D01*
X5013229Y-12116769D02*
X5032277Y-12126293D01*
X5032277Y-12126293D02*
X5070372Y-12126293D01*
X5070372Y-12126293D02*
X5089420Y-12116769D01*
X5089420Y-12116769D02*
X5098944Y-12107246D01*
X5098944Y-12107246D02*
X5108468Y-12088198D01*
X5175134Y-12002484D02*
X5308468Y-12002484D01*
X5308468Y-12002484D02*
X5222753Y-12202484D01*
X5375134Y-12002484D02*
X5375134Y-12040579D01*
X5451325Y-12002484D02*
X5451325Y-12040579D01*
X5746563Y-12278674D02*
X5737039Y-12269150D01*
X5737039Y-12269150D02*
X5717991Y-12240579D01*
X5717991Y-12240579D02*
X5708468Y-12221531D01*
X5708468Y-12221531D02*
X5698944Y-12192960D01*
X5698944Y-12192960D02*
X5689420Y-12145341D01*
X5689420Y-12145341D02*
X5689420Y-12107246D01*
X5689420Y-12107246D02*
X5698944Y-12059627D01*
X5698944Y-12059627D02*
X5708468Y-12031055D01*
X5708468Y-12031055D02*
X5717991Y-12012008D01*
X5717991Y-12012008D02*
X5737039Y-11983436D01*
X5737039Y-11983436D02*
X5746563Y-11973912D01*
X5908468Y-12002484D02*
X5870372Y-12002484D01*
X5870372Y-12002484D02*
X5851325Y-12012008D01*
X5851325Y-12012008D02*
X5841801Y-12021531D01*
X5841801Y-12021531D02*
X5822753Y-12050103D01*
X5822753Y-12050103D02*
X5813229Y-12088198D01*
X5813229Y-12088198D02*
X5813229Y-12164388D01*
X5813229Y-12164388D02*
X5822753Y-12183436D01*
X5822753Y-12183436D02*
X5832277Y-12192960D01*
X5832277Y-12192960D02*
X5851325Y-12202484D01*
X5851325Y-12202484D02*
X5889420Y-12202484D01*
X5889420Y-12202484D02*
X5908468Y-12192960D01*
X5908468Y-12192960D02*
X5917991Y-12183436D01*
X5917991Y-12183436D02*
X5927515Y-12164388D01*
X5927515Y-12164388D02*
X5927515Y-12116769D01*
X5927515Y-12116769D02*
X5917991Y-12097722D01*
X5917991Y-12097722D02*
X5908468Y-12088198D01*
X5908468Y-12088198D02*
X5889420Y-12078674D01*
X5889420Y-12078674D02*
X5851325Y-12078674D01*
X5851325Y-12078674D02*
X5832277Y-12088198D01*
X5832277Y-12088198D02*
X5822753Y-12097722D01*
X5822753Y-12097722D02*
X5813229Y-12116769D01*
X6165610Y-12202484D02*
X6165610Y-12002484D01*
X6251325Y-12202484D02*
X6251325Y-12097722D01*
X6251325Y-12097722D02*
X6241801Y-12078674D01*
X6241801Y-12078674D02*
X6222753Y-12069150D01*
X6222753Y-12069150D02*
X6194182Y-12069150D01*
X6194182Y-12069150D02*
X6175134Y-12078674D01*
X6175134Y-12078674D02*
X6165610Y-12088198D01*
X6375134Y-12202484D02*
X6356087Y-12192960D01*
X6356087Y-12192960D02*
X6346563Y-12183436D01*
X6346563Y-12183436D02*
X6337039Y-12164388D01*
X6337039Y-12164388D02*
X6337039Y-12107246D01*
X6337039Y-12107246D02*
X6346563Y-12088198D01*
X6346563Y-12088198D02*
X6356087Y-12078674D01*
X6356087Y-12078674D02*
X6375134Y-12069150D01*
X6375134Y-12069150D02*
X6403706Y-12069150D01*
X6403706Y-12069150D02*
X6422753Y-12078674D01*
X6422753Y-12078674D02*
X6432277Y-12088198D01*
X6432277Y-12088198D02*
X6441801Y-12107246D01*
X6441801Y-12107246D02*
X6441801Y-12164388D01*
X6441801Y-12164388D02*
X6432277Y-12183436D01*
X6432277Y-12183436D02*
X6422753Y-12192960D01*
X6422753Y-12192960D02*
X6403706Y-12202484D01*
X6403706Y-12202484D02*
X6375134Y-12202484D01*
X6556087Y-12202484D02*
X6537039Y-12192960D01*
X6537039Y-12192960D02*
X6527515Y-12173912D01*
X6527515Y-12173912D02*
X6527515Y-12002484D01*
X6708468Y-12192960D02*
X6689420Y-12202484D01*
X6689420Y-12202484D02*
X6651325Y-12202484D01*
X6651325Y-12202484D02*
X6632277Y-12192960D01*
X6632277Y-12192960D02*
X6622753Y-12173912D01*
X6622753Y-12173912D02*
X6622753Y-12097722D01*
X6622753Y-12097722D02*
X6632277Y-12078674D01*
X6632277Y-12078674D02*
X6651325Y-12069150D01*
X6651325Y-12069150D02*
X6689420Y-12069150D01*
X6689420Y-12069150D02*
X6708468Y-12078674D01*
X6708468Y-12078674D02*
X6717991Y-12097722D01*
X6717991Y-12097722D02*
X6717991Y-12116769D01*
X6717991Y-12116769D02*
X6622753Y-12135817D01*
X6794182Y-12192960D02*
X6813230Y-12202484D01*
X6813230Y-12202484D02*
X6851325Y-12202484D01*
X6851325Y-12202484D02*
X6870372Y-12192960D01*
X6870372Y-12192960D02*
X6879896Y-12173912D01*
X6879896Y-12173912D02*
X6879896Y-12164388D01*
X6879896Y-12164388D02*
X6870372Y-12145341D01*
X6870372Y-12145341D02*
X6851325Y-12135817D01*
X6851325Y-12135817D02*
X6822753Y-12135817D01*
X6822753Y-12135817D02*
X6803706Y-12126293D01*
X6803706Y-12126293D02*
X6794182Y-12107246D01*
X6794182Y-12107246D02*
X6794182Y-12097722D01*
X6794182Y-12097722D02*
X6803706Y-12078674D01*
X6803706Y-12078674D02*
X6822753Y-12069150D01*
X6822753Y-12069150D02*
X6851325Y-12069150D01*
X6851325Y-12069150D02*
X6870372Y-12078674D01*
X6946563Y-12278674D02*
X6956087Y-12269150D01*
X6956087Y-12269150D02*
X6975134Y-12240579D01*
X6975134Y-12240579D02*
X6984658Y-12221531D01*
X6984658Y-12221531D02*
X6994182Y-12192960D01*
X6994182Y-12192960D02*
X7003706Y-12145341D01*
X7003706Y-12145341D02*
X7003706Y-12107246D01*
X7003706Y-12107246D02*
X6994182Y-12059627D01*
X6994182Y-12059627D02*
X6984658Y-12031055D01*
X6984658Y-12031055D02*
X6975134Y-12012008D01*
X6975134Y-12012008D02*
X6956087Y-11983436D01*
X6956087Y-11983436D02*
X6946563Y-11973912D01*
D12*
X2171500Y-12375000D02*
G75*
G03*
X2171500Y-12375000I-50000J0D01*
G01*
D10*
X2537039Y-12466484D02*
X2422753Y-12466484D01*
X2479896Y-12466484D02*
X2479896Y-12266484D01*
X2479896Y-12266484D02*
X2460848Y-12295055D01*
X2460848Y-12295055D02*
X2441801Y-12314103D01*
X2441801Y-12314103D02*
X2422753Y-12323627D01*
X2622753Y-12447436D02*
X2632277Y-12456960D01*
X2632277Y-12456960D02*
X2622753Y-12466484D01*
X2622753Y-12466484D02*
X2613229Y-12456960D01*
X2613229Y-12456960D02*
X2622753Y-12447436D01*
X2622753Y-12447436D02*
X2622753Y-12466484D01*
X2756086Y-12266484D02*
X2775134Y-12266484D01*
X2775134Y-12266484D02*
X2794182Y-12276008D01*
X2794182Y-12276008D02*
X2803705Y-12285531D01*
X2803705Y-12285531D02*
X2813229Y-12304579D01*
X2813229Y-12304579D02*
X2822753Y-12342674D01*
X2822753Y-12342674D02*
X2822753Y-12390293D01*
X2822753Y-12390293D02*
X2813229Y-12428388D01*
X2813229Y-12428388D02*
X2803705Y-12447436D01*
X2803705Y-12447436D02*
X2794182Y-12456960D01*
X2794182Y-12456960D02*
X2775134Y-12466484D01*
X2775134Y-12466484D02*
X2756086Y-12466484D01*
X2756086Y-12466484D02*
X2737039Y-12456960D01*
X2737039Y-12456960D02*
X2727515Y-12447436D01*
X2727515Y-12447436D02*
X2717991Y-12428388D01*
X2717991Y-12428388D02*
X2708467Y-12390293D01*
X2708467Y-12390293D02*
X2708467Y-12342674D01*
X2708467Y-12342674D02*
X2717991Y-12304579D01*
X2717991Y-12304579D02*
X2727515Y-12285531D01*
X2727515Y-12285531D02*
X2737039Y-12276008D01*
X2737039Y-12276008D02*
X2756086Y-12266484D01*
X2946562Y-12266484D02*
X2965610Y-12266484D01*
X2965610Y-12266484D02*
X2984658Y-12276008D01*
X2984658Y-12276008D02*
X2994182Y-12285531D01*
X2994182Y-12285531D02*
X3003705Y-12304579D01*
X3003705Y-12304579D02*
X3013229Y-12342674D01*
X3013229Y-12342674D02*
X3013229Y-12390293D01*
X3013229Y-12390293D02*
X3003705Y-12428388D01*
X3003705Y-12428388D02*
X2994182Y-12447436D01*
X2994182Y-12447436D02*
X2984658Y-12456960D01*
X2984658Y-12456960D02*
X2965610Y-12466484D01*
X2965610Y-12466484D02*
X2946562Y-12466484D01*
X2946562Y-12466484D02*
X2927515Y-12456960D01*
X2927515Y-12456960D02*
X2917991Y-12447436D01*
X2917991Y-12447436D02*
X2908467Y-12428388D01*
X2908467Y-12428388D02*
X2898943Y-12390293D01*
X2898943Y-12390293D02*
X2898943Y-12342674D01*
X2898943Y-12342674D02*
X2908467Y-12304579D01*
X2908467Y-12304579D02*
X2917991Y-12285531D01*
X2917991Y-12285531D02*
X2927515Y-12276008D01*
X2927515Y-12276008D02*
X2946562Y-12266484D01*
X3137039Y-12266484D02*
X3156086Y-12266484D01*
X3156086Y-12266484D02*
X3175134Y-12276008D01*
X3175134Y-12276008D02*
X3184658Y-12285531D01*
X3184658Y-12285531D02*
X3194182Y-12304579D01*
X3194182Y-12304579D02*
X3203705Y-12342674D01*
X3203705Y-12342674D02*
X3203705Y-12390293D01*
X3203705Y-12390293D02*
X3194182Y-12428388D01*
X3194182Y-12428388D02*
X3184658Y-12447436D01*
X3184658Y-12447436D02*
X3175134Y-12456960D01*
X3175134Y-12456960D02*
X3156086Y-12466484D01*
X3156086Y-12466484D02*
X3137039Y-12466484D01*
X3137039Y-12466484D02*
X3117991Y-12456960D01*
X3117991Y-12456960D02*
X3108467Y-12447436D01*
X3108467Y-12447436D02*
X3098943Y-12428388D01*
X3098943Y-12428388D02*
X3089420Y-12390293D01*
X3089420Y-12390293D02*
X3089420Y-12342674D01*
X3089420Y-12342674D02*
X3098943Y-12304579D01*
X3098943Y-12304579D02*
X3108467Y-12285531D01*
X3108467Y-12285531D02*
X3117991Y-12276008D01*
X3117991Y-12276008D02*
X3137039Y-12266484D01*
X3289420Y-12466484D02*
X3289420Y-12333150D01*
X3289420Y-12352198D02*
X3298943Y-12342674D01*
X3298943Y-12342674D02*
X3317991Y-12333150D01*
X3317991Y-12333150D02*
X3346563Y-12333150D01*
X3346563Y-12333150D02*
X3365610Y-12342674D01*
X3365610Y-12342674D02*
X3375134Y-12361722D01*
X3375134Y-12361722D02*
X3375134Y-12466484D01*
X3375134Y-12361722D02*
X3384658Y-12342674D01*
X3384658Y-12342674D02*
X3403705Y-12333150D01*
X3403705Y-12333150D02*
X3432277Y-12333150D01*
X3432277Y-12333150D02*
X3451324Y-12342674D01*
X3451324Y-12342674D02*
X3460848Y-12361722D01*
X3460848Y-12361722D02*
X3460848Y-12466484D01*
X3556086Y-12466484D02*
X3556086Y-12333150D01*
X3556086Y-12352198D02*
X3565610Y-12342674D01*
X3565610Y-12342674D02*
X3584658Y-12333150D01*
X3584658Y-12333150D02*
X3613229Y-12333150D01*
X3613229Y-12333150D02*
X3632277Y-12342674D01*
X3632277Y-12342674D02*
X3641801Y-12361722D01*
X3641801Y-12361722D02*
X3641801Y-12466484D01*
X3641801Y-12361722D02*
X3651324Y-12342674D01*
X3651324Y-12342674D02*
X3670372Y-12333150D01*
X3670372Y-12333150D02*
X3698943Y-12333150D01*
X3698943Y-12333150D02*
X3717991Y-12342674D01*
X3717991Y-12342674D02*
X3727515Y-12361722D01*
X3727515Y-12361722D02*
X3727515Y-12466484D01*
X4117991Y-12256960D02*
X3946563Y-12514103D01*
X4375134Y-12266484D02*
X4394182Y-12266484D01*
X4394182Y-12266484D02*
X4413229Y-12276008D01*
X4413229Y-12276008D02*
X4422753Y-12285531D01*
X4422753Y-12285531D02*
X4432277Y-12304579D01*
X4432277Y-12304579D02*
X4441801Y-12342674D01*
X4441801Y-12342674D02*
X4441801Y-12390293D01*
X4441801Y-12390293D02*
X4432277Y-12428388D01*
X4432277Y-12428388D02*
X4422753Y-12447436D01*
X4422753Y-12447436D02*
X4413229Y-12456960D01*
X4413229Y-12456960D02*
X4394182Y-12466484D01*
X4394182Y-12466484D02*
X4375134Y-12466484D01*
X4375134Y-12466484D02*
X4356087Y-12456960D01*
X4356087Y-12456960D02*
X4346563Y-12447436D01*
X4346563Y-12447436D02*
X4337039Y-12428388D01*
X4337039Y-12428388D02*
X4327515Y-12390293D01*
X4327515Y-12390293D02*
X4327515Y-12342674D01*
X4327515Y-12342674D02*
X4337039Y-12304579D01*
X4337039Y-12304579D02*
X4346563Y-12285531D01*
X4346563Y-12285531D02*
X4356087Y-12276008D01*
X4356087Y-12276008D02*
X4375134Y-12266484D01*
X4527515Y-12447436D02*
X4537039Y-12456960D01*
X4537039Y-12456960D02*
X4527515Y-12466484D01*
X4527515Y-12466484D02*
X4517991Y-12456960D01*
X4517991Y-12456960D02*
X4527515Y-12447436D01*
X4527515Y-12447436D02*
X4527515Y-12466484D01*
X4660848Y-12266484D02*
X4679896Y-12266484D01*
X4679896Y-12266484D02*
X4698944Y-12276008D01*
X4698944Y-12276008D02*
X4708468Y-12285531D01*
X4708468Y-12285531D02*
X4717991Y-12304579D01*
X4717991Y-12304579D02*
X4727515Y-12342674D01*
X4727515Y-12342674D02*
X4727515Y-12390293D01*
X4727515Y-12390293D02*
X4717991Y-12428388D01*
X4717991Y-12428388D02*
X4708468Y-12447436D01*
X4708468Y-12447436D02*
X4698944Y-12456960D01*
X4698944Y-12456960D02*
X4679896Y-12466484D01*
X4679896Y-12466484D02*
X4660848Y-12466484D01*
X4660848Y-12466484D02*
X4641801Y-12456960D01*
X4641801Y-12456960D02*
X4632277Y-12447436D01*
X4632277Y-12447436D02*
X4622753Y-12428388D01*
X4622753Y-12428388D02*
X4613229Y-12390293D01*
X4613229Y-12390293D02*
X4613229Y-12342674D01*
X4613229Y-12342674D02*
X4622753Y-12304579D01*
X4622753Y-12304579D02*
X4632277Y-12285531D01*
X4632277Y-12285531D02*
X4641801Y-12276008D01*
X4641801Y-12276008D02*
X4660848Y-12266484D01*
X4794182Y-12266484D02*
X4917991Y-12266484D01*
X4917991Y-12266484D02*
X4851325Y-12342674D01*
X4851325Y-12342674D02*
X4879896Y-12342674D01*
X4879896Y-12342674D02*
X4898944Y-12352198D01*
X4898944Y-12352198D02*
X4908468Y-12361722D01*
X4908468Y-12361722D02*
X4917991Y-12380769D01*
X4917991Y-12380769D02*
X4917991Y-12428388D01*
X4917991Y-12428388D02*
X4908468Y-12447436D01*
X4908468Y-12447436D02*
X4898944Y-12456960D01*
X4898944Y-12456960D02*
X4879896Y-12466484D01*
X4879896Y-12466484D02*
X4822753Y-12466484D01*
X4822753Y-12466484D02*
X4803706Y-12456960D01*
X4803706Y-12456960D02*
X4794182Y-12447436D01*
X5013229Y-12466484D02*
X5051325Y-12466484D01*
X5051325Y-12466484D02*
X5070372Y-12456960D01*
X5070372Y-12456960D02*
X5079896Y-12447436D01*
X5079896Y-12447436D02*
X5098944Y-12418865D01*
X5098944Y-12418865D02*
X5108468Y-12380769D01*
X5108468Y-12380769D02*
X5108468Y-12304579D01*
X5108468Y-12304579D02*
X5098944Y-12285531D01*
X5098944Y-12285531D02*
X5089420Y-12276008D01*
X5089420Y-12276008D02*
X5070372Y-12266484D01*
X5070372Y-12266484D02*
X5032277Y-12266484D01*
X5032277Y-12266484D02*
X5013229Y-12276008D01*
X5013229Y-12276008D02*
X5003706Y-12285531D01*
X5003706Y-12285531D02*
X4994182Y-12304579D01*
X4994182Y-12304579D02*
X4994182Y-12352198D01*
X4994182Y-12352198D02*
X5003706Y-12371246D01*
X5003706Y-12371246D02*
X5013229Y-12380769D01*
X5013229Y-12380769D02*
X5032277Y-12390293D01*
X5032277Y-12390293D02*
X5070372Y-12390293D01*
X5070372Y-12390293D02*
X5089420Y-12380769D01*
X5089420Y-12380769D02*
X5098944Y-12371246D01*
X5098944Y-12371246D02*
X5108468Y-12352198D01*
X5279896Y-12333150D02*
X5279896Y-12466484D01*
X5232277Y-12256960D02*
X5184658Y-12399817D01*
X5184658Y-12399817D02*
X5308468Y-12399817D01*
X5375134Y-12266484D02*
X5375134Y-12304579D01*
X5451325Y-12266484D02*
X5451325Y-12304579D01*
X5746563Y-12542674D02*
X5737039Y-12533150D01*
X5737039Y-12533150D02*
X5717991Y-12504579D01*
X5717991Y-12504579D02*
X5708468Y-12485531D01*
X5708468Y-12485531D02*
X5698944Y-12456960D01*
X5698944Y-12456960D02*
X5689420Y-12409341D01*
X5689420Y-12409341D02*
X5689420Y-12371246D01*
X5689420Y-12371246D02*
X5698944Y-12323627D01*
X5698944Y-12323627D02*
X5708468Y-12295055D01*
X5708468Y-12295055D02*
X5717991Y-12276008D01*
X5717991Y-12276008D02*
X5737039Y-12247436D01*
X5737039Y-12247436D02*
X5746563Y-12237912D01*
X5927515Y-12466484D02*
X5813229Y-12466484D01*
X5870372Y-12466484D02*
X5870372Y-12266484D01*
X5870372Y-12266484D02*
X5851325Y-12295055D01*
X5851325Y-12295055D02*
X5832277Y-12314103D01*
X5832277Y-12314103D02*
X5813229Y-12323627D01*
X6165610Y-12466484D02*
X6165610Y-12266484D01*
X6251325Y-12466484D02*
X6251325Y-12361722D01*
X6251325Y-12361722D02*
X6241801Y-12342674D01*
X6241801Y-12342674D02*
X6222753Y-12333150D01*
X6222753Y-12333150D02*
X6194182Y-12333150D01*
X6194182Y-12333150D02*
X6175134Y-12342674D01*
X6175134Y-12342674D02*
X6165610Y-12352198D01*
X6375134Y-12466484D02*
X6356087Y-12456960D01*
X6356087Y-12456960D02*
X6346563Y-12447436D01*
X6346563Y-12447436D02*
X6337039Y-12428388D01*
X6337039Y-12428388D02*
X6337039Y-12371246D01*
X6337039Y-12371246D02*
X6346563Y-12352198D01*
X6346563Y-12352198D02*
X6356087Y-12342674D01*
X6356087Y-12342674D02*
X6375134Y-12333150D01*
X6375134Y-12333150D02*
X6403706Y-12333150D01*
X6403706Y-12333150D02*
X6422753Y-12342674D01*
X6422753Y-12342674D02*
X6432277Y-12352198D01*
X6432277Y-12352198D02*
X6441801Y-12371246D01*
X6441801Y-12371246D02*
X6441801Y-12428388D01*
X6441801Y-12428388D02*
X6432277Y-12447436D01*
X6432277Y-12447436D02*
X6422753Y-12456960D01*
X6422753Y-12456960D02*
X6403706Y-12466484D01*
X6403706Y-12466484D02*
X6375134Y-12466484D01*
X6556087Y-12466484D02*
X6537039Y-12456960D01*
X6537039Y-12456960D02*
X6527515Y-12437912D01*
X6527515Y-12437912D02*
X6527515Y-12266484D01*
X6708468Y-12456960D02*
X6689420Y-12466484D01*
X6689420Y-12466484D02*
X6651325Y-12466484D01*
X6651325Y-12466484D02*
X6632277Y-12456960D01*
X6632277Y-12456960D02*
X6622753Y-12437912D01*
X6622753Y-12437912D02*
X6622753Y-12361722D01*
X6622753Y-12361722D02*
X6632277Y-12342674D01*
X6632277Y-12342674D02*
X6651325Y-12333150D01*
X6651325Y-12333150D02*
X6689420Y-12333150D01*
X6689420Y-12333150D02*
X6708468Y-12342674D01*
X6708468Y-12342674D02*
X6717991Y-12361722D01*
X6717991Y-12361722D02*
X6717991Y-12380769D01*
X6717991Y-12380769D02*
X6622753Y-12399817D01*
X6784658Y-12542674D02*
X6794182Y-12533150D01*
X6794182Y-12533150D02*
X6813230Y-12504579D01*
X6813230Y-12504579D02*
X6822753Y-12485531D01*
X6822753Y-12485531D02*
X6832277Y-12456960D01*
X6832277Y-12456960D02*
X6841801Y-12409341D01*
X6841801Y-12409341D02*
X6841801Y-12371246D01*
X6841801Y-12371246D02*
X6832277Y-12323627D01*
X6832277Y-12323627D02*
X6822753Y-12295055D01*
X6822753Y-12295055D02*
X6813230Y-12276008D01*
X6813230Y-12276008D02*
X6794182Y-12247436D01*
X6794182Y-12247436D02*
X6784658Y-12237912D01*
D12*
X2121500Y-12589000D02*
X2121500Y-12689000D01*
X2071500Y-12639000D02*
X2171500Y-12639000D01*
D10*
X2537039Y-12730484D02*
X2422753Y-12730484D01*
X2479896Y-12730484D02*
X2479896Y-12530484D01*
X2479896Y-12530484D02*
X2460848Y-12559055D01*
X2460848Y-12559055D02*
X2441801Y-12578103D01*
X2441801Y-12578103D02*
X2422753Y-12587627D01*
X2622753Y-12711436D02*
X2632277Y-12720960D01*
X2632277Y-12720960D02*
X2622753Y-12730484D01*
X2622753Y-12730484D02*
X2613229Y-12720960D01*
X2613229Y-12720960D02*
X2622753Y-12711436D01*
X2622753Y-12711436D02*
X2622753Y-12730484D01*
X2756086Y-12530484D02*
X2775134Y-12530484D01*
X2775134Y-12530484D02*
X2794182Y-12540008D01*
X2794182Y-12540008D02*
X2803705Y-12549531D01*
X2803705Y-12549531D02*
X2813229Y-12568579D01*
X2813229Y-12568579D02*
X2822753Y-12606674D01*
X2822753Y-12606674D02*
X2822753Y-12654293D01*
X2822753Y-12654293D02*
X2813229Y-12692388D01*
X2813229Y-12692388D02*
X2803705Y-12711436D01*
X2803705Y-12711436D02*
X2794182Y-12720960D01*
X2794182Y-12720960D02*
X2775134Y-12730484D01*
X2775134Y-12730484D02*
X2756086Y-12730484D01*
X2756086Y-12730484D02*
X2737039Y-12720960D01*
X2737039Y-12720960D02*
X2727515Y-12711436D01*
X2727515Y-12711436D02*
X2717991Y-12692388D01*
X2717991Y-12692388D02*
X2708467Y-12654293D01*
X2708467Y-12654293D02*
X2708467Y-12606674D01*
X2708467Y-12606674D02*
X2717991Y-12568579D01*
X2717991Y-12568579D02*
X2727515Y-12549531D01*
X2727515Y-12549531D02*
X2737039Y-12540008D01*
X2737039Y-12540008D02*
X2756086Y-12530484D01*
X2946562Y-12530484D02*
X2965610Y-12530484D01*
X2965610Y-12530484D02*
X2984658Y-12540008D01*
X2984658Y-12540008D02*
X2994182Y-12549531D01*
X2994182Y-12549531D02*
X3003705Y-12568579D01*
X3003705Y-12568579D02*
X3013229Y-12606674D01*
X3013229Y-12606674D02*
X3013229Y-12654293D01*
X3013229Y-12654293D02*
X3003705Y-12692388D01*
X3003705Y-12692388D02*
X2994182Y-12711436D01*
X2994182Y-12711436D02*
X2984658Y-12720960D01*
X2984658Y-12720960D02*
X2965610Y-12730484D01*
X2965610Y-12730484D02*
X2946562Y-12730484D01*
X2946562Y-12730484D02*
X2927515Y-12720960D01*
X2927515Y-12720960D02*
X2917991Y-12711436D01*
X2917991Y-12711436D02*
X2908467Y-12692388D01*
X2908467Y-12692388D02*
X2898943Y-12654293D01*
X2898943Y-12654293D02*
X2898943Y-12606674D01*
X2898943Y-12606674D02*
X2908467Y-12568579D01*
X2908467Y-12568579D02*
X2917991Y-12549531D01*
X2917991Y-12549531D02*
X2927515Y-12540008D01*
X2927515Y-12540008D02*
X2946562Y-12530484D01*
X3137039Y-12530484D02*
X3156086Y-12530484D01*
X3156086Y-12530484D02*
X3175134Y-12540008D01*
X3175134Y-12540008D02*
X3184658Y-12549531D01*
X3184658Y-12549531D02*
X3194182Y-12568579D01*
X3194182Y-12568579D02*
X3203705Y-12606674D01*
X3203705Y-12606674D02*
X3203705Y-12654293D01*
X3203705Y-12654293D02*
X3194182Y-12692388D01*
X3194182Y-12692388D02*
X3184658Y-12711436D01*
X3184658Y-12711436D02*
X3175134Y-12720960D01*
X3175134Y-12720960D02*
X3156086Y-12730484D01*
X3156086Y-12730484D02*
X3137039Y-12730484D01*
X3137039Y-12730484D02*
X3117991Y-12720960D01*
X3117991Y-12720960D02*
X3108467Y-12711436D01*
X3108467Y-12711436D02*
X3098943Y-12692388D01*
X3098943Y-12692388D02*
X3089420Y-12654293D01*
X3089420Y-12654293D02*
X3089420Y-12606674D01*
X3089420Y-12606674D02*
X3098943Y-12568579D01*
X3098943Y-12568579D02*
X3108467Y-12549531D01*
X3108467Y-12549531D02*
X3117991Y-12540008D01*
X3117991Y-12540008D02*
X3137039Y-12530484D01*
X3289420Y-12730484D02*
X3289420Y-12597150D01*
X3289420Y-12616198D02*
X3298943Y-12606674D01*
X3298943Y-12606674D02*
X3317991Y-12597150D01*
X3317991Y-12597150D02*
X3346563Y-12597150D01*
X3346563Y-12597150D02*
X3365610Y-12606674D01*
X3365610Y-12606674D02*
X3375134Y-12625722D01*
X3375134Y-12625722D02*
X3375134Y-12730484D01*
X3375134Y-12625722D02*
X3384658Y-12606674D01*
X3384658Y-12606674D02*
X3403705Y-12597150D01*
X3403705Y-12597150D02*
X3432277Y-12597150D01*
X3432277Y-12597150D02*
X3451324Y-12606674D01*
X3451324Y-12606674D02*
X3460848Y-12625722D01*
X3460848Y-12625722D02*
X3460848Y-12730484D01*
X3556086Y-12730484D02*
X3556086Y-12597150D01*
X3556086Y-12616198D02*
X3565610Y-12606674D01*
X3565610Y-12606674D02*
X3584658Y-12597150D01*
X3584658Y-12597150D02*
X3613229Y-12597150D01*
X3613229Y-12597150D02*
X3632277Y-12606674D01*
X3632277Y-12606674D02*
X3641801Y-12625722D01*
X3641801Y-12625722D02*
X3641801Y-12730484D01*
X3641801Y-12625722D02*
X3651324Y-12606674D01*
X3651324Y-12606674D02*
X3670372Y-12597150D01*
X3670372Y-12597150D02*
X3698943Y-12597150D01*
X3698943Y-12597150D02*
X3717991Y-12606674D01*
X3717991Y-12606674D02*
X3727515Y-12625722D01*
X3727515Y-12625722D02*
X3727515Y-12730484D01*
X4117991Y-12520960D02*
X3946563Y-12778103D01*
X4375134Y-12530484D02*
X4394182Y-12530484D01*
X4394182Y-12530484D02*
X4413229Y-12540008D01*
X4413229Y-12540008D02*
X4422753Y-12549531D01*
X4422753Y-12549531D02*
X4432277Y-12568579D01*
X4432277Y-12568579D02*
X4441801Y-12606674D01*
X4441801Y-12606674D02*
X4441801Y-12654293D01*
X4441801Y-12654293D02*
X4432277Y-12692388D01*
X4432277Y-12692388D02*
X4422753Y-12711436D01*
X4422753Y-12711436D02*
X4413229Y-12720960D01*
X4413229Y-12720960D02*
X4394182Y-12730484D01*
X4394182Y-12730484D02*
X4375134Y-12730484D01*
X4375134Y-12730484D02*
X4356087Y-12720960D01*
X4356087Y-12720960D02*
X4346563Y-12711436D01*
X4346563Y-12711436D02*
X4337039Y-12692388D01*
X4337039Y-12692388D02*
X4327515Y-12654293D01*
X4327515Y-12654293D02*
X4327515Y-12606674D01*
X4327515Y-12606674D02*
X4337039Y-12568579D01*
X4337039Y-12568579D02*
X4346563Y-12549531D01*
X4346563Y-12549531D02*
X4356087Y-12540008D01*
X4356087Y-12540008D02*
X4375134Y-12530484D01*
X4527515Y-12711436D02*
X4537039Y-12720960D01*
X4537039Y-12720960D02*
X4527515Y-12730484D01*
X4527515Y-12730484D02*
X4517991Y-12720960D01*
X4517991Y-12720960D02*
X4527515Y-12711436D01*
X4527515Y-12711436D02*
X4527515Y-12730484D01*
X4660848Y-12530484D02*
X4679896Y-12530484D01*
X4679896Y-12530484D02*
X4698944Y-12540008D01*
X4698944Y-12540008D02*
X4708468Y-12549531D01*
X4708468Y-12549531D02*
X4717991Y-12568579D01*
X4717991Y-12568579D02*
X4727515Y-12606674D01*
X4727515Y-12606674D02*
X4727515Y-12654293D01*
X4727515Y-12654293D02*
X4717991Y-12692388D01*
X4717991Y-12692388D02*
X4708468Y-12711436D01*
X4708468Y-12711436D02*
X4698944Y-12720960D01*
X4698944Y-12720960D02*
X4679896Y-12730484D01*
X4679896Y-12730484D02*
X4660848Y-12730484D01*
X4660848Y-12730484D02*
X4641801Y-12720960D01*
X4641801Y-12720960D02*
X4632277Y-12711436D01*
X4632277Y-12711436D02*
X4622753Y-12692388D01*
X4622753Y-12692388D02*
X4613229Y-12654293D01*
X4613229Y-12654293D02*
X4613229Y-12606674D01*
X4613229Y-12606674D02*
X4622753Y-12568579D01*
X4622753Y-12568579D02*
X4632277Y-12549531D01*
X4632277Y-12549531D02*
X4641801Y-12540008D01*
X4641801Y-12540008D02*
X4660848Y-12530484D01*
X4794182Y-12530484D02*
X4917991Y-12530484D01*
X4917991Y-12530484D02*
X4851325Y-12606674D01*
X4851325Y-12606674D02*
X4879896Y-12606674D01*
X4879896Y-12606674D02*
X4898944Y-12616198D01*
X4898944Y-12616198D02*
X4908468Y-12625722D01*
X4908468Y-12625722D02*
X4917991Y-12644769D01*
X4917991Y-12644769D02*
X4917991Y-12692388D01*
X4917991Y-12692388D02*
X4908468Y-12711436D01*
X4908468Y-12711436D02*
X4898944Y-12720960D01*
X4898944Y-12720960D02*
X4879896Y-12730484D01*
X4879896Y-12730484D02*
X4822753Y-12730484D01*
X4822753Y-12730484D02*
X4803706Y-12720960D01*
X4803706Y-12720960D02*
X4794182Y-12711436D01*
X5013229Y-12730484D02*
X5051325Y-12730484D01*
X5051325Y-12730484D02*
X5070372Y-12720960D01*
X5070372Y-12720960D02*
X5079896Y-12711436D01*
X5079896Y-12711436D02*
X5098944Y-12682865D01*
X5098944Y-12682865D02*
X5108468Y-12644769D01*
X5108468Y-12644769D02*
X5108468Y-12568579D01*
X5108468Y-12568579D02*
X5098944Y-12549531D01*
X5098944Y-12549531D02*
X5089420Y-12540008D01*
X5089420Y-12540008D02*
X5070372Y-12530484D01*
X5070372Y-12530484D02*
X5032277Y-12530484D01*
X5032277Y-12530484D02*
X5013229Y-12540008D01*
X5013229Y-12540008D02*
X5003706Y-12549531D01*
X5003706Y-12549531D02*
X4994182Y-12568579D01*
X4994182Y-12568579D02*
X4994182Y-12616198D01*
X4994182Y-12616198D02*
X5003706Y-12635246D01*
X5003706Y-12635246D02*
X5013229Y-12644769D01*
X5013229Y-12644769D02*
X5032277Y-12654293D01*
X5032277Y-12654293D02*
X5070372Y-12654293D01*
X5070372Y-12654293D02*
X5089420Y-12644769D01*
X5089420Y-12644769D02*
X5098944Y-12635246D01*
X5098944Y-12635246D02*
X5108468Y-12616198D01*
X5279896Y-12597150D02*
X5279896Y-12730484D01*
X5232277Y-12520960D02*
X5184658Y-12663817D01*
X5184658Y-12663817D02*
X5308468Y-12663817D01*
X5375134Y-12530484D02*
X5375134Y-12568579D01*
X5451325Y-12530484D02*
X5451325Y-12568579D01*
X5746563Y-12806674D02*
X5737039Y-12797150D01*
X5737039Y-12797150D02*
X5717991Y-12768579D01*
X5717991Y-12768579D02*
X5708468Y-12749531D01*
X5708468Y-12749531D02*
X5698944Y-12720960D01*
X5698944Y-12720960D02*
X5689420Y-12673341D01*
X5689420Y-12673341D02*
X5689420Y-12635246D01*
X5689420Y-12635246D02*
X5698944Y-12587627D01*
X5698944Y-12587627D02*
X5708468Y-12559055D01*
X5708468Y-12559055D02*
X5717991Y-12540008D01*
X5717991Y-12540008D02*
X5737039Y-12511436D01*
X5737039Y-12511436D02*
X5746563Y-12501912D01*
X5927515Y-12730484D02*
X5813229Y-12730484D01*
X5870372Y-12730484D02*
X5870372Y-12530484D01*
X5870372Y-12530484D02*
X5851325Y-12559055D01*
X5851325Y-12559055D02*
X5832277Y-12578103D01*
X5832277Y-12578103D02*
X5813229Y-12587627D01*
X6022753Y-12730484D02*
X6060848Y-12730484D01*
X6060848Y-12730484D02*
X6079896Y-12720960D01*
X6079896Y-12720960D02*
X6089420Y-12711436D01*
X6089420Y-12711436D02*
X6108468Y-12682865D01*
X6108468Y-12682865D02*
X6117991Y-12644769D01*
X6117991Y-12644769D02*
X6117991Y-12568579D01*
X6117991Y-12568579D02*
X6108468Y-12549531D01*
X6108468Y-12549531D02*
X6098944Y-12540008D01*
X6098944Y-12540008D02*
X6079896Y-12530484D01*
X6079896Y-12530484D02*
X6041801Y-12530484D01*
X6041801Y-12530484D02*
X6022753Y-12540008D01*
X6022753Y-12540008D02*
X6013229Y-12549531D01*
X6013229Y-12549531D02*
X6003706Y-12568579D01*
X6003706Y-12568579D02*
X6003706Y-12616198D01*
X6003706Y-12616198D02*
X6013229Y-12635246D01*
X6013229Y-12635246D02*
X6022753Y-12644769D01*
X6022753Y-12644769D02*
X6041801Y-12654293D01*
X6041801Y-12654293D02*
X6079896Y-12654293D01*
X6079896Y-12654293D02*
X6098944Y-12644769D01*
X6098944Y-12644769D02*
X6108468Y-12635246D01*
X6108468Y-12635246D02*
X6117991Y-12616198D01*
X6213229Y-12730484D02*
X6251325Y-12730484D01*
X6251325Y-12730484D02*
X6270372Y-12720960D01*
X6270372Y-12720960D02*
X6279896Y-12711436D01*
X6279896Y-12711436D02*
X6298944Y-12682865D01*
X6298944Y-12682865D02*
X6308468Y-12644769D01*
X6308468Y-12644769D02*
X6308468Y-12568579D01*
X6308468Y-12568579D02*
X6298944Y-12549531D01*
X6298944Y-12549531D02*
X6289420Y-12540008D01*
X6289420Y-12540008D02*
X6270372Y-12530484D01*
X6270372Y-12530484D02*
X6232277Y-12530484D01*
X6232277Y-12530484D02*
X6213229Y-12540008D01*
X6213229Y-12540008D02*
X6203706Y-12549531D01*
X6203706Y-12549531D02*
X6194182Y-12568579D01*
X6194182Y-12568579D02*
X6194182Y-12616198D01*
X6194182Y-12616198D02*
X6203706Y-12635246D01*
X6203706Y-12635246D02*
X6213229Y-12644769D01*
X6213229Y-12644769D02*
X6232277Y-12654293D01*
X6232277Y-12654293D02*
X6270372Y-12654293D01*
X6270372Y-12654293D02*
X6289420Y-12644769D01*
X6289420Y-12644769D02*
X6298944Y-12635246D01*
X6298944Y-12635246D02*
X6308468Y-12616198D01*
X6546563Y-12730484D02*
X6546563Y-12530484D01*
X6632277Y-12730484D02*
X6632277Y-12625722D01*
X6632277Y-12625722D02*
X6622753Y-12606674D01*
X6622753Y-12606674D02*
X6603706Y-12597150D01*
X6603706Y-12597150D02*
X6575134Y-12597150D01*
X6575134Y-12597150D02*
X6556087Y-12606674D01*
X6556087Y-12606674D02*
X6546563Y-12616198D01*
X6756087Y-12730484D02*
X6737039Y-12720960D01*
X6737039Y-12720960D02*
X6727515Y-12711436D01*
X6727515Y-12711436D02*
X6717991Y-12692388D01*
X6717991Y-12692388D02*
X6717991Y-12635246D01*
X6717991Y-12635246D02*
X6727515Y-12616198D01*
X6727515Y-12616198D02*
X6737039Y-12606674D01*
X6737039Y-12606674D02*
X6756087Y-12597150D01*
X6756087Y-12597150D02*
X6784658Y-12597150D01*
X6784658Y-12597150D02*
X6803706Y-12606674D01*
X6803706Y-12606674D02*
X6813230Y-12616198D01*
X6813230Y-12616198D02*
X6822753Y-12635246D01*
X6822753Y-12635246D02*
X6822753Y-12692388D01*
X6822753Y-12692388D02*
X6813230Y-12711436D01*
X6813230Y-12711436D02*
X6803706Y-12720960D01*
X6803706Y-12720960D02*
X6784658Y-12730484D01*
X6784658Y-12730484D02*
X6756087Y-12730484D01*
X6937039Y-12730484D02*
X6917991Y-12720960D01*
X6917991Y-12720960D02*
X6908468Y-12701912D01*
X6908468Y-12701912D02*
X6908468Y-12530484D01*
X7089420Y-12720960D02*
X7070372Y-12730484D01*
X7070372Y-12730484D02*
X7032277Y-12730484D01*
X7032277Y-12730484D02*
X7013230Y-12720960D01*
X7013230Y-12720960D02*
X7003706Y-12701912D01*
X7003706Y-12701912D02*
X7003706Y-12625722D01*
X7003706Y-12625722D02*
X7013230Y-12606674D01*
X7013230Y-12606674D02*
X7032277Y-12597150D01*
X7032277Y-12597150D02*
X7070372Y-12597150D01*
X7070372Y-12597150D02*
X7089420Y-12606674D01*
X7089420Y-12606674D02*
X7098944Y-12625722D01*
X7098944Y-12625722D02*
X7098944Y-12644769D01*
X7098944Y-12644769D02*
X7003706Y-12663817D01*
X7175134Y-12720960D02*
X7194182Y-12730484D01*
X7194182Y-12730484D02*
X7232277Y-12730484D01*
X7232277Y-12730484D02*
X7251325Y-12720960D01*
X7251325Y-12720960D02*
X7260849Y-12701912D01*
X7260849Y-12701912D02*
X7260849Y-12692388D01*
X7260849Y-12692388D02*
X7251325Y-12673341D01*
X7251325Y-12673341D02*
X7232277Y-12663817D01*
X7232277Y-12663817D02*
X7203706Y-12663817D01*
X7203706Y-12663817D02*
X7184658Y-12654293D01*
X7184658Y-12654293D02*
X7175134Y-12635246D01*
X7175134Y-12635246D02*
X7175134Y-12625722D01*
X7175134Y-12625722D02*
X7184658Y-12606674D01*
X7184658Y-12606674D02*
X7203706Y-12597150D01*
X7203706Y-12597150D02*
X7232277Y-12597150D01*
X7232277Y-12597150D02*
X7251325Y-12606674D01*
X7327515Y-12806674D02*
X7337039Y-12797150D01*
X7337039Y-12797150D02*
X7356087Y-12768579D01*
X7356087Y-12768579D02*
X7365611Y-12749531D01*
X7365611Y-12749531D02*
X7375134Y-12720960D01*
X7375134Y-12720960D02*
X7384658Y-12673341D01*
X7384658Y-12673341D02*
X7384658Y-12635246D01*
X7384658Y-12635246D02*
X7375134Y-12587627D01*
X7375134Y-12587627D02*
X7365611Y-12559055D01*
X7365611Y-12559055D02*
X7356087Y-12540008D01*
X7356087Y-12540008D02*
X7337039Y-12511436D01*
X7337039Y-12511436D02*
X7327515Y-12501912D01*
D13*
X2149534Y-12956033D02*
X2149534Y-12849966D01*
X2043466Y-12849966D01*
X2043466Y-12956033D01*
X2149534Y-12956033D01*
D10*
X2537039Y-12994484D02*
X2422753Y-12994484D01*
X2479896Y-12994484D02*
X2479896Y-12794484D01*
X2479896Y-12794484D02*
X2460848Y-12823055D01*
X2460848Y-12823055D02*
X2441801Y-12842103D01*
X2441801Y-12842103D02*
X2422753Y-12851627D01*
X2622753Y-12975436D02*
X2632277Y-12984960D01*
X2632277Y-12984960D02*
X2622753Y-12994484D01*
X2622753Y-12994484D02*
X2613229Y-12984960D01*
X2613229Y-12984960D02*
X2622753Y-12975436D01*
X2622753Y-12975436D02*
X2622753Y-12994484D01*
X2813229Y-12794484D02*
X2717991Y-12794484D01*
X2717991Y-12794484D02*
X2708467Y-12889722D01*
X2708467Y-12889722D02*
X2717991Y-12880198D01*
X2717991Y-12880198D02*
X2737039Y-12870674D01*
X2737039Y-12870674D02*
X2784658Y-12870674D01*
X2784658Y-12870674D02*
X2803705Y-12880198D01*
X2803705Y-12880198D02*
X2813229Y-12889722D01*
X2813229Y-12889722D02*
X2822753Y-12908769D01*
X2822753Y-12908769D02*
X2822753Y-12956388D01*
X2822753Y-12956388D02*
X2813229Y-12975436D01*
X2813229Y-12975436D02*
X2803705Y-12984960D01*
X2803705Y-12984960D02*
X2784658Y-12994484D01*
X2784658Y-12994484D02*
X2737039Y-12994484D01*
X2737039Y-12994484D02*
X2717991Y-12984960D01*
X2717991Y-12984960D02*
X2708467Y-12975436D01*
X2946562Y-12794484D02*
X2965610Y-12794484D01*
X2965610Y-12794484D02*
X2984658Y-12804008D01*
X2984658Y-12804008D02*
X2994182Y-12813531D01*
X2994182Y-12813531D02*
X3003705Y-12832579D01*
X3003705Y-12832579D02*
X3013229Y-12870674D01*
X3013229Y-12870674D02*
X3013229Y-12918293D01*
X3013229Y-12918293D02*
X3003705Y-12956388D01*
X3003705Y-12956388D02*
X2994182Y-12975436D01*
X2994182Y-12975436D02*
X2984658Y-12984960D01*
X2984658Y-12984960D02*
X2965610Y-12994484D01*
X2965610Y-12994484D02*
X2946562Y-12994484D01*
X2946562Y-12994484D02*
X2927515Y-12984960D01*
X2927515Y-12984960D02*
X2917991Y-12975436D01*
X2917991Y-12975436D02*
X2908467Y-12956388D01*
X2908467Y-12956388D02*
X2898943Y-12918293D01*
X2898943Y-12918293D02*
X2898943Y-12870674D01*
X2898943Y-12870674D02*
X2908467Y-12832579D01*
X2908467Y-12832579D02*
X2917991Y-12813531D01*
X2917991Y-12813531D02*
X2927515Y-12804008D01*
X2927515Y-12804008D02*
X2946562Y-12794484D01*
X3137039Y-12794484D02*
X3156086Y-12794484D01*
X3156086Y-12794484D02*
X3175134Y-12804008D01*
X3175134Y-12804008D02*
X3184658Y-12813531D01*
X3184658Y-12813531D02*
X3194182Y-12832579D01*
X3194182Y-12832579D02*
X3203705Y-12870674D01*
X3203705Y-12870674D02*
X3203705Y-12918293D01*
X3203705Y-12918293D02*
X3194182Y-12956388D01*
X3194182Y-12956388D02*
X3184658Y-12975436D01*
X3184658Y-12975436D02*
X3175134Y-12984960D01*
X3175134Y-12984960D02*
X3156086Y-12994484D01*
X3156086Y-12994484D02*
X3137039Y-12994484D01*
X3137039Y-12994484D02*
X3117991Y-12984960D01*
X3117991Y-12984960D02*
X3108467Y-12975436D01*
X3108467Y-12975436D02*
X3098943Y-12956388D01*
X3098943Y-12956388D02*
X3089420Y-12918293D01*
X3089420Y-12918293D02*
X3089420Y-12870674D01*
X3089420Y-12870674D02*
X3098943Y-12832579D01*
X3098943Y-12832579D02*
X3108467Y-12813531D01*
X3108467Y-12813531D02*
X3117991Y-12804008D01*
X3117991Y-12804008D02*
X3137039Y-12794484D01*
X3289420Y-12994484D02*
X3289420Y-12861150D01*
X3289420Y-12880198D02*
X3298943Y-12870674D01*
X3298943Y-12870674D02*
X3317991Y-12861150D01*
X3317991Y-12861150D02*
X3346563Y-12861150D01*
X3346563Y-12861150D02*
X3365610Y-12870674D01*
X3365610Y-12870674D02*
X3375134Y-12889722D01*
X3375134Y-12889722D02*
X3375134Y-12994484D01*
X3375134Y-12889722D02*
X3384658Y-12870674D01*
X3384658Y-12870674D02*
X3403705Y-12861150D01*
X3403705Y-12861150D02*
X3432277Y-12861150D01*
X3432277Y-12861150D02*
X3451324Y-12870674D01*
X3451324Y-12870674D02*
X3460848Y-12889722D01*
X3460848Y-12889722D02*
X3460848Y-12994484D01*
X3556086Y-12994484D02*
X3556086Y-12861150D01*
X3556086Y-12880198D02*
X3565610Y-12870674D01*
X3565610Y-12870674D02*
X3584658Y-12861150D01*
X3584658Y-12861150D02*
X3613229Y-12861150D01*
X3613229Y-12861150D02*
X3632277Y-12870674D01*
X3632277Y-12870674D02*
X3641801Y-12889722D01*
X3641801Y-12889722D02*
X3641801Y-12994484D01*
X3641801Y-12889722D02*
X3651324Y-12870674D01*
X3651324Y-12870674D02*
X3670372Y-12861150D01*
X3670372Y-12861150D02*
X3698943Y-12861150D01*
X3698943Y-12861150D02*
X3717991Y-12870674D01*
X3717991Y-12870674D02*
X3727515Y-12889722D01*
X3727515Y-12889722D02*
X3727515Y-12994484D01*
X4117991Y-12784960D02*
X3946563Y-13042103D01*
X4375134Y-12794484D02*
X4394182Y-12794484D01*
X4394182Y-12794484D02*
X4413229Y-12804008D01*
X4413229Y-12804008D02*
X4422753Y-12813531D01*
X4422753Y-12813531D02*
X4432277Y-12832579D01*
X4432277Y-12832579D02*
X4441801Y-12870674D01*
X4441801Y-12870674D02*
X4441801Y-12918293D01*
X4441801Y-12918293D02*
X4432277Y-12956388D01*
X4432277Y-12956388D02*
X4422753Y-12975436D01*
X4422753Y-12975436D02*
X4413229Y-12984960D01*
X4413229Y-12984960D02*
X4394182Y-12994484D01*
X4394182Y-12994484D02*
X4375134Y-12994484D01*
X4375134Y-12994484D02*
X4356087Y-12984960D01*
X4356087Y-12984960D02*
X4346563Y-12975436D01*
X4346563Y-12975436D02*
X4337039Y-12956388D01*
X4337039Y-12956388D02*
X4327515Y-12918293D01*
X4327515Y-12918293D02*
X4327515Y-12870674D01*
X4327515Y-12870674D02*
X4337039Y-12832579D01*
X4337039Y-12832579D02*
X4346563Y-12813531D01*
X4346563Y-12813531D02*
X4356087Y-12804008D01*
X4356087Y-12804008D02*
X4375134Y-12794484D01*
X4527515Y-12975436D02*
X4537039Y-12984960D01*
X4537039Y-12984960D02*
X4527515Y-12994484D01*
X4527515Y-12994484D02*
X4517991Y-12984960D01*
X4517991Y-12984960D02*
X4527515Y-12975436D01*
X4527515Y-12975436D02*
X4527515Y-12994484D01*
X4660848Y-12794484D02*
X4679896Y-12794484D01*
X4679896Y-12794484D02*
X4698944Y-12804008D01*
X4698944Y-12804008D02*
X4708468Y-12813531D01*
X4708468Y-12813531D02*
X4717991Y-12832579D01*
X4717991Y-12832579D02*
X4727515Y-12870674D01*
X4727515Y-12870674D02*
X4727515Y-12918293D01*
X4727515Y-12918293D02*
X4717991Y-12956388D01*
X4717991Y-12956388D02*
X4708468Y-12975436D01*
X4708468Y-12975436D02*
X4698944Y-12984960D01*
X4698944Y-12984960D02*
X4679896Y-12994484D01*
X4679896Y-12994484D02*
X4660848Y-12994484D01*
X4660848Y-12994484D02*
X4641801Y-12984960D01*
X4641801Y-12984960D02*
X4632277Y-12975436D01*
X4632277Y-12975436D02*
X4622753Y-12956388D01*
X4622753Y-12956388D02*
X4613229Y-12918293D01*
X4613229Y-12918293D02*
X4613229Y-12870674D01*
X4613229Y-12870674D02*
X4622753Y-12832579D01*
X4622753Y-12832579D02*
X4632277Y-12813531D01*
X4632277Y-12813531D02*
X4641801Y-12804008D01*
X4641801Y-12804008D02*
X4660848Y-12794484D01*
X4908468Y-12794484D02*
X4813229Y-12794484D01*
X4813229Y-12794484D02*
X4803706Y-12889722D01*
X4803706Y-12889722D02*
X4813229Y-12880198D01*
X4813229Y-12880198D02*
X4832277Y-12870674D01*
X4832277Y-12870674D02*
X4879896Y-12870674D01*
X4879896Y-12870674D02*
X4898944Y-12880198D01*
X4898944Y-12880198D02*
X4908468Y-12889722D01*
X4908468Y-12889722D02*
X4917991Y-12908769D01*
X4917991Y-12908769D02*
X4917991Y-12956388D01*
X4917991Y-12956388D02*
X4908468Y-12975436D01*
X4908468Y-12975436D02*
X4898944Y-12984960D01*
X4898944Y-12984960D02*
X4879896Y-12994484D01*
X4879896Y-12994484D02*
X4832277Y-12994484D01*
X4832277Y-12994484D02*
X4813229Y-12984960D01*
X4813229Y-12984960D02*
X4803706Y-12975436D01*
X5013229Y-12994484D02*
X5051325Y-12994484D01*
X5051325Y-12994484D02*
X5070372Y-12984960D01*
X5070372Y-12984960D02*
X5079896Y-12975436D01*
X5079896Y-12975436D02*
X5098944Y-12946865D01*
X5098944Y-12946865D02*
X5108468Y-12908769D01*
X5108468Y-12908769D02*
X5108468Y-12832579D01*
X5108468Y-12832579D02*
X5098944Y-12813531D01*
X5098944Y-12813531D02*
X5089420Y-12804008D01*
X5089420Y-12804008D02*
X5070372Y-12794484D01*
X5070372Y-12794484D02*
X5032277Y-12794484D01*
X5032277Y-12794484D02*
X5013229Y-12804008D01*
X5013229Y-12804008D02*
X5003706Y-12813531D01*
X5003706Y-12813531D02*
X4994182Y-12832579D01*
X4994182Y-12832579D02*
X4994182Y-12880198D01*
X4994182Y-12880198D02*
X5003706Y-12899246D01*
X5003706Y-12899246D02*
X5013229Y-12908769D01*
X5013229Y-12908769D02*
X5032277Y-12918293D01*
X5032277Y-12918293D02*
X5070372Y-12918293D01*
X5070372Y-12918293D02*
X5089420Y-12908769D01*
X5089420Y-12908769D02*
X5098944Y-12899246D01*
X5098944Y-12899246D02*
X5108468Y-12880198D01*
X5298944Y-12994484D02*
X5184658Y-12994484D01*
X5241801Y-12994484D02*
X5241801Y-12794484D01*
X5241801Y-12794484D02*
X5222753Y-12823055D01*
X5222753Y-12823055D02*
X5203706Y-12842103D01*
X5203706Y-12842103D02*
X5184658Y-12851627D01*
X5375134Y-12794484D02*
X5375134Y-12832579D01*
X5451325Y-12794484D02*
X5451325Y-12832579D01*
X5746563Y-13070674D02*
X5737039Y-13061150D01*
X5737039Y-13061150D02*
X5717991Y-13032579D01*
X5717991Y-13032579D02*
X5708468Y-13013531D01*
X5708468Y-13013531D02*
X5698944Y-12984960D01*
X5698944Y-12984960D02*
X5689420Y-12937341D01*
X5689420Y-12937341D02*
X5689420Y-12899246D01*
X5689420Y-12899246D02*
X5698944Y-12851627D01*
X5698944Y-12851627D02*
X5708468Y-12823055D01*
X5708468Y-12823055D02*
X5717991Y-12804008D01*
X5717991Y-12804008D02*
X5737039Y-12775436D01*
X5737039Y-12775436D02*
X5746563Y-12765912D01*
X5908468Y-12794484D02*
X5870372Y-12794484D01*
X5870372Y-12794484D02*
X5851325Y-12804008D01*
X5851325Y-12804008D02*
X5841801Y-12813531D01*
X5841801Y-12813531D02*
X5822753Y-12842103D01*
X5822753Y-12842103D02*
X5813229Y-12880198D01*
X5813229Y-12880198D02*
X5813229Y-12956388D01*
X5813229Y-12956388D02*
X5822753Y-12975436D01*
X5822753Y-12975436D02*
X5832277Y-12984960D01*
X5832277Y-12984960D02*
X5851325Y-12994484D01*
X5851325Y-12994484D02*
X5889420Y-12994484D01*
X5889420Y-12994484D02*
X5908468Y-12984960D01*
X5908468Y-12984960D02*
X5917991Y-12975436D01*
X5917991Y-12975436D02*
X5927515Y-12956388D01*
X5927515Y-12956388D02*
X5927515Y-12908769D01*
X5927515Y-12908769D02*
X5917991Y-12889722D01*
X5917991Y-12889722D02*
X5908468Y-12880198D01*
X5908468Y-12880198D02*
X5889420Y-12870674D01*
X5889420Y-12870674D02*
X5851325Y-12870674D01*
X5851325Y-12870674D02*
X5832277Y-12880198D01*
X5832277Y-12880198D02*
X5822753Y-12889722D01*
X5822753Y-12889722D02*
X5813229Y-12908769D01*
X6165610Y-12994484D02*
X6165610Y-12794484D01*
X6251325Y-12994484D02*
X6251325Y-12889722D01*
X6251325Y-12889722D02*
X6241801Y-12870674D01*
X6241801Y-12870674D02*
X6222753Y-12861150D01*
X6222753Y-12861150D02*
X6194182Y-12861150D01*
X6194182Y-12861150D02*
X6175134Y-12870674D01*
X6175134Y-12870674D02*
X6165610Y-12880198D01*
X6375134Y-12994484D02*
X6356087Y-12984960D01*
X6356087Y-12984960D02*
X6346563Y-12975436D01*
X6346563Y-12975436D02*
X6337039Y-12956388D01*
X6337039Y-12956388D02*
X6337039Y-12899246D01*
X6337039Y-12899246D02*
X6346563Y-12880198D01*
X6346563Y-12880198D02*
X6356087Y-12870674D01*
X6356087Y-12870674D02*
X6375134Y-12861150D01*
X6375134Y-12861150D02*
X6403706Y-12861150D01*
X6403706Y-12861150D02*
X6422753Y-12870674D01*
X6422753Y-12870674D02*
X6432277Y-12880198D01*
X6432277Y-12880198D02*
X6441801Y-12899246D01*
X6441801Y-12899246D02*
X6441801Y-12956388D01*
X6441801Y-12956388D02*
X6432277Y-12975436D01*
X6432277Y-12975436D02*
X6422753Y-12984960D01*
X6422753Y-12984960D02*
X6403706Y-12994484D01*
X6403706Y-12994484D02*
X6375134Y-12994484D01*
X6556087Y-12994484D02*
X6537039Y-12984960D01*
X6537039Y-12984960D02*
X6527515Y-12965912D01*
X6527515Y-12965912D02*
X6527515Y-12794484D01*
X6708468Y-12984960D02*
X6689420Y-12994484D01*
X6689420Y-12994484D02*
X6651325Y-12994484D01*
X6651325Y-12994484D02*
X6632277Y-12984960D01*
X6632277Y-12984960D02*
X6622753Y-12965912D01*
X6622753Y-12965912D02*
X6622753Y-12889722D01*
X6622753Y-12889722D02*
X6632277Y-12870674D01*
X6632277Y-12870674D02*
X6651325Y-12861150D01*
X6651325Y-12861150D02*
X6689420Y-12861150D01*
X6689420Y-12861150D02*
X6708468Y-12870674D01*
X6708468Y-12870674D02*
X6717991Y-12889722D01*
X6717991Y-12889722D02*
X6717991Y-12908769D01*
X6717991Y-12908769D02*
X6622753Y-12927817D01*
X6794182Y-12984960D02*
X6813230Y-12994484D01*
X6813230Y-12994484D02*
X6851325Y-12994484D01*
X6851325Y-12994484D02*
X6870372Y-12984960D01*
X6870372Y-12984960D02*
X6879896Y-12965912D01*
X6879896Y-12965912D02*
X6879896Y-12956388D01*
X6879896Y-12956388D02*
X6870372Y-12937341D01*
X6870372Y-12937341D02*
X6851325Y-12927817D01*
X6851325Y-12927817D02*
X6822753Y-12927817D01*
X6822753Y-12927817D02*
X6803706Y-12918293D01*
X6803706Y-12918293D02*
X6794182Y-12899246D01*
X6794182Y-12899246D02*
X6794182Y-12889722D01*
X6794182Y-12889722D02*
X6803706Y-12870674D01*
X6803706Y-12870674D02*
X6822753Y-12861150D01*
X6822753Y-12861150D02*
X6851325Y-12861150D01*
X6851325Y-12861150D02*
X6870372Y-12870674D01*
X6946563Y-13070674D02*
X6956087Y-13061150D01*
X6956087Y-13061150D02*
X6975134Y-13032579D01*
X6975134Y-13032579D02*
X6984658Y-13013531D01*
X6984658Y-13013531D02*
X6994182Y-12984960D01*
X6994182Y-12984960D02*
X7003706Y-12937341D01*
X7003706Y-12937341D02*
X7003706Y-12899246D01*
X7003706Y-12899246D02*
X6994182Y-12851627D01*
X6994182Y-12851627D02*
X6984658Y-12823055D01*
X6984658Y-12823055D02*
X6975134Y-12804008D01*
X6975134Y-12804008D02*
X6956087Y-12775436D01*
X6956087Y-12775436D02*
X6946563Y-12765912D01*
X2071500Y-13273000D02*
X2171500Y-13173000D01*
X2071500Y-13073000D01*
X1971500Y-13173000D01*
X2071500Y-13273000D01*
X2422753Y-13083531D02*
X2432277Y-13074008D01*
X2432277Y-13074008D02*
X2451324Y-13064484D01*
X2451324Y-13064484D02*
X2498944Y-13064484D01*
X2498944Y-13064484D02*
X2517991Y-13074008D01*
X2517991Y-13074008D02*
X2527515Y-13083531D01*
X2527515Y-13083531D02*
X2537039Y-13102579D01*
X2537039Y-13102579D02*
X2537039Y-13121627D01*
X2537039Y-13121627D02*
X2527515Y-13150198D01*
X2527515Y-13150198D02*
X2413229Y-13264484D01*
X2413229Y-13264484D02*
X2537039Y-13264484D01*
X2622753Y-13245436D02*
X2632277Y-13254960D01*
X2632277Y-13254960D02*
X2622753Y-13264484D01*
X2622753Y-13264484D02*
X2613229Y-13254960D01*
X2613229Y-13254960D02*
X2622753Y-13245436D01*
X2622753Y-13245436D02*
X2622753Y-13264484D01*
X2756086Y-13064484D02*
X2775134Y-13064484D01*
X2775134Y-13064484D02*
X2794182Y-13074008D01*
X2794182Y-13074008D02*
X2803705Y-13083531D01*
X2803705Y-13083531D02*
X2813229Y-13102579D01*
X2813229Y-13102579D02*
X2822753Y-13140674D01*
X2822753Y-13140674D02*
X2822753Y-13188293D01*
X2822753Y-13188293D02*
X2813229Y-13226388D01*
X2813229Y-13226388D02*
X2803705Y-13245436D01*
X2803705Y-13245436D02*
X2794182Y-13254960D01*
X2794182Y-13254960D02*
X2775134Y-13264484D01*
X2775134Y-13264484D02*
X2756086Y-13264484D01*
X2756086Y-13264484D02*
X2737039Y-13254960D01*
X2737039Y-13254960D02*
X2727515Y-13245436D01*
X2727515Y-13245436D02*
X2717991Y-13226388D01*
X2717991Y-13226388D02*
X2708467Y-13188293D01*
X2708467Y-13188293D02*
X2708467Y-13140674D01*
X2708467Y-13140674D02*
X2717991Y-13102579D01*
X2717991Y-13102579D02*
X2727515Y-13083531D01*
X2727515Y-13083531D02*
X2737039Y-13074008D01*
X2737039Y-13074008D02*
X2756086Y-13064484D01*
X2946562Y-13064484D02*
X2965610Y-13064484D01*
X2965610Y-13064484D02*
X2984658Y-13074008D01*
X2984658Y-13074008D02*
X2994182Y-13083531D01*
X2994182Y-13083531D02*
X3003705Y-13102579D01*
X3003705Y-13102579D02*
X3013229Y-13140674D01*
X3013229Y-13140674D02*
X3013229Y-13188293D01*
X3013229Y-13188293D02*
X3003705Y-13226388D01*
X3003705Y-13226388D02*
X2994182Y-13245436D01*
X2994182Y-13245436D02*
X2984658Y-13254960D01*
X2984658Y-13254960D02*
X2965610Y-13264484D01*
X2965610Y-13264484D02*
X2946562Y-13264484D01*
X2946562Y-13264484D02*
X2927515Y-13254960D01*
X2927515Y-13254960D02*
X2917991Y-13245436D01*
X2917991Y-13245436D02*
X2908467Y-13226388D01*
X2908467Y-13226388D02*
X2898943Y-13188293D01*
X2898943Y-13188293D02*
X2898943Y-13140674D01*
X2898943Y-13140674D02*
X2908467Y-13102579D01*
X2908467Y-13102579D02*
X2917991Y-13083531D01*
X2917991Y-13083531D02*
X2927515Y-13074008D01*
X2927515Y-13074008D02*
X2946562Y-13064484D01*
X3137039Y-13064484D02*
X3156086Y-13064484D01*
X3156086Y-13064484D02*
X3175134Y-13074008D01*
X3175134Y-13074008D02*
X3184658Y-13083531D01*
X3184658Y-13083531D02*
X3194182Y-13102579D01*
X3194182Y-13102579D02*
X3203705Y-13140674D01*
X3203705Y-13140674D02*
X3203705Y-13188293D01*
X3203705Y-13188293D02*
X3194182Y-13226388D01*
X3194182Y-13226388D02*
X3184658Y-13245436D01*
X3184658Y-13245436D02*
X3175134Y-13254960D01*
X3175134Y-13254960D02*
X3156086Y-13264484D01*
X3156086Y-13264484D02*
X3137039Y-13264484D01*
X3137039Y-13264484D02*
X3117991Y-13254960D01*
X3117991Y-13254960D02*
X3108467Y-13245436D01*
X3108467Y-13245436D02*
X3098943Y-13226388D01*
X3098943Y-13226388D02*
X3089420Y-13188293D01*
X3089420Y-13188293D02*
X3089420Y-13140674D01*
X3089420Y-13140674D02*
X3098943Y-13102579D01*
X3098943Y-13102579D02*
X3108467Y-13083531D01*
X3108467Y-13083531D02*
X3117991Y-13074008D01*
X3117991Y-13074008D02*
X3137039Y-13064484D01*
X3289420Y-13264484D02*
X3289420Y-13131150D01*
X3289420Y-13150198D02*
X3298943Y-13140674D01*
X3298943Y-13140674D02*
X3317991Y-13131150D01*
X3317991Y-13131150D02*
X3346563Y-13131150D01*
X3346563Y-13131150D02*
X3365610Y-13140674D01*
X3365610Y-13140674D02*
X3375134Y-13159722D01*
X3375134Y-13159722D02*
X3375134Y-13264484D01*
X3375134Y-13159722D02*
X3384658Y-13140674D01*
X3384658Y-13140674D02*
X3403705Y-13131150D01*
X3403705Y-13131150D02*
X3432277Y-13131150D01*
X3432277Y-13131150D02*
X3451324Y-13140674D01*
X3451324Y-13140674D02*
X3460848Y-13159722D01*
X3460848Y-13159722D02*
X3460848Y-13264484D01*
X3556086Y-13264484D02*
X3556086Y-13131150D01*
X3556086Y-13150198D02*
X3565610Y-13140674D01*
X3565610Y-13140674D02*
X3584658Y-13131150D01*
X3584658Y-13131150D02*
X3613229Y-13131150D01*
X3613229Y-13131150D02*
X3632277Y-13140674D01*
X3632277Y-13140674D02*
X3641801Y-13159722D01*
X3641801Y-13159722D02*
X3641801Y-13264484D01*
X3641801Y-13159722D02*
X3651324Y-13140674D01*
X3651324Y-13140674D02*
X3670372Y-13131150D01*
X3670372Y-13131150D02*
X3698943Y-13131150D01*
X3698943Y-13131150D02*
X3717991Y-13140674D01*
X3717991Y-13140674D02*
X3727515Y-13159722D01*
X3727515Y-13159722D02*
X3727515Y-13264484D01*
X4117991Y-13054960D02*
X3946563Y-13312103D01*
X4375134Y-13064484D02*
X4394182Y-13064484D01*
X4394182Y-13064484D02*
X4413229Y-13074008D01*
X4413229Y-13074008D02*
X4422753Y-13083531D01*
X4422753Y-13083531D02*
X4432277Y-13102579D01*
X4432277Y-13102579D02*
X4441801Y-13140674D01*
X4441801Y-13140674D02*
X4441801Y-13188293D01*
X4441801Y-13188293D02*
X4432277Y-13226388D01*
X4432277Y-13226388D02*
X4422753Y-13245436D01*
X4422753Y-13245436D02*
X4413229Y-13254960D01*
X4413229Y-13254960D02*
X4394182Y-13264484D01*
X4394182Y-13264484D02*
X4375134Y-13264484D01*
X4375134Y-13264484D02*
X4356087Y-13254960D01*
X4356087Y-13254960D02*
X4346563Y-13245436D01*
X4346563Y-13245436D02*
X4337039Y-13226388D01*
X4337039Y-13226388D02*
X4327515Y-13188293D01*
X4327515Y-13188293D02*
X4327515Y-13140674D01*
X4327515Y-13140674D02*
X4337039Y-13102579D01*
X4337039Y-13102579D02*
X4346563Y-13083531D01*
X4346563Y-13083531D02*
X4356087Y-13074008D01*
X4356087Y-13074008D02*
X4375134Y-13064484D01*
X4527515Y-13245436D02*
X4537039Y-13254960D01*
X4537039Y-13254960D02*
X4527515Y-13264484D01*
X4527515Y-13264484D02*
X4517991Y-13254960D01*
X4517991Y-13254960D02*
X4527515Y-13245436D01*
X4527515Y-13245436D02*
X4527515Y-13264484D01*
X4660848Y-13064484D02*
X4679896Y-13064484D01*
X4679896Y-13064484D02*
X4698944Y-13074008D01*
X4698944Y-13074008D02*
X4708468Y-13083531D01*
X4708468Y-13083531D02*
X4717991Y-13102579D01*
X4717991Y-13102579D02*
X4727515Y-13140674D01*
X4727515Y-13140674D02*
X4727515Y-13188293D01*
X4727515Y-13188293D02*
X4717991Y-13226388D01*
X4717991Y-13226388D02*
X4708468Y-13245436D01*
X4708468Y-13245436D02*
X4698944Y-13254960D01*
X4698944Y-13254960D02*
X4679896Y-13264484D01*
X4679896Y-13264484D02*
X4660848Y-13264484D01*
X4660848Y-13264484D02*
X4641801Y-13254960D01*
X4641801Y-13254960D02*
X4632277Y-13245436D01*
X4632277Y-13245436D02*
X4622753Y-13226388D01*
X4622753Y-13226388D02*
X4613229Y-13188293D01*
X4613229Y-13188293D02*
X4613229Y-13140674D01*
X4613229Y-13140674D02*
X4622753Y-13102579D01*
X4622753Y-13102579D02*
X4632277Y-13083531D01*
X4632277Y-13083531D02*
X4641801Y-13074008D01*
X4641801Y-13074008D02*
X4660848Y-13064484D01*
X4794182Y-13064484D02*
X4927515Y-13064484D01*
X4927515Y-13064484D02*
X4841801Y-13264484D01*
X5032277Y-13150198D02*
X5013229Y-13140674D01*
X5013229Y-13140674D02*
X5003706Y-13131150D01*
X5003706Y-13131150D02*
X4994182Y-13112103D01*
X4994182Y-13112103D02*
X4994182Y-13102579D01*
X4994182Y-13102579D02*
X5003706Y-13083531D01*
X5003706Y-13083531D02*
X5013229Y-13074008D01*
X5013229Y-13074008D02*
X5032277Y-13064484D01*
X5032277Y-13064484D02*
X5070372Y-13064484D01*
X5070372Y-13064484D02*
X5089420Y-13074008D01*
X5089420Y-13074008D02*
X5098944Y-13083531D01*
X5098944Y-13083531D02*
X5108468Y-13102579D01*
X5108468Y-13102579D02*
X5108468Y-13112103D01*
X5108468Y-13112103D02*
X5098944Y-13131150D01*
X5098944Y-13131150D02*
X5089420Y-13140674D01*
X5089420Y-13140674D02*
X5070372Y-13150198D01*
X5070372Y-13150198D02*
X5032277Y-13150198D01*
X5032277Y-13150198D02*
X5013229Y-13159722D01*
X5013229Y-13159722D02*
X5003706Y-13169246D01*
X5003706Y-13169246D02*
X4994182Y-13188293D01*
X4994182Y-13188293D02*
X4994182Y-13226388D01*
X4994182Y-13226388D02*
X5003706Y-13245436D01*
X5003706Y-13245436D02*
X5013229Y-13254960D01*
X5013229Y-13254960D02*
X5032277Y-13264484D01*
X5032277Y-13264484D02*
X5070372Y-13264484D01*
X5070372Y-13264484D02*
X5089420Y-13254960D01*
X5089420Y-13254960D02*
X5098944Y-13245436D01*
X5098944Y-13245436D02*
X5108468Y-13226388D01*
X5108468Y-13226388D02*
X5108468Y-13188293D01*
X5108468Y-13188293D02*
X5098944Y-13169246D01*
X5098944Y-13169246D02*
X5089420Y-13159722D01*
X5089420Y-13159722D02*
X5070372Y-13150198D01*
X5175134Y-13064484D02*
X5308468Y-13064484D01*
X5308468Y-13064484D02*
X5222753Y-13264484D01*
X5375134Y-13064484D02*
X5375134Y-13102579D01*
X5451325Y-13064484D02*
X5451325Y-13102579D01*
X5746563Y-13340674D02*
X5737039Y-13331150D01*
X5737039Y-13331150D02*
X5717991Y-13302579D01*
X5717991Y-13302579D02*
X5708468Y-13283531D01*
X5708468Y-13283531D02*
X5698944Y-13254960D01*
X5698944Y-13254960D02*
X5689420Y-13207341D01*
X5689420Y-13207341D02*
X5689420Y-13169246D01*
X5689420Y-13169246D02*
X5698944Y-13121627D01*
X5698944Y-13121627D02*
X5708468Y-13093055D01*
X5708468Y-13093055D02*
X5717991Y-13074008D01*
X5717991Y-13074008D02*
X5737039Y-13045436D01*
X5737039Y-13045436D02*
X5746563Y-13035912D01*
X5908468Y-13064484D02*
X5870372Y-13064484D01*
X5870372Y-13064484D02*
X5851325Y-13074008D01*
X5851325Y-13074008D02*
X5841801Y-13083531D01*
X5841801Y-13083531D02*
X5822753Y-13112103D01*
X5822753Y-13112103D02*
X5813229Y-13150198D01*
X5813229Y-13150198D02*
X5813229Y-13226388D01*
X5813229Y-13226388D02*
X5822753Y-13245436D01*
X5822753Y-13245436D02*
X5832277Y-13254960D01*
X5832277Y-13254960D02*
X5851325Y-13264484D01*
X5851325Y-13264484D02*
X5889420Y-13264484D01*
X5889420Y-13264484D02*
X5908468Y-13254960D01*
X5908468Y-13254960D02*
X5917991Y-13245436D01*
X5917991Y-13245436D02*
X5927515Y-13226388D01*
X5927515Y-13226388D02*
X5927515Y-13178769D01*
X5927515Y-13178769D02*
X5917991Y-13159722D01*
X5917991Y-13159722D02*
X5908468Y-13150198D01*
X5908468Y-13150198D02*
X5889420Y-13140674D01*
X5889420Y-13140674D02*
X5851325Y-13140674D01*
X5851325Y-13140674D02*
X5832277Y-13150198D01*
X5832277Y-13150198D02*
X5822753Y-13159722D01*
X5822753Y-13159722D02*
X5813229Y-13178769D01*
X6165610Y-13264484D02*
X6165610Y-13064484D01*
X6251325Y-13264484D02*
X6251325Y-13159722D01*
X6251325Y-13159722D02*
X6241801Y-13140674D01*
X6241801Y-13140674D02*
X6222753Y-13131150D01*
X6222753Y-13131150D02*
X6194182Y-13131150D01*
X6194182Y-13131150D02*
X6175134Y-13140674D01*
X6175134Y-13140674D02*
X6165610Y-13150198D01*
X6375134Y-13264484D02*
X6356087Y-13254960D01*
X6356087Y-13254960D02*
X6346563Y-13245436D01*
X6346563Y-13245436D02*
X6337039Y-13226388D01*
X6337039Y-13226388D02*
X6337039Y-13169246D01*
X6337039Y-13169246D02*
X6346563Y-13150198D01*
X6346563Y-13150198D02*
X6356087Y-13140674D01*
X6356087Y-13140674D02*
X6375134Y-13131150D01*
X6375134Y-13131150D02*
X6403706Y-13131150D01*
X6403706Y-13131150D02*
X6422753Y-13140674D01*
X6422753Y-13140674D02*
X6432277Y-13150198D01*
X6432277Y-13150198D02*
X6441801Y-13169246D01*
X6441801Y-13169246D02*
X6441801Y-13226388D01*
X6441801Y-13226388D02*
X6432277Y-13245436D01*
X6432277Y-13245436D02*
X6422753Y-13254960D01*
X6422753Y-13254960D02*
X6403706Y-13264484D01*
X6403706Y-13264484D02*
X6375134Y-13264484D01*
X6556087Y-13264484D02*
X6537039Y-13254960D01*
X6537039Y-13254960D02*
X6527515Y-13235912D01*
X6527515Y-13235912D02*
X6527515Y-13064484D01*
X6708468Y-13254960D02*
X6689420Y-13264484D01*
X6689420Y-13264484D02*
X6651325Y-13264484D01*
X6651325Y-13264484D02*
X6632277Y-13254960D01*
X6632277Y-13254960D02*
X6622753Y-13235912D01*
X6622753Y-13235912D02*
X6622753Y-13159722D01*
X6622753Y-13159722D02*
X6632277Y-13140674D01*
X6632277Y-13140674D02*
X6651325Y-13131150D01*
X6651325Y-13131150D02*
X6689420Y-13131150D01*
X6689420Y-13131150D02*
X6708468Y-13140674D01*
X6708468Y-13140674D02*
X6717991Y-13159722D01*
X6717991Y-13159722D02*
X6717991Y-13178769D01*
X6717991Y-13178769D02*
X6622753Y-13197817D01*
X6794182Y-13254960D02*
X6813230Y-13264484D01*
X6813230Y-13264484D02*
X6851325Y-13264484D01*
X6851325Y-13264484D02*
X6870372Y-13254960D01*
X6870372Y-13254960D02*
X6879896Y-13235912D01*
X6879896Y-13235912D02*
X6879896Y-13226388D01*
X6879896Y-13226388D02*
X6870372Y-13207341D01*
X6870372Y-13207341D02*
X6851325Y-13197817D01*
X6851325Y-13197817D02*
X6822753Y-13197817D01*
X6822753Y-13197817D02*
X6803706Y-13188293D01*
X6803706Y-13188293D02*
X6794182Y-13169246D01*
X6794182Y-13169246D02*
X6794182Y-13159722D01*
X6794182Y-13159722D02*
X6803706Y-13140674D01*
X6803706Y-13140674D02*
X6822753Y-13131150D01*
X6822753Y-13131150D02*
X6851325Y-13131150D01*
X6851325Y-13131150D02*
X6870372Y-13140674D01*
X6946563Y-13340674D02*
X6956087Y-13331150D01*
X6956087Y-13331150D02*
X6975134Y-13302579D01*
X6975134Y-13302579D02*
X6984658Y-13283531D01*
X6984658Y-13283531D02*
X6994182Y-13254960D01*
X6994182Y-13254960D02*
X7003706Y-13207341D01*
X7003706Y-13207341D02*
X7003706Y-13169246D01*
X7003706Y-13169246D02*
X6994182Y-13121627D01*
X6994182Y-13121627D02*
X6984658Y-13093055D01*
X6984658Y-13093055D02*
X6975134Y-13074008D01*
X6975134Y-13074008D02*
X6956087Y-13045436D01*
X6956087Y-13045436D02*
X6946563Y-13035912D01*
M02*
