G04 #@! TF.GenerationSoftware,KiCad,Pcbnew,7.0.7*
G04 #@! TF.CreationDate,2024-05-01T20:55:32+03:00*
G04 #@! TF.ProjectId,pico-hd-mcu-v2,7069636f-2d68-4642-9d6d-63752d76322e,rev?*
G04 #@! TF.SameCoordinates,Original*
G04 #@! TF.FileFunction,Copper,L2,Bot*
G04 #@! TF.FilePolarity,Positive*
%FSLAX46Y46*%
G04 Gerber Fmt 4.6, Leading zero omitted, Abs format (unit mm)*
G04 Created by KiCad (PCBNEW 7.0.7) date 2024-05-01 20:55:32*
%MOMM*%
%LPD*%
G01*
G04 APERTURE LIST*
G04 Aperture macros list*
%AMOutline4P*
0 Free polygon, 4 corners , with rotation*
0 The origin of the aperture is its center*
0 number of corners: always 4*
0 $1 to $8 corner X, Y*
0 $9 Rotation angle, in degrees counterclockwise*
0 create outline with 4 corners*
4,1,4,$1,$2,$3,$4,$5,$6,$7,$8,$1,$2,$9*%
%AMOutline5P*
0 Free polygon, 5 corners , with rotation*
0 The origin of the aperture is its center*
0 number of corners: always 5*
0 $1 to $10 corner X, Y*
0 $11 Rotation angle, in degrees counterclockwise*
0 create outline with 5 corners*
4,1,5,$1,$2,$3,$4,$5,$6,$7,$8,$9,$10,$1,$2,$11*%
%AMOutline6P*
0 Free polygon, 6 corners , with rotation*
0 The origin of the aperture is its center*
0 number of corners: always 6*
0 $1 to $12 corner X, Y*
0 $13 Rotation angle, in degrees counterclockwise*
0 create outline with 6 corners*
4,1,6,$1,$2,$3,$4,$5,$6,$7,$8,$9,$10,$11,$12,$1,$2,$13*%
%AMOutline7P*
0 Free polygon, 7 corners , with rotation*
0 The origin of the aperture is its center*
0 number of corners: always 7*
0 $1 to $14 corner X, Y*
0 $15 Rotation angle, in degrees counterclockwise*
0 create outline with 7 corners*
4,1,7,$1,$2,$3,$4,$5,$6,$7,$8,$9,$10,$11,$12,$13,$14,$1,$2,$15*%
%AMOutline8P*
0 Free polygon, 8 corners , with rotation*
0 The origin of the aperture is its center*
0 number of corners: always 8*
0 $1 to $16 corner X, Y*
0 $17 Rotation angle, in degrees counterclockwise*
0 create outline with 8 corners*
4,1,8,$1,$2,$3,$4,$5,$6,$7,$8,$9,$10,$11,$12,$13,$14,$15,$16,$1,$2,$17*%
G04 Aperture macros list end*
G04 #@! TA.AperFunction,ComponentPad*
%ADD10C,1.700000*%
G04 #@! TD*
G04 #@! TA.AperFunction,ComponentPad*
%ADD11R,1.700000X1.700000*%
G04 #@! TD*
G04 #@! TA.AperFunction,ComponentPad*
%ADD12O,1.700000X1.700000*%
G04 #@! TD*
G04 #@! TA.AperFunction,ComponentPad*
%ADD13Outline5P,-0.850000X0.510000X-0.510000X0.850000X0.850000X0.850000X0.850000X-0.850000X-0.850000X-0.850000X180.000000*%
G04 #@! TD*
G04 #@! TA.AperFunction,ComponentPad*
%ADD14Outline5P,-0.850000X0.510000X-0.510000X0.850000X0.850000X0.850000X0.850000X-0.850000X-0.850000X-0.850000X0.000000*%
G04 #@! TD*
G04 #@! TA.AperFunction,ComponentPad*
%ADD15O,6.000000X2.000000*%
G04 #@! TD*
G04 #@! TA.AperFunction,ComponentPad*
%ADD16Outline5P,-0.850000X0.510000X-0.510000X0.850000X0.850000X0.850000X0.850000X-0.850000X-0.850000X-0.850000X90.000000*%
G04 #@! TD*
G04 #@! TA.AperFunction,ComponentPad*
%ADD17R,6.000000X2.000000*%
G04 #@! TD*
G04 #@! TA.AperFunction,ComponentPad*
%ADD18Outline4P,-0.850000X-0.850000X0.850000X-0.850000X0.850000X0.850000X-0.850000X0.850000X0.000000*%
G04 #@! TD*
G04 #@! TA.AperFunction,ComponentPad*
%ADD19O,1.600000X2.400000*%
G04 #@! TD*
G04 #@! TA.AperFunction,ComponentPad*
%ADD20R,1.600000X2.400000*%
G04 #@! TD*
G04 #@! TA.AperFunction,Conductor*
%ADD21C,1.000000*%
G04 #@! TD*
G04 #@! TA.AperFunction,Conductor*
%ADD22C,1.250000*%
G04 #@! TD*
G04 APERTURE END LIST*
D10*
X58390000Y-67710000D03*
D11*
X56390000Y-67710000D03*
D10*
X82607500Y-62992500D03*
D11*
X82607500Y-60452500D03*
D12*
X82607500Y-57912500D03*
X82607500Y-55372500D03*
D13*
X82607500Y-52832500D03*
D10*
X93197500Y-26002500D03*
D11*
X93197500Y-28542500D03*
D12*
X93197500Y-31082500D03*
X93197500Y-33622500D03*
D14*
X93197500Y-36162500D03*
D11*
X33085000Y-41372500D03*
D12*
X30545000Y-41372500D03*
X28005000Y-41372500D03*
X25465000Y-41372500D03*
D11*
X40105000Y-22112500D03*
D10*
X33095000Y-23912500D03*
D12*
X30555000Y-23912500D03*
X28015000Y-23912500D03*
X25475000Y-23912500D03*
X42645000Y-22112500D03*
D14*
X27885000Y-57177500D03*
X30425000Y-57177500D03*
D10*
X34160000Y-57300000D03*
D11*
X34160000Y-59300000D03*
D10*
X75197500Y-26002500D03*
D11*
X75197500Y-28542500D03*
D12*
X75197500Y-31082500D03*
X75197500Y-33622500D03*
D14*
X75197500Y-36162500D03*
D15*
X21615000Y-53102500D03*
D10*
X88607500Y-62992500D03*
D11*
X88607500Y-60452500D03*
D12*
X88607500Y-57912500D03*
X88607500Y-55372500D03*
D13*
X88607500Y-52832500D03*
D16*
X55060000Y-47080000D03*
X57600000Y-47080000D03*
D10*
X40860000Y-57290000D03*
D12*
X40860000Y-59830000D03*
D10*
X38357500Y-42507500D03*
D12*
X40897500Y-42507500D03*
D10*
X87197500Y-26002500D03*
D11*
X87197500Y-28542500D03*
D12*
X87197500Y-31082500D03*
X87197500Y-33622500D03*
D14*
X87197500Y-36162500D03*
D12*
X66602500Y-67507500D03*
X66602500Y-64967500D03*
D11*
X66602500Y-62427500D03*
D12*
X66602500Y-57347500D03*
X66602500Y-54807500D03*
X66602500Y-52267500D03*
D11*
X66602500Y-49727500D03*
D12*
X66602500Y-47187500D03*
X66602500Y-44647500D03*
X66602500Y-42107500D03*
X66602500Y-39567500D03*
D11*
X66602500Y-37027500D03*
D12*
X66602500Y-34487500D03*
X66602500Y-31947500D03*
X66602500Y-29407500D03*
X66602500Y-26867500D03*
D11*
X66602500Y-24327500D03*
D12*
X48822500Y-19247500D03*
X48822500Y-21787500D03*
D11*
X48822500Y-24327500D03*
D12*
X48822500Y-26867500D03*
X48822500Y-29407500D03*
X48822500Y-31947500D03*
X48822500Y-34487500D03*
D11*
X48822500Y-37027500D03*
D12*
X48822500Y-39567500D03*
X48822500Y-42107500D03*
X48822500Y-44647500D03*
X48822500Y-47187500D03*
D11*
X48822500Y-49727500D03*
D12*
X48822500Y-52267500D03*
X48822500Y-54807500D03*
X48822500Y-57347500D03*
X48822500Y-59887500D03*
D11*
X48822500Y-62427500D03*
D12*
X48822500Y-64967500D03*
X48822500Y-67507500D03*
D17*
X21570000Y-64780000D03*
D10*
X44040000Y-29540000D03*
X44040000Y-27000000D03*
D18*
X38357500Y-39867500D03*
D12*
X40897500Y-39867500D03*
D10*
X40775000Y-68555000D03*
D11*
X40775000Y-66015000D03*
D13*
X40775000Y-63475000D03*
D10*
X41140000Y-29587500D03*
D11*
X41140000Y-32127500D03*
D14*
X41140000Y-34667500D03*
D12*
X86080000Y-67490000D03*
X81000000Y-67490000D03*
X83540000Y-67490000D03*
X88620000Y-67490000D03*
D15*
X21595000Y-59827500D03*
X21690000Y-47480000D03*
D10*
X76607500Y-62992500D03*
D11*
X76607500Y-60452500D03*
D12*
X76607500Y-57912500D03*
X76607500Y-55372500D03*
D13*
X76607500Y-52832500D03*
D16*
X55080000Y-31740000D03*
X57620000Y-31740000D03*
D10*
X44052500Y-48220000D03*
D12*
X44052500Y-45680000D03*
D14*
X51125000Y-69757500D03*
X53665000Y-69757500D03*
D10*
X94607500Y-62992500D03*
D11*
X94607500Y-60452500D03*
D12*
X94607500Y-57912500D03*
X94607500Y-55372500D03*
D13*
X94607500Y-52832500D03*
D15*
X21600000Y-31550000D03*
X21567500Y-36785000D03*
D10*
X41165000Y-48132500D03*
D11*
X41165000Y-50672500D03*
D14*
X41165000Y-53212500D03*
D10*
X81197500Y-26002500D03*
D11*
X81197500Y-28542500D03*
D12*
X81197500Y-31082500D03*
X81197500Y-33622500D03*
D14*
X81197500Y-36162500D03*
D19*
X93275000Y-40562500D03*
X90735000Y-40562500D03*
X88195000Y-40562500D03*
X85655000Y-40562500D03*
X83115000Y-40562500D03*
X80575000Y-40562500D03*
D20*
X78035000Y-40562500D03*
X75495000Y-40562500D03*
D19*
X75495000Y-48182500D03*
X78035000Y-48182500D03*
X80575000Y-48182500D03*
X83115000Y-48182500D03*
X85655000Y-48182500D03*
X88195000Y-48182500D03*
X90735000Y-48182500D03*
X93275000Y-48182500D03*
D21*
X40105000Y-22112500D02*
X40155000Y-22162500D01*
X86080000Y-60482500D02*
X86110000Y-60452500D01*
X38200000Y-31090000D02*
X39237500Y-32127500D01*
X40775000Y-66015000D02*
X43910000Y-66015000D01*
X42702500Y-50672500D02*
X45420000Y-53390000D01*
X34160000Y-61060000D02*
X39115000Y-66015000D01*
X40160000Y-24327500D02*
X48822500Y-24327500D01*
X59252500Y-62427500D02*
X56390000Y-65290000D01*
X38200000Y-27997500D02*
X38200000Y-31090000D01*
X43545000Y-36552500D02*
X43545000Y-33032500D01*
X68402500Y-62427500D02*
X66602500Y-62427500D01*
X40135000Y-26092500D02*
X41870000Y-24357500D01*
X86080000Y-67490000D02*
X86080000Y-60482500D01*
X48822500Y-62427500D02*
X53527500Y-62427500D01*
X21570000Y-64780000D02*
X21590000Y-64800000D01*
X39237500Y-32127500D02*
X41140000Y-32127500D01*
X43545000Y-33032500D02*
X42640000Y-32127500D01*
X40155000Y-22162500D02*
X40155000Y-26042500D01*
X42565000Y-37532500D02*
X43545000Y-36552500D01*
X38357500Y-39867500D02*
X38357500Y-39390000D01*
X34160000Y-59300000D02*
X34160000Y-61060000D01*
X47497500Y-62427500D02*
X48822500Y-62427500D01*
X40215000Y-37532500D02*
X42565000Y-37532500D01*
X70377500Y-60452500D02*
X68402500Y-62427500D01*
X40155000Y-24322500D02*
X40990000Y-25157500D01*
X38357500Y-39390000D02*
X40215000Y-37532500D01*
X40155000Y-26042500D02*
X40105000Y-26092500D01*
X40105000Y-26092500D02*
X40135000Y-26092500D01*
X76607500Y-60452500D02*
X70377500Y-60452500D01*
X38357500Y-39867500D02*
X37782500Y-39867500D01*
X35820000Y-47067500D02*
X39425000Y-50672500D01*
X30420000Y-64800000D02*
X34160000Y-61060000D01*
X35820000Y-41830000D02*
X35820000Y-47067500D01*
X43910000Y-66015000D02*
X47497500Y-62427500D01*
X45420000Y-57800000D02*
X45420000Y-60350000D01*
X39115000Y-66015000D02*
X40775000Y-66015000D01*
X53527500Y-62427500D02*
X56390000Y-65290000D01*
X66602500Y-62427500D02*
X59252500Y-62427500D01*
X42640000Y-32127500D02*
X41140000Y-32127500D01*
X76607500Y-60452500D02*
X94607500Y-60452500D01*
X40105000Y-26092500D02*
X38200000Y-27997500D01*
X21590000Y-64800000D02*
X30420000Y-64800000D01*
X39425000Y-50672500D02*
X41165000Y-50672500D01*
X41165000Y-50672500D02*
X42702500Y-50672500D01*
X37782500Y-39867500D02*
X35820000Y-41830000D01*
X45420000Y-60350000D02*
X47497500Y-62427500D01*
X56390000Y-65290000D02*
X56390000Y-67710000D01*
X45420000Y-53390000D02*
X45420000Y-58250000D01*
D22*
X21725000Y-53212500D02*
X41165000Y-53212500D01*
X21690000Y-47480000D02*
X24040000Y-47480000D01*
X25505000Y-46015000D02*
X25505000Y-41412500D01*
X25505000Y-41412500D02*
X25465000Y-41372500D01*
X24040000Y-47480000D02*
X25505000Y-46015000D01*
D21*
X31190000Y-31550000D02*
X34307500Y-34667500D01*
X34307500Y-34667500D02*
X41140000Y-34667500D01*
X21600000Y-31550000D02*
X31190000Y-31550000D01*
X33085000Y-39252500D02*
X33085000Y-41372500D01*
X21567500Y-36785000D02*
X21575000Y-36777500D01*
X21575000Y-36777500D02*
X30610000Y-36777500D01*
X30610000Y-36777500D02*
X33085000Y-39252500D01*
X36455000Y-19752500D02*
X33095000Y-23112500D01*
X48822500Y-21787500D02*
X46580000Y-21787500D01*
X33095000Y-23112500D02*
X33095000Y-23912500D01*
X46580000Y-21787500D02*
X44545000Y-19752500D01*
X44545000Y-19752500D02*
X36455000Y-19752500D01*
X48822500Y-19247500D02*
X47677500Y-18102500D01*
X47677500Y-18102500D02*
X28625000Y-18102500D01*
X25475000Y-21252500D02*
X25475000Y-23912500D01*
X28625000Y-18102500D02*
X25475000Y-21252500D01*
X85655000Y-40562500D02*
X85655000Y-38710000D01*
X83107500Y-36162500D02*
X81197500Y-36162500D01*
X85655000Y-38710000D02*
X83107500Y-36162500D01*
X85655000Y-51340000D02*
X85655000Y-48182500D01*
X82607500Y-52832500D02*
X84162500Y-52832500D01*
X84162500Y-52832500D02*
X85655000Y-51340000D01*
X88607500Y-52832500D02*
X88607500Y-50462500D01*
X88225000Y-50080000D02*
X88225000Y-48212500D01*
X88225000Y-48212500D02*
X88195000Y-48182500D01*
X88607500Y-50462500D02*
X88225000Y-50080000D01*
X94607500Y-52832500D02*
X93127500Y-52832500D01*
X93127500Y-52832500D02*
X90735000Y-50440000D01*
X90735000Y-50440000D02*
X90735000Y-48182500D01*
X83115000Y-49690000D02*
X83115000Y-48182500D01*
X83115000Y-48182500D02*
X83075000Y-48222500D01*
X82305000Y-50500000D02*
X83115000Y-49690000D01*
X78272500Y-52832500D02*
X80605000Y-50500000D01*
X76607500Y-52832500D02*
X78272500Y-52832500D01*
X80605000Y-50500000D02*
X82305000Y-50500000D01*
X93275000Y-40562500D02*
X93275000Y-36240000D01*
X93275000Y-36240000D02*
X93197500Y-36162500D01*
X90735000Y-38570000D02*
X88327500Y-36162500D01*
X90735000Y-40562500D02*
X90735000Y-38570000D01*
X88327500Y-36162500D02*
X87197500Y-36162500D01*
X79355000Y-38450000D02*
X81895000Y-38450000D01*
X81895000Y-38450000D02*
X83115000Y-39670000D01*
X83115000Y-39670000D02*
X83115000Y-40562500D01*
X77067500Y-36162500D02*
X79355000Y-38450000D01*
X75197500Y-36162500D02*
X77067500Y-36162500D01*
X40897500Y-42507500D02*
X44480000Y-42507500D01*
X44480000Y-42507500D02*
X46620000Y-44647500D01*
X46620000Y-44647500D02*
X48822500Y-44647500D01*
X40897500Y-39867500D02*
X40897500Y-42507500D01*
X94607500Y-57912500D02*
X76607500Y-57912500D01*
X72802500Y-33622500D02*
X72160000Y-32980000D01*
X75197500Y-33622500D02*
X72802500Y-33622500D01*
X94872500Y-33622500D02*
X96820000Y-35570000D01*
X72160000Y-31000000D02*
X68027500Y-26867500D01*
X93197500Y-33622500D02*
X94872500Y-33622500D01*
X68027500Y-26867500D02*
X66602500Y-26867500D01*
X93197500Y-33622500D02*
X75197500Y-33622500D01*
X94607500Y-55372500D02*
X76607500Y-55372500D01*
X95757500Y-55372500D02*
X94607500Y-55372500D01*
X72160000Y-32980000D02*
X72160000Y-31000000D01*
X96820000Y-54310000D02*
X95757500Y-55372500D01*
X96820000Y-35570000D02*
X96820000Y-54310000D01*
X88195000Y-42175000D02*
X87380000Y-42990000D01*
X88195000Y-40562500D02*
X88195000Y-42175000D01*
X87380000Y-42990000D02*
X72200000Y-42990000D01*
X70250000Y-32090000D02*
X67567500Y-29407500D01*
X72200000Y-42990000D02*
X70250000Y-41040000D01*
X70250000Y-41040000D02*
X70250000Y-32090000D01*
X67567500Y-29407500D02*
X66602500Y-29407500D01*
M02*
