G04 #@! TF.GenerationSoftware,KiCad,Pcbnew,7.0.7*
G04 #@! TF.CreationDate,2024-05-08T02:06:39+03:00*
G04 #@! TF.ProjectId,pico-hd-mcu-v2,7069636f-2d68-4642-9d6d-63752d76322e,rev?*
G04 #@! TF.SameCoordinates,Original*
G04 #@! TF.FileFunction,Legend,Top*
G04 #@! TF.FilePolarity,Positive*
%FSLAX46Y46*%
G04 Gerber Fmt 4.6, Leading zero omitted, Abs format (unit mm)*
G04 Created by KiCad (PCBNEW 7.0.7) date 2024-05-08 02:06:39*
%MOMM*%
%LPD*%
G01*
G04 APERTURE LIST*
G04 Aperture macros list*
%AMOutline4P*
0 Free polygon, 4 corners , with rotation*
0 The origin of the aperture is its center*
0 number of corners: always 4*
0 $1 to $8 corner X, Y*
0 $9 Rotation angle, in degrees counterclockwise*
0 create outline with 4 corners*
4,1,4,$1,$2,$3,$4,$5,$6,$7,$8,$1,$2,$9*%
%AMOutline5P*
0 Free polygon, 5 corners , with rotation*
0 The origin of the aperture is its center*
0 number of corners: always 5*
0 $1 to $10 corner X, Y*
0 $11 Rotation angle, in degrees counterclockwise*
0 create outline with 5 corners*
4,1,5,$1,$2,$3,$4,$5,$6,$7,$8,$9,$10,$1,$2,$11*%
%AMOutline6P*
0 Free polygon, 6 corners , with rotation*
0 The origin of the aperture is its center*
0 number of corners: always 6*
0 $1 to $12 corner X, Y*
0 $13 Rotation angle, in degrees counterclockwise*
0 create outline with 6 corners*
4,1,6,$1,$2,$3,$4,$5,$6,$7,$8,$9,$10,$11,$12,$1,$2,$13*%
%AMOutline7P*
0 Free polygon, 7 corners , with rotation*
0 The origin of the aperture is its center*
0 number of corners: always 7*
0 $1 to $14 corner X, Y*
0 $15 Rotation angle, in degrees counterclockwise*
0 create outline with 7 corners*
4,1,7,$1,$2,$3,$4,$5,$6,$7,$8,$9,$10,$11,$12,$13,$14,$1,$2,$15*%
%AMOutline8P*
0 Free polygon, 8 corners , with rotation*
0 The origin of the aperture is its center*
0 number of corners: always 8*
0 $1 to $16 corner X, Y*
0 $17 Rotation angle, in degrees counterclockwise*
0 create outline with 8 corners*
4,1,8,$1,$2,$3,$4,$5,$6,$7,$8,$9,$10,$11,$12,$13,$14,$15,$16,$1,$2,$17*%
G04 Aperture macros list end*
%ADD10C,0.100000*%
%ADD11C,0.200000*%
%ADD12C,0.150000*%
%ADD13C,0.120000*%
%ADD14C,0.300000*%
%ADD15C,3.000000*%
%ADD16R,3.000000X3.000000*%
%ADD17C,1.700000*%
%ADD18R,1.700000X1.700000*%
%ADD19O,1.700000X1.700000*%
%ADD20Outline5P,-0.850000X0.510000X-0.510000X0.850000X0.850000X0.850000X0.850000X-0.850000X-0.850000X-0.850000X180.000000*%
%ADD21Outline5P,-0.850000X0.510000X-0.510000X0.850000X0.850000X0.850000X0.850000X-0.850000X-0.850000X-0.850000X0.000000*%
%ADD22O,6.000000X2.000000*%
%ADD23Outline5P,-0.850000X0.510000X-0.510000X0.850000X0.850000X0.850000X0.850000X-0.850000X-0.850000X-0.850000X90.000000*%
%ADD24R,6.000000X2.000000*%
%ADD25Outline4P,-0.850000X-0.850000X0.850000X-0.850000X0.850000X0.850000X-0.850000X0.850000X0.000000*%
%ADD26O,1.600000X2.400000*%
%ADD27R,1.600000X2.400000*%
G04 APERTURE END LIST*
D10*
X45075000Y-39042500D02*
X49635000Y-39042500D01*
X49635000Y-42842500D01*
X45075000Y-42842500D01*
X45075000Y-39042500D01*
X48985000Y-27932500D02*
X52785000Y-27932500D01*
X52785000Y-32492500D01*
X48985000Y-32492500D01*
X48985000Y-27932500D01*
D11*
X60995000Y-28610000D02*
X67155000Y-28610000D01*
X67155000Y-35490000D01*
X60995000Y-35490000D01*
X60995000Y-28610000D01*
X60975000Y-43950000D02*
X67135000Y-43950000D01*
X67135000Y-50830000D01*
X60975000Y-50830000D01*
X60975000Y-43950000D01*
D10*
X48997500Y-46612500D02*
X52797500Y-46612500D01*
X52797500Y-51172500D01*
X48997500Y-51172500D01*
X48997500Y-46612500D01*
D11*
X67180000Y-47060000D02*
X67180000Y-32060000D01*
D10*
X23970000Y-69700000D02*
X30910000Y-69700000D01*
X30910000Y-71740000D01*
X23970000Y-71740000D01*
X23970000Y-69700000D01*
X45057500Y-43417500D02*
X49577500Y-43417500D01*
X49577500Y-47227500D01*
X45057500Y-47227500D01*
X45057500Y-43417500D01*
X27340074Y-51832419D02*
X26863884Y-51832419D01*
X26863884Y-51832419D02*
X26863884Y-50832419D01*
X27673408Y-51832419D02*
X27673408Y-51165752D01*
X27673408Y-50832419D02*
X27625789Y-50880038D01*
X27625789Y-50880038D02*
X27673408Y-50927657D01*
X27673408Y-50927657D02*
X27721027Y-50880038D01*
X27721027Y-50880038D02*
X27673408Y-50832419D01*
X27673408Y-50832419D02*
X27673408Y-50927657D01*
X29054360Y-51260990D02*
X28959122Y-51213371D01*
X28959122Y-51213371D02*
X28911503Y-51165752D01*
X28911503Y-51165752D02*
X28863884Y-51070514D01*
X28863884Y-51070514D02*
X28863884Y-51022895D01*
X28863884Y-51022895D02*
X28911503Y-50927657D01*
X28911503Y-50927657D02*
X28959122Y-50880038D01*
X28959122Y-50880038D02*
X29054360Y-50832419D01*
X29054360Y-50832419D02*
X29244836Y-50832419D01*
X29244836Y-50832419D02*
X29340074Y-50880038D01*
X29340074Y-50880038D02*
X29387693Y-50927657D01*
X29387693Y-50927657D02*
X29435312Y-51022895D01*
X29435312Y-51022895D02*
X29435312Y-51070514D01*
X29435312Y-51070514D02*
X29387693Y-51165752D01*
X29387693Y-51165752D02*
X29340074Y-51213371D01*
X29340074Y-51213371D02*
X29244836Y-51260990D01*
X29244836Y-51260990D02*
X29054360Y-51260990D01*
X29054360Y-51260990D02*
X28959122Y-51308609D01*
X28959122Y-51308609D02*
X28911503Y-51356228D01*
X28911503Y-51356228D02*
X28863884Y-51451466D01*
X28863884Y-51451466D02*
X28863884Y-51641942D01*
X28863884Y-51641942D02*
X28911503Y-51737180D01*
X28911503Y-51737180D02*
X28959122Y-51784800D01*
X28959122Y-51784800D02*
X29054360Y-51832419D01*
X29054360Y-51832419D02*
X29244836Y-51832419D01*
X29244836Y-51832419D02*
X29340074Y-51784800D01*
X29340074Y-51784800D02*
X29387693Y-51737180D01*
X29387693Y-51737180D02*
X29435312Y-51641942D01*
X29435312Y-51641942D02*
X29435312Y-51451466D01*
X29435312Y-51451466D02*
X29387693Y-51356228D01*
X29387693Y-51356228D02*
X29340074Y-51308609D01*
X29340074Y-51308609D02*
X29244836Y-51260990D01*
X27294686Y-40497419D02*
X26961353Y-40021228D01*
X26723258Y-40497419D02*
X26723258Y-39497419D01*
X26723258Y-39497419D02*
X27104210Y-39497419D01*
X27104210Y-39497419D02*
X27199448Y-39545038D01*
X27199448Y-39545038D02*
X27247067Y-39592657D01*
X27247067Y-39592657D02*
X27294686Y-39687895D01*
X27294686Y-39687895D02*
X27294686Y-39830752D01*
X27294686Y-39830752D02*
X27247067Y-39925990D01*
X27247067Y-39925990D02*
X27199448Y-39973609D01*
X27199448Y-39973609D02*
X27104210Y-40021228D01*
X27104210Y-40021228D02*
X26723258Y-40021228D01*
X27866115Y-40497419D02*
X27770877Y-40449800D01*
X27770877Y-40449800D02*
X27723258Y-40402180D01*
X27723258Y-40402180D02*
X27675639Y-40306942D01*
X27675639Y-40306942D02*
X27675639Y-40021228D01*
X27675639Y-40021228D02*
X27723258Y-39925990D01*
X27723258Y-39925990D02*
X27770877Y-39878371D01*
X27770877Y-39878371D02*
X27866115Y-39830752D01*
X27866115Y-39830752D02*
X28008972Y-39830752D01*
X28008972Y-39830752D02*
X28104210Y-39878371D01*
X28104210Y-39878371D02*
X28151829Y-39925990D01*
X28151829Y-39925990D02*
X28199448Y-40021228D01*
X28199448Y-40021228D02*
X28199448Y-40306942D01*
X28199448Y-40306942D02*
X28151829Y-40402180D01*
X28151829Y-40402180D02*
X28104210Y-40449800D01*
X28104210Y-40449800D02*
X28008972Y-40497419D01*
X28008972Y-40497419D02*
X27866115Y-40497419D01*
X29294687Y-39497419D02*
X29913734Y-39497419D01*
X29913734Y-39497419D02*
X29580401Y-39878371D01*
X29580401Y-39878371D02*
X29723258Y-39878371D01*
X29723258Y-39878371D02*
X29818496Y-39925990D01*
X29818496Y-39925990D02*
X29866115Y-39973609D01*
X29866115Y-39973609D02*
X29913734Y-40068847D01*
X29913734Y-40068847D02*
X29913734Y-40306942D01*
X29913734Y-40306942D02*
X29866115Y-40402180D01*
X29866115Y-40402180D02*
X29818496Y-40449800D01*
X29818496Y-40449800D02*
X29723258Y-40497419D01*
X29723258Y-40497419D02*
X29437544Y-40497419D01*
X29437544Y-40497419D02*
X29342306Y-40449800D01*
X29342306Y-40449800D02*
X29294687Y-40402180D01*
X27544210Y-26897419D02*
X26972782Y-26897419D01*
X27258496Y-26897419D02*
X27258496Y-25897419D01*
X27258496Y-25897419D02*
X27163258Y-26040276D01*
X27163258Y-26040276D02*
X27068020Y-26135514D01*
X27068020Y-26135514D02*
X26972782Y-26183133D01*
X27925163Y-25992657D02*
X27972782Y-25945038D01*
X27972782Y-25945038D02*
X28068020Y-25897419D01*
X28068020Y-25897419D02*
X28306115Y-25897419D01*
X28306115Y-25897419D02*
X28401353Y-25945038D01*
X28401353Y-25945038D02*
X28448972Y-25992657D01*
X28448972Y-25992657D02*
X28496591Y-26087895D01*
X28496591Y-26087895D02*
X28496591Y-26183133D01*
X28496591Y-26183133D02*
X28448972Y-26325990D01*
X28448972Y-26325990D02*
X27877544Y-26897419D01*
X27877544Y-26897419D02*
X28496591Y-26897419D01*
X28782306Y-25897419D02*
X29115639Y-26897419D01*
X29115639Y-26897419D02*
X29448972Y-25897419D01*
X88353490Y-40447737D02*
X88305871Y-40542975D01*
X88305871Y-40542975D02*
X88258252Y-40590594D01*
X88258252Y-40590594D02*
X88163014Y-40638213D01*
X88163014Y-40638213D02*
X88115395Y-40638213D01*
X88115395Y-40638213D02*
X88020157Y-40590594D01*
X88020157Y-40590594D02*
X87972538Y-40542975D01*
X87972538Y-40542975D02*
X87924919Y-40447737D01*
X87924919Y-40447737D02*
X87924919Y-40257261D01*
X87924919Y-40257261D02*
X87972538Y-40162023D01*
X87972538Y-40162023D02*
X88020157Y-40114404D01*
X88020157Y-40114404D02*
X88115395Y-40066785D01*
X88115395Y-40066785D02*
X88163014Y-40066785D01*
X88163014Y-40066785D02*
X88258252Y-40114404D01*
X88258252Y-40114404D02*
X88305871Y-40162023D01*
X88305871Y-40162023D02*
X88353490Y-40257261D01*
X88353490Y-40257261D02*
X88353490Y-40447737D01*
X88353490Y-40447737D02*
X88401109Y-40542975D01*
X88401109Y-40542975D02*
X88448728Y-40590594D01*
X88448728Y-40590594D02*
X88543966Y-40638213D01*
X88543966Y-40638213D02*
X88734442Y-40638213D01*
X88734442Y-40638213D02*
X88829680Y-40590594D01*
X88829680Y-40590594D02*
X88877300Y-40542975D01*
X88877300Y-40542975D02*
X88924919Y-40447737D01*
X88924919Y-40447737D02*
X88924919Y-40257261D01*
X88924919Y-40257261D02*
X88877300Y-40162023D01*
X88877300Y-40162023D02*
X88829680Y-40114404D01*
X88829680Y-40114404D02*
X88734442Y-40066785D01*
X88734442Y-40066785D02*
X88543966Y-40066785D01*
X88543966Y-40066785D02*
X88448728Y-40114404D01*
X88448728Y-40114404D02*
X88401109Y-40162023D01*
X88401109Y-40162023D02*
X88353490Y-40257261D01*
X100984919Y-52685832D02*
X100984919Y-52066785D01*
X100984919Y-52066785D02*
X101365871Y-52400118D01*
X101365871Y-52400118D02*
X101365871Y-52257261D01*
X101365871Y-52257261D02*
X101413490Y-52162023D01*
X101413490Y-52162023D02*
X101461109Y-52114404D01*
X101461109Y-52114404D02*
X101556347Y-52066785D01*
X101556347Y-52066785D02*
X101794442Y-52066785D01*
X101794442Y-52066785D02*
X101889680Y-52114404D01*
X101889680Y-52114404D02*
X101937300Y-52162023D01*
X101937300Y-52162023D02*
X101984919Y-52257261D01*
X101984919Y-52257261D02*
X101984919Y-52542975D01*
X101984919Y-52542975D02*
X101937300Y-52638213D01*
X101937300Y-52638213D02*
X101889680Y-52685832D01*
X99924919Y-40114404D02*
X99924919Y-40590594D01*
X99924919Y-40590594D02*
X100401109Y-40638213D01*
X100401109Y-40638213D02*
X100353490Y-40590594D01*
X100353490Y-40590594D02*
X100305871Y-40495356D01*
X100305871Y-40495356D02*
X100305871Y-40257261D01*
X100305871Y-40257261D02*
X100353490Y-40162023D01*
X100353490Y-40162023D02*
X100401109Y-40114404D01*
X100401109Y-40114404D02*
X100496347Y-40066785D01*
X100496347Y-40066785D02*
X100734442Y-40066785D01*
X100734442Y-40066785D02*
X100829680Y-40114404D01*
X100829680Y-40114404D02*
X100877300Y-40162023D01*
X100877300Y-40162023D02*
X100924919Y-40257261D01*
X100924919Y-40257261D02*
X100924919Y-40495356D01*
X100924919Y-40495356D02*
X100877300Y-40590594D01*
X100877300Y-40590594D02*
X100829680Y-40638213D01*
X83438252Y-52262023D02*
X84104919Y-52262023D01*
X83057300Y-52500118D02*
X83771585Y-52738213D01*
X83771585Y-52738213D02*
X83771585Y-52119166D01*
X27352424Y-46142419D02*
X26876234Y-46142419D01*
X26876234Y-46142419D02*
X26876234Y-45142419D01*
X27828615Y-46142419D02*
X27733377Y-46094800D01*
X27733377Y-46094800D02*
X27685758Y-46047180D01*
X27685758Y-46047180D02*
X27638139Y-45951942D01*
X27638139Y-45951942D02*
X27638139Y-45666228D01*
X27638139Y-45666228D02*
X27685758Y-45570990D01*
X27685758Y-45570990D02*
X27733377Y-45523371D01*
X27733377Y-45523371D02*
X27828615Y-45475752D01*
X27828615Y-45475752D02*
X27971472Y-45475752D01*
X27971472Y-45475752D02*
X28066710Y-45523371D01*
X28066710Y-45523371D02*
X28114329Y-45570990D01*
X28114329Y-45570990D02*
X28161948Y-45666228D01*
X28161948Y-45666228D02*
X28161948Y-45951942D01*
X28161948Y-45951942D02*
X28114329Y-46047180D01*
X28114329Y-46047180D02*
X28066710Y-46094800D01*
X28066710Y-46094800D02*
X27971472Y-46142419D01*
X27971472Y-46142419D02*
X27828615Y-46142419D01*
X29780996Y-45475752D02*
X29780996Y-46142419D01*
X29542901Y-45094800D02*
X29304806Y-45809085D01*
X29304806Y-45809085D02*
X29923853Y-45809085D01*
X95060157Y-52658213D02*
X95012538Y-52610594D01*
X95012538Y-52610594D02*
X94964919Y-52515356D01*
X94964919Y-52515356D02*
X94964919Y-52277261D01*
X94964919Y-52277261D02*
X95012538Y-52182023D01*
X95012538Y-52182023D02*
X95060157Y-52134404D01*
X95060157Y-52134404D02*
X95155395Y-52086785D01*
X95155395Y-52086785D02*
X95250633Y-52086785D01*
X95250633Y-52086785D02*
X95393490Y-52134404D01*
X95393490Y-52134404D02*
X95964919Y-52705832D01*
X95964919Y-52705832D02*
X95964919Y-52086785D01*
D12*
X83891009Y-71840714D02*
X83938628Y-71697857D01*
X83938628Y-71697857D02*
X83986247Y-71650238D01*
X83986247Y-71650238D02*
X84081485Y-71602619D01*
X84081485Y-71602619D02*
X84224342Y-71602619D01*
X84224342Y-71602619D02*
X84319580Y-71650238D01*
X84319580Y-71650238D02*
X84367200Y-71697857D01*
X84367200Y-71697857D02*
X84414819Y-71793095D01*
X84414819Y-71793095D02*
X84414819Y-72174047D01*
X84414819Y-72174047D02*
X83414819Y-72174047D01*
X83414819Y-72174047D02*
X83414819Y-71840714D01*
X83414819Y-71840714D02*
X83462438Y-71745476D01*
X83462438Y-71745476D02*
X83510057Y-71697857D01*
X83510057Y-71697857D02*
X83605295Y-71650238D01*
X83605295Y-71650238D02*
X83700533Y-71650238D01*
X83700533Y-71650238D02*
X83795771Y-71697857D01*
X83795771Y-71697857D02*
X83843390Y-71745476D01*
X83843390Y-71745476D02*
X83891009Y-71840714D01*
X83891009Y-71840714D02*
X83891009Y-72174047D01*
X83414819Y-71316904D02*
X83414819Y-70745476D01*
X84414819Y-71031190D02*
X83414819Y-71031190D01*
X83414819Y-70507380D02*
X84414819Y-69840714D01*
X83414819Y-69840714D02*
X84414819Y-70507380D01*
X86024819Y-72793094D02*
X85024819Y-72793094D01*
X85501009Y-72793094D02*
X85501009Y-72221666D01*
X86024819Y-72221666D02*
X85024819Y-72221666D01*
X85929580Y-71174047D02*
X85977200Y-71221666D01*
X85977200Y-71221666D02*
X86024819Y-71364523D01*
X86024819Y-71364523D02*
X86024819Y-71459761D01*
X86024819Y-71459761D02*
X85977200Y-71602618D01*
X85977200Y-71602618D02*
X85881961Y-71697856D01*
X85881961Y-71697856D02*
X85786723Y-71745475D01*
X85786723Y-71745475D02*
X85596247Y-71793094D01*
X85596247Y-71793094D02*
X85453390Y-71793094D01*
X85453390Y-71793094D02*
X85262914Y-71745475D01*
X85262914Y-71745475D02*
X85167676Y-71697856D01*
X85167676Y-71697856D02*
X85072438Y-71602618D01*
X85072438Y-71602618D02*
X85024819Y-71459761D01*
X85024819Y-71459761D02*
X85024819Y-71364523D01*
X85024819Y-71364523D02*
X85072438Y-71221666D01*
X85072438Y-71221666D02*
X85120057Y-71174047D01*
X85024819Y-70554999D02*
X85024819Y-70459761D01*
X85024819Y-70459761D02*
X85072438Y-70364523D01*
X85072438Y-70364523D02*
X85120057Y-70316904D01*
X85120057Y-70316904D02*
X85215295Y-70269285D01*
X85215295Y-70269285D02*
X85405771Y-70221666D01*
X85405771Y-70221666D02*
X85643866Y-70221666D01*
X85643866Y-70221666D02*
X85834342Y-70269285D01*
X85834342Y-70269285D02*
X85929580Y-70316904D01*
X85929580Y-70316904D02*
X85977200Y-70364523D01*
X85977200Y-70364523D02*
X86024819Y-70459761D01*
X86024819Y-70459761D02*
X86024819Y-70554999D01*
X86024819Y-70554999D02*
X85977200Y-70650237D01*
X85977200Y-70650237D02*
X85929580Y-70697856D01*
X85929580Y-70697856D02*
X85834342Y-70745475D01*
X85834342Y-70745475D02*
X85643866Y-70793094D01*
X85643866Y-70793094D02*
X85405771Y-70793094D01*
X85405771Y-70793094D02*
X85215295Y-70745475D01*
X85215295Y-70745475D02*
X85120057Y-70697856D01*
X85120057Y-70697856D02*
X85072438Y-70650237D01*
X85072438Y-70650237D02*
X85024819Y-70554999D01*
X85024819Y-69364523D02*
X85024819Y-69554999D01*
X85024819Y-69554999D02*
X85072438Y-69650237D01*
X85072438Y-69650237D02*
X85120057Y-69697856D01*
X85120057Y-69697856D02*
X85262914Y-69793094D01*
X85262914Y-69793094D02*
X85453390Y-69840713D01*
X85453390Y-69840713D02*
X85834342Y-69840713D01*
X85834342Y-69840713D02*
X85929580Y-69793094D01*
X85929580Y-69793094D02*
X85977200Y-69745475D01*
X85977200Y-69745475D02*
X86024819Y-69650237D01*
X86024819Y-69650237D02*
X86024819Y-69459761D01*
X86024819Y-69459761D02*
X85977200Y-69364523D01*
X85977200Y-69364523D02*
X85929580Y-69316904D01*
X85929580Y-69316904D02*
X85834342Y-69269285D01*
X85834342Y-69269285D02*
X85596247Y-69269285D01*
X85596247Y-69269285D02*
X85501009Y-69316904D01*
X85501009Y-69316904D02*
X85453390Y-69364523D01*
X85453390Y-69364523D02*
X85405771Y-69459761D01*
X85405771Y-69459761D02*
X85405771Y-69650237D01*
X85405771Y-69650237D02*
X85453390Y-69745475D01*
X85453390Y-69745475D02*
X85501009Y-69793094D01*
X85501009Y-69793094D02*
X85596247Y-69840713D01*
D10*
X93924919Y-40685832D02*
X93924919Y-40019166D01*
X93924919Y-40019166D02*
X94924919Y-40447737D01*
D13*
X80855859Y-28009661D02*
X80855859Y-27485851D01*
X80855859Y-27485851D02*
X80332049Y-27433470D01*
X80332049Y-27433470D02*
X80384430Y-27485851D01*
X80384430Y-27485851D02*
X80436811Y-27590613D01*
X80436811Y-27590613D02*
X80436811Y-27852518D01*
X80436811Y-27852518D02*
X80384430Y-27957280D01*
X80384430Y-27957280D02*
X80332049Y-28009661D01*
X80332049Y-28009661D02*
X80227287Y-28062042D01*
X80227287Y-28062042D02*
X79965382Y-28062042D01*
X79965382Y-28062042D02*
X79860620Y-28009661D01*
X79860620Y-28009661D02*
X79808240Y-27957280D01*
X79808240Y-27957280D02*
X79755859Y-27852518D01*
X79755859Y-27852518D02*
X79755859Y-27590613D01*
X79755859Y-27590613D02*
X79808240Y-27485851D01*
X79808240Y-27485851D02*
X79860620Y-27433470D01*
X80855859Y-28376327D02*
X79755859Y-28742994D01*
X79755859Y-28742994D02*
X80855859Y-29109661D01*
X80803478Y-30890613D02*
X80855859Y-30785851D01*
X80855859Y-30785851D02*
X80855859Y-30628708D01*
X80855859Y-30628708D02*
X80803478Y-30471565D01*
X80803478Y-30471565D02*
X80698716Y-30366803D01*
X80698716Y-30366803D02*
X80593954Y-30314422D01*
X80593954Y-30314422D02*
X80384430Y-30262041D01*
X80384430Y-30262041D02*
X80227287Y-30262041D01*
X80227287Y-30262041D02*
X80017763Y-30314422D01*
X80017763Y-30314422D02*
X79913001Y-30366803D01*
X79913001Y-30366803D02*
X79808240Y-30471565D01*
X79808240Y-30471565D02*
X79755859Y-30628708D01*
X79755859Y-30628708D02*
X79755859Y-30733470D01*
X79755859Y-30733470D02*
X79808240Y-30890613D01*
X79808240Y-30890613D02*
X79860620Y-30942994D01*
X79860620Y-30942994D02*
X80227287Y-30942994D01*
X80227287Y-30942994D02*
X80227287Y-30733470D01*
X79860620Y-32881089D02*
X79808240Y-32828708D01*
X79808240Y-32828708D02*
X79755859Y-32671565D01*
X79755859Y-32671565D02*
X79755859Y-32566803D01*
X79755859Y-32566803D02*
X79808240Y-32409660D01*
X79808240Y-32409660D02*
X79913001Y-32304898D01*
X79913001Y-32304898D02*
X80017763Y-32252517D01*
X80017763Y-32252517D02*
X80227287Y-32200136D01*
X80227287Y-32200136D02*
X80384430Y-32200136D01*
X80384430Y-32200136D02*
X80593954Y-32252517D01*
X80593954Y-32252517D02*
X80698716Y-32304898D01*
X80698716Y-32304898D02*
X80803478Y-32409660D01*
X80803478Y-32409660D02*
X80855859Y-32566803D01*
X80855859Y-32566803D02*
X80855859Y-32671565D01*
X80855859Y-32671565D02*
X80803478Y-32828708D01*
X80803478Y-32828708D02*
X80751097Y-32881089D01*
X79755859Y-33352517D02*
X80855859Y-33352517D01*
X79755859Y-33981089D02*
X80384430Y-33509660D01*
X80855859Y-33981089D02*
X80227287Y-33352517D01*
X79860620Y-35919184D02*
X79808240Y-35866803D01*
X79808240Y-35866803D02*
X79755859Y-35709660D01*
X79755859Y-35709660D02*
X79755859Y-35604898D01*
X79755859Y-35604898D02*
X79808240Y-35447755D01*
X79808240Y-35447755D02*
X79913001Y-35342993D01*
X79913001Y-35342993D02*
X80017763Y-35290612D01*
X80017763Y-35290612D02*
X80227287Y-35238231D01*
X80227287Y-35238231D02*
X80384430Y-35238231D01*
X80384430Y-35238231D02*
X80593954Y-35290612D01*
X80593954Y-35290612D02*
X80698716Y-35342993D01*
X80698716Y-35342993D02*
X80803478Y-35447755D01*
X80803478Y-35447755D02*
X80855859Y-35604898D01*
X80855859Y-35604898D02*
X80855859Y-35709660D01*
X80855859Y-35709660D02*
X80803478Y-35866803D01*
X80803478Y-35866803D02*
X80751097Y-35919184D01*
X79808240Y-36338231D02*
X79755859Y-36495374D01*
X79755859Y-36495374D02*
X79755859Y-36757279D01*
X79755859Y-36757279D02*
X79808240Y-36862041D01*
X79808240Y-36862041D02*
X79860620Y-36914422D01*
X79860620Y-36914422D02*
X79965382Y-36966803D01*
X79965382Y-36966803D02*
X80070144Y-36966803D01*
X80070144Y-36966803D02*
X80174906Y-36914422D01*
X80174906Y-36914422D02*
X80227287Y-36862041D01*
X80227287Y-36862041D02*
X80279668Y-36757279D01*
X80279668Y-36757279D02*
X80332049Y-36547755D01*
X80332049Y-36547755D02*
X80384430Y-36442993D01*
X80384430Y-36442993D02*
X80436811Y-36390612D01*
X80436811Y-36390612D02*
X80541573Y-36338231D01*
X80541573Y-36338231D02*
X80646335Y-36338231D01*
X80646335Y-36338231D02*
X80751097Y-36390612D01*
X80751097Y-36390612D02*
X80803478Y-36442993D01*
X80803478Y-36442993D02*
X80855859Y-36547755D01*
X80855859Y-36547755D02*
X80855859Y-36809660D01*
X80855859Y-36809660D02*
X80803478Y-36966803D01*
X79755859Y-38276326D02*
X80855859Y-38276326D01*
X80855859Y-38276326D02*
X80855859Y-38538231D01*
X80855859Y-38538231D02*
X80803478Y-38695374D01*
X80803478Y-38695374D02*
X80698716Y-38800136D01*
X80698716Y-38800136D02*
X80593954Y-38852517D01*
X80593954Y-38852517D02*
X80384430Y-38904898D01*
X80384430Y-38904898D02*
X80227287Y-38904898D01*
X80227287Y-38904898D02*
X80017763Y-38852517D01*
X80017763Y-38852517D02*
X79913001Y-38800136D01*
X79913001Y-38800136D02*
X79808240Y-38695374D01*
X79808240Y-38695374D02*
X79755859Y-38538231D01*
X79755859Y-38538231D02*
X79755859Y-38276326D01*
D10*
X27598496Y-20215038D02*
X27503258Y-20167419D01*
X27503258Y-20167419D02*
X27360401Y-20167419D01*
X27360401Y-20167419D02*
X27217544Y-20215038D01*
X27217544Y-20215038D02*
X27122306Y-20310276D01*
X27122306Y-20310276D02*
X27074687Y-20405514D01*
X27074687Y-20405514D02*
X27027068Y-20595990D01*
X27027068Y-20595990D02*
X27027068Y-20738847D01*
X27027068Y-20738847D02*
X27074687Y-20929323D01*
X27074687Y-20929323D02*
X27122306Y-21024561D01*
X27122306Y-21024561D02*
X27217544Y-21119800D01*
X27217544Y-21119800D02*
X27360401Y-21167419D01*
X27360401Y-21167419D02*
X27455639Y-21167419D01*
X27455639Y-21167419D02*
X27598496Y-21119800D01*
X27598496Y-21119800D02*
X27646115Y-21072180D01*
X27646115Y-21072180D02*
X27646115Y-20738847D01*
X27646115Y-20738847D02*
X27455639Y-20738847D01*
X28074687Y-21167419D02*
X28074687Y-20167419D01*
X28074687Y-20167419D02*
X28646115Y-21167419D01*
X28646115Y-21167419D02*
X28646115Y-20167419D01*
X29122306Y-21167419D02*
X29122306Y-20167419D01*
X29122306Y-20167419D02*
X29360401Y-20167419D01*
X29360401Y-20167419D02*
X29503258Y-20215038D01*
X29503258Y-20215038D02*
X29598496Y-20310276D01*
X29598496Y-20310276D02*
X29646115Y-20405514D01*
X29646115Y-20405514D02*
X29693734Y-20595990D01*
X29693734Y-20595990D02*
X29693734Y-20738847D01*
X29693734Y-20738847D02*
X29646115Y-20929323D01*
X29646115Y-20929323D02*
X29598496Y-21024561D01*
X29598496Y-21024561D02*
X29503258Y-21119800D01*
X29503258Y-21119800D02*
X29360401Y-21167419D01*
X29360401Y-21167419D02*
X29122306Y-21167419D01*
D13*
X79704140Y-65000338D02*
X79704140Y-65524148D01*
X79704140Y-65524148D02*
X80227950Y-65576529D01*
X80227950Y-65576529D02*
X80175569Y-65524148D01*
X80175569Y-65524148D02*
X80123188Y-65419386D01*
X80123188Y-65419386D02*
X80123188Y-65157481D01*
X80123188Y-65157481D02*
X80175569Y-65052719D01*
X80175569Y-65052719D02*
X80227950Y-65000338D01*
X80227950Y-65000338D02*
X80332712Y-64947957D01*
X80332712Y-64947957D02*
X80594617Y-64947957D01*
X80594617Y-64947957D02*
X80699379Y-65000338D01*
X80699379Y-65000338D02*
X80751760Y-65052719D01*
X80751760Y-65052719D02*
X80804140Y-65157481D01*
X80804140Y-65157481D02*
X80804140Y-65419386D01*
X80804140Y-65419386D02*
X80751760Y-65524148D01*
X80751760Y-65524148D02*
X80699379Y-65576529D01*
X79704140Y-64633672D02*
X80804140Y-64267005D01*
X80804140Y-64267005D02*
X79704140Y-63900338D01*
X79756521Y-62119386D02*
X79704140Y-62224148D01*
X79704140Y-62224148D02*
X79704140Y-62381291D01*
X79704140Y-62381291D02*
X79756521Y-62538434D01*
X79756521Y-62538434D02*
X79861283Y-62643196D01*
X79861283Y-62643196D02*
X79966045Y-62695577D01*
X79966045Y-62695577D02*
X80175569Y-62747958D01*
X80175569Y-62747958D02*
X80332712Y-62747958D01*
X80332712Y-62747958D02*
X80542236Y-62695577D01*
X80542236Y-62695577D02*
X80646998Y-62643196D01*
X80646998Y-62643196D02*
X80751760Y-62538434D01*
X80751760Y-62538434D02*
X80804140Y-62381291D01*
X80804140Y-62381291D02*
X80804140Y-62276529D01*
X80804140Y-62276529D02*
X80751760Y-62119386D01*
X80751760Y-62119386D02*
X80699379Y-62067005D01*
X80699379Y-62067005D02*
X80332712Y-62067005D01*
X80332712Y-62067005D02*
X80332712Y-62276529D01*
X80699379Y-60128910D02*
X80751760Y-60181291D01*
X80751760Y-60181291D02*
X80804140Y-60338434D01*
X80804140Y-60338434D02*
X80804140Y-60443196D01*
X80804140Y-60443196D02*
X80751760Y-60600339D01*
X80751760Y-60600339D02*
X80646998Y-60705101D01*
X80646998Y-60705101D02*
X80542236Y-60757482D01*
X80542236Y-60757482D02*
X80332712Y-60809863D01*
X80332712Y-60809863D02*
X80175569Y-60809863D01*
X80175569Y-60809863D02*
X79966045Y-60757482D01*
X79966045Y-60757482D02*
X79861283Y-60705101D01*
X79861283Y-60705101D02*
X79756521Y-60600339D01*
X79756521Y-60600339D02*
X79704140Y-60443196D01*
X79704140Y-60443196D02*
X79704140Y-60338434D01*
X79704140Y-60338434D02*
X79756521Y-60181291D01*
X79756521Y-60181291D02*
X79808902Y-60128910D01*
X80804140Y-59657482D02*
X79704140Y-59657482D01*
X80804140Y-59028910D02*
X80175569Y-59500339D01*
X79704140Y-59028910D02*
X80332712Y-59657482D01*
X80699379Y-57090815D02*
X80751760Y-57143196D01*
X80751760Y-57143196D02*
X80804140Y-57300339D01*
X80804140Y-57300339D02*
X80804140Y-57405101D01*
X80804140Y-57405101D02*
X80751760Y-57562244D01*
X80751760Y-57562244D02*
X80646998Y-57667006D01*
X80646998Y-57667006D02*
X80542236Y-57719387D01*
X80542236Y-57719387D02*
X80332712Y-57771768D01*
X80332712Y-57771768D02*
X80175569Y-57771768D01*
X80175569Y-57771768D02*
X79966045Y-57719387D01*
X79966045Y-57719387D02*
X79861283Y-57667006D01*
X79861283Y-57667006D02*
X79756521Y-57562244D01*
X79756521Y-57562244D02*
X79704140Y-57405101D01*
X79704140Y-57405101D02*
X79704140Y-57300339D01*
X79704140Y-57300339D02*
X79756521Y-57143196D01*
X79756521Y-57143196D02*
X79808902Y-57090815D01*
X80751760Y-56671768D02*
X80804140Y-56514625D01*
X80804140Y-56514625D02*
X80804140Y-56252720D01*
X80804140Y-56252720D02*
X80751760Y-56147958D01*
X80751760Y-56147958D02*
X80699379Y-56095577D01*
X80699379Y-56095577D02*
X80594617Y-56043196D01*
X80594617Y-56043196D02*
X80489855Y-56043196D01*
X80489855Y-56043196D02*
X80385093Y-56095577D01*
X80385093Y-56095577D02*
X80332712Y-56147958D01*
X80332712Y-56147958D02*
X80280331Y-56252720D01*
X80280331Y-56252720D02*
X80227950Y-56462244D01*
X80227950Y-56462244D02*
X80175569Y-56567006D01*
X80175569Y-56567006D02*
X80123188Y-56619387D01*
X80123188Y-56619387D02*
X80018426Y-56671768D01*
X80018426Y-56671768D02*
X79913664Y-56671768D01*
X79913664Y-56671768D02*
X79808902Y-56619387D01*
X79808902Y-56619387D02*
X79756521Y-56567006D01*
X79756521Y-56567006D02*
X79704140Y-56462244D01*
X79704140Y-56462244D02*
X79704140Y-56200339D01*
X79704140Y-56200339D02*
X79756521Y-56043196D01*
X80804140Y-54733673D02*
X79704140Y-54733673D01*
X79704140Y-54733673D02*
X79704140Y-54471768D01*
X79704140Y-54471768D02*
X79756521Y-54314625D01*
X79756521Y-54314625D02*
X79861283Y-54209863D01*
X79861283Y-54209863D02*
X79966045Y-54157482D01*
X79966045Y-54157482D02*
X80175569Y-54105101D01*
X80175569Y-54105101D02*
X80332712Y-54105101D01*
X80332712Y-54105101D02*
X80542236Y-54157482D01*
X80542236Y-54157482D02*
X80646998Y-54209863D01*
X80646998Y-54209863D02*
X80751760Y-54314625D01*
X80751760Y-54314625D02*
X80804140Y-54471768D01*
X80804140Y-54471768D02*
X80804140Y-54733673D01*
D14*
X83187368Y-22135828D02*
X83187368Y-20635828D01*
X83187368Y-22064400D02*
X83044510Y-22135828D01*
X83044510Y-22135828D02*
X82758796Y-22135828D01*
X82758796Y-22135828D02*
X82615939Y-22064400D01*
X82615939Y-22064400D02*
X82544510Y-21992971D01*
X82544510Y-21992971D02*
X82473082Y-21850114D01*
X82473082Y-21850114D02*
X82473082Y-21421542D01*
X82473082Y-21421542D02*
X82544510Y-21278685D01*
X82544510Y-21278685D02*
X82615939Y-21207257D01*
X82615939Y-21207257D02*
X82758796Y-21135828D01*
X82758796Y-21135828D02*
X83044510Y-21135828D01*
X83044510Y-21135828D02*
X83187368Y-21207257D01*
X84473082Y-22064400D02*
X84330225Y-22135828D01*
X84330225Y-22135828D02*
X84044511Y-22135828D01*
X84044511Y-22135828D02*
X83901653Y-22064400D01*
X83901653Y-22064400D02*
X83830225Y-21921542D01*
X83830225Y-21921542D02*
X83830225Y-21350114D01*
X83830225Y-21350114D02*
X83901653Y-21207257D01*
X83901653Y-21207257D02*
X84044511Y-21135828D01*
X84044511Y-21135828D02*
X84330225Y-21135828D01*
X84330225Y-21135828D02*
X84473082Y-21207257D01*
X84473082Y-21207257D02*
X84544511Y-21350114D01*
X84544511Y-21350114D02*
X84544511Y-21492971D01*
X84544511Y-21492971D02*
X83830225Y-21635828D01*
X85187367Y-21135828D02*
X85187367Y-22135828D01*
X85187367Y-21278685D02*
X85258796Y-21207257D01*
X85258796Y-21207257D02*
X85401653Y-21135828D01*
X85401653Y-21135828D02*
X85615939Y-21135828D01*
X85615939Y-21135828D02*
X85758796Y-21207257D01*
X85758796Y-21207257D02*
X85830225Y-21350114D01*
X85830225Y-21350114D02*
X85830225Y-22135828D01*
X86758796Y-22135828D02*
X86615939Y-22064400D01*
X86615939Y-22064400D02*
X86544510Y-21992971D01*
X86544510Y-21992971D02*
X86473082Y-21850114D01*
X86473082Y-21850114D02*
X86473082Y-21421542D01*
X86473082Y-21421542D02*
X86544510Y-21278685D01*
X86544510Y-21278685D02*
X86615939Y-21207257D01*
X86615939Y-21207257D02*
X86758796Y-21135828D01*
X86758796Y-21135828D02*
X86973082Y-21135828D01*
X86973082Y-21135828D02*
X87115939Y-21207257D01*
X87115939Y-21207257D02*
X87187368Y-21278685D01*
X87187368Y-21278685D02*
X87258796Y-21421542D01*
X87258796Y-21421542D02*
X87258796Y-21850114D01*
X87258796Y-21850114D02*
X87187368Y-21992971D01*
X87187368Y-21992971D02*
X87115939Y-22064400D01*
X87115939Y-22064400D02*
X86973082Y-22135828D01*
X86973082Y-22135828D02*
X86758796Y-22135828D01*
X88115939Y-22135828D02*
X87973082Y-22064400D01*
X87973082Y-22064400D02*
X87901653Y-21921542D01*
X87901653Y-21921542D02*
X87901653Y-20635828D01*
X88687367Y-22135828D02*
X88687367Y-20635828D01*
X88830225Y-21564400D02*
X89258796Y-22135828D01*
X89258796Y-21135828D02*
X88687367Y-21707257D01*
X82544510Y-24550828D02*
X82544510Y-23050828D01*
X83187368Y-24550828D02*
X83187368Y-23765114D01*
X83187368Y-23765114D02*
X83115939Y-23622257D01*
X83115939Y-23622257D02*
X82973082Y-23550828D01*
X82973082Y-23550828D02*
X82758796Y-23550828D01*
X82758796Y-23550828D02*
X82615939Y-23622257D01*
X82615939Y-23622257D02*
X82544510Y-23693685D01*
X84544511Y-24550828D02*
X84544511Y-23050828D01*
X84544511Y-24479400D02*
X84401653Y-24550828D01*
X84401653Y-24550828D02*
X84115939Y-24550828D01*
X84115939Y-24550828D02*
X83973082Y-24479400D01*
X83973082Y-24479400D02*
X83901653Y-24407971D01*
X83901653Y-24407971D02*
X83830225Y-24265114D01*
X83830225Y-24265114D02*
X83830225Y-23836542D01*
X83830225Y-23836542D02*
X83901653Y-23693685D01*
X83901653Y-23693685D02*
X83973082Y-23622257D01*
X83973082Y-23622257D02*
X84115939Y-23550828D01*
X84115939Y-23550828D02*
X84401653Y-23550828D01*
X84401653Y-23550828D02*
X84544511Y-23622257D01*
X85258796Y-23979400D02*
X86401654Y-23979400D01*
X87115939Y-24550828D02*
X87115939Y-23550828D01*
X87115939Y-23693685D02*
X87187368Y-23622257D01*
X87187368Y-23622257D02*
X87330225Y-23550828D01*
X87330225Y-23550828D02*
X87544511Y-23550828D01*
X87544511Y-23550828D02*
X87687368Y-23622257D01*
X87687368Y-23622257D02*
X87758797Y-23765114D01*
X87758797Y-23765114D02*
X87758797Y-24550828D01*
X87758797Y-23765114D02*
X87830225Y-23622257D01*
X87830225Y-23622257D02*
X87973082Y-23550828D01*
X87973082Y-23550828D02*
X88187368Y-23550828D01*
X88187368Y-23550828D02*
X88330225Y-23622257D01*
X88330225Y-23622257D02*
X88401654Y-23765114D01*
X88401654Y-23765114D02*
X88401654Y-24550828D01*
X89758797Y-24479400D02*
X89615939Y-24550828D01*
X89615939Y-24550828D02*
X89330225Y-24550828D01*
X89330225Y-24550828D02*
X89187368Y-24479400D01*
X89187368Y-24479400D02*
X89115939Y-24407971D01*
X89115939Y-24407971D02*
X89044511Y-24265114D01*
X89044511Y-24265114D02*
X89044511Y-23836542D01*
X89044511Y-23836542D02*
X89115939Y-23693685D01*
X89115939Y-23693685D02*
X89187368Y-23622257D01*
X89187368Y-23622257D02*
X89330225Y-23550828D01*
X89330225Y-23550828D02*
X89615939Y-23550828D01*
X89615939Y-23550828D02*
X89758797Y-23622257D01*
X91044511Y-23550828D02*
X91044511Y-24550828D01*
X90401653Y-23550828D02*
X90401653Y-24336542D01*
X90401653Y-24336542D02*
X90473082Y-24479400D01*
X90473082Y-24479400D02*
X90615939Y-24550828D01*
X90615939Y-24550828D02*
X90830225Y-24550828D01*
X90830225Y-24550828D02*
X90973082Y-24479400D01*
X90973082Y-24479400D02*
X91044511Y-24407971D01*
X92758796Y-23550828D02*
X93115939Y-24550828D01*
X93115939Y-24550828D02*
X93473082Y-23550828D01*
X94330225Y-23050828D02*
X94473082Y-23050828D01*
X94473082Y-23050828D02*
X94615939Y-23122257D01*
X94615939Y-23122257D02*
X94687368Y-23193685D01*
X94687368Y-23193685D02*
X94758796Y-23336542D01*
X94758796Y-23336542D02*
X94830225Y-23622257D01*
X94830225Y-23622257D02*
X94830225Y-23979400D01*
X94830225Y-23979400D02*
X94758796Y-24265114D01*
X94758796Y-24265114D02*
X94687368Y-24407971D01*
X94687368Y-24407971D02*
X94615939Y-24479400D01*
X94615939Y-24479400D02*
X94473082Y-24550828D01*
X94473082Y-24550828D02*
X94330225Y-24550828D01*
X94330225Y-24550828D02*
X94187368Y-24479400D01*
X94187368Y-24479400D02*
X94115939Y-24407971D01*
X94115939Y-24407971D02*
X94044510Y-24265114D01*
X94044510Y-24265114D02*
X93973082Y-23979400D01*
X93973082Y-23979400D02*
X93973082Y-23622257D01*
X93973082Y-23622257D02*
X94044510Y-23336542D01*
X94044510Y-23336542D02*
X94115939Y-23193685D01*
X94115939Y-23193685D02*
X94187368Y-23122257D01*
X94187368Y-23122257D02*
X94330225Y-23050828D01*
X95473081Y-24407971D02*
X95544510Y-24479400D01*
X95544510Y-24479400D02*
X95473081Y-24550828D01*
X95473081Y-24550828D02*
X95401653Y-24479400D01*
X95401653Y-24479400D02*
X95473081Y-24407971D01*
X95473081Y-24407971D02*
X95473081Y-24550828D01*
X96115939Y-23193685D02*
X96187367Y-23122257D01*
X96187367Y-23122257D02*
X96330225Y-23050828D01*
X96330225Y-23050828D02*
X96687367Y-23050828D01*
X96687367Y-23050828D02*
X96830225Y-23122257D01*
X96830225Y-23122257D02*
X96901653Y-23193685D01*
X96901653Y-23193685D02*
X96973082Y-23336542D01*
X96973082Y-23336542D02*
X96973082Y-23479400D01*
X96973082Y-23479400D02*
X96901653Y-23693685D01*
X96901653Y-23693685D02*
X96044510Y-24550828D01*
X96044510Y-24550828D02*
X96973082Y-24550828D01*
D10*
X89924919Y-52066785D02*
X89924919Y-52638213D01*
X89924919Y-52352499D02*
X88924919Y-52352499D01*
X88924919Y-52352499D02*
X89067776Y-52447737D01*
X89067776Y-52447737D02*
X89163014Y-52542975D01*
X89163014Y-52542975D02*
X89210633Y-52638213D01*
X81924919Y-40162023D02*
X81924919Y-40352499D01*
X81924919Y-40352499D02*
X81972538Y-40447737D01*
X81972538Y-40447737D02*
X82020157Y-40495356D01*
X82020157Y-40495356D02*
X82163014Y-40590594D01*
X82163014Y-40590594D02*
X82353490Y-40638213D01*
X82353490Y-40638213D02*
X82734442Y-40638213D01*
X82734442Y-40638213D02*
X82829680Y-40590594D01*
X82829680Y-40590594D02*
X82877300Y-40542975D01*
X82877300Y-40542975D02*
X82924919Y-40447737D01*
X82924919Y-40447737D02*
X82924919Y-40257261D01*
X82924919Y-40257261D02*
X82877300Y-40162023D01*
X82877300Y-40162023D02*
X82829680Y-40114404D01*
X82829680Y-40114404D02*
X82734442Y-40066785D01*
X82734442Y-40066785D02*
X82496347Y-40066785D01*
X82496347Y-40066785D02*
X82401109Y-40114404D01*
X82401109Y-40114404D02*
X82353490Y-40162023D01*
X82353490Y-40162023D02*
X82305871Y-40257261D01*
X82305871Y-40257261D02*
X82305871Y-40447737D01*
X82305871Y-40447737D02*
X82353490Y-40542975D01*
X82353490Y-40542975D02*
X82401109Y-40590594D01*
X82401109Y-40590594D02*
X82496347Y-40638213D01*
X27297812Y-34832419D02*
X26964479Y-34356228D01*
X26726384Y-34832419D02*
X26726384Y-33832419D01*
X26726384Y-33832419D02*
X27107336Y-33832419D01*
X27107336Y-33832419D02*
X27202574Y-33880038D01*
X27202574Y-33880038D02*
X27250193Y-33927657D01*
X27250193Y-33927657D02*
X27297812Y-34022895D01*
X27297812Y-34022895D02*
X27297812Y-34165752D01*
X27297812Y-34165752D02*
X27250193Y-34260990D01*
X27250193Y-34260990D02*
X27202574Y-34308609D01*
X27202574Y-34308609D02*
X27107336Y-34356228D01*
X27107336Y-34356228D02*
X26726384Y-34356228D01*
X27726384Y-34832419D02*
X27726384Y-34165752D01*
X27726384Y-33832419D02*
X27678765Y-33880038D01*
X27678765Y-33880038D02*
X27726384Y-33927657D01*
X27726384Y-33927657D02*
X27774003Y-33880038D01*
X27774003Y-33880038D02*
X27726384Y-33832419D01*
X27726384Y-33832419D02*
X27726384Y-33927657D01*
X28869241Y-33832419D02*
X29535907Y-33832419D01*
X29535907Y-33832419D02*
X29107336Y-34832419D01*
X32551384Y-24299919D02*
X32551384Y-23633252D01*
X32551384Y-23299919D02*
X32503765Y-23347538D01*
X32503765Y-23347538D02*
X32551384Y-23395157D01*
X32551384Y-23395157D02*
X32599003Y-23347538D01*
X32599003Y-23347538D02*
X32551384Y-23299919D01*
X32551384Y-23299919D02*
X32551384Y-23395157D01*
X33456145Y-23633252D02*
X33456145Y-24299919D01*
X33218050Y-23252300D02*
X32979955Y-23966585D01*
X32979955Y-23966585D02*
X33599002Y-23966585D01*
X35503765Y-24299919D02*
X35503765Y-23633252D01*
X35503765Y-23299919D02*
X35456146Y-23347538D01*
X35456146Y-23347538D02*
X35503765Y-23395157D01*
X35503765Y-23395157D02*
X35551384Y-23347538D01*
X35551384Y-23347538D02*
X35503765Y-23299919D01*
X35503765Y-23299919D02*
X35503765Y-23395157D01*
X35884717Y-23299919D02*
X36503764Y-23299919D01*
X36503764Y-23299919D02*
X36170431Y-23680871D01*
X36170431Y-23680871D02*
X36313288Y-23680871D01*
X36313288Y-23680871D02*
X36408526Y-23728490D01*
X36408526Y-23728490D02*
X36456145Y-23776109D01*
X36456145Y-23776109D02*
X36503764Y-23871347D01*
X36503764Y-23871347D02*
X36503764Y-24109442D01*
X36503764Y-24109442D02*
X36456145Y-24204680D01*
X36456145Y-24204680D02*
X36408526Y-24252300D01*
X36408526Y-24252300D02*
X36313288Y-24299919D01*
X36313288Y-24299919D02*
X36027574Y-24299919D01*
X36027574Y-24299919D02*
X35932336Y-24252300D01*
X35932336Y-24252300D02*
X35884717Y-24204680D01*
X37694241Y-24299919D02*
X37694241Y-23633252D01*
X37694241Y-23299919D02*
X37646622Y-23347538D01*
X37646622Y-23347538D02*
X37694241Y-23395157D01*
X37694241Y-23395157D02*
X37741860Y-23347538D01*
X37741860Y-23347538D02*
X37694241Y-23299919D01*
X37694241Y-23299919D02*
X37694241Y-23395157D01*
X38122812Y-23395157D02*
X38170431Y-23347538D01*
X38170431Y-23347538D02*
X38265669Y-23299919D01*
X38265669Y-23299919D02*
X38503764Y-23299919D01*
X38503764Y-23299919D02*
X38599002Y-23347538D01*
X38599002Y-23347538D02*
X38646621Y-23395157D01*
X38646621Y-23395157D02*
X38694240Y-23490395D01*
X38694240Y-23490395D02*
X38694240Y-23585633D01*
X38694240Y-23585633D02*
X38646621Y-23728490D01*
X38646621Y-23728490D02*
X38075193Y-24299919D01*
X38075193Y-24299919D02*
X38694240Y-24299919D01*
X40646622Y-24299919D02*
X40646622Y-23633252D01*
X40646622Y-23299919D02*
X40599003Y-23347538D01*
X40599003Y-23347538D02*
X40646622Y-23395157D01*
X40646622Y-23395157D02*
X40694241Y-23347538D01*
X40694241Y-23347538D02*
X40646622Y-23299919D01*
X40646622Y-23299919D02*
X40646622Y-23395157D01*
X41646621Y-24299919D02*
X41075193Y-24299919D01*
X41360907Y-24299919D02*
X41360907Y-23299919D01*
X41360907Y-23299919D02*
X41265669Y-23442776D01*
X41265669Y-23442776D02*
X41170431Y-23538014D01*
X41170431Y-23538014D02*
X41075193Y-23585633D01*
X32441741Y-45864919D02*
X32346503Y-45817300D01*
X32346503Y-45817300D02*
X32298884Y-45769680D01*
X32298884Y-45769680D02*
X32251265Y-45674442D01*
X32251265Y-45674442D02*
X32251265Y-45388728D01*
X32251265Y-45388728D02*
X32298884Y-45293490D01*
X32298884Y-45293490D02*
X32346503Y-45245871D01*
X32346503Y-45245871D02*
X32441741Y-45198252D01*
X32441741Y-45198252D02*
X32584598Y-45198252D01*
X32584598Y-45198252D02*
X32679836Y-45245871D01*
X32679836Y-45245871D02*
X32727455Y-45293490D01*
X32727455Y-45293490D02*
X32775074Y-45388728D01*
X32775074Y-45388728D02*
X32775074Y-45674442D01*
X32775074Y-45674442D02*
X32727455Y-45769680D01*
X32727455Y-45769680D02*
X32679836Y-45817300D01*
X32679836Y-45817300D02*
X32584598Y-45864919D01*
X32584598Y-45864919D02*
X32441741Y-45864919D01*
X33632217Y-45198252D02*
X33632217Y-45864919D01*
X33394122Y-44817300D02*
X33156027Y-45531585D01*
X33156027Y-45531585D02*
X33775074Y-45531585D01*
X35060789Y-45864919D02*
X34965551Y-45817300D01*
X34965551Y-45817300D02*
X34917932Y-45769680D01*
X34917932Y-45769680D02*
X34870313Y-45674442D01*
X34870313Y-45674442D02*
X34870313Y-45388728D01*
X34870313Y-45388728D02*
X34917932Y-45293490D01*
X34917932Y-45293490D02*
X34965551Y-45245871D01*
X34965551Y-45245871D02*
X35060789Y-45198252D01*
X35060789Y-45198252D02*
X35203646Y-45198252D01*
X35203646Y-45198252D02*
X35298884Y-45245871D01*
X35298884Y-45245871D02*
X35346503Y-45293490D01*
X35346503Y-45293490D02*
X35394122Y-45388728D01*
X35394122Y-45388728D02*
X35394122Y-45674442D01*
X35394122Y-45674442D02*
X35346503Y-45769680D01*
X35346503Y-45769680D02*
X35298884Y-45817300D01*
X35298884Y-45817300D02*
X35203646Y-45864919D01*
X35203646Y-45864919D02*
X35060789Y-45864919D01*
X35727456Y-44864919D02*
X36346503Y-44864919D01*
X36346503Y-44864919D02*
X36013170Y-45245871D01*
X36013170Y-45245871D02*
X36156027Y-45245871D01*
X36156027Y-45245871D02*
X36251265Y-45293490D01*
X36251265Y-45293490D02*
X36298884Y-45341109D01*
X36298884Y-45341109D02*
X36346503Y-45436347D01*
X36346503Y-45436347D02*
X36346503Y-45674442D01*
X36346503Y-45674442D02*
X36298884Y-45769680D01*
X36298884Y-45769680D02*
X36251265Y-45817300D01*
X36251265Y-45817300D02*
X36156027Y-45864919D01*
X36156027Y-45864919D02*
X35870313Y-45864919D01*
X35870313Y-45864919D02*
X35775075Y-45817300D01*
X35775075Y-45817300D02*
X35727456Y-45769680D01*
X37679837Y-45864919D02*
X37584599Y-45817300D01*
X37584599Y-45817300D02*
X37536980Y-45769680D01*
X37536980Y-45769680D02*
X37489361Y-45674442D01*
X37489361Y-45674442D02*
X37489361Y-45388728D01*
X37489361Y-45388728D02*
X37536980Y-45293490D01*
X37536980Y-45293490D02*
X37584599Y-45245871D01*
X37584599Y-45245871D02*
X37679837Y-45198252D01*
X37679837Y-45198252D02*
X37822694Y-45198252D01*
X37822694Y-45198252D02*
X37917932Y-45245871D01*
X37917932Y-45245871D02*
X37965551Y-45293490D01*
X37965551Y-45293490D02*
X38013170Y-45388728D01*
X38013170Y-45388728D02*
X38013170Y-45674442D01*
X38013170Y-45674442D02*
X37965551Y-45769680D01*
X37965551Y-45769680D02*
X37917932Y-45817300D01*
X37917932Y-45817300D02*
X37822694Y-45864919D01*
X37822694Y-45864919D02*
X37679837Y-45864919D01*
X38394123Y-44960157D02*
X38441742Y-44912538D01*
X38441742Y-44912538D02*
X38536980Y-44864919D01*
X38536980Y-44864919D02*
X38775075Y-44864919D01*
X38775075Y-44864919D02*
X38870313Y-44912538D01*
X38870313Y-44912538D02*
X38917932Y-44960157D01*
X38917932Y-44960157D02*
X38965551Y-45055395D01*
X38965551Y-45055395D02*
X38965551Y-45150633D01*
X38965551Y-45150633D02*
X38917932Y-45293490D01*
X38917932Y-45293490D02*
X38346504Y-45864919D01*
X38346504Y-45864919D02*
X38965551Y-45864919D01*
X40298885Y-45864919D02*
X40203647Y-45817300D01*
X40203647Y-45817300D02*
X40156028Y-45769680D01*
X40156028Y-45769680D02*
X40108409Y-45674442D01*
X40108409Y-45674442D02*
X40108409Y-45388728D01*
X40108409Y-45388728D02*
X40156028Y-45293490D01*
X40156028Y-45293490D02*
X40203647Y-45245871D01*
X40203647Y-45245871D02*
X40298885Y-45198252D01*
X40298885Y-45198252D02*
X40441742Y-45198252D01*
X40441742Y-45198252D02*
X40536980Y-45245871D01*
X40536980Y-45245871D02*
X40584599Y-45293490D01*
X40584599Y-45293490D02*
X40632218Y-45388728D01*
X40632218Y-45388728D02*
X40632218Y-45674442D01*
X40632218Y-45674442D02*
X40584599Y-45769680D01*
X40584599Y-45769680D02*
X40536980Y-45817300D01*
X40536980Y-45817300D02*
X40441742Y-45864919D01*
X40441742Y-45864919D02*
X40298885Y-45864919D01*
X41584599Y-45864919D02*
X41013171Y-45864919D01*
X41298885Y-45864919D02*
X41298885Y-44864919D01*
X41298885Y-44864919D02*
X41203647Y-45007776D01*
X41203647Y-45007776D02*
X41108409Y-45103014D01*
X41108409Y-45103014D02*
X41013171Y-45150633D01*
X48022693Y-25712538D02*
X47927455Y-25664919D01*
X47927455Y-25664919D02*
X47784598Y-25664919D01*
X47784598Y-25664919D02*
X47641741Y-25712538D01*
X47641741Y-25712538D02*
X47546503Y-25807776D01*
X47546503Y-25807776D02*
X47498884Y-25903014D01*
X47498884Y-25903014D02*
X47451265Y-26093490D01*
X47451265Y-26093490D02*
X47451265Y-26236347D01*
X47451265Y-26236347D02*
X47498884Y-26426823D01*
X47498884Y-26426823D02*
X47546503Y-26522061D01*
X47546503Y-26522061D02*
X47641741Y-26617300D01*
X47641741Y-26617300D02*
X47784598Y-26664919D01*
X47784598Y-26664919D02*
X47879836Y-26664919D01*
X47879836Y-26664919D02*
X48022693Y-26617300D01*
X48022693Y-26617300D02*
X48070312Y-26569680D01*
X48070312Y-26569680D02*
X48070312Y-26236347D01*
X48070312Y-26236347D02*
X47879836Y-26236347D01*
X49784598Y-26664919D02*
X49213170Y-26664919D01*
X49498884Y-26664919D02*
X49498884Y-25664919D01*
X49498884Y-25664919D02*
X49403646Y-25807776D01*
X49403646Y-25807776D02*
X49308408Y-25903014D01*
X49308408Y-25903014D02*
X49213170Y-25950633D01*
X50165551Y-25760157D02*
X50213170Y-25712538D01*
X50213170Y-25712538D02*
X50308408Y-25664919D01*
X50308408Y-25664919D02*
X50546503Y-25664919D01*
X50546503Y-25664919D02*
X50641741Y-25712538D01*
X50641741Y-25712538D02*
X50689360Y-25760157D01*
X50689360Y-25760157D02*
X50736979Y-25855395D01*
X50736979Y-25855395D02*
X50736979Y-25950633D01*
X50736979Y-25950633D02*
X50689360Y-26093490D01*
X50689360Y-26093490D02*
X50117932Y-26664919D01*
X50117932Y-26664919D02*
X50736979Y-26664919D01*
X51022694Y-25664919D02*
X51356027Y-26664919D01*
X51356027Y-26664919D02*
X51689360Y-25664919D01*
X30233884Y-63131466D02*
X30995789Y-63131466D01*
X30333884Y-65081466D02*
X31095789Y-65081466D01*
X30714836Y-65462419D02*
X30714836Y-64700514D01*
D12*
X62270180Y-45088095D02*
X62746371Y-44754762D01*
X62270180Y-44516667D02*
X63270180Y-44516667D01*
X63270180Y-44516667D02*
X63270180Y-44897619D01*
X63270180Y-44897619D02*
X63222561Y-44992857D01*
X63222561Y-44992857D02*
X63174942Y-45040476D01*
X63174942Y-45040476D02*
X63079704Y-45088095D01*
X63079704Y-45088095D02*
X62936847Y-45088095D01*
X62936847Y-45088095D02*
X62841609Y-45040476D01*
X62841609Y-45040476D02*
X62793990Y-44992857D01*
X62793990Y-44992857D02*
X62746371Y-44897619D01*
X62746371Y-44897619D02*
X62746371Y-44516667D01*
X62270180Y-45516667D02*
X63270180Y-45516667D01*
X63270180Y-45516667D02*
X63270180Y-45897619D01*
X63270180Y-45897619D02*
X63222561Y-45992857D01*
X63222561Y-45992857D02*
X63174942Y-46040476D01*
X63174942Y-46040476D02*
X63079704Y-46088095D01*
X63079704Y-46088095D02*
X62936847Y-46088095D01*
X62936847Y-46088095D02*
X62841609Y-46040476D01*
X62841609Y-46040476D02*
X62793990Y-45992857D01*
X62793990Y-45992857D02*
X62746371Y-45897619D01*
X62746371Y-45897619D02*
X62746371Y-45516667D01*
X62270180Y-46516667D02*
X63270180Y-46516667D01*
X63270180Y-46516667D02*
X62555895Y-46850000D01*
X62555895Y-46850000D02*
X63270180Y-47183333D01*
X63270180Y-47183333D02*
X62270180Y-47183333D01*
X64827800Y-44624286D02*
X64780180Y-44767143D01*
X64780180Y-44767143D02*
X64780180Y-45005238D01*
X64780180Y-45005238D02*
X64827800Y-45100476D01*
X64827800Y-45100476D02*
X64875419Y-45148095D01*
X64875419Y-45148095D02*
X64970657Y-45195714D01*
X64970657Y-45195714D02*
X65065895Y-45195714D01*
X65065895Y-45195714D02*
X65161133Y-45148095D01*
X65161133Y-45148095D02*
X65208752Y-45100476D01*
X65208752Y-45100476D02*
X65256371Y-45005238D01*
X65256371Y-45005238D02*
X65303990Y-44814762D01*
X65303990Y-44814762D02*
X65351609Y-44719524D01*
X65351609Y-44719524D02*
X65399228Y-44671905D01*
X65399228Y-44671905D02*
X65494466Y-44624286D01*
X65494466Y-44624286D02*
X65589704Y-44624286D01*
X65589704Y-44624286D02*
X65684942Y-44671905D01*
X65684942Y-44671905D02*
X65732561Y-44719524D01*
X65732561Y-44719524D02*
X65780180Y-44814762D01*
X65780180Y-44814762D02*
X65780180Y-45052857D01*
X65780180Y-45052857D02*
X65732561Y-45195714D01*
X64780180Y-45624286D02*
X65780180Y-45624286D01*
X65780180Y-45624286D02*
X65780180Y-46005238D01*
X65780180Y-46005238D02*
X65732561Y-46100476D01*
X65732561Y-46100476D02*
X65684942Y-46148095D01*
X65684942Y-46148095D02*
X65589704Y-46195714D01*
X65589704Y-46195714D02*
X65446847Y-46195714D01*
X65446847Y-46195714D02*
X65351609Y-46148095D01*
X65351609Y-46148095D02*
X65303990Y-46100476D01*
X65303990Y-46100476D02*
X65256371Y-46005238D01*
X65256371Y-46005238D02*
X65256371Y-45624286D01*
X64780180Y-46624286D02*
X65780180Y-46624286D01*
X65780180Y-46624286D02*
X65780180Y-46862381D01*
X65780180Y-46862381D02*
X65732561Y-47005238D01*
X65732561Y-47005238D02*
X65637323Y-47100476D01*
X65637323Y-47100476D02*
X65542085Y-47148095D01*
X65542085Y-47148095D02*
X65351609Y-47195714D01*
X65351609Y-47195714D02*
X65208752Y-47195714D01*
X65208752Y-47195714D02*
X65018276Y-47148095D01*
X65018276Y-47148095D02*
X64923038Y-47100476D01*
X64923038Y-47100476D02*
X64827800Y-47005238D01*
X64827800Y-47005238D02*
X64780180Y-46862381D01*
X64780180Y-46862381D02*
X64780180Y-46624286D01*
D10*
X46620833Y-46724919D02*
X46287500Y-46248728D01*
X46049405Y-46724919D02*
X46049405Y-45724919D01*
X46049405Y-45724919D02*
X46430357Y-45724919D01*
X46430357Y-45724919D02*
X46525595Y-45772538D01*
X46525595Y-45772538D02*
X46573214Y-45820157D01*
X46573214Y-45820157D02*
X46620833Y-45915395D01*
X46620833Y-45915395D02*
X46620833Y-46058252D01*
X46620833Y-46058252D02*
X46573214Y-46153490D01*
X46573214Y-46153490D02*
X46525595Y-46201109D01*
X46525595Y-46201109D02*
X46430357Y-46248728D01*
X46430357Y-46248728D02*
X46049405Y-46248728D01*
X47573214Y-46724919D02*
X47001786Y-46724919D01*
X47287500Y-46724919D02*
X47287500Y-45724919D01*
X47287500Y-45724919D02*
X47192262Y-45867776D01*
X47192262Y-45867776D02*
X47097024Y-45963014D01*
X47097024Y-45963014D02*
X47001786Y-46010633D01*
X48001786Y-46724919D02*
X48001786Y-45724919D01*
X48573214Y-46724919D02*
X48144643Y-46153490D01*
X48573214Y-45724919D02*
X48001786Y-46296347D01*
D12*
X71222976Y-38527890D02*
X71146786Y-38489795D01*
X71146786Y-38489795D02*
X71032500Y-38489795D01*
X71032500Y-38489795D02*
X70918214Y-38527890D01*
X70918214Y-38527890D02*
X70842024Y-38604080D01*
X70842024Y-38604080D02*
X70803929Y-38680271D01*
X70803929Y-38680271D02*
X70765833Y-38832652D01*
X70765833Y-38832652D02*
X70765833Y-38946938D01*
X70765833Y-38946938D02*
X70803929Y-39099319D01*
X70803929Y-39099319D02*
X70842024Y-39175509D01*
X70842024Y-39175509D02*
X70918214Y-39251700D01*
X70918214Y-39251700D02*
X71032500Y-39289795D01*
X71032500Y-39289795D02*
X71108691Y-39289795D01*
X71108691Y-39289795D02*
X71222976Y-39251700D01*
X71222976Y-39251700D02*
X71261072Y-39213604D01*
X71261072Y-39213604D02*
X71261072Y-38946938D01*
X71261072Y-38946938D02*
X71108691Y-38946938D01*
X71603929Y-39289795D02*
X71603929Y-38489795D01*
X71603929Y-38489795D02*
X72061072Y-39289795D01*
X72061072Y-39289795D02*
X72061072Y-38489795D01*
X72442024Y-39289795D02*
X72442024Y-38489795D01*
X72442024Y-38489795D02*
X72632500Y-38489795D01*
X72632500Y-38489795D02*
X72746786Y-38527890D01*
X72746786Y-38527890D02*
X72822976Y-38604080D01*
X72822976Y-38604080D02*
X72861071Y-38680271D01*
X72861071Y-38680271D02*
X72899167Y-38832652D01*
X72899167Y-38832652D02*
X72899167Y-38946938D01*
X72899167Y-38946938D02*
X72861071Y-39099319D01*
X72861071Y-39099319D02*
X72822976Y-39175509D01*
X72822976Y-39175509D02*
X72746786Y-39251700D01*
X72746786Y-39251700D02*
X72632500Y-39289795D01*
X72632500Y-39289795D02*
X72442024Y-39289795D01*
X70734118Y-28257890D02*
X70657928Y-28219795D01*
X70657928Y-28219795D02*
X70543642Y-28219795D01*
X70543642Y-28219795D02*
X70429356Y-28257890D01*
X70429356Y-28257890D02*
X70353166Y-28334080D01*
X70353166Y-28334080D02*
X70315071Y-28410271D01*
X70315071Y-28410271D02*
X70276975Y-28562652D01*
X70276975Y-28562652D02*
X70276975Y-28676938D01*
X70276975Y-28676938D02*
X70315071Y-28829319D01*
X70315071Y-28829319D02*
X70353166Y-28905509D01*
X70353166Y-28905509D02*
X70429356Y-28981700D01*
X70429356Y-28981700D02*
X70543642Y-29019795D01*
X70543642Y-29019795D02*
X70619833Y-29019795D01*
X70619833Y-29019795D02*
X70734118Y-28981700D01*
X70734118Y-28981700D02*
X70772214Y-28943604D01*
X70772214Y-28943604D02*
X70772214Y-28676938D01*
X70772214Y-28676938D02*
X70619833Y-28676938D01*
X71115071Y-29019795D02*
X71115071Y-28219795D01*
X71115071Y-28219795D02*
X71419833Y-28219795D01*
X71419833Y-28219795D02*
X71496023Y-28257890D01*
X71496023Y-28257890D02*
X71534118Y-28295985D01*
X71534118Y-28295985D02*
X71572214Y-28372176D01*
X71572214Y-28372176D02*
X71572214Y-28486461D01*
X71572214Y-28486461D02*
X71534118Y-28562652D01*
X71534118Y-28562652D02*
X71496023Y-28600747D01*
X71496023Y-28600747D02*
X71419833Y-28638842D01*
X71419833Y-28638842D02*
X71115071Y-28638842D01*
X72334118Y-29019795D02*
X71876975Y-29019795D01*
X72105547Y-29019795D02*
X72105547Y-28219795D01*
X72105547Y-28219795D02*
X72029356Y-28334080D01*
X72029356Y-28334080D02*
X71953166Y-28410271D01*
X71953166Y-28410271D02*
X71876975Y-28448366D01*
X72600785Y-28219795D02*
X73096023Y-28219795D01*
X73096023Y-28219795D02*
X72829357Y-28524557D01*
X72829357Y-28524557D02*
X72943642Y-28524557D01*
X72943642Y-28524557D02*
X73019833Y-28562652D01*
X73019833Y-28562652D02*
X73057928Y-28600747D01*
X73057928Y-28600747D02*
X73096023Y-28676938D01*
X73096023Y-28676938D02*
X73096023Y-28867414D01*
X73096023Y-28867414D02*
X73057928Y-28943604D01*
X73057928Y-28943604D02*
X73019833Y-28981700D01*
X73019833Y-28981700D02*
X72943642Y-29019795D01*
X72943642Y-29019795D02*
X72715071Y-29019795D01*
X72715071Y-29019795D02*
X72638880Y-28981700D01*
X72638880Y-28981700D02*
X72600785Y-28943604D01*
X71261071Y-41067890D02*
X71184881Y-41029795D01*
X71184881Y-41029795D02*
X71070595Y-41029795D01*
X71070595Y-41029795D02*
X70956309Y-41067890D01*
X70956309Y-41067890D02*
X70880119Y-41144080D01*
X70880119Y-41144080D02*
X70842024Y-41220271D01*
X70842024Y-41220271D02*
X70803928Y-41372652D01*
X70803928Y-41372652D02*
X70803928Y-41486938D01*
X70803928Y-41486938D02*
X70842024Y-41639319D01*
X70842024Y-41639319D02*
X70880119Y-41715509D01*
X70880119Y-41715509D02*
X70956309Y-41791700D01*
X70956309Y-41791700D02*
X71070595Y-41829795D01*
X71070595Y-41829795D02*
X71146786Y-41829795D01*
X71146786Y-41829795D02*
X71261071Y-41791700D01*
X71261071Y-41791700D02*
X71299167Y-41753604D01*
X71299167Y-41753604D02*
X71299167Y-41486938D01*
X71299167Y-41486938D02*
X71146786Y-41486938D01*
X71642024Y-41829795D02*
X71642024Y-41029795D01*
X71642024Y-41029795D02*
X71946786Y-41029795D01*
X71946786Y-41029795D02*
X72022976Y-41067890D01*
X72022976Y-41067890D02*
X72061071Y-41105985D01*
X72061071Y-41105985D02*
X72099167Y-41182176D01*
X72099167Y-41182176D02*
X72099167Y-41296461D01*
X72099167Y-41296461D02*
X72061071Y-41372652D01*
X72061071Y-41372652D02*
X72022976Y-41410747D01*
X72022976Y-41410747D02*
X71946786Y-41448842D01*
X71946786Y-41448842D02*
X71642024Y-41448842D01*
X72480119Y-41829795D02*
X72632500Y-41829795D01*
X72632500Y-41829795D02*
X72708690Y-41791700D01*
X72708690Y-41791700D02*
X72746786Y-41753604D01*
X72746786Y-41753604D02*
X72822976Y-41639319D01*
X72822976Y-41639319D02*
X72861071Y-41486938D01*
X72861071Y-41486938D02*
X72861071Y-41182176D01*
X72861071Y-41182176D02*
X72822976Y-41105985D01*
X72822976Y-41105985D02*
X72784881Y-41067890D01*
X72784881Y-41067890D02*
X72708690Y-41029795D01*
X72708690Y-41029795D02*
X72556309Y-41029795D01*
X72556309Y-41029795D02*
X72480119Y-41067890D01*
X72480119Y-41067890D02*
X72442024Y-41105985D01*
X72442024Y-41105985D02*
X72403928Y-41182176D01*
X72403928Y-41182176D02*
X72403928Y-41372652D01*
X72403928Y-41372652D02*
X72442024Y-41448842D01*
X72442024Y-41448842D02*
X72480119Y-41486938D01*
X72480119Y-41486938D02*
X72556309Y-41525033D01*
X72556309Y-41525033D02*
X72708690Y-41525033D01*
X72708690Y-41525033D02*
X72784881Y-41486938D01*
X72784881Y-41486938D02*
X72822976Y-41448842D01*
X72822976Y-41448842D02*
X72861071Y-41372652D01*
X57909523Y-58922295D02*
X58404761Y-58922295D01*
X58404761Y-58922295D02*
X58138095Y-59227057D01*
X58138095Y-59227057D02*
X58252380Y-59227057D01*
X58252380Y-59227057D02*
X58328571Y-59265152D01*
X58328571Y-59265152D02*
X58366666Y-59303247D01*
X58366666Y-59303247D02*
X58404761Y-59379438D01*
X58404761Y-59379438D02*
X58404761Y-59569914D01*
X58404761Y-59569914D02*
X58366666Y-59646104D01*
X58366666Y-59646104D02*
X58328571Y-59684200D01*
X58328571Y-59684200D02*
X58252380Y-59722295D01*
X58252380Y-59722295D02*
X58023809Y-59722295D01*
X58023809Y-59722295D02*
X57947618Y-59684200D01*
X57947618Y-59684200D02*
X57909523Y-59646104D01*
X58633333Y-58922295D02*
X58900000Y-59722295D01*
X58900000Y-59722295D02*
X59166666Y-58922295D01*
X59357142Y-58922295D02*
X59852380Y-58922295D01*
X59852380Y-58922295D02*
X59585714Y-59227057D01*
X59585714Y-59227057D02*
X59699999Y-59227057D01*
X59699999Y-59227057D02*
X59776190Y-59265152D01*
X59776190Y-59265152D02*
X59814285Y-59303247D01*
X59814285Y-59303247D02*
X59852380Y-59379438D01*
X59852380Y-59379438D02*
X59852380Y-59569914D01*
X59852380Y-59569914D02*
X59814285Y-59646104D01*
X59814285Y-59646104D02*
X59776190Y-59684200D01*
X59776190Y-59684200D02*
X59699999Y-59722295D01*
X59699999Y-59722295D02*
X59471428Y-59722295D01*
X59471428Y-59722295D02*
X59395237Y-59684200D01*
X59395237Y-59684200D02*
X59357142Y-59646104D01*
X58480118Y-40877890D02*
X58403928Y-40839795D01*
X58403928Y-40839795D02*
X58289642Y-40839795D01*
X58289642Y-40839795D02*
X58175356Y-40877890D01*
X58175356Y-40877890D02*
X58099166Y-40954080D01*
X58099166Y-40954080D02*
X58061071Y-41030271D01*
X58061071Y-41030271D02*
X58022975Y-41182652D01*
X58022975Y-41182652D02*
X58022975Y-41296938D01*
X58022975Y-41296938D02*
X58061071Y-41449319D01*
X58061071Y-41449319D02*
X58099166Y-41525509D01*
X58099166Y-41525509D02*
X58175356Y-41601700D01*
X58175356Y-41601700D02*
X58289642Y-41639795D01*
X58289642Y-41639795D02*
X58365833Y-41639795D01*
X58365833Y-41639795D02*
X58480118Y-41601700D01*
X58480118Y-41601700D02*
X58518214Y-41563604D01*
X58518214Y-41563604D02*
X58518214Y-41296938D01*
X58518214Y-41296938D02*
X58365833Y-41296938D01*
X58861071Y-41639795D02*
X58861071Y-40839795D01*
X58861071Y-40839795D02*
X59165833Y-40839795D01*
X59165833Y-40839795D02*
X59242023Y-40877890D01*
X59242023Y-40877890D02*
X59280118Y-40915985D01*
X59280118Y-40915985D02*
X59318214Y-40992176D01*
X59318214Y-40992176D02*
X59318214Y-41106461D01*
X59318214Y-41106461D02*
X59280118Y-41182652D01*
X59280118Y-41182652D02*
X59242023Y-41220747D01*
X59242023Y-41220747D02*
X59165833Y-41258842D01*
X59165833Y-41258842D02*
X58861071Y-41258842D01*
X59622975Y-40915985D02*
X59661071Y-40877890D01*
X59661071Y-40877890D02*
X59737261Y-40839795D01*
X59737261Y-40839795D02*
X59927737Y-40839795D01*
X59927737Y-40839795D02*
X60003928Y-40877890D01*
X60003928Y-40877890D02*
X60042023Y-40915985D01*
X60042023Y-40915985D02*
X60080118Y-40992176D01*
X60080118Y-40992176D02*
X60080118Y-41068366D01*
X60080118Y-41068366D02*
X60042023Y-41182652D01*
X60042023Y-41182652D02*
X59584880Y-41639795D01*
X59584880Y-41639795D02*
X60080118Y-41639795D01*
X60384880Y-40915985D02*
X60422976Y-40877890D01*
X60422976Y-40877890D02*
X60499166Y-40839795D01*
X60499166Y-40839795D02*
X60689642Y-40839795D01*
X60689642Y-40839795D02*
X60765833Y-40877890D01*
X60765833Y-40877890D02*
X60803928Y-40915985D01*
X60803928Y-40915985D02*
X60842023Y-40992176D01*
X60842023Y-40992176D02*
X60842023Y-41068366D01*
X60842023Y-41068366D02*
X60803928Y-41182652D01*
X60803928Y-41182652D02*
X60346785Y-41639795D01*
X60346785Y-41639795D02*
X60842023Y-41639795D01*
X58480118Y-48487890D02*
X58403928Y-48449795D01*
X58403928Y-48449795D02*
X58289642Y-48449795D01*
X58289642Y-48449795D02*
X58175356Y-48487890D01*
X58175356Y-48487890D02*
X58099166Y-48564080D01*
X58099166Y-48564080D02*
X58061071Y-48640271D01*
X58061071Y-48640271D02*
X58022975Y-48792652D01*
X58022975Y-48792652D02*
X58022975Y-48906938D01*
X58022975Y-48906938D02*
X58061071Y-49059319D01*
X58061071Y-49059319D02*
X58099166Y-49135509D01*
X58099166Y-49135509D02*
X58175356Y-49211700D01*
X58175356Y-49211700D02*
X58289642Y-49249795D01*
X58289642Y-49249795D02*
X58365833Y-49249795D01*
X58365833Y-49249795D02*
X58480118Y-49211700D01*
X58480118Y-49211700D02*
X58518214Y-49173604D01*
X58518214Y-49173604D02*
X58518214Y-48906938D01*
X58518214Y-48906938D02*
X58365833Y-48906938D01*
X58861071Y-49249795D02*
X58861071Y-48449795D01*
X58861071Y-48449795D02*
X59165833Y-48449795D01*
X59165833Y-48449795D02*
X59242023Y-48487890D01*
X59242023Y-48487890D02*
X59280118Y-48525985D01*
X59280118Y-48525985D02*
X59318214Y-48602176D01*
X59318214Y-48602176D02*
X59318214Y-48716461D01*
X59318214Y-48716461D02*
X59280118Y-48792652D01*
X59280118Y-48792652D02*
X59242023Y-48830747D01*
X59242023Y-48830747D02*
X59165833Y-48868842D01*
X59165833Y-48868842D02*
X58861071Y-48868842D01*
X59622975Y-48525985D02*
X59661071Y-48487890D01*
X59661071Y-48487890D02*
X59737261Y-48449795D01*
X59737261Y-48449795D02*
X59927737Y-48449795D01*
X59927737Y-48449795D02*
X60003928Y-48487890D01*
X60003928Y-48487890D02*
X60042023Y-48525985D01*
X60042023Y-48525985D02*
X60080118Y-48602176D01*
X60080118Y-48602176D02*
X60080118Y-48678366D01*
X60080118Y-48678366D02*
X60042023Y-48792652D01*
X60042023Y-48792652D02*
X59584880Y-49249795D01*
X59584880Y-49249795D02*
X60080118Y-49249795D01*
X60346785Y-48449795D02*
X60880119Y-48449795D01*
X60880119Y-48449795D02*
X60537261Y-49249795D01*
X59076976Y-38337890D02*
X59000786Y-38299795D01*
X59000786Y-38299795D02*
X58886500Y-38299795D01*
X58886500Y-38299795D02*
X58772214Y-38337890D01*
X58772214Y-38337890D02*
X58696024Y-38414080D01*
X58696024Y-38414080D02*
X58657929Y-38490271D01*
X58657929Y-38490271D02*
X58619833Y-38642652D01*
X58619833Y-38642652D02*
X58619833Y-38756938D01*
X58619833Y-38756938D02*
X58657929Y-38909319D01*
X58657929Y-38909319D02*
X58696024Y-38985509D01*
X58696024Y-38985509D02*
X58772214Y-39061700D01*
X58772214Y-39061700D02*
X58886500Y-39099795D01*
X58886500Y-39099795D02*
X58962691Y-39099795D01*
X58962691Y-39099795D02*
X59076976Y-39061700D01*
X59076976Y-39061700D02*
X59115072Y-39023604D01*
X59115072Y-39023604D02*
X59115072Y-38756938D01*
X59115072Y-38756938D02*
X58962691Y-38756938D01*
X59457929Y-39099795D02*
X59457929Y-38299795D01*
X59457929Y-38299795D02*
X59915072Y-39099795D01*
X59915072Y-39099795D02*
X59915072Y-38299795D01*
X60296024Y-39099795D02*
X60296024Y-38299795D01*
X60296024Y-38299795D02*
X60486500Y-38299795D01*
X60486500Y-38299795D02*
X60600786Y-38337890D01*
X60600786Y-38337890D02*
X60676976Y-38414080D01*
X60676976Y-38414080D02*
X60715071Y-38490271D01*
X60715071Y-38490271D02*
X60753167Y-38642652D01*
X60753167Y-38642652D02*
X60753167Y-38756938D01*
X60753167Y-38756938D02*
X60715071Y-38909319D01*
X60715071Y-38909319D02*
X60676976Y-38985509D01*
X60676976Y-38985509D02*
X60600786Y-39061700D01*
X60600786Y-39061700D02*
X60486500Y-39099795D01*
X60486500Y-39099795D02*
X60296024Y-39099795D01*
X58480118Y-33257890D02*
X58403928Y-33219795D01*
X58403928Y-33219795D02*
X58289642Y-33219795D01*
X58289642Y-33219795D02*
X58175356Y-33257890D01*
X58175356Y-33257890D02*
X58099166Y-33334080D01*
X58099166Y-33334080D02*
X58061071Y-33410271D01*
X58061071Y-33410271D02*
X58022975Y-33562652D01*
X58022975Y-33562652D02*
X58022975Y-33676938D01*
X58022975Y-33676938D02*
X58061071Y-33829319D01*
X58061071Y-33829319D02*
X58099166Y-33905509D01*
X58099166Y-33905509D02*
X58175356Y-33981700D01*
X58175356Y-33981700D02*
X58289642Y-34019795D01*
X58289642Y-34019795D02*
X58365833Y-34019795D01*
X58365833Y-34019795D02*
X58480118Y-33981700D01*
X58480118Y-33981700D02*
X58518214Y-33943604D01*
X58518214Y-33943604D02*
X58518214Y-33676938D01*
X58518214Y-33676938D02*
X58365833Y-33676938D01*
X58861071Y-34019795D02*
X58861071Y-33219795D01*
X58861071Y-33219795D02*
X59165833Y-33219795D01*
X59165833Y-33219795D02*
X59242023Y-33257890D01*
X59242023Y-33257890D02*
X59280118Y-33295985D01*
X59280118Y-33295985D02*
X59318214Y-33372176D01*
X59318214Y-33372176D02*
X59318214Y-33486461D01*
X59318214Y-33486461D02*
X59280118Y-33562652D01*
X59280118Y-33562652D02*
X59242023Y-33600747D01*
X59242023Y-33600747D02*
X59165833Y-33638842D01*
X59165833Y-33638842D02*
X58861071Y-33638842D01*
X59622975Y-33295985D02*
X59661071Y-33257890D01*
X59661071Y-33257890D02*
X59737261Y-33219795D01*
X59737261Y-33219795D02*
X59927737Y-33219795D01*
X59927737Y-33219795D02*
X60003928Y-33257890D01*
X60003928Y-33257890D02*
X60042023Y-33295985D01*
X60042023Y-33295985D02*
X60080118Y-33372176D01*
X60080118Y-33372176D02*
X60080118Y-33448366D01*
X60080118Y-33448366D02*
X60042023Y-33562652D01*
X60042023Y-33562652D02*
X59584880Y-34019795D01*
X59584880Y-34019795D02*
X60080118Y-34019795D01*
X60575357Y-33219795D02*
X60651547Y-33219795D01*
X60651547Y-33219795D02*
X60727738Y-33257890D01*
X60727738Y-33257890D02*
X60765833Y-33295985D01*
X60765833Y-33295985D02*
X60803928Y-33372176D01*
X60803928Y-33372176D02*
X60842023Y-33524557D01*
X60842023Y-33524557D02*
X60842023Y-33715033D01*
X60842023Y-33715033D02*
X60803928Y-33867414D01*
X60803928Y-33867414D02*
X60765833Y-33943604D01*
X60765833Y-33943604D02*
X60727738Y-33981700D01*
X60727738Y-33981700D02*
X60651547Y-34019795D01*
X60651547Y-34019795D02*
X60575357Y-34019795D01*
X60575357Y-34019795D02*
X60499166Y-33981700D01*
X60499166Y-33981700D02*
X60461071Y-33943604D01*
X60461071Y-33943604D02*
X60422976Y-33867414D01*
X60422976Y-33867414D02*
X60384880Y-33715033D01*
X60384880Y-33715033D02*
X60384880Y-33524557D01*
X60384880Y-33524557D02*
X60422976Y-33372176D01*
X60422976Y-33372176D02*
X60461071Y-33295985D01*
X60461071Y-33295985D02*
X60499166Y-33257890D01*
X60499166Y-33257890D02*
X60575357Y-33219795D01*
X71261071Y-53767890D02*
X71184881Y-53729795D01*
X71184881Y-53729795D02*
X71070595Y-53729795D01*
X71070595Y-53729795D02*
X70956309Y-53767890D01*
X70956309Y-53767890D02*
X70880119Y-53844080D01*
X70880119Y-53844080D02*
X70842024Y-53920271D01*
X70842024Y-53920271D02*
X70803928Y-54072652D01*
X70803928Y-54072652D02*
X70803928Y-54186938D01*
X70803928Y-54186938D02*
X70842024Y-54339319D01*
X70842024Y-54339319D02*
X70880119Y-54415509D01*
X70880119Y-54415509D02*
X70956309Y-54491700D01*
X70956309Y-54491700D02*
X71070595Y-54529795D01*
X71070595Y-54529795D02*
X71146786Y-54529795D01*
X71146786Y-54529795D02*
X71261071Y-54491700D01*
X71261071Y-54491700D02*
X71299167Y-54453604D01*
X71299167Y-54453604D02*
X71299167Y-54186938D01*
X71299167Y-54186938D02*
X71146786Y-54186938D01*
X71642024Y-54529795D02*
X71642024Y-53729795D01*
X71642024Y-53729795D02*
X71946786Y-53729795D01*
X71946786Y-53729795D02*
X72022976Y-53767890D01*
X72022976Y-53767890D02*
X72061071Y-53805985D01*
X72061071Y-53805985D02*
X72099167Y-53882176D01*
X72099167Y-53882176D02*
X72099167Y-53996461D01*
X72099167Y-53996461D02*
X72061071Y-54072652D01*
X72061071Y-54072652D02*
X72022976Y-54110747D01*
X72022976Y-54110747D02*
X71946786Y-54148842D01*
X71946786Y-54148842D02*
X71642024Y-54148842D01*
X72822976Y-53729795D02*
X72442024Y-53729795D01*
X72442024Y-53729795D02*
X72403928Y-54110747D01*
X72403928Y-54110747D02*
X72442024Y-54072652D01*
X72442024Y-54072652D02*
X72518214Y-54034557D01*
X72518214Y-54034557D02*
X72708690Y-54034557D01*
X72708690Y-54034557D02*
X72784881Y-54072652D01*
X72784881Y-54072652D02*
X72822976Y-54110747D01*
X72822976Y-54110747D02*
X72861071Y-54186938D01*
X72861071Y-54186938D02*
X72861071Y-54377414D01*
X72861071Y-54377414D02*
X72822976Y-54453604D01*
X72822976Y-54453604D02*
X72784881Y-54491700D01*
X72784881Y-54491700D02*
X72708690Y-54529795D01*
X72708690Y-54529795D02*
X72518214Y-54529795D01*
X72518214Y-54529795D02*
X72442024Y-54491700D01*
X72442024Y-54491700D02*
X72403928Y-54453604D01*
X71261071Y-58847890D02*
X71184881Y-58809795D01*
X71184881Y-58809795D02*
X71070595Y-58809795D01*
X71070595Y-58809795D02*
X70956309Y-58847890D01*
X70956309Y-58847890D02*
X70880119Y-58924080D01*
X70880119Y-58924080D02*
X70842024Y-59000271D01*
X70842024Y-59000271D02*
X70803928Y-59152652D01*
X70803928Y-59152652D02*
X70803928Y-59266938D01*
X70803928Y-59266938D02*
X70842024Y-59419319D01*
X70842024Y-59419319D02*
X70880119Y-59495509D01*
X70880119Y-59495509D02*
X70956309Y-59571700D01*
X70956309Y-59571700D02*
X71070595Y-59609795D01*
X71070595Y-59609795D02*
X71146786Y-59609795D01*
X71146786Y-59609795D02*
X71261071Y-59571700D01*
X71261071Y-59571700D02*
X71299167Y-59533604D01*
X71299167Y-59533604D02*
X71299167Y-59266938D01*
X71299167Y-59266938D02*
X71146786Y-59266938D01*
X71642024Y-59609795D02*
X71642024Y-58809795D01*
X71642024Y-58809795D02*
X71946786Y-58809795D01*
X71946786Y-58809795D02*
X72022976Y-58847890D01*
X72022976Y-58847890D02*
X72061071Y-58885985D01*
X72061071Y-58885985D02*
X72099167Y-58962176D01*
X72099167Y-58962176D02*
X72099167Y-59076461D01*
X72099167Y-59076461D02*
X72061071Y-59152652D01*
X72061071Y-59152652D02*
X72022976Y-59190747D01*
X72022976Y-59190747D02*
X71946786Y-59228842D01*
X71946786Y-59228842D02*
X71642024Y-59228842D01*
X72365833Y-58809795D02*
X72861071Y-58809795D01*
X72861071Y-58809795D02*
X72594405Y-59114557D01*
X72594405Y-59114557D02*
X72708690Y-59114557D01*
X72708690Y-59114557D02*
X72784881Y-59152652D01*
X72784881Y-59152652D02*
X72822976Y-59190747D01*
X72822976Y-59190747D02*
X72861071Y-59266938D01*
X72861071Y-59266938D02*
X72861071Y-59457414D01*
X72861071Y-59457414D02*
X72822976Y-59533604D01*
X72822976Y-59533604D02*
X72784881Y-59571700D01*
X72784881Y-59571700D02*
X72708690Y-59609795D01*
X72708690Y-59609795D02*
X72480119Y-59609795D01*
X72480119Y-59609795D02*
X72403928Y-59571700D01*
X72403928Y-59571700D02*
X72365833Y-59533604D01*
X58022976Y-51571223D02*
X58403929Y-51571223D01*
X57946786Y-51799795D02*
X58213453Y-50999795D01*
X58213453Y-50999795D02*
X58480119Y-51799795D01*
X59165833Y-51037890D02*
X59089643Y-50999795D01*
X59089643Y-50999795D02*
X58975357Y-50999795D01*
X58975357Y-50999795D02*
X58861071Y-51037890D01*
X58861071Y-51037890D02*
X58784881Y-51114080D01*
X58784881Y-51114080D02*
X58746786Y-51190271D01*
X58746786Y-51190271D02*
X58708690Y-51342652D01*
X58708690Y-51342652D02*
X58708690Y-51456938D01*
X58708690Y-51456938D02*
X58746786Y-51609319D01*
X58746786Y-51609319D02*
X58784881Y-51685509D01*
X58784881Y-51685509D02*
X58861071Y-51761700D01*
X58861071Y-51761700D02*
X58975357Y-51799795D01*
X58975357Y-51799795D02*
X59051548Y-51799795D01*
X59051548Y-51799795D02*
X59165833Y-51761700D01*
X59165833Y-51761700D02*
X59203929Y-51723604D01*
X59203929Y-51723604D02*
X59203929Y-51456938D01*
X59203929Y-51456938D02*
X59051548Y-51456938D01*
X59546786Y-51799795D02*
X59546786Y-50999795D01*
X59546786Y-50999795D02*
X60003929Y-51799795D01*
X60003929Y-51799795D02*
X60003929Y-50999795D01*
X60384881Y-51799795D02*
X60384881Y-50999795D01*
X60384881Y-50999795D02*
X60575357Y-50999795D01*
X60575357Y-50999795D02*
X60689643Y-51037890D01*
X60689643Y-51037890D02*
X60765833Y-51114080D01*
X60765833Y-51114080D02*
X60803928Y-51190271D01*
X60803928Y-51190271D02*
X60842024Y-51342652D01*
X60842024Y-51342652D02*
X60842024Y-51456938D01*
X60842024Y-51456938D02*
X60803928Y-51609319D01*
X60803928Y-51609319D02*
X60765833Y-51685509D01*
X60765833Y-51685509D02*
X60689643Y-51761700D01*
X60689643Y-51761700D02*
X60575357Y-51799795D01*
X60575357Y-51799795D02*
X60384881Y-51799795D01*
X71261071Y-43607890D02*
X71184881Y-43569795D01*
X71184881Y-43569795D02*
X71070595Y-43569795D01*
X71070595Y-43569795D02*
X70956309Y-43607890D01*
X70956309Y-43607890D02*
X70880119Y-43684080D01*
X70880119Y-43684080D02*
X70842024Y-43760271D01*
X70842024Y-43760271D02*
X70803928Y-43912652D01*
X70803928Y-43912652D02*
X70803928Y-44026938D01*
X70803928Y-44026938D02*
X70842024Y-44179319D01*
X70842024Y-44179319D02*
X70880119Y-44255509D01*
X70880119Y-44255509D02*
X70956309Y-44331700D01*
X70956309Y-44331700D02*
X71070595Y-44369795D01*
X71070595Y-44369795D02*
X71146786Y-44369795D01*
X71146786Y-44369795D02*
X71261071Y-44331700D01*
X71261071Y-44331700D02*
X71299167Y-44293604D01*
X71299167Y-44293604D02*
X71299167Y-44026938D01*
X71299167Y-44026938D02*
X71146786Y-44026938D01*
X71642024Y-44369795D02*
X71642024Y-43569795D01*
X71642024Y-43569795D02*
X71946786Y-43569795D01*
X71946786Y-43569795D02*
X72022976Y-43607890D01*
X72022976Y-43607890D02*
X72061071Y-43645985D01*
X72061071Y-43645985D02*
X72099167Y-43722176D01*
X72099167Y-43722176D02*
X72099167Y-43836461D01*
X72099167Y-43836461D02*
X72061071Y-43912652D01*
X72061071Y-43912652D02*
X72022976Y-43950747D01*
X72022976Y-43950747D02*
X71946786Y-43988842D01*
X71946786Y-43988842D02*
X71642024Y-43988842D01*
X72556309Y-43912652D02*
X72480119Y-43874557D01*
X72480119Y-43874557D02*
X72442024Y-43836461D01*
X72442024Y-43836461D02*
X72403928Y-43760271D01*
X72403928Y-43760271D02*
X72403928Y-43722176D01*
X72403928Y-43722176D02*
X72442024Y-43645985D01*
X72442024Y-43645985D02*
X72480119Y-43607890D01*
X72480119Y-43607890D02*
X72556309Y-43569795D01*
X72556309Y-43569795D02*
X72708690Y-43569795D01*
X72708690Y-43569795D02*
X72784881Y-43607890D01*
X72784881Y-43607890D02*
X72822976Y-43645985D01*
X72822976Y-43645985D02*
X72861071Y-43722176D01*
X72861071Y-43722176D02*
X72861071Y-43760271D01*
X72861071Y-43760271D02*
X72822976Y-43836461D01*
X72822976Y-43836461D02*
X72784881Y-43874557D01*
X72784881Y-43874557D02*
X72708690Y-43912652D01*
X72708690Y-43912652D02*
X72556309Y-43912652D01*
X72556309Y-43912652D02*
X72480119Y-43950747D01*
X72480119Y-43950747D02*
X72442024Y-43988842D01*
X72442024Y-43988842D02*
X72403928Y-44065033D01*
X72403928Y-44065033D02*
X72403928Y-44217414D01*
X72403928Y-44217414D02*
X72442024Y-44293604D01*
X72442024Y-44293604D02*
X72480119Y-44331700D01*
X72480119Y-44331700D02*
X72556309Y-44369795D01*
X72556309Y-44369795D02*
X72708690Y-44369795D01*
X72708690Y-44369795D02*
X72784881Y-44331700D01*
X72784881Y-44331700D02*
X72822976Y-44293604D01*
X72822976Y-44293604D02*
X72861071Y-44217414D01*
X72861071Y-44217414D02*
X72861071Y-44065033D01*
X72861071Y-44065033D02*
X72822976Y-43988842D01*
X72822976Y-43988842D02*
X72784881Y-43950747D01*
X72784881Y-43950747D02*
X72708690Y-43912652D01*
X58480118Y-30717890D02*
X58403928Y-30679795D01*
X58403928Y-30679795D02*
X58289642Y-30679795D01*
X58289642Y-30679795D02*
X58175356Y-30717890D01*
X58175356Y-30717890D02*
X58099166Y-30794080D01*
X58099166Y-30794080D02*
X58061071Y-30870271D01*
X58061071Y-30870271D02*
X58022975Y-31022652D01*
X58022975Y-31022652D02*
X58022975Y-31136938D01*
X58022975Y-31136938D02*
X58061071Y-31289319D01*
X58061071Y-31289319D02*
X58099166Y-31365509D01*
X58099166Y-31365509D02*
X58175356Y-31441700D01*
X58175356Y-31441700D02*
X58289642Y-31479795D01*
X58289642Y-31479795D02*
X58365833Y-31479795D01*
X58365833Y-31479795D02*
X58480118Y-31441700D01*
X58480118Y-31441700D02*
X58518214Y-31403604D01*
X58518214Y-31403604D02*
X58518214Y-31136938D01*
X58518214Y-31136938D02*
X58365833Y-31136938D01*
X58861071Y-31479795D02*
X58861071Y-30679795D01*
X58861071Y-30679795D02*
X59165833Y-30679795D01*
X59165833Y-30679795D02*
X59242023Y-30717890D01*
X59242023Y-30717890D02*
X59280118Y-30755985D01*
X59280118Y-30755985D02*
X59318214Y-30832176D01*
X59318214Y-30832176D02*
X59318214Y-30946461D01*
X59318214Y-30946461D02*
X59280118Y-31022652D01*
X59280118Y-31022652D02*
X59242023Y-31060747D01*
X59242023Y-31060747D02*
X59165833Y-31098842D01*
X59165833Y-31098842D02*
X58861071Y-31098842D01*
X60080118Y-31479795D02*
X59622975Y-31479795D01*
X59851547Y-31479795D02*
X59851547Y-30679795D01*
X59851547Y-30679795D02*
X59775356Y-30794080D01*
X59775356Y-30794080D02*
X59699166Y-30870271D01*
X59699166Y-30870271D02*
X59622975Y-30908366D01*
X60461071Y-31479795D02*
X60613452Y-31479795D01*
X60613452Y-31479795D02*
X60689642Y-31441700D01*
X60689642Y-31441700D02*
X60727738Y-31403604D01*
X60727738Y-31403604D02*
X60803928Y-31289319D01*
X60803928Y-31289319D02*
X60842023Y-31136938D01*
X60842023Y-31136938D02*
X60842023Y-30832176D01*
X60842023Y-30832176D02*
X60803928Y-30755985D01*
X60803928Y-30755985D02*
X60765833Y-30717890D01*
X60765833Y-30717890D02*
X60689642Y-30679795D01*
X60689642Y-30679795D02*
X60537261Y-30679795D01*
X60537261Y-30679795D02*
X60461071Y-30717890D01*
X60461071Y-30717890D02*
X60422976Y-30755985D01*
X60422976Y-30755985D02*
X60384880Y-30832176D01*
X60384880Y-30832176D02*
X60384880Y-31022652D01*
X60384880Y-31022652D02*
X60422976Y-31098842D01*
X60422976Y-31098842D02*
X60461071Y-31136938D01*
X60461071Y-31136938D02*
X60537261Y-31175033D01*
X60537261Y-31175033D02*
X60689642Y-31175033D01*
X60689642Y-31175033D02*
X60765833Y-31136938D01*
X60765833Y-31136938D02*
X60803928Y-31098842D01*
X60803928Y-31098842D02*
X60842023Y-31022652D01*
X58276976Y-63877890D02*
X58200786Y-63839795D01*
X58200786Y-63839795D02*
X58086500Y-63839795D01*
X58086500Y-63839795D02*
X57972214Y-63877890D01*
X57972214Y-63877890D02*
X57896024Y-63954080D01*
X57896024Y-63954080D02*
X57857929Y-64030271D01*
X57857929Y-64030271D02*
X57819833Y-64182652D01*
X57819833Y-64182652D02*
X57819833Y-64296938D01*
X57819833Y-64296938D02*
X57857929Y-64449319D01*
X57857929Y-64449319D02*
X57896024Y-64525509D01*
X57896024Y-64525509D02*
X57972214Y-64601700D01*
X57972214Y-64601700D02*
X58086500Y-64639795D01*
X58086500Y-64639795D02*
X58162691Y-64639795D01*
X58162691Y-64639795D02*
X58276976Y-64601700D01*
X58276976Y-64601700D02*
X58315072Y-64563604D01*
X58315072Y-64563604D02*
X58315072Y-64296938D01*
X58315072Y-64296938D02*
X58162691Y-64296938D01*
X58657929Y-64639795D02*
X58657929Y-63839795D01*
X58657929Y-63839795D02*
X59115072Y-64639795D01*
X59115072Y-64639795D02*
X59115072Y-63839795D01*
X59496024Y-64639795D02*
X59496024Y-63839795D01*
X59496024Y-63839795D02*
X59686500Y-63839795D01*
X59686500Y-63839795D02*
X59800786Y-63877890D01*
X59800786Y-63877890D02*
X59876976Y-63954080D01*
X59876976Y-63954080D02*
X59915071Y-64030271D01*
X59915071Y-64030271D02*
X59953167Y-64182652D01*
X59953167Y-64182652D02*
X59953167Y-64296938D01*
X59953167Y-64296938D02*
X59915071Y-64449319D01*
X59915071Y-64449319D02*
X59876976Y-64525509D01*
X59876976Y-64525509D02*
X59800786Y-64601700D01*
X59800786Y-64601700D02*
X59686500Y-64639795D01*
X59686500Y-64639795D02*
X59496024Y-64639795D01*
X58480118Y-23097890D02*
X58403928Y-23059795D01*
X58403928Y-23059795D02*
X58289642Y-23059795D01*
X58289642Y-23059795D02*
X58175356Y-23097890D01*
X58175356Y-23097890D02*
X58099166Y-23174080D01*
X58099166Y-23174080D02*
X58061071Y-23250271D01*
X58061071Y-23250271D02*
X58022975Y-23402652D01*
X58022975Y-23402652D02*
X58022975Y-23516938D01*
X58022975Y-23516938D02*
X58061071Y-23669319D01*
X58061071Y-23669319D02*
X58099166Y-23745509D01*
X58099166Y-23745509D02*
X58175356Y-23821700D01*
X58175356Y-23821700D02*
X58289642Y-23859795D01*
X58289642Y-23859795D02*
X58365833Y-23859795D01*
X58365833Y-23859795D02*
X58480118Y-23821700D01*
X58480118Y-23821700D02*
X58518214Y-23783604D01*
X58518214Y-23783604D02*
X58518214Y-23516938D01*
X58518214Y-23516938D02*
X58365833Y-23516938D01*
X58861071Y-23859795D02*
X58861071Y-23059795D01*
X58861071Y-23059795D02*
X59165833Y-23059795D01*
X59165833Y-23059795D02*
X59242023Y-23097890D01*
X59242023Y-23097890D02*
X59280118Y-23135985D01*
X59280118Y-23135985D02*
X59318214Y-23212176D01*
X59318214Y-23212176D02*
X59318214Y-23326461D01*
X59318214Y-23326461D02*
X59280118Y-23402652D01*
X59280118Y-23402652D02*
X59242023Y-23440747D01*
X59242023Y-23440747D02*
X59165833Y-23478842D01*
X59165833Y-23478842D02*
X58861071Y-23478842D01*
X60080118Y-23859795D02*
X59622975Y-23859795D01*
X59851547Y-23859795D02*
X59851547Y-23059795D01*
X59851547Y-23059795D02*
X59775356Y-23174080D01*
X59775356Y-23174080D02*
X59699166Y-23250271D01*
X59699166Y-23250271D02*
X59622975Y-23288366D01*
X60346785Y-23059795D02*
X60880119Y-23059795D01*
X60880119Y-23059795D02*
X60537261Y-23859795D01*
X71261071Y-56307890D02*
X71184881Y-56269795D01*
X71184881Y-56269795D02*
X71070595Y-56269795D01*
X71070595Y-56269795D02*
X70956309Y-56307890D01*
X70956309Y-56307890D02*
X70880119Y-56384080D01*
X70880119Y-56384080D02*
X70842024Y-56460271D01*
X70842024Y-56460271D02*
X70803928Y-56612652D01*
X70803928Y-56612652D02*
X70803928Y-56726938D01*
X70803928Y-56726938D02*
X70842024Y-56879319D01*
X70842024Y-56879319D02*
X70880119Y-56955509D01*
X70880119Y-56955509D02*
X70956309Y-57031700D01*
X70956309Y-57031700D02*
X71070595Y-57069795D01*
X71070595Y-57069795D02*
X71146786Y-57069795D01*
X71146786Y-57069795D02*
X71261071Y-57031700D01*
X71261071Y-57031700D02*
X71299167Y-56993604D01*
X71299167Y-56993604D02*
X71299167Y-56726938D01*
X71299167Y-56726938D02*
X71146786Y-56726938D01*
X71642024Y-57069795D02*
X71642024Y-56269795D01*
X71642024Y-56269795D02*
X71946786Y-56269795D01*
X71946786Y-56269795D02*
X72022976Y-56307890D01*
X72022976Y-56307890D02*
X72061071Y-56345985D01*
X72061071Y-56345985D02*
X72099167Y-56422176D01*
X72099167Y-56422176D02*
X72099167Y-56536461D01*
X72099167Y-56536461D02*
X72061071Y-56612652D01*
X72061071Y-56612652D02*
X72022976Y-56650747D01*
X72022976Y-56650747D02*
X71946786Y-56688842D01*
X71946786Y-56688842D02*
X71642024Y-56688842D01*
X72784881Y-56536461D02*
X72784881Y-57069795D01*
X72594405Y-56231700D02*
X72403928Y-56803128D01*
X72403928Y-56803128D02*
X72899167Y-56803128D01*
X71361071Y-66477890D02*
X71284881Y-66439795D01*
X71284881Y-66439795D02*
X71170595Y-66439795D01*
X71170595Y-66439795D02*
X71056309Y-66477890D01*
X71056309Y-66477890D02*
X70980119Y-66554080D01*
X70980119Y-66554080D02*
X70942024Y-66630271D01*
X70942024Y-66630271D02*
X70903928Y-66782652D01*
X70903928Y-66782652D02*
X70903928Y-66896938D01*
X70903928Y-66896938D02*
X70942024Y-67049319D01*
X70942024Y-67049319D02*
X70980119Y-67125509D01*
X70980119Y-67125509D02*
X71056309Y-67201700D01*
X71056309Y-67201700D02*
X71170595Y-67239795D01*
X71170595Y-67239795D02*
X71246786Y-67239795D01*
X71246786Y-67239795D02*
X71361071Y-67201700D01*
X71361071Y-67201700D02*
X71399167Y-67163604D01*
X71399167Y-67163604D02*
X71399167Y-66896938D01*
X71399167Y-66896938D02*
X71246786Y-66896938D01*
X71742024Y-67239795D02*
X71742024Y-66439795D01*
X71742024Y-66439795D02*
X72046786Y-66439795D01*
X72046786Y-66439795D02*
X72122976Y-66477890D01*
X72122976Y-66477890D02*
X72161071Y-66515985D01*
X72161071Y-66515985D02*
X72199167Y-66592176D01*
X72199167Y-66592176D02*
X72199167Y-66706461D01*
X72199167Y-66706461D02*
X72161071Y-66782652D01*
X72161071Y-66782652D02*
X72122976Y-66820747D01*
X72122976Y-66820747D02*
X72046786Y-66858842D01*
X72046786Y-66858842D02*
X71742024Y-66858842D01*
X72961071Y-67239795D02*
X72503928Y-67239795D01*
X72732500Y-67239795D02*
X72732500Y-66439795D01*
X72732500Y-66439795D02*
X72656309Y-66554080D01*
X72656309Y-66554080D02*
X72580119Y-66630271D01*
X72580119Y-66630271D02*
X72503928Y-66668366D01*
X58480118Y-35787890D02*
X58403928Y-35749795D01*
X58403928Y-35749795D02*
X58289642Y-35749795D01*
X58289642Y-35749795D02*
X58175356Y-35787890D01*
X58175356Y-35787890D02*
X58099166Y-35864080D01*
X58099166Y-35864080D02*
X58061071Y-35940271D01*
X58061071Y-35940271D02*
X58022975Y-36092652D01*
X58022975Y-36092652D02*
X58022975Y-36206938D01*
X58022975Y-36206938D02*
X58061071Y-36359319D01*
X58061071Y-36359319D02*
X58099166Y-36435509D01*
X58099166Y-36435509D02*
X58175356Y-36511700D01*
X58175356Y-36511700D02*
X58289642Y-36549795D01*
X58289642Y-36549795D02*
X58365833Y-36549795D01*
X58365833Y-36549795D02*
X58480118Y-36511700D01*
X58480118Y-36511700D02*
X58518214Y-36473604D01*
X58518214Y-36473604D02*
X58518214Y-36206938D01*
X58518214Y-36206938D02*
X58365833Y-36206938D01*
X58861071Y-36549795D02*
X58861071Y-35749795D01*
X58861071Y-35749795D02*
X59165833Y-35749795D01*
X59165833Y-35749795D02*
X59242023Y-35787890D01*
X59242023Y-35787890D02*
X59280118Y-35825985D01*
X59280118Y-35825985D02*
X59318214Y-35902176D01*
X59318214Y-35902176D02*
X59318214Y-36016461D01*
X59318214Y-36016461D02*
X59280118Y-36092652D01*
X59280118Y-36092652D02*
X59242023Y-36130747D01*
X59242023Y-36130747D02*
X59165833Y-36168842D01*
X59165833Y-36168842D02*
X58861071Y-36168842D01*
X59622975Y-35825985D02*
X59661071Y-35787890D01*
X59661071Y-35787890D02*
X59737261Y-35749795D01*
X59737261Y-35749795D02*
X59927737Y-35749795D01*
X59927737Y-35749795D02*
X60003928Y-35787890D01*
X60003928Y-35787890D02*
X60042023Y-35825985D01*
X60042023Y-35825985D02*
X60080118Y-35902176D01*
X60080118Y-35902176D02*
X60080118Y-35978366D01*
X60080118Y-35978366D02*
X60042023Y-36092652D01*
X60042023Y-36092652D02*
X59584880Y-36549795D01*
X59584880Y-36549795D02*
X60080118Y-36549795D01*
X60842023Y-36549795D02*
X60384880Y-36549795D01*
X60613452Y-36549795D02*
X60613452Y-35749795D01*
X60613452Y-35749795D02*
X60537261Y-35864080D01*
X60537261Y-35864080D02*
X60461071Y-35940271D01*
X60461071Y-35940271D02*
X60384880Y-35978366D01*
X70822976Y-25717890D02*
X70746786Y-25679795D01*
X70746786Y-25679795D02*
X70632500Y-25679795D01*
X70632500Y-25679795D02*
X70518214Y-25717890D01*
X70518214Y-25717890D02*
X70442024Y-25794080D01*
X70442024Y-25794080D02*
X70403929Y-25870271D01*
X70403929Y-25870271D02*
X70365833Y-26022652D01*
X70365833Y-26022652D02*
X70365833Y-26136938D01*
X70365833Y-26136938D02*
X70403929Y-26289319D01*
X70403929Y-26289319D02*
X70442024Y-26365509D01*
X70442024Y-26365509D02*
X70518214Y-26441700D01*
X70518214Y-26441700D02*
X70632500Y-26479795D01*
X70632500Y-26479795D02*
X70708691Y-26479795D01*
X70708691Y-26479795D02*
X70822976Y-26441700D01*
X70822976Y-26441700D02*
X70861072Y-26403604D01*
X70861072Y-26403604D02*
X70861072Y-26136938D01*
X70861072Y-26136938D02*
X70708691Y-26136938D01*
X71203929Y-26479795D02*
X71203929Y-25679795D01*
X71203929Y-25679795D02*
X71661072Y-26479795D01*
X71661072Y-26479795D02*
X71661072Y-25679795D01*
X72042024Y-26479795D02*
X72042024Y-25679795D01*
X72042024Y-25679795D02*
X72232500Y-25679795D01*
X72232500Y-25679795D02*
X72346786Y-25717890D01*
X72346786Y-25717890D02*
X72422976Y-25794080D01*
X72422976Y-25794080D02*
X72461071Y-25870271D01*
X72461071Y-25870271D02*
X72499167Y-26022652D01*
X72499167Y-26022652D02*
X72499167Y-26136938D01*
X72499167Y-26136938D02*
X72461071Y-26289319D01*
X72461071Y-26289319D02*
X72422976Y-26365509D01*
X72422976Y-26365509D02*
X72346786Y-26441700D01*
X72346786Y-26441700D02*
X72232500Y-26479795D01*
X72232500Y-26479795D02*
X72042024Y-26479795D01*
X70880118Y-33337890D02*
X70803928Y-33299795D01*
X70803928Y-33299795D02*
X70689642Y-33299795D01*
X70689642Y-33299795D02*
X70575356Y-33337890D01*
X70575356Y-33337890D02*
X70499166Y-33414080D01*
X70499166Y-33414080D02*
X70461071Y-33490271D01*
X70461071Y-33490271D02*
X70422975Y-33642652D01*
X70422975Y-33642652D02*
X70422975Y-33756938D01*
X70422975Y-33756938D02*
X70461071Y-33909319D01*
X70461071Y-33909319D02*
X70499166Y-33985509D01*
X70499166Y-33985509D02*
X70575356Y-34061700D01*
X70575356Y-34061700D02*
X70689642Y-34099795D01*
X70689642Y-34099795D02*
X70765833Y-34099795D01*
X70765833Y-34099795D02*
X70880118Y-34061700D01*
X70880118Y-34061700D02*
X70918214Y-34023604D01*
X70918214Y-34023604D02*
X70918214Y-33756938D01*
X70918214Y-33756938D02*
X70765833Y-33756938D01*
X71261071Y-34099795D02*
X71261071Y-33299795D01*
X71261071Y-33299795D02*
X71565833Y-33299795D01*
X71565833Y-33299795D02*
X71642023Y-33337890D01*
X71642023Y-33337890D02*
X71680118Y-33375985D01*
X71680118Y-33375985D02*
X71718214Y-33452176D01*
X71718214Y-33452176D02*
X71718214Y-33566461D01*
X71718214Y-33566461D02*
X71680118Y-33642652D01*
X71680118Y-33642652D02*
X71642023Y-33680747D01*
X71642023Y-33680747D02*
X71565833Y-33718842D01*
X71565833Y-33718842D02*
X71261071Y-33718842D01*
X72480118Y-34099795D02*
X72022975Y-34099795D01*
X72251547Y-34099795D02*
X72251547Y-33299795D01*
X72251547Y-33299795D02*
X72175356Y-33414080D01*
X72175356Y-33414080D02*
X72099166Y-33490271D01*
X72099166Y-33490271D02*
X72022975Y-33528366D01*
X73242023Y-34099795D02*
X72784880Y-34099795D01*
X73013452Y-34099795D02*
X73013452Y-33299795D01*
X73013452Y-33299795D02*
X72937261Y-33414080D01*
X72937261Y-33414080D02*
X72861071Y-33490271D01*
X72861071Y-33490271D02*
X72784880Y-33528366D01*
X58480118Y-45957890D02*
X58403928Y-45919795D01*
X58403928Y-45919795D02*
X58289642Y-45919795D01*
X58289642Y-45919795D02*
X58175356Y-45957890D01*
X58175356Y-45957890D02*
X58099166Y-46034080D01*
X58099166Y-46034080D02*
X58061071Y-46110271D01*
X58061071Y-46110271D02*
X58022975Y-46262652D01*
X58022975Y-46262652D02*
X58022975Y-46376938D01*
X58022975Y-46376938D02*
X58061071Y-46529319D01*
X58061071Y-46529319D02*
X58099166Y-46605509D01*
X58099166Y-46605509D02*
X58175356Y-46681700D01*
X58175356Y-46681700D02*
X58289642Y-46719795D01*
X58289642Y-46719795D02*
X58365833Y-46719795D01*
X58365833Y-46719795D02*
X58480118Y-46681700D01*
X58480118Y-46681700D02*
X58518214Y-46643604D01*
X58518214Y-46643604D02*
X58518214Y-46376938D01*
X58518214Y-46376938D02*
X58365833Y-46376938D01*
X58861071Y-46719795D02*
X58861071Y-45919795D01*
X58861071Y-45919795D02*
X59165833Y-45919795D01*
X59165833Y-45919795D02*
X59242023Y-45957890D01*
X59242023Y-45957890D02*
X59280118Y-45995985D01*
X59280118Y-45995985D02*
X59318214Y-46072176D01*
X59318214Y-46072176D02*
X59318214Y-46186461D01*
X59318214Y-46186461D02*
X59280118Y-46262652D01*
X59280118Y-46262652D02*
X59242023Y-46300747D01*
X59242023Y-46300747D02*
X59165833Y-46338842D01*
X59165833Y-46338842D02*
X58861071Y-46338842D01*
X59622975Y-45995985D02*
X59661071Y-45957890D01*
X59661071Y-45957890D02*
X59737261Y-45919795D01*
X59737261Y-45919795D02*
X59927737Y-45919795D01*
X59927737Y-45919795D02*
X60003928Y-45957890D01*
X60003928Y-45957890D02*
X60042023Y-45995985D01*
X60042023Y-45995985D02*
X60080118Y-46072176D01*
X60080118Y-46072176D02*
X60080118Y-46148366D01*
X60080118Y-46148366D02*
X60042023Y-46262652D01*
X60042023Y-46262652D02*
X59584880Y-46719795D01*
X59584880Y-46719795D02*
X60080118Y-46719795D01*
X60765833Y-45919795D02*
X60613452Y-45919795D01*
X60613452Y-45919795D02*
X60537261Y-45957890D01*
X60537261Y-45957890D02*
X60499166Y-45995985D01*
X60499166Y-45995985D02*
X60422976Y-46110271D01*
X60422976Y-46110271D02*
X60384880Y-46262652D01*
X60384880Y-46262652D02*
X60384880Y-46567414D01*
X60384880Y-46567414D02*
X60422976Y-46643604D01*
X60422976Y-46643604D02*
X60461071Y-46681700D01*
X60461071Y-46681700D02*
X60537261Y-46719795D01*
X60537261Y-46719795D02*
X60689642Y-46719795D01*
X60689642Y-46719795D02*
X60765833Y-46681700D01*
X60765833Y-46681700D02*
X60803928Y-46643604D01*
X60803928Y-46643604D02*
X60842023Y-46567414D01*
X60842023Y-46567414D02*
X60842023Y-46376938D01*
X60842023Y-46376938D02*
X60803928Y-46300747D01*
X60803928Y-46300747D02*
X60765833Y-46262652D01*
X60765833Y-46262652D02*
X60689642Y-46224557D01*
X60689642Y-46224557D02*
X60537261Y-46224557D01*
X60537261Y-46224557D02*
X60461071Y-46262652D01*
X60461071Y-46262652D02*
X60422976Y-46300747D01*
X60422976Y-46300747D02*
X60384880Y-46376938D01*
X71222976Y-51227890D02*
X71146786Y-51189795D01*
X71146786Y-51189795D02*
X71032500Y-51189795D01*
X71032500Y-51189795D02*
X70918214Y-51227890D01*
X70918214Y-51227890D02*
X70842024Y-51304080D01*
X70842024Y-51304080D02*
X70803929Y-51380271D01*
X70803929Y-51380271D02*
X70765833Y-51532652D01*
X70765833Y-51532652D02*
X70765833Y-51646938D01*
X70765833Y-51646938D02*
X70803929Y-51799319D01*
X70803929Y-51799319D02*
X70842024Y-51875509D01*
X70842024Y-51875509D02*
X70918214Y-51951700D01*
X70918214Y-51951700D02*
X71032500Y-51989795D01*
X71032500Y-51989795D02*
X71108691Y-51989795D01*
X71108691Y-51989795D02*
X71222976Y-51951700D01*
X71222976Y-51951700D02*
X71261072Y-51913604D01*
X71261072Y-51913604D02*
X71261072Y-51646938D01*
X71261072Y-51646938D02*
X71108691Y-51646938D01*
X71603929Y-51989795D02*
X71603929Y-51189795D01*
X71603929Y-51189795D02*
X72061072Y-51989795D01*
X72061072Y-51989795D02*
X72061072Y-51189795D01*
X72442024Y-51989795D02*
X72442024Y-51189795D01*
X72442024Y-51189795D02*
X72632500Y-51189795D01*
X72632500Y-51189795D02*
X72746786Y-51227890D01*
X72746786Y-51227890D02*
X72822976Y-51304080D01*
X72822976Y-51304080D02*
X72861071Y-51380271D01*
X72861071Y-51380271D02*
X72899167Y-51532652D01*
X72899167Y-51532652D02*
X72899167Y-51646938D01*
X72899167Y-51646938D02*
X72861071Y-51799319D01*
X72861071Y-51799319D02*
X72822976Y-51875509D01*
X72822976Y-51875509D02*
X72746786Y-51951700D01*
X72746786Y-51951700D02*
X72632500Y-51989795D01*
X72632500Y-51989795D02*
X72442024Y-51989795D01*
X57717142Y-57033723D02*
X58098095Y-57033723D01*
X57640952Y-57262295D02*
X57907619Y-56462295D01*
X57907619Y-56462295D02*
X58174285Y-57262295D01*
X58440952Y-57262295D02*
X58440952Y-56462295D01*
X58440952Y-56462295D02*
X58631428Y-56462295D01*
X58631428Y-56462295D02*
X58745714Y-56500390D01*
X58745714Y-56500390D02*
X58821904Y-56576580D01*
X58821904Y-56576580D02*
X58859999Y-56652771D01*
X58859999Y-56652771D02*
X58898095Y-56805152D01*
X58898095Y-56805152D02*
X58898095Y-56919438D01*
X58898095Y-56919438D02*
X58859999Y-57071819D01*
X58859999Y-57071819D02*
X58821904Y-57148009D01*
X58821904Y-57148009D02*
X58745714Y-57224200D01*
X58745714Y-57224200D02*
X58631428Y-57262295D01*
X58631428Y-57262295D02*
X58440952Y-57262295D01*
X59698095Y-57186104D02*
X59659999Y-57224200D01*
X59659999Y-57224200D02*
X59545714Y-57262295D01*
X59545714Y-57262295D02*
X59469523Y-57262295D01*
X59469523Y-57262295D02*
X59355237Y-57224200D01*
X59355237Y-57224200D02*
X59279047Y-57148009D01*
X59279047Y-57148009D02*
X59240952Y-57071819D01*
X59240952Y-57071819D02*
X59202856Y-56919438D01*
X59202856Y-56919438D02*
X59202856Y-56805152D01*
X59202856Y-56805152D02*
X59240952Y-56652771D01*
X59240952Y-56652771D02*
X59279047Y-56576580D01*
X59279047Y-56576580D02*
X59355237Y-56500390D01*
X59355237Y-56500390D02*
X59469523Y-56462295D01*
X59469523Y-56462295D02*
X59545714Y-56462295D01*
X59545714Y-56462295D02*
X59659999Y-56500390D01*
X59659999Y-56500390D02*
X59698095Y-56538485D01*
X59850476Y-57338485D02*
X60459999Y-57338485D01*
X60536190Y-56462295D02*
X60802857Y-57262295D01*
X60802857Y-57262295D02*
X61069523Y-56462295D01*
X61793333Y-57262295D02*
X61526666Y-56881342D01*
X61336190Y-57262295D02*
X61336190Y-56462295D01*
X61336190Y-56462295D02*
X61640952Y-56462295D01*
X61640952Y-56462295D02*
X61717142Y-56500390D01*
X61717142Y-56500390D02*
X61755237Y-56538485D01*
X61755237Y-56538485D02*
X61793333Y-56614676D01*
X61793333Y-56614676D02*
X61793333Y-56728961D01*
X61793333Y-56728961D02*
X61755237Y-56805152D01*
X61755237Y-56805152D02*
X61717142Y-56843247D01*
X61717142Y-56843247D02*
X61640952Y-56881342D01*
X61640952Y-56881342D02*
X61336190Y-56881342D01*
X62136190Y-56843247D02*
X62402856Y-56843247D01*
X62517142Y-57262295D02*
X62136190Y-57262295D01*
X62136190Y-57262295D02*
X62136190Y-56462295D01*
X62136190Y-56462295D02*
X62517142Y-56462295D01*
X63126666Y-56843247D02*
X62860000Y-56843247D01*
X62860000Y-57262295D02*
X62860000Y-56462295D01*
X62860000Y-56462295D02*
X63240952Y-56462295D01*
X58480118Y-53831890D02*
X58403928Y-53793795D01*
X58403928Y-53793795D02*
X58289642Y-53793795D01*
X58289642Y-53793795D02*
X58175356Y-53831890D01*
X58175356Y-53831890D02*
X58099166Y-53908080D01*
X58099166Y-53908080D02*
X58061071Y-53984271D01*
X58061071Y-53984271D02*
X58022975Y-54136652D01*
X58022975Y-54136652D02*
X58022975Y-54250938D01*
X58022975Y-54250938D02*
X58061071Y-54403319D01*
X58061071Y-54403319D02*
X58099166Y-54479509D01*
X58099166Y-54479509D02*
X58175356Y-54555700D01*
X58175356Y-54555700D02*
X58289642Y-54593795D01*
X58289642Y-54593795D02*
X58365833Y-54593795D01*
X58365833Y-54593795D02*
X58480118Y-54555700D01*
X58480118Y-54555700D02*
X58518214Y-54517604D01*
X58518214Y-54517604D02*
X58518214Y-54250938D01*
X58518214Y-54250938D02*
X58365833Y-54250938D01*
X58861071Y-54593795D02*
X58861071Y-53793795D01*
X58861071Y-53793795D02*
X59165833Y-53793795D01*
X59165833Y-53793795D02*
X59242023Y-53831890D01*
X59242023Y-53831890D02*
X59280118Y-53869985D01*
X59280118Y-53869985D02*
X59318214Y-53946176D01*
X59318214Y-53946176D02*
X59318214Y-54060461D01*
X59318214Y-54060461D02*
X59280118Y-54136652D01*
X59280118Y-54136652D02*
X59242023Y-54174747D01*
X59242023Y-54174747D02*
X59165833Y-54212842D01*
X59165833Y-54212842D02*
X58861071Y-54212842D01*
X59622975Y-53869985D02*
X59661071Y-53831890D01*
X59661071Y-53831890D02*
X59737261Y-53793795D01*
X59737261Y-53793795D02*
X59927737Y-53793795D01*
X59927737Y-53793795D02*
X60003928Y-53831890D01*
X60003928Y-53831890D02*
X60042023Y-53869985D01*
X60042023Y-53869985D02*
X60080118Y-53946176D01*
X60080118Y-53946176D02*
X60080118Y-54022366D01*
X60080118Y-54022366D02*
X60042023Y-54136652D01*
X60042023Y-54136652D02*
X59584880Y-54593795D01*
X59584880Y-54593795D02*
X60080118Y-54593795D01*
X60537261Y-54136652D02*
X60461071Y-54098557D01*
X60461071Y-54098557D02*
X60422976Y-54060461D01*
X60422976Y-54060461D02*
X60384880Y-53984271D01*
X60384880Y-53984271D02*
X60384880Y-53946176D01*
X60384880Y-53946176D02*
X60422976Y-53869985D01*
X60422976Y-53869985D02*
X60461071Y-53831890D01*
X60461071Y-53831890D02*
X60537261Y-53793795D01*
X60537261Y-53793795D02*
X60689642Y-53793795D01*
X60689642Y-53793795D02*
X60765833Y-53831890D01*
X60765833Y-53831890D02*
X60803928Y-53869985D01*
X60803928Y-53869985D02*
X60842023Y-53946176D01*
X60842023Y-53946176D02*
X60842023Y-53984271D01*
X60842023Y-53984271D02*
X60803928Y-54060461D01*
X60803928Y-54060461D02*
X60765833Y-54098557D01*
X60765833Y-54098557D02*
X60689642Y-54136652D01*
X60689642Y-54136652D02*
X60537261Y-54136652D01*
X60537261Y-54136652D02*
X60461071Y-54174747D01*
X60461071Y-54174747D02*
X60422976Y-54212842D01*
X60422976Y-54212842D02*
X60384880Y-54289033D01*
X60384880Y-54289033D02*
X60384880Y-54441414D01*
X60384880Y-54441414D02*
X60422976Y-54517604D01*
X60422976Y-54517604D02*
X60461071Y-54555700D01*
X60461071Y-54555700D02*
X60537261Y-54593795D01*
X60537261Y-54593795D02*
X60689642Y-54593795D01*
X60689642Y-54593795D02*
X60765833Y-54555700D01*
X60765833Y-54555700D02*
X60803928Y-54517604D01*
X60803928Y-54517604D02*
X60842023Y-54441414D01*
X60842023Y-54441414D02*
X60842023Y-54289033D01*
X60842023Y-54289033D02*
X60803928Y-54212842D01*
X60803928Y-54212842D02*
X60765833Y-54174747D01*
X60765833Y-54174747D02*
X60689642Y-54136652D01*
D10*
X70382615Y-72005080D02*
X70382615Y-71195557D01*
X70382615Y-71195557D02*
X70334996Y-71100319D01*
X70334996Y-71100319D02*
X70287377Y-71052700D01*
X70287377Y-71052700D02*
X70192139Y-71005080D01*
X70192139Y-71005080D02*
X70001663Y-71005080D01*
X70001663Y-71005080D02*
X69906425Y-71052700D01*
X69906425Y-71052700D02*
X69858806Y-71100319D01*
X69858806Y-71100319D02*
X69811187Y-71195557D01*
X69811187Y-71195557D02*
X69811187Y-72005080D01*
X69382615Y-71052700D02*
X69239758Y-71005080D01*
X69239758Y-71005080D02*
X69001663Y-71005080D01*
X69001663Y-71005080D02*
X68906425Y-71052700D01*
X68906425Y-71052700D02*
X68858806Y-71100319D01*
X68858806Y-71100319D02*
X68811187Y-71195557D01*
X68811187Y-71195557D02*
X68811187Y-71290795D01*
X68811187Y-71290795D02*
X68858806Y-71386033D01*
X68858806Y-71386033D02*
X68906425Y-71433652D01*
X68906425Y-71433652D02*
X69001663Y-71481271D01*
X69001663Y-71481271D02*
X69192139Y-71528890D01*
X69192139Y-71528890D02*
X69287377Y-71576509D01*
X69287377Y-71576509D02*
X69334996Y-71624128D01*
X69334996Y-71624128D02*
X69382615Y-71719366D01*
X69382615Y-71719366D02*
X69382615Y-71814604D01*
X69382615Y-71814604D02*
X69334996Y-71909842D01*
X69334996Y-71909842D02*
X69287377Y-71957461D01*
X69287377Y-71957461D02*
X69192139Y-72005080D01*
X69192139Y-72005080D02*
X68954044Y-72005080D01*
X68954044Y-72005080D02*
X68811187Y-71957461D01*
X68049282Y-71528890D02*
X67906425Y-71481271D01*
X67906425Y-71481271D02*
X67858806Y-71433652D01*
X67858806Y-71433652D02*
X67811187Y-71338414D01*
X67811187Y-71338414D02*
X67811187Y-71195557D01*
X67811187Y-71195557D02*
X67858806Y-71100319D01*
X67858806Y-71100319D02*
X67906425Y-71052700D01*
X67906425Y-71052700D02*
X68001663Y-71005080D01*
X68001663Y-71005080D02*
X68382615Y-71005080D01*
X68382615Y-71005080D02*
X68382615Y-72005080D01*
X68382615Y-72005080D02*
X68049282Y-72005080D01*
X68049282Y-72005080D02*
X67954044Y-71957461D01*
X67954044Y-71957461D02*
X67906425Y-71909842D01*
X67906425Y-71909842D02*
X67858806Y-71814604D01*
X67858806Y-71814604D02*
X67858806Y-71719366D01*
X67858806Y-71719366D02*
X67906425Y-71624128D01*
X67906425Y-71624128D02*
X67954044Y-71576509D01*
X67954044Y-71576509D02*
X68049282Y-71528890D01*
X68049282Y-71528890D02*
X68382615Y-71528890D01*
D12*
X71161071Y-46177890D02*
X71084881Y-46139795D01*
X71084881Y-46139795D02*
X70970595Y-46139795D01*
X70970595Y-46139795D02*
X70856309Y-46177890D01*
X70856309Y-46177890D02*
X70780119Y-46254080D01*
X70780119Y-46254080D02*
X70742024Y-46330271D01*
X70742024Y-46330271D02*
X70703928Y-46482652D01*
X70703928Y-46482652D02*
X70703928Y-46596938D01*
X70703928Y-46596938D02*
X70742024Y-46749319D01*
X70742024Y-46749319D02*
X70780119Y-46825509D01*
X70780119Y-46825509D02*
X70856309Y-46901700D01*
X70856309Y-46901700D02*
X70970595Y-46939795D01*
X70970595Y-46939795D02*
X71046786Y-46939795D01*
X71046786Y-46939795D02*
X71161071Y-46901700D01*
X71161071Y-46901700D02*
X71199167Y-46863604D01*
X71199167Y-46863604D02*
X71199167Y-46596938D01*
X71199167Y-46596938D02*
X71046786Y-46596938D01*
X71542024Y-46939795D02*
X71542024Y-46139795D01*
X71542024Y-46139795D02*
X71846786Y-46139795D01*
X71846786Y-46139795D02*
X71922976Y-46177890D01*
X71922976Y-46177890D02*
X71961071Y-46215985D01*
X71961071Y-46215985D02*
X71999167Y-46292176D01*
X71999167Y-46292176D02*
X71999167Y-46406461D01*
X71999167Y-46406461D02*
X71961071Y-46482652D01*
X71961071Y-46482652D02*
X71922976Y-46520747D01*
X71922976Y-46520747D02*
X71846786Y-46558842D01*
X71846786Y-46558842D02*
X71542024Y-46558842D01*
X72265833Y-46139795D02*
X72799167Y-46139795D01*
X72799167Y-46139795D02*
X72456309Y-46939795D01*
X59076976Y-25637890D02*
X59000786Y-25599795D01*
X59000786Y-25599795D02*
X58886500Y-25599795D01*
X58886500Y-25599795D02*
X58772214Y-25637890D01*
X58772214Y-25637890D02*
X58696024Y-25714080D01*
X58696024Y-25714080D02*
X58657929Y-25790271D01*
X58657929Y-25790271D02*
X58619833Y-25942652D01*
X58619833Y-25942652D02*
X58619833Y-26056938D01*
X58619833Y-26056938D02*
X58657929Y-26209319D01*
X58657929Y-26209319D02*
X58696024Y-26285509D01*
X58696024Y-26285509D02*
X58772214Y-26361700D01*
X58772214Y-26361700D02*
X58886500Y-26399795D01*
X58886500Y-26399795D02*
X58962691Y-26399795D01*
X58962691Y-26399795D02*
X59076976Y-26361700D01*
X59076976Y-26361700D02*
X59115072Y-26323604D01*
X59115072Y-26323604D02*
X59115072Y-26056938D01*
X59115072Y-26056938D02*
X58962691Y-26056938D01*
X59457929Y-26399795D02*
X59457929Y-25599795D01*
X59457929Y-25599795D02*
X59915072Y-26399795D01*
X59915072Y-26399795D02*
X59915072Y-25599795D01*
X60296024Y-26399795D02*
X60296024Y-25599795D01*
X60296024Y-25599795D02*
X60486500Y-25599795D01*
X60486500Y-25599795D02*
X60600786Y-25637890D01*
X60600786Y-25637890D02*
X60676976Y-25714080D01*
X60676976Y-25714080D02*
X60715071Y-25790271D01*
X60715071Y-25790271D02*
X60753167Y-25942652D01*
X60753167Y-25942652D02*
X60753167Y-26056938D01*
X60753167Y-26056938D02*
X60715071Y-26209319D01*
X60715071Y-26209319D02*
X60676976Y-26285509D01*
X60676976Y-26285509D02*
X60600786Y-26361700D01*
X60600786Y-26361700D02*
X60486500Y-26399795D01*
X60486500Y-26399795D02*
X60296024Y-26399795D01*
X71261071Y-48687890D02*
X71184881Y-48649795D01*
X71184881Y-48649795D02*
X71070595Y-48649795D01*
X71070595Y-48649795D02*
X70956309Y-48687890D01*
X70956309Y-48687890D02*
X70880119Y-48764080D01*
X70880119Y-48764080D02*
X70842024Y-48840271D01*
X70842024Y-48840271D02*
X70803928Y-48992652D01*
X70803928Y-48992652D02*
X70803928Y-49106938D01*
X70803928Y-49106938D02*
X70842024Y-49259319D01*
X70842024Y-49259319D02*
X70880119Y-49335509D01*
X70880119Y-49335509D02*
X70956309Y-49411700D01*
X70956309Y-49411700D02*
X71070595Y-49449795D01*
X71070595Y-49449795D02*
X71146786Y-49449795D01*
X71146786Y-49449795D02*
X71261071Y-49411700D01*
X71261071Y-49411700D02*
X71299167Y-49373604D01*
X71299167Y-49373604D02*
X71299167Y-49106938D01*
X71299167Y-49106938D02*
X71146786Y-49106938D01*
X71642024Y-49449795D02*
X71642024Y-48649795D01*
X71642024Y-48649795D02*
X71946786Y-48649795D01*
X71946786Y-48649795D02*
X72022976Y-48687890D01*
X72022976Y-48687890D02*
X72061071Y-48725985D01*
X72061071Y-48725985D02*
X72099167Y-48802176D01*
X72099167Y-48802176D02*
X72099167Y-48916461D01*
X72099167Y-48916461D02*
X72061071Y-48992652D01*
X72061071Y-48992652D02*
X72022976Y-49030747D01*
X72022976Y-49030747D02*
X71946786Y-49068842D01*
X71946786Y-49068842D02*
X71642024Y-49068842D01*
X72784881Y-48649795D02*
X72632500Y-48649795D01*
X72632500Y-48649795D02*
X72556309Y-48687890D01*
X72556309Y-48687890D02*
X72518214Y-48725985D01*
X72518214Y-48725985D02*
X72442024Y-48840271D01*
X72442024Y-48840271D02*
X72403928Y-48992652D01*
X72403928Y-48992652D02*
X72403928Y-49297414D01*
X72403928Y-49297414D02*
X72442024Y-49373604D01*
X72442024Y-49373604D02*
X72480119Y-49411700D01*
X72480119Y-49411700D02*
X72556309Y-49449795D01*
X72556309Y-49449795D02*
X72708690Y-49449795D01*
X72708690Y-49449795D02*
X72784881Y-49411700D01*
X72784881Y-49411700D02*
X72822976Y-49373604D01*
X72822976Y-49373604D02*
X72861071Y-49297414D01*
X72861071Y-49297414D02*
X72861071Y-49106938D01*
X72861071Y-49106938D02*
X72822976Y-49030747D01*
X72822976Y-49030747D02*
X72784881Y-48992652D01*
X72784881Y-48992652D02*
X72708690Y-48954557D01*
X72708690Y-48954557D02*
X72556309Y-48954557D01*
X72556309Y-48954557D02*
X72480119Y-48992652D01*
X72480119Y-48992652D02*
X72442024Y-49030747D01*
X72442024Y-49030747D02*
X72403928Y-49106938D01*
X71261071Y-69007890D02*
X71184881Y-68969795D01*
X71184881Y-68969795D02*
X71070595Y-68969795D01*
X71070595Y-68969795D02*
X70956309Y-69007890D01*
X70956309Y-69007890D02*
X70880119Y-69084080D01*
X70880119Y-69084080D02*
X70842024Y-69160271D01*
X70842024Y-69160271D02*
X70803928Y-69312652D01*
X70803928Y-69312652D02*
X70803928Y-69426938D01*
X70803928Y-69426938D02*
X70842024Y-69579319D01*
X70842024Y-69579319D02*
X70880119Y-69655509D01*
X70880119Y-69655509D02*
X70956309Y-69731700D01*
X70956309Y-69731700D02*
X71070595Y-69769795D01*
X71070595Y-69769795D02*
X71146786Y-69769795D01*
X71146786Y-69769795D02*
X71261071Y-69731700D01*
X71261071Y-69731700D02*
X71299167Y-69693604D01*
X71299167Y-69693604D02*
X71299167Y-69426938D01*
X71299167Y-69426938D02*
X71146786Y-69426938D01*
X71642024Y-69769795D02*
X71642024Y-68969795D01*
X71642024Y-68969795D02*
X71946786Y-68969795D01*
X71946786Y-68969795D02*
X72022976Y-69007890D01*
X72022976Y-69007890D02*
X72061071Y-69045985D01*
X72061071Y-69045985D02*
X72099167Y-69122176D01*
X72099167Y-69122176D02*
X72099167Y-69236461D01*
X72099167Y-69236461D02*
X72061071Y-69312652D01*
X72061071Y-69312652D02*
X72022976Y-69350747D01*
X72022976Y-69350747D02*
X71946786Y-69388842D01*
X71946786Y-69388842D02*
X71642024Y-69388842D01*
X72594405Y-68969795D02*
X72670595Y-68969795D01*
X72670595Y-68969795D02*
X72746786Y-69007890D01*
X72746786Y-69007890D02*
X72784881Y-69045985D01*
X72784881Y-69045985D02*
X72822976Y-69122176D01*
X72822976Y-69122176D02*
X72861071Y-69274557D01*
X72861071Y-69274557D02*
X72861071Y-69465033D01*
X72861071Y-69465033D02*
X72822976Y-69617414D01*
X72822976Y-69617414D02*
X72784881Y-69693604D01*
X72784881Y-69693604D02*
X72746786Y-69731700D01*
X72746786Y-69731700D02*
X72670595Y-69769795D01*
X72670595Y-69769795D02*
X72594405Y-69769795D01*
X72594405Y-69769795D02*
X72518214Y-69731700D01*
X72518214Y-69731700D02*
X72480119Y-69693604D01*
X72480119Y-69693604D02*
X72442024Y-69617414D01*
X72442024Y-69617414D02*
X72403928Y-69465033D01*
X72403928Y-69465033D02*
X72403928Y-69274557D01*
X72403928Y-69274557D02*
X72442024Y-69122176D01*
X72442024Y-69122176D02*
X72480119Y-69045985D01*
X72480119Y-69045985D02*
X72518214Y-69007890D01*
X72518214Y-69007890D02*
X72594405Y-68969795D01*
X57915071Y-66239795D02*
X58181738Y-67039795D01*
X58181738Y-67039795D02*
X58448404Y-66239795D01*
X58676975Y-67001700D02*
X58791261Y-67039795D01*
X58791261Y-67039795D02*
X58981737Y-67039795D01*
X58981737Y-67039795D02*
X59057928Y-67001700D01*
X59057928Y-67001700D02*
X59096023Y-66963604D01*
X59096023Y-66963604D02*
X59134118Y-66887414D01*
X59134118Y-66887414D02*
X59134118Y-66811223D01*
X59134118Y-66811223D02*
X59096023Y-66735033D01*
X59096023Y-66735033D02*
X59057928Y-66696938D01*
X59057928Y-66696938D02*
X58981737Y-66658842D01*
X58981737Y-66658842D02*
X58829356Y-66620747D01*
X58829356Y-66620747D02*
X58753166Y-66582652D01*
X58753166Y-66582652D02*
X58715071Y-66544557D01*
X58715071Y-66544557D02*
X58676975Y-66468366D01*
X58676975Y-66468366D02*
X58676975Y-66392176D01*
X58676975Y-66392176D02*
X58715071Y-66315985D01*
X58715071Y-66315985D02*
X58753166Y-66277890D01*
X58753166Y-66277890D02*
X58829356Y-66239795D01*
X58829356Y-66239795D02*
X59019833Y-66239795D01*
X59019833Y-66239795D02*
X59134118Y-66277890D01*
X59629357Y-66658842D02*
X59629357Y-67039795D01*
X59362690Y-66239795D02*
X59629357Y-66658842D01*
X59629357Y-66658842D02*
X59896023Y-66239795D01*
X60124594Y-67001700D02*
X60238880Y-67039795D01*
X60238880Y-67039795D02*
X60429356Y-67039795D01*
X60429356Y-67039795D02*
X60505547Y-67001700D01*
X60505547Y-67001700D02*
X60543642Y-66963604D01*
X60543642Y-66963604D02*
X60581737Y-66887414D01*
X60581737Y-66887414D02*
X60581737Y-66811223D01*
X60581737Y-66811223D02*
X60543642Y-66735033D01*
X60543642Y-66735033D02*
X60505547Y-66696938D01*
X60505547Y-66696938D02*
X60429356Y-66658842D01*
X60429356Y-66658842D02*
X60276975Y-66620747D01*
X60276975Y-66620747D02*
X60200785Y-66582652D01*
X60200785Y-66582652D02*
X60162690Y-66544557D01*
X60162690Y-66544557D02*
X60124594Y-66468366D01*
X60124594Y-66468366D02*
X60124594Y-66392176D01*
X60124594Y-66392176D02*
X60162690Y-66315985D01*
X60162690Y-66315985D02*
X60200785Y-66277890D01*
X60200785Y-66277890D02*
X60276975Y-66239795D01*
X60276975Y-66239795D02*
X60467452Y-66239795D01*
X60467452Y-66239795D02*
X60581737Y-66277890D01*
X58896024Y-44179795D02*
X58629357Y-43798842D01*
X58438881Y-44179795D02*
X58438881Y-43379795D01*
X58438881Y-43379795D02*
X58743643Y-43379795D01*
X58743643Y-43379795D02*
X58819833Y-43417890D01*
X58819833Y-43417890D02*
X58857928Y-43455985D01*
X58857928Y-43455985D02*
X58896024Y-43532176D01*
X58896024Y-43532176D02*
X58896024Y-43646461D01*
X58896024Y-43646461D02*
X58857928Y-43722652D01*
X58857928Y-43722652D02*
X58819833Y-43760747D01*
X58819833Y-43760747D02*
X58743643Y-43798842D01*
X58743643Y-43798842D02*
X58438881Y-43798842D01*
X59238881Y-43379795D02*
X59238881Y-44027414D01*
X59238881Y-44027414D02*
X59276976Y-44103604D01*
X59276976Y-44103604D02*
X59315071Y-44141700D01*
X59315071Y-44141700D02*
X59391262Y-44179795D01*
X59391262Y-44179795D02*
X59543643Y-44179795D01*
X59543643Y-44179795D02*
X59619833Y-44141700D01*
X59619833Y-44141700D02*
X59657928Y-44103604D01*
X59657928Y-44103604D02*
X59696024Y-44027414D01*
X59696024Y-44027414D02*
X59696024Y-43379795D01*
X60076976Y-44179795D02*
X60076976Y-43379795D01*
X60076976Y-43379795D02*
X60534119Y-44179795D01*
X60534119Y-44179795D02*
X60534119Y-43379795D01*
X58480118Y-28177890D02*
X58403928Y-28139795D01*
X58403928Y-28139795D02*
X58289642Y-28139795D01*
X58289642Y-28139795D02*
X58175356Y-28177890D01*
X58175356Y-28177890D02*
X58099166Y-28254080D01*
X58099166Y-28254080D02*
X58061071Y-28330271D01*
X58061071Y-28330271D02*
X58022975Y-28482652D01*
X58022975Y-28482652D02*
X58022975Y-28596938D01*
X58022975Y-28596938D02*
X58061071Y-28749319D01*
X58061071Y-28749319D02*
X58099166Y-28825509D01*
X58099166Y-28825509D02*
X58175356Y-28901700D01*
X58175356Y-28901700D02*
X58289642Y-28939795D01*
X58289642Y-28939795D02*
X58365833Y-28939795D01*
X58365833Y-28939795D02*
X58480118Y-28901700D01*
X58480118Y-28901700D02*
X58518214Y-28863604D01*
X58518214Y-28863604D02*
X58518214Y-28596938D01*
X58518214Y-28596938D02*
X58365833Y-28596938D01*
X58861071Y-28939795D02*
X58861071Y-28139795D01*
X58861071Y-28139795D02*
X59165833Y-28139795D01*
X59165833Y-28139795D02*
X59242023Y-28177890D01*
X59242023Y-28177890D02*
X59280118Y-28215985D01*
X59280118Y-28215985D02*
X59318214Y-28292176D01*
X59318214Y-28292176D02*
X59318214Y-28406461D01*
X59318214Y-28406461D02*
X59280118Y-28482652D01*
X59280118Y-28482652D02*
X59242023Y-28520747D01*
X59242023Y-28520747D02*
X59165833Y-28558842D01*
X59165833Y-28558842D02*
X58861071Y-28558842D01*
X60080118Y-28939795D02*
X59622975Y-28939795D01*
X59851547Y-28939795D02*
X59851547Y-28139795D01*
X59851547Y-28139795D02*
X59775356Y-28254080D01*
X59775356Y-28254080D02*
X59699166Y-28330271D01*
X59699166Y-28330271D02*
X59622975Y-28368366D01*
X60537261Y-28482652D02*
X60461071Y-28444557D01*
X60461071Y-28444557D02*
X60422976Y-28406461D01*
X60422976Y-28406461D02*
X60384880Y-28330271D01*
X60384880Y-28330271D02*
X60384880Y-28292176D01*
X60384880Y-28292176D02*
X60422976Y-28215985D01*
X60422976Y-28215985D02*
X60461071Y-28177890D01*
X60461071Y-28177890D02*
X60537261Y-28139795D01*
X60537261Y-28139795D02*
X60689642Y-28139795D01*
X60689642Y-28139795D02*
X60765833Y-28177890D01*
X60765833Y-28177890D02*
X60803928Y-28215985D01*
X60803928Y-28215985D02*
X60842023Y-28292176D01*
X60842023Y-28292176D02*
X60842023Y-28330271D01*
X60842023Y-28330271D02*
X60803928Y-28406461D01*
X60803928Y-28406461D02*
X60765833Y-28444557D01*
X60765833Y-28444557D02*
X60689642Y-28482652D01*
X60689642Y-28482652D02*
X60537261Y-28482652D01*
X60537261Y-28482652D02*
X60461071Y-28520747D01*
X60461071Y-28520747D02*
X60422976Y-28558842D01*
X60422976Y-28558842D02*
X60384880Y-28635033D01*
X60384880Y-28635033D02*
X60384880Y-28787414D01*
X60384880Y-28787414D02*
X60422976Y-28863604D01*
X60422976Y-28863604D02*
X60461071Y-28901700D01*
X60461071Y-28901700D02*
X60537261Y-28939795D01*
X60537261Y-28939795D02*
X60689642Y-28939795D01*
X60689642Y-28939795D02*
X60765833Y-28901700D01*
X60765833Y-28901700D02*
X60803928Y-28863604D01*
X60803928Y-28863604D02*
X60842023Y-28787414D01*
X60842023Y-28787414D02*
X60842023Y-28635033D01*
X60842023Y-28635033D02*
X60803928Y-28558842D01*
X60803928Y-28558842D02*
X60765833Y-28520747D01*
X60765833Y-28520747D02*
X60689642Y-28482652D01*
X58480118Y-20557890D02*
X58403928Y-20519795D01*
X58403928Y-20519795D02*
X58289642Y-20519795D01*
X58289642Y-20519795D02*
X58175356Y-20557890D01*
X58175356Y-20557890D02*
X58099166Y-20634080D01*
X58099166Y-20634080D02*
X58061071Y-20710271D01*
X58061071Y-20710271D02*
X58022975Y-20862652D01*
X58022975Y-20862652D02*
X58022975Y-20976938D01*
X58022975Y-20976938D02*
X58061071Y-21129319D01*
X58061071Y-21129319D02*
X58099166Y-21205509D01*
X58099166Y-21205509D02*
X58175356Y-21281700D01*
X58175356Y-21281700D02*
X58289642Y-21319795D01*
X58289642Y-21319795D02*
X58365833Y-21319795D01*
X58365833Y-21319795D02*
X58480118Y-21281700D01*
X58480118Y-21281700D02*
X58518214Y-21243604D01*
X58518214Y-21243604D02*
X58518214Y-20976938D01*
X58518214Y-20976938D02*
X58365833Y-20976938D01*
X58861071Y-21319795D02*
X58861071Y-20519795D01*
X58861071Y-20519795D02*
X59165833Y-20519795D01*
X59165833Y-20519795D02*
X59242023Y-20557890D01*
X59242023Y-20557890D02*
X59280118Y-20595985D01*
X59280118Y-20595985D02*
X59318214Y-20672176D01*
X59318214Y-20672176D02*
X59318214Y-20786461D01*
X59318214Y-20786461D02*
X59280118Y-20862652D01*
X59280118Y-20862652D02*
X59242023Y-20900747D01*
X59242023Y-20900747D02*
X59165833Y-20938842D01*
X59165833Y-20938842D02*
X58861071Y-20938842D01*
X60080118Y-21319795D02*
X59622975Y-21319795D01*
X59851547Y-21319795D02*
X59851547Y-20519795D01*
X59851547Y-20519795D02*
X59775356Y-20634080D01*
X59775356Y-20634080D02*
X59699166Y-20710271D01*
X59699166Y-20710271D02*
X59622975Y-20748366D01*
X60765833Y-20519795D02*
X60613452Y-20519795D01*
X60613452Y-20519795D02*
X60537261Y-20557890D01*
X60537261Y-20557890D02*
X60499166Y-20595985D01*
X60499166Y-20595985D02*
X60422976Y-20710271D01*
X60422976Y-20710271D02*
X60384880Y-20862652D01*
X60384880Y-20862652D02*
X60384880Y-21167414D01*
X60384880Y-21167414D02*
X60422976Y-21243604D01*
X60422976Y-21243604D02*
X60461071Y-21281700D01*
X60461071Y-21281700D02*
X60537261Y-21319795D01*
X60537261Y-21319795D02*
X60689642Y-21319795D01*
X60689642Y-21319795D02*
X60765833Y-21281700D01*
X60765833Y-21281700D02*
X60803928Y-21243604D01*
X60803928Y-21243604D02*
X60842023Y-21167414D01*
X60842023Y-21167414D02*
X60842023Y-20976938D01*
X60842023Y-20976938D02*
X60803928Y-20900747D01*
X60803928Y-20900747D02*
X60765833Y-20862652D01*
X60765833Y-20862652D02*
X60689642Y-20824557D01*
X60689642Y-20824557D02*
X60537261Y-20824557D01*
X60537261Y-20824557D02*
X60461071Y-20862652D01*
X60461071Y-20862652D02*
X60422976Y-20900747D01*
X60422976Y-20900747D02*
X60384880Y-20976938D01*
X57810309Y-61439795D02*
X58305547Y-61439795D01*
X58305547Y-61439795D02*
X58038881Y-61744557D01*
X58038881Y-61744557D02*
X58153166Y-61744557D01*
X58153166Y-61744557D02*
X58229357Y-61782652D01*
X58229357Y-61782652D02*
X58267452Y-61820747D01*
X58267452Y-61820747D02*
X58305547Y-61896938D01*
X58305547Y-61896938D02*
X58305547Y-62087414D01*
X58305547Y-62087414D02*
X58267452Y-62163604D01*
X58267452Y-62163604D02*
X58229357Y-62201700D01*
X58229357Y-62201700D02*
X58153166Y-62239795D01*
X58153166Y-62239795D02*
X57924595Y-62239795D01*
X57924595Y-62239795D02*
X57848404Y-62201700D01*
X57848404Y-62201700D02*
X57810309Y-62163604D01*
X58534119Y-61439795D02*
X58800786Y-62239795D01*
X58800786Y-62239795D02*
X59067452Y-61439795D01*
X59257928Y-61439795D02*
X59753166Y-61439795D01*
X59753166Y-61439795D02*
X59486500Y-61744557D01*
X59486500Y-61744557D02*
X59600785Y-61744557D01*
X59600785Y-61744557D02*
X59676976Y-61782652D01*
X59676976Y-61782652D02*
X59715071Y-61820747D01*
X59715071Y-61820747D02*
X59753166Y-61896938D01*
X59753166Y-61896938D02*
X59753166Y-62087414D01*
X59753166Y-62087414D02*
X59715071Y-62163604D01*
X59715071Y-62163604D02*
X59676976Y-62201700D01*
X59676976Y-62201700D02*
X59600785Y-62239795D01*
X59600785Y-62239795D02*
X59372214Y-62239795D01*
X59372214Y-62239795D02*
X59296023Y-62201700D01*
X59296023Y-62201700D02*
X59257928Y-62163604D01*
X59905548Y-62315985D02*
X60515071Y-62315985D01*
X60705548Y-61820747D02*
X60972214Y-61820747D01*
X61086500Y-62239795D02*
X60705548Y-62239795D01*
X60705548Y-62239795D02*
X60705548Y-61439795D01*
X60705548Y-61439795D02*
X61086500Y-61439795D01*
X61429358Y-62239795D02*
X61429358Y-61439795D01*
X61429358Y-61439795D02*
X61886501Y-62239795D01*
X61886501Y-62239795D02*
X61886501Y-61439795D01*
X71222976Y-63927890D02*
X71146786Y-63889795D01*
X71146786Y-63889795D02*
X71032500Y-63889795D01*
X71032500Y-63889795D02*
X70918214Y-63927890D01*
X70918214Y-63927890D02*
X70842024Y-64004080D01*
X70842024Y-64004080D02*
X70803929Y-64080271D01*
X70803929Y-64080271D02*
X70765833Y-64232652D01*
X70765833Y-64232652D02*
X70765833Y-64346938D01*
X70765833Y-64346938D02*
X70803929Y-64499319D01*
X70803929Y-64499319D02*
X70842024Y-64575509D01*
X70842024Y-64575509D02*
X70918214Y-64651700D01*
X70918214Y-64651700D02*
X71032500Y-64689795D01*
X71032500Y-64689795D02*
X71108691Y-64689795D01*
X71108691Y-64689795D02*
X71222976Y-64651700D01*
X71222976Y-64651700D02*
X71261072Y-64613604D01*
X71261072Y-64613604D02*
X71261072Y-64346938D01*
X71261072Y-64346938D02*
X71108691Y-64346938D01*
X71603929Y-64689795D02*
X71603929Y-63889795D01*
X71603929Y-63889795D02*
X72061072Y-64689795D01*
X72061072Y-64689795D02*
X72061072Y-63889795D01*
X72442024Y-64689795D02*
X72442024Y-63889795D01*
X72442024Y-63889795D02*
X72632500Y-63889795D01*
X72632500Y-63889795D02*
X72746786Y-63927890D01*
X72746786Y-63927890D02*
X72822976Y-64004080D01*
X72822976Y-64004080D02*
X72861071Y-64080271D01*
X72861071Y-64080271D02*
X72899167Y-64232652D01*
X72899167Y-64232652D02*
X72899167Y-64346938D01*
X72899167Y-64346938D02*
X72861071Y-64499319D01*
X72861071Y-64499319D02*
X72822976Y-64575509D01*
X72822976Y-64575509D02*
X72746786Y-64651700D01*
X72746786Y-64651700D02*
X72632500Y-64689795D01*
X72632500Y-64689795D02*
X72442024Y-64689795D01*
X70734118Y-35877890D02*
X70657928Y-35839795D01*
X70657928Y-35839795D02*
X70543642Y-35839795D01*
X70543642Y-35839795D02*
X70429356Y-35877890D01*
X70429356Y-35877890D02*
X70353166Y-35954080D01*
X70353166Y-35954080D02*
X70315071Y-36030271D01*
X70315071Y-36030271D02*
X70276975Y-36182652D01*
X70276975Y-36182652D02*
X70276975Y-36296938D01*
X70276975Y-36296938D02*
X70315071Y-36449319D01*
X70315071Y-36449319D02*
X70353166Y-36525509D01*
X70353166Y-36525509D02*
X70429356Y-36601700D01*
X70429356Y-36601700D02*
X70543642Y-36639795D01*
X70543642Y-36639795D02*
X70619833Y-36639795D01*
X70619833Y-36639795D02*
X70734118Y-36601700D01*
X70734118Y-36601700D02*
X70772214Y-36563604D01*
X70772214Y-36563604D02*
X70772214Y-36296938D01*
X70772214Y-36296938D02*
X70619833Y-36296938D01*
X71115071Y-36639795D02*
X71115071Y-35839795D01*
X71115071Y-35839795D02*
X71419833Y-35839795D01*
X71419833Y-35839795D02*
X71496023Y-35877890D01*
X71496023Y-35877890D02*
X71534118Y-35915985D01*
X71534118Y-35915985D02*
X71572214Y-35992176D01*
X71572214Y-35992176D02*
X71572214Y-36106461D01*
X71572214Y-36106461D02*
X71534118Y-36182652D01*
X71534118Y-36182652D02*
X71496023Y-36220747D01*
X71496023Y-36220747D02*
X71419833Y-36258842D01*
X71419833Y-36258842D02*
X71115071Y-36258842D01*
X72334118Y-36639795D02*
X71876975Y-36639795D01*
X72105547Y-36639795D02*
X72105547Y-35839795D01*
X72105547Y-35839795D02*
X72029356Y-35954080D01*
X72029356Y-35954080D02*
X71953166Y-36030271D01*
X71953166Y-36030271D02*
X71876975Y-36068366D01*
X72829357Y-35839795D02*
X72905547Y-35839795D01*
X72905547Y-35839795D02*
X72981738Y-35877890D01*
X72981738Y-35877890D02*
X73019833Y-35915985D01*
X73019833Y-35915985D02*
X73057928Y-35992176D01*
X73057928Y-35992176D02*
X73096023Y-36144557D01*
X73096023Y-36144557D02*
X73096023Y-36335033D01*
X73096023Y-36335033D02*
X73057928Y-36487414D01*
X73057928Y-36487414D02*
X73019833Y-36563604D01*
X73019833Y-36563604D02*
X72981738Y-36601700D01*
X72981738Y-36601700D02*
X72905547Y-36639795D01*
X72905547Y-36639795D02*
X72829357Y-36639795D01*
X72829357Y-36639795D02*
X72753166Y-36601700D01*
X72753166Y-36601700D02*
X72715071Y-36563604D01*
X72715071Y-36563604D02*
X72676976Y-36487414D01*
X72676976Y-36487414D02*
X72638880Y-36335033D01*
X72638880Y-36335033D02*
X72638880Y-36144557D01*
X72638880Y-36144557D02*
X72676976Y-35992176D01*
X72676976Y-35992176D02*
X72715071Y-35915985D01*
X72715071Y-35915985D02*
X72753166Y-35877890D01*
X72753166Y-35877890D02*
X72829357Y-35839795D01*
X57719833Y-68849795D02*
X57986500Y-69649795D01*
X57986500Y-69649795D02*
X58253166Y-68849795D01*
X58786499Y-69230747D02*
X58900785Y-69268842D01*
X58900785Y-69268842D02*
X58938880Y-69306938D01*
X58938880Y-69306938D02*
X58976976Y-69383128D01*
X58976976Y-69383128D02*
X58976976Y-69497414D01*
X58976976Y-69497414D02*
X58938880Y-69573604D01*
X58938880Y-69573604D02*
X58900785Y-69611700D01*
X58900785Y-69611700D02*
X58824595Y-69649795D01*
X58824595Y-69649795D02*
X58519833Y-69649795D01*
X58519833Y-69649795D02*
X58519833Y-68849795D01*
X58519833Y-68849795D02*
X58786499Y-68849795D01*
X58786499Y-68849795D02*
X58862690Y-68887890D01*
X58862690Y-68887890D02*
X58900785Y-68925985D01*
X58900785Y-68925985D02*
X58938880Y-69002176D01*
X58938880Y-69002176D02*
X58938880Y-69078366D01*
X58938880Y-69078366D02*
X58900785Y-69154557D01*
X58900785Y-69154557D02*
X58862690Y-69192652D01*
X58862690Y-69192652D02*
X58786499Y-69230747D01*
X58786499Y-69230747D02*
X58519833Y-69230747D01*
X59319833Y-68849795D02*
X59319833Y-69497414D01*
X59319833Y-69497414D02*
X59357928Y-69573604D01*
X59357928Y-69573604D02*
X59396023Y-69611700D01*
X59396023Y-69611700D02*
X59472214Y-69649795D01*
X59472214Y-69649795D02*
X59624595Y-69649795D01*
X59624595Y-69649795D02*
X59700785Y-69611700D01*
X59700785Y-69611700D02*
X59738880Y-69573604D01*
X59738880Y-69573604D02*
X59776976Y-69497414D01*
X59776976Y-69497414D02*
X59776976Y-68849795D01*
X60119832Y-69611700D02*
X60234118Y-69649795D01*
X60234118Y-69649795D02*
X60424594Y-69649795D01*
X60424594Y-69649795D02*
X60500785Y-69611700D01*
X60500785Y-69611700D02*
X60538880Y-69573604D01*
X60538880Y-69573604D02*
X60576975Y-69497414D01*
X60576975Y-69497414D02*
X60576975Y-69421223D01*
X60576975Y-69421223D02*
X60538880Y-69345033D01*
X60538880Y-69345033D02*
X60500785Y-69306938D01*
X60500785Y-69306938D02*
X60424594Y-69268842D01*
X60424594Y-69268842D02*
X60272213Y-69230747D01*
X60272213Y-69230747D02*
X60196023Y-69192652D01*
X60196023Y-69192652D02*
X60157928Y-69154557D01*
X60157928Y-69154557D02*
X60119832Y-69078366D01*
X60119832Y-69078366D02*
X60119832Y-69002176D01*
X60119832Y-69002176D02*
X60157928Y-68925985D01*
X60157928Y-68925985D02*
X60196023Y-68887890D01*
X60196023Y-68887890D02*
X60272213Y-68849795D01*
X60272213Y-68849795D02*
X60462690Y-68849795D01*
X60462690Y-68849795D02*
X60576975Y-68887890D01*
X70880118Y-30797890D02*
X70803928Y-30759795D01*
X70803928Y-30759795D02*
X70689642Y-30759795D01*
X70689642Y-30759795D02*
X70575356Y-30797890D01*
X70575356Y-30797890D02*
X70499166Y-30874080D01*
X70499166Y-30874080D02*
X70461071Y-30950271D01*
X70461071Y-30950271D02*
X70422975Y-31102652D01*
X70422975Y-31102652D02*
X70422975Y-31216938D01*
X70422975Y-31216938D02*
X70461071Y-31369319D01*
X70461071Y-31369319D02*
X70499166Y-31445509D01*
X70499166Y-31445509D02*
X70575356Y-31521700D01*
X70575356Y-31521700D02*
X70689642Y-31559795D01*
X70689642Y-31559795D02*
X70765833Y-31559795D01*
X70765833Y-31559795D02*
X70880118Y-31521700D01*
X70880118Y-31521700D02*
X70918214Y-31483604D01*
X70918214Y-31483604D02*
X70918214Y-31216938D01*
X70918214Y-31216938D02*
X70765833Y-31216938D01*
X71261071Y-31559795D02*
X71261071Y-30759795D01*
X71261071Y-30759795D02*
X71565833Y-30759795D01*
X71565833Y-30759795D02*
X71642023Y-30797890D01*
X71642023Y-30797890D02*
X71680118Y-30835985D01*
X71680118Y-30835985D02*
X71718214Y-30912176D01*
X71718214Y-30912176D02*
X71718214Y-31026461D01*
X71718214Y-31026461D02*
X71680118Y-31102652D01*
X71680118Y-31102652D02*
X71642023Y-31140747D01*
X71642023Y-31140747D02*
X71565833Y-31178842D01*
X71565833Y-31178842D02*
X71261071Y-31178842D01*
X72480118Y-31559795D02*
X72022975Y-31559795D01*
X72251547Y-31559795D02*
X72251547Y-30759795D01*
X72251547Y-30759795D02*
X72175356Y-30874080D01*
X72175356Y-30874080D02*
X72099166Y-30950271D01*
X72099166Y-30950271D02*
X72022975Y-30988366D01*
X72784880Y-30835985D02*
X72822976Y-30797890D01*
X72822976Y-30797890D02*
X72899166Y-30759795D01*
X72899166Y-30759795D02*
X73089642Y-30759795D01*
X73089642Y-30759795D02*
X73165833Y-30797890D01*
X73165833Y-30797890D02*
X73203928Y-30835985D01*
X73203928Y-30835985D02*
X73242023Y-30912176D01*
X73242023Y-30912176D02*
X73242023Y-30988366D01*
X73242023Y-30988366D02*
X73203928Y-31102652D01*
X73203928Y-31102652D02*
X72746785Y-31559795D01*
X72746785Y-31559795D02*
X73242023Y-31559795D01*
D10*
X49382419Y-30855832D02*
X49382419Y-30189166D01*
X49382419Y-30189166D02*
X50382419Y-30617737D01*
X50382419Y-29808213D02*
X49382419Y-29808213D01*
X50382419Y-29236785D02*
X49810990Y-29665356D01*
X49382419Y-29236785D02*
X49953847Y-29808213D01*
X46878333Y-40439919D02*
X46545000Y-39963728D01*
X46306905Y-40439919D02*
X46306905Y-39439919D01*
X46306905Y-39439919D02*
X46687857Y-39439919D01*
X46687857Y-39439919D02*
X46783095Y-39487538D01*
X46783095Y-39487538D02*
X46830714Y-39535157D01*
X46830714Y-39535157D02*
X46878333Y-39630395D01*
X46878333Y-39630395D02*
X46878333Y-39773252D01*
X46878333Y-39773252D02*
X46830714Y-39868490D01*
X46830714Y-39868490D02*
X46783095Y-39916109D01*
X46783095Y-39916109D02*
X46687857Y-39963728D01*
X46687857Y-39963728D02*
X46306905Y-39963728D01*
X47259286Y-39535157D02*
X47306905Y-39487538D01*
X47306905Y-39487538D02*
X47402143Y-39439919D01*
X47402143Y-39439919D02*
X47640238Y-39439919D01*
X47640238Y-39439919D02*
X47735476Y-39487538D01*
X47735476Y-39487538D02*
X47783095Y-39535157D01*
X47783095Y-39535157D02*
X47830714Y-39630395D01*
X47830714Y-39630395D02*
X47830714Y-39725633D01*
X47830714Y-39725633D02*
X47783095Y-39868490D01*
X47783095Y-39868490D02*
X47211667Y-40439919D01*
X47211667Y-40439919D02*
X47830714Y-40439919D01*
X48259286Y-40439919D02*
X48259286Y-39439919D01*
X48830714Y-40439919D02*
X48402143Y-39868490D01*
X48830714Y-39439919D02*
X48259286Y-40011347D01*
D12*
X46674819Y-37267976D02*
X46198628Y-37601309D01*
X46674819Y-37839404D02*
X45674819Y-37839404D01*
X45674819Y-37839404D02*
X45674819Y-37458452D01*
X45674819Y-37458452D02*
X45722438Y-37363214D01*
X45722438Y-37363214D02*
X45770057Y-37315595D01*
X45770057Y-37315595D02*
X45865295Y-37267976D01*
X45865295Y-37267976D02*
X46008152Y-37267976D01*
X46008152Y-37267976D02*
X46103390Y-37315595D01*
X46103390Y-37315595D02*
X46151009Y-37363214D01*
X46151009Y-37363214D02*
X46198628Y-37458452D01*
X46198628Y-37458452D02*
X46198628Y-37839404D01*
X46627200Y-36887023D02*
X46674819Y-36744166D01*
X46674819Y-36744166D02*
X46674819Y-36506071D01*
X46674819Y-36506071D02*
X46627200Y-36410833D01*
X46627200Y-36410833D02*
X46579580Y-36363214D01*
X46579580Y-36363214D02*
X46484342Y-36315595D01*
X46484342Y-36315595D02*
X46389104Y-36315595D01*
X46389104Y-36315595D02*
X46293866Y-36363214D01*
X46293866Y-36363214D02*
X46246247Y-36410833D01*
X46246247Y-36410833D02*
X46198628Y-36506071D01*
X46198628Y-36506071D02*
X46151009Y-36696547D01*
X46151009Y-36696547D02*
X46103390Y-36791785D01*
X46103390Y-36791785D02*
X46055771Y-36839404D01*
X46055771Y-36839404D02*
X45960533Y-36887023D01*
X45960533Y-36887023D02*
X45865295Y-36887023D01*
X45865295Y-36887023D02*
X45770057Y-36839404D01*
X45770057Y-36839404D02*
X45722438Y-36791785D01*
X45722438Y-36791785D02*
X45674819Y-36696547D01*
X45674819Y-36696547D02*
X45674819Y-36458452D01*
X45674819Y-36458452D02*
X45722438Y-36315595D01*
X46674819Y-35887023D02*
X45674819Y-35887023D01*
X45722438Y-34887024D02*
X45674819Y-34982262D01*
X45674819Y-34982262D02*
X45674819Y-35125119D01*
X45674819Y-35125119D02*
X45722438Y-35267976D01*
X45722438Y-35267976D02*
X45817676Y-35363214D01*
X45817676Y-35363214D02*
X45912914Y-35410833D01*
X45912914Y-35410833D02*
X46103390Y-35458452D01*
X46103390Y-35458452D02*
X46246247Y-35458452D01*
X46246247Y-35458452D02*
X46436723Y-35410833D01*
X46436723Y-35410833D02*
X46531961Y-35363214D01*
X46531961Y-35363214D02*
X46627200Y-35267976D01*
X46627200Y-35267976D02*
X46674819Y-35125119D01*
X46674819Y-35125119D02*
X46674819Y-35029881D01*
X46674819Y-35029881D02*
X46627200Y-34887024D01*
X46627200Y-34887024D02*
X46579580Y-34839405D01*
X46579580Y-34839405D02*
X46246247Y-34839405D01*
X46246247Y-34839405D02*
X46246247Y-35029881D01*
X45674819Y-33744166D02*
X45674819Y-33077500D01*
X45674819Y-33077500D02*
X46674819Y-33506071D01*
X46103390Y-32553690D02*
X46055771Y-32648928D01*
X46055771Y-32648928D02*
X46008152Y-32696547D01*
X46008152Y-32696547D02*
X45912914Y-32744166D01*
X45912914Y-32744166D02*
X45865295Y-32744166D01*
X45865295Y-32744166D02*
X45770057Y-32696547D01*
X45770057Y-32696547D02*
X45722438Y-32648928D01*
X45722438Y-32648928D02*
X45674819Y-32553690D01*
X45674819Y-32553690D02*
X45674819Y-32363214D01*
X45674819Y-32363214D02*
X45722438Y-32267976D01*
X45722438Y-32267976D02*
X45770057Y-32220357D01*
X45770057Y-32220357D02*
X45865295Y-32172738D01*
X45865295Y-32172738D02*
X45912914Y-32172738D01*
X45912914Y-32172738D02*
X46008152Y-32220357D01*
X46008152Y-32220357D02*
X46055771Y-32267976D01*
X46055771Y-32267976D02*
X46103390Y-32363214D01*
X46103390Y-32363214D02*
X46103390Y-32553690D01*
X46103390Y-32553690D02*
X46151009Y-32648928D01*
X46151009Y-32648928D02*
X46198628Y-32696547D01*
X46198628Y-32696547D02*
X46293866Y-32744166D01*
X46293866Y-32744166D02*
X46484342Y-32744166D01*
X46484342Y-32744166D02*
X46579580Y-32696547D01*
X46579580Y-32696547D02*
X46627200Y-32648928D01*
X46627200Y-32648928D02*
X46674819Y-32553690D01*
X46674819Y-32553690D02*
X46674819Y-32363214D01*
X46674819Y-32363214D02*
X46627200Y-32267976D01*
X46627200Y-32267976D02*
X46579580Y-32220357D01*
X46579580Y-32220357D02*
X46484342Y-32172738D01*
X46484342Y-32172738D02*
X46293866Y-32172738D01*
X46293866Y-32172738D02*
X46198628Y-32220357D01*
X46198628Y-32220357D02*
X46151009Y-32267976D01*
X46151009Y-32267976D02*
X46103390Y-32363214D01*
X45674819Y-31553690D02*
X45674819Y-31458452D01*
X45674819Y-31458452D02*
X45722438Y-31363214D01*
X45722438Y-31363214D02*
X45770057Y-31315595D01*
X45770057Y-31315595D02*
X45865295Y-31267976D01*
X45865295Y-31267976D02*
X46055771Y-31220357D01*
X46055771Y-31220357D02*
X46293866Y-31220357D01*
X46293866Y-31220357D02*
X46484342Y-31267976D01*
X46484342Y-31267976D02*
X46579580Y-31315595D01*
X46579580Y-31315595D02*
X46627200Y-31363214D01*
X46627200Y-31363214D02*
X46674819Y-31458452D01*
X46674819Y-31458452D02*
X46674819Y-31553690D01*
X46674819Y-31553690D02*
X46627200Y-31648928D01*
X46627200Y-31648928D02*
X46579580Y-31696547D01*
X46579580Y-31696547D02*
X46484342Y-31744166D01*
X46484342Y-31744166D02*
X46293866Y-31791785D01*
X46293866Y-31791785D02*
X46055771Y-31791785D01*
X46055771Y-31791785D02*
X45865295Y-31744166D01*
X45865295Y-31744166D02*
X45770057Y-31696547D01*
X45770057Y-31696547D02*
X45722438Y-31648928D01*
X45722438Y-31648928D02*
X45674819Y-31553690D01*
X45674819Y-30315595D02*
X45674819Y-30791785D01*
X45674819Y-30791785D02*
X46151009Y-30839404D01*
X46151009Y-30839404D02*
X46103390Y-30791785D01*
X46103390Y-30791785D02*
X46055771Y-30696547D01*
X46055771Y-30696547D02*
X46055771Y-30458452D01*
X46055771Y-30458452D02*
X46103390Y-30363214D01*
X46103390Y-30363214D02*
X46151009Y-30315595D01*
X46151009Y-30315595D02*
X46246247Y-30267976D01*
X46246247Y-30267976D02*
X46484342Y-30267976D01*
X46484342Y-30267976D02*
X46579580Y-30315595D01*
X46579580Y-30315595D02*
X46627200Y-30363214D01*
X46627200Y-30363214D02*
X46674819Y-30458452D01*
X46674819Y-30458452D02*
X46674819Y-30696547D01*
X46674819Y-30696547D02*
X46627200Y-30791785D01*
X46627200Y-30791785D02*
X46579580Y-30839404D01*
X51884870Y-31704166D02*
X51408679Y-32037499D01*
X51884870Y-32275594D02*
X50884870Y-32275594D01*
X50884870Y-32275594D02*
X50884870Y-31894642D01*
X50884870Y-31894642D02*
X50932489Y-31799404D01*
X50932489Y-31799404D02*
X50980108Y-31751785D01*
X50980108Y-31751785D02*
X51075346Y-31704166D01*
X51075346Y-31704166D02*
X51218203Y-31704166D01*
X51218203Y-31704166D02*
X51313441Y-31751785D01*
X51313441Y-31751785D02*
X51361060Y-31799404D01*
X51361060Y-31799404D02*
X51408679Y-31894642D01*
X51408679Y-31894642D02*
X51408679Y-32275594D01*
X51837251Y-31323213D02*
X51884870Y-31180356D01*
X51884870Y-31180356D02*
X51884870Y-30942261D01*
X51884870Y-30942261D02*
X51837251Y-30847023D01*
X51837251Y-30847023D02*
X51789631Y-30799404D01*
X51789631Y-30799404D02*
X51694393Y-30751785D01*
X51694393Y-30751785D02*
X51599155Y-30751785D01*
X51599155Y-30751785D02*
X51503917Y-30799404D01*
X51503917Y-30799404D02*
X51456298Y-30847023D01*
X51456298Y-30847023D02*
X51408679Y-30942261D01*
X51408679Y-30942261D02*
X51361060Y-31132737D01*
X51361060Y-31132737D02*
X51313441Y-31227975D01*
X51313441Y-31227975D02*
X51265822Y-31275594D01*
X51265822Y-31275594D02*
X51170584Y-31323213D01*
X51170584Y-31323213D02*
X51075346Y-31323213D01*
X51075346Y-31323213D02*
X50980108Y-31275594D01*
X50980108Y-31275594D02*
X50932489Y-31227975D01*
X50932489Y-31227975D02*
X50884870Y-31132737D01*
X50884870Y-31132737D02*
X50884870Y-30894642D01*
X50884870Y-30894642D02*
X50932489Y-30751785D01*
X51884870Y-36546071D02*
X51408679Y-36879404D01*
X51884870Y-37117499D02*
X50884870Y-37117499D01*
X50884870Y-37117499D02*
X50884870Y-36736547D01*
X50884870Y-36736547D02*
X50932489Y-36641309D01*
X50932489Y-36641309D02*
X50980108Y-36593690D01*
X50980108Y-36593690D02*
X51075346Y-36546071D01*
X51075346Y-36546071D02*
X51218203Y-36546071D01*
X51218203Y-36546071D02*
X51313441Y-36593690D01*
X51313441Y-36593690D02*
X51361060Y-36641309D01*
X51361060Y-36641309D02*
X51408679Y-36736547D01*
X51408679Y-36736547D02*
X51408679Y-37117499D01*
X51884870Y-36117499D02*
X50884870Y-36117499D01*
X50932489Y-33875595D02*
X50884870Y-33970833D01*
X50884870Y-33970833D02*
X50884870Y-34113690D01*
X50884870Y-34113690D02*
X50932489Y-34256547D01*
X50932489Y-34256547D02*
X51027727Y-34351785D01*
X51027727Y-34351785D02*
X51122965Y-34399404D01*
X51122965Y-34399404D02*
X51313441Y-34447023D01*
X51313441Y-34447023D02*
X51456298Y-34447023D01*
X51456298Y-34447023D02*
X51646774Y-34399404D01*
X51646774Y-34399404D02*
X51742012Y-34351785D01*
X51742012Y-34351785D02*
X51837251Y-34256547D01*
X51837251Y-34256547D02*
X51884870Y-34113690D01*
X51884870Y-34113690D02*
X51884870Y-34018452D01*
X51884870Y-34018452D02*
X51837251Y-33875595D01*
X51837251Y-33875595D02*
X51789631Y-33827976D01*
X51789631Y-33827976D02*
X51456298Y-33827976D01*
X51456298Y-33827976D02*
X51456298Y-34018452D01*
D10*
X88580312Y-73502419D02*
X88246979Y-73026228D01*
X88008884Y-73502419D02*
X88008884Y-72502419D01*
X88008884Y-72502419D02*
X88389836Y-72502419D01*
X88389836Y-72502419D02*
X88485074Y-72550038D01*
X88485074Y-72550038D02*
X88532693Y-72597657D01*
X88532693Y-72597657D02*
X88580312Y-72692895D01*
X88580312Y-72692895D02*
X88580312Y-72835752D01*
X88580312Y-72835752D02*
X88532693Y-72930990D01*
X88532693Y-72930990D02*
X88485074Y-72978609D01*
X88485074Y-72978609D02*
X88389836Y-73026228D01*
X88389836Y-73026228D02*
X88008884Y-73026228D01*
X88913646Y-72502419D02*
X89580312Y-73502419D01*
X89580312Y-72502419D02*
X88913646Y-73502419D01*
X90580313Y-72502419D02*
X91151741Y-72502419D01*
X90866027Y-73502419D02*
X90866027Y-72502419D01*
X91389837Y-72502419D02*
X92056503Y-73502419D01*
X92056503Y-72502419D02*
X91389837Y-73502419D01*
X94485075Y-72550038D02*
X94389837Y-72502419D01*
X94389837Y-72502419D02*
X94246980Y-72502419D01*
X94246980Y-72502419D02*
X94104123Y-72550038D01*
X94104123Y-72550038D02*
X94008885Y-72645276D01*
X94008885Y-72645276D02*
X93961266Y-72740514D01*
X93961266Y-72740514D02*
X93913647Y-72930990D01*
X93913647Y-72930990D02*
X93913647Y-73073847D01*
X93913647Y-73073847D02*
X93961266Y-73264323D01*
X93961266Y-73264323D02*
X94008885Y-73359561D01*
X94008885Y-73359561D02*
X94104123Y-73454800D01*
X94104123Y-73454800D02*
X94246980Y-73502419D01*
X94246980Y-73502419D02*
X94342218Y-73502419D01*
X94342218Y-73502419D02*
X94485075Y-73454800D01*
X94485075Y-73454800D02*
X94532694Y-73407180D01*
X94532694Y-73407180D02*
X94532694Y-73073847D01*
X94532694Y-73073847D02*
X94342218Y-73073847D01*
X96342219Y-72502419D02*
X96675552Y-73502419D01*
X96675552Y-73502419D02*
X97008885Y-72502419D01*
D12*
X64800180Y-29546191D02*
X65800180Y-29546191D01*
X65752561Y-30546190D02*
X65800180Y-30450952D01*
X65800180Y-30450952D02*
X65800180Y-30308095D01*
X65800180Y-30308095D02*
X65752561Y-30165238D01*
X65752561Y-30165238D02*
X65657323Y-30070000D01*
X65657323Y-30070000D02*
X65562085Y-30022381D01*
X65562085Y-30022381D02*
X65371609Y-29974762D01*
X65371609Y-29974762D02*
X65228752Y-29974762D01*
X65228752Y-29974762D02*
X65038276Y-30022381D01*
X65038276Y-30022381D02*
X64943038Y-30070000D01*
X64943038Y-30070000D02*
X64847800Y-30165238D01*
X64847800Y-30165238D02*
X64800180Y-30308095D01*
X64800180Y-30308095D02*
X64800180Y-30403333D01*
X64800180Y-30403333D02*
X64847800Y-30546190D01*
X64847800Y-30546190D02*
X64895419Y-30593809D01*
X64895419Y-30593809D02*
X65228752Y-30593809D01*
X65228752Y-30593809D02*
X65228752Y-30403333D01*
X64800180Y-31022381D02*
X65800180Y-31022381D01*
X65800180Y-31022381D02*
X64800180Y-31593809D01*
X64800180Y-31593809D02*
X65800180Y-31593809D01*
X62575895Y-29271905D02*
X62575895Y-29748095D01*
X62290180Y-29176667D02*
X63290180Y-29510000D01*
X63290180Y-29510000D02*
X62290180Y-29843333D01*
X63290180Y-30176667D02*
X62480657Y-30176667D01*
X62480657Y-30176667D02*
X62385419Y-30224286D01*
X62385419Y-30224286D02*
X62337800Y-30271905D01*
X62337800Y-30271905D02*
X62290180Y-30367143D01*
X62290180Y-30367143D02*
X62290180Y-30557619D01*
X62290180Y-30557619D02*
X62337800Y-30652857D01*
X62337800Y-30652857D02*
X62385419Y-30700476D01*
X62385419Y-30700476D02*
X62480657Y-30748095D01*
X62480657Y-30748095D02*
X63290180Y-30748095D01*
X63290180Y-31129048D02*
X62290180Y-31795714D01*
X63290180Y-31795714D02*
X62290180Y-31129048D01*
D10*
X49394919Y-49535832D02*
X49394919Y-48869166D01*
X49394919Y-48869166D02*
X50394919Y-49297737D01*
X50394919Y-48488213D02*
X49394919Y-48488213D01*
X50394919Y-47916785D02*
X49823490Y-48345356D01*
X49394919Y-47916785D02*
X49966347Y-48488213D01*
X23895000Y-70783966D02*
X24656905Y-70783966D01*
X25133095Y-70498252D02*
X25895000Y-70783966D01*
X25895000Y-70783966D02*
X25133095Y-71069680D01*
D12*
X46699819Y-55812976D02*
X46699819Y-56289166D01*
X46699819Y-56289166D02*
X45699819Y-56289166D01*
X46652200Y-55527261D02*
X46699819Y-55384404D01*
X46699819Y-55384404D02*
X46699819Y-55146309D01*
X46699819Y-55146309D02*
X46652200Y-55051071D01*
X46652200Y-55051071D02*
X46604580Y-55003452D01*
X46604580Y-55003452D02*
X46509342Y-54955833D01*
X46509342Y-54955833D02*
X46414104Y-54955833D01*
X46414104Y-54955833D02*
X46318866Y-55003452D01*
X46318866Y-55003452D02*
X46271247Y-55051071D01*
X46271247Y-55051071D02*
X46223628Y-55146309D01*
X46223628Y-55146309D02*
X46176009Y-55336785D01*
X46176009Y-55336785D02*
X46128390Y-55432023D01*
X46128390Y-55432023D02*
X46080771Y-55479642D01*
X46080771Y-55479642D02*
X45985533Y-55527261D01*
X45985533Y-55527261D02*
X45890295Y-55527261D01*
X45890295Y-55527261D02*
X45795057Y-55479642D01*
X45795057Y-55479642D02*
X45747438Y-55432023D01*
X45747438Y-55432023D02*
X45699819Y-55336785D01*
X45699819Y-55336785D02*
X45699819Y-55098690D01*
X45699819Y-55098690D02*
X45747438Y-54955833D01*
X46699819Y-54527261D02*
X45699819Y-54527261D01*
X45747438Y-53527262D02*
X45699819Y-53622500D01*
X45699819Y-53622500D02*
X45699819Y-53765357D01*
X45699819Y-53765357D02*
X45747438Y-53908214D01*
X45747438Y-53908214D02*
X45842676Y-54003452D01*
X45842676Y-54003452D02*
X45937914Y-54051071D01*
X45937914Y-54051071D02*
X46128390Y-54098690D01*
X46128390Y-54098690D02*
X46271247Y-54098690D01*
X46271247Y-54098690D02*
X46461723Y-54051071D01*
X46461723Y-54051071D02*
X46556961Y-54003452D01*
X46556961Y-54003452D02*
X46652200Y-53908214D01*
X46652200Y-53908214D02*
X46699819Y-53765357D01*
X46699819Y-53765357D02*
X46699819Y-53670119D01*
X46699819Y-53670119D02*
X46652200Y-53527262D01*
X46652200Y-53527262D02*
X46604580Y-53479643D01*
X46604580Y-53479643D02*
X46271247Y-53479643D01*
X46271247Y-53479643D02*
X46271247Y-53670119D01*
X45699819Y-52384404D02*
X45699819Y-51717738D01*
X45699819Y-51717738D02*
X46699819Y-52146309D01*
X46128390Y-51193928D02*
X46080771Y-51289166D01*
X46080771Y-51289166D02*
X46033152Y-51336785D01*
X46033152Y-51336785D02*
X45937914Y-51384404D01*
X45937914Y-51384404D02*
X45890295Y-51384404D01*
X45890295Y-51384404D02*
X45795057Y-51336785D01*
X45795057Y-51336785D02*
X45747438Y-51289166D01*
X45747438Y-51289166D02*
X45699819Y-51193928D01*
X45699819Y-51193928D02*
X45699819Y-51003452D01*
X45699819Y-51003452D02*
X45747438Y-50908214D01*
X45747438Y-50908214D02*
X45795057Y-50860595D01*
X45795057Y-50860595D02*
X45890295Y-50812976D01*
X45890295Y-50812976D02*
X45937914Y-50812976D01*
X45937914Y-50812976D02*
X46033152Y-50860595D01*
X46033152Y-50860595D02*
X46080771Y-50908214D01*
X46080771Y-50908214D02*
X46128390Y-51003452D01*
X46128390Y-51003452D02*
X46128390Y-51193928D01*
X46128390Y-51193928D02*
X46176009Y-51289166D01*
X46176009Y-51289166D02*
X46223628Y-51336785D01*
X46223628Y-51336785D02*
X46318866Y-51384404D01*
X46318866Y-51384404D02*
X46509342Y-51384404D01*
X46509342Y-51384404D02*
X46604580Y-51336785D01*
X46604580Y-51336785D02*
X46652200Y-51289166D01*
X46652200Y-51289166D02*
X46699819Y-51193928D01*
X46699819Y-51193928D02*
X46699819Y-51003452D01*
X46699819Y-51003452D02*
X46652200Y-50908214D01*
X46652200Y-50908214D02*
X46604580Y-50860595D01*
X46604580Y-50860595D02*
X46509342Y-50812976D01*
X46509342Y-50812976D02*
X46318866Y-50812976D01*
X46318866Y-50812976D02*
X46223628Y-50860595D01*
X46223628Y-50860595D02*
X46176009Y-50908214D01*
X46176009Y-50908214D02*
X46128390Y-51003452D01*
X45699819Y-50193928D02*
X45699819Y-50098690D01*
X45699819Y-50098690D02*
X45747438Y-50003452D01*
X45747438Y-50003452D02*
X45795057Y-49955833D01*
X45795057Y-49955833D02*
X45890295Y-49908214D01*
X45890295Y-49908214D02*
X46080771Y-49860595D01*
X46080771Y-49860595D02*
X46318866Y-49860595D01*
X46318866Y-49860595D02*
X46509342Y-49908214D01*
X46509342Y-49908214D02*
X46604580Y-49955833D01*
X46604580Y-49955833D02*
X46652200Y-50003452D01*
X46652200Y-50003452D02*
X46699819Y-50098690D01*
X46699819Y-50098690D02*
X46699819Y-50193928D01*
X46699819Y-50193928D02*
X46652200Y-50289166D01*
X46652200Y-50289166D02*
X46604580Y-50336785D01*
X46604580Y-50336785D02*
X46509342Y-50384404D01*
X46509342Y-50384404D02*
X46318866Y-50432023D01*
X46318866Y-50432023D02*
X46080771Y-50432023D01*
X46080771Y-50432023D02*
X45890295Y-50384404D01*
X45890295Y-50384404D02*
X45795057Y-50336785D01*
X45795057Y-50336785D02*
X45747438Y-50289166D01*
X45747438Y-50289166D02*
X45699819Y-50193928D01*
X45699819Y-48955833D02*
X45699819Y-49432023D01*
X45699819Y-49432023D02*
X46176009Y-49479642D01*
X46176009Y-49479642D02*
X46128390Y-49432023D01*
X46128390Y-49432023D02*
X46080771Y-49336785D01*
X46080771Y-49336785D02*
X46080771Y-49098690D01*
X46080771Y-49098690D02*
X46128390Y-49003452D01*
X46128390Y-49003452D02*
X46176009Y-48955833D01*
X46176009Y-48955833D02*
X46271247Y-48908214D01*
X46271247Y-48908214D02*
X46509342Y-48908214D01*
X46509342Y-48908214D02*
X46604580Y-48955833D01*
X46604580Y-48955833D02*
X46652200Y-49003452D01*
X46652200Y-49003452D02*
X46699819Y-49098690D01*
X46699819Y-49098690D02*
X46699819Y-49336785D01*
X46699819Y-49336785D02*
X46652200Y-49432023D01*
X46652200Y-49432023D02*
X46604580Y-49479642D01*
X51909870Y-55091071D02*
X51909870Y-55567261D01*
X51909870Y-55567261D02*
X50909870Y-55567261D01*
X51909870Y-54757737D02*
X50909870Y-54757737D01*
X51909870Y-50249166D02*
X51909870Y-50725356D01*
X51909870Y-50725356D02*
X50909870Y-50725356D01*
X51862251Y-49963451D02*
X51909870Y-49820594D01*
X51909870Y-49820594D02*
X51909870Y-49582499D01*
X51909870Y-49582499D02*
X51862251Y-49487261D01*
X51862251Y-49487261D02*
X51814631Y-49439642D01*
X51814631Y-49439642D02*
X51719393Y-49392023D01*
X51719393Y-49392023D02*
X51624155Y-49392023D01*
X51624155Y-49392023D02*
X51528917Y-49439642D01*
X51528917Y-49439642D02*
X51481298Y-49487261D01*
X51481298Y-49487261D02*
X51433679Y-49582499D01*
X51433679Y-49582499D02*
X51386060Y-49772975D01*
X51386060Y-49772975D02*
X51338441Y-49868213D01*
X51338441Y-49868213D02*
X51290822Y-49915832D01*
X51290822Y-49915832D02*
X51195584Y-49963451D01*
X51195584Y-49963451D02*
X51100346Y-49963451D01*
X51100346Y-49963451D02*
X51005108Y-49915832D01*
X51005108Y-49915832D02*
X50957489Y-49868213D01*
X50957489Y-49868213D02*
X50909870Y-49772975D01*
X50909870Y-49772975D02*
X50909870Y-49534880D01*
X50909870Y-49534880D02*
X50957489Y-49392023D01*
X50957489Y-52420595D02*
X50909870Y-52515833D01*
X50909870Y-52515833D02*
X50909870Y-52658690D01*
X50909870Y-52658690D02*
X50957489Y-52801547D01*
X50957489Y-52801547D02*
X51052727Y-52896785D01*
X51052727Y-52896785D02*
X51147965Y-52944404D01*
X51147965Y-52944404D02*
X51338441Y-52992023D01*
X51338441Y-52992023D02*
X51481298Y-52992023D01*
X51481298Y-52992023D02*
X51671774Y-52944404D01*
X51671774Y-52944404D02*
X51767012Y-52896785D01*
X51767012Y-52896785D02*
X51862251Y-52801547D01*
X51862251Y-52801547D02*
X51909870Y-52658690D01*
X51909870Y-52658690D02*
X51909870Y-52563452D01*
X51909870Y-52563452D02*
X51862251Y-52420595D01*
X51862251Y-52420595D02*
X51814631Y-52372976D01*
X51814631Y-52372976D02*
X51481298Y-52372976D01*
X51481298Y-52372976D02*
X51481298Y-52563452D01*
D10*
X80604761Y-46982180D02*
X80557142Y-47029800D01*
X80557142Y-47029800D02*
X80414285Y-47077419D01*
X80414285Y-47077419D02*
X80319047Y-47077419D01*
X80319047Y-47077419D02*
X80176190Y-47029800D01*
X80176190Y-47029800D02*
X80080952Y-46934561D01*
X80080952Y-46934561D02*
X80033333Y-46839323D01*
X80033333Y-46839323D02*
X79985714Y-46648847D01*
X79985714Y-46648847D02*
X79985714Y-46505990D01*
X79985714Y-46505990D02*
X80033333Y-46315514D01*
X80033333Y-46315514D02*
X80080952Y-46220276D01*
X80080952Y-46220276D02*
X80176190Y-46125038D01*
X80176190Y-46125038D02*
X80319047Y-46077419D01*
X80319047Y-46077419D02*
X80414285Y-46077419D01*
X80414285Y-46077419D02*
X80557142Y-46125038D01*
X80557142Y-46125038D02*
X80604761Y-46172657D01*
X81033333Y-47077419D02*
X81033333Y-46077419D01*
X81033333Y-46077419D02*
X81271428Y-46077419D01*
X81271428Y-46077419D02*
X81414285Y-46125038D01*
X81414285Y-46125038D02*
X81509523Y-46220276D01*
X81509523Y-46220276D02*
X81557142Y-46315514D01*
X81557142Y-46315514D02*
X81604761Y-46505990D01*
X81604761Y-46505990D02*
X81604761Y-46648847D01*
X81604761Y-46648847D02*
X81557142Y-46839323D01*
X81557142Y-46839323D02*
X81509523Y-46934561D01*
X81509523Y-46934561D02*
X81414285Y-47029800D01*
X81414285Y-47029800D02*
X81271428Y-47077419D01*
X81271428Y-47077419D02*
X81033333Y-47077419D01*
X82461904Y-46410752D02*
X82461904Y-47077419D01*
X82223809Y-46029800D02*
X81985714Y-46744085D01*
X81985714Y-46744085D02*
X82604761Y-46744085D01*
X83176190Y-46077419D02*
X83271428Y-46077419D01*
X83271428Y-46077419D02*
X83366666Y-46125038D01*
X83366666Y-46125038D02*
X83414285Y-46172657D01*
X83414285Y-46172657D02*
X83461904Y-46267895D01*
X83461904Y-46267895D02*
X83509523Y-46458371D01*
X83509523Y-46458371D02*
X83509523Y-46696466D01*
X83509523Y-46696466D02*
X83461904Y-46886942D01*
X83461904Y-46886942D02*
X83414285Y-46982180D01*
X83414285Y-46982180D02*
X83366666Y-47029800D01*
X83366666Y-47029800D02*
X83271428Y-47077419D01*
X83271428Y-47077419D02*
X83176190Y-47077419D01*
X83176190Y-47077419D02*
X83080952Y-47029800D01*
X83080952Y-47029800D02*
X83033333Y-46982180D01*
X83033333Y-46982180D02*
X82985714Y-46886942D01*
X82985714Y-46886942D02*
X82938095Y-46696466D01*
X82938095Y-46696466D02*
X82938095Y-46458371D01*
X82938095Y-46458371D02*
X82985714Y-46267895D01*
X82985714Y-46267895D02*
X83033333Y-46172657D01*
X83033333Y-46172657D02*
X83080952Y-46125038D01*
X83080952Y-46125038D02*
X83176190Y-46077419D01*
X84414285Y-46077419D02*
X83938095Y-46077419D01*
X83938095Y-46077419D02*
X83890476Y-46553609D01*
X83890476Y-46553609D02*
X83938095Y-46505990D01*
X83938095Y-46505990D02*
X84033333Y-46458371D01*
X84033333Y-46458371D02*
X84271428Y-46458371D01*
X84271428Y-46458371D02*
X84366666Y-46505990D01*
X84366666Y-46505990D02*
X84414285Y-46553609D01*
X84414285Y-46553609D02*
X84461904Y-46648847D01*
X84461904Y-46648847D02*
X84461904Y-46886942D01*
X84461904Y-46886942D02*
X84414285Y-46982180D01*
X84414285Y-46982180D02*
X84366666Y-47029800D01*
X84366666Y-47029800D02*
X84271428Y-47077419D01*
X84271428Y-47077419D02*
X84033333Y-47077419D01*
X84033333Y-47077419D02*
X83938095Y-47029800D01*
X83938095Y-47029800D02*
X83890476Y-46982180D01*
X85414285Y-47077419D02*
X84842857Y-47077419D01*
X85128571Y-47077419D02*
X85128571Y-46077419D01*
X85128571Y-46077419D02*
X85033333Y-46220276D01*
X85033333Y-46220276D02*
X84938095Y-46315514D01*
X84938095Y-46315514D02*
X84842857Y-46363133D01*
X88006905Y-47934204D02*
X88483095Y-47934204D01*
X87911667Y-48219919D02*
X88245000Y-47219919D01*
X88245000Y-47219919D02*
X88578333Y-48219919D01*
X100554523Y-47219919D02*
X100078333Y-47219919D01*
X100078333Y-47219919D02*
X100030714Y-47696109D01*
X100030714Y-47696109D02*
X100078333Y-47648490D01*
X100078333Y-47648490D02*
X100173571Y-47600871D01*
X100173571Y-47600871D02*
X100411666Y-47600871D01*
X100411666Y-47600871D02*
X100506904Y-47648490D01*
X100506904Y-47648490D02*
X100554523Y-47696109D01*
X100554523Y-47696109D02*
X100602142Y-47791347D01*
X100602142Y-47791347D02*
X100602142Y-48029442D01*
X100602142Y-48029442D02*
X100554523Y-48124680D01*
X100554523Y-48124680D02*
X100506904Y-48172300D01*
X100506904Y-48172300D02*
X100411666Y-48219919D01*
X100411666Y-48219919D02*
X100173571Y-48219919D01*
X100173571Y-48219919D02*
X100078333Y-48172300D01*
X100078333Y-48172300D02*
X100030714Y-48124680D01*
X100887857Y-47219919D02*
X101221190Y-48219919D01*
X101221190Y-48219919D02*
X101554523Y-47219919D01*
X89983095Y-45219919D02*
X89983095Y-44219919D01*
X89983095Y-44219919D02*
X90554523Y-45219919D01*
X90554523Y-45219919D02*
X90554523Y-44219919D01*
X91459285Y-44219919D02*
X91268809Y-44219919D01*
X91268809Y-44219919D02*
X91173571Y-44267538D01*
X91173571Y-44267538D02*
X91125952Y-44315157D01*
X91125952Y-44315157D02*
X91030714Y-44458014D01*
X91030714Y-44458014D02*
X90983095Y-44648490D01*
X90983095Y-44648490D02*
X90983095Y-45029442D01*
X90983095Y-45029442D02*
X91030714Y-45124680D01*
X91030714Y-45124680D02*
X91078333Y-45172300D01*
X91078333Y-45172300D02*
X91173571Y-45219919D01*
X91173571Y-45219919D02*
X91364047Y-45219919D01*
X91364047Y-45219919D02*
X91459285Y-45172300D01*
X91459285Y-45172300D02*
X91506904Y-45124680D01*
X91506904Y-45124680D02*
X91554523Y-45029442D01*
X91554523Y-45029442D02*
X91554523Y-44791347D01*
X91554523Y-44791347D02*
X91506904Y-44696109D01*
X91506904Y-44696109D02*
X91459285Y-44648490D01*
X91459285Y-44648490D02*
X91364047Y-44600871D01*
X91364047Y-44600871D02*
X91173571Y-44600871D01*
X91173571Y-44600871D02*
X91078333Y-44648490D01*
X91078333Y-44648490D02*
X91030714Y-44696109D01*
X91030714Y-44696109D02*
X90983095Y-44791347D01*
X97733095Y-48219919D02*
X97733095Y-47219919D01*
X97733095Y-47219919D02*
X98304523Y-48219919D01*
X98304523Y-48219919D02*
X98304523Y-47219919D01*
X98685476Y-47219919D02*
X99304523Y-47219919D01*
X99304523Y-47219919D02*
X98971190Y-47600871D01*
X98971190Y-47600871D02*
X99114047Y-47600871D01*
X99114047Y-47600871D02*
X99209285Y-47648490D01*
X99209285Y-47648490D02*
X99256904Y-47696109D01*
X99256904Y-47696109D02*
X99304523Y-47791347D01*
X99304523Y-47791347D02*
X99304523Y-48029442D01*
X99304523Y-48029442D02*
X99256904Y-48124680D01*
X99256904Y-48124680D02*
X99209285Y-48172300D01*
X99209285Y-48172300D02*
X99114047Y-48219919D01*
X99114047Y-48219919D02*
X98828333Y-48219919D01*
X98828333Y-48219919D02*
X98733095Y-48172300D01*
X98733095Y-48172300D02*
X98685476Y-48124680D01*
X92483095Y-48219919D02*
X92483095Y-47219919D01*
X92483095Y-47219919D02*
X93054523Y-48219919D01*
X93054523Y-48219919D02*
X93054523Y-47219919D01*
X94054523Y-48219919D02*
X93483095Y-48219919D01*
X93768809Y-48219919D02*
X93768809Y-47219919D01*
X93768809Y-47219919D02*
X93673571Y-47362776D01*
X93673571Y-47362776D02*
X93578333Y-47458014D01*
X93578333Y-47458014D02*
X93483095Y-47505633D01*
X85816428Y-47696109D02*
X85959285Y-47743728D01*
X85959285Y-47743728D02*
X86006904Y-47791347D01*
X86006904Y-47791347D02*
X86054523Y-47886585D01*
X86054523Y-47886585D02*
X86054523Y-48029442D01*
X86054523Y-48029442D02*
X86006904Y-48124680D01*
X86006904Y-48124680D02*
X85959285Y-48172300D01*
X85959285Y-48172300D02*
X85864047Y-48219919D01*
X85864047Y-48219919D02*
X85483095Y-48219919D01*
X85483095Y-48219919D02*
X85483095Y-47219919D01*
X85483095Y-47219919D02*
X85816428Y-47219919D01*
X85816428Y-47219919D02*
X85911666Y-47267538D01*
X85911666Y-47267538D02*
X85959285Y-47315157D01*
X85959285Y-47315157D02*
X86006904Y-47410395D01*
X86006904Y-47410395D02*
X86006904Y-47505633D01*
X86006904Y-47505633D02*
X85959285Y-47600871D01*
X85959285Y-47600871D02*
X85911666Y-47648490D01*
X85911666Y-47648490D02*
X85816428Y-47696109D01*
X85816428Y-47696109D02*
X85483095Y-47696109D01*
X89983095Y-48219919D02*
X89983095Y-47219919D01*
X89983095Y-47219919D02*
X90554523Y-48219919D01*
X90554523Y-48219919D02*
X90554523Y-47219919D01*
X91459285Y-47553252D02*
X91459285Y-48219919D01*
X91221190Y-47172300D02*
X90983095Y-47886585D01*
X90983095Y-47886585D02*
X91602142Y-47886585D01*
X95709286Y-45219919D02*
X95709286Y-44219919D01*
X95709286Y-44219919D02*
X96280714Y-45219919D01*
X96280714Y-45219919D02*
X96280714Y-44219919D01*
X92733095Y-45219919D02*
X92733095Y-44219919D01*
X92733095Y-44219919D02*
X93304523Y-45219919D01*
X93304523Y-45219919D02*
X93304523Y-44219919D01*
X93923571Y-44648490D02*
X93828333Y-44600871D01*
X93828333Y-44600871D02*
X93780714Y-44553252D01*
X93780714Y-44553252D02*
X93733095Y-44458014D01*
X93733095Y-44458014D02*
X93733095Y-44410395D01*
X93733095Y-44410395D02*
X93780714Y-44315157D01*
X93780714Y-44315157D02*
X93828333Y-44267538D01*
X93828333Y-44267538D02*
X93923571Y-44219919D01*
X93923571Y-44219919D02*
X94114047Y-44219919D01*
X94114047Y-44219919D02*
X94209285Y-44267538D01*
X94209285Y-44267538D02*
X94256904Y-44315157D01*
X94256904Y-44315157D02*
X94304523Y-44410395D01*
X94304523Y-44410395D02*
X94304523Y-44458014D01*
X94304523Y-44458014D02*
X94256904Y-44553252D01*
X94256904Y-44553252D02*
X94209285Y-44600871D01*
X94209285Y-44600871D02*
X94114047Y-44648490D01*
X94114047Y-44648490D02*
X93923571Y-44648490D01*
X93923571Y-44648490D02*
X93828333Y-44696109D01*
X93828333Y-44696109D02*
X93780714Y-44743728D01*
X93780714Y-44743728D02*
X93733095Y-44838966D01*
X93733095Y-44838966D02*
X93733095Y-45029442D01*
X93733095Y-45029442D02*
X93780714Y-45124680D01*
X93780714Y-45124680D02*
X93828333Y-45172300D01*
X93828333Y-45172300D02*
X93923571Y-45219919D01*
X93923571Y-45219919D02*
X94114047Y-45219919D01*
X94114047Y-45219919D02*
X94209285Y-45172300D01*
X94209285Y-45172300D02*
X94256904Y-45124680D01*
X94256904Y-45124680D02*
X94304523Y-45029442D01*
X94304523Y-45029442D02*
X94304523Y-44838966D01*
X94304523Y-44838966D02*
X94256904Y-44743728D01*
X94256904Y-44743728D02*
X94209285Y-44696109D01*
X94209285Y-44696109D02*
X94114047Y-44648490D01*
X95233095Y-48219919D02*
X95233095Y-47219919D01*
X95233095Y-47219919D02*
X95804523Y-48219919D01*
X95804523Y-48219919D02*
X95804523Y-47219919D01*
X96233095Y-47315157D02*
X96280714Y-47267538D01*
X96280714Y-47267538D02*
X96375952Y-47219919D01*
X96375952Y-47219919D02*
X96614047Y-47219919D01*
X96614047Y-47219919D02*
X96709285Y-47267538D01*
X96709285Y-47267538D02*
X96756904Y-47315157D01*
X96756904Y-47315157D02*
X96804523Y-47410395D01*
X96804523Y-47410395D02*
X96804523Y-47505633D01*
X96804523Y-47505633D02*
X96756904Y-47648490D01*
X96756904Y-47648490D02*
X96185476Y-48219919D01*
X96185476Y-48219919D02*
X96804523Y-48219919D01*
X83554523Y-48124680D02*
X83506904Y-48172300D01*
X83506904Y-48172300D02*
X83364047Y-48219919D01*
X83364047Y-48219919D02*
X83268809Y-48219919D01*
X83268809Y-48219919D02*
X83125952Y-48172300D01*
X83125952Y-48172300D02*
X83030714Y-48077061D01*
X83030714Y-48077061D02*
X82983095Y-47981823D01*
X82983095Y-47981823D02*
X82935476Y-47791347D01*
X82935476Y-47791347D02*
X82935476Y-47648490D01*
X82935476Y-47648490D02*
X82983095Y-47458014D01*
X82983095Y-47458014D02*
X83030714Y-47362776D01*
X83030714Y-47362776D02*
X83125952Y-47267538D01*
X83125952Y-47267538D02*
X83268809Y-47219919D01*
X83268809Y-47219919D02*
X83364047Y-47219919D01*
X83364047Y-47219919D02*
X83506904Y-47267538D01*
X83506904Y-47267538D02*
X83554523Y-47315157D01*
X83506904Y-44267538D02*
X83411666Y-44219919D01*
X83411666Y-44219919D02*
X83268809Y-44219919D01*
X83268809Y-44219919D02*
X83125952Y-44267538D01*
X83125952Y-44267538D02*
X83030714Y-44362776D01*
X83030714Y-44362776D02*
X82983095Y-44458014D01*
X82983095Y-44458014D02*
X82935476Y-44648490D01*
X82935476Y-44648490D02*
X82935476Y-44791347D01*
X82935476Y-44791347D02*
X82983095Y-44981823D01*
X82983095Y-44981823D02*
X83030714Y-45077061D01*
X83030714Y-45077061D02*
X83125952Y-45172300D01*
X83125952Y-45172300D02*
X83268809Y-45219919D01*
X83268809Y-45219919D02*
X83364047Y-45219919D01*
X83364047Y-45219919D02*
X83506904Y-45172300D01*
X83506904Y-45172300D02*
X83554523Y-45124680D01*
X83554523Y-45124680D02*
X83554523Y-44791347D01*
X83554523Y-44791347D02*
X83364047Y-44791347D01*
X85042619Y-44219919D02*
X85375952Y-45219919D01*
X85375952Y-45219919D02*
X85709285Y-44219919D01*
X86042619Y-44838966D02*
X86804524Y-44838966D01*
X100233095Y-45219919D02*
X100233095Y-44219919D01*
X100233095Y-44219919D02*
X100804523Y-45219919D01*
X100804523Y-45219919D02*
X100804523Y-44219919D01*
X101756904Y-44219919D02*
X101280714Y-44219919D01*
X101280714Y-44219919D02*
X101233095Y-44696109D01*
X101233095Y-44696109D02*
X101280714Y-44648490D01*
X101280714Y-44648490D02*
X101375952Y-44600871D01*
X101375952Y-44600871D02*
X101614047Y-44600871D01*
X101614047Y-44600871D02*
X101709285Y-44648490D01*
X101709285Y-44648490D02*
X101756904Y-44696109D01*
X101756904Y-44696109D02*
X101804523Y-44791347D01*
X101804523Y-44791347D02*
X101804523Y-45029442D01*
X101804523Y-45029442D02*
X101756904Y-45124680D01*
X101756904Y-45124680D02*
X101709285Y-45172300D01*
X101709285Y-45172300D02*
X101614047Y-45219919D01*
X101614047Y-45219919D02*
X101375952Y-45219919D01*
X101375952Y-45219919D02*
X101280714Y-45172300D01*
X101280714Y-45172300D02*
X101233095Y-45124680D01*
X87768810Y-45219919D02*
X87768810Y-44219919D01*
X88149762Y-44219919D02*
X88816428Y-45219919D01*
X88816428Y-44219919D02*
X88149762Y-45219919D01*
X97733095Y-45219919D02*
X97733095Y-44219919D01*
X97733095Y-44219919D02*
X98304523Y-45219919D01*
X98304523Y-45219919D02*
X98304523Y-44219919D01*
X98685476Y-44219919D02*
X99352142Y-44219919D01*
X99352142Y-44219919D02*
X98923571Y-45219919D01*
D13*
X104951000Y-72500000D02*
G75*
G03*
X104951000Y-72500000I-1251000J0D01*
G01*
X91657500Y-66272500D02*
X90327500Y-66272500D01*
X91657500Y-64942500D02*
X91657500Y-66272500D01*
X91657500Y-63672500D02*
X91657500Y-53452500D01*
X91657500Y-63672500D02*
X88997500Y-63672500D01*
X91657500Y-53452500D02*
X88997500Y-53452500D01*
X88997500Y-63672500D02*
X88997500Y-53452500D01*
D10*
X87827500Y-66742500D02*
X87827500Y-52992500D01*
X92127500Y-52992500D02*
X87127500Y-52992500D01*
X87127500Y-52992500D02*
X87127500Y-66742500D01*
X87127500Y-66742500D02*
X92127500Y-66742500D01*
X92127500Y-66742500D02*
X92127500Y-52992500D01*
D13*
X99587500Y-26622500D02*
X100917500Y-26622500D01*
X99587500Y-27952500D02*
X99587500Y-26622500D01*
X99587500Y-29222500D02*
X99587500Y-39442500D01*
X99587500Y-29222500D02*
X102247500Y-29222500D01*
X99587500Y-39442500D02*
X102247500Y-39442500D01*
X102247500Y-29222500D02*
X102247500Y-39442500D01*
D10*
X103417500Y-26152500D02*
X103417500Y-39902500D01*
X99117500Y-39902500D02*
X104117500Y-39902500D01*
X104117500Y-39902500D02*
X104117500Y-26152500D01*
X104117500Y-26152500D02*
X99117500Y-26152500D01*
X99117500Y-26152500D02*
X99117500Y-39902500D01*
D13*
X31855000Y-41992500D02*
X31855000Y-44652500D01*
X31865000Y-24532500D02*
X31865000Y-27192500D01*
X39535000Y-41992500D02*
X31855000Y-41992500D01*
X39535000Y-41992500D02*
X39535000Y-44652500D01*
X39535000Y-44652500D02*
X31855000Y-44652500D01*
X39545000Y-24532500D02*
X31865000Y-24532500D01*
X39545000Y-24532500D02*
X39545000Y-27192500D01*
X39545000Y-27192500D02*
X31865000Y-27192500D01*
X40805000Y-41992500D02*
X42135000Y-41992500D01*
X40815000Y-24532500D02*
X42145000Y-24532500D01*
X42135000Y-41992500D02*
X42135000Y-43322500D01*
X42145000Y-24532500D02*
X42145000Y-25862500D01*
X46495000Y-22732500D02*
X46495000Y-25392500D01*
X49095000Y-22732500D02*
X46495000Y-22732500D01*
X49095000Y-22732500D02*
X49095000Y-25392500D01*
X49095000Y-25392500D02*
X46495000Y-25392500D01*
X50365000Y-22732500D02*
X51695000Y-22732500D01*
X51695000Y-22732500D02*
X51695000Y-24062500D01*
D10*
X31745000Y-22692500D02*
X51745000Y-22692500D01*
X51745000Y-22692500D02*
X51745000Y-46692500D01*
X51745000Y-46692500D02*
X31745000Y-46692500D01*
X31745000Y-46692500D02*
X31745000Y-22692500D01*
D13*
X81587500Y-26622500D02*
X82917500Y-26622500D01*
X81587500Y-27952500D02*
X81587500Y-26622500D01*
X81587500Y-29222500D02*
X81587500Y-39442500D01*
X81587500Y-29222500D02*
X84247500Y-29222500D01*
X81587500Y-39442500D02*
X84247500Y-39442500D01*
X84247500Y-29222500D02*
X84247500Y-39442500D01*
D10*
X85417500Y-26152500D02*
X85417500Y-39902500D01*
X81117500Y-39902500D02*
X86117500Y-39902500D01*
X86117500Y-39902500D02*
X86117500Y-26152500D01*
X86117500Y-26152500D02*
X81117500Y-26152500D01*
X81117500Y-26152500D02*
X81117500Y-39902500D01*
D13*
X29340000Y-62920000D02*
X29340000Y-68060000D01*
X29340000Y-68060000D02*
X32000000Y-68060000D01*
X32000000Y-62920000D02*
X32000000Y-68060000D01*
D11*
X40670000Y-64120000D02*
G75*
G03*
X40670000Y-64120000I-10000000J0D01*
G01*
D13*
X97657500Y-66272500D02*
X96327500Y-66272500D01*
X97657500Y-64942500D02*
X97657500Y-66272500D01*
X97657500Y-63672500D02*
X97657500Y-53452500D01*
X97657500Y-63672500D02*
X94997500Y-63672500D01*
X97657500Y-53452500D02*
X94997500Y-53452500D01*
X94997500Y-63672500D02*
X94997500Y-53452500D01*
D10*
X93827500Y-66742500D02*
X93827500Y-52992500D01*
X98127500Y-52992500D02*
X93127500Y-52992500D01*
X93127500Y-52992500D02*
X93127500Y-66742500D01*
X93127500Y-66742500D02*
X98127500Y-66742500D01*
X98127500Y-66742500D02*
X98127500Y-52992500D01*
D13*
X61450000Y-50360000D02*
X61450000Y-49030000D01*
X62780000Y-50360000D02*
X61450000Y-50360000D01*
X64050000Y-50360000D02*
X66650000Y-50360000D01*
X64050000Y-50360000D02*
X64050000Y-47700000D01*
X66650000Y-50360000D02*
X66650000Y-47700000D01*
X64050000Y-47700000D02*
X66650000Y-47700000D01*
X46997500Y-44457500D02*
X47617500Y-44457500D01*
X46997500Y-44457500D02*
G75*
G03*
X46997500Y-44457500I-920000J0D01*
G01*
X93587500Y-26622500D02*
X94917500Y-26622500D01*
X93587500Y-27952500D02*
X93587500Y-26622500D01*
X93587500Y-29222500D02*
X93587500Y-39442500D01*
X93587500Y-29222500D02*
X96247500Y-29222500D01*
X93587500Y-39442500D02*
X96247500Y-39442500D01*
X96247500Y-29222500D02*
X96247500Y-39442500D01*
D10*
X97417500Y-26152500D02*
X97417500Y-39902500D01*
X93117500Y-39902500D02*
X98117500Y-39902500D01*
X98117500Y-39902500D02*
X98117500Y-26152500D01*
X98117500Y-26152500D02*
X93117500Y-26152500D01*
X93117500Y-26152500D02*
X93117500Y-39902500D01*
D13*
X76032500Y-25257500D02*
X76032500Y-24857500D01*
X76032500Y-22657500D02*
X76032500Y-22257500D01*
X75932500Y-70827500D02*
X54932500Y-70827500D01*
X75932500Y-68160500D02*
X72925500Y-68160500D01*
X72925500Y-68160500D02*
X72925500Y-70827500D01*
X70686500Y-70877500D02*
X70686500Y-70577500D01*
X70686500Y-68477500D02*
X70686500Y-68077500D01*
X70686500Y-65877500D02*
X70686500Y-65477500D01*
X70686500Y-63377500D02*
X70686500Y-62977500D01*
X70686500Y-60777500D02*
X70686500Y-60377500D01*
X70686500Y-58277500D02*
X70686500Y-57877500D01*
X70686500Y-55777500D02*
X70686500Y-55377500D01*
X70686500Y-53177500D02*
X70686500Y-52777500D01*
X70686500Y-50677500D02*
X70686500Y-50277500D01*
X70686500Y-48077500D02*
X70686500Y-47677500D01*
X70686500Y-45577500D02*
X70686500Y-45177500D01*
X70686500Y-43077500D02*
X70686500Y-42677500D01*
X70686500Y-40477500D02*
X70686500Y-40077500D01*
X70686500Y-37977500D02*
X70686500Y-37577500D01*
X70286500Y-35267500D02*
X70286500Y-34867500D01*
X70286500Y-32767500D02*
X70286500Y-32367500D01*
X70286500Y-30167500D02*
X70286500Y-29767500D01*
X70286500Y-27667500D02*
X70286500Y-27267500D01*
X69132500Y-19827500D02*
X75932500Y-19827500D01*
X66932500Y-19827500D02*
X66532500Y-19827500D01*
X64332500Y-19827500D02*
X63932500Y-19827500D01*
X54932500Y-70827500D02*
X54932500Y-70527500D01*
X54932500Y-68427500D02*
X54932500Y-68027500D01*
X54932500Y-65827500D02*
X54932500Y-65427500D01*
X54932500Y-63327500D02*
X54932500Y-62927500D01*
X54932500Y-60727500D02*
X54932500Y-60327500D01*
X54932500Y-58227500D02*
X54932500Y-57827500D01*
X54932500Y-55727500D02*
X54932500Y-55327500D01*
X54932500Y-53127500D02*
X54932500Y-52727500D01*
X54932500Y-50627500D02*
X54932500Y-50227500D01*
X54932500Y-48027500D02*
X54932500Y-47627500D01*
X54932500Y-45527500D02*
X54932500Y-45127500D01*
X54932500Y-43027500D02*
X54932500Y-42627500D01*
X54932500Y-40427500D02*
X54932500Y-40027500D01*
X54932500Y-37927500D02*
X54932500Y-37527500D01*
X54932500Y-35327500D02*
X54932500Y-34927500D01*
X54932500Y-32827500D02*
X54932500Y-32427500D01*
X54932500Y-30227500D02*
X54932500Y-29827500D01*
X54932500Y-27727500D02*
X54932500Y-27327500D01*
X54932500Y-25227500D02*
X54932500Y-24827500D01*
X54932500Y-22627500D02*
X54932500Y-22227500D01*
X54932500Y-19827500D02*
X61732500Y-19827500D01*
D10*
X69486500Y-70877500D02*
X61486500Y-70877500D01*
X61486500Y-70877500D02*
X61486500Y-66677500D01*
X61486500Y-66677500D02*
X69486500Y-66677500D01*
X69486500Y-66677500D02*
X69486500Y-70877500D01*
D13*
X51760000Y-30570000D02*
X51760000Y-29950000D01*
X52680000Y-31490000D02*
G75*
G03*
X52680000Y-31490000I-920000J0D01*
G01*
X46997500Y-41817500D02*
X47617500Y-41817500D01*
X46997500Y-41817500D02*
G75*
G03*
X46997500Y-41817500I-920000J0D01*
G01*
D10*
X47360000Y-30585000D02*
X47360000Y-30585000D01*
X47360000Y-30985000D02*
X47360000Y-30985000D01*
X47360000Y-31385000D02*
X47360000Y-31385000D01*
X47360000Y-31785000D02*
X47360000Y-31785000D01*
X47360000Y-32185000D02*
X47360000Y-32185000D01*
X47360000Y-32585000D02*
X47360000Y-32585000D01*
X47360000Y-32985000D02*
X47360000Y-32985000D01*
X47360000Y-33385000D02*
X47360000Y-33385000D01*
X47360000Y-33785000D02*
X47360000Y-33785000D01*
X47360000Y-34185000D02*
X47360000Y-34185000D01*
X47360000Y-34585000D02*
X47360000Y-34585000D01*
X47360000Y-34985000D02*
X47360000Y-34985000D01*
X47360000Y-35385000D02*
X47360000Y-35385000D01*
X47360000Y-35785000D02*
X47360000Y-35785000D01*
X47360000Y-36185000D02*
X47360000Y-36185000D01*
X47360000Y-36585000D02*
X47360000Y-36585000D01*
X47360000Y-36985000D02*
X47360000Y-36985000D01*
X47360000Y-37385000D02*
X47360000Y-37385000D01*
D13*
X47530000Y-32807500D02*
X47530000Y-37947500D01*
X47530000Y-32807500D02*
X50190000Y-32807500D01*
X47530000Y-37947500D02*
X50190000Y-37947500D01*
X48860000Y-30207500D02*
X50190000Y-30207500D01*
X50190000Y-30207500D02*
X50190000Y-31537500D01*
X50190000Y-32807500D02*
X50190000Y-37947500D01*
X87305000Y-69585000D02*
X87305000Y-72245000D01*
X97665000Y-69585000D02*
X87305000Y-69585000D01*
X97665000Y-69585000D02*
X97665000Y-72245000D01*
X97665000Y-72245000D02*
X87305000Y-72245000D01*
X85657500Y-66272500D02*
X84327500Y-66272500D01*
X85657500Y-64942500D02*
X85657500Y-66272500D01*
X85657500Y-63672500D02*
X85657500Y-53452500D01*
X85657500Y-63672500D02*
X82997500Y-63672500D01*
X85657500Y-53452500D02*
X82997500Y-53452500D01*
X82997500Y-63672500D02*
X82997500Y-53452500D01*
D10*
X81827500Y-66742500D02*
X81827500Y-52992500D01*
X86127500Y-52992500D02*
X81127500Y-52992500D01*
X81127500Y-52992500D02*
X81127500Y-66742500D01*
X81127500Y-66742500D02*
X86127500Y-66742500D01*
X86127500Y-66742500D02*
X86127500Y-52992500D01*
D13*
X61470000Y-35020000D02*
X61470000Y-33690000D01*
X62800000Y-35020000D02*
X61470000Y-35020000D01*
X64070000Y-35020000D02*
X66670000Y-35020000D01*
X64070000Y-35020000D02*
X64070000Y-32360000D01*
X66670000Y-35020000D02*
X66670000Y-32360000D01*
X64070000Y-32360000D02*
X66670000Y-32360000D01*
X51772500Y-49250000D02*
X51772500Y-48630000D01*
X52692500Y-50170000D02*
G75*
G03*
X52692500Y-50170000I-920000J0D01*
G01*
X28345000Y-70737500D02*
X28965000Y-70737500D01*
X28345000Y-70737500D02*
G75*
G03*
X28345000Y-70737500I-920000J0D01*
G01*
X103657500Y-66272500D02*
X102327500Y-66272500D01*
X103657500Y-64942500D02*
X103657500Y-66272500D01*
X103657500Y-63672500D02*
X103657500Y-53452500D01*
X103657500Y-63672500D02*
X100997500Y-63672500D01*
X103657500Y-53452500D02*
X100997500Y-53452500D01*
X100997500Y-63672500D02*
X100997500Y-53452500D01*
D10*
X99827500Y-66742500D02*
X99827500Y-52992500D01*
X104127500Y-52992500D02*
X99127500Y-52992500D01*
X99127500Y-52992500D02*
X99127500Y-66742500D01*
X99127500Y-66742500D02*
X104127500Y-66742500D01*
X104127500Y-66742500D02*
X104127500Y-52992500D01*
X47385000Y-49130000D02*
X47385000Y-49130000D01*
X47385000Y-49530000D02*
X47385000Y-49530000D01*
X47385000Y-49930000D02*
X47385000Y-49930000D01*
X47385000Y-50330000D02*
X47385000Y-50330000D01*
X47385000Y-50730000D02*
X47385000Y-50730000D01*
X47385000Y-51130000D02*
X47385000Y-51130000D01*
X47385000Y-51530000D02*
X47385000Y-51530000D01*
X47385000Y-51930000D02*
X47385000Y-51930000D01*
X47385000Y-52330000D02*
X47385000Y-52330000D01*
X47385000Y-52730000D02*
X47385000Y-52730000D01*
X47385000Y-53130000D02*
X47385000Y-53130000D01*
X47385000Y-53530000D02*
X47385000Y-53530000D01*
X47385000Y-53930000D02*
X47385000Y-53930000D01*
X47385000Y-54330000D02*
X47385000Y-54330000D01*
X47385000Y-54730000D02*
X47385000Y-54730000D01*
X47385000Y-55130000D02*
X47385000Y-55130000D01*
X47385000Y-55530000D02*
X47385000Y-55530000D01*
X47385000Y-55930000D02*
X47385000Y-55930000D01*
D13*
X47555000Y-51352500D02*
X47555000Y-56492500D01*
X47555000Y-51352500D02*
X50215000Y-51352500D01*
X47555000Y-56492500D02*
X50215000Y-56492500D01*
X48885000Y-48752500D02*
X50215000Y-48752500D01*
X50215000Y-48752500D02*
X50215000Y-50082500D01*
X50215000Y-51352500D02*
X50215000Y-56492500D01*
X87587500Y-26622500D02*
X88917500Y-26622500D01*
X87587500Y-27952500D02*
X87587500Y-26622500D01*
X87587500Y-29222500D02*
X87587500Y-39442500D01*
X87587500Y-29222500D02*
X90247500Y-29222500D01*
X87587500Y-39442500D02*
X90247500Y-39442500D01*
X90247500Y-29222500D02*
X90247500Y-39442500D01*
D10*
X91417500Y-26152500D02*
X91417500Y-39902500D01*
X87117500Y-39902500D02*
X92117500Y-39902500D01*
X92117500Y-39902500D02*
X92117500Y-26152500D01*
X92117500Y-26152500D02*
X87117500Y-26152500D01*
X87117500Y-26152500D02*
X87117500Y-39902500D01*
D13*
X102325000Y-44072500D02*
X81885000Y-44072500D01*
X81885000Y-44072500D02*
X81885000Y-48572500D01*
X102325000Y-45322500D02*
X102325000Y-44072500D01*
X102325000Y-48572500D02*
X102325000Y-47322500D01*
X81885000Y-48572500D02*
X102325000Y-48572500D01*
X102325000Y-45322500D02*
G75*
G03*
X102325000Y-47322500I0J-1000000D01*
G01*
%LPC*%
D15*
X24000000Y-30400000D03*
X44000000Y-72500000D03*
X80000000Y-72500000D03*
D16*
X80000000Y-20000000D03*
D15*
X103590000Y-20000000D03*
X103700000Y-72500000D03*
D17*
X90327500Y-64942500D03*
D18*
X90327500Y-62402500D03*
D19*
X90327500Y-59862500D03*
X90327500Y-57322500D03*
D20*
X90327500Y-54782500D03*
D17*
X100917500Y-27952500D03*
D18*
X100917500Y-30492500D03*
D19*
X100917500Y-33032500D03*
X100917500Y-35572500D03*
D21*
X100917500Y-38112500D03*
D18*
X40805000Y-43322500D03*
D19*
X38265000Y-43322500D03*
X35725000Y-43322500D03*
X33185000Y-43322500D03*
D18*
X47825000Y-24062500D03*
D17*
X40815000Y-25862500D03*
D19*
X38275000Y-25862500D03*
X35735000Y-25862500D03*
X33195000Y-25862500D03*
X50365000Y-24062500D03*
D17*
X82917500Y-27952500D03*
D18*
X82917500Y-30492500D03*
D19*
X82917500Y-33032500D03*
X82917500Y-35572500D03*
D21*
X82917500Y-38112500D03*
D22*
X23432500Y-51265000D03*
D18*
X30670000Y-61650000D03*
D19*
X30670000Y-66730000D03*
D17*
X96327500Y-64942500D03*
D18*
X96327500Y-62402500D03*
D19*
X96327500Y-59862500D03*
X96327500Y-57322500D03*
D20*
X96327500Y-54782500D03*
D23*
X62780000Y-49030000D03*
X65320000Y-49030000D03*
D17*
X46077500Y-44457500D03*
D19*
X48617500Y-44457500D03*
D17*
X94917500Y-27952500D03*
D18*
X94917500Y-30492500D03*
D19*
X94917500Y-33032500D03*
X94917500Y-35572500D03*
D21*
X94917500Y-38112500D03*
D19*
X74322500Y-69457500D03*
X74322500Y-66917500D03*
D18*
X74322500Y-64377500D03*
D19*
X74322500Y-59297500D03*
X74322500Y-56757500D03*
X74322500Y-54217500D03*
D18*
X74322500Y-51677500D03*
D19*
X74322500Y-49137500D03*
X74322500Y-46597500D03*
X74322500Y-44057500D03*
X74322500Y-41517500D03*
D18*
X74322500Y-38977500D03*
D19*
X74322500Y-36437500D03*
X74322500Y-33897500D03*
X74322500Y-31357500D03*
X74322500Y-28817500D03*
D18*
X74322500Y-26277500D03*
D19*
X56542500Y-21197500D03*
X56542500Y-23737500D03*
D18*
X56542500Y-26277500D03*
D19*
X56542500Y-28817500D03*
X56542500Y-31357500D03*
X56542500Y-33897500D03*
X56542500Y-36437500D03*
D18*
X56542500Y-38977500D03*
D19*
X56542500Y-41517500D03*
X56542500Y-44057500D03*
X56542500Y-46597500D03*
X56542500Y-49137500D03*
D18*
X56542500Y-51677500D03*
D19*
X56542500Y-54217500D03*
X56542500Y-56757500D03*
X56542500Y-59297500D03*
X56542500Y-61837500D03*
D18*
X56542500Y-64377500D03*
D19*
X56542500Y-66917500D03*
X56542500Y-69457500D03*
D24*
X23490000Y-20700000D03*
D17*
X51760000Y-31490000D03*
X51760000Y-28950000D03*
D25*
X46077500Y-41817500D03*
D19*
X48617500Y-41817500D03*
D17*
X48860000Y-31537500D03*
D18*
X48860000Y-34077500D03*
D21*
X48860000Y-36617500D03*
D19*
X93855000Y-70915000D03*
X88775000Y-70915000D03*
X91315000Y-70915000D03*
X96395000Y-70915000D03*
D22*
X23470000Y-26400000D03*
X23437500Y-45617500D03*
D17*
X84327500Y-64942500D03*
D18*
X84327500Y-62402500D03*
D19*
X84327500Y-59862500D03*
X84327500Y-57322500D03*
D20*
X84327500Y-54782500D03*
D23*
X62800000Y-33690000D03*
X65340000Y-33690000D03*
D17*
X51772500Y-50170000D03*
D19*
X51772500Y-47630000D03*
D21*
X27425000Y-70737500D03*
X29965000Y-70737500D03*
D17*
X102327500Y-64942500D03*
D18*
X102327500Y-62402500D03*
D19*
X102327500Y-59862500D03*
X102327500Y-57322500D03*
D20*
X102327500Y-54782500D03*
D22*
X23450000Y-34320000D03*
X23417500Y-39955000D03*
D17*
X48885000Y-50082500D03*
D18*
X48885000Y-52622500D03*
D21*
X48885000Y-55162500D03*
D17*
X88917500Y-27952500D03*
D18*
X88917500Y-30492500D03*
D19*
X88917500Y-33032500D03*
X88917500Y-35572500D03*
D21*
X88917500Y-38112500D03*
D26*
X100995000Y-42512500D03*
X98455000Y-42512500D03*
X95915000Y-42512500D03*
X93375000Y-42512500D03*
X90835000Y-42512500D03*
X88295000Y-42512500D03*
D27*
X85755000Y-42512500D03*
X83215000Y-42512500D03*
D26*
X83215000Y-50132500D03*
X85755000Y-50132500D03*
X88295000Y-50132500D03*
X90835000Y-50132500D03*
X93375000Y-50132500D03*
X95915000Y-50132500D03*
X98455000Y-50132500D03*
X100995000Y-50132500D03*
D18*
X45360000Y-24080000D03*
D19*
X27580000Y-24080000D03*
D18*
X45360000Y-64720000D03*
D19*
X27580000Y-64720000D03*
%LPD*%
M02*
