%TF.GenerationSoftware,KiCad,Pcbnew,9.0.4*%
%TF.CreationDate,2026-01-06T18:54:20+03:00*%
%TF.ProjectId,pico-hd-mcu-v3,7069636f-2d68-4642-9d6d-63752d76332e,rev?*%
%TF.SameCoordinates,Original*%
%TF.FileFunction,Drillmap*%
%TF.FilePolarity,Positive*%
%FSLAX45Y45*%
G04 Gerber Fmt 4.5, Leading zero omitted, Abs format (unit mm)*
G04 Created by KiCad (PCBNEW 9.0.4) date 2026-01-06 18:54:20*
%MOMM*%
%LPD*%
G01*
G04 APERTURE LIST*
%ADD10C,0.200000*%
G04 APERTURE END LIST*
D10*
X3647000Y-2104000D02*
X11882250Y-2104000D01*
X11882250Y-7465000D01*
X3647000Y-7465000D01*
X3647000Y-2104000D01*
X3897777Y-7786484D02*
X3897777Y-7586484D01*
X3897777Y-7586484D02*
X3945396Y-7586484D01*
X3945396Y-7586484D02*
X3973967Y-7596008D01*
X3973967Y-7596008D02*
X3993015Y-7615055D01*
X3993015Y-7615055D02*
X4002539Y-7634103D01*
X4002539Y-7634103D02*
X4012062Y-7672198D01*
X4012062Y-7672198D02*
X4012062Y-7700769D01*
X4012062Y-7700769D02*
X4002539Y-7738865D01*
X4002539Y-7738865D02*
X3993015Y-7757912D01*
X3993015Y-7757912D02*
X3973967Y-7776960D01*
X3973967Y-7776960D02*
X3945396Y-7786484D01*
X3945396Y-7786484D02*
X3897777Y-7786484D01*
X4097777Y-7786484D02*
X4097777Y-7653150D01*
X4097777Y-7691246D02*
X4107301Y-7672198D01*
X4107301Y-7672198D02*
X4116824Y-7662674D01*
X4116824Y-7662674D02*
X4135872Y-7653150D01*
X4135872Y-7653150D02*
X4154920Y-7653150D01*
X4221586Y-7786484D02*
X4221586Y-7653150D01*
X4221586Y-7586484D02*
X4212063Y-7596008D01*
X4212063Y-7596008D02*
X4221586Y-7605531D01*
X4221586Y-7605531D02*
X4231110Y-7596008D01*
X4231110Y-7596008D02*
X4221586Y-7586484D01*
X4221586Y-7586484D02*
X4221586Y-7605531D01*
X4345396Y-7786484D02*
X4326348Y-7776960D01*
X4326348Y-7776960D02*
X4316824Y-7757912D01*
X4316824Y-7757912D02*
X4316824Y-7586484D01*
X4450158Y-7786484D02*
X4431110Y-7776960D01*
X4431110Y-7776960D02*
X4421586Y-7757912D01*
X4421586Y-7757912D02*
X4421586Y-7586484D01*
X4678729Y-7786484D02*
X4678729Y-7586484D01*
X4678729Y-7586484D02*
X4745396Y-7729341D01*
X4745396Y-7729341D02*
X4812063Y-7586484D01*
X4812063Y-7586484D02*
X4812063Y-7786484D01*
X4993015Y-7786484D02*
X4993015Y-7681722D01*
X4993015Y-7681722D02*
X4983491Y-7662674D01*
X4983491Y-7662674D02*
X4964444Y-7653150D01*
X4964444Y-7653150D02*
X4926348Y-7653150D01*
X4926348Y-7653150D02*
X4907301Y-7662674D01*
X4993015Y-7776960D02*
X4973967Y-7786484D01*
X4973967Y-7786484D02*
X4926348Y-7786484D01*
X4926348Y-7786484D02*
X4907301Y-7776960D01*
X4907301Y-7776960D02*
X4897777Y-7757912D01*
X4897777Y-7757912D02*
X4897777Y-7738865D01*
X4897777Y-7738865D02*
X4907301Y-7719817D01*
X4907301Y-7719817D02*
X4926348Y-7710293D01*
X4926348Y-7710293D02*
X4973967Y-7710293D01*
X4973967Y-7710293D02*
X4993015Y-7700769D01*
X5088253Y-7653150D02*
X5088253Y-7853150D01*
X5088253Y-7662674D02*
X5107301Y-7653150D01*
X5107301Y-7653150D02*
X5145396Y-7653150D01*
X5145396Y-7653150D02*
X5164444Y-7662674D01*
X5164444Y-7662674D02*
X5173967Y-7672198D01*
X5173967Y-7672198D02*
X5183491Y-7691246D01*
X5183491Y-7691246D02*
X5183491Y-7748388D01*
X5183491Y-7748388D02*
X5173967Y-7767436D01*
X5173967Y-7767436D02*
X5164444Y-7776960D01*
X5164444Y-7776960D02*
X5145396Y-7786484D01*
X5145396Y-7786484D02*
X5107301Y-7786484D01*
X5107301Y-7786484D02*
X5088253Y-7776960D01*
X5269205Y-7767436D02*
X5278729Y-7776960D01*
X5278729Y-7776960D02*
X5269205Y-7786484D01*
X5269205Y-7786484D02*
X5259682Y-7776960D01*
X5259682Y-7776960D02*
X5269205Y-7767436D01*
X5269205Y-7767436D02*
X5269205Y-7786484D01*
X5269205Y-7662674D02*
X5278729Y-7672198D01*
X5278729Y-7672198D02*
X5269205Y-7681722D01*
X5269205Y-7681722D02*
X5259682Y-7672198D01*
X5259682Y-7672198D02*
X5269205Y-7662674D01*
X5269205Y-7662674D02*
X5269205Y-7681722D01*
M02*
