G04 #@! TF.GenerationSoftware,KiCad,Pcbnew,9.0.4*
G04 #@! TF.CreationDate,2026-01-06T18:54:23+03:00*
G04 #@! TF.ProjectId,pico-hd-mcu-v3,7069636f-2d68-4642-9d6d-63752d76332e,rev?*
G04 #@! TF.SameCoordinates,Original*
G04 #@! TF.FileFunction,Copper,L2,Bot*
G04 #@! TF.FilePolarity,Positive*
%FSLAX46Y46*%
G04 Gerber Fmt 4.6, Leading zero omitted, Abs format (unit mm)*
G04 Created by KiCad (PCBNEW 9.0.4) date 2026-01-06 18:54:23*
%MOMM*%
%LPD*%
G01*
G04 APERTURE LIST*
G04 Aperture macros list*
%AMRoundRect*
0 Rectangle with rounded corners*
0 $1 Rounding radius*
0 $2 $3 $4 $5 $6 $7 $8 $9 X,Y pos of 4 corners*
0 Add a 4 corners polygon primitive as box body*
4,1,4,$2,$3,$4,$5,$6,$7,$8,$9,$2,$3,0*
0 Add four circle primitives for the rounded corners*
1,1,$1+$1,$2,$3*
1,1,$1+$1,$4,$5*
1,1,$1+$1,$6,$7*
1,1,$1+$1,$8,$9*
0 Add four rect primitives between the rounded corners*
20,1,$1+$1,$2,$3,$4,$5,0*
20,1,$1+$1,$4,$5,$6,$7,0*
20,1,$1+$1,$6,$7,$8,$9,0*
20,1,$1+$1,$8,$9,$2,$3,0*%
%AMOutline5P*
0 Free polygon, 5 corners , with rotation*
0 The origin of the aperture is its center*
0 number of corners: always 5*
0 $1 to $10 corner X, Y*
0 $11 Rotation angle, in degrees counterclockwise*
0 create outline with 5 corners*
4,1,5,$1,$2,$3,$4,$5,$6,$7,$8,$9,$10,$1,$2,$11*%
%AMOutline6P*
0 Free polygon, 6 corners , with rotation*
0 The origin of the aperture is its center*
0 number of corners: always 6*
0 $1 to $12 corner X, Y*
0 $13 Rotation angle, in degrees counterclockwise*
0 create outline with 6 corners*
4,1,6,$1,$2,$3,$4,$5,$6,$7,$8,$9,$10,$11,$12,$1,$2,$13*%
%AMOutline7P*
0 Free polygon, 7 corners , with rotation*
0 The origin of the aperture is its center*
0 number of corners: always 7*
0 $1 to $14 corner X, Y*
0 $15 Rotation angle, in degrees counterclockwise*
0 create outline with 7 corners*
4,1,7,$1,$2,$3,$4,$5,$6,$7,$8,$9,$10,$11,$12,$13,$14,$1,$2,$15*%
%AMOutline8P*
0 Free polygon, 8 corners , with rotation*
0 The origin of the aperture is its center*
0 number of corners: always 8*
0 $1 to $16 corner X, Y*
0 $17 Rotation angle, in degrees counterclockwise*
0 create outline with 8 corners*
4,1,8,$1,$2,$3,$4,$5,$6,$7,$8,$9,$10,$11,$12,$13,$14,$15,$16,$1,$2,$17*%
G04 Aperture macros list end*
G04 #@! TA.AperFunction,ComponentPad*
%ADD10O,1.700000X1.700000*%
G04 #@! TD*
G04 #@! TA.AperFunction,ComponentPad*
%ADD11R,1.700000X1.700000*%
G04 #@! TD*
G04 #@! TA.AperFunction,ComponentPad*
%ADD12R,1.800000X1.800000*%
G04 #@! TD*
G04 #@! TA.AperFunction,ComponentPad*
%ADD13C,1.700000*%
G04 #@! TD*
G04 #@! TA.AperFunction,ComponentPad*
%ADD14Outline5P,-0.850000X0.510000X-0.510000X0.850000X0.850000X0.850000X0.850000X-0.850000X-0.850000X-0.850000X180.000000*%
G04 #@! TD*
G04 #@! TA.AperFunction,ComponentPad*
%ADD15Outline5P,-0.850000X0.510000X-0.510000X0.850000X0.850000X0.850000X0.850000X-0.850000X-0.850000X-0.850000X0.000000*%
G04 #@! TD*
G04 #@! TA.AperFunction,ComponentPad*
%ADD16C,4.000000*%
G04 #@! TD*
G04 #@! TA.AperFunction,ComponentPad*
%ADD17RoundRect,0.500000X-0.500000X-1.400000X0.500000X-1.400000X0.500000X1.400000X-0.500000X1.400000X0*%
G04 #@! TD*
G04 #@! TA.AperFunction,ComponentPad*
%ADD18C,3.000000*%
G04 #@! TD*
G04 #@! TA.AperFunction,ComponentPad*
%ADD19R,6.000000X4.000000*%
G04 #@! TD*
G04 #@! TA.AperFunction,ComponentPad*
%ADD20O,1.000000X1.000000*%
G04 #@! TD*
G04 #@! TA.AperFunction,ComponentPad*
%ADD21C,1.000000*%
G04 #@! TD*
G04 #@! TA.AperFunction,ComponentPad*
%ADD22O,1.600000X2.400000*%
G04 #@! TD*
G04 #@! TA.AperFunction,ComponentPad*
%ADD23R,1.600000X2.400000*%
G04 #@! TD*
G04 #@! TA.AperFunction,ComponentPad*
%ADD24R,4.000000X6.000000*%
G04 #@! TD*
G04 #@! TA.AperFunction,Conductor*
%ADD25C,0.500000*%
G04 #@! TD*
G04 #@! TA.AperFunction,Conductor*
%ADD26C,1.000000*%
G04 #@! TD*
G04 APERTURE END LIST*
D10*
X112255000Y-72360000D03*
X107175000Y-72360000D03*
X104635000Y-72360000D03*
X109715000Y-72360000D03*
X90196500Y-70939000D03*
X90196500Y-68399000D03*
D11*
X90182500Y-65822500D03*
D10*
X90182500Y-60742500D03*
X90182500Y-58202500D03*
X90182500Y-55662500D03*
D11*
X90182500Y-53122500D03*
D10*
X90182500Y-50582500D03*
X90182500Y-48042500D03*
X90182500Y-45502500D03*
X90182500Y-42962500D03*
D11*
X90182500Y-40422500D03*
D10*
X90182500Y-37882500D03*
X90182500Y-35342500D03*
X90182500Y-32802500D03*
X90182500Y-30262500D03*
D11*
X90182500Y-27722500D03*
D10*
X72402500Y-22642500D03*
X72402500Y-25182500D03*
D11*
X72402500Y-27722500D03*
D10*
X72402500Y-30262500D03*
X72402500Y-32802500D03*
X72402500Y-35342500D03*
X72402500Y-37882500D03*
D11*
X72402500Y-40422500D03*
D10*
X72402500Y-42962500D03*
X72402500Y-45502500D03*
X72402500Y-48042500D03*
X72402500Y-50582500D03*
D11*
X72402500Y-53122500D03*
D10*
X72402500Y-55662500D03*
X72402500Y-58202500D03*
X72402500Y-60742500D03*
X72402500Y-63282500D03*
D11*
X72402500Y-65822500D03*
D10*
X72402500Y-68362500D03*
X72402500Y-70902500D03*
D12*
X50717500Y-70842500D03*
X50717500Y-73382500D03*
X46712500Y-70852500D03*
X46712500Y-73392500D03*
D13*
X90200000Y-22650000D03*
X103587500Y-66357500D03*
D11*
X103587500Y-63817500D03*
D10*
X103587500Y-61277500D03*
X103587500Y-58737500D03*
D14*
X103587500Y-56197500D03*
D13*
X114177500Y-29367500D03*
D11*
X114177500Y-31907500D03*
D10*
X114177500Y-34447500D03*
X114177500Y-36987500D03*
D15*
X114177500Y-39527500D03*
D16*
X40000000Y-52000000D03*
D13*
X61300000Y-30692500D03*
X61300000Y-28152500D03*
X61300000Y-33232500D03*
D12*
X60960000Y-22785000D03*
X63500000Y-22785000D03*
D17*
X56150000Y-36552500D03*
D18*
X116040000Y-23190000D03*
D10*
X90170000Y-63280000D03*
D12*
X65830000Y-49632500D03*
X65830000Y-47092500D03*
D13*
X96177500Y-29367500D03*
D11*
X96177500Y-31907500D03*
D10*
X96177500Y-34447500D03*
X96177500Y-36987500D03*
D15*
X96177500Y-39527500D03*
D19*
X39867500Y-23800000D03*
D13*
X109587500Y-66357500D03*
D11*
X109587500Y-63817500D03*
D10*
X109587500Y-61277500D03*
X109587500Y-58737500D03*
D14*
X109587500Y-56197500D03*
D12*
X60810000Y-37280000D03*
X63350000Y-37280000D03*
D20*
X66820000Y-44157500D03*
X65550000Y-44157500D03*
D21*
X68090000Y-44157500D03*
D18*
X116150000Y-72500000D03*
D13*
X108177500Y-29367500D03*
D11*
X108177500Y-31907500D03*
D10*
X108177500Y-34447500D03*
X108177500Y-36987500D03*
D15*
X108177500Y-39527500D03*
D16*
X40000000Y-66042500D03*
D17*
X56150000Y-26052500D03*
D13*
X61200000Y-45492500D03*
X61200000Y-42952500D03*
X61200000Y-48032500D03*
D18*
X93675000Y-23242500D03*
D19*
X39900000Y-30200000D03*
D13*
X97587500Y-66357500D03*
D11*
X97587500Y-63817500D03*
D10*
X97587500Y-61277500D03*
X97587500Y-58737500D03*
D14*
X97587500Y-56197500D03*
D13*
X115587500Y-66357500D03*
D11*
X115587500Y-63817500D03*
D10*
X115587500Y-61277500D03*
X115587500Y-58737500D03*
D14*
X115587500Y-56197500D03*
D19*
X39910000Y-36787500D03*
D12*
X65920000Y-41837500D03*
X65920000Y-39297500D03*
D20*
X66920000Y-29377500D03*
X65650000Y-29377500D03*
D21*
X68190000Y-29377500D03*
D19*
X39995000Y-43357500D03*
D12*
X65940000Y-34832500D03*
X65940000Y-32292500D03*
D13*
X102177500Y-29367500D03*
D11*
X102177500Y-31907500D03*
D10*
X102177500Y-34447500D03*
X102177500Y-36987500D03*
D15*
X102177500Y-39527500D03*
D12*
X66035000Y-27062500D03*
X66035000Y-24522500D03*
D22*
X114255000Y-43927500D03*
X111715000Y-43927500D03*
X109175000Y-43927500D03*
X106635000Y-43927500D03*
X104095000Y-43927500D03*
X101555000Y-43927500D03*
D23*
X99015000Y-43927500D03*
X96475000Y-43927500D03*
D22*
X96475000Y-51547500D03*
X99015000Y-51547500D03*
X101555000Y-51547500D03*
X104095000Y-51547500D03*
X106635000Y-51547500D03*
X109175000Y-51547500D03*
X111715000Y-51547500D03*
X114255000Y-51547500D03*
D13*
X83850000Y-63430000D03*
X81310000Y-63430000D03*
X78770000Y-63430000D03*
X83850000Y-24550000D03*
X81310000Y-24550000D03*
X78770000Y-24550000D03*
D24*
X66947500Y-71352500D03*
X38847500Y-71352500D03*
X66947500Y-57252500D03*
X38847500Y-57252500D03*
D13*
X83810000Y-53620000D03*
X81270000Y-53620000D03*
X78730000Y-53620000D03*
X83850000Y-68280000D03*
X81310000Y-68280000D03*
X78770000Y-68280000D03*
X83840000Y-29310000D03*
X81300000Y-29310000D03*
X78760000Y-29310000D03*
X83842500Y-34100000D03*
X81302500Y-34100000D03*
X78762500Y-34100000D03*
X83830000Y-58560000D03*
X81290000Y-58560000D03*
X78750000Y-58560000D03*
X83840000Y-38980000D03*
X81300000Y-38980000D03*
X78760000Y-38980000D03*
X83780000Y-43840000D03*
X81240000Y-43840000D03*
X78700000Y-43840000D03*
X83810000Y-48730000D03*
X81270000Y-48730000D03*
X78730000Y-48730000D03*
D25*
X83860000Y-70380000D02*
X83880000Y-70380000D01*
X83880000Y-70380000D02*
X86570000Y-73070000D01*
X86570000Y-73070000D02*
X93390000Y-73070000D01*
X93390000Y-73070000D02*
X97587500Y-68872500D01*
X97587500Y-68872500D02*
X97587500Y-66357500D01*
X72402500Y-65822500D02*
X81282500Y-65822500D01*
X107060000Y-63847500D02*
X107090000Y-63817500D01*
X72232500Y-65652500D02*
X72402500Y-65822500D01*
X90182500Y-65822500D02*
X93952500Y-65822500D01*
X56150000Y-36552500D02*
X56150000Y-55000000D01*
X68090000Y-44157500D02*
X68090000Y-56110000D01*
X53897500Y-57252500D02*
X38847500Y-57252500D01*
X81310000Y-24550000D02*
X81310000Y-65850000D01*
X81282500Y-65822500D02*
X81310000Y-65850000D01*
X109715000Y-72360000D02*
X109660000Y-72305000D01*
X109715000Y-72360000D02*
X109715000Y-70635000D01*
X68190000Y-44057500D02*
X68090000Y-44157500D01*
X68190000Y-29377500D02*
X68190000Y-44057500D01*
X72402500Y-65822500D02*
X72060000Y-66165000D01*
X56150000Y-26052500D02*
X56150000Y-36552500D01*
X56150000Y-55000000D02*
X53897500Y-57252500D01*
X68090000Y-56110000D02*
X66947500Y-57252500D01*
X81310000Y-65850000D02*
X81310000Y-68280000D01*
X109715000Y-70635000D02*
X112300000Y-68050000D01*
X112300000Y-68050000D02*
X112300000Y-63817500D01*
X93952500Y-65822500D02*
X95957500Y-63817500D01*
X112300000Y-63817500D02*
X115587500Y-63817500D01*
X73032500Y-65822500D02*
X73040000Y-65830000D01*
X95957500Y-63817500D02*
X97587500Y-63817500D01*
X97587500Y-63817500D02*
X112300000Y-63817500D01*
D26*
X62900000Y-34832500D02*
X65940000Y-34832500D01*
X42947500Y-70842500D02*
X39357500Y-70842500D01*
X61300000Y-33232500D02*
X62900000Y-34832500D01*
X61300000Y-33232500D02*
X60767500Y-33232500D01*
X58400000Y-65200000D02*
X55957500Y-67642500D01*
X46147500Y-67642500D02*
X42947500Y-70842500D01*
X58400000Y-48000000D02*
X58432500Y-48032500D01*
X39357500Y-70842500D02*
X38847500Y-71352500D01*
X61200000Y-48032500D02*
X62800000Y-49632500D01*
X60767500Y-33232500D02*
X58400000Y-35600000D01*
X58432500Y-48032500D02*
X61200000Y-48032500D01*
X58400000Y-35600000D02*
X58400000Y-65200000D01*
X55957500Y-67642500D02*
X46147500Y-67642500D01*
X62800000Y-49632500D02*
X65830000Y-49632500D01*
D25*
X75580000Y-70380000D02*
X83860000Y-70380000D01*
X91280000Y-24890000D02*
X84190000Y-24890000D01*
X95757500Y-29367500D02*
X91280000Y-24890000D01*
X73562500Y-68362500D02*
X75580000Y-70380000D01*
X83850000Y-24550000D02*
X83850000Y-70370000D01*
X72402500Y-68362500D02*
X73562500Y-68362500D01*
X83850000Y-70370000D02*
X83860000Y-70380000D01*
X84190000Y-24890000D02*
X83850000Y-24550000D01*
X96177500Y-29367500D02*
X95757500Y-29367500D01*
X106635000Y-43927500D02*
X106635000Y-42075000D01*
X104087500Y-39527500D02*
X102177500Y-39527500D01*
X106635000Y-42075000D02*
X104087500Y-39527500D01*
X106635000Y-54705000D02*
X106635000Y-51547500D01*
X103587500Y-56197500D02*
X105142500Y-56197500D01*
X105142500Y-56197500D02*
X106635000Y-54705000D01*
X109587500Y-56197500D02*
X109587500Y-53827500D01*
X109205000Y-53445000D02*
X109205000Y-51577500D01*
X109205000Y-51577500D02*
X109175000Y-51547500D01*
X109587500Y-53827500D02*
X109205000Y-53445000D01*
X115587500Y-56197500D02*
X114107500Y-56197500D01*
X114107500Y-56197500D02*
X111715000Y-53805000D01*
X111715000Y-53805000D02*
X111715000Y-51547500D01*
X104095000Y-53055000D02*
X104095000Y-51547500D01*
X104095000Y-51547500D02*
X104055000Y-51587500D01*
X103285000Y-53865000D02*
X104095000Y-53055000D01*
X99252500Y-56197500D02*
X101585000Y-53865000D01*
X97587500Y-56197500D02*
X99252500Y-56197500D01*
X101585000Y-53865000D02*
X103285000Y-53865000D01*
X114255000Y-43927500D02*
X114255000Y-39605000D01*
X114255000Y-39605000D02*
X114177500Y-39527500D01*
X111715000Y-41935000D02*
X109307500Y-39527500D01*
X111715000Y-43927500D02*
X111715000Y-41935000D01*
X109307500Y-39527500D02*
X108177500Y-39527500D01*
X100335000Y-41815000D02*
X102875000Y-41815000D01*
X102875000Y-41815000D02*
X104095000Y-43035000D01*
X104095000Y-43035000D02*
X104095000Y-43927500D01*
X98047500Y-39527500D02*
X100335000Y-41815000D01*
X96177500Y-39527500D02*
X98047500Y-39527500D01*
X115587500Y-61277500D02*
X97587500Y-61277500D01*
X115852500Y-36987500D02*
X117800000Y-38935000D01*
X114177500Y-36987500D02*
X115852500Y-36987500D01*
X92112500Y-30262500D02*
X90182500Y-30262500D01*
X94437500Y-36987500D02*
X93625000Y-36175000D01*
X114177500Y-36987500D02*
X96177500Y-36987500D01*
X115587500Y-58737500D02*
X97587500Y-58737500D01*
X116737500Y-58737500D02*
X115587500Y-58737500D01*
X117800000Y-57675000D02*
X116737500Y-58737500D01*
X96177500Y-36987500D02*
X94437500Y-36987500D01*
X117800000Y-38935000D02*
X117800000Y-57675000D01*
X93625000Y-31775000D02*
X92112500Y-30262500D01*
X93625000Y-36175000D02*
X93625000Y-31775000D01*
X92625000Y-34025000D02*
X91402500Y-32802500D01*
X91402500Y-32802500D02*
X90182500Y-32802500D01*
X109175000Y-45540000D02*
X108360000Y-46355000D01*
X108360000Y-46355000D02*
X94075000Y-46355000D01*
X109175000Y-43927500D02*
X109175000Y-45540000D01*
X92625000Y-44905000D02*
X92625000Y-34025000D01*
X94075000Y-46355000D02*
X92625000Y-44905000D01*
M02*
