G04 #@! TF.GenerationSoftware,KiCad,Pcbnew,9.0.4*
G04 #@! TF.CreationDate,2026-01-06T18:54:23+03:00*
G04 #@! TF.ProjectId,pico-hd-mcu-v3,7069636f-2d68-4642-9d6d-63752d76332e,rev?*
G04 #@! TF.SameCoordinates,Original*
G04 #@! TF.FileFunction,Legend,Bot*
G04 #@! TF.FilePolarity,Positive*
%FSLAX46Y46*%
G04 Gerber Fmt 4.6, Leading zero omitted, Abs format (unit mm)*
G04 Created by KiCad (PCBNEW 9.0.4) date 2026-01-06 18:54:23*
%MOMM*%
%LPD*%
G01*
G04 APERTURE LIST*
G04 Aperture macros list*
%AMRoundRect*
0 Rectangle with rounded corners*
0 $1 Rounding radius*
0 $2 $3 $4 $5 $6 $7 $8 $9 X,Y pos of 4 corners*
0 Add a 4 corners polygon primitive as box body*
4,1,4,$2,$3,$4,$5,$6,$7,$8,$9,$2,$3,0*
0 Add four circle primitives for the rounded corners*
1,1,$1+$1,$2,$3*
1,1,$1+$1,$4,$5*
1,1,$1+$1,$6,$7*
1,1,$1+$1,$8,$9*
0 Add four rect primitives between the rounded corners*
20,1,$1+$1,$2,$3,$4,$5,0*
20,1,$1+$1,$4,$5,$6,$7,0*
20,1,$1+$1,$6,$7,$8,$9,0*
20,1,$1+$1,$8,$9,$2,$3,0*%
%AMOutline5P*
0 Free polygon, 5 corners , with rotation*
0 The origin of the aperture is its center*
0 number of corners: always 5*
0 $1 to $10 corner X, Y*
0 $11 Rotation angle, in degrees counterclockwise*
0 create outline with 5 corners*
4,1,5,$1,$2,$3,$4,$5,$6,$7,$8,$9,$10,$1,$2,$11*%
%AMOutline6P*
0 Free polygon, 6 corners , with rotation*
0 The origin of the aperture is its center*
0 number of corners: always 6*
0 $1 to $12 corner X, Y*
0 $13 Rotation angle, in degrees counterclockwise*
0 create outline with 6 corners*
4,1,6,$1,$2,$3,$4,$5,$6,$7,$8,$9,$10,$11,$12,$1,$2,$13*%
%AMOutline7P*
0 Free polygon, 7 corners , with rotation*
0 The origin of the aperture is its center*
0 number of corners: always 7*
0 $1 to $14 corner X, Y*
0 $15 Rotation angle, in degrees counterclockwise*
0 create outline with 7 corners*
4,1,7,$1,$2,$3,$4,$5,$6,$7,$8,$9,$10,$11,$12,$13,$14,$1,$2,$15*%
%AMOutline8P*
0 Free polygon, 8 corners , with rotation*
0 The origin of the aperture is its center*
0 number of corners: always 8*
0 $1 to $16 corner X, Y*
0 $17 Rotation angle, in degrees counterclockwise*
0 create outline with 8 corners*
4,1,8,$1,$2,$3,$4,$5,$6,$7,$8,$9,$10,$11,$12,$13,$14,$15,$16,$1,$2,$17*%
G04 Aperture macros list end*
%ADD10C,0.300000*%
%ADD11C,0.100000*%
%ADD12C,0.120000*%
%ADD13C,0.150000*%
%ADD14O,1.700000X1.700000*%
%ADD15R,1.700000X1.700000*%
%ADD16R,1.800000X1.800000*%
%ADD17C,1.700000*%
%ADD18Outline5P,-0.850000X0.510000X-0.510000X0.850000X0.850000X0.850000X0.850000X-0.850000X-0.850000X-0.850000X180.000000*%
%ADD19Outline5P,-0.850000X0.510000X-0.510000X0.850000X0.850000X0.850000X0.850000X-0.850000X-0.850000X-0.850000X0.000000*%
%ADD20C,4.000000*%
%ADD21RoundRect,0.500000X-0.500000X-1.400000X0.500000X-1.400000X0.500000X1.400000X-0.500000X1.400000X0*%
%ADD22C,3.000000*%
%ADD23R,6.000000X4.000000*%
%ADD24O,1.000000X1.000000*%
%ADD25C,1.000000*%
%ADD26O,1.600000X2.400000*%
%ADD27R,1.600000X2.400000*%
%ADD28R,4.000000X6.000000*%
G04 APERTURE END LIST*
D10*
G36*
X101656071Y-73233328D02*
G01*
X101270052Y-73233328D01*
X101180638Y-73188621D01*
X101143633Y-73151616D01*
X101098928Y-73062204D01*
X101098928Y-72918737D01*
X101143633Y-72829325D01*
X101172811Y-72800147D01*
X101330414Y-72747614D01*
X101656071Y-72747614D01*
X101656071Y-73233328D01*
G37*
G36*
X101656071Y-72447614D02*
G01*
X101341481Y-72447614D01*
X101252067Y-72402906D01*
X101215063Y-72365903D01*
X101170356Y-72276489D01*
X101170356Y-72204452D01*
X101215063Y-72115038D01*
X101252067Y-72078035D01*
X101341481Y-72033328D01*
X101656071Y-72033328D01*
X101656071Y-72447614D01*
G37*
G36*
X102122738Y-73699995D02*
G01*
X97989404Y-73699995D01*
X97989404Y-71883170D01*
X98156071Y-71883170D01*
X98167429Y-71940585D01*
X98181263Y-71966533D01*
X98625793Y-72633328D01*
X98181263Y-73300123D01*
X98167429Y-73326071D01*
X98156071Y-73383486D01*
X98167549Y-73440875D01*
X98200115Y-73489505D01*
X98248814Y-73521970D01*
X98306229Y-73533328D01*
X98363618Y-73521850D01*
X98412248Y-73489284D01*
X98430879Y-73466533D01*
X98806071Y-72903744D01*
X99181264Y-73466533D01*
X99199894Y-73489284D01*
X99248524Y-73521850D01*
X99305914Y-73533328D01*
X99363328Y-73521971D01*
X99412027Y-73489505D01*
X99444593Y-73440875D01*
X99456071Y-73383486D01*
X99444714Y-73326071D01*
X99430879Y-73300123D01*
X98986349Y-72633328D01*
X99430879Y-71966533D01*
X99444714Y-71940585D01*
X99456071Y-71883170D01*
X99450250Y-71854064D01*
X99516096Y-71854064D01*
X99516096Y-71912592D01*
X99538494Y-71966664D01*
X99579878Y-72008048D01*
X99633950Y-72030446D01*
X99663214Y-72033328D01*
X99941785Y-72033328D01*
X99941785Y-73383328D01*
X99944667Y-73412592D01*
X99967065Y-73466664D01*
X100008449Y-73508048D01*
X100062521Y-73530446D01*
X100121049Y-73530446D01*
X100175121Y-73508048D01*
X100216505Y-73466664D01*
X100238903Y-73412592D01*
X100241785Y-73383328D01*
X100241785Y-72883328D01*
X100798928Y-72883328D01*
X100798928Y-73097614D01*
X100801810Y-73126878D01*
X100803872Y-73131856D01*
X100804254Y-73137232D01*
X100814764Y-73164696D01*
X100886192Y-73307553D01*
X100894119Y-73320146D01*
X100895635Y-73323806D01*
X100899016Y-73327925D01*
X100901857Y-73332439D01*
X100904850Y-73335035D01*
X100914290Y-73346537D01*
X100985719Y-73417966D01*
X100997223Y-73427407D01*
X100999818Y-73430399D01*
X101004327Y-73433237D01*
X101008450Y-73436621D01*
X101012111Y-73438137D01*
X101024703Y-73446064D01*
X101167561Y-73517492D01*
X101195024Y-73528002D01*
X101200399Y-73528383D01*
X101205378Y-73530446D01*
X101234642Y-73533328D01*
X101806071Y-73533328D01*
X101835335Y-73530446D01*
X101889407Y-73508048D01*
X101930791Y-73466664D01*
X101953189Y-73412592D01*
X101956071Y-73383328D01*
X101956071Y-71883328D01*
X101953189Y-71854064D01*
X101930791Y-71799992D01*
X101889407Y-71758608D01*
X101835335Y-71736210D01*
X101806071Y-71733328D01*
X101306071Y-71733328D01*
X101276807Y-71736210D01*
X101271826Y-71738273D01*
X101266452Y-71738655D01*
X101238988Y-71749164D01*
X101096132Y-71820593D01*
X101083538Y-71828520D01*
X101079879Y-71830036D01*
X101075758Y-71833417D01*
X101071246Y-71836258D01*
X101068649Y-71839251D01*
X101057149Y-71848690D01*
X100985720Y-71920118D01*
X100976280Y-71931620D01*
X100973286Y-71934217D01*
X100970444Y-71938731D01*
X100967065Y-71942849D01*
X100965549Y-71946507D01*
X100957621Y-71959103D01*
X100886192Y-72101960D01*
X100875683Y-72129423D01*
X100875301Y-72134797D01*
X100873238Y-72139778D01*
X100870356Y-72169042D01*
X100870356Y-72311900D01*
X100873238Y-72341164D01*
X100875301Y-72346144D01*
X100875683Y-72351519D01*
X100886192Y-72378982D01*
X100957621Y-72521839D01*
X100965549Y-72534434D01*
X100967065Y-72538093D01*
X100970444Y-72542210D01*
X100973286Y-72546725D01*
X100976280Y-72549321D01*
X100985720Y-72560824D01*
X100986901Y-72562005D01*
X100985719Y-72562976D01*
X100914290Y-72634405D01*
X100904850Y-72645906D01*
X100901857Y-72648503D01*
X100899016Y-72653016D01*
X100895635Y-72657136D01*
X100894119Y-72660795D01*
X100886192Y-72673389D01*
X100814764Y-72816246D01*
X100804254Y-72843710D01*
X100803872Y-72849085D01*
X100801810Y-72854064D01*
X100798928Y-72883328D01*
X100241785Y-72883328D01*
X100241785Y-72033328D01*
X100520356Y-72033328D01*
X100549620Y-72030446D01*
X100603692Y-72008048D01*
X100645076Y-71966664D01*
X100667474Y-71912592D01*
X100667474Y-71854064D01*
X100645076Y-71799992D01*
X100603692Y-71758608D01*
X100549620Y-71736210D01*
X100520356Y-71733328D01*
X99663214Y-71733328D01*
X99633950Y-71736210D01*
X99579878Y-71758608D01*
X99538494Y-71799992D01*
X99516096Y-71854064D01*
X99450250Y-71854064D01*
X99444593Y-71825781D01*
X99412027Y-71777151D01*
X99363328Y-71744685D01*
X99305914Y-71733328D01*
X99248524Y-71744806D01*
X99199894Y-71777372D01*
X99181264Y-71800123D01*
X98806071Y-72362911D01*
X98430879Y-71800123D01*
X98412248Y-71777372D01*
X98363618Y-71744806D01*
X98306229Y-71733328D01*
X98248814Y-71744686D01*
X98200115Y-71777151D01*
X98167549Y-71825781D01*
X98156071Y-71883170D01*
X97989404Y-71883170D01*
X97989404Y-71566661D01*
X102122738Y-71566661D01*
X102122738Y-73699995D01*
G37*
D11*
X36522500Y-21100000D02*
X118770000Y-21100000D01*
X118770000Y-74600000D01*
X36522500Y-74600000D01*
X36522500Y-21100000D01*
D12*
X93129140Y-29439661D02*
X93129140Y-28915851D01*
X93129140Y-28915851D02*
X93652950Y-28863470D01*
X93652950Y-28863470D02*
X93600569Y-28915851D01*
X93600569Y-28915851D02*
X93548188Y-29020613D01*
X93548188Y-29020613D02*
X93548188Y-29282518D01*
X93548188Y-29282518D02*
X93600569Y-29387280D01*
X93600569Y-29387280D02*
X93652950Y-29439661D01*
X93652950Y-29439661D02*
X93757712Y-29492042D01*
X93757712Y-29492042D02*
X94019617Y-29492042D01*
X94019617Y-29492042D02*
X94124379Y-29439661D01*
X94124379Y-29439661D02*
X94176760Y-29387280D01*
X94176760Y-29387280D02*
X94229140Y-29282518D01*
X94229140Y-29282518D02*
X94229140Y-29020613D01*
X94229140Y-29020613D02*
X94176760Y-28915851D01*
X94176760Y-28915851D02*
X94124379Y-28863470D01*
X93129140Y-29806327D02*
X94229140Y-30172994D01*
X94229140Y-30172994D02*
X93129140Y-30539661D01*
X93181521Y-32320613D02*
X93129140Y-32215851D01*
X93129140Y-32215851D02*
X93129140Y-32058708D01*
X93129140Y-32058708D02*
X93181521Y-31901565D01*
X93181521Y-31901565D02*
X93286283Y-31796803D01*
X93286283Y-31796803D02*
X93391045Y-31744422D01*
X93391045Y-31744422D02*
X93600569Y-31692041D01*
X93600569Y-31692041D02*
X93757712Y-31692041D01*
X93757712Y-31692041D02*
X93967236Y-31744422D01*
X93967236Y-31744422D02*
X94071998Y-31796803D01*
X94071998Y-31796803D02*
X94176760Y-31901565D01*
X94176760Y-31901565D02*
X94229140Y-32058708D01*
X94229140Y-32058708D02*
X94229140Y-32163470D01*
X94229140Y-32163470D02*
X94176760Y-32320613D01*
X94176760Y-32320613D02*
X94124379Y-32372994D01*
X94124379Y-32372994D02*
X93757712Y-32372994D01*
X93757712Y-32372994D02*
X93757712Y-32163470D01*
X94124379Y-34311089D02*
X94176760Y-34258708D01*
X94176760Y-34258708D02*
X94229140Y-34101565D01*
X94229140Y-34101565D02*
X94229140Y-33996803D01*
X94229140Y-33996803D02*
X94176760Y-33839660D01*
X94176760Y-33839660D02*
X94071998Y-33734898D01*
X94071998Y-33734898D02*
X93967236Y-33682517D01*
X93967236Y-33682517D02*
X93757712Y-33630136D01*
X93757712Y-33630136D02*
X93600569Y-33630136D01*
X93600569Y-33630136D02*
X93391045Y-33682517D01*
X93391045Y-33682517D02*
X93286283Y-33734898D01*
X93286283Y-33734898D02*
X93181521Y-33839660D01*
X93181521Y-33839660D02*
X93129140Y-33996803D01*
X93129140Y-33996803D02*
X93129140Y-34101565D01*
X93129140Y-34101565D02*
X93181521Y-34258708D01*
X93181521Y-34258708D02*
X93233902Y-34311089D01*
X94229140Y-34782517D02*
X93129140Y-34782517D01*
X94229140Y-35411089D02*
X93600569Y-34939660D01*
X93129140Y-35411089D02*
X93757712Y-34782517D01*
X94124379Y-37349184D02*
X94176760Y-37296803D01*
X94176760Y-37296803D02*
X94229140Y-37139660D01*
X94229140Y-37139660D02*
X94229140Y-37034898D01*
X94229140Y-37034898D02*
X94176760Y-36877755D01*
X94176760Y-36877755D02*
X94071998Y-36772993D01*
X94071998Y-36772993D02*
X93967236Y-36720612D01*
X93967236Y-36720612D02*
X93757712Y-36668231D01*
X93757712Y-36668231D02*
X93600569Y-36668231D01*
X93600569Y-36668231D02*
X93391045Y-36720612D01*
X93391045Y-36720612D02*
X93286283Y-36772993D01*
X93286283Y-36772993D02*
X93181521Y-36877755D01*
X93181521Y-36877755D02*
X93129140Y-37034898D01*
X93129140Y-37034898D02*
X93129140Y-37139660D01*
X93129140Y-37139660D02*
X93181521Y-37296803D01*
X93181521Y-37296803D02*
X93233902Y-37349184D01*
X94176760Y-37768231D02*
X94229140Y-37925374D01*
X94229140Y-37925374D02*
X94229140Y-38187279D01*
X94229140Y-38187279D02*
X94176760Y-38292041D01*
X94176760Y-38292041D02*
X94124379Y-38344422D01*
X94124379Y-38344422D02*
X94019617Y-38396803D01*
X94019617Y-38396803D02*
X93914855Y-38396803D01*
X93914855Y-38396803D02*
X93810093Y-38344422D01*
X93810093Y-38344422D02*
X93757712Y-38292041D01*
X93757712Y-38292041D02*
X93705331Y-38187279D01*
X93705331Y-38187279D02*
X93652950Y-37977755D01*
X93652950Y-37977755D02*
X93600569Y-37872993D01*
X93600569Y-37872993D02*
X93548188Y-37820612D01*
X93548188Y-37820612D02*
X93443426Y-37768231D01*
X93443426Y-37768231D02*
X93338664Y-37768231D01*
X93338664Y-37768231D02*
X93233902Y-37820612D01*
X93233902Y-37820612D02*
X93181521Y-37872993D01*
X93181521Y-37872993D02*
X93129140Y-37977755D01*
X93129140Y-37977755D02*
X93129140Y-38239660D01*
X93129140Y-38239660D02*
X93181521Y-38396803D01*
X94229140Y-39706326D02*
X93129140Y-39706326D01*
X93129140Y-39706326D02*
X93129140Y-39968231D01*
X93129140Y-39968231D02*
X93181521Y-40125374D01*
X93181521Y-40125374D02*
X93286283Y-40230136D01*
X93286283Y-40230136D02*
X93391045Y-40282517D01*
X93391045Y-40282517D02*
X93600569Y-40334898D01*
X93600569Y-40334898D02*
X93757712Y-40334898D01*
X93757712Y-40334898D02*
X93967236Y-40282517D01*
X93967236Y-40282517D02*
X94071998Y-40230136D01*
X94071998Y-40230136D02*
X94176760Y-40125374D01*
X94176760Y-40125374D02*
X94229140Y-39968231D01*
X94229140Y-39968231D02*
X94229140Y-39706326D01*
D11*
X45207187Y-37299919D02*
X45540520Y-36823728D01*
X45778615Y-37299919D02*
X45778615Y-36299919D01*
X45778615Y-36299919D02*
X45397663Y-36299919D01*
X45397663Y-36299919D02*
X45302425Y-36347538D01*
X45302425Y-36347538D02*
X45254806Y-36395157D01*
X45254806Y-36395157D02*
X45207187Y-36490395D01*
X45207187Y-36490395D02*
X45207187Y-36633252D01*
X45207187Y-36633252D02*
X45254806Y-36728490D01*
X45254806Y-36728490D02*
X45302425Y-36776109D01*
X45302425Y-36776109D02*
X45397663Y-36823728D01*
X45397663Y-36823728D02*
X45778615Y-36823728D01*
X44778615Y-37299919D02*
X44778615Y-36633252D01*
X44778615Y-36299919D02*
X44826234Y-36347538D01*
X44826234Y-36347538D02*
X44778615Y-36395157D01*
X44778615Y-36395157D02*
X44730996Y-36347538D01*
X44730996Y-36347538D02*
X44778615Y-36299919D01*
X44778615Y-36299919D02*
X44778615Y-36395157D01*
X43635758Y-36299919D02*
X42969092Y-36299919D01*
X42969092Y-36299919D02*
X43397663Y-37299919D01*
D13*
X81322017Y-61592295D02*
X81322017Y-60792295D01*
X81322017Y-60792295D02*
X81131541Y-60792295D01*
X81131541Y-60792295D02*
X81017255Y-60830390D01*
X81017255Y-60830390D02*
X80941065Y-60906580D01*
X80941065Y-60906580D02*
X80902970Y-60982771D01*
X80902970Y-60982771D02*
X80864874Y-61135152D01*
X80864874Y-61135152D02*
X80864874Y-61249438D01*
X80864874Y-61249438D02*
X80902970Y-61401819D01*
X80902970Y-61401819D02*
X80941065Y-61478009D01*
X80941065Y-61478009D02*
X81017255Y-61554200D01*
X81017255Y-61554200D02*
X81131541Y-61592295D01*
X81131541Y-61592295D02*
X81322017Y-61592295D01*
X80712494Y-61668485D02*
X80102970Y-61668485D01*
X79455350Y-61592295D02*
X79722017Y-61211342D01*
X79912493Y-61592295D02*
X79912493Y-60792295D01*
X79912493Y-60792295D02*
X79607731Y-60792295D01*
X79607731Y-60792295D02*
X79531541Y-60830390D01*
X79531541Y-60830390D02*
X79493446Y-60868485D01*
X79493446Y-60868485D02*
X79455350Y-60944676D01*
X79455350Y-60944676D02*
X79455350Y-61058961D01*
X79455350Y-61058961D02*
X79493446Y-61135152D01*
X79493446Y-61135152D02*
X79531541Y-61173247D01*
X79531541Y-61173247D02*
X79607731Y-61211342D01*
X79607731Y-61211342D02*
X79912493Y-61211342D01*
X79112493Y-61592295D02*
X79112493Y-60792295D01*
X79112493Y-60792295D02*
X78807731Y-60792295D01*
X78807731Y-60792295D02*
X78731541Y-60830390D01*
X78731541Y-60830390D02*
X78693446Y-60868485D01*
X78693446Y-60868485D02*
X78655350Y-60944676D01*
X78655350Y-60944676D02*
X78655350Y-61058961D01*
X78655350Y-61058961D02*
X78693446Y-61135152D01*
X78693446Y-61135152D02*
X78731541Y-61173247D01*
X78731541Y-61173247D02*
X78807731Y-61211342D01*
X78807731Y-61211342D02*
X79112493Y-61211342D01*
X78312493Y-61592295D02*
X78312493Y-60792295D01*
X78312493Y-60792295D02*
X78045827Y-61363723D01*
X78045827Y-61363723D02*
X77779160Y-60792295D01*
X77779160Y-60792295D02*
X77779160Y-61592295D01*
D11*
X46022813Y-43909919D02*
X46356146Y-43433728D01*
X46594241Y-43909919D02*
X46594241Y-42909919D01*
X46594241Y-42909919D02*
X46213289Y-42909919D01*
X46213289Y-42909919D02*
X46118051Y-42957538D01*
X46118051Y-42957538D02*
X46070432Y-43005157D01*
X46070432Y-43005157D02*
X46022813Y-43100395D01*
X46022813Y-43100395D02*
X46022813Y-43243252D01*
X46022813Y-43243252D02*
X46070432Y-43338490D01*
X46070432Y-43338490D02*
X46118051Y-43386109D01*
X46118051Y-43386109D02*
X46213289Y-43433728D01*
X46213289Y-43433728D02*
X46594241Y-43433728D01*
X45451384Y-43909919D02*
X45546622Y-43862300D01*
X45546622Y-43862300D02*
X45594241Y-43814680D01*
X45594241Y-43814680D02*
X45641860Y-43719442D01*
X45641860Y-43719442D02*
X45641860Y-43433728D01*
X45641860Y-43433728D02*
X45594241Y-43338490D01*
X45594241Y-43338490D02*
X45546622Y-43290871D01*
X45546622Y-43290871D02*
X45451384Y-43243252D01*
X45451384Y-43243252D02*
X45308527Y-43243252D01*
X45308527Y-43243252D02*
X45213289Y-43290871D01*
X45213289Y-43290871D02*
X45165670Y-43338490D01*
X45165670Y-43338490D02*
X45118051Y-43433728D01*
X45118051Y-43433728D02*
X45118051Y-43719442D01*
X45118051Y-43719442D02*
X45165670Y-43814680D01*
X45165670Y-43814680D02*
X45213289Y-43862300D01*
X45213289Y-43862300D02*
X45308527Y-43909919D01*
X45308527Y-43909919D02*
X45451384Y-43909919D01*
X44022812Y-42909919D02*
X43403765Y-42909919D01*
X43403765Y-42909919D02*
X43737098Y-43290871D01*
X43737098Y-43290871D02*
X43594241Y-43290871D01*
X43594241Y-43290871D02*
X43499003Y-43338490D01*
X43499003Y-43338490D02*
X43451384Y-43386109D01*
X43451384Y-43386109D02*
X43403765Y-43481347D01*
X43403765Y-43481347D02*
X43403765Y-43719442D01*
X43403765Y-43719442D02*
X43451384Y-43814680D01*
X43451384Y-43814680D02*
X43499003Y-43862300D01*
X43499003Y-43862300D02*
X43594241Y-43909919D01*
X43594241Y-43909919D02*
X43879955Y-43909919D01*
X43879955Y-43909919D02*
X43975193Y-43862300D01*
X43975193Y-43862300D02*
X44022812Y-43814680D01*
D12*
X94140859Y-66460338D02*
X94140859Y-66984148D01*
X94140859Y-66984148D02*
X93617049Y-67036529D01*
X93617049Y-67036529D02*
X93669430Y-66984148D01*
X93669430Y-66984148D02*
X93721811Y-66879386D01*
X93721811Y-66879386D02*
X93721811Y-66617481D01*
X93721811Y-66617481D02*
X93669430Y-66512719D01*
X93669430Y-66512719D02*
X93617049Y-66460338D01*
X93617049Y-66460338D02*
X93512287Y-66407957D01*
X93512287Y-66407957D02*
X93250382Y-66407957D01*
X93250382Y-66407957D02*
X93145620Y-66460338D01*
X93145620Y-66460338D02*
X93093240Y-66512719D01*
X93093240Y-66512719D02*
X93040859Y-66617481D01*
X93040859Y-66617481D02*
X93040859Y-66879386D01*
X93040859Y-66879386D02*
X93093240Y-66984148D01*
X93093240Y-66984148D02*
X93145620Y-67036529D01*
X94140859Y-66093672D02*
X93040859Y-65727005D01*
X93040859Y-65727005D02*
X94140859Y-65360338D01*
X94088478Y-63579386D02*
X94140859Y-63684148D01*
X94140859Y-63684148D02*
X94140859Y-63841291D01*
X94140859Y-63841291D02*
X94088478Y-63998434D01*
X94088478Y-63998434D02*
X93983716Y-64103196D01*
X93983716Y-64103196D02*
X93878954Y-64155577D01*
X93878954Y-64155577D02*
X93669430Y-64207958D01*
X93669430Y-64207958D02*
X93512287Y-64207958D01*
X93512287Y-64207958D02*
X93302763Y-64155577D01*
X93302763Y-64155577D02*
X93198001Y-64103196D01*
X93198001Y-64103196D02*
X93093240Y-63998434D01*
X93093240Y-63998434D02*
X93040859Y-63841291D01*
X93040859Y-63841291D02*
X93040859Y-63736529D01*
X93040859Y-63736529D02*
X93093240Y-63579386D01*
X93093240Y-63579386D02*
X93145620Y-63527005D01*
X93145620Y-63527005D02*
X93512287Y-63527005D01*
X93512287Y-63527005D02*
X93512287Y-63736529D01*
X93145620Y-61588910D02*
X93093240Y-61641291D01*
X93093240Y-61641291D02*
X93040859Y-61798434D01*
X93040859Y-61798434D02*
X93040859Y-61903196D01*
X93040859Y-61903196D02*
X93093240Y-62060339D01*
X93093240Y-62060339D02*
X93198001Y-62165101D01*
X93198001Y-62165101D02*
X93302763Y-62217482D01*
X93302763Y-62217482D02*
X93512287Y-62269863D01*
X93512287Y-62269863D02*
X93669430Y-62269863D01*
X93669430Y-62269863D02*
X93878954Y-62217482D01*
X93878954Y-62217482D02*
X93983716Y-62165101D01*
X93983716Y-62165101D02*
X94088478Y-62060339D01*
X94088478Y-62060339D02*
X94140859Y-61903196D01*
X94140859Y-61903196D02*
X94140859Y-61798434D01*
X94140859Y-61798434D02*
X94088478Y-61641291D01*
X94088478Y-61641291D02*
X94036097Y-61588910D01*
X93040859Y-61117482D02*
X94140859Y-61117482D01*
X93040859Y-60488910D02*
X93669430Y-60960339D01*
X94140859Y-60488910D02*
X93512287Y-61117482D01*
X93145620Y-58550815D02*
X93093240Y-58603196D01*
X93093240Y-58603196D02*
X93040859Y-58760339D01*
X93040859Y-58760339D02*
X93040859Y-58865101D01*
X93040859Y-58865101D02*
X93093240Y-59022244D01*
X93093240Y-59022244D02*
X93198001Y-59127006D01*
X93198001Y-59127006D02*
X93302763Y-59179387D01*
X93302763Y-59179387D02*
X93512287Y-59231768D01*
X93512287Y-59231768D02*
X93669430Y-59231768D01*
X93669430Y-59231768D02*
X93878954Y-59179387D01*
X93878954Y-59179387D02*
X93983716Y-59127006D01*
X93983716Y-59127006D02*
X94088478Y-59022244D01*
X94088478Y-59022244D02*
X94140859Y-58865101D01*
X94140859Y-58865101D02*
X94140859Y-58760339D01*
X94140859Y-58760339D02*
X94088478Y-58603196D01*
X94088478Y-58603196D02*
X94036097Y-58550815D01*
X93093240Y-58131768D02*
X93040859Y-57974625D01*
X93040859Y-57974625D02*
X93040859Y-57712720D01*
X93040859Y-57712720D02*
X93093240Y-57607958D01*
X93093240Y-57607958D02*
X93145620Y-57555577D01*
X93145620Y-57555577D02*
X93250382Y-57503196D01*
X93250382Y-57503196D02*
X93355144Y-57503196D01*
X93355144Y-57503196D02*
X93459906Y-57555577D01*
X93459906Y-57555577D02*
X93512287Y-57607958D01*
X93512287Y-57607958D02*
X93564668Y-57712720D01*
X93564668Y-57712720D02*
X93617049Y-57922244D01*
X93617049Y-57922244D02*
X93669430Y-58027006D01*
X93669430Y-58027006D02*
X93721811Y-58079387D01*
X93721811Y-58079387D02*
X93826573Y-58131768D01*
X93826573Y-58131768D02*
X93931335Y-58131768D01*
X93931335Y-58131768D02*
X94036097Y-58079387D01*
X94036097Y-58079387D02*
X94088478Y-58027006D01*
X94088478Y-58027006D02*
X94140859Y-57922244D01*
X94140859Y-57922244D02*
X94140859Y-57660339D01*
X94140859Y-57660339D02*
X94088478Y-57503196D01*
X93040859Y-56193673D02*
X94140859Y-56193673D01*
X94140859Y-56193673D02*
X94140859Y-55931768D01*
X94140859Y-55931768D02*
X94088478Y-55774625D01*
X94088478Y-55774625D02*
X93983716Y-55669863D01*
X93983716Y-55669863D02*
X93878954Y-55617482D01*
X93878954Y-55617482D02*
X93669430Y-55565101D01*
X93669430Y-55565101D02*
X93512287Y-55565101D01*
X93512287Y-55565101D02*
X93302763Y-55617482D01*
X93302763Y-55617482D02*
X93198001Y-55669863D01*
X93198001Y-55669863D02*
X93093240Y-55774625D01*
X93093240Y-55774625D02*
X93040859Y-55931768D01*
X93040859Y-55931768D02*
X93040859Y-56193673D01*
D13*
X79220470Y-36340390D02*
X79296660Y-36302295D01*
X79296660Y-36302295D02*
X79410946Y-36302295D01*
X79410946Y-36302295D02*
X79525232Y-36340390D01*
X79525232Y-36340390D02*
X79601422Y-36416580D01*
X79601422Y-36416580D02*
X79639517Y-36492771D01*
X79639517Y-36492771D02*
X79677613Y-36645152D01*
X79677613Y-36645152D02*
X79677613Y-36759438D01*
X79677613Y-36759438D02*
X79639517Y-36911819D01*
X79639517Y-36911819D02*
X79601422Y-36988009D01*
X79601422Y-36988009D02*
X79525232Y-37064200D01*
X79525232Y-37064200D02*
X79410946Y-37102295D01*
X79410946Y-37102295D02*
X79334755Y-37102295D01*
X79334755Y-37102295D02*
X79220470Y-37064200D01*
X79220470Y-37064200D02*
X79182374Y-37026104D01*
X79182374Y-37026104D02*
X79182374Y-36759438D01*
X79182374Y-36759438D02*
X79334755Y-36759438D01*
X78877613Y-36378485D02*
X78839517Y-36340390D01*
X78839517Y-36340390D02*
X78763327Y-36302295D01*
X78763327Y-36302295D02*
X78572851Y-36302295D01*
X78572851Y-36302295D02*
X78496660Y-36340390D01*
X78496660Y-36340390D02*
X78458565Y-36378485D01*
X78458565Y-36378485D02*
X78420470Y-36454676D01*
X78420470Y-36454676D02*
X78420470Y-36530866D01*
X78420470Y-36530866D02*
X78458565Y-36645152D01*
X78458565Y-36645152D02*
X78915708Y-37102295D01*
X78915708Y-37102295D02*
X78420470Y-37102295D01*
X77658565Y-37102295D02*
X78115708Y-37102295D01*
X77887136Y-37102295D02*
X77887136Y-36302295D01*
X77887136Y-36302295D02*
X77963327Y-36416580D01*
X77963327Y-36416580D02*
X78039517Y-36492771D01*
X78039517Y-36492771D02*
X78115708Y-36530866D01*
X79310470Y-26680390D02*
X79386660Y-26642295D01*
X79386660Y-26642295D02*
X79500946Y-26642295D01*
X79500946Y-26642295D02*
X79615232Y-26680390D01*
X79615232Y-26680390D02*
X79691422Y-26756580D01*
X79691422Y-26756580D02*
X79729517Y-26832771D01*
X79729517Y-26832771D02*
X79767613Y-26985152D01*
X79767613Y-26985152D02*
X79767613Y-27099438D01*
X79767613Y-27099438D02*
X79729517Y-27251819D01*
X79729517Y-27251819D02*
X79691422Y-27328009D01*
X79691422Y-27328009D02*
X79615232Y-27404200D01*
X79615232Y-27404200D02*
X79500946Y-27442295D01*
X79500946Y-27442295D02*
X79424755Y-27442295D01*
X79424755Y-27442295D02*
X79310470Y-27404200D01*
X79310470Y-27404200D02*
X79272374Y-27366104D01*
X79272374Y-27366104D02*
X79272374Y-27099438D01*
X79272374Y-27099438D02*
X79424755Y-27099438D01*
X78967613Y-26718485D02*
X78929517Y-26680390D01*
X78929517Y-26680390D02*
X78853327Y-26642295D01*
X78853327Y-26642295D02*
X78662851Y-26642295D01*
X78662851Y-26642295D02*
X78586660Y-26680390D01*
X78586660Y-26680390D02*
X78548565Y-26718485D01*
X78548565Y-26718485D02*
X78510470Y-26794676D01*
X78510470Y-26794676D02*
X78510470Y-26870866D01*
X78510470Y-26870866D02*
X78548565Y-26985152D01*
X78548565Y-26985152D02*
X79005708Y-27442295D01*
X79005708Y-27442295D02*
X78510470Y-27442295D01*
X78015231Y-26642295D02*
X77939041Y-26642295D01*
X77939041Y-26642295D02*
X77862850Y-26680390D01*
X77862850Y-26680390D02*
X77824755Y-26718485D01*
X77824755Y-26718485D02*
X77786660Y-26794676D01*
X77786660Y-26794676D02*
X77748565Y-26947057D01*
X77748565Y-26947057D02*
X77748565Y-27137533D01*
X77748565Y-27137533D02*
X77786660Y-27289914D01*
X77786660Y-27289914D02*
X77824755Y-27366104D01*
X77824755Y-27366104D02*
X77862850Y-27404200D01*
X77862850Y-27404200D02*
X77939041Y-27442295D01*
X77939041Y-27442295D02*
X78015231Y-27442295D01*
X78015231Y-27442295D02*
X78091422Y-27404200D01*
X78091422Y-27404200D02*
X78129517Y-27366104D01*
X78129517Y-27366104D02*
X78167612Y-27289914D01*
X78167612Y-27289914D02*
X78205708Y-27137533D01*
X78205708Y-27137533D02*
X78205708Y-26947057D01*
X78205708Y-26947057D02*
X78167612Y-26794676D01*
X78167612Y-26794676D02*
X78129517Y-26718485D01*
X78129517Y-26718485D02*
X78091422Y-26680390D01*
X78091422Y-26680390D02*
X78015231Y-26642295D01*
X80638089Y-46090390D02*
X80714279Y-46052295D01*
X80714279Y-46052295D02*
X80828565Y-46052295D01*
X80828565Y-46052295D02*
X80942851Y-46090390D01*
X80942851Y-46090390D02*
X81019041Y-46166580D01*
X81019041Y-46166580D02*
X81057136Y-46242771D01*
X81057136Y-46242771D02*
X81095232Y-46395152D01*
X81095232Y-46395152D02*
X81095232Y-46509438D01*
X81095232Y-46509438D02*
X81057136Y-46661819D01*
X81057136Y-46661819D02*
X81019041Y-46738009D01*
X81019041Y-46738009D02*
X80942851Y-46814200D01*
X80942851Y-46814200D02*
X80828565Y-46852295D01*
X80828565Y-46852295D02*
X80752374Y-46852295D01*
X80752374Y-46852295D02*
X80638089Y-46814200D01*
X80638089Y-46814200D02*
X80599993Y-46776104D01*
X80599993Y-46776104D02*
X80599993Y-46509438D01*
X80599993Y-46509438D02*
X80752374Y-46509438D01*
X80295232Y-46128485D02*
X80257136Y-46090390D01*
X80257136Y-46090390D02*
X80180946Y-46052295D01*
X80180946Y-46052295D02*
X79990470Y-46052295D01*
X79990470Y-46052295D02*
X79914279Y-46090390D01*
X79914279Y-46090390D02*
X79876184Y-46128485D01*
X79876184Y-46128485D02*
X79838089Y-46204676D01*
X79838089Y-46204676D02*
X79838089Y-46280866D01*
X79838089Y-46280866D02*
X79876184Y-46395152D01*
X79876184Y-46395152D02*
X80333327Y-46852295D01*
X80333327Y-46852295D02*
X79838089Y-46852295D01*
X79571422Y-46052295D02*
X79038088Y-46052295D01*
X79038088Y-46052295D02*
X79380946Y-46852295D01*
X78771422Y-46623723D02*
X78390469Y-46623723D01*
X78847612Y-46852295D02*
X78580945Y-46052295D01*
X78580945Y-46052295D02*
X78314279Y-46852295D01*
X77628565Y-46852295D02*
X78085708Y-46852295D01*
X77857136Y-46852295D02*
X77857136Y-46052295D01*
X77857136Y-46052295D02*
X77933327Y-46166580D01*
X77933327Y-46166580D02*
X78009517Y-46242771D01*
X78009517Y-46242771D02*
X78085708Y-46280866D01*
D11*
X45815075Y-30734919D02*
X46291265Y-30734919D01*
X46291265Y-30734919D02*
X46291265Y-29734919D01*
X45338884Y-30734919D02*
X45434122Y-30687300D01*
X45434122Y-30687300D02*
X45481741Y-30639680D01*
X45481741Y-30639680D02*
X45529360Y-30544442D01*
X45529360Y-30544442D02*
X45529360Y-30258728D01*
X45529360Y-30258728D02*
X45481741Y-30163490D01*
X45481741Y-30163490D02*
X45434122Y-30115871D01*
X45434122Y-30115871D02*
X45338884Y-30068252D01*
X45338884Y-30068252D02*
X45196027Y-30068252D01*
X45196027Y-30068252D02*
X45100789Y-30115871D01*
X45100789Y-30115871D02*
X45053170Y-30163490D01*
X45053170Y-30163490D02*
X45005551Y-30258728D01*
X45005551Y-30258728D02*
X45005551Y-30544442D01*
X45005551Y-30544442D02*
X45053170Y-30639680D01*
X45053170Y-30639680D02*
X45100789Y-30687300D01*
X45100789Y-30687300D02*
X45196027Y-30734919D01*
X45196027Y-30734919D02*
X45338884Y-30734919D01*
X43386503Y-30068252D02*
X43386503Y-30734919D01*
X43624598Y-29687300D02*
X43862693Y-30401585D01*
X43862693Y-30401585D02*
X43243646Y-30401585D01*
X45362425Y-24344919D02*
X45838615Y-24344919D01*
X45838615Y-24344919D02*
X45838615Y-23344919D01*
X45029091Y-24344919D02*
X45029091Y-23678252D01*
X45029091Y-23344919D02*
X45076710Y-23392538D01*
X45076710Y-23392538D02*
X45029091Y-23440157D01*
X45029091Y-23440157D02*
X44981472Y-23392538D01*
X44981472Y-23392538D02*
X45029091Y-23344919D01*
X45029091Y-23344919D02*
X45029091Y-23440157D01*
X43648139Y-23773490D02*
X43743377Y-23725871D01*
X43743377Y-23725871D02*
X43790996Y-23678252D01*
X43790996Y-23678252D02*
X43838615Y-23583014D01*
X43838615Y-23583014D02*
X43838615Y-23535395D01*
X43838615Y-23535395D02*
X43790996Y-23440157D01*
X43790996Y-23440157D02*
X43743377Y-23392538D01*
X43743377Y-23392538D02*
X43648139Y-23344919D01*
X43648139Y-23344919D02*
X43457663Y-23344919D01*
X43457663Y-23344919D02*
X43362425Y-23392538D01*
X43362425Y-23392538D02*
X43314806Y-23440157D01*
X43314806Y-23440157D02*
X43267187Y-23535395D01*
X43267187Y-23535395D02*
X43267187Y-23583014D01*
X43267187Y-23583014D02*
X43314806Y-23678252D01*
X43314806Y-23678252D02*
X43362425Y-23725871D01*
X43362425Y-23725871D02*
X43457663Y-23773490D01*
X43457663Y-23773490D02*
X43648139Y-23773490D01*
X43648139Y-23773490D02*
X43743377Y-23821109D01*
X43743377Y-23821109D02*
X43790996Y-23868728D01*
X43790996Y-23868728D02*
X43838615Y-23963966D01*
X43838615Y-23963966D02*
X43838615Y-24154442D01*
X43838615Y-24154442D02*
X43790996Y-24249680D01*
X43790996Y-24249680D02*
X43743377Y-24297300D01*
X43743377Y-24297300D02*
X43648139Y-24344919D01*
X43648139Y-24344919D02*
X43457663Y-24344919D01*
X43457663Y-24344919D02*
X43362425Y-24297300D01*
X43362425Y-24297300D02*
X43314806Y-24249680D01*
X43314806Y-24249680D02*
X43267187Y-24154442D01*
X43267187Y-24154442D02*
X43267187Y-23963966D01*
X43267187Y-23963966D02*
X43314806Y-23868728D01*
X43314806Y-23868728D02*
X43362425Y-23821109D01*
X43362425Y-23821109D02*
X43457663Y-23773490D01*
D13*
X82557256Y-32242295D02*
X82557256Y-31442295D01*
X82557256Y-31442295D02*
X82366780Y-31442295D01*
X82366780Y-31442295D02*
X82252494Y-31480390D01*
X82252494Y-31480390D02*
X82176304Y-31556580D01*
X82176304Y-31556580D02*
X82138209Y-31632771D01*
X82138209Y-31632771D02*
X82100113Y-31785152D01*
X82100113Y-31785152D02*
X82100113Y-31899438D01*
X82100113Y-31899438D02*
X82138209Y-32051819D01*
X82138209Y-32051819D02*
X82176304Y-32128009D01*
X82176304Y-32128009D02*
X82252494Y-32204200D01*
X82252494Y-32204200D02*
X82366780Y-32242295D01*
X82366780Y-32242295D02*
X82557256Y-32242295D01*
X81947733Y-32318485D02*
X81338209Y-32318485D01*
X81185828Y-32204200D02*
X81071542Y-32242295D01*
X81071542Y-32242295D02*
X80881066Y-32242295D01*
X80881066Y-32242295D02*
X80804875Y-32204200D01*
X80804875Y-32204200D02*
X80766780Y-32166104D01*
X80766780Y-32166104D02*
X80728685Y-32089914D01*
X80728685Y-32089914D02*
X80728685Y-32013723D01*
X80728685Y-32013723D02*
X80766780Y-31937533D01*
X80766780Y-31937533D02*
X80804875Y-31899438D01*
X80804875Y-31899438D02*
X80881066Y-31861342D01*
X80881066Y-31861342D02*
X81033447Y-31823247D01*
X81033447Y-31823247D02*
X81109637Y-31785152D01*
X81109637Y-31785152D02*
X81147732Y-31747057D01*
X81147732Y-31747057D02*
X81185828Y-31670866D01*
X81185828Y-31670866D02*
X81185828Y-31594676D01*
X81185828Y-31594676D02*
X81147732Y-31518485D01*
X81147732Y-31518485D02*
X81109637Y-31480390D01*
X81109637Y-31480390D02*
X81033447Y-31442295D01*
X81033447Y-31442295D02*
X80842970Y-31442295D01*
X80842970Y-31442295D02*
X80728685Y-31480390D01*
X80385827Y-32242295D02*
X80385827Y-31442295D01*
X80385827Y-31442295D02*
X80081065Y-31442295D01*
X80081065Y-31442295D02*
X80004875Y-31480390D01*
X80004875Y-31480390D02*
X79966780Y-31518485D01*
X79966780Y-31518485D02*
X79928684Y-31594676D01*
X79928684Y-31594676D02*
X79928684Y-31708961D01*
X79928684Y-31708961D02*
X79966780Y-31785152D01*
X79966780Y-31785152D02*
X80004875Y-31823247D01*
X80004875Y-31823247D02*
X80081065Y-31861342D01*
X80081065Y-31861342D02*
X80385827Y-31861342D01*
X79585827Y-31823247D02*
X79319161Y-31823247D01*
X79204875Y-32242295D02*
X79585827Y-32242295D01*
X79585827Y-32242295D02*
X79585827Y-31442295D01*
X79585827Y-31442295D02*
X79204875Y-31442295D01*
X78862017Y-31823247D02*
X78595351Y-31823247D01*
X78481065Y-32242295D02*
X78862017Y-32242295D01*
X78862017Y-32242295D02*
X78862017Y-31442295D01*
X78862017Y-31442295D02*
X78481065Y-31442295D01*
X78138207Y-32242295D02*
X78138207Y-31442295D01*
X78138207Y-31442295D02*
X77947731Y-31442295D01*
X77947731Y-31442295D02*
X77833445Y-31480390D01*
X77833445Y-31480390D02*
X77757255Y-31556580D01*
X77757255Y-31556580D02*
X77719160Y-31632771D01*
X77719160Y-31632771D02*
X77681064Y-31785152D01*
X77681064Y-31785152D02*
X77681064Y-31899438D01*
X77681064Y-31899438D02*
X77719160Y-32051819D01*
X77719160Y-32051819D02*
X77757255Y-32128009D01*
X77757255Y-32128009D02*
X77833445Y-32204200D01*
X77833445Y-32204200D02*
X77947731Y-32242295D01*
X77947731Y-32242295D02*
X78138207Y-32242295D01*
X81646778Y-56722295D02*
X81646778Y-55922295D01*
X81646778Y-55922295D02*
X81456302Y-55922295D01*
X81456302Y-55922295D02*
X81342016Y-55960390D01*
X81342016Y-55960390D02*
X81265826Y-56036580D01*
X81265826Y-56036580D02*
X81227731Y-56112771D01*
X81227731Y-56112771D02*
X81189635Y-56265152D01*
X81189635Y-56265152D02*
X81189635Y-56379438D01*
X81189635Y-56379438D02*
X81227731Y-56531819D01*
X81227731Y-56531819D02*
X81265826Y-56608009D01*
X81265826Y-56608009D02*
X81342016Y-56684200D01*
X81342016Y-56684200D02*
X81456302Y-56722295D01*
X81456302Y-56722295D02*
X81646778Y-56722295D01*
X81037255Y-56798485D02*
X80427731Y-56798485D01*
X80237254Y-56722295D02*
X80237254Y-55922295D01*
X80237254Y-56303247D02*
X79780111Y-56303247D01*
X79780111Y-56722295D02*
X79780111Y-55922295D01*
X79437255Y-56493723D02*
X79056302Y-56493723D01*
X79513445Y-56722295D02*
X79246778Y-55922295D01*
X79246778Y-55922295D02*
X78980112Y-56722295D01*
X78332493Y-56722295D02*
X78713445Y-56722295D01*
X78713445Y-56722295D02*
X78713445Y-55922295D01*
X77684874Y-56722295D02*
X78065826Y-56722295D01*
X78065826Y-56722295D02*
X78065826Y-55922295D01*
X79160470Y-41200390D02*
X79236660Y-41162295D01*
X79236660Y-41162295D02*
X79350946Y-41162295D01*
X79350946Y-41162295D02*
X79465232Y-41200390D01*
X79465232Y-41200390D02*
X79541422Y-41276580D01*
X79541422Y-41276580D02*
X79579517Y-41352771D01*
X79579517Y-41352771D02*
X79617613Y-41505152D01*
X79617613Y-41505152D02*
X79617613Y-41619438D01*
X79617613Y-41619438D02*
X79579517Y-41771819D01*
X79579517Y-41771819D02*
X79541422Y-41848009D01*
X79541422Y-41848009D02*
X79465232Y-41924200D01*
X79465232Y-41924200D02*
X79350946Y-41962295D01*
X79350946Y-41962295D02*
X79274755Y-41962295D01*
X79274755Y-41962295D02*
X79160470Y-41924200D01*
X79160470Y-41924200D02*
X79122374Y-41886104D01*
X79122374Y-41886104D02*
X79122374Y-41619438D01*
X79122374Y-41619438D02*
X79274755Y-41619438D01*
X78817613Y-41238485D02*
X78779517Y-41200390D01*
X78779517Y-41200390D02*
X78703327Y-41162295D01*
X78703327Y-41162295D02*
X78512851Y-41162295D01*
X78512851Y-41162295D02*
X78436660Y-41200390D01*
X78436660Y-41200390D02*
X78398565Y-41238485D01*
X78398565Y-41238485D02*
X78360470Y-41314676D01*
X78360470Y-41314676D02*
X78360470Y-41390866D01*
X78360470Y-41390866D02*
X78398565Y-41505152D01*
X78398565Y-41505152D02*
X78855708Y-41962295D01*
X78855708Y-41962295D02*
X78360470Y-41962295D01*
X78055708Y-41238485D02*
X78017612Y-41200390D01*
X78017612Y-41200390D02*
X77941422Y-41162295D01*
X77941422Y-41162295D02*
X77750946Y-41162295D01*
X77750946Y-41162295D02*
X77674755Y-41200390D01*
X77674755Y-41200390D02*
X77636660Y-41238485D01*
X77636660Y-41238485D02*
X77598565Y-41314676D01*
X77598565Y-41314676D02*
X77598565Y-41390866D01*
X77598565Y-41390866D02*
X77636660Y-41505152D01*
X77636660Y-41505152D02*
X78093803Y-41962295D01*
X78093803Y-41962295D02*
X77598565Y-41962295D01*
D10*
G36*
X99901277Y-24948035D02*
G01*
X99938281Y-24985039D01*
X99991460Y-25091398D01*
X100054416Y-25343220D01*
X100054416Y-25663436D01*
X99991460Y-25915257D01*
X99938280Y-26021617D01*
X99901277Y-26058621D01*
X99811864Y-26103328D01*
X99739826Y-26103328D01*
X99650413Y-26058622D01*
X99613409Y-26021618D01*
X99560229Y-25915258D01*
X99497273Y-25663434D01*
X99497273Y-25343221D01*
X99560229Y-25091397D01*
X99613409Y-24985038D01*
X99650413Y-24948034D01*
X99739826Y-24903328D01*
X99811863Y-24903328D01*
X99901277Y-24948035D01*
G37*
G36*
X110411560Y-26103328D02*
G01*
X110228760Y-26103328D01*
X110071157Y-26050794D01*
X109970552Y-25950188D01*
X109917371Y-25843828D01*
X109854417Y-25592007D01*
X109854417Y-25414648D01*
X109917371Y-25162827D01*
X109970552Y-25056467D01*
X110071158Y-24955861D01*
X110228760Y-24903328D01*
X110411560Y-24903328D01*
X110411560Y-26103328D01*
G37*
G36*
X107472706Y-22533119D02*
G01*
X107568972Y-22629385D01*
X107625845Y-22856875D01*
X107625845Y-23319948D01*
X107568972Y-23547438D01*
X107472706Y-23643705D01*
X107383293Y-23688412D01*
X107168398Y-23688412D01*
X107078985Y-23643705D01*
X106982718Y-23547438D01*
X106925845Y-23319946D01*
X106925845Y-22856877D01*
X106982718Y-22629385D01*
X107078985Y-22533118D01*
X107168398Y-22488412D01*
X107383292Y-22488412D01*
X107472706Y-22533119D01*
G37*
G36*
X111982989Y-23688412D02*
G01*
X111800189Y-23688412D01*
X111642586Y-23635878D01*
X111541981Y-23535272D01*
X111488800Y-23428912D01*
X111425846Y-23177091D01*
X111425846Y-22999732D01*
X111488800Y-22747911D01*
X111541981Y-22641551D01*
X111642587Y-22540945D01*
X111800189Y-22488412D01*
X111982989Y-22488412D01*
X111982989Y-23688412D01*
G37*
G36*
X112449656Y-26569995D02*
G01*
X96887749Y-26569995D01*
X96887749Y-25610471D01*
X97054416Y-25610471D01*
X97054416Y-25967614D01*
X97057298Y-25996878D01*
X97059361Y-26001858D01*
X97059743Y-26007233D01*
X97070252Y-26034696D01*
X97141681Y-26177553D01*
X97149608Y-26190146D01*
X97151124Y-26193806D01*
X97154505Y-26197925D01*
X97157346Y-26202439D01*
X97160339Y-26205035D01*
X97169779Y-26216537D01*
X97241208Y-26287966D01*
X97252712Y-26297407D01*
X97255307Y-26300399D01*
X97259816Y-26303237D01*
X97263939Y-26306621D01*
X97267600Y-26308137D01*
X97280192Y-26316064D01*
X97423050Y-26387492D01*
X97450513Y-26398002D01*
X97455888Y-26398383D01*
X97460867Y-26400446D01*
X97490131Y-26403328D01*
X97918702Y-26403328D01*
X97947966Y-26400446D01*
X97952944Y-26398383D01*
X97958320Y-26398002D01*
X97985784Y-26387492D01*
X98128641Y-26316064D01*
X98141234Y-26308136D01*
X98144894Y-26306621D01*
X98149013Y-26303239D01*
X98153527Y-26300399D01*
X98156123Y-26297405D01*
X98167625Y-26287966D01*
X98239054Y-26216537D01*
X98257709Y-26193806D01*
X98274761Y-26152638D01*
X98485870Y-26152638D01*
X98485870Y-26211164D01*
X98488096Y-26216537D01*
X98508267Y-26265235D01*
X98508268Y-26265236D01*
X98526923Y-26287967D01*
X98598352Y-26359395D01*
X98621081Y-26378048D01*
X98621082Y-26378049D01*
X98643880Y-26387492D01*
X98675153Y-26400446D01*
X98675154Y-26400446D01*
X98675155Y-26400446D01*
X98733680Y-26400446D01*
X98733681Y-26400446D01*
X98764954Y-26387492D01*
X98787752Y-26378049D01*
X98810483Y-26359394D01*
X98881911Y-26287966D01*
X98900566Y-26265236D01*
X98922962Y-26211163D01*
X98922962Y-26183715D01*
X98922963Y-26152638D01*
X98900566Y-26098565D01*
X98881912Y-26075835D01*
X98810484Y-26004406D01*
X98787753Y-25985751D01*
X98787752Y-25985750D01*
X98756078Y-25972630D01*
X98733681Y-25963353D01*
X98675153Y-25963353D01*
X98652756Y-25972630D01*
X98621082Y-25985750D01*
X98598351Y-26004405D01*
X98526922Y-26075834D01*
X98508267Y-26098565D01*
X98488097Y-26147262D01*
X98485870Y-26152638D01*
X98274761Y-26152638D01*
X98280106Y-26139734D01*
X98280106Y-26081208D01*
X98257709Y-26027136D01*
X98216323Y-25985750D01*
X98162251Y-25963353D01*
X98103725Y-25963353D01*
X98049653Y-25985750D01*
X98026922Y-26004405D01*
X97972704Y-26058622D01*
X97883292Y-26103328D01*
X97525541Y-26103328D01*
X97436127Y-26058621D01*
X97399123Y-26021617D01*
X97354416Y-25932203D01*
X97354416Y-25645881D01*
X97399123Y-25556467D01*
X97436127Y-25519463D01*
X97525541Y-25474757D01*
X97704416Y-25474757D01*
X97719893Y-25473232D01*
X97723828Y-25473495D01*
X97726538Y-25472578D01*
X97733680Y-25471875D01*
X97756194Y-25462548D01*
X97779270Y-25454745D01*
X97783077Y-25451413D01*
X97787752Y-25449477D01*
X97804981Y-25432247D01*
X97823317Y-25416204D01*
X97825559Y-25411669D01*
X97829136Y-25408093D01*
X97838462Y-25385576D01*
X97849261Y-25363741D01*
X97849597Y-25358696D01*
X97851534Y-25354021D01*
X97851534Y-25329645D01*
X97851860Y-25324757D01*
X99197273Y-25324757D01*
X99197273Y-25681900D01*
X99197775Y-25687003D01*
X99197450Y-25689191D01*
X99199069Y-25700142D01*
X99200155Y-25711164D01*
X99201001Y-25713208D01*
X99201752Y-25718281D01*
X99273181Y-26003994D01*
X99273952Y-26006152D01*
X99274029Y-26007233D01*
X99278687Y-26019407D01*
X99283074Y-26031685D01*
X99283718Y-26032555D01*
X99284538Y-26034696D01*
X99355967Y-26177553D01*
X99363895Y-26190148D01*
X99365410Y-26193805D01*
X99368789Y-26197922D01*
X99371632Y-26202439D01*
X99374626Y-26205036D01*
X99384064Y-26216536D01*
X99455492Y-26287965D01*
X99466997Y-26297407D01*
X99469592Y-26300399D01*
X99474102Y-26303238D01*
X99478223Y-26306620D01*
X99481882Y-26308135D01*
X99494477Y-26316064D01*
X99637335Y-26387492D01*
X99664798Y-26398002D01*
X99670173Y-26398383D01*
X99675152Y-26400446D01*
X99704416Y-26403328D01*
X99847273Y-26403328D01*
X99876537Y-26400446D01*
X99881515Y-26398383D01*
X99886891Y-26398002D01*
X99914354Y-26387492D01*
X100057213Y-26316064D01*
X100069807Y-26308135D01*
X100073467Y-26306620D01*
X100077587Y-26303238D01*
X100082098Y-26300399D01*
X100084692Y-26297407D01*
X100096198Y-26287965D01*
X100167626Y-26216536D01*
X100177064Y-26205035D01*
X100180058Y-26202439D01*
X100182898Y-26197926D01*
X100186280Y-26193806D01*
X100187795Y-26190146D01*
X100195723Y-26177553D01*
X100267152Y-26034697D01*
X100267971Y-26032554D01*
X100268616Y-26031685D01*
X100273000Y-26019413D01*
X100277661Y-26007233D01*
X100277737Y-26006152D01*
X100278509Y-26003994D01*
X100349937Y-25718280D01*
X100350686Y-25713208D01*
X100351534Y-25711164D01*
X100352619Y-25700141D01*
X100354239Y-25689191D01*
X100353913Y-25687003D01*
X100354416Y-25681900D01*
X100354416Y-25324757D01*
X100353913Y-25319653D01*
X100354239Y-25317466D01*
X100352619Y-25306515D01*
X100351534Y-25295493D01*
X100350686Y-25293448D01*
X100349937Y-25288377D01*
X100346655Y-25275250D01*
X100556026Y-25275250D01*
X100563155Y-25303778D01*
X100920298Y-26303778D01*
X100932854Y-26330368D01*
X100937907Y-26335950D01*
X100941130Y-26342753D01*
X100957402Y-26357484D01*
X100972134Y-26373757D01*
X100978936Y-26376979D01*
X100984519Y-26382033D01*
X101005193Y-26389416D01*
X101025026Y-26398811D01*
X101032544Y-26399184D01*
X101039637Y-26401718D01*
X101061559Y-26400627D01*
X101083481Y-26401718D01*
X101090573Y-26399184D01*
X101098092Y-26398811D01*
X101117924Y-26389416D01*
X101138599Y-26382033D01*
X101144181Y-26376979D01*
X101150984Y-26373757D01*
X101165715Y-26357484D01*
X101181988Y-26342753D01*
X101185210Y-26335950D01*
X101190264Y-26330368D01*
X101202820Y-26303778D01*
X101559963Y-25303779D01*
X101567092Y-25275250D01*
X101564185Y-25216795D01*
X101539131Y-25163903D01*
X101495742Y-25124623D01*
X101440624Y-25104938D01*
X101382169Y-25107845D01*
X101329277Y-25132899D01*
X101289997Y-25176288D01*
X101277441Y-25202878D01*
X101061559Y-25807347D01*
X100845677Y-25202878D01*
X100833121Y-25176288D01*
X100793841Y-25132899D01*
X100740949Y-25107845D01*
X100682494Y-25104938D01*
X100627376Y-25124623D01*
X100583987Y-25163903D01*
X100558933Y-25216795D01*
X100556026Y-25275250D01*
X100346655Y-25275250D01*
X100278509Y-25002662D01*
X100277737Y-25000503D01*
X100277661Y-24999423D01*
X100273000Y-24987242D01*
X100268616Y-24974971D01*
X100267971Y-24974101D01*
X100267152Y-24971959D01*
X100195723Y-24829103D01*
X100187796Y-24816511D01*
X100186280Y-24812849D01*
X100182896Y-24808726D01*
X100180058Y-24804217D01*
X100177065Y-24801621D01*
X100167625Y-24790119D01*
X100130834Y-24753328D01*
X102982988Y-24753328D01*
X102982988Y-25967614D01*
X102985870Y-25996878D01*
X102987932Y-26001856D01*
X102988314Y-26007232D01*
X102998824Y-26034696D01*
X103070252Y-26177553D01*
X103078179Y-26190146D01*
X103079695Y-26193806D01*
X103083076Y-26197925D01*
X103085917Y-26202439D01*
X103088910Y-26205035D01*
X103098350Y-26216537D01*
X103169779Y-26287966D01*
X103181283Y-26297407D01*
X103183878Y-26300399D01*
X103188387Y-26303237D01*
X103192510Y-26306621D01*
X103196171Y-26308137D01*
X103208763Y-26316064D01*
X103351621Y-26387492D01*
X103379084Y-26398002D01*
X103384459Y-26398383D01*
X103389438Y-26400446D01*
X103418702Y-26403328D01*
X103704416Y-26403328D01*
X103733680Y-26400446D01*
X103738658Y-26398383D01*
X103744034Y-26398002D01*
X103771497Y-26387492D01*
X103914356Y-26316064D01*
X103926950Y-26308135D01*
X103930610Y-26306620D01*
X103934730Y-26303238D01*
X103939241Y-26300399D01*
X103941835Y-26297407D01*
X103953341Y-26287965D01*
X104024769Y-26216536D01*
X104034207Y-26205035D01*
X104037201Y-26202439D01*
X104040041Y-26197926D01*
X104043423Y-26193806D01*
X104044938Y-26190146D01*
X104052866Y-26177553D01*
X104124295Y-26034697D01*
X104134804Y-26007233D01*
X104135185Y-26001858D01*
X104137249Y-25996878D01*
X104140131Y-25967614D01*
X104140131Y-24866922D01*
X104485870Y-24866922D01*
X104485870Y-24925448D01*
X104508267Y-24979520D01*
X104549653Y-25020906D01*
X104603725Y-25043303D01*
X104662251Y-25043303D01*
X104716323Y-25020906D01*
X104739054Y-25002251D01*
X104785443Y-24955861D01*
X104943045Y-24903328D01*
X105037219Y-24903328D01*
X105194817Y-24955861D01*
X105295424Y-25056468D01*
X105348603Y-25162827D01*
X105411559Y-25414648D01*
X105411559Y-25592007D01*
X105348603Y-25843828D01*
X105295424Y-25950188D01*
X105194818Y-26050794D01*
X105037216Y-26103328D01*
X104943045Y-26103328D01*
X104785442Y-26050794D01*
X104739055Y-26004406D01*
X104716324Y-25985751D01*
X104662252Y-25963353D01*
X104603726Y-25963353D01*
X104549654Y-25985750D01*
X104508268Y-26027135D01*
X104485870Y-26081207D01*
X104485870Y-26139733D01*
X104508267Y-26193805D01*
X104526921Y-26216536D01*
X104598349Y-26287965D01*
X104621080Y-26306620D01*
X104626056Y-26308681D01*
X104630131Y-26312215D01*
X104656982Y-26324203D01*
X104871268Y-26395631D01*
X104885780Y-26398930D01*
X104889438Y-26400446D01*
X104894740Y-26400968D01*
X104899942Y-26402151D01*
X104903896Y-26401869D01*
X104918702Y-26403328D01*
X105061559Y-26403328D01*
X105076364Y-26401869D01*
X105080319Y-26402151D01*
X105085520Y-26400968D01*
X105090823Y-26400446D01*
X105094480Y-26398930D01*
X105108993Y-26395631D01*
X105323279Y-26324203D01*
X105350130Y-26312215D01*
X105354201Y-26308683D01*
X105359181Y-26306621D01*
X105381911Y-26287966D01*
X105524768Y-26145108D01*
X105534206Y-26133606D01*
X105537201Y-26131010D01*
X105540041Y-26126496D01*
X105543423Y-26122377D01*
X105544938Y-26118717D01*
X105552866Y-26106124D01*
X105624295Y-25963268D01*
X105625114Y-25961125D01*
X105625759Y-25960256D01*
X105630143Y-25947984D01*
X105634804Y-25935804D01*
X105634880Y-25934723D01*
X105635652Y-25932565D01*
X105707080Y-25646851D01*
X105707829Y-25641779D01*
X105708677Y-25639735D01*
X105709762Y-25628712D01*
X105711382Y-25617762D01*
X105711056Y-25615574D01*
X105711559Y-25610471D01*
X105711559Y-25396185D01*
X105711056Y-25391081D01*
X105711382Y-25388894D01*
X105709762Y-25377943D01*
X105708677Y-25366921D01*
X105707829Y-25364876D01*
X105707080Y-25359805D01*
X105635652Y-25074091D01*
X105634880Y-25071932D01*
X105634804Y-25070852D01*
X105630143Y-25058671D01*
X105625759Y-25046400D01*
X105625114Y-25045530D01*
X105624295Y-25043388D01*
X105552866Y-24900532D01*
X105544939Y-24887940D01*
X105543423Y-24884278D01*
X105540039Y-24880155D01*
X105537201Y-24875646D01*
X105534208Y-24873050D01*
X105524768Y-24861548D01*
X105416548Y-24753328D01*
X106054417Y-24753328D01*
X106054417Y-26253328D01*
X106057299Y-26282592D01*
X106079697Y-26336664D01*
X106121081Y-26378048D01*
X106175153Y-26400446D01*
X106233681Y-26400446D01*
X106287753Y-26378048D01*
X106329137Y-26336664D01*
X106351535Y-26282592D01*
X106354417Y-26253328D01*
X106354417Y-25429461D01*
X106568490Y-25888190D01*
X106574836Y-25898903D01*
X106576157Y-25902535D01*
X106578508Y-25905103D01*
X106583477Y-25913490D01*
X106600282Y-25928880D01*
X106615684Y-25945698D01*
X106621727Y-25948518D01*
X106626640Y-25953017D01*
X106648060Y-25960806D01*
X106668722Y-25970448D01*
X106675379Y-25970740D01*
X106681642Y-25973018D01*
X106704421Y-25972017D01*
X106727192Y-25973018D01*
X106733451Y-25970741D01*
X106740113Y-25970449D01*
X106760780Y-25960804D01*
X106782195Y-25953017D01*
X106787108Y-25948517D01*
X106793150Y-25945698D01*
X106808545Y-25928885D01*
X106825358Y-25913490D01*
X106830326Y-25905101D01*
X106832677Y-25902535D01*
X106833996Y-25898905D01*
X106840344Y-25888190D01*
X107054417Y-25429462D01*
X107054417Y-26253328D01*
X107057299Y-26282592D01*
X107079697Y-26336664D01*
X107121081Y-26378048D01*
X107175153Y-26400446D01*
X107233681Y-26400446D01*
X107287753Y-26378048D01*
X107329137Y-26336664D01*
X107351535Y-26282592D01*
X107354417Y-26253328D01*
X107354417Y-25652636D01*
X107771585Y-25652636D01*
X107771585Y-25711164D01*
X107793983Y-25765236D01*
X107835367Y-25806620D01*
X107889439Y-25829018D01*
X107918703Y-25831900D01*
X109061560Y-25831900D01*
X109090824Y-25829018D01*
X109144896Y-25806620D01*
X109186280Y-25765236D01*
X109208678Y-25711164D01*
X109208678Y-25652636D01*
X109186280Y-25598564D01*
X109144896Y-25557180D01*
X109090824Y-25534782D01*
X109061560Y-25531900D01*
X107918703Y-25531900D01*
X107889439Y-25534782D01*
X107835367Y-25557180D01*
X107793983Y-25598564D01*
X107771585Y-25652636D01*
X107354417Y-25652636D01*
X107354417Y-25396185D01*
X109554417Y-25396185D01*
X109554417Y-25610471D01*
X109554919Y-25615574D01*
X109554594Y-25617762D01*
X109556213Y-25628712D01*
X109557299Y-25639735D01*
X109558146Y-25641779D01*
X109558896Y-25646851D01*
X109630324Y-25932565D01*
X109631095Y-25934723D01*
X109631172Y-25935804D01*
X109635830Y-25947978D01*
X109640217Y-25960256D01*
X109640861Y-25961126D01*
X109641681Y-25963267D01*
X109713110Y-26106124D01*
X109721037Y-26118717D01*
X109722553Y-26122377D01*
X109725934Y-26126496D01*
X109728775Y-26131010D01*
X109731768Y-26133606D01*
X109741208Y-26145108D01*
X109884065Y-26287966D01*
X109906795Y-26306621D01*
X109911774Y-26308683D01*
X109915846Y-26312215D01*
X109942697Y-26324203D01*
X110156983Y-26395631D01*
X110171495Y-26398930D01*
X110175153Y-26400446D01*
X110180455Y-26400968D01*
X110185657Y-26402151D01*
X110189611Y-26401869D01*
X110204417Y-26403328D01*
X110561560Y-26403328D01*
X110590824Y-26400446D01*
X110644896Y-26378048D01*
X110686280Y-26336664D01*
X110708678Y-26282592D01*
X110708678Y-26282590D01*
X110711560Y-26253328D01*
X110711560Y-24753328D01*
X111125846Y-24753328D01*
X111125846Y-26253328D01*
X111128728Y-26282592D01*
X111151126Y-26336664D01*
X111192510Y-26378048D01*
X111246582Y-26400446D01*
X111305110Y-26400446D01*
X111359182Y-26378048D01*
X111400566Y-26336664D01*
X111422964Y-26282592D01*
X111425846Y-26253328D01*
X111425846Y-25617614D01*
X111982989Y-25617614D01*
X111982989Y-26253328D01*
X111985871Y-26282592D01*
X112008269Y-26336664D01*
X112049653Y-26378048D01*
X112103725Y-26400446D01*
X112162253Y-26400446D01*
X112216325Y-26378048D01*
X112257709Y-26336664D01*
X112280107Y-26282592D01*
X112282989Y-26253328D01*
X112282989Y-24753328D01*
X112280107Y-24724064D01*
X112257709Y-24669992D01*
X112216325Y-24628608D01*
X112162253Y-24606210D01*
X112103725Y-24606210D01*
X112049653Y-24628608D01*
X112008269Y-24669992D01*
X111985871Y-24724064D01*
X111982989Y-24753328D01*
X111982989Y-25317614D01*
X111425846Y-25317614D01*
X111425846Y-24753328D01*
X111422964Y-24724064D01*
X111400566Y-24669992D01*
X111359182Y-24628608D01*
X111305110Y-24606210D01*
X111246582Y-24606210D01*
X111192510Y-24628608D01*
X111151126Y-24669992D01*
X111128728Y-24724064D01*
X111125846Y-24753328D01*
X110711560Y-24753328D01*
X110708678Y-24724064D01*
X110686280Y-24669992D01*
X110644896Y-24628608D01*
X110590824Y-24606210D01*
X110561560Y-24603328D01*
X110204417Y-24603328D01*
X110189605Y-24604786D01*
X110185656Y-24604506D01*
X110180461Y-24605687D01*
X110175153Y-24606210D01*
X110171491Y-24607726D01*
X110156982Y-24611026D01*
X109942697Y-24682455D01*
X109915846Y-24694443D01*
X109911776Y-24697972D01*
X109906795Y-24700036D01*
X109884065Y-24718691D01*
X109741208Y-24861548D01*
X109731768Y-24873049D01*
X109728775Y-24875646D01*
X109725934Y-24880159D01*
X109722553Y-24884279D01*
X109721037Y-24887938D01*
X109713110Y-24900532D01*
X109641681Y-25043389D01*
X109640861Y-25045529D01*
X109640217Y-25046400D01*
X109635830Y-25058677D01*
X109631172Y-25070852D01*
X109631095Y-25071932D01*
X109630324Y-25074091D01*
X109558896Y-25359805D01*
X109558146Y-25364876D01*
X109557299Y-25366921D01*
X109556213Y-25377943D01*
X109554594Y-25388894D01*
X109554919Y-25391081D01*
X109554417Y-25396185D01*
X107354417Y-25396185D01*
X107354417Y-24753328D01*
X107352522Y-24734090D01*
X107352678Y-24730552D01*
X107351986Y-24728651D01*
X107351535Y-24724064D01*
X107341574Y-24700018D01*
X107332677Y-24675550D01*
X107330417Y-24673082D01*
X107329137Y-24669992D01*
X107310739Y-24651594D01*
X107293150Y-24632387D01*
X107290116Y-24630971D01*
X107287753Y-24628608D01*
X107263722Y-24618654D01*
X107240113Y-24607636D01*
X107236768Y-24607489D01*
X107233681Y-24606210D01*
X107207657Y-24606210D01*
X107181642Y-24605067D01*
X107178499Y-24606210D01*
X107175153Y-24606210D01*
X107151100Y-24616173D01*
X107126640Y-24625068D01*
X107124172Y-24627327D01*
X107121081Y-24628608D01*
X107102672Y-24647016D01*
X107083477Y-24664595D01*
X107081127Y-24668561D01*
X107079697Y-24669992D01*
X107078341Y-24673264D01*
X107068490Y-24689895D01*
X106704417Y-25470051D01*
X106340344Y-24689895D01*
X106330490Y-24673260D01*
X106329137Y-24669992D01*
X106327708Y-24668563D01*
X106325358Y-24664595D01*
X106306150Y-24647005D01*
X106287753Y-24628608D01*
X106284662Y-24627327D01*
X106282195Y-24625068D01*
X106257729Y-24616171D01*
X106233681Y-24606210D01*
X106230335Y-24606210D01*
X106227192Y-24605067D01*
X106201188Y-24606210D01*
X106175153Y-24606210D01*
X106172062Y-24607490D01*
X106168722Y-24607637D01*
X106145126Y-24618647D01*
X106121081Y-24628608D01*
X106118717Y-24630971D01*
X106115684Y-24632387D01*
X106098094Y-24651594D01*
X106079697Y-24669992D01*
X106078416Y-24673082D01*
X106076157Y-24675550D01*
X106067260Y-24700015D01*
X106057299Y-24724064D01*
X106056847Y-24728652D01*
X106056156Y-24730553D01*
X106056311Y-24734091D01*
X106054417Y-24753328D01*
X105416548Y-24753328D01*
X105381911Y-24718691D01*
X105359180Y-24700036D01*
X105354200Y-24697973D01*
X105350130Y-24694443D01*
X105323279Y-24682454D01*
X105108993Y-24611026D01*
X105094485Y-24607727D01*
X105090823Y-24606210D01*
X105085514Y-24605687D01*
X105080320Y-24604506D01*
X105076370Y-24604786D01*
X105061559Y-24603328D01*
X104918702Y-24603328D01*
X104903890Y-24604786D01*
X104899941Y-24604506D01*
X104894746Y-24605687D01*
X104889438Y-24606210D01*
X104885776Y-24607726D01*
X104871267Y-24611026D01*
X104656982Y-24682455D01*
X104630131Y-24694443D01*
X104626060Y-24697972D01*
X104621080Y-24700036D01*
X104598350Y-24718691D01*
X104526922Y-24790119D01*
X104508267Y-24812850D01*
X104485870Y-24866922D01*
X104140131Y-24866922D01*
X104140131Y-24753328D01*
X104137249Y-24724064D01*
X104114851Y-24669992D01*
X104073467Y-24628608D01*
X104019395Y-24606210D01*
X103960867Y-24606210D01*
X103906795Y-24628608D01*
X103865411Y-24669992D01*
X103843013Y-24724064D01*
X103840131Y-24753328D01*
X103840131Y-25932203D01*
X103795423Y-26021617D01*
X103758420Y-26058621D01*
X103669007Y-26103328D01*
X103454112Y-26103328D01*
X103364698Y-26058621D01*
X103327693Y-26021616D01*
X103282988Y-25932204D01*
X103282988Y-24753328D01*
X103280106Y-24724064D01*
X103257708Y-24669992D01*
X103216324Y-24628608D01*
X103162252Y-24606210D01*
X103103724Y-24606210D01*
X103049652Y-24628608D01*
X103008268Y-24669992D01*
X102985870Y-24724064D01*
X102982988Y-24753328D01*
X100130834Y-24753328D01*
X100096197Y-24718691D01*
X100084695Y-24709251D01*
X100082099Y-24706258D01*
X100077585Y-24703417D01*
X100073466Y-24700036D01*
X100069806Y-24698520D01*
X100057213Y-24690593D01*
X99914355Y-24619164D01*
X99886892Y-24608654D01*
X99881514Y-24608271D01*
X99876537Y-24606210D01*
X99847273Y-24603328D01*
X99704416Y-24603328D01*
X99675152Y-24606210D01*
X99670171Y-24608273D01*
X99664797Y-24608655D01*
X99637333Y-24619164D01*
X99494477Y-24690593D01*
X99481885Y-24698519D01*
X99478223Y-24700036D01*
X99474100Y-24703419D01*
X99469591Y-24706258D01*
X99466995Y-24709250D01*
X99455493Y-24718691D01*
X99384065Y-24790119D01*
X99374625Y-24801620D01*
X99371632Y-24804217D01*
X99368791Y-24808730D01*
X99365410Y-24812850D01*
X99363894Y-24816509D01*
X99355967Y-24829103D01*
X99284538Y-24971960D01*
X99283718Y-24974100D01*
X99283074Y-24974971D01*
X99278687Y-24987248D01*
X99274029Y-24999423D01*
X99273952Y-25000503D01*
X99273181Y-25002662D01*
X99201752Y-25288377D01*
X99201002Y-25293448D01*
X99200155Y-25295493D01*
X99199069Y-25306515D01*
X99197450Y-25317466D01*
X99197775Y-25319653D01*
X99197273Y-25324757D01*
X97851860Y-25324757D01*
X97853154Y-25305345D01*
X97851534Y-25300554D01*
X97851534Y-25295493D01*
X97842209Y-25272981D01*
X97834404Y-25249902D01*
X97830231Y-25244065D01*
X97829136Y-25241421D01*
X97826345Y-25238630D01*
X97817302Y-25225981D01*
X97534981Y-24903328D01*
X98132988Y-24903328D01*
X98162252Y-24900446D01*
X98216324Y-24878048D01*
X98257708Y-24836664D01*
X98280106Y-24782592D01*
X98280106Y-24724064D01*
X98257708Y-24669992D01*
X98216324Y-24628608D01*
X98162252Y-24606210D01*
X98132988Y-24603328D01*
X97204416Y-24603328D01*
X97188943Y-24604851D01*
X97185004Y-24604589D01*
X97182289Y-24605507D01*
X97175152Y-24606210D01*
X97152643Y-24615533D01*
X97129562Y-24623340D01*
X97125754Y-24626671D01*
X97121080Y-24628608D01*
X97103850Y-24645837D01*
X97085515Y-24661881D01*
X97083272Y-24666415D01*
X97079696Y-24669992D01*
X97070369Y-24692508D01*
X97059571Y-24714344D01*
X97059234Y-24719388D01*
X97057298Y-24724064D01*
X97057298Y-24748430D01*
X97055677Y-24772740D01*
X97057298Y-24777532D01*
X97057298Y-24782592D01*
X97066621Y-24805100D01*
X97074428Y-24828182D01*
X97078599Y-24834018D01*
X97079696Y-24836664D01*
X97082485Y-24839453D01*
X97091529Y-24852104D01*
X97398463Y-25202886D01*
X97280192Y-25262021D01*
X97267600Y-25269947D01*
X97263939Y-25271464D01*
X97259816Y-25274847D01*
X97255307Y-25277686D01*
X97252712Y-25280677D01*
X97241208Y-25290119D01*
X97169779Y-25361548D01*
X97160339Y-25373049D01*
X97157346Y-25375646D01*
X97154505Y-25380159D01*
X97151124Y-25384279D01*
X97149608Y-25387938D01*
X97141681Y-25400532D01*
X97070252Y-25543389D01*
X97059743Y-25570852D01*
X97059361Y-25576226D01*
X97057298Y-25581207D01*
X97054416Y-25610471D01*
X96887749Y-25610471D01*
X96887749Y-23830249D01*
X103911781Y-23830249D01*
X103920058Y-23888186D01*
X103949877Y-23938548D01*
X103996699Y-23973665D01*
X104053396Y-23988190D01*
X104111333Y-23979913D01*
X104161695Y-23950094D01*
X104181559Y-23928412D01*
X104720645Y-23209630D01*
X104768702Y-23257687D01*
X104768702Y-23838412D01*
X104771584Y-23867676D01*
X104793982Y-23921748D01*
X104835366Y-23963132D01*
X104889438Y-23985530D01*
X104947966Y-23985530D01*
X105002038Y-23963132D01*
X105043422Y-23921748D01*
X105065820Y-23867676D01*
X105068702Y-23838412D01*
X105068702Y-23809148D01*
X105271584Y-23809148D01*
X105271584Y-23867676D01*
X105293982Y-23921748D01*
X105335366Y-23963132D01*
X105389438Y-23985530D01*
X105418702Y-23988412D01*
X106132988Y-23988412D01*
X106162252Y-23985530D01*
X106216324Y-23963132D01*
X106257708Y-23921748D01*
X106280106Y-23867676D01*
X106282988Y-23838412D01*
X106282988Y-22838412D01*
X106625845Y-22838412D01*
X106625845Y-23338412D01*
X106626347Y-23343515D01*
X106626022Y-23345703D01*
X106627641Y-23356654D01*
X106628727Y-23367676D01*
X106629573Y-23369720D01*
X106630324Y-23374793D01*
X106701753Y-23660506D01*
X106711646Y-23688197D01*
X106718285Y-23697157D01*
X106722553Y-23707461D01*
X106741208Y-23730192D01*
X106884065Y-23873050D01*
X106895571Y-23882493D01*
X106898164Y-23885483D01*
X106902669Y-23888319D01*
X106906795Y-23891705D01*
X106910458Y-23893222D01*
X106923049Y-23901148D01*
X107065907Y-23972576D01*
X107093370Y-23983086D01*
X107098745Y-23983467D01*
X107103724Y-23985530D01*
X107132988Y-23988412D01*
X107418702Y-23988412D01*
X107447966Y-23985530D01*
X107452944Y-23983467D01*
X107458320Y-23983086D01*
X107485783Y-23972576D01*
X107628642Y-23901148D01*
X107641232Y-23893222D01*
X107644896Y-23891705D01*
X107649021Y-23888319D01*
X107653527Y-23885483D01*
X107656120Y-23882493D01*
X107667626Y-23873050D01*
X107810483Y-23730192D01*
X107829138Y-23707461D01*
X107833405Y-23697157D01*
X107840045Y-23688197D01*
X107849938Y-23660506D01*
X107921366Y-23374792D01*
X107922115Y-23369720D01*
X107922963Y-23367676D01*
X107924048Y-23356653D01*
X107925668Y-23345703D01*
X107925342Y-23343515D01*
X107925845Y-23338412D01*
X107925845Y-22838412D01*
X107925342Y-22833308D01*
X107925668Y-22831121D01*
X107924048Y-22820170D01*
X107922963Y-22809148D01*
X107922115Y-22807103D01*
X107921366Y-22802032D01*
X107849938Y-22516318D01*
X107840045Y-22488627D01*
X107833406Y-22479667D01*
X107829138Y-22469362D01*
X107810483Y-22446632D01*
X107702263Y-22338412D01*
X108268703Y-22338412D01*
X108268703Y-23838412D01*
X108269444Y-23845937D01*
X108269069Y-23848889D01*
X108270111Y-23852709D01*
X108271585Y-23867676D01*
X108279220Y-23886108D01*
X108284469Y-23905353D01*
X108290323Y-23912912D01*
X108293983Y-23921748D01*
X108308090Y-23935855D01*
X108320304Y-23951627D01*
X108328606Y-23956371D01*
X108335367Y-23963132D01*
X108353797Y-23970766D01*
X108371120Y-23980665D01*
X108380605Y-23981870D01*
X108389439Y-23985530D01*
X108409389Y-23985530D01*
X108429180Y-23988046D01*
X108438405Y-23985530D01*
X108447967Y-23985530D01*
X108466399Y-23977894D01*
X108485644Y-23972646D01*
X108493203Y-23966791D01*
X108502039Y-23963132D01*
X108516146Y-23949024D01*
X108531918Y-23936811D01*
X108540623Y-23924547D01*
X108543423Y-23921748D01*
X108544561Y-23919000D01*
X108548939Y-23912833D01*
X109125846Y-22903247D01*
X109125846Y-23838412D01*
X109128728Y-23867676D01*
X109151126Y-23921748D01*
X109192510Y-23963132D01*
X109246582Y-23985530D01*
X109305110Y-23985530D01*
X109359182Y-23963132D01*
X109400566Y-23921748D01*
X109422964Y-23867676D01*
X109425846Y-23838412D01*
X109425846Y-22338412D01*
X109425104Y-22330885D01*
X109425480Y-22327934D01*
X109424437Y-22324112D01*
X109422964Y-22309148D01*
X109771585Y-22309148D01*
X109771585Y-22367676D01*
X109793983Y-22421748D01*
X109835367Y-22463132D01*
X109889439Y-22485530D01*
X109918703Y-22488412D01*
X110482989Y-22488412D01*
X110482989Y-22902698D01*
X110132989Y-22902698D01*
X110103725Y-22905580D01*
X110049653Y-22927978D01*
X110008269Y-22969362D01*
X109985871Y-23023434D01*
X109985871Y-23081962D01*
X110008269Y-23136034D01*
X110049653Y-23177418D01*
X110103725Y-23199816D01*
X110132989Y-23202698D01*
X110482989Y-23202698D01*
X110482989Y-23688412D01*
X109918703Y-23688412D01*
X109889439Y-23691294D01*
X109835367Y-23713692D01*
X109793983Y-23755076D01*
X109771585Y-23809148D01*
X109771585Y-23867676D01*
X109793983Y-23921748D01*
X109835367Y-23963132D01*
X109889439Y-23985530D01*
X109918703Y-23988412D01*
X110632989Y-23988412D01*
X110662253Y-23985530D01*
X110716325Y-23963132D01*
X110757709Y-23921748D01*
X110780107Y-23867676D01*
X110782989Y-23838412D01*
X110782989Y-22981269D01*
X111125846Y-22981269D01*
X111125846Y-23195555D01*
X111126348Y-23200658D01*
X111126023Y-23202846D01*
X111127642Y-23213796D01*
X111128728Y-23224819D01*
X111129575Y-23226863D01*
X111130325Y-23231935D01*
X111201753Y-23517649D01*
X111202524Y-23519807D01*
X111202601Y-23520888D01*
X111207259Y-23533062D01*
X111211646Y-23545340D01*
X111212290Y-23546210D01*
X111213110Y-23548351D01*
X111284539Y-23691208D01*
X111292466Y-23703801D01*
X111293982Y-23707461D01*
X111297363Y-23711580D01*
X111300204Y-23716094D01*
X111303197Y-23718690D01*
X111312637Y-23730192D01*
X111455494Y-23873050D01*
X111478224Y-23891705D01*
X111483203Y-23893767D01*
X111487275Y-23897299D01*
X111514126Y-23909287D01*
X111728412Y-23980715D01*
X111742924Y-23984014D01*
X111746582Y-23985530D01*
X111751884Y-23986052D01*
X111757086Y-23987235D01*
X111761040Y-23986953D01*
X111775846Y-23988412D01*
X112132989Y-23988412D01*
X112162253Y-23985530D01*
X112216325Y-23963132D01*
X112257709Y-23921748D01*
X112280107Y-23867676D01*
X112282989Y-23838412D01*
X112282989Y-22338412D01*
X112280107Y-22309148D01*
X112257709Y-22255076D01*
X112216325Y-22213692D01*
X112162253Y-22191294D01*
X112132989Y-22188412D01*
X111775846Y-22188412D01*
X111761034Y-22189870D01*
X111757085Y-22189590D01*
X111751890Y-22190771D01*
X111746582Y-22191294D01*
X111742920Y-22192810D01*
X111728411Y-22196110D01*
X111514126Y-22267539D01*
X111487275Y-22279527D01*
X111483205Y-22283056D01*
X111478224Y-22285120D01*
X111455494Y-22303775D01*
X111312637Y-22446632D01*
X111303197Y-22458133D01*
X111300204Y-22460730D01*
X111297363Y-22465243D01*
X111293982Y-22469363D01*
X111292466Y-22473022D01*
X111284539Y-22485616D01*
X111213110Y-22628473D01*
X111212290Y-22630613D01*
X111211646Y-22631484D01*
X111207259Y-22643761D01*
X111202601Y-22655936D01*
X111202524Y-22657016D01*
X111201753Y-22659175D01*
X111130325Y-22944889D01*
X111129575Y-22949960D01*
X111128728Y-22952005D01*
X111127642Y-22963027D01*
X111126023Y-22973978D01*
X111126348Y-22976165D01*
X111125846Y-22981269D01*
X110782989Y-22981269D01*
X110782989Y-22338412D01*
X110780107Y-22309148D01*
X110757709Y-22255076D01*
X110716325Y-22213692D01*
X110662253Y-22191294D01*
X110632989Y-22188412D01*
X109918703Y-22188412D01*
X109889439Y-22191294D01*
X109835367Y-22213692D01*
X109793983Y-22255076D01*
X109771585Y-22309148D01*
X109422964Y-22309148D01*
X109415328Y-22290715D01*
X109410080Y-22271471D01*
X109404225Y-22263911D01*
X109400566Y-22255076D01*
X109386458Y-22240968D01*
X109374245Y-22225197D01*
X109365942Y-22220452D01*
X109359182Y-22213692D01*
X109340751Y-22206057D01*
X109323429Y-22196159D01*
X109313943Y-22194953D01*
X109305110Y-22191294D01*
X109285160Y-22191294D01*
X109265369Y-22188778D01*
X109256144Y-22191294D01*
X109246582Y-22191294D01*
X109228153Y-22198927D01*
X109208905Y-22204177D01*
X109201343Y-22210033D01*
X109192510Y-22213692D01*
X109178404Y-22227797D01*
X109162631Y-22240013D01*
X109153925Y-22252276D01*
X109151126Y-22255076D01*
X109149987Y-22257823D01*
X109145610Y-22263991D01*
X108568703Y-23273578D01*
X108568703Y-22338412D01*
X108565821Y-22309148D01*
X108543423Y-22255076D01*
X108502039Y-22213692D01*
X108447967Y-22191294D01*
X108389439Y-22191294D01*
X108335367Y-22213692D01*
X108293983Y-22255076D01*
X108271585Y-22309148D01*
X108268703Y-22338412D01*
X107702263Y-22338412D01*
X107667626Y-22303775D01*
X107656124Y-22294335D01*
X107653528Y-22291342D01*
X107649014Y-22288501D01*
X107644895Y-22285120D01*
X107641235Y-22283604D01*
X107628642Y-22275677D01*
X107485784Y-22204248D01*
X107458321Y-22193738D01*
X107452943Y-22193355D01*
X107447966Y-22191294D01*
X107418702Y-22188412D01*
X107132988Y-22188412D01*
X107103724Y-22191294D01*
X107098743Y-22193357D01*
X107093369Y-22193739D01*
X107065905Y-22204248D01*
X106923049Y-22275677D01*
X106910457Y-22283603D01*
X106906795Y-22285120D01*
X106902672Y-22288503D01*
X106898163Y-22291342D01*
X106895567Y-22294334D01*
X106884065Y-22303775D01*
X106741208Y-22446632D01*
X106722553Y-22469363D01*
X106718285Y-22479666D01*
X106711646Y-22488627D01*
X106701753Y-22516318D01*
X106630324Y-22802031D01*
X106629573Y-22807103D01*
X106628727Y-22809148D01*
X106627641Y-22820169D01*
X106626022Y-22831121D01*
X106626347Y-22833308D01*
X106625845Y-22838412D01*
X106282988Y-22838412D01*
X106282988Y-22338412D01*
X106280106Y-22309148D01*
X106257708Y-22255076D01*
X106216324Y-22213692D01*
X106162252Y-22191294D01*
X106103724Y-22191294D01*
X106049652Y-22213692D01*
X106008268Y-22255076D01*
X105985870Y-22309148D01*
X105982988Y-22338412D01*
X105982988Y-23688412D01*
X105418702Y-23688412D01*
X105389438Y-23691294D01*
X105335366Y-23713692D01*
X105293982Y-23755076D01*
X105271584Y-23809148D01*
X105068702Y-23809148D01*
X105068702Y-22338412D01*
X105065820Y-22309148D01*
X105043422Y-22255076D01*
X105002038Y-22213692D01*
X104947966Y-22191294D01*
X104889438Y-22191294D01*
X104835366Y-22213692D01*
X104793982Y-22255076D01*
X104771584Y-22309148D01*
X104768702Y-22338412D01*
X104768702Y-22833423D01*
X104167625Y-22232346D01*
X104144894Y-22213691D01*
X104090822Y-22191294D01*
X104032296Y-22191294D01*
X103978224Y-22213691D01*
X103936838Y-22255077D01*
X103914441Y-22309149D01*
X103914441Y-22367675D01*
X103936838Y-22421747D01*
X103955493Y-22444478D01*
X104506359Y-22995344D01*
X103941559Y-23748412D01*
X103926306Y-23773552D01*
X103911781Y-23830249D01*
X96887749Y-23830249D01*
X96887749Y-22021745D01*
X112449656Y-22021745D01*
X112449656Y-26569995D01*
G37*
D13*
X82657255Y-22722295D02*
X82657255Y-21922295D01*
X82657255Y-21922295D02*
X82466779Y-21922295D01*
X82466779Y-21922295D02*
X82352493Y-21960390D01*
X82352493Y-21960390D02*
X82276303Y-22036580D01*
X82276303Y-22036580D02*
X82238208Y-22112771D01*
X82238208Y-22112771D02*
X82200112Y-22265152D01*
X82200112Y-22265152D02*
X82200112Y-22379438D01*
X82200112Y-22379438D02*
X82238208Y-22531819D01*
X82238208Y-22531819D02*
X82276303Y-22608009D01*
X82276303Y-22608009D02*
X82352493Y-22684200D01*
X82352493Y-22684200D02*
X82466779Y-22722295D01*
X82466779Y-22722295D02*
X82657255Y-22722295D01*
X82047732Y-22798485D02*
X81438208Y-22798485D01*
X81285827Y-22684200D02*
X81171541Y-22722295D01*
X81171541Y-22722295D02*
X80981065Y-22722295D01*
X80981065Y-22722295D02*
X80904874Y-22684200D01*
X80904874Y-22684200D02*
X80866779Y-22646104D01*
X80866779Y-22646104D02*
X80828684Y-22569914D01*
X80828684Y-22569914D02*
X80828684Y-22493723D01*
X80828684Y-22493723D02*
X80866779Y-22417533D01*
X80866779Y-22417533D02*
X80904874Y-22379438D01*
X80904874Y-22379438D02*
X80981065Y-22341342D01*
X80981065Y-22341342D02*
X81133446Y-22303247D01*
X81133446Y-22303247D02*
X81209636Y-22265152D01*
X81209636Y-22265152D02*
X81247731Y-22227057D01*
X81247731Y-22227057D02*
X81285827Y-22150866D01*
X81285827Y-22150866D02*
X81285827Y-22074676D01*
X81285827Y-22074676D02*
X81247731Y-21998485D01*
X81247731Y-21998485D02*
X81209636Y-21960390D01*
X81209636Y-21960390D02*
X81133446Y-21922295D01*
X81133446Y-21922295D02*
X80942969Y-21922295D01*
X80942969Y-21922295D02*
X80828684Y-21960390D01*
X80485826Y-22303247D02*
X80219160Y-22303247D01*
X80104874Y-22722295D02*
X80485826Y-22722295D01*
X80485826Y-22722295D02*
X80485826Y-21922295D01*
X80485826Y-21922295D02*
X80104874Y-21922295D01*
X79304873Y-22722295D02*
X79571540Y-22341342D01*
X79762016Y-22722295D02*
X79762016Y-21922295D01*
X79762016Y-21922295D02*
X79457254Y-21922295D01*
X79457254Y-21922295D02*
X79381064Y-21960390D01*
X79381064Y-21960390D02*
X79342969Y-21998485D01*
X79342969Y-21998485D02*
X79304873Y-22074676D01*
X79304873Y-22074676D02*
X79304873Y-22188961D01*
X79304873Y-22188961D02*
X79342969Y-22265152D01*
X79342969Y-22265152D02*
X79381064Y-22303247D01*
X79381064Y-22303247D02*
X79457254Y-22341342D01*
X79457254Y-22341342D02*
X79762016Y-22341342D01*
X79076302Y-21922295D02*
X78809635Y-22722295D01*
X78809635Y-22722295D02*
X78542969Y-21922295D01*
X78123921Y-21922295D02*
X77971540Y-21922295D01*
X77971540Y-21922295D02*
X77895350Y-21960390D01*
X77895350Y-21960390D02*
X77819159Y-22036580D01*
X77819159Y-22036580D02*
X77781064Y-22188961D01*
X77781064Y-22188961D02*
X77781064Y-22455628D01*
X77781064Y-22455628D02*
X77819159Y-22608009D01*
X77819159Y-22608009D02*
X77895350Y-22684200D01*
X77895350Y-22684200D02*
X77971540Y-22722295D01*
X77971540Y-22722295D02*
X78123921Y-22722295D01*
X78123921Y-22722295D02*
X78200112Y-22684200D01*
X78200112Y-22684200D02*
X78276302Y-22608009D01*
X78276302Y-22608009D02*
X78314398Y-22455628D01*
X78314398Y-22455628D02*
X78314398Y-22188961D01*
X78314398Y-22188961D02*
X78276302Y-22036580D01*
X78276302Y-22036580D02*
X78200112Y-21960390D01*
X78200112Y-21960390D02*
X78123921Y-21922295D01*
X78551065Y-50990390D02*
X78627255Y-50952295D01*
X78627255Y-50952295D02*
X78741541Y-50952295D01*
X78741541Y-50952295D02*
X78855827Y-50990390D01*
X78855827Y-50990390D02*
X78932017Y-51066580D01*
X78932017Y-51066580D02*
X78970112Y-51142771D01*
X78970112Y-51142771D02*
X79008208Y-51295152D01*
X79008208Y-51295152D02*
X79008208Y-51409438D01*
X79008208Y-51409438D02*
X78970112Y-51561819D01*
X78970112Y-51561819D02*
X78932017Y-51638009D01*
X78932017Y-51638009D02*
X78855827Y-51714200D01*
X78855827Y-51714200D02*
X78741541Y-51752295D01*
X78741541Y-51752295D02*
X78665350Y-51752295D01*
X78665350Y-51752295D02*
X78551065Y-51714200D01*
X78551065Y-51714200D02*
X78512969Y-51676104D01*
X78512969Y-51676104D02*
X78512969Y-51409438D01*
X78512969Y-51409438D02*
X78665350Y-51409438D01*
X77827255Y-50952295D02*
X77979636Y-50952295D01*
X77979636Y-50952295D02*
X78055827Y-50990390D01*
X78055827Y-50990390D02*
X78093922Y-51028485D01*
X78093922Y-51028485D02*
X78170112Y-51142771D01*
X78170112Y-51142771D02*
X78208208Y-51295152D01*
X78208208Y-51295152D02*
X78208208Y-51599914D01*
X78208208Y-51599914D02*
X78170112Y-51676104D01*
X78170112Y-51676104D02*
X78132017Y-51714200D01*
X78132017Y-51714200D02*
X78055827Y-51752295D01*
X78055827Y-51752295D02*
X77903446Y-51752295D01*
X77903446Y-51752295D02*
X77827255Y-51714200D01*
X77827255Y-51714200D02*
X77789160Y-51676104D01*
X77789160Y-51676104D02*
X77751065Y-51599914D01*
X77751065Y-51599914D02*
X77751065Y-51409438D01*
X77751065Y-51409438D02*
X77789160Y-51333247D01*
X77789160Y-51333247D02*
X77827255Y-51295152D01*
X77827255Y-51295152D02*
X77903446Y-51257057D01*
X77903446Y-51257057D02*
X78055827Y-51257057D01*
X78055827Y-51257057D02*
X78132017Y-51295152D01*
X78132017Y-51295152D02*
X78170112Y-51333247D01*
X78170112Y-51333247D02*
X78208208Y-51409438D01*
X80826778Y-66442295D02*
X80826778Y-65642295D01*
X80826778Y-65642295D02*
X80636302Y-65642295D01*
X80636302Y-65642295D02*
X80522016Y-65680390D01*
X80522016Y-65680390D02*
X80445826Y-65756580D01*
X80445826Y-65756580D02*
X80407731Y-65832771D01*
X80407731Y-65832771D02*
X80369635Y-65985152D01*
X80369635Y-65985152D02*
X80369635Y-66099438D01*
X80369635Y-66099438D02*
X80407731Y-66251819D01*
X80407731Y-66251819D02*
X80445826Y-66328009D01*
X80445826Y-66328009D02*
X80522016Y-66404200D01*
X80522016Y-66404200D02*
X80636302Y-66442295D01*
X80636302Y-66442295D02*
X80826778Y-66442295D01*
X80217255Y-66518485D02*
X79607731Y-66518485D01*
X79417254Y-66442295D02*
X79417254Y-65642295D01*
X78617255Y-65680390D02*
X78693445Y-65642295D01*
X78693445Y-65642295D02*
X78807731Y-65642295D01*
X78807731Y-65642295D02*
X78922017Y-65680390D01*
X78922017Y-65680390D02*
X78998207Y-65756580D01*
X78998207Y-65756580D02*
X79036302Y-65832771D01*
X79036302Y-65832771D02*
X79074398Y-65985152D01*
X79074398Y-65985152D02*
X79074398Y-66099438D01*
X79074398Y-66099438D02*
X79036302Y-66251819D01*
X79036302Y-66251819D02*
X78998207Y-66328009D01*
X78998207Y-66328009D02*
X78922017Y-66404200D01*
X78922017Y-66404200D02*
X78807731Y-66442295D01*
X78807731Y-66442295D02*
X78731540Y-66442295D01*
X78731540Y-66442295D02*
X78617255Y-66404200D01*
X78617255Y-66404200D02*
X78579159Y-66366104D01*
X78579159Y-66366104D02*
X78579159Y-66099438D01*
X78579159Y-66099438D02*
X78731540Y-66099438D01*
X78236302Y-66442295D02*
X78236302Y-65642295D01*
X78236302Y-65642295D02*
X77779159Y-66442295D01*
X77779159Y-66442295D02*
X77779159Y-65642295D01*
D11*
X104484919Y-54103214D02*
X104484919Y-53531786D01*
X104484919Y-53817500D02*
X103484919Y-53817500D01*
X103484919Y-53817500D02*
X103627776Y-53722262D01*
X103627776Y-53722262D02*
X103723014Y-53627024D01*
X103723014Y-53627024D02*
X103770633Y-53531786D01*
X114424919Y-42005595D02*
X114424919Y-41529405D01*
X114424919Y-41529405D02*
X114901109Y-41481786D01*
X114901109Y-41481786D02*
X114853490Y-41529405D01*
X114853490Y-41529405D02*
X114805871Y-41624643D01*
X114805871Y-41624643D02*
X114805871Y-41862738D01*
X114805871Y-41862738D02*
X114853490Y-41957976D01*
X114853490Y-41957976D02*
X114901109Y-42005595D01*
X114901109Y-42005595D02*
X114996347Y-42053214D01*
X114996347Y-42053214D02*
X115234442Y-42053214D01*
X115234442Y-42053214D02*
X115329680Y-42005595D01*
X115329680Y-42005595D02*
X115377300Y-41957976D01*
X115377300Y-41957976D02*
X115424919Y-41862738D01*
X115424919Y-41862738D02*
X115424919Y-41624643D01*
X115424919Y-41624643D02*
X115377300Y-41529405D01*
X115377300Y-41529405D02*
X115329680Y-41481786D01*
X96424919Y-41957976D02*
X96424919Y-41767500D01*
X96424919Y-41767500D02*
X96472538Y-41672262D01*
X96472538Y-41672262D02*
X96520157Y-41624643D01*
X96520157Y-41624643D02*
X96663014Y-41529405D01*
X96663014Y-41529405D02*
X96853490Y-41481786D01*
X96853490Y-41481786D02*
X97234442Y-41481786D01*
X97234442Y-41481786D02*
X97329680Y-41529405D01*
X97329680Y-41529405D02*
X97377300Y-41577024D01*
X97377300Y-41577024D02*
X97424919Y-41672262D01*
X97424919Y-41672262D02*
X97424919Y-41862738D01*
X97424919Y-41862738D02*
X97377300Y-41957976D01*
X97377300Y-41957976D02*
X97329680Y-42005595D01*
X97329680Y-42005595D02*
X97234442Y-42053214D01*
X97234442Y-42053214D02*
X96996347Y-42053214D01*
X96996347Y-42053214D02*
X96901109Y-42005595D01*
X96901109Y-42005595D02*
X96853490Y-41957976D01*
X96853490Y-41957976D02*
X96805871Y-41862738D01*
X96805871Y-41862738D02*
X96805871Y-41672262D01*
X96805871Y-41672262D02*
X96853490Y-41577024D01*
X96853490Y-41577024D02*
X96901109Y-41529405D01*
X96901109Y-41529405D02*
X96996347Y-41481786D01*
X109580157Y-53531786D02*
X109532538Y-53579405D01*
X109532538Y-53579405D02*
X109484919Y-53674643D01*
X109484919Y-53674643D02*
X109484919Y-53912738D01*
X109484919Y-53912738D02*
X109532538Y-54007976D01*
X109532538Y-54007976D02*
X109580157Y-54055595D01*
X109580157Y-54055595D02*
X109675395Y-54103214D01*
X109675395Y-54103214D02*
X109770633Y-54103214D01*
X109770633Y-54103214D02*
X109913490Y-54055595D01*
X109913490Y-54055595D02*
X110484919Y-53484167D01*
X110484919Y-53484167D02*
X110484919Y-54103214D01*
X108424919Y-41434167D02*
X108424919Y-42100833D01*
X108424919Y-42100833D02*
X109424919Y-41672262D01*
X97818252Y-54007976D02*
X98484919Y-54007976D01*
X97437300Y-53769881D02*
X98151585Y-53531786D01*
X98151585Y-53531786D02*
X98151585Y-54150833D01*
X115484919Y-53484167D02*
X115484919Y-54103214D01*
X115484919Y-54103214D02*
X115865871Y-53769881D01*
X115865871Y-53769881D02*
X115865871Y-53912738D01*
X115865871Y-53912738D02*
X115913490Y-54007976D01*
X115913490Y-54007976D02*
X115961109Y-54055595D01*
X115961109Y-54055595D02*
X116056347Y-54103214D01*
X116056347Y-54103214D02*
X116294442Y-54103214D01*
X116294442Y-54103214D02*
X116389680Y-54055595D01*
X116389680Y-54055595D02*
X116437300Y-54007976D01*
X116437300Y-54007976D02*
X116484919Y-53912738D01*
X116484919Y-53912738D02*
X116484919Y-53627024D01*
X116484919Y-53627024D02*
X116437300Y-53531786D01*
X116437300Y-53531786D02*
X116389680Y-53484167D01*
X102853490Y-41672262D02*
X102805871Y-41577024D01*
X102805871Y-41577024D02*
X102758252Y-41529405D01*
X102758252Y-41529405D02*
X102663014Y-41481786D01*
X102663014Y-41481786D02*
X102615395Y-41481786D01*
X102615395Y-41481786D02*
X102520157Y-41529405D01*
X102520157Y-41529405D02*
X102472538Y-41577024D01*
X102472538Y-41577024D02*
X102424919Y-41672262D01*
X102424919Y-41672262D02*
X102424919Y-41862738D01*
X102424919Y-41862738D02*
X102472538Y-41957976D01*
X102472538Y-41957976D02*
X102520157Y-42005595D01*
X102520157Y-42005595D02*
X102615395Y-42053214D01*
X102615395Y-42053214D02*
X102663014Y-42053214D01*
X102663014Y-42053214D02*
X102758252Y-42005595D01*
X102758252Y-42005595D02*
X102805871Y-41957976D01*
X102805871Y-41957976D02*
X102853490Y-41862738D01*
X102853490Y-41862738D02*
X102853490Y-41672262D01*
X102853490Y-41672262D02*
X102901109Y-41577024D01*
X102901109Y-41577024D02*
X102948728Y-41529405D01*
X102948728Y-41529405D02*
X103043966Y-41481786D01*
X103043966Y-41481786D02*
X103234442Y-41481786D01*
X103234442Y-41481786D02*
X103329680Y-41529405D01*
X103329680Y-41529405D02*
X103377300Y-41577024D01*
X103377300Y-41577024D02*
X103424919Y-41672262D01*
X103424919Y-41672262D02*
X103424919Y-41862738D01*
X103424919Y-41862738D02*
X103377300Y-41957976D01*
X103377300Y-41957976D02*
X103329680Y-42005595D01*
X103329680Y-42005595D02*
X103234442Y-42053214D01*
X103234442Y-42053214D02*
X103043966Y-42053214D01*
X103043966Y-42053214D02*
X102948728Y-42005595D01*
X102948728Y-42005595D02*
X102901109Y-41957976D01*
X102901109Y-41957976D02*
X102853490Y-41862738D01*
X52493615Y-64074919D02*
X52493615Y-63074919D01*
X52493615Y-63074919D02*
X52112663Y-63074919D01*
X52112663Y-63074919D02*
X52017425Y-63122538D01*
X52017425Y-63122538D02*
X51969806Y-63170157D01*
X51969806Y-63170157D02*
X51922187Y-63265395D01*
X51922187Y-63265395D02*
X51922187Y-63408252D01*
X51922187Y-63408252D02*
X51969806Y-63503490D01*
X51969806Y-63503490D02*
X52017425Y-63551109D01*
X52017425Y-63551109D02*
X52112663Y-63598728D01*
X52112663Y-63598728D02*
X52493615Y-63598728D01*
X50969806Y-64074919D02*
X51541234Y-64074919D01*
X51255520Y-64074919D02*
X51255520Y-63074919D01*
X51255520Y-63074919D02*
X51350758Y-63217776D01*
X51350758Y-63217776D02*
X51445996Y-63313014D01*
X51445996Y-63313014D02*
X51541234Y-63360633D01*
X50588853Y-63170157D02*
X50541234Y-63122538D01*
X50541234Y-63122538D02*
X50445996Y-63074919D01*
X50445996Y-63074919D02*
X50207901Y-63074919D01*
X50207901Y-63074919D02*
X50112663Y-63122538D01*
X50112663Y-63122538D02*
X50065044Y-63170157D01*
X50065044Y-63170157D02*
X50017425Y-63265395D01*
X50017425Y-63265395D02*
X50017425Y-63360633D01*
X50017425Y-63360633D02*
X50065044Y-63503490D01*
X50065044Y-63503490D02*
X50636472Y-64074919D01*
X50636472Y-64074919D02*
X50017425Y-64074919D01*
X49731710Y-63074919D02*
X49398377Y-64074919D01*
X49398377Y-64074919D02*
X49065044Y-63074919D01*
X48255520Y-63074919D02*
X48731710Y-63074919D01*
X48731710Y-63074919D02*
X48779329Y-63551109D01*
X48779329Y-63551109D02*
X48731710Y-63503490D01*
X48731710Y-63503490D02*
X48636472Y-63455871D01*
X48636472Y-63455871D02*
X48398377Y-63455871D01*
X48398377Y-63455871D02*
X48303139Y-63503490D01*
X48303139Y-63503490D02*
X48255520Y-63551109D01*
X48255520Y-63551109D02*
X48207901Y-63646347D01*
X48207901Y-63646347D02*
X48207901Y-63884442D01*
X48207901Y-63884442D02*
X48255520Y-63979680D01*
X48255520Y-63979680D02*
X48303139Y-64027300D01*
X48303139Y-64027300D02*
X48398377Y-64074919D01*
X48398377Y-64074919D02*
X48636472Y-64074919D01*
X48636472Y-64074919D02*
X48731710Y-64027300D01*
X48731710Y-64027300D02*
X48779329Y-63979680D01*
X101087500Y-68157500D02*
X101087500Y-54407500D01*
X105387500Y-68157500D02*
X100387500Y-68157500D01*
X100387500Y-54407500D01*
X105387500Y-54407500D01*
X105387500Y-68157500D01*
X116677500Y-27567500D02*
X116677500Y-41317500D01*
X112377500Y-27567500D02*
X117377500Y-27567500D01*
X117377500Y-41317500D01*
X112377500Y-41317500D01*
X112377500Y-27567500D01*
X98677500Y-27567500D02*
X98677500Y-41317500D01*
X94377500Y-27567500D02*
X99377500Y-27567500D01*
X99377500Y-41317500D01*
X94377500Y-41317500D01*
X94377500Y-27567500D01*
X107087500Y-68157500D02*
X107087500Y-54407500D01*
X111387500Y-68157500D02*
X106387500Y-68157500D01*
X106387500Y-54407500D01*
X111387500Y-54407500D01*
X111387500Y-68157500D01*
X110677500Y-27567500D02*
X110677500Y-41317500D01*
X106377500Y-27567500D02*
X111377500Y-27567500D01*
X111377500Y-41317500D01*
X106377500Y-41317500D01*
X106377500Y-27567500D01*
X95087500Y-68157500D02*
X95087500Y-54407500D01*
X99387500Y-68157500D02*
X94387500Y-68157500D01*
X94387500Y-54407500D01*
X99387500Y-54407500D01*
X99387500Y-68157500D01*
X113087500Y-68157500D02*
X113087500Y-54407500D01*
X117387500Y-68157500D02*
X112387500Y-68157500D01*
X112387500Y-54407500D01*
X117387500Y-54407500D01*
X117387500Y-68157500D01*
X104677500Y-27567500D02*
X104677500Y-41317500D01*
X100377500Y-27567500D02*
X105377500Y-27567500D01*
X105377500Y-41317500D01*
X100377500Y-41317500D01*
X100377500Y-27567500D01*
D12*
X77390000Y-64810000D02*
X77390000Y-62050000D01*
X82580000Y-62050000D02*
X77390000Y-62050000D01*
X82580000Y-64810000D02*
X77390000Y-64810000D01*
X82580000Y-64810000D02*
X82580000Y-62050000D01*
X83850000Y-64810000D02*
X85230000Y-64810000D01*
X85230000Y-64810000D02*
X85230000Y-63430000D01*
X77390000Y-25930000D02*
X77390000Y-23170000D01*
X82580000Y-23170000D02*
X77390000Y-23170000D01*
X82580000Y-25930000D02*
X77390000Y-25930000D01*
X82580000Y-25930000D02*
X82580000Y-23170000D01*
X83850000Y-25930000D02*
X85230000Y-25930000D01*
X85230000Y-25930000D02*
X85230000Y-24550000D01*
D11*
X36897500Y-54302500D02*
X68897500Y-54302500D01*
X68897500Y-74302500D01*
X36897500Y-74302500D01*
X36897500Y-54302500D01*
D12*
X77350000Y-55000000D02*
X77350000Y-52240000D01*
X82540000Y-52240000D02*
X77350000Y-52240000D01*
X82540000Y-55000000D02*
X77350000Y-55000000D01*
X82540000Y-55000000D02*
X82540000Y-52240000D01*
X83810000Y-55000000D02*
X85190000Y-55000000D01*
X85190000Y-55000000D02*
X85190000Y-53620000D01*
X77390000Y-69660000D02*
X77390000Y-66900000D01*
X82580000Y-66900000D02*
X77390000Y-66900000D01*
X82580000Y-69660000D02*
X77390000Y-69660000D01*
X82580000Y-69660000D02*
X82580000Y-66900000D01*
X83850000Y-69660000D02*
X85230000Y-69660000D01*
X85230000Y-69660000D02*
X85230000Y-68280000D01*
X77380000Y-30690000D02*
X77380000Y-27930000D01*
X82570000Y-27930000D02*
X77380000Y-27930000D01*
X82570000Y-30690000D02*
X77380000Y-30690000D01*
X82570000Y-30690000D02*
X82570000Y-27930000D01*
X83840000Y-30690000D02*
X85220000Y-30690000D01*
X85220000Y-30690000D02*
X85220000Y-29310000D01*
X77382500Y-35480000D02*
X77382500Y-32720000D01*
X82572500Y-32720000D02*
X77382500Y-32720000D01*
X82572500Y-35480000D02*
X77382500Y-35480000D01*
X82572500Y-35480000D02*
X82572500Y-32720000D01*
X83842500Y-35480000D02*
X85222500Y-35480000D01*
X85222500Y-35480000D02*
X85222500Y-34100000D01*
X77370000Y-59940000D02*
X77370000Y-57180000D01*
X82560000Y-57180000D02*
X77370000Y-57180000D01*
X82560000Y-59940000D02*
X77370000Y-59940000D01*
X82560000Y-59940000D02*
X82560000Y-57180000D01*
X83830000Y-59940000D02*
X85210000Y-59940000D01*
X85210000Y-59940000D02*
X85210000Y-58560000D01*
X77380000Y-40360000D02*
X77380000Y-37600000D01*
X82570000Y-37600000D02*
X77380000Y-37600000D01*
X82570000Y-40360000D02*
X77380000Y-40360000D01*
X82570000Y-40360000D02*
X82570000Y-37600000D01*
X83840000Y-40360000D02*
X85220000Y-40360000D01*
X85220000Y-40360000D02*
X85220000Y-38980000D01*
X77320000Y-45220000D02*
X77320000Y-42460000D01*
X82510000Y-42460000D02*
X77320000Y-42460000D01*
X82510000Y-45220000D02*
X77320000Y-45220000D01*
X82510000Y-45220000D02*
X82510000Y-42460000D01*
X83780000Y-45220000D02*
X85160000Y-45220000D01*
X85160000Y-45220000D02*
X85160000Y-43840000D01*
X77350000Y-50110000D02*
X77350000Y-47350000D01*
X82540000Y-47350000D02*
X77350000Y-47350000D01*
X82540000Y-50110000D02*
X77350000Y-50110000D01*
X82540000Y-50110000D02*
X82540000Y-47350000D01*
X83810000Y-50110000D02*
X85190000Y-50110000D01*
X85190000Y-50110000D02*
X85190000Y-48730000D01*
%LPC*%
D14*
X112255000Y-72360000D03*
X107175000Y-72360000D03*
X104635000Y-72360000D03*
X109715000Y-72360000D03*
X90196500Y-70939000D03*
X90196500Y-68399000D03*
D15*
X90182500Y-65822500D03*
D14*
X90182500Y-60742500D03*
X90182500Y-58202500D03*
X90182500Y-55662500D03*
D15*
X90182500Y-53122500D03*
D14*
X90182500Y-50582500D03*
X90182500Y-48042500D03*
X90182500Y-45502500D03*
X90182500Y-42962500D03*
D15*
X90182500Y-40422500D03*
D14*
X90182500Y-37882500D03*
X90182500Y-35342500D03*
X90182500Y-32802500D03*
X90182500Y-30262500D03*
D15*
X90182500Y-27722500D03*
D14*
X72402500Y-22642500D03*
X72402500Y-25182500D03*
D15*
X72402500Y-27722500D03*
D14*
X72402500Y-30262500D03*
X72402500Y-32802500D03*
X72402500Y-35342500D03*
X72402500Y-37882500D03*
D15*
X72402500Y-40422500D03*
D14*
X72402500Y-42962500D03*
X72402500Y-45502500D03*
X72402500Y-48042500D03*
X72402500Y-50582500D03*
D15*
X72402500Y-53122500D03*
D14*
X72402500Y-55662500D03*
X72402500Y-58202500D03*
X72402500Y-60742500D03*
X72402500Y-63282500D03*
D15*
X72402500Y-65822500D03*
D14*
X72402500Y-68362500D03*
X72402500Y-70902500D03*
D16*
X50717500Y-70842500D03*
X50717500Y-73382500D03*
X46712500Y-70852500D03*
X46712500Y-73392500D03*
D17*
X90200000Y-22650000D03*
X103587500Y-66357500D03*
D15*
X103587500Y-63817500D03*
D14*
X103587500Y-61277500D03*
X103587500Y-58737500D03*
D18*
X103587500Y-56197500D03*
D17*
X114177500Y-29367500D03*
D15*
X114177500Y-31907500D03*
D14*
X114177500Y-34447500D03*
X114177500Y-36987500D03*
D19*
X114177500Y-39527500D03*
D20*
X40000000Y-52000000D03*
D17*
X61300000Y-30692500D03*
X61300000Y-28152500D03*
X61300000Y-33232500D03*
D16*
X60960000Y-22785000D03*
X63500000Y-22785000D03*
D21*
X56150000Y-36552500D03*
D22*
X116040000Y-23190000D03*
D14*
X90170000Y-63280000D03*
D16*
X65830000Y-49632500D03*
X65830000Y-47092500D03*
D17*
X96177500Y-29367500D03*
D15*
X96177500Y-31907500D03*
D14*
X96177500Y-34447500D03*
X96177500Y-36987500D03*
D19*
X96177500Y-39527500D03*
D23*
X39867500Y-23800000D03*
D17*
X109587500Y-66357500D03*
D15*
X109587500Y-63817500D03*
D14*
X109587500Y-61277500D03*
X109587500Y-58737500D03*
D18*
X109587500Y-56197500D03*
D16*
X60810000Y-37280000D03*
X63350000Y-37280000D03*
D24*
X66820000Y-44157500D03*
X65550000Y-44157500D03*
D25*
X68090000Y-44157500D03*
D22*
X116150000Y-72500000D03*
D17*
X108177500Y-29367500D03*
D15*
X108177500Y-31907500D03*
D14*
X108177500Y-34447500D03*
X108177500Y-36987500D03*
D19*
X108177500Y-39527500D03*
D20*
X40000000Y-66042500D03*
D21*
X56150000Y-26052500D03*
D17*
X61200000Y-45492500D03*
X61200000Y-42952500D03*
X61200000Y-48032500D03*
D22*
X93675000Y-23242500D03*
D23*
X39900000Y-30200000D03*
D17*
X97587500Y-66357500D03*
D15*
X97587500Y-63817500D03*
D14*
X97587500Y-61277500D03*
X97587500Y-58737500D03*
D18*
X97587500Y-56197500D03*
D17*
X115587500Y-66357500D03*
D15*
X115587500Y-63817500D03*
D14*
X115587500Y-61277500D03*
X115587500Y-58737500D03*
D18*
X115587500Y-56197500D03*
D23*
X39910000Y-36787500D03*
D16*
X65920000Y-41837500D03*
X65920000Y-39297500D03*
D24*
X66920000Y-29377500D03*
X65650000Y-29377500D03*
D25*
X68190000Y-29377500D03*
D23*
X39995000Y-43357500D03*
D16*
X65940000Y-34832500D03*
X65940000Y-32292500D03*
D17*
X102177500Y-29367500D03*
D15*
X102177500Y-31907500D03*
D14*
X102177500Y-34447500D03*
X102177500Y-36987500D03*
D19*
X102177500Y-39527500D03*
D16*
X66035000Y-27062500D03*
X66035000Y-24522500D03*
D26*
X114255000Y-43927500D03*
X111715000Y-43927500D03*
X109175000Y-43927500D03*
X106635000Y-43927500D03*
X104095000Y-43927500D03*
X101555000Y-43927500D03*
D27*
X99015000Y-43927500D03*
X96475000Y-43927500D03*
D26*
X96475000Y-51547500D03*
X99015000Y-51547500D03*
X101555000Y-51547500D03*
X104095000Y-51547500D03*
X106635000Y-51547500D03*
X109175000Y-51547500D03*
X111715000Y-51547500D03*
X114255000Y-51547500D03*
D17*
X83850000Y-63430000D03*
X81310000Y-63430000D03*
X78770000Y-63430000D03*
X83850000Y-24550000D03*
X81310000Y-24550000D03*
X78770000Y-24550000D03*
D28*
X66947500Y-71352500D03*
X38847500Y-71352500D03*
X66947500Y-57252500D03*
X38847500Y-57252500D03*
D17*
X83810000Y-53620000D03*
X81270000Y-53620000D03*
X78730000Y-53620000D03*
X83850000Y-68280000D03*
X81310000Y-68280000D03*
X78770000Y-68280000D03*
X83840000Y-29310000D03*
X81300000Y-29310000D03*
X78760000Y-29310000D03*
X83842500Y-34100000D03*
X81302500Y-34100000D03*
X78762500Y-34100000D03*
X83830000Y-58560000D03*
X81290000Y-58560000D03*
X78750000Y-58560000D03*
X83840000Y-38980000D03*
X81300000Y-38980000D03*
X78760000Y-38980000D03*
X83780000Y-43840000D03*
X81240000Y-43840000D03*
X78700000Y-43840000D03*
X83810000Y-48730000D03*
X81270000Y-48730000D03*
X78730000Y-48730000D03*
%LPD*%
M02*
