G04 #@! TF.GenerationSoftware,KiCad,Pcbnew,9.0.4*
G04 #@! TF.CreationDate,2026-01-06T18:54:23+03:00*
G04 #@! TF.ProjectId,pico-hd-mcu-v3,7069636f-2d68-4642-9d6d-63752d76332e,rev?*
G04 #@! TF.SameCoordinates,Original*
G04 #@! TF.FileFunction,Copper,L1,Top*
G04 #@! TF.FilePolarity,Positive*
%FSLAX46Y46*%
G04 Gerber Fmt 4.6, Leading zero omitted, Abs format (unit mm)*
G04 Created by KiCad (PCBNEW 9.0.4) date 2026-01-06 18:54:23*
%MOMM*%
%LPD*%
G01*
G04 APERTURE LIST*
G04 Aperture macros list*
%AMRoundRect*
0 Rectangle with rounded corners*
0 $1 Rounding radius*
0 $2 $3 $4 $5 $6 $7 $8 $9 X,Y pos of 4 corners*
0 Add a 4 corners polygon primitive as box body*
4,1,4,$2,$3,$4,$5,$6,$7,$8,$9,$2,$3,0*
0 Add four circle primitives for the rounded corners*
1,1,$1+$1,$2,$3*
1,1,$1+$1,$4,$5*
1,1,$1+$1,$6,$7*
1,1,$1+$1,$8,$9*
0 Add four rect primitives between the rounded corners*
20,1,$1+$1,$2,$3,$4,$5,0*
20,1,$1+$1,$4,$5,$6,$7,0*
20,1,$1+$1,$6,$7,$8,$9,0*
20,1,$1+$1,$8,$9,$2,$3,0*%
%AMOutline5P*
0 Free polygon, 5 corners , with rotation*
0 The origin of the aperture is its center*
0 number of corners: always 5*
0 $1 to $10 corner X, Y*
0 $11 Rotation angle, in degrees counterclockwise*
0 create outline with 5 corners*
4,1,5,$1,$2,$3,$4,$5,$6,$7,$8,$9,$10,$1,$2,$11*%
%AMOutline6P*
0 Free polygon, 6 corners , with rotation*
0 The origin of the aperture is its center*
0 number of corners: always 6*
0 $1 to $12 corner X, Y*
0 $13 Rotation angle, in degrees counterclockwise*
0 create outline with 6 corners*
4,1,6,$1,$2,$3,$4,$5,$6,$7,$8,$9,$10,$11,$12,$1,$2,$13*%
%AMOutline7P*
0 Free polygon, 7 corners , with rotation*
0 The origin of the aperture is its center*
0 number of corners: always 7*
0 $1 to $14 corner X, Y*
0 $15 Rotation angle, in degrees counterclockwise*
0 create outline with 7 corners*
4,1,7,$1,$2,$3,$4,$5,$6,$7,$8,$9,$10,$11,$12,$13,$14,$1,$2,$15*%
%AMOutline8P*
0 Free polygon, 8 corners , with rotation*
0 The origin of the aperture is its center*
0 number of corners: always 8*
0 $1 to $16 corner X, Y*
0 $17 Rotation angle, in degrees counterclockwise*
0 create outline with 8 corners*
4,1,8,$1,$2,$3,$4,$5,$6,$7,$8,$9,$10,$11,$12,$13,$14,$15,$16,$1,$2,$17*%
G04 Aperture macros list end*
G04 #@! TA.AperFunction,ComponentPad*
%ADD10O,1.700000X1.700000*%
G04 #@! TD*
G04 #@! TA.AperFunction,ComponentPad*
%ADD11R,1.700000X1.700000*%
G04 #@! TD*
G04 #@! TA.AperFunction,ComponentPad*
%ADD12R,1.800000X1.800000*%
G04 #@! TD*
G04 #@! TA.AperFunction,ComponentPad*
%ADD13C,1.700000*%
G04 #@! TD*
G04 #@! TA.AperFunction,ComponentPad*
%ADD14Outline5P,-0.850000X0.510000X-0.510000X0.850000X0.850000X0.850000X0.850000X-0.850000X-0.850000X-0.850000X180.000000*%
G04 #@! TD*
G04 #@! TA.AperFunction,ComponentPad*
%ADD15Outline5P,-0.850000X0.510000X-0.510000X0.850000X0.850000X0.850000X0.850000X-0.850000X-0.850000X-0.850000X0.000000*%
G04 #@! TD*
G04 #@! TA.AperFunction,ComponentPad*
%ADD16C,4.000000*%
G04 #@! TD*
G04 #@! TA.AperFunction,SMDPad,CuDef*
%ADD17RoundRect,0.375000X-0.625000X-0.375000X0.625000X-0.375000X0.625000X0.375000X-0.625000X0.375000X0*%
G04 #@! TD*
G04 #@! TA.AperFunction,ComponentPad*
%ADD18RoundRect,0.500000X-0.500000X-1.400000X0.500000X-1.400000X0.500000X1.400000X-0.500000X1.400000X0*%
G04 #@! TD*
G04 #@! TA.AperFunction,ComponentPad*
%ADD19C,3.000000*%
G04 #@! TD*
G04 #@! TA.AperFunction,ComponentPad*
%ADD20R,6.000000X4.000000*%
G04 #@! TD*
G04 #@! TA.AperFunction,ComponentPad*
%ADD21O,1.000000X1.000000*%
G04 #@! TD*
G04 #@! TA.AperFunction,ComponentPad*
%ADD22C,1.000000*%
G04 #@! TD*
G04 #@! TA.AperFunction,ComponentPad*
%ADD23O,1.600000X2.400000*%
G04 #@! TD*
G04 #@! TA.AperFunction,ComponentPad*
%ADD24R,1.600000X2.400000*%
G04 #@! TD*
G04 #@! TA.AperFunction,ComponentPad*
%ADD25R,4.000000X6.000000*%
G04 #@! TD*
G04 #@! TA.AperFunction,Conductor*
%ADD26C,0.500000*%
G04 #@! TD*
G04 #@! TA.AperFunction,Conductor*
%ADD27C,1.000000*%
G04 #@! TD*
G04 APERTURE END LIST*
D10*
X112255000Y-72360000D03*
X107175000Y-72360000D03*
X104635000Y-72360000D03*
X109715000Y-72360000D03*
X90196500Y-70939000D03*
X90196500Y-68399000D03*
D11*
X90182500Y-65822500D03*
D10*
X90182500Y-60742500D03*
X90182500Y-58202500D03*
X90182500Y-55662500D03*
D11*
X90182500Y-53122500D03*
D10*
X90182500Y-50582500D03*
X90182500Y-48042500D03*
X90182500Y-45502500D03*
X90182500Y-42962500D03*
D11*
X90182500Y-40422500D03*
D10*
X90182500Y-37882500D03*
X90182500Y-35342500D03*
X90182500Y-32802500D03*
X90182500Y-30262500D03*
D11*
X90182500Y-27722500D03*
D10*
X72402500Y-22642500D03*
X72402500Y-25182500D03*
D11*
X72402500Y-27722500D03*
D10*
X72402500Y-30262500D03*
X72402500Y-32802500D03*
X72402500Y-35342500D03*
X72402500Y-37882500D03*
D11*
X72402500Y-40422500D03*
D10*
X72402500Y-42962500D03*
X72402500Y-45502500D03*
X72402500Y-48042500D03*
X72402500Y-50582500D03*
D11*
X72402500Y-53122500D03*
D10*
X72402500Y-55662500D03*
X72402500Y-58202500D03*
X72402500Y-60742500D03*
X72402500Y-63282500D03*
D11*
X72402500Y-65822500D03*
D10*
X72402500Y-68362500D03*
X72402500Y-70902500D03*
D12*
X50717500Y-70842500D03*
X50717500Y-73382500D03*
X46712500Y-70852500D03*
X46712500Y-73392500D03*
D13*
X90200000Y-22650000D03*
X103587500Y-66357500D03*
D11*
X103587500Y-63817500D03*
D10*
X103587500Y-61277500D03*
X103587500Y-58737500D03*
D14*
X103587500Y-56197500D03*
D13*
X114177500Y-29367500D03*
D11*
X114177500Y-31907500D03*
D10*
X114177500Y-34447500D03*
X114177500Y-36987500D03*
D15*
X114177500Y-39527500D03*
D16*
X40000000Y-52000000D03*
D13*
X61300000Y-30692500D03*
X61300000Y-28152500D03*
X61300000Y-33232500D03*
D12*
X60960000Y-22785000D03*
X63500000Y-22785000D03*
D17*
X49850000Y-34252500D03*
X49850000Y-38852500D03*
D18*
X56150000Y-36552500D03*
D17*
X49850000Y-36552500D03*
D19*
X116040000Y-23190000D03*
D10*
X90170000Y-63280000D03*
D12*
X65830000Y-49632500D03*
X65830000Y-47092500D03*
D13*
X96177500Y-29367500D03*
D11*
X96177500Y-31907500D03*
D10*
X96177500Y-34447500D03*
X96177500Y-36987500D03*
D15*
X96177500Y-39527500D03*
D20*
X39867500Y-23800000D03*
D13*
X109587500Y-66357500D03*
D11*
X109587500Y-63817500D03*
D10*
X109587500Y-61277500D03*
X109587500Y-58737500D03*
D14*
X109587500Y-56197500D03*
D12*
X60810000Y-37280000D03*
X63350000Y-37280000D03*
D21*
X66820000Y-44157500D03*
X65550000Y-44157500D03*
D22*
X68090000Y-44157500D03*
D19*
X116150000Y-72500000D03*
D13*
X108177500Y-29367500D03*
D11*
X108177500Y-31907500D03*
D10*
X108177500Y-34447500D03*
X108177500Y-36987500D03*
D15*
X108177500Y-39527500D03*
D16*
X40000000Y-66042500D03*
D17*
X49850000Y-23752500D03*
X49850000Y-28352500D03*
D18*
X56150000Y-26052500D03*
D17*
X49850000Y-26052500D03*
D13*
X61200000Y-45492500D03*
X61200000Y-42952500D03*
X61200000Y-48032500D03*
D19*
X93675000Y-23242500D03*
D20*
X39900000Y-30200000D03*
D13*
X97587500Y-66357500D03*
D11*
X97587500Y-63817500D03*
D10*
X97587500Y-61277500D03*
X97587500Y-58737500D03*
D14*
X97587500Y-56197500D03*
D13*
X115587500Y-66357500D03*
D11*
X115587500Y-63817500D03*
D10*
X115587500Y-61277500D03*
X115587500Y-58737500D03*
D14*
X115587500Y-56197500D03*
D20*
X39910000Y-36787500D03*
D12*
X65920000Y-41837500D03*
X65920000Y-39297500D03*
D21*
X66920000Y-29377500D03*
X65650000Y-29377500D03*
D22*
X68190000Y-29377500D03*
D20*
X39995000Y-43357500D03*
D12*
X65940000Y-34832500D03*
X65940000Y-32292500D03*
D13*
X102177500Y-29367500D03*
D11*
X102177500Y-31907500D03*
D10*
X102177500Y-34447500D03*
X102177500Y-36987500D03*
D15*
X102177500Y-39527500D03*
D12*
X66035000Y-27062500D03*
X66035000Y-24522500D03*
D23*
X114255000Y-43927500D03*
X111715000Y-43927500D03*
X109175000Y-43927500D03*
X106635000Y-43927500D03*
X104095000Y-43927500D03*
X101555000Y-43927500D03*
D24*
X99015000Y-43927500D03*
X96475000Y-43927500D03*
D23*
X96475000Y-51547500D03*
X99015000Y-51547500D03*
X101555000Y-51547500D03*
X104095000Y-51547500D03*
X106635000Y-51547500D03*
X109175000Y-51547500D03*
X111715000Y-51547500D03*
X114255000Y-51547500D03*
D13*
X83850000Y-63430000D03*
X81310000Y-63430000D03*
X78770000Y-63430000D03*
X83850000Y-24550000D03*
X81310000Y-24550000D03*
X78770000Y-24550000D03*
D25*
X66947500Y-71352500D03*
X38847500Y-71352500D03*
X66947500Y-57252500D03*
X38847500Y-57252500D03*
D13*
X83810000Y-53620000D03*
X81270000Y-53620000D03*
X78730000Y-53620000D03*
X83850000Y-68280000D03*
X81310000Y-68280000D03*
X78770000Y-68280000D03*
X83840000Y-29310000D03*
X81300000Y-29310000D03*
X78760000Y-29310000D03*
X83842500Y-34100000D03*
X81302500Y-34100000D03*
X78762500Y-34100000D03*
X83830000Y-58560000D03*
X81290000Y-58560000D03*
X78750000Y-58560000D03*
X83840000Y-38980000D03*
X81300000Y-38980000D03*
X78760000Y-38980000D03*
X83780000Y-43840000D03*
X81240000Y-43840000D03*
X78700000Y-43840000D03*
X83810000Y-48730000D03*
X81270000Y-48730000D03*
X78730000Y-48730000D03*
D26*
X107175000Y-72360000D02*
X107175000Y-70980000D01*
X107175000Y-70980000D02*
X105330000Y-69135000D01*
X105330000Y-69135000D02*
X92305000Y-69135000D01*
X91569000Y-68399000D02*
X90196500Y-68399000D01*
X92305000Y-69135000D02*
X91569000Y-68399000D01*
X104635000Y-72360000D02*
X104635000Y-71240000D01*
X104635000Y-71240000D02*
X103897500Y-70502500D01*
X103897500Y-70502500D02*
X90633000Y-70502500D01*
X90633000Y-70502500D02*
X90196500Y-70939000D01*
X61200000Y-42952500D02*
X62890000Y-42952500D01*
X64095000Y-44157500D02*
X65550000Y-44157500D01*
X63100000Y-28152500D02*
X64325000Y-29377500D01*
X65650000Y-29377500D02*
X65650000Y-32002500D01*
X64325000Y-29377500D02*
X65650000Y-29377500D01*
X65550000Y-44157500D02*
X65550000Y-46812500D01*
X62890000Y-42952500D02*
X64095000Y-44157500D01*
X61300000Y-28152500D02*
X63100000Y-28152500D01*
X65650000Y-32002500D02*
X65940000Y-32292500D01*
X114177500Y-31907500D02*
X96177500Y-31907500D01*
X70717500Y-65822500D02*
X72402500Y-65822500D01*
X95972500Y-43425000D02*
X96475000Y-43927500D01*
X66947500Y-62052500D02*
X70717500Y-65822500D01*
X91972500Y-40422500D02*
X94975000Y-43425000D01*
D27*
X48947500Y-59842500D02*
X41437500Y-59842500D01*
X50717500Y-70842500D02*
X50717500Y-61612500D01*
D26*
X66947500Y-62052500D02*
X66947500Y-57252500D01*
X96177500Y-31907500D02*
X95507500Y-31907500D01*
X40000000Y-52000000D02*
X40000000Y-56100000D01*
D27*
X41437500Y-59842500D02*
X38847500Y-57252500D01*
D26*
X91322500Y-27722500D02*
X90182500Y-27722500D01*
D27*
X50717500Y-61612500D02*
X48947500Y-59842500D01*
D26*
X90182500Y-40422500D02*
X91972500Y-40422500D01*
X95507500Y-31907500D02*
X91322500Y-27722500D01*
X99015000Y-43927500D02*
X96475000Y-43927500D01*
X94975000Y-43425000D02*
X95972500Y-43425000D01*
X40247500Y-56852500D02*
X38847500Y-55452500D01*
X40000000Y-56100000D02*
X38847500Y-57252500D01*
D27*
X40000000Y-70200000D02*
X40000000Y-66042500D01*
X39347500Y-70852500D02*
X46712500Y-70852500D01*
X38847500Y-71352500D02*
X39347500Y-70852500D01*
X38847500Y-71352500D02*
X40000000Y-70200000D01*
D26*
X40457500Y-23752500D02*
X49850000Y-23752500D01*
X39867500Y-24342500D02*
X40457500Y-23752500D01*
D27*
X39900000Y-30352500D02*
X40240000Y-30692500D01*
X40240000Y-30692500D02*
X61300000Y-30692500D01*
D26*
X44647500Y-34252500D02*
X49850000Y-34252500D01*
X39910000Y-36397500D02*
X42502500Y-36397500D01*
X42502500Y-36397500D02*
X44647500Y-34252500D01*
D27*
X57587500Y-45492500D02*
X61200000Y-45492500D01*
X39995000Y-43357500D02*
X55452500Y-43357500D01*
X55452500Y-43357500D02*
X57587500Y-45492500D01*
D26*
X114255000Y-51547500D02*
X114290000Y-51582500D01*
X112300000Y-55200000D02*
X112300000Y-72315000D01*
X112300000Y-72315000D02*
X112255000Y-72360000D01*
X114255000Y-51547500D02*
X114255000Y-53245000D01*
X114255000Y-53245000D02*
X112300000Y-55200000D01*
X115587500Y-66357500D02*
X97587500Y-66357500D01*
X72402500Y-68362500D02*
X69237500Y-68362500D01*
X69237500Y-68362500D02*
X66947500Y-70652500D01*
X96177500Y-29367500D02*
X114177500Y-29367500D01*
X66947500Y-70652500D02*
X66947500Y-71352500D01*
X63635000Y-22650000D02*
X72395000Y-22650000D01*
X53000000Y-27500000D02*
X53000000Y-23550000D01*
X72395000Y-22650000D02*
X72402500Y-22642500D01*
X72402500Y-22642500D02*
X72360000Y-22600000D01*
X53950000Y-22600000D02*
X60745000Y-22600000D01*
X53000000Y-23550000D02*
X53950000Y-22600000D01*
X63500000Y-22785000D02*
X63635000Y-22650000D01*
X60745000Y-22600000D02*
X60945000Y-22800000D01*
X49850000Y-28352500D02*
X52147500Y-28352500D01*
X52147500Y-28352500D02*
X53000000Y-27500000D01*
X50997500Y-40000000D02*
X58500000Y-40000000D01*
X72402500Y-30262500D02*
X70937500Y-30262500D01*
X68447500Y-32752500D02*
X68447500Y-36252500D01*
X70937500Y-30262500D02*
X68447500Y-32752500D01*
X58500000Y-40000000D02*
X60810000Y-37690000D01*
X49850000Y-38852500D02*
X50997500Y-40000000D01*
X67420000Y-37280000D02*
X63350000Y-37280000D01*
X60810000Y-37690000D02*
X60810000Y-37280000D01*
X68447500Y-36252500D02*
X67420000Y-37280000D01*
X66820000Y-42737500D02*
X66820000Y-44157500D01*
X72402500Y-32802500D02*
X71147500Y-32802500D01*
X68840981Y-39297500D02*
X65920000Y-39297500D01*
X69900000Y-34050000D02*
X69900000Y-38238481D01*
X69900000Y-38238481D02*
X68840981Y-39297500D01*
X71147500Y-32802500D02*
X69900000Y-34050000D01*
X72402500Y-25182500D02*
X71920000Y-24700000D01*
X66212500Y-24700000D02*
X66035000Y-24522500D01*
X71920000Y-24700000D02*
X66212500Y-24700000D01*
X66920000Y-27947500D02*
X66920000Y-29377500D01*
X72372500Y-25152500D02*
X72402500Y-25182500D01*
X66035000Y-27062500D02*
X66920000Y-27947500D01*
X90195000Y-42950000D02*
X90182500Y-42962500D01*
X91700000Y-42950000D02*
X90195000Y-42950000D01*
X98245000Y-47000000D02*
X95750000Y-47000000D01*
X101555000Y-50310000D02*
X98245000Y-47000000D01*
X101555000Y-51547500D02*
X101555000Y-50310000D01*
X95750000Y-47000000D02*
X91700000Y-42950000D01*
X94950000Y-48525000D02*
X97150000Y-48525000D01*
X90182500Y-45502500D02*
X91927500Y-45502500D01*
X97150000Y-48525000D02*
X99015000Y-50390000D01*
X91927500Y-45502500D02*
X94950000Y-48525000D01*
X99015000Y-50390000D02*
X99015000Y-51547500D01*
X92067500Y-48042500D02*
X90182500Y-48042500D01*
X96475000Y-51547500D02*
X95572500Y-51547500D01*
X95572500Y-51547500D02*
X92067500Y-48042500D01*
X62447500Y-53752500D02*
X64047500Y-52152500D01*
X46712500Y-73392500D02*
X50707500Y-73392500D01*
X50717500Y-73382500D02*
X60617500Y-73382500D01*
X50707500Y-73392500D02*
X50717500Y-73382500D01*
X69710000Y-49090000D02*
X70757500Y-48042500D01*
X68247500Y-52152500D02*
X69710000Y-50690000D01*
X64047500Y-52152500D02*
X68247500Y-52152500D01*
X69710000Y-50690000D02*
X69710000Y-49090000D01*
X60617500Y-73382500D02*
X62447500Y-71552500D01*
X70757500Y-48042500D02*
X72402500Y-48042500D01*
X62447500Y-71552500D02*
X62447500Y-53752500D01*
X116652500Y-61277500D02*
X115587500Y-61277500D01*
X92117500Y-37882500D02*
X90182500Y-37882500D01*
X114177500Y-34447500D02*
X116247500Y-34447500D01*
X96177500Y-34447500D02*
X94252500Y-34447500D01*
X116247500Y-34447500D02*
X117800000Y-36000000D01*
X93125000Y-36875000D02*
X92117500Y-37882500D01*
X117800000Y-36000000D02*
X117800000Y-60130000D01*
X117800000Y-60130000D02*
X116652500Y-61277500D01*
X96177500Y-34447500D02*
X114177500Y-34447500D01*
X94252500Y-34447500D02*
X93125000Y-35575000D01*
X93125000Y-35575000D02*
X93125000Y-36875000D01*
X72500000Y-50680000D02*
X72402500Y-50582500D01*
X76557500Y-50582500D02*
X72402500Y-50582500D01*
X78410000Y-48730000D02*
X76557500Y-50582500D01*
X72727500Y-35342500D02*
X72402500Y-35342500D01*
X78760000Y-29310000D02*
X72727500Y-35342500D01*
X72425000Y-37860000D02*
X77640000Y-37860000D01*
X77640000Y-37860000D02*
X78760000Y-38980000D01*
X87550000Y-50580000D02*
X86680000Y-51450000D01*
X90180000Y-50580000D02*
X87550000Y-50580000D01*
X78730000Y-52730000D02*
X78730000Y-53620000D01*
X80010000Y-51450000D02*
X78730000Y-52730000D01*
X86680000Y-51450000D02*
X80010000Y-51450000D01*
X90182500Y-50582500D02*
X90180000Y-50580000D01*
X77820000Y-42960000D02*
X78700000Y-43840000D01*
X72405000Y-42960000D02*
X77820000Y-42960000D01*
X78770000Y-23380000D02*
X79500000Y-22650000D01*
X78770000Y-24550000D02*
X78770000Y-23380000D01*
X79500000Y-22650000D02*
X90200000Y-22650000D01*
X79840000Y-61010000D02*
X78770000Y-62080000D01*
X90182500Y-60742500D02*
X89915000Y-61010000D01*
X78770000Y-62080000D02*
X78770000Y-63430000D01*
X89915000Y-61010000D02*
X79840000Y-61010000D01*
X85580000Y-65770000D02*
X79520000Y-65770000D01*
X78770000Y-66520000D02*
X78770000Y-68280000D01*
X90170000Y-63280000D02*
X88070000Y-63280000D01*
X79520000Y-65770000D02*
X78770000Y-66520000D01*
X88070000Y-63280000D02*
X85580000Y-65770000D01*
X78762500Y-34100000D02*
X78762500Y-35302500D01*
X78762500Y-35302500D02*
X79652500Y-36192500D01*
X89332500Y-36192500D02*
X90182500Y-35342500D01*
X79652500Y-36192500D02*
X89332500Y-36192500D01*
X75852500Y-55662500D02*
X72402500Y-55662500D01*
X78750000Y-58560000D02*
X75852500Y-55662500D01*
M02*
