M48
; DRILL file {KiCad 9.0.4} date 2026-01-06T18:54:20+0300
; FORMAT={-:-/ absolute / metric / decimal}
; #@! TF.CreationDate,2026-01-06T18:54:20+03:00
; #@! TF.GenerationSoftware,Kicad,Pcbnew,9.0.4
; #@! TF.FileFunction,Plated,1,2,PTH
FMAT,2
METRIC
; #@! TA.AperFunction,Plated,PTH,ComponentDrill
T1C0.500
; #@! TA.AperFunction,Plated,PTH,ComponentDrill
T2C1.000
; #@! TA.AperFunction,Plated,PTH,ComponentDrill
T3C2.000
%
G90
G05
T1
X65.55Y-44.157
X65.65Y-29.377
X66.82Y-44.157
X66.92Y-29.377
X68.09Y-44.157
X68.19Y-29.377
T2
X38.847Y-57.252
X38.847Y-71.352
X46.712Y-70.852
X46.712Y-73.392
X50.718Y-70.843
X50.718Y-73.382
X56.15Y-26.052
X56.15Y-36.552
X60.81Y-37.28
X60.96Y-22.785
X61.2Y-42.953
X61.2Y-45.492
X61.2Y-48.032
X61.3Y-28.152
X61.3Y-30.692
X61.3Y-33.233
X63.35Y-37.28
X63.5Y-22.785
X65.83Y-47.093
X65.83Y-49.633
X65.92Y-39.297
X65.92Y-41.837
X65.94Y-32.292
X65.94Y-34.832
X66.035Y-24.522
X66.035Y-27.062
X66.947Y-57.252
X66.947Y-71.352
X72.403Y-22.642
X72.403Y-25.182
X72.403Y-27.723
X72.403Y-30.262
X72.403Y-32.803
X72.403Y-35.343
X72.403Y-37.883
X72.403Y-40.422
X72.403Y-42.962
X72.403Y-45.502
X72.403Y-48.042
X72.403Y-50.582
X72.403Y-53.122
X72.403Y-55.662
X72.403Y-58.203
X72.403Y-60.742
X72.403Y-63.282
X72.403Y-65.822
X72.403Y-68.362
X72.403Y-70.903
X78.7Y-43.84
X78.73Y-48.73
X78.73Y-53.62
X78.75Y-58.56
X78.76Y-29.31
X78.76Y-38.98
X78.763Y-34.1
X78.77Y-24.55
X78.77Y-63.43
X78.77Y-68.28
X81.24Y-43.84
X81.27Y-48.73
X81.27Y-53.62
X81.29Y-58.56
X81.3Y-29.31
X81.3Y-38.98
X81.302Y-34.1
X81.31Y-24.55
X81.31Y-63.43
X81.31Y-68.28
X83.78Y-43.84
X83.81Y-48.73
X83.81Y-53.62
X83.83Y-58.56
X83.84Y-29.31
X83.84Y-38.98
X83.843Y-34.1
X83.85Y-24.55
X83.85Y-63.43
X83.85Y-68.28
X90.17Y-63.28
X90.182Y-27.723
X90.182Y-30.262
X90.182Y-32.803
X90.182Y-35.343
X90.182Y-37.883
X90.182Y-40.422
X90.182Y-42.962
X90.182Y-45.502
X90.182Y-48.042
X90.182Y-50.582
X90.182Y-53.122
X90.182Y-55.662
X90.182Y-58.203
X90.182Y-60.742
X90.182Y-65.822
X90.197Y-68.399
X90.197Y-70.939
X90.2Y-22.65
X96.177Y-29.367
X96.177Y-31.907
X96.177Y-34.447
X96.177Y-36.987
X96.177Y-39.527
X96.475Y-43.927
X96.475Y-51.547
X97.587Y-56.197
X97.587Y-58.737
X97.587Y-61.277
X97.587Y-63.817
X97.587Y-66.358
X99.015Y-43.927
X99.015Y-51.547
X101.555Y-43.927
X101.555Y-51.547
X102.177Y-29.367
X102.177Y-31.907
X102.177Y-34.447
X102.177Y-36.987
X102.177Y-39.527
X103.587Y-56.197
X103.587Y-58.737
X103.587Y-61.277
X103.587Y-63.817
X103.587Y-66.358
X104.095Y-43.927
X104.095Y-51.547
X104.635Y-72.36
X106.635Y-43.927
X106.635Y-51.547
X107.175Y-72.36
X108.177Y-29.367
X108.177Y-31.907
X108.177Y-34.447
X108.177Y-36.987
X108.177Y-39.527
X109.175Y-43.927
X109.175Y-51.547
X109.587Y-56.197
X109.587Y-58.737
X109.587Y-61.277
X109.587Y-63.817
X109.587Y-66.358
X109.715Y-72.36
X111.715Y-43.927
X111.715Y-51.547
X112.255Y-72.36
X114.177Y-29.367
X114.177Y-31.907
X114.177Y-34.447
X114.177Y-36.987
X114.177Y-39.527
X114.255Y-43.927
X114.255Y-51.547
X115.587Y-56.197
X115.587Y-58.737
X115.587Y-61.277
X115.587Y-63.817
X115.587Y-66.358
T3
X39.867Y-23.8
X39.9Y-30.2
X39.91Y-36.788
X39.995Y-43.357
X40.0Y-52.0
X40.0Y-66.043
X93.675Y-23.242
X116.04Y-23.19
X116.15Y-72.5
M30
